<?xml version="1.0" encoding="UTF-8" standalone="no"?>
<svg
   xmlns:dc="http://purl.org/dc/elements/1.1/"
   xmlns:cc="http://creativecommons.org/ns#"
   xmlns:rdf="http://www.w3.org/1999/02/22-rdf-syntax-ns#"
   xmlns:svg="http://www.w3.org/2000/svg"
   xmlns="http://www.w3.org/2000/svg"
   xmlns:sodipodi="http://sodipodi.sourceforge.net/DTD/sodipodi-0.dtd"
   xmlns:inkscape="http://www.inkscape.org/namespaces/inkscape"
   inkscape:version="1.0 (1.0+r73+1)"
   sodipodi:docname="3d-car-01.svg"
   id="svg4198"
   version="1.1"
   xml:space="preserve"
   width="640"
   height="640"
   viewBox="0 0 640 640"><sodipodi:namedview
     showguides="false"
     inkscape:document-rotation="0"
     inkscape:current-layer="svg4198"
     inkscape:window-maximized="1"
     inkscape:window-y="0"
     inkscape:window-x="0"
     inkscape:cy="195.65605"
     inkscape:cx="353.09392"
     inkscape:zoom="1"
     inkscape:snap-global="false"
     showgrid="true"
     id="namedview34"
     inkscape:window-height="850"
     inkscape:window-width="1600"
     inkscape:pageshadow="2"
     inkscape:pageopacity="0"
     guidetolerance="10"
     gridtolerance="10"
     objecttolerance="10"
     borderopacity="1"
     bordercolor="#666666"
     pagecolor="#ffffff"><inkscape:grid
       id="grid1127"
       type="xygrid" /></sodipodi:namedview><metadata
     id="metadata4204"><rdf:RDF><cc:Work
         rdf:about=""><dc:format>image/svg+xml</dc:format><dc:type
           rdf:resource="http://purl.org/dc/dcmitype/StillImage" /><dc:title /></cc:Work></rdf:RDF></metadata><defs
     id="defs4202"><clipPath
       clipPathUnits="userSpaceOnUse"
       id="clipPath4212"><path
         d="M 0,512 512,512 512,0 0,0 0,512 Z"
         id="path4214" /></clipPath></defs><text
     id="text1153"
     y="56.655457"
     x="-48.756973"
     style="font-size:26.6667px;line-height:1.25;font-family:sans-serif;-inkscape-font-specification:sans-serif"
     xml:space="preserve"><tspan
       y="56.655457"
       x="-48.756973"
       id="tspan1151"
       sodipodi:role="line" /></text><g
     transform="translate(-120.01935,18.392578)"
     id="g1277" /><g
     id="g1416"><g
       transform="matrix(0.63843796,0,0,-0.63843796,170.45832,349.46928)"
       id="g4206"><g
         id="g4208"><g
           clip-path="url(#clipPath4212)"
           id="g4210"><g
             transform="translate(254.8198,324.9283)"
             id="g4216"><path
               id="path4218"
               style="fill:#cccccc;fill-opacity:1;fill-rule:nonzero;stroke:none"
               d="m 0,0 -189.736,-203.062 c -10.587,-11.33 -4.928,-29.873 10.181,-33.361 L 24.448,-283.52 c 7.001,-1.617 14.333,0.621 19.238,5.871 l 181.81,194.579 c 10.587,11.33 4.928,29.873 -10.181,33.361 z" /></g><g
             transform="translate(268.8204,67.1462)"
             id="g4220"><path
               id="path4222"
               style="fill:#272425;fill-opacity:1;fill-rule:nonzero;stroke:none"
               d="m 0,0 27.291,-4.666 c 3.458,-0.591 7.019,-0.488 10.457,0.302 l 2.007,0.462 -14.808,38.917 z" /></g><g
             transform="translate(403.75,205.8333)"
             id="g4224"><path
               id="path4226"
               style="fill:#272425;fill-opacity:1;fill-rule:nonzero;stroke:none"
               d="m 0,0 24.276,-4.353 c 3.076,-0.552 6.233,-0.456 9.27,0.282 l 1.773,0.431 -13.736,36.307 z" /></g><g
             transform="translate(283.8443,71.1198)"
             id="g4228"><path
               id="path4230"
               style="fill:#8e3531;fill-opacity:1;fill-rule:nonzero;stroke:none"
               d="M 0,0 C -3.776,-4.102 -9.44,-5.899 -14.89,-4.725 L -132.594,20.63 -236.376,48.036 c -6.907,1.824 -11.718,8.071 -11.718,15.214 v 44.327 c 0,4.933 1.406,9.764 4.053,13.927 l 40.023,62.945 c 8.434,13.264 17.976,25.789 28.523,37.443 l 81.901,90.488 66.497,58.597 c 5.866,5.169 13.716,7.483 21.448,6.322 l 37.532,-5.636 c 15.67,-2.354 31.204,-5.544 46.534,-9.558 l 45.739,-11.975 51.694,-24.487 c 6.194,-2.933 10.276,-9.03 10.63,-15.874 l 4.676,-90.389 -34.012,-38.969 -17.322,-28.531 z" /></g><g
             transform="translate(376.7026,374.9453)"
             id="g4232"><path
               id="path4234"
               style="fill:#272425;fill-opacity:1;fill-rule:nonzero;stroke:none"
               d="m 0,0 27.049,-68.473 c 0.356,-0.901 0.168,-1.926 -0.486,-2.642 l -47.723,-52.301 c -6.409,-7.025 -18.054,-1.648 -16.865,7.787 l 11.085,87.88 c 0.601,4.767 2.806,9.189 6.251,12.538 L -4.128,0.887 C -2.83,2.149 -0.665,1.684 0,0" /></g><g
             transform="translate(383.4201,384.1104)"
             id="g4236"><path
               id="path4238"
               style="fill:#272425;fill-opacity:1;fill-rule:nonzero;stroke:none"
               d="m 0,0 28.262,-61.502 c 0.792,-1.724 3.128,-2 4.301,-0.507 l 23.467,29.882 c 5.992,7.629 5.237,18.555 -1.746,25.289 L 29.403,17.151 C 25.5,20.914 19.321,20.92 15.411,17.164 L 0.548,2.889 C -0.231,2.141 -0.451,0.982 0,0" /></g><g
             transform="translate(324.4084,213.9458)"
             id="g4240"><path
               id="path4242"
               style="fill:#ce5734;fill-opacity:1;fill-rule:nonzero;stroke:none"
               d="m 0,0 18.134,136.873 c 0.618,4.661 2.75,8.99 6.068,12.32 l 56.843,57.046 c 0.441,0.443 0.782,0.937 1.044,1.459 l -44.236,11.581 c -15.33,4.014 -30.864,7.204 -46.535,9.558 l -37.531,5.636 c -7.732,1.161 -15.582,-1.153 -21.448,-6.322 l -66.497,-58.597 -81.901,-90.488 c -10.547,-11.654 -20.089,-24.179 -28.523,-37.443 l -40.023,-62.945 c -1.314,-2.066 -2.32,-4.297 -3.003,-6.623 2.813,-5.823 7.935,-10.519 14.614,-12.59 l 23.353,-7.243 c 44.485,-13.796 89.673,-25.21 135.373,-34.193 l 36.25,-7.125 c 12.551,-2.467 25.319,3.098 32.056,13.972 L -0.794,-2.221 C -0.375,-1.545 -0.104,-0.788 0,0" /></g><g
             transform="translate(334.1277,345.5676)"
             id="g4244"><path
               id="path4246"
               style="fill:#272425;fill-opacity:1;fill-rule:nonzero;stroke:none"
               d="m 0,0 -15.482,-111.878 c -0.802,-5.798 -6.322,-9.722 -12.062,-8.576 l -75.733,13.84 c -20.226,3.696 -40.296,8.199 -60.162,13.497 l -62.167,16.58 c -5.159,1.274 -7.116,7.574 -3.587,11.546 l 83.654,94.147 c 2.628,2.957 6.63,4.292 10.507,3.505 L -4.339,6.123 C -1.503,5.548 0.397,2.866 0,0" /></g><g
             transform="translate(469.0438,260.4167)"
             id="g4248"><path
               id="path4250"
               style="fill:#272425;fill-opacity:1;fill-rule:nonzero;stroke:none"
               d="M 0,0 C -5.41,-32.263 -19.65,-58.318 -31.805,-58.417 -43.559,-58.512 -49.405,-32.268 -44.019,0 -38.633,32.267 -24.37,58.417 -12.214,58.417 -0.059,58.417 5.41,32.263 0,0" /></g><g
             transform="translate(465.451,258.9519)"
             id="g4252"><path
               id="path4254"
               style="fill:#808082;fill-opacity:1;fill-rule:nonzero;stroke:none"
               d="m 0,0 c -3.632,-21.658 -13.191,-39.215 -21.351,-39.215 -8.159,0 -11.83,17.557 -8.199,39.215 3.632,21.658 13.191,39.215 21.351,39.215 C -0.039,39.215 3.632,21.658 0,0" /></g><g
             transform="translate(343.4625,125.653)"
             id="g4256"><path
               id="path4258"
               style="fill:#272425;fill-opacity:1;fill-rule:nonzero;stroke:none"
               d="M 0,0 C -6.703,-34.582 -23.247,-62.509 -36.954,-62.616 -50.209,-62.718 -56.31,-34.588 -49.633,0 -42.956,34.586 -26.385,62.616 -12.679,62.616 1.027,62.616 6.703,34.582 0,0" /></g><g
             transform="translate(339.3841,124.083)"
             id="g4260"><path
               id="path4262"
               style="fill:#808082;fill-opacity:1;fill-rule:nonzero;stroke:none"
               d="m 0,0 c -4.5,-23.214 -15.606,-42.033 -24.807,-42.033 -9.201,0 -13.011,18.819 -8.511,42.033 4.5,23.214 15.606,42.033 24.807,42.033 C 0.689,42.033 4.5,23.214 0,0" /></g></g></g></g><path
       style="fill:none;stroke:#000000;stroke-width:1px;stroke-linecap:butt;stroke-linejoin:miter;stroke-opacity:1"
       d="M 251.28,284.44424 H 127.96947"
       id="path1129" /><path
       style="fill:none;stroke:#000000;stroke-width:1px;stroke-linecap:butt;stroke-linejoin:miter;stroke-opacity:1"
       d="M 328.46182,104.43899 H 207.00908"
       id="path1131"
       sodipodi:nodetypes="cc" /><path
       style="fill:none;stroke:#000000;stroke-width:1px;stroke-linecap:butt;stroke-linejoin:miter;stroke-opacity:1"
       d="M 314.81828,85.594003 H 207.15009"
       id="path1133" /><path
       style="fill:none;stroke:#000000;stroke-width:1px;stroke-linecap:butt;stroke-linejoin:miter;stroke-opacity:1"
       d="M 319.89227,79.554109 307.14526,66.785532 H 206.66107"
       id="path1137"
       sodipodi:nodetypes="ccc" /><path
       style="fill:none;stroke:#000000;stroke-width:1px;stroke-linecap:butt;stroke-linejoin:miter;stroke-opacity:1"
       d="m 341.44463,111.16045 -13.73345,9.08972 H 206.74501"
       id="path1141"
       sodipodi:nodetypes="ccc" /><path
       style="fill:none;stroke:#000000;stroke-width:1px;stroke-linecap:butt;stroke-linejoin:miter;stroke-opacity:1"
       d="m 349.08864,113.79219 v 20.0369 H 206.72165"
       id="path1143"
       sodipodi:nodetypes="ccc" /><path
       style="fill:none;stroke:#000000;stroke-width:1px;stroke-linecap:butt;stroke-linejoin:miter;stroke-opacity:1"
       d="m 410.58066,100.94083 12.28275,19.57729 H 533.8339"
       id="path1147" /><path
       style="fill:none;stroke:#000000;stroke-width:1px;stroke-linecap:butt;stroke-linejoin:miter;stroke-opacity:1"
       d="m 401.69552,108.58733 17.87477,38.20912 h 113.36427"
       id="path1149" /><g
       id="g1339"
       transform="translate(62.43139,-89.765262)"><rect
         style="opacity:0.707;fill:#fabe50;fill-opacity:1;stroke:#000000;stroke-width:0.997513;stop-color:#000000"
         id="rect1260"
         width="191.89668"
         height="99.8283"
         x="363.92215"
         y="317.25482"
         ry="5.1378422" /><text
         id="text1153-3"
         y="341.13632"
         x="372.64551"
         style="font-size:14.6667px;line-height:1.25;font-family:sans-serif;-inkscape-font-specification:sans-serif"
         xml:space="preserve"><tspan
           style="font-size:14.6667px"
           y="341.13632"
           x="372.64551"
           id="tspan1151-6"
           sodipodi:role="line">Segmented camera (SC)</tspan></text><text
         xml:space="preserve"
         style="font-size:14.6667px;line-height:1.25;font-family:sans-serif;-inkscape-font-specification:sans-serif"
         x="371.78613"
         y="372.69855"
         id="text1185"><tspan
           style="font-size:14.6667px"
           sodipodi:role="line"
           id="tspan1183"
           x="371.78613"
           y="372.69855">Depth Camera(DC)</tspan></text><text
         xml:space="preserve"
         style="font-size:14.6667px;line-height:1.25;font-family:sans-serif;-inkscape-font-specification:sans-serif"
         x="372.90591"
         y="405.32196"
         id="text1189"><tspan
           style="font-size:14.6667px"
           sodipodi:role="line"
           id="tspan1187"
           x="372.90591"
           y="405.32196">Colour Camera(RGB)</tspan></text></g><text
       xml:space="preserve"
       style="font-size:13.3333px;line-height:1.25;font-family:sans-serif;-inkscape-font-specification:sans-serif"
       x="168.28339"
       y="70.514816"
       id="text1230"><tspan
         sodipodi:role="line"
         id="tspan1228"
         x="168.28339"
         y="70.514816"
         style="font-size:13.3333px">DC(L)</tspan></text><text
       xml:space="preserve"
       style="font-size:13.3333px;line-height:1.25;font-family:sans-serif;-inkscape-font-specification:sans-serif;stroke-width:0.6782"
       x="159.11673"
       y="89.824875"
       id="text1234"><tspan
         sodipodi:role="line"
         id="tspan1232"
         x="159.11673"
         y="89.824875"
         style="font-size:13.3333px;stroke-width:0.6782">RGB(L)</tspan></text><text
       xml:space="preserve"
       style="font-size:13.3333px;line-height:1.25;font-family:sans-serif;-inkscape-font-specification:sans-serif"
       x="157.2157"
       y="108.61867"
       id="text1238"><tspan
         sodipodi:role="line"
         id="tspan1236"
         x="157.2157"
         y="108.61867"
         style="font-size:13.3333px">RGB(C)</tspan></text><text
       xml:space="preserve"
       style="font-size:13.3333px;line-height:1.25;font-family:sans-serif;-inkscape-font-specification:sans-serif"
       x="168.17921"
       y="138.13658"
       id="text1242"><tspan
         sodipodi:role="line"
         id="tspan1240"
         x="168.17921"
         y="138.13658"
         style="font-size:13.3333px">SC(C)</tspan></text><text
       xml:space="preserve"
       style="font-size:13.3333px;line-height:1.25;font-family:sans-serif;-inkscape-font-specification:sans-serif"
       x="166.38234"
       y="123.23969"
       id="text1246"><tspan
         sodipodi:role="line"
         id="tspan1244"
         x="166.38234"
         y="123.23969"
         style="font-size:13.3333px">DC(C)</tspan></text><text
       xml:space="preserve"
       style="font-size:13.3333px;line-height:1.25;font-family:sans-serif;-inkscape-font-specification:sans-serif"
       x="534.78485"
       y="151.50989"
       id="text1250"><tspan
         sodipodi:role="line"
         id="tspan1248"
         x="534.78485"
         y="151.50989"
         style="font-size:13.3333px">DC(R)</tspan></text><text
       xml:space="preserve"
       style="font-size:13.3333px;line-height:1.25;font-family:sans-serif;-inkscape-font-specification:sans-serif"
       x="534.78485"
       y="126.79034"
       id="text1254"><tspan
         sodipodi:role="line"
         id="tspan1252"
         x="534.78485"
         y="126.79034"
         style="font-size:13.3333px">RGB(R)</tspan></text><text
       xml:space="preserve"
       style="font-size:13.3333px;line-height:1.25;font-family:sans-serif;-inkscape-font-specification:sans-serif"
       x="85.189484"
       y="288.83139"
       id="text1258"><tspan
         sodipodi:role="line"
         id="tspan1256"
         x="85.189484"
         y="288.83139"
         style="font-size:13.3333px">Radar</tspan></text><ellipse
       style="opacity:0.707;fill:#8dc060;stroke:#a11035;stroke-width:0.475283;stop-color:#000000"
       id="path1086"
       cx="325.72122"
       cy="222.53218"
       rx="9.3983316"
       ry="4.4403257"
       transform="matrix(0.97771773,0.2099239,-0.23707483,0.97149139,0,0)" /><ellipse
       style="opacity:0.707;fill:#8dc060;stroke:#a11035;stroke-width:0.679497;stop-color:#000000"
       id="path859"
       cx="341.50293"
       cy="105.60908"
       rx="3.6728356"
       ry="4.7259197" /><ellipse
       ry="4.7259197"
       rx="3.6728356"
       cy="107.22394"
       cx="349.54276"
       id="ellipse861"
       style="opacity:0.707;fill:#8dc060;stroke:#a11035;stroke-width:0.679497;stop-color:#000000" /><ellipse
       style="opacity:0.707;fill:#8dc060;stroke:#a11035;stroke-width:0.679497;stop-color:#000000"
       id="ellipse863"
       cx="333.46313"
       cy="104.18802"
       rx="3.6728356"
       ry="4.7259197" /><path
       style="opacity:0.707;fill:#8dc060;stroke:#a11035;stroke-width:0.679497;stop-color:#000000"
       d="m 323.38025,79.220859 c 0.64865,0.373359 -0.36314,2.036362 -1.74166,3.140604 -0.97042,0.776851 -1.72072,0.916797 -1.89182,0.534245 -0.0766,-0.171612 -0.046,-0.442821 0.0899,-0.772765 0.1425,-0.34731 0.40094,-0.763061 0.74672,-1.181877 0.39583,-0.480616 0.89432,-0.951528 1.39741,-1.294752 0.59503,-0.405025 1.12519,-0.584298 1.39946,-0.425455"
       id="ellipse870" /><path
       style="opacity:0.707;fill:#8dc060;stroke:#a11035;stroke-width:0.679497;stop-color:#000000"
       d="m 316.15375,86.726857 c -0.79622,-0.116043 -1.11086,-0.811332 -0.50856,-1.73602 0.8066,-1.238539 2.69817,-2.175021 3.77719,-1.717051 0.46546,0.197415 0.60356,0.632401 0.42918,1.154551 -0.15202,0.454241 -0.52648,0.928973 -1.00933,1.325459 -0.43039,0.353388 -0.93388,0.634117 -1.41826,0.803558 -0.46425,0.162102 -0.91176,0.221998 -1.27022,0.169518"
       id="ellipse874"
       inkscape:transform-center-x="1.4067041"
       inkscape:transform-center-y="-2.1652799" /><path
       id="path1074"
       d="m 403.80573,100.95432 c 0.3741,0.50516 -0.28621,1.8511 -1.70594,3.21372 -1.74582,1.67625 -3.87391,2.68395 -4.34204,1.88359 -0.21975,-0.37689 0.0276,-1.09378 0.64088,-1.93543 0.56319,-0.77223 1.36762,-1.55415 2.2027,-2.17264 0.75946,-0.56227 1.49846,-0.95322 2.08005,-1.12015 0.55093,-0.15725 0.9465,-0.10893 1.12435,0.13091"
       style="opacity:0.707;fill:#8dc060;stroke:#a11035;stroke-width:1.26072;stop-color:#000000" /><path
       inkscape:transform-center-y="-1.9418774"
       inkscape:transform-center-x="2.6814108"
       id="path1076"
       d="m 405.97589,100.47154 c -1.08359,0.13792 -1.76606,-0.535555 -1.34278,-1.774809 0.56678,-1.659842 2.66646,-3.346278 4.25266,-3.196118 0.68418,0.06462 1.03455,0.505735 1.01162,1.149735 -0.0204,0.560345 -0.32275,1.218543 -0.79708,1.825509 -0.42281,0.540997 -0.96939,1.025147 -1.5346,1.378127 -0.54184,0.337966 -1.10188,0.555746 -1.58981,0.617566"
       style="opacity:0.707;fill:#8dc060;stroke:#a11035;stroke-width:0.857713;stop-color:#000000" /></g></svg>
