<?xml version="1.0" encoding="UTF-8" standalone="no"?>
<svg
   xmlns:ns1="http://www.iki.fi/pav/software/textext/"
   xmlns:dc="http://purl.org/dc/elements/1.1/"
   xmlns:cc="http://creativecommons.org/ns#"
   xmlns:rdf="http://www.w3.org/1999/02/22-rdf-syntax-ns#"
   xmlns:svg="http://www.w3.org/2000/svg"
   xmlns="http://www.w3.org/2000/svg"
   xmlns:xlink="http://www.w3.org/1999/xlink"
   xmlns:sodipodi="http://sodipodi.sourceforge.net/DTD/sodipodi-0.dtd"
   xmlns:inkscape="http://www.inkscape.org/namespaces/inkscape"
   inkscape:version="1.0 (1.0+r73+1)"
   sodipodi:docname="activatefns1.svg"
   id="svg437"
   width="432pt"
   viewBox="0 0 432 288"
   version="1.1"
   height="288pt">
  <metadata
     id="metadata441">
    <rdf:RDF>
      <cc:Work
         rdf:about="">
        <dc:format>image/svg+xml</dc:format>
        <dc:type
           rdf:resource="http://purl.org/dc/dcmitype/StillImage" />
        <dc:title></dc:title>
      </cc:Work>
    </rdf:RDF>
  </metadata>
  <sodipodi:namedview
     inkscape:document-rotation="0"
     pagecolor="#ffffff"
     bordercolor="#666666"
     borderopacity="1"
     objecttolerance="10"
     gridtolerance="10"
     guidetolerance="10"
     inkscape:pageopacity="0"
     inkscape:pageshadow="2"
     inkscape:window-width="1600"
     inkscape:window-height="850"
     id="namedview439"
     showgrid="true"
     inkscape:zoom="1.4142136"
     inkscape:cx="153.51049"
     inkscape:cy="165.12759"
     inkscape:window-x="0"
     inkscape:window-y="0"
     inkscape:window-maximized="1"
     inkscape:current-layer="svg437"
     inkscape:snap-global="false">
    <inkscape:grid
       id="grid2944"
       type="xygrid" />
  </sodipodi:namedview>
  <defs
     id="defs4">
    <style
       type="text/css"
       id="style2">
*{stroke-linecap:butt;stroke-linejoin:round;}
  </style>
    <g
       id="id-66b979ff-d3ae-4ef8-96af-588007ee89ec">
      <symbol
         overflow="visible"
         id="id-7762a6eb-9d14-418f-a67a-3db2b6e9e1cb">
        <path
           style="stroke:none"
           d=""
           id="id-6bda0cf6-f98e-4281-bac3-ddae95ee15ff" />
      </symbol>
      <symbol
         overflow="visible"
         id="id-616de340-ac59-4e3e-b2e5-a9f873944f27">
        <path
           style="stroke:none"
           d="m 5.15625,-3.71875 c 0.140625,0 0.5,0 0.5,-0.34375 0,-0.234375 -0.21875,-0.234375 -0.390625,-0.234375 h -2.28125 c -1.5,0 -2.609375,1.640625 -2.609375,2.828125 0,0.875 0.59375,1.578125 1.5,1.578125 1.171875,0 2.5,-1.203125 2.5,-2.734375 0,-0.171875 0,-0.65625 -0.3125,-1.09375 z M 1.890625,-0.109375 C 1.390625,-0.109375 1,-0.46875 1,-1.1875 c 0,-0.296875 0.109375,-1.109375 0.46875,-1.703125 0.421875,-0.6875 1.015625,-0.828125 1.359375,-0.828125 0.828125,0 0.90625,0.65625 0.90625,0.96875 0,0.46875 -0.203125,1.28125 -0.53125,1.796875 -0.390625,0.578125 -0.9375,0.84375 -1.3125,0.84375 z m 0,0"
           id="id-3e53e15d-5dca-4602-a735-20fba4c008c2" />
      </symbol>
      <symbol
         overflow="visible"
         id="id-860c0404-b4f7-420f-a23d-7570d3523983">
        <path
           style="stroke:none"
           d="M 3.328125,-3.015625 C 3.390625,-3.265625 3.625,-4.1875 4.3125,-4.1875 c 0.046875,0 0.296875,0 0.5,0.125 C 4.53125,-4 4.34375,-3.765625 4.34375,-3.515625 c 0,0.15625 0.109375,0.34375 0.375,0.34375 0.21875,0 0.53125,-0.171875 0.53125,-0.578125 0,-0.515625 -0.578125,-0.65625 -0.921875,-0.65625 -0.578125,0 -0.921875,0.53125 -1.046875,0.75 -0.25,-0.65625 -0.78125,-0.75 -1.078125,-0.75 -1.03125,0 -1.609375,1.28125 -1.609375,1.53125 0,0.109375 0.109375,0.109375 0.125,0.109375 0.078125,0 0.109375,-0.03125 0.125,-0.109375 0.34375,-1.0625 1,-1.3125 1.34375,-1.3125 0.1875,0 0.53125,0.09375 0.53125,0.671875 0,0.3125 -0.171875,0.96875 -0.53125,2.375 -0.15625,0.609375 -0.515625,1.03125 -0.953125,1.03125 -0.0625,0 -0.28125,0 -0.5,-0.125 0.25,-0.0625 0.46875,-0.265625 0.46875,-0.546875 0,-0.265625 -0.21875,-0.34375 -0.359375,-0.34375 -0.3125,0 -0.546875,0.25 -0.546875,0.578125 0,0.453125 0.484375,0.65625 0.921875,0.65625 0.671875,0 1.03125,-0.703125 1.046875,-0.75 0.125,0.359375 0.484375,0.75 1.078125,0.75 1.03125,0 1.59375,-1.28125 1.59375,-1.53125 0,-0.109375 -0.078125,-0.109375 -0.109375,-0.109375 -0.09375,0 -0.109375,0.046875 -0.140625,0.109375 -0.328125,1.078125 -1,1.3125 -1.3125,1.3125 -0.390625,0 -0.546875,-0.3125 -0.546875,-0.65625 0,-0.21875 0.046875,-0.4375 0.15625,-0.875 z m 0,0"
           id="id-84525b82-6e0b-48de-b67b-175de890a122" />
      </symbol>
      <symbol
         overflow="visible"
         id="id-73c64a64-9720-4dde-bfcf-3cb2ad304021">
        <path
           style="stroke:none"
           d=""
           id="id-1014f666-11be-4d88-98de-76f9c8762188" />
      </symbol>
      <symbol
         overflow="visible"
         id="id-0a83b974-da6f-4787-8b8d-23b96d1f4b57">
        <path
           style="stroke:none"
           d="m 3.296875,2.390625 c 0,-0.03125 0,-0.046875 -0.171875,-0.21875 C 1.890625,0.921875 1.5625,-0.96875 1.5625,-2.5 c 0,-1.734375 0.375,-3.46875 1.609375,-4.703125 0.125,-0.125 0.125,-0.140625 0.125,-0.171875 0,-0.078125 -0.03125,-0.109375 -0.09375,-0.109375 -0.109375,0 -1,0.6875 -1.59375,1.953125 -0.5,1.09375 -0.625,2.203125 -0.625,3.03125 0,0.78125 0.109375,1.984375 0.65625,3.125 C 2.25,1.84375 3.09375,2.5 3.203125,2.5 c 0.0625,0 0.09375,-0.03125 0.09375,-0.109375 z m 0,0"
           id="id-a8e5d46b-3a6d-49c8-9c7b-3565eadcf186" />
      </symbol>
      <symbol
         overflow="visible"
         id="id-42bbffcb-d627-4a67-ad13-8e3f4779646c">
        <path
           style="stroke:none"
           d="m 2.875,-2.5 c 0,-0.765625 -0.109375,-1.96875 -0.65625,-3.109375 -0.59375,-1.21875 -1.453125,-1.875 -1.546875,-1.875 -0.0625,0 -0.109375,0.046875 -0.109375,0.109375 0,0.03125 0,0.046875 0.1875,0.234375 0.984375,0.984375 1.546875,2.5625 1.546875,4.640625 0,1.71875 -0.359375,3.46875 -1.59375,4.71875 C 0.5625,2.34375 0.5625,2.359375 0.5625,2.390625 0.5625,2.453125 0.609375,2.5 0.671875,2.5 0.765625,2.5 1.671875,1.8125 2.25,0.546875 2.765625,-0.546875 2.875,-1.65625 2.875,-2.5 Z m 0,0"
           id="id-99d0ede4-b1cc-4ebc-9f77-2f15667961e3" />
      </symbol>
      <symbol
         overflow="visible"
         id="id-2b09984d-6c13-4131-98c5-fd5c94905fd0">
        <path
           style="stroke:none"
           d="m 6.84375,-3.265625 c 0.15625,0 0.34375,0 0.34375,-0.1875 C 7.1875,-3.65625 7,-3.65625 6.859375,-3.65625 h -5.96875 c -0.140625,0 -0.328125,0 -0.328125,0.203125 0,0.1875 0.1875,0.1875 0.328125,0.1875 z m 0.015625,1.9375 c 0.140625,0 0.328125,0 0.328125,-0.203125 0,-0.1875 -0.1875,-0.1875 -0.34375,-0.1875 H 0.890625 c -0.140625,0 -0.328125,0 -0.328125,0.1875 0,0.203125 0.1875,0.203125 0.328125,0.203125 z m 0,0"
           id="id-502fdae6-e804-465d-a989-4d67ef7210eb" />
      </symbol>
      <symbol
         overflow="visible"
         id="id-ed02afdc-38f6-4e85-aca2-d6934dcddb6a">
        <path
           style="stroke:none"
           d=""
           id="id-2dde5799-7a6e-42d0-ba2b-70b864673a81" />
      </symbol>
      <symbol
         overflow="visible"
         id="id-96dab160-ec32-448e-9e15-7d538ff73b7e">
        <path
           style="stroke:none"
           d="m 2.328125,-4.4375 c 0,-0.1875 0,-0.1875 -0.203125,-0.1875 -0.453125,0.4375 -1.078125,0.4375 -1.359375,0.4375 v 0.25 c 0.15625,0 0.625,0 1,-0.1875 v 3.546875 c 0,0.234375 0,0.328125 -0.6875,0.328125 H 0.8125 V 0 c 0.125,0 0.984375,-0.03125 1.234375,-0.03125 0.21875,0 1.09375,0.03125 1.25,0.03125 V -0.25 H 3.03125 c -0.703125,0 -0.703125,-0.09375 -0.703125,-0.328125 z m 0,0"
           id="id-b65dbc7d-c7bf-4851-96cc-5cccd229f090" />
      </symbol>
      <symbol
         overflow="visible"
         id="id-c58764e6-2e5d-4987-97da-e7b56d20c418">
        <path
           style="stroke:none"
           d="m 3.21875,-1.578125 h 2.140625 c 0.09375,0 0.25,0 0.25,-0.15625 0,-0.1875 -0.15625,-0.1875 -0.25,-0.1875 H 3.21875 V -4.0625 c 0,-0.078125 0,-0.25 -0.15625,-0.25 -0.171875,0 -0.171875,0.15625 -0.171875,0.25 v 2.140625 H 0.75 c -0.09375,0 -0.265625,0 -0.265625,0.171875 0,0.171875 0.15625,0.171875 0.265625,0.171875 H 2.890625 V 0.5625 c 0,0.09375 0,0.265625 0.15625,0.265625 0.171875,0 0.171875,-0.171875 0.171875,-0.265625 z m 0,0"
           id="id-715b81db-426a-4934-8823-07fc084853ae" />
      </symbol>
      <symbol
         overflow="visible"
         id="id-8a9f4eac-6323-45b6-8dc5-637f5a080a52">
        <path
           style="stroke:none"
           d=""
           id="id-3f41b379-36cf-491c-9ce8-8efefbb13ff8" />
      </symbol>
      <symbol
         overflow="visible"
         id="id-d239c9cf-a9dd-4a17-8d8d-8da45c93bda0">
        <path
           style="stroke:none"
           d="m 1.5625,-1.59375 c 0.1875,0 0.75,-0.015625 1.125,-0.140625 0.515625,-0.1875 0.609375,-0.515625 0.609375,-0.71875 0,-0.390625 -0.390625,-0.625 -0.859375,-0.625 -0.84375,0 -1.96875,0.640625 -1.96875,1.84375 0,0.703125 0.4375,1.296875 1.25,1.296875 1.1875,0 1.734375,-0.6875 1.734375,-0.78125 0,-0.046875 -0.0625,-0.125 -0.125,-0.125 -0.03125,0 -0.046875,0.015625 -0.109375,0.078125 C 2.671875,-0.125 1.859375,-0.125 1.734375,-0.125 1.3125,-0.125 1.03125,-0.40625 1.03125,-0.96875 c 0,-0.09375 0,-0.234375 0.09375,-0.625 z M 1.171875,-1.78125 C 1.46875,-2.796875 2.234375,-2.875 2.4375,-2.875 2.734375,-2.875 3,-2.71875 3,-2.453125 3,-1.78125 1.8125,-1.78125 1.515625,-1.78125 Z m 0,0"
           id="id-3f056833-9387-46d8-8f51-93bd26b99e2c" />
      </symbol>
      <symbol
         overflow="visible"
         id="id-930fc5a3-2a64-4482-a6e7-e92d3afb877f">
        <path
           style="stroke:none"
           d=""
           id="id-19a03b58-b139-468b-bf16-b40711841124" />
      </symbol>
      <symbol
         overflow="visible"
         id="id-c720fdcd-0712-49cb-8cf0-0565020e698f">
        <path
           style="stroke:none"
           d="m 4.390625,-1.109375 c 0.078125,0 0.203125,0 0.203125,-0.140625 0,-0.140625 -0.125,-0.140625 -0.203125,-0.140625 h -3.375 c -0.078125,0 -0.21875,0 -0.21875,0.140625 0,0.140625 0.140625,0.140625 0.21875,0.140625 z m 0,0"
           id="id-41e6dd00-65d3-47f8-9fc3-4f75fc851bba" />
      </symbol>
      <symbol
         overflow="visible"
         id="id-0ece0219-3554-4cbd-8e5c-846d8d139529">
        <path
           style="stroke:none"
           d=""
           id="id-5139d7bd-26f9-475a-8d07-3d93cc8cdf0e" />
      </symbol>
      <symbol
         overflow="visible"
         id="id-9695efa4-c123-4134-b929-6c0f30e636df">
        <path
           style="stroke:none"
           d="m 3.09375,-1.953125 c -0.234375,0.0625 -0.234375,0.28125 -0.234375,0.296875 0,0.078125 0.0625,0.203125 0.234375,0.203125 0.140625,0 0.3125,-0.125 0.3125,-0.34375 0,-0.296875 -0.328125,-0.40625 -0.59375,-0.40625 -0.328125,0 -0.546875,0.203125 -0.640625,0.34375 -0.15625,-0.28125 -0.484375,-0.34375 -0.65625,-0.34375 -0.625,0 -0.984375,0.59375 -0.984375,0.765625 0,0.078125 0.078125,0.078125 0.109375,0.078125 0.046875,0 0.078125,0 0.109375,-0.0625 0.140625,-0.484375 0.546875,-0.609375 0.734375,-0.609375 0.171875,0 0.359375,0.0625 0.359375,0.328125 0,0.125 -0.09375,0.46875 -0.265625,1.140625 -0.0625,0.28125 -0.296875,0.453125 -0.515625,0.453125 -0.03125,0 -0.171875,0 -0.296875,-0.078125 0.21875,-0.09375 0.21875,-0.28125 0.21875,-0.296875 0,-0.140625 -0.109375,-0.203125 -0.21875,-0.203125 -0.125,0 -0.296875,0.09375 -0.296875,0.328125 0,0.3125 0.328125,0.421875 0.59375,0.421875 0.265625,0 0.5,-0.171875 0.609375,-0.34375 C 1.875,0.015625 2.1875,0.0625 2.34375,0.0625 c 0.625,0 0.984375,-0.59375 0.984375,-0.78125 0,-0.0625 -0.078125,-0.0625 -0.109375,-0.0625 -0.078125,0 -0.09375,0.03125 -0.109375,0.0625 C 2.96875,-0.265625 2.59375,-0.109375 2.375,-0.109375 c -0.15625,0 -0.359375,-0.0625 -0.359375,-0.34375 0,-0.0625 0,-0.09375 0.03125,-0.265625 0.09375,-0.34375 0.21875,-0.890625 0.265625,-0.984375 0.0625,-0.125 0.234375,-0.328125 0.484375,-0.328125 0.015625,0 0.1875,0 0.296875,0.078125 z m 0,0"
           id="id-99969763-e866-437b-9a1b-97cb897e0805" />
      </symbol>
    </g>
  </defs>
  <g
     id="axes_1">
    <g
       id="patch_2">
      <path
         id="path9"
         style="fill:#ffffff"
         d="M 42.01,121.52 H 211.635 V 10.8 H 42.01 Z" />
    </g>
    <g
       id="matplotlib.axis_1">
      <g
         id="xtick_1">
        <g
           id="line2d_1">
          <defs
             id="defs13">
            <path
               style="stroke:#000000;stroke-width:0.8"
               id="md8ac68b005"
               d="M 0,0 V 3.5" />
          </defs>
          <g
             id="g17">
            <use
               height="100%"
               width="100%"
               id="use15"
               y="121.52"
               xlink:href="#md8ac68b005"
               x="62.570606"
               style="stroke:#000000;stroke-width:0.8" />
          </g>
        </g>
        <g
           id="text_1">
          <!-- &#8722;5 -->
          <defs
             id="defs22">
            <path
               id="DejaVuSans-8722"
               d="M 10.59375,35.5 H 73.1875 V 27.203125 H 10.59375 Z" />
            <path
               id="DejaVuSans-53"
               d="m 10.796875,72.90625 h 38.71875 v -8.3125 h -29.6875 V 46.734375 q 2.140625,0.734375 4.28125,1.09375 2.15625,0.359375 4.3125,0.359375 Q 40.625,48.1875 47.75,41.5 54.890625,34.8125 54.890625,23.390625 54.890625,11.625 47.5625,5.09375 40.234375,-1.421875 26.90625,-1.421875 q -4.59375,0 -9.359375,0.78125 -4.75,0.78125 -9.828125,2.34375 V 11.625 q 4.390625,-2.390625 9.078125,-3.5625 4.6875,-1.171875 9.90625,-1.171875 8.453125,0 13.375,4.4375 4.9375,4.4375 4.9375,12.0625 0,7.609375 -4.9375,12.046875 -4.921875,4.453125 -13.375,4.453125 -3.953125,0 -7.890625,-0.875 -3.921875,-0.875 -8.015625,-2.734375 z" />
          </defs>
          <g
             id="g28"
             transform="matrix(0.1,0,0,-0.1,55.199512,136.11844)">
            <use
               height="100%"
               width="100%"
               y="0"
               x="0"
               id="use24"
               xlink:href="#DejaVuSans-8722" />
            <use
               height="100%"
               width="100%"
               y="0"
               id="use26"
               xlink:href="#DejaVuSans-53"
               x="83.789062" />
          </g>
        </g>
      </g>
      <g
         id="xtick_2">
        <g
           id="line2d_2">
          <g
             id="g34">
            <use
               height="100%"
               width="100%"
               id="use32"
               y="121.52"
               xlink:href="#md8ac68b005"
               x="126.8225"
               style="stroke:#000000;stroke-width:0.8" />
          </g>
        </g>
        <g
           id="text_2">
          <!-- 0 -->
          <defs
             id="defs38">
            <path
               id="DejaVuSans-48"
               d="m 31.78125,66.40625 q -7.609375,0 -11.453125,-7.5 Q 16.5,51.421875 16.5,36.375 q 0,-14.984375 3.828125,-22.484375 3.84375,-7.5 11.453125,-7.5 7.671875,0 11.5,7.5 3.84375,7.5 3.84375,22.484375 0,15.046875 -3.84375,22.53125 -3.828125,7.5 -11.5,7.5 z m 0,7.8125 q 12.265625,0 18.734375,-9.703125 6.46875,-9.6875 6.46875,-28.140625 0,-18.40625 -6.46875,-28.109375 -6.46875,-9.6875 -18.734375,-9.6875 -12.25,0 -18.71875,9.6875 Q 6.59375,17.96875 6.59375,36.375 q 0,18.453125 6.46875,28.140625 6.46875,9.703125 18.71875,9.703125 z" />
          </defs>
          <g
             id="g42"
             transform="matrix(0.1,0,0,-0.1,123.64125,136.11844)">
            <use
               height="100%"
               width="100%"
               y="0"
               x="0"
               id="use40"
               xlink:href="#DejaVuSans-48" />
          </g>
        </g>
      </g>
      <g
         id="xtick_3">
        <g
           id="line2d_3">
          <g
             id="g48">
            <use
               height="100%"
               width="100%"
               id="use46"
               y="121.52"
               xlink:href="#md8ac68b005"
               x="191.07439"
               style="stroke:#000000;stroke-width:0.8" />
          </g>
        </g>
        <g
           id="text_3">
          <!-- 5 -->
          <g
             id="g53"
             transform="matrix(0.1,0,0,-0.1,187.89314,136.11844)">
            <use
               height="100%"
               width="100%"
               y="0"
               x="0"
               id="use51"
               xlink:href="#DejaVuSans-53" />
          </g>
        </g>
      </g>
    </g>
    <g
       id="matplotlib.axis_2">
      <g
         id="ytick_1">
        <g
           id="line2d_4">
          <defs
             id="defs59">
            <path
               style="stroke:#000000;stroke-width:0.8"
               id="mf0d9a0be1a"
               d="M 0,0 H -3.5" />
          </defs>
          <g
             id="g63">
            <use
               height="100%"
               width="100%"
               id="use61"
               y="116.48727"
               xlink:href="#mf0d9a0be1a"
               x="42.009998"
               style="stroke:#000000;stroke-width:0.8" />
          </g>
        </g>
        <g
           id="text_4">
          <!-- 0 -->
          <g
             id="g68"
             transform="matrix(0.1,0,0,-0.1,28.6475,120.28649)">
            <use
               height="100%"
               width="100%"
               y="0"
               x="0"
               id="use66"
               xlink:href="#DejaVuSans-48" />
          </g>
        </g>
      </g>
      <g
         id="ytick_2">
        <g
           id="line2d_5">
          <g
             id="g74">
            <use
               height="100%"
               width="100%"
               id="use72"
               y="82.93576"
               xlink:href="#mf0d9a0be1a"
               x="42.009998"
               style="stroke:#000000;stroke-width:0.8" />
          </g>
        </g>
        <g
           id="text_5">
          <!-- 2 -->
          <defs
             id="defs78">
            <path
               id="DejaVuSans-50"
               d="M 19.1875,8.296875 H 53.609375 V 0 H 7.328125 v 8.296875 q 5.609375,5.8125 15.296875,15.59375 9.703125,9.796875 12.1875,12.640625 4.734375,5.3125 6.609375,9 1.890625,3.6875 1.890625,7.25 0,5.8125 -4.078125,9.46875 -4.078125,3.671875 -10.625,3.671875 -4.640625,0 -9.796875,-1.609375 -5.140625,-1.609375 -11,-4.890625 v 9.96875 Q 13.765625,71.78125 18.9375,73 q 5.1875,1.21875 9.484375,1.21875 11.328125,0 18.0625,-5.671875 6.734375,-5.65625 6.734375,-15.125 0,-4.5 -1.6875,-8.53125 Q 49.859375,40.875 45.40625,35.40625 44.1875,33.984375 37.640625,27.21875 31.109375,20.453125 19.1875,8.296875 Z" />
          </defs>
          <g
             id="g82"
             transform="matrix(0.1,0,0,-0.1,28.6475,86.734976)">
            <use
               height="100%"
               width="100%"
               y="0"
               x="0"
               id="use80"
               xlink:href="#DejaVuSans-50" />
          </g>
        </g>
      </g>
      <g
         id="ytick_3">
        <g
           id="line2d_6">
          <g
             id="g88">
            <use
               height="100%"
               width="100%"
               id="use86"
               y="49.384243"
               xlink:href="#mf0d9a0be1a"
               x="42.009998"
               style="stroke:#000000;stroke-width:0.8" />
          </g>
        </g>
        <g
           id="text_6">
          <!-- 4 -->
          <defs
             id="defs92">
            <path
               id="DejaVuSans-52"
               d="M 37.796875,64.3125 12.890625,25.390625 h 24.90625 z m -2.59375,8.59375 h 12.40625 V 25.390625 h 10.40625 V 17.1875 H 47.609375 V 0 h -9.8125 V 17.1875 H 4.890625 v 9.515625 z" />
          </defs>
          <g
             id="g96"
             transform="matrix(0.1,0,0,-0.1,28.6475,53.183461)">
            <use
               height="100%"
               width="100%"
               y="0"
               x="0"
               id="use94"
               xlink:href="#DejaVuSans-52" />
          </g>
        </g>
      </g>
      <g
         id="ytick_4">
        <g
           id="line2d_7">
          <g
             id="g102">
            <use
               height="100%"
               width="100%"
               id="use100"
               y="15.832727"
               xlink:href="#mf0d9a0be1a"
               x="42.009998"
               style="stroke:#000000;stroke-width:0.8" />
          </g>
        </g>
        <g
           id="text_7">
          <!-- 6 -->
          <defs
             id="defs106">
            <path
               id="DejaVuSans-54"
               d="m 33.015625,40.375 q -6.640625,0 -10.53125,-4.546875 -3.875,-4.53125 -3.875,-12.4375 0,-7.859375 3.875,-12.4375 3.890625,-4.5625 10.53125,-4.5625 6.640625,0 10.515625,4.5625 3.875,4.578125 3.875,12.4375 0,7.90625 -3.875,12.4375 Q 39.65625,40.375 33.015625,40.375 Z M 52.59375,71.296875 V 62.3125 q -3.71875,1.75 -7.5,2.671875 -3.78125,0.9375 -7.5,0.9375 -9.765625,0 -14.921875,-6.59375 -5.140625,-6.59375 -5.875,-19.921875 2.875,4.25 7.21875,6.515625 4.359375,2.265625 9.578125,2.265625 10.984375,0 17.359375,-6.671875 6.375,-6.65625 6.375,-18.125 0,-11.234375 -6.640625,-18.03125 -6.640625,-6.78125 -17.671875,-6.78125 -12.65625,0 -19.34375,9.6875 -6.6875,9.703125 -6.6875,28.109375 0,17.28125 8.203125,27.5625 8.203125,10.28125 22.015625,10.28125 3.71875,0 7.5,-0.734375 3.78125,-0.734375 7.890625,-2.1875 z" />
          </defs>
          <g
             id="g110"
             transform="matrix(0.1,0,0,-0.1,28.6475,19.631946)">
            <use
               height="100%"
               width="100%"
               y="0"
               x="0"
               id="use108"
               xlink:href="#DejaVuSans-54" />
          </g>
        </g>
      </g>
    </g>
    <g
       id="LineCollection_1">
      <path
         id="path115"
         style="fill:none;stroke:#000000;stroke-width:0.5"
         d="M 126.8225,116.48727 V 15.832727"
         clip-path="url(#p750c61bdf2)" />
    </g>
    <g
       id="line2d_8">
      <path
         id="path118"
         style="fill:none;stroke:#b65256;stroke-width:2.5;stroke-linecap:square"
         d="m 49.720227,116.48727 h 3.147032 3.147031 3.147032 3.147031 3.147032 3.147032 3.147031 3.147032 3.147031 3.147032 3.147031 3.147032 3.147031 3.147032 3.147031 3.14703 3.14703 3.14703 3.14704 3.14703 3.14703 3.14703 3.14703 3.14703 l 3.14704,-2.05417 3.14703,-4.10835 3.14703,-4.10835 3.14703,-4.10835 3.14703,-4.108347 3.14703,-4.108349 3.14704,-4.108348 3.14703,-4.108349 3.14703,-4.108349 3.14703,-4.108349 3.14703,-4.108349 3.14703,-4.108348 3.14703,-4.108349 3.14704,-4.108349 3.14703,-4.108349 3.14703,-4.108349 3.14703,-4.108348 3.14703,-4.108349 3.14703,-4.108349 3.14703,-4.108349 3.14704,-4.108349 3.14703,-4.108348 3.14703,-4.108349 3.14703,-4.108349 3.14703,-4.108349"
         clip-path="url(#p750c61bdf2)" />
    </g>
    <g
       id="patch_3">
      <path
         id="path121"
         style="fill:none;stroke:#000000;stroke-width:0.8;stroke-linecap:square;stroke-linejoin:miter"
         d="M 42.01,121.52 V 10.8" />
    </g>
    <g
       id="patch_4">
      <path
         id="path124"
         style="fill:none;stroke:#000000;stroke-width:0.8;stroke-linecap:square;stroke-linejoin:miter"
         d="M 211.635,121.52 V 10.8" />
    </g>
    <g
       id="patch_5">
      <path
         id="path127"
         style="fill:none;stroke:#000000;stroke-width:0.8;stroke-linecap:square;stroke-linejoin:miter"
         d="M 42.01,121.52 H 211.635" />
    </g>
    <g
       id="patch_6">
      <path
         id="path130"
         style="fill:none;stroke:#000000;stroke-width:0.8;stroke-linecap:square;stroke-linejoin:miter"
         d="M 42.01,10.8 H 211.635" />
    </g>
  </g>
  <g
     id="axes_2">
    <g
       id="patch_7">
      <path
         id="path134"
         style="fill:#ffffff"
         d="M 251.575,121.52 H 421.2 V 10.8 H 251.575 Z" />
    </g>
    <g
       id="matplotlib.axis_3">
      <g
         id="xtick_4">
        <g
           id="line2d_9">
          <g
             id="g139">
            <use
               height="100%"
               width="100%"
               id="use137"
               y="121.52"
               xlink:href="#md8ac68b005"
               x="272.13562"
               style="stroke:#000000;stroke-width:0.8" />
          </g>
        </g>
        <g
           id="text_8">
          <!-- &#8722;5 -->
          <g
             id="g146"
             transform="matrix(0.1,0,0,-0.1,264.76451,136.11844)">
            <use
               height="100%"
               width="100%"
               y="0"
               x="0"
               id="use142"
               xlink:href="#DejaVuSans-8722" />
            <use
               height="100%"
               width="100%"
               y="0"
               id="use144"
               xlink:href="#DejaVuSans-53"
               x="83.789062" />
          </g>
        </g>
      </g>
      <g
         id="xtick_5">
        <g
           id="line2d_10">
          <g
             id="g152">
            <use
               height="100%"
               width="100%"
               id="use150"
               y="121.52"
               xlink:href="#md8ac68b005"
               x="336.38751"
               style="stroke:#000000;stroke-width:0.8" />
          </g>
        </g>
        <g
           id="text_9">
          <!-- 0 -->
          <g
             id="g157"
             transform="matrix(0.1,0,0,-0.1,333.20625,136.11844)">
            <use
               height="100%"
               width="100%"
               y="0"
               x="0"
               id="use155"
               xlink:href="#DejaVuSans-48" />
          </g>
        </g>
      </g>
      <g
         id="xtick_6">
        <g
           id="line2d_11">
          <g
             id="g163">
            <use
               height="100%"
               width="100%"
               id="use161"
               y="121.52"
               xlink:href="#md8ac68b005"
               x="400.6394"
               style="stroke:#000000;stroke-width:0.8" />
          </g>
        </g>
        <g
           id="text_10">
          <!-- 5 -->
          <g
             id="g168"
             transform="matrix(0.1,0,0,-0.1,397.45814,136.11844)">
            <use
               height="100%"
               width="100%"
               y="0"
               x="0"
               id="use166"
               xlink:href="#DejaVuSans-53" />
          </g>
        </g>
      </g>
    </g>
    <g
       id="matplotlib.axis_4">
      <g
         id="ytick_5">
        <g
           id="line2d_12">
          <g
             id="g175">
            <use
               height="100%"
               width="100%"
               id="use173"
               y="116.48727"
               xlink:href="#mf0d9a0be1a"
               x="251.575"
               style="stroke:#000000;stroke-width:0.8" />
          </g>
        </g>
        <g
           id="text_11">
          <!-- 0.00 -->
          <defs
             id="defs179">
            <path
               id="DejaVuSans-46"
               d="M 10.6875,12.40625 H 21 V 0 H 10.6875 Z" />
          </defs>
          <g
             id="g189"
             transform="matrix(0.1,0,0,-0.1,222.30937,120.28649)">
            <use
               height="100%"
               width="100%"
               y="0"
               x="0"
               id="use181"
               xlink:href="#DejaVuSans-48" />
            <use
               height="100%"
               width="100%"
               y="0"
               id="use183"
               xlink:href="#DejaVuSans-46"
               x="63.623047" />
            <use
               height="100%"
               width="100%"
               y="0"
               id="use185"
               xlink:href="#DejaVuSans-48"
               x="95.410156" />
            <use
               height="100%"
               width="100%"
               y="0"
               id="use187"
               xlink:href="#DejaVuSans-48"
               x="159.0332" />
          </g>
        </g>
      </g>
      <g
         id="ytick_6">
        <g
           id="line2d_13">
          <g
             id="g195">
            <use
               height="100%"
               width="100%"
               id="use193"
               y="91.323639"
               xlink:href="#mf0d9a0be1a"
               x="251.575"
               style="stroke:#000000;stroke-width:0.8" />
          </g>
        </g>
        <g
           id="text_12">
          <!-- 0.25 -->
          <g
             id="g206"
             transform="matrix(0.1,0,0,-0.1,222.30937,95.122855)">
            <use
               height="100%"
               width="100%"
               y="0"
               x="0"
               id="use198"
               xlink:href="#DejaVuSans-48" />
            <use
               height="100%"
               width="100%"
               y="0"
               id="use200"
               xlink:href="#DejaVuSans-46"
               x="63.623047" />
            <use
               height="100%"
               width="100%"
               y="0"
               id="use202"
               xlink:href="#DejaVuSans-50"
               x="95.410156" />
            <use
               height="100%"
               width="100%"
               y="0"
               id="use204"
               xlink:href="#DejaVuSans-53"
               x="159.0332" />
          </g>
        </g>
      </g>
      <g
         id="ytick_7">
        <g
           id="line2d_14">
          <g
             id="g212">
            <use
               height="100%"
               width="100%"
               id="use210"
               y="66.160004"
               xlink:href="#mf0d9a0be1a"
               x="251.575"
               style="stroke:#000000;stroke-width:0.8" />
          </g>
        </g>
        <g
           id="text_13">
          <!-- 0.50 -->
          <g
             id="g223"
             transform="matrix(0.1,0,0,-0.1,222.30937,69.959219)">
            <use
               height="100%"
               width="100%"
               y="0"
               x="0"
               id="use215"
               xlink:href="#DejaVuSans-48" />
            <use
               height="100%"
               width="100%"
               y="0"
               id="use217"
               xlink:href="#DejaVuSans-46"
               x="63.623047" />
            <use
               height="100%"
               width="100%"
               y="0"
               id="use219"
               xlink:href="#DejaVuSans-53"
               x="95.410156" />
            <use
               height="100%"
               width="100%"
               y="0"
               id="use221"
               xlink:href="#DejaVuSans-48"
               x="159.0332" />
          </g>
        </g>
      </g>
      <g
         id="ytick_8">
        <g
           id="line2d_15">
          <g
             id="g229">
            <use
               height="100%"
               width="100%"
               id="use227"
               y="40.996365"
               xlink:href="#mf0d9a0be1a"
               x="251.575"
               style="stroke:#000000;stroke-width:0.8" />
          </g>
        </g>
        <g
           id="text_14">
          <!-- 0.75 -->
          <defs
             id="defs233">
            <path
               id="DejaVuSans-55"
               d="m 8.203125,72.90625 h 46.875 V 68.703125 L 28.609375,0 H 18.3125 L 43.21875,64.59375 H 8.203125 Z" />
          </defs>
          <g
             id="g243"
             transform="matrix(0.1,0,0,-0.1,222.30937,44.795582)">
            <use
               height="100%"
               width="100%"
               y="0"
               x="0"
               id="use235"
               xlink:href="#DejaVuSans-48" />
            <use
               height="100%"
               width="100%"
               y="0"
               id="use237"
               xlink:href="#DejaVuSans-46"
               x="63.623047" />
            <use
               height="100%"
               width="100%"
               y="0"
               id="use239"
               xlink:href="#DejaVuSans-55"
               x="95.410156" />
            <use
               height="100%"
               width="100%"
               y="0"
               id="use241"
               xlink:href="#DejaVuSans-53"
               x="159.0332" />
          </g>
        </g>
      </g>
      <g
         id="ytick_9">
        <g
           id="line2d_16">
          <g
             id="g249">
            <use
               height="100%"
               width="100%"
               id="use247"
               y="15.832727"
               xlink:href="#mf0d9a0be1a"
               x="251.575"
               style="stroke:#000000;stroke-width:0.8" />
          </g>
        </g>
        <g
           id="text_15">
          <!-- 1.00 -->
          <defs
             id="defs253">
            <path
               id="DejaVuSans-49"
               d="m 12.40625,8.296875 h 16.109375 v 55.625 L 10.984375,60.40625 v 8.984375 l 17.4375,3.515625 H 38.28125 V 8.296875 H 54.390625 V 0 H 12.40625 Z" />
          </defs>
          <g
             id="g263"
             transform="matrix(0.1,0,0,-0.1,222.30937,19.631946)">
            <use
               height="100%"
               width="100%"
               y="0"
               x="0"
               id="use255"
               xlink:href="#DejaVuSans-49" />
            <use
               height="100%"
               width="100%"
               y="0"
               id="use257"
               xlink:href="#DejaVuSans-46"
               x="63.623047" />
            <use
               height="100%"
               width="100%"
               y="0"
               id="use259"
               xlink:href="#DejaVuSans-48"
               x="95.410156" />
            <use
               height="100%"
               width="100%"
               y="0"
               id="use261"
               xlink:href="#DejaVuSans-48"
               x="159.0332" />
          </g>
        </g>
      </g>
    </g>
    <g
       id="LineCollection_2">
      <path
         id="path268"
         style="fill:none;stroke:#000000;stroke-width:0.5"
         d="M 336.3875,116.48727 V 15.832727"
         clip-path="url(#p80cf09f789)" />
    </g>
    <g
       id="line2d_17">
      <path
         id="path271"
         style="fill:none;stroke:#57ab27;stroke-width:2.5;stroke-linecap:square"
         d="m 259.28523,116.23839 3.14703,-0.0688 3.14703,-0.0878 3.14703,-0.11196 3.14703,-0.14265 3.14703,-0.18166 3.14704,-0.2311 3.14703,-0.29368 3.14703,-0.37266 3.14703,-0.47202 3.14703,-0.59649 3.14703,-0.75157 3.14704,-0.94349 3.14703,-1.17896 3.14703,-1.4647 3.14703,-1.80669 3.14703,-2.20891 3.14703,-2.67168 3.14704,-3.189512 3.14703,-3.748944 3.14703,-4.326777 3.14703,-4.88969 3.14703,-5.396156 3.14703,-5.801222 3.14703,-6.063802 3.14704,-6.154834 3.14703,-6.063802 3.14703,-5.801222 3.14703,-5.396156 3.14703,-4.88969 3.14703,-4.326777 3.14703,-3.748944 3.14704,-3.189512 3.14703,-2.671678 3.14703,-2.208912 3.14703,-1.806688 3.14703,-1.4647 3.14703,-1.178959 3.14704,-0.943495 3.14703,-0.751573 3.14703,-0.596488 3.14703,-0.472021 3.14703,-0.37266 3.14703,-0.293678 3.14703,-0.231102 3.14704,-0.181653 3.14703,-0.142656 3.14703,-0.111954 3.14703,-0.08781 3.14703,-0.06884"
         clip-path="url(#p80cf09f789)" />
    </g>
    <g
       id="patch_8">
      <path
         id="path274"
         style="fill:none;stroke:#000000;stroke-width:0.8;stroke-linecap:square;stroke-linejoin:miter"
         d="M 251.575,121.52 V 10.8" />
    </g>
    <g
       id="patch_9">
      <path
         id="path277"
         style="fill:none;stroke:#000000;stroke-width:0.8;stroke-linecap:square;stroke-linejoin:miter"
         d="M 421.2,121.52 V 10.8" />
    </g>
    <g
       id="patch_10">
      <path
         id="path280"
         style="fill:none;stroke:#000000;stroke-width:0.8;stroke-linecap:square;stroke-linejoin:miter"
         d="M 251.575,121.52 H 421.2" />
    </g>
    <g
       id="patch_11">
      <path
         id="path283"
         style="fill:none;stroke:#000000;stroke-width:0.8;stroke-linecap:square;stroke-linejoin:miter"
         d="M 251.575,10.8 H 421.2" />
    </g>
  </g>
  <g
     id="axes_3"
     transform="translate(101.3081,-0.01666257)">
    <g
       id="patch_12">
      <path
         id="path287"
         style="fill:#ffffff"
         d="M 42.01,260.12 H 211.635 V 149.4 H 42.01 Z" />
    </g>
    <g
       id="matplotlib.axis_5">
      <g
         id="xtick_7">
        <g
           id="line2d_18">
          <g
             id="g292">
            <use
               height="100%"
               width="100%"
               id="use290"
               y="260.12"
               xlink:href="#md8ac68b005"
               x="62.570606"
               style="stroke:#000000;stroke-width:0.8" />
          </g>
        </g>
        <g
           id="text_16">
          <!-- &#8722;5 -->
          <g
             id="g299"
             transform="matrix(0.1,0,0,-0.1,55.199512,274.71844)">
            <use
               height="100%"
               width="100%"
               y="0"
               x="0"
               id="use295"
               xlink:href="#DejaVuSans-8722" />
            <use
               height="100%"
               width="100%"
               y="0"
               id="use297"
               xlink:href="#DejaVuSans-53"
               x="83.789062" />
          </g>
        </g>
      </g>
      <g
         id="xtick_8">
        <g
           id="line2d_19">
          <g
             id="g305">
            <use
               height="100%"
               width="100%"
               id="use303"
               y="260.12"
               xlink:href="#md8ac68b005"
               x="126.8225"
               style="stroke:#000000;stroke-width:0.8" />
          </g>
        </g>
        <g
           id="text_17">
          <!-- 0 -->
          <g
             id="g310"
             transform="matrix(0.1,0,0,-0.1,123.64125,274.71844)">
            <use
               height="100%"
               width="100%"
               y="0"
               x="0"
               id="use308"
               xlink:href="#DejaVuSans-48" />
          </g>
        </g>
      </g>
      <g
         id="xtick_9">
        <g
           id="line2d_20">
          <g
             id="g316">
            <use
               height="100%"
               width="100%"
               id="use314"
               y="260.12"
               xlink:href="#md8ac68b005"
               x="191.07439"
               style="stroke:#000000;stroke-width:0.8" />
          </g>
        </g>
        <g
           id="text_18">
          <!-- 5 -->
          <g
             id="g321"
             transform="matrix(0.1,0,0,-0.1,187.89314,274.71844)">
            <use
               height="100%"
               width="100%"
               y="0"
               x="0"
               id="use319"
               xlink:href="#DejaVuSans-53" />
          </g>
        </g>
      </g>
    </g>
    <g
       id="matplotlib.axis_6">
      <g
         id="ytick_10">
        <g
           id="line2d_21">
          <g
             id="g328">
            <use
               height="100%"
               width="100%"
               id="use326"
               y="255.08728"
               xlink:href="#mf0d9a0be1a"
               x="42.009998"
               style="stroke:#000000;stroke-width:0.8" />
          </g>
        </g>
        <g
           id="text_19">
          <!-- &#8722;1.0 -->
          <g
             id="g339"
             transform="matrix(0.1,0,0,-0.1,10.727188,258.88649)">
            <use
               height="100%"
               width="100%"
               y="0"
               x="0"
               id="use331"
               xlink:href="#DejaVuSans-8722" />
            <use
               height="100%"
               width="100%"
               y="0"
               id="use333"
               xlink:href="#DejaVuSans-49"
               x="83.789062" />
            <use
               height="100%"
               width="100%"
               y="0"
               id="use335"
               xlink:href="#DejaVuSans-46"
               x="147.41211" />
            <use
               height="100%"
               width="100%"
               y="0"
               id="use337"
               xlink:href="#DejaVuSans-48"
               x="179.19922" />
          </g>
        </g>
      </g>
      <g
         id="ytick_11">
        <g
           id="line2d_22">
          <g
             id="g345">
            <use
               height="100%"
               width="100%"
               id="use343"
               y="229.92363"
               xlink:href="#mf0d9a0be1a"
               x="42.009998"
               style="stroke:#000000;stroke-width:0.8" />
          </g>
        </g>
        <g
           id="text_20">
          <!-- &#8722;0.5 -->
          <g
             id="g356"
             transform="matrix(0.1,0,0,-0.1,10.727188,233.72285)">
            <use
               height="100%"
               width="100%"
               y="0"
               x="0"
               id="use348"
               xlink:href="#DejaVuSans-8722" />
            <use
               height="100%"
               width="100%"
               y="0"
               id="use350"
               xlink:href="#DejaVuSans-48"
               x="83.789062" />
            <use
               height="100%"
               width="100%"
               y="0"
               id="use352"
               xlink:href="#DejaVuSans-46"
               x="147.41211" />
            <use
               height="100%"
               width="100%"
               y="0"
               id="use354"
               xlink:href="#DejaVuSans-53"
               x="179.19922" />
          </g>
        </g>
      </g>
      <g
         id="ytick_12">
        <g
           id="line2d_23">
          <g
             id="g362">
            <use
               height="100%"
               width="100%"
               id="use360"
               y="204.75999"
               xlink:href="#mf0d9a0be1a"
               x="42.009998"
               style="stroke:#000000;stroke-width:0.8" />
          </g>
        </g>
        <g
           id="text_21">
          <!-- 0.0 -->
          <g
             id="g371"
             transform="matrix(0.1,0,0,-0.1,19.106875,208.55922)">
            <use
               height="100%"
               width="100%"
               y="0"
               x="0"
               id="use365"
               xlink:href="#DejaVuSans-48" />
            <use
               height="100%"
               width="100%"
               y="0"
               id="use367"
               xlink:href="#DejaVuSans-46"
               x="63.623047" />
            <use
               height="100%"
               width="100%"
               y="0"
               id="use369"
               xlink:href="#DejaVuSans-48"
               x="95.410156" />
          </g>
        </g>
      </g>
      <g
         id="ytick_13">
        <g
           id="line2d_24">
          <g
             id="g377">
            <use
               height="100%"
               width="100%"
               id="use375"
               y="179.59636"
               xlink:href="#mf0d9a0be1a"
               x="42.009998"
               style="stroke:#000000;stroke-width:0.8" />
          </g>
        </g>
        <g
           id="text_22">
          <!-- 0.5 -->
          <g
             id="g386"
             transform="matrix(0.1,0,0,-0.1,19.106875,183.39558)">
            <use
               height="100%"
               width="100%"
               y="0"
               x="0"
               id="use380"
               xlink:href="#DejaVuSans-48" />
            <use
               height="100%"
               width="100%"
               y="0"
               id="use382"
               xlink:href="#DejaVuSans-46"
               x="63.623047" />
            <use
               height="100%"
               width="100%"
               y="0"
               id="use384"
               xlink:href="#DejaVuSans-53"
               x="95.410156" />
          </g>
        </g>
      </g>
      <g
         id="ytick_14">
        <g
           id="line2d_25">
          <g
             id="g392">
            <use
               height="100%"
               width="100%"
               id="use390"
               y="154.43272"
               xlink:href="#mf0d9a0be1a"
               x="42.009998"
               style="stroke:#000000;stroke-width:0.8" />
          </g>
        </g>
        <g
           id="text_23">
          <!-- 1.0 -->
          <g
             id="g401"
             transform="matrix(0.1,0,0,-0.1,19.106875,158.23195)">
            <use
               height="100%"
               width="100%"
               y="0"
               x="0"
               id="use395"
               xlink:href="#DejaVuSans-49" />
            <use
               height="100%"
               width="100%"
               y="0"
               id="use397"
               xlink:href="#DejaVuSans-46"
               x="63.623047" />
            <use
               height="100%"
               width="100%"
               y="0"
               id="use399"
               xlink:href="#DejaVuSans-48"
               x="95.410156" />
          </g>
        </g>
      </g>
    </g>
    <g
       id="LineCollection_3">
      <path
         id="path406"
         style="fill:none;stroke:#000000;stroke-width:0.5"
         d="M 126.8225,255.08727 V 154.43273"
         clip-path="url(#pb37620d14f)" />
    </g>
    <g
       id="line2d_26">
      <path
         id="path409"
         style="fill:none;stroke:#f6a800;stroke-width:2.5;stroke-linecap:square"
         d="m 49.720227,255.08665 3.147032,-3.9e-4 3.147031,-6.3e-4 3.147032,-0.001 3.147031,-0.002 3.147032,-0.003 3.147032,-0.005 3.147031,-0.007 3.147032,-0.012 3.147031,-0.0197 3.147032,-0.032 3.147031,-0.0523 3.147032,-0.0852 3.147031,-0.1387 3.147032,-0.22554 3.147031,-0.36592 3.14703,-0.59144 3.14703,-0.95031 3.14703,-1.51234 3.14704,-2.3705 3.14703,-3.6285 3.14703,-5.35724 3.14703,-7.50266 3.14703,-9.76532 3.14703,-11.56663 3.14704,-12.26382 3.14703,-11.56663 3.14703,-9.76533 3.14703,-7.50265 3.14703,-5.35725 3.14703,-3.62849 3.14704,-2.3705 3.14703,-1.51234 3.14703,-0.95031 3.14703,-0.59144 3.14703,-0.36592 3.14703,-0.22554 3.14703,-0.1387 3.14704,-0.0852 3.14703,-0.0523 3.14703,-0.032 3.14703,-0.0196 3.14703,-0.0121 3.14703,-0.007 3.14703,-0.005 3.14704,-0.003 3.14703,-0.002 3.14703,-0.001 3.14703,-6.3e-4 3.14703,-3.9e-4"
         clip-path="url(#pb37620d14f)" />
    </g>
    <g
       id="patch_13">
      <path
         id="path412"
         style="fill:none;stroke:#000000;stroke-width:0.8;stroke-linecap:square;stroke-linejoin:miter"
         d="M 42.01,260.12 V 149.4" />
    </g>
    <g
       id="patch_14">
      <path
         id="path415"
         style="fill:none;stroke:#000000;stroke-width:0.8;stroke-linecap:square;stroke-linejoin:miter"
         d="M 211.635,260.12 V 149.4" />
    </g>
    <g
       id="patch_15">
      <path
         id="path418"
         style="fill:none;stroke:#000000;stroke-width:0.8;stroke-linecap:square;stroke-linejoin:miter"
         d="M 42.01,260.12 H 211.635" />
    </g>
    <g
       id="patch_16">
      <path
         id="path421"
         style="fill:none;stroke:#000000;stroke-width:0.8;stroke-linecap:square;stroke-linejoin:miter"
         d="M 42.01,149.4 H 211.635" />
    </g>
  </g>
  <defs
     id="defs435">
    <clipPath
       id="p750c61bdf2">
      <rect
         height="110.72"
         width="169.625"
         x="42.01"
         y="10.8"
         id="rect426" />
    </clipPath>
    <clipPath
       id="p80cf09f789">
      <rect
         height="110.72"
         width="169.625"
         x="251.575"
         y="10.8"
         id="rect429" />
    </clipPath>
    <clipPath
       id="pb37620d14f">
      <rect
         height="110.72"
         width="169.625"
         x="42.01"
         y="149.4"
         id="rect432" />
    </clipPath>
  </defs>
  <g
     transform="translate(-1.0001678,2.0758896)"
     style="font-size:12px;line-height:1.25;font-family:sans-serif;-inkscape-font-specification:sans-serif;stroke-width:0.75;stroke-linecap:butt;stroke-linejoin:round"
     id="text1350"
     aria-label="Sigmoid">
    <path
       id="path2352"
       style="font-size:12px;stroke-width:0.75;stroke-linecap:butt;stroke-linejoin:round"
       d="m 275.62878,17.022102 v 1.154297 q -0.67382,-0.322265 -1.27148,-0.480469 -0.59766,-0.158203 -1.1543,-0.158203 -0.96679,0 -1.49414,0.375 -0.52148,0.375 -0.52148,1.066407 0,0.580078 0.3457,0.878906 0.35156,0.292969 1.32422,0.474609 l 0.71484,0.146485 q 1.32422,0.251953 1.95118,0.890625 0.63281,0.632812 0.63281,1.699218 0,1.271485 -0.85547,1.927735 -0.84961,0.65625 -2.49609,0.65625 -0.6211,0 -1.32422,-0.140625 -0.69727,-0.140625 -1.44727,-0.416016 v -1.21875 q 0.7207,0.404297 1.41211,0.609375 0.69141,0.205078 1.35938,0.205078 1.01367,0 1.56445,-0.398437 0.55078,-0.398438 0.55078,-1.136719 0,-0.644531 -0.39844,-1.007813 -0.39258,-0.363281 -1.29492,-0.544921 l -0.7207,-0.140625 q -1.32422,-0.263672 -1.91602,-0.826172 -0.5918,-0.5625 -0.5918,-1.564453 0,-1.160157 0.81446,-1.828125 0.82031,-0.667969 2.25586,-0.667969 0.61523,0 1.2539,0.111328 0.63868,0.111328 1.30664,0.333984 z" />
    <path
       id="path2354"
       style="font-size:12px;stroke-width:0.75;stroke-linecap:butt;stroke-linejoin:round"
       d="m 277.95496,18.92054 h 1.07812 v 6.5625 h -1.07812 z m 0,-2.554688 h 1.07812 v 1.365235 h -1.07812 z" />
    <path
       id="path2356"
       style="font-size:12px;stroke-width:0.75;stroke-linecap:butt;stroke-linejoin:round"
       d="m 285.60144,22.125618 q 0,-1.171875 -0.48633,-1.816406 -0.48047,-0.644532 -1.35351,-0.644532 -0.86719,0 -1.35352,0.644532 -0.48047,0.644531 -0.48047,1.816406 0,1.166016 0.48047,1.810547 0.48633,0.644531 1.35352,0.644531 0.87304,0 1.35351,-0.644531 0.48633,-0.644531 0.48633,-1.810547 z m 1.07813,2.542969 q 0,1.675781 -0.74415,2.490234 -0.74414,0.820313 -2.27929,0.820313 -0.56836,0 -1.07227,-0.08789 -0.5039,-0.08203 -0.97851,-0.257813 v -1.048828 q 0.47461,0.257813 0.9375,0.38086 0.46289,0.123047 0.94336,0.123047 1.06054,0 1.58789,-0.556641 0.52734,-0.550781 0.52734,-1.669922 v -0.533203 q -0.33398,0.580078 -0.85547,0.867187 -0.52148,0.28711 -1.24805,0.28711 -1.20703,0 -1.94531,-0.919922 -0.73828,-0.919922 -0.73828,-2.4375 0,-1.523438 0.73828,-2.443359 0.73828,-0.919922 1.94531,-0.919922 0.72657,0 1.24805,0.287109 0.52149,0.287109 0.85547,0.867188 V 18.92054 h 1.07813 z" />
    <path
       id="path2358"
       style="font-size:12px;stroke-width:0.75;stroke-linecap:butt;stroke-linejoin:round"
       d="m 294.00964,20.180305 q 0.4043,-0.726562 0.9668,-1.072265 0.5625,-0.345703 1.32422,-0.345703 1.02539,0 1.58203,0.720703 0.55664,0.714844 0.55664,2.039062 v 3.960938 h -1.08398 v -3.925781 q 0,-0.94336 -0.33399,-1.400391 -0.33398,-0.457031 -1.01953,-0.457031 -0.83789,0 -1.32422,0.55664 -0.48633,0.556641 -0.48633,1.517578 v 3.708985 h -1.08398 v -3.925781 q 0,-0.949219 -0.33398,-1.400391 -0.33399,-0.457031 -1.03125,-0.457031 -0.82618,0 -1.3125,0.5625 -0.48633,0.55664 -0.48633,1.511718 v 3.708985 h -1.08399 v -6.5625 h 1.08399 v 1.019531 q 0.36914,-0.603516 0.88476,-0.890625 0.51563,-0.287109 1.22461,-0.287109 0.71485,0 1.21289,0.363281 0.50391,0.363281 0.74414,1.054687 z" />
    <path
       id="path2360"
       style="font-size:12px;stroke-width:0.75;stroke-linecap:butt;stroke-linejoin:round"
       d="m 303.13855,19.676399 q -0.86719,0 -1.37109,0.679688 -0.50391,0.673828 -0.50391,1.851562 0,1.177735 0.49805,1.857422 0.5039,0.673828 1.37695,0.673828 0.86133,0 1.36523,-0.679687 0.50391,-0.679688 0.50391,-1.851563 0,-1.166015 -0.50391,-1.845703 -0.5039,-0.685547 -1.36523,-0.685547 z m 0,-0.914062 q 1.40625,0 2.20898,0.914062 0.80274,0.914063 0.80274,2.53125 0,1.611328 -0.80274,2.53125 -0.80273,0.914063 -2.20898,0.914063 -1.41211,0 -2.21484,-0.914063 -0.79688,-0.919922 -0.79688,-2.53125 0,-1.617187 0.79688,-2.53125 0.80273,-0.914062 2.21484,-0.914062 z" />
    <path
       id="path2362"
       style="font-size:12px;stroke-width:0.75;stroke-linecap:butt;stroke-linejoin:round"
       d="m 307.93152,18.92054 h 1.07812 v 6.5625 h -1.07812 z m 0,-2.554688 h 1.07812 v 1.365235 h -1.07812 z" />
    <path
       id="path2364"
       style="font-size:12px;stroke-width:0.75;stroke-linecap:butt;stroke-linejoin:round"
       d="m 315.578,19.916634 v -3.550782 h 1.07813 V 25.48304 H 315.578 v -0.984375 q -0.33984,0.585937 -0.86133,0.873047 -0.51562,0.28125 -1.24218,0.28125 -1.18946,0 -1.93946,-0.949219 -0.74414,-0.949219 -0.74414,-2.496094 0,-1.546875 0.74414,-2.496094 0.75,-0.949218 1.93946,-0.949218 0.72656,0 1.24218,0.287109 0.52149,0.28125 0.86133,0.867188 z m -3.67383,2.291015 q 0,1.189453 0.48633,1.869141 0.49219,0.673828 1.34766,0.673828 0.85547,0 1.34766,-0.673828 0.49218,-0.679688 0.49218,-1.869141 0,-1.189453 -0.49218,-1.863281 -0.49219,-0.679688 -1.34766,-0.679688 -0.85547,0 -1.34766,0.679688 -0.48633,0.673828 -0.48633,1.863281 z" />
  </g>
  <g
     ns1:version="1.1.0"
     ns1:texconverter="pdflatex"
     ns1:pdfconverter="inkscape"
     ns1:text="$\\sigma(x) = \\frac{1}{1+e^{-x}}$"
     ns1:preamble="/home/kaladin/.config/inkscape/extensions/textext/default_packages.tex"
     ns1:scale="0.9999999999999999"
     ns1:alignment="middle center"
     ns1:inkscapeversion="1.0"
     transform="matrix(1.22788,0,0,1.44785,257.58789,33.223837)"
     ns1:jacobian_sqrt="1.3333364384130513"
     id="g2787">
    <defs
       id="id-63ee8f85-403a-485a-96a7-7493f04d9e70">
      <g
         id="id-a5f03e8e-1949-4c1f-b3ff-f2e26cea53af">
        <symbol
           id="id-290c3aaf-293b-4f16-a356-0df18ef80b1e"
           overflow="visible">
          <path
             id="id-dfe0002a-388d-4f95-be52-2efc64996bf3"
             d=""
             style="stroke:none" />
        </symbol>
        <symbol
           id="id-3f1acdb7-0479-4adc-86a7-399b44ba2496"
           overflow="visible">
          <path
             id="id-53e47100-5e72-4856-ae69-4fb42db8ed92"
             d="m 5.15625,-3.71875 c 0.140625,0 0.5,0 0.5,-0.34375 0,-0.234375 -0.21875,-0.234375 -0.390625,-0.234375 h -2.28125 c -1.5,0 -2.609375,1.640625 -2.609375,2.828125 0,0.875 0.59375,1.578125 1.5,1.578125 1.171875,0 2.5,-1.203125 2.5,-2.734375 0,-0.171875 0,-0.65625 -0.3125,-1.09375 z M 1.890625,-0.109375 C 1.390625,-0.109375 1,-0.46875 1,-1.1875 c 0,-0.296875 0.109375,-1.109375 0.46875,-1.703125 0.421875,-0.6875 1.015625,-0.828125 1.359375,-0.828125 0.828125,0 0.90625,0.65625 0.90625,0.96875 0,0.46875 -0.203125,1.28125 -0.53125,1.796875 -0.390625,0.578125 -0.9375,0.84375 -1.3125,0.84375 z m 0,0"
             style="stroke:none" />
        </symbol>
        <symbol
           id="id-42feb2cb-8888-46e8-92d4-54bf38caf98a"
           overflow="visible">
          <path
             id="id-09876d65-964c-46d4-8c1a-3fee314578b9"
             d="M 3.328125,-3.015625 C 3.390625,-3.265625 3.625,-4.1875 4.3125,-4.1875 c 0.046875,0 0.296875,0 0.5,0.125 C 4.53125,-4 4.34375,-3.765625 4.34375,-3.515625 c 0,0.15625 0.109375,0.34375 0.375,0.34375 0.21875,0 0.53125,-0.171875 0.53125,-0.578125 0,-0.515625 -0.578125,-0.65625 -0.921875,-0.65625 -0.578125,0 -0.921875,0.53125 -1.046875,0.75 -0.25,-0.65625 -0.78125,-0.75 -1.078125,-0.75 -1.03125,0 -1.609375,1.28125 -1.609375,1.53125 0,0.109375 0.109375,0.109375 0.125,0.109375 0.078125,0 0.109375,-0.03125 0.125,-0.109375 0.34375,-1.0625 1,-1.3125 1.34375,-1.3125 0.1875,0 0.53125,0.09375 0.53125,0.671875 0,0.3125 -0.171875,0.96875 -0.53125,2.375 -0.15625,0.609375 -0.515625,1.03125 -0.953125,1.03125 -0.0625,0 -0.28125,0 -0.5,-0.125 0.25,-0.0625 0.46875,-0.265625 0.46875,-0.546875 0,-0.265625 -0.21875,-0.34375 -0.359375,-0.34375 -0.3125,0 -0.546875,0.25 -0.546875,0.578125 0,0.453125 0.484375,0.65625 0.921875,0.65625 0.671875,0 1.03125,-0.703125 1.046875,-0.75 0.125,0.359375 0.484375,0.75 1.078125,0.75 1.03125,0 1.59375,-1.28125 1.59375,-1.53125 0,-0.109375 -0.078125,-0.109375 -0.109375,-0.109375 -0.09375,0 -0.109375,0.046875 -0.140625,0.109375 -0.328125,1.078125 -1,1.3125 -1.3125,1.3125 -0.390625,0 -0.546875,-0.3125 -0.546875,-0.65625 0,-0.21875 0.046875,-0.4375 0.15625,-0.875 z m 0,0"
             style="stroke:none" />
        </symbol>
        <symbol
           id="id-9166b545-a992-49e8-b95d-1d14ead7b103"
           overflow="visible">
          <path
             id="id-79312864-c3ed-408e-b3df-fa78795ac2cf"
             d=""
             style="stroke:none" />
        </symbol>
        <symbol
           id="id-3cb413be-c476-42d5-8aef-f05350eedc74"
           overflow="visible">
          <path
             id="id-cbbf3ed5-eb4a-49d0-b253-7b6ddcb8dc41"
             d="m 3.296875,2.390625 c 0,-0.03125 0,-0.046875 -0.171875,-0.21875 C 1.890625,0.921875 1.5625,-0.96875 1.5625,-2.5 c 0,-1.734375 0.375,-3.46875 1.609375,-4.703125 0.125,-0.125 0.125,-0.140625 0.125,-0.171875 0,-0.078125 -0.03125,-0.109375 -0.09375,-0.109375 -0.109375,0 -1,0.6875 -1.59375,1.953125 -0.5,1.09375 -0.625,2.203125 -0.625,3.03125 0,0.78125 0.109375,1.984375 0.65625,3.125 C 2.25,1.84375 3.09375,2.5 3.203125,2.5 c 0.0625,0 0.09375,-0.03125 0.09375,-0.109375 z m 0,0"
             style="stroke:none" />
        </symbol>
        <symbol
           id="id-04c2bf81-76d9-4533-9a9a-0efd65b5c957"
           overflow="visible">
          <path
             id="id-10d987d2-84da-42e9-a53f-e75f679ae7da"
             d="m 2.875,-2.5 c 0,-0.765625 -0.109375,-1.96875 -0.65625,-3.109375 -0.59375,-1.21875 -1.453125,-1.875 -1.546875,-1.875 -0.0625,0 -0.109375,0.046875 -0.109375,0.109375 0,0.03125 0,0.046875 0.1875,0.234375 0.984375,0.984375 1.546875,2.5625 1.546875,4.640625 0,1.71875 -0.359375,3.46875 -1.59375,4.71875 C 0.5625,2.34375 0.5625,2.359375 0.5625,2.390625 0.5625,2.453125 0.609375,2.5 0.671875,2.5 0.765625,2.5 1.671875,1.8125 2.25,0.546875 2.765625,-0.546875 2.875,-1.65625 2.875,-2.5 Z m 0,0"
             style="stroke:none" />
        </symbol>
        <symbol
           id="id-0eda4c10-00af-438b-b4b5-a6001edf2542"
           overflow="visible">
          <path
             id="id-2093bacc-e711-4fe6-b3b7-391b80d2ca64"
             d="m 6.84375,-3.265625 c 0.15625,0 0.34375,0 0.34375,-0.1875 C 7.1875,-3.65625 7,-3.65625 6.859375,-3.65625 h -5.96875 c -0.140625,0 -0.328125,0 -0.328125,0.203125 0,0.1875 0.1875,0.1875 0.328125,0.1875 z m 0.015625,1.9375 c 0.140625,0 0.328125,0 0.328125,-0.203125 0,-0.1875 -0.1875,-0.1875 -0.34375,-0.1875 H 0.890625 c -0.140625,0 -0.328125,0 -0.328125,0.1875 0,0.203125 0.1875,0.203125 0.328125,0.203125 z m 0,0"
             style="stroke:none" />
        </symbol>
        <symbol
           id="id-91bd37e1-dc2b-4016-aad2-609a1348e31a"
           overflow="visible">
          <path
             id="id-dfc6e650-ef7f-4144-82b7-093cd47f2abc"
             d=""
             style="stroke:none" />
        </symbol>
        <symbol
           id="id-eb2c8c7c-0da2-42e2-9d24-f763c1ee18d5"
           overflow="visible">
          <path
             id="id-30304670-a0d7-4b43-8dbe-39f667879392"
             d="m 2.328125,-4.4375 c 0,-0.1875 0,-0.1875 -0.203125,-0.1875 -0.453125,0.4375 -1.078125,0.4375 -1.359375,0.4375 v 0.25 c 0.15625,0 0.625,0 1,-0.1875 v 3.546875 c 0,0.234375 0,0.328125 -0.6875,0.328125 H 0.8125 V 0 c 0.125,0 0.984375,-0.03125 1.234375,-0.03125 0.21875,0 1.09375,0.03125 1.25,0.03125 V -0.25 H 3.03125 c -0.703125,0 -0.703125,-0.09375 -0.703125,-0.328125 z m 0,0"
             style="stroke:none" />
        </symbol>
        <symbol
           id="id-450784ef-7665-40b7-bfba-98d509ca473a"
           overflow="visible">
          <path
             id="id-6be17525-700b-4c38-94fc-f1613776c582"
             d="m 3.21875,-1.578125 h 2.140625 c 0.09375,0 0.25,0 0.25,-0.15625 0,-0.1875 -0.15625,-0.1875 -0.25,-0.1875 H 3.21875 V -4.0625 c 0,-0.078125 0,-0.25 -0.15625,-0.25 -0.171875,0 -0.171875,0.15625 -0.171875,0.25 v 2.140625 H 0.75 c -0.09375,0 -0.265625,0 -0.265625,0.171875 0,0.171875 0.15625,0.171875 0.265625,0.171875 H 2.890625 V 0.5625 c 0,0.09375 0,0.265625 0.15625,0.265625 0.171875,0 0.171875,-0.171875 0.171875,-0.265625 z m 0,0"
             style="stroke:none" />
        </symbol>
        <symbol
           id="id-51dd915e-a775-4c90-98cc-6cb923de152a"
           overflow="visible">
          <path
             id="id-3d071402-be0d-4916-a014-b676d8e72966"
             d=""
             style="stroke:none" />
        </symbol>
        <symbol
           id="id-3425db43-7675-4837-acc1-538237468dc4"
           overflow="visible">
          <path
             id="id-9eda9671-e215-46ef-92dd-6fca31fc3949"
             d="m 1.5625,-1.59375 c 0.1875,0 0.75,-0.015625 1.125,-0.140625 0.515625,-0.1875 0.609375,-0.515625 0.609375,-0.71875 0,-0.390625 -0.390625,-0.625 -0.859375,-0.625 -0.84375,0 -1.96875,0.640625 -1.96875,1.84375 0,0.703125 0.4375,1.296875 1.25,1.296875 1.1875,0 1.734375,-0.6875 1.734375,-0.78125 0,-0.046875 -0.0625,-0.125 -0.125,-0.125 -0.03125,0 -0.046875,0.015625 -0.109375,0.078125 C 2.671875,-0.125 1.859375,-0.125 1.734375,-0.125 1.3125,-0.125 1.03125,-0.40625 1.03125,-0.96875 c 0,-0.09375 0,-0.234375 0.09375,-0.625 z M 1.171875,-1.78125 C 1.46875,-2.796875 2.234375,-2.875 2.4375,-2.875 2.734375,-2.875 3,-2.71875 3,-2.453125 3,-1.78125 1.8125,-1.78125 1.515625,-1.78125 Z m 0,0"
             style="stroke:none" />
        </symbol>
        <symbol
           id="id-1283e24e-45a3-41c6-82e7-cf1065309a81"
           overflow="visible">
          <path
             id="id-5b6359b5-0124-446c-9dd8-66fa8f120ccf"
             d=""
             style="stroke:none" />
        </symbol>
        <symbol
           id="id-e28b6158-03e6-4b1e-8a3d-8cf12afbcaeb"
           overflow="visible">
          <path
             id="id-24d48667-e8c0-4490-a1d2-1dee00b2dfd4"
             d="m 4.390625,-1.109375 c 0.078125,0 0.203125,0 0.203125,-0.140625 0,-0.140625 -0.125,-0.140625 -0.203125,-0.140625 h -3.375 c -0.078125,0 -0.21875,0 -0.21875,0.140625 0,0.140625 0.140625,0.140625 0.21875,0.140625 z m 0,0"
             style="stroke:none" />
        </symbol>
        <symbol
           id="id-2b3f016c-0f45-4fc3-81ba-eeebfe4fa1e5"
           overflow="visible">
          <path
             id="id-253b01f0-29a5-4ee5-a0b7-6dad5fa8cf99"
             d=""
             style="stroke:none" />
        </symbol>
        <symbol
           id="id-cad3d8f5-4d3b-498c-be42-0754a8242c81"
           overflow="visible">
          <path
             id="id-b6bdbeeb-083a-431d-abc2-86f5fc2a8501"
             d="m 3.09375,-1.953125 c -0.234375,0.0625 -0.234375,0.28125 -0.234375,0.296875 0,0.078125 0.0625,0.203125 0.234375,0.203125 0.140625,0 0.3125,-0.125 0.3125,-0.34375 0,-0.296875 -0.328125,-0.40625 -0.59375,-0.40625 -0.328125,0 -0.546875,0.203125 -0.640625,0.34375 -0.15625,-0.28125 -0.484375,-0.34375 -0.65625,-0.34375 -0.625,0 -0.984375,0.59375 -0.984375,0.765625 0,0.078125 0.078125,0.078125 0.109375,0.078125 0.046875,0 0.078125,0 0.109375,-0.0625 0.140625,-0.484375 0.546875,-0.609375 0.734375,-0.609375 0.171875,0 0.359375,0.0625 0.359375,0.328125 0,0.125 -0.09375,0.46875 -0.265625,1.140625 -0.0625,0.28125 -0.296875,0.453125 -0.515625,0.453125 -0.03125,0 -0.171875,0 -0.296875,-0.078125 0.21875,-0.09375 0.21875,-0.28125 0.21875,-0.296875 0,-0.140625 -0.109375,-0.203125 -0.21875,-0.203125 -0.125,0 -0.296875,0.09375 -0.296875,0.328125 0,0.3125 0.328125,0.421875 0.59375,0.421875 0.265625,0 0.5,-0.171875 0.609375,-0.34375 C 1.875,0.015625 2.1875,0.0625 2.34375,0.0625 c 0.625,0 0.984375,-0.59375 0.984375,-0.78125 0,-0.0625 -0.078125,-0.0625 -0.109375,-0.0625 -0.078125,0 -0.09375,0.03125 -0.109375,0.0625 C 2.96875,-0.265625 2.59375,-0.109375 2.375,-0.109375 c -0.15625,0 -0.359375,-0.0625 -0.359375,-0.34375 0,-0.0625 0,-0.09375 0.03125,-0.265625 0.09375,-0.34375 0.21875,-0.890625 0.265625,-0.984375 0.0625,-0.125 0.234375,-0.328125 0.484375,-0.328125 0.015625,0 0.1875,0 0.296875,0.078125 z m 0,0"
             style="stroke:none" />
        </symbol>
      </g>
    </defs>
    <g
       transform="translate(-149.087,-126.217)"
       id="id-f8e4c35d-1b33-43da-9fb4-213bfc0a3b77">
      <g
         id="id-71b2eb55-c2ce-43f4-8aa3-dcef16294355"
         style="fill:#000000;fill-opacity:1">
        <g
           transform="translate(148.712,134.765)"
           id="g2743">
          <path
             id="id-c564eaa1-b7a5-41af-abc9-9d829c421d89"
             d="m 5.15625,-3.71875 c 0.140625,0 0.5,0 0.5,-0.34375 0,-0.234375 -0.21875,-0.234375 -0.390625,-0.234375 h -2.28125 c -1.5,0 -2.609375,1.640625 -2.609375,2.828125 0,0.875 0.59375,1.578125 1.5,1.578125 1.171875,0 2.5,-1.203125 2.5,-2.734375 0,-0.171875 0,-0.65625 -0.3125,-1.09375 z M 1.890625,-0.109375 C 1.390625,-0.109375 1,-0.46875 1,-1.1875 c 0,-0.296875 0.109375,-1.109375 0.46875,-1.703125 0.421875,-0.6875 1.015625,-0.828125 1.359375,-0.828125 0.828125,0 0.90625,0.65625 0.90625,0.96875 0,0.46875 -0.203125,1.28125 -0.53125,1.796875 -0.390625,0.578125 -0.9375,0.84375 -1.3125,0.84375 z m 0,0"
             style="stroke:none" />
        </g>
      </g>
      <g
         id="id-d6b0ecc5-7989-49b9-9267-998e9942d323"
         style="fill:#000000;fill-opacity:1">
        <g
           transform="translate(154.763,134.765)"
           id="g2747">
          <path
             id="id-57cfdfcc-6e8f-4c0f-a9dc-be02200acda8"
             d="m 3.296875,2.390625 c 0,-0.03125 0,-0.046875 -0.171875,-0.21875 C 1.890625,0.921875 1.5625,-0.96875 1.5625,-2.5 c 0,-1.734375 0.375,-3.46875 1.609375,-4.703125 0.125,-0.125 0.125,-0.140625 0.125,-0.171875 0,-0.078125 -0.03125,-0.109375 -0.09375,-0.109375 -0.109375,0 -1,0.6875 -1.59375,1.953125 -0.5,1.09375 -0.625,2.203125 -0.625,3.03125 0,0.78125 0.109375,1.984375 0.65625,3.125 C 2.25,1.84375 3.09375,2.5 3.203125,2.5 c 0.0625,0 0.09375,-0.03125 0.09375,-0.109375 z m 0,0"
             style="stroke:none" />
        </g>
      </g>
      <g
         id="id-9676f540-1b6d-4d7e-9174-d8d4da8ffea6"
         style="fill:#000000;fill-opacity:1">
        <g
           transform="translate(158.637,134.765)"
           id="g2751">
          <path
             id="id-b40c16a2-7958-482d-8f49-43639ac19bc5"
             d="M 3.328125,-3.015625 C 3.390625,-3.265625 3.625,-4.1875 4.3125,-4.1875 c 0.046875,0 0.296875,0 0.5,0.125 C 4.53125,-4 4.34375,-3.765625 4.34375,-3.515625 c 0,0.15625 0.109375,0.34375 0.375,0.34375 0.21875,0 0.53125,-0.171875 0.53125,-0.578125 0,-0.515625 -0.578125,-0.65625 -0.921875,-0.65625 -0.578125,0 -0.921875,0.53125 -1.046875,0.75 -0.25,-0.65625 -0.78125,-0.75 -1.078125,-0.75 -1.03125,0 -1.609375,1.28125 -1.609375,1.53125 0,0.109375 0.109375,0.109375 0.125,0.109375 0.078125,0 0.109375,-0.03125 0.125,-0.109375 0.34375,-1.0625 1,-1.3125 1.34375,-1.3125 0.1875,0 0.53125,0.09375 0.53125,0.671875 0,0.3125 -0.171875,0.96875 -0.53125,2.375 -0.15625,0.609375 -0.515625,1.03125 -0.953125,1.03125 -0.0625,0 -0.28125,0 -0.5,-0.125 0.25,-0.0625 0.46875,-0.265625 0.46875,-0.546875 0,-0.265625 -0.21875,-0.34375 -0.359375,-0.34375 -0.3125,0 -0.546875,0.25 -0.546875,0.578125 0,0.453125 0.484375,0.65625 0.921875,0.65625 0.671875,0 1.03125,-0.703125 1.046875,-0.75 0.125,0.359375 0.484375,0.75 1.078125,0.75 1.03125,0 1.59375,-1.28125 1.59375,-1.53125 0,-0.109375 -0.078125,-0.109375 -0.109375,-0.109375 -0.09375,0 -0.109375,0.046875 -0.140625,0.109375 -0.328125,1.078125 -1,1.3125 -1.3125,1.3125 -0.390625,0 -0.546875,-0.3125 -0.546875,-0.65625 0,-0.21875 0.046875,-0.4375 0.15625,-0.875 z m 0,0"
             style="stroke:none" />
        </g>
      </g>
      <g
         id="id-0bbc683c-9f64-4afc-b27a-8e85e2a5b43f"
         style="fill:#000000;fill-opacity:1">
        <g
           transform="translate(164.331,134.765)"
           id="g2755">
          <path
             id="id-72b3ea86-37b2-4f59-b3e8-891fdc767589"
             d="m 2.875,-2.5 c 0,-0.765625 -0.109375,-1.96875 -0.65625,-3.109375 -0.59375,-1.21875 -1.453125,-1.875 -1.546875,-1.875 -0.0625,0 -0.109375,0.046875 -0.109375,0.109375 0,0.03125 0,0.046875 0.1875,0.234375 0.984375,0.984375 1.546875,2.5625 1.546875,4.640625 0,1.71875 -0.359375,3.46875 -1.59375,4.71875 C 0.5625,2.34375 0.5625,2.359375 0.5625,2.390625 0.5625,2.453125 0.609375,2.5 0.671875,2.5 0.765625,2.5 1.671875,1.8125 2.25,0.546875 2.765625,-0.546875 2.875,-1.65625 2.875,-2.5 Z m 0,0"
             style="stroke:none" />
        </g>
      </g>
      <g
         id="id-2d7fdb3a-8c0e-4647-9c6e-7dc01fed7f1c"
         style="fill:#000000;fill-opacity:1">
        <g
           transform="translate(170.975,134.765)"
           id="g2759">
          <path
             id="id-df21f6d3-d273-4fda-a85f-8367e26e11e9"
             d="m 6.84375,-3.265625 c 0.15625,0 0.34375,0 0.34375,-0.1875 C 7.1875,-3.65625 7,-3.65625 6.859375,-3.65625 h -5.96875 c -0.140625,0 -0.328125,0 -0.328125,0.203125 0,0.1875 0.1875,0.1875 0.328125,0.1875 z m 0.015625,1.9375 c 0.140625,0 0.328125,0 0.328125,-0.203125 0,-0.1875 -0.1875,-0.1875 -0.34375,-0.1875 H 0.890625 c -0.140625,0 -0.328125,0 -0.328125,0.1875 0,0.203125 0.1875,0.203125 0.328125,0.203125 z m 0,0"
             style="stroke:none" />
        </g>
      </g>
      <g
         id="id-f8ac2dd7-8710-4576-bd8c-0ab40e1a7fac"
         style="fill:#000000;fill-opacity:1">
        <g
           transform="translate(192.551,130.842)"
           id="g2763">
          <path
             id="id-9fcdd64b-a979-4322-8707-d2ea99bda00c"
             d="m 2.328125,-4.4375 c 0,-0.1875 0,-0.1875 -0.203125,-0.1875 -0.453125,0.4375 -1.078125,0.4375 -1.359375,0.4375 v 0.25 c 0.15625,0 0.625,0 1,-0.1875 v 3.546875 c 0,0.234375 0,0.328125 -0.6875,0.328125 H 0.8125 V 0 c 0.125,0 0.984375,-0.03125 1.234375,-0.03125 0.21875,0 1.09375,0.03125 1.25,0.03125 V -0.25 H 3.03125 c -0.703125,0 -0.703125,-0.09375 -0.703125,-0.328125 z m 0,0"
             style="stroke:none" />
        </g>
      </g>
      <path
         id="id-65c9ada9-1783-43fa-b8b1-a8ecbebeb1ea"
         transform="matrix(1,0,0,-1,182.684,132.274)"
         d="M -4.0625e-4,5.625e-4 H 23.706625"
         style="fill:none;stroke:#000000;stroke-width:0.398;stroke-linecap:butt;stroke-linejoin:miter;stroke-miterlimit:10;stroke-opacity:1" />
      <g
         id="id-430c4a08-20b6-410a-a0c2-909f69c2b045"
         style="fill:#000000;fill-opacity:1">
        <g
           transform="translate(182.684,138.2)"
           id="g2768">
          <path
             id="id-e8e635e4-8c9e-4c0c-937f-26c4a993f8a8"
             d="m 2.328125,-4.4375 c 0,-0.1875 0,-0.1875 -0.203125,-0.1875 -0.453125,0.4375 -1.078125,0.4375 -1.359375,0.4375 v 0.25 c 0.15625,0 0.625,0 1,-0.1875 v 3.546875 c 0,0.234375 0,0.328125 -0.6875,0.328125 H 0.8125 V 0 c 0.125,0 0.984375,-0.03125 1.234375,-0.03125 0.21875,0 1.09375,0.03125 1.25,0.03125 V -0.25 H 3.03125 c -0.703125,0 -0.703125,-0.09375 -0.703125,-0.328125 z m 0,0"
             style="stroke:none" />
        </g>
        <g
           transform="translate(186.656,138.2)"
           id="g2771">
          <path
             id="id-ecb4e0ae-8800-48a6-9577-5b6b50472f15"
             d="m 3.21875,-1.578125 h 2.140625 c 0.09375,0 0.25,0 0.25,-0.15625 0,-0.1875 -0.15625,-0.1875 -0.25,-0.1875 H 3.21875 V -4.0625 c 0,-0.078125 0,-0.25 -0.15625,-0.25 -0.171875,0 -0.171875,0.15625 -0.171875,0.25 v 2.140625 H 0.75 c -0.09375,0 -0.265625,0 -0.265625,0.171875 0,0.171875 0.15625,0.171875 0.265625,0.171875 H 2.890625 V 0.5625 c 0,0.09375 0,0.265625 0.15625,0.265625 0.171875,0 0.171875,-0.171875 0.171875,-0.265625 z m 0,0"
             style="stroke:none" />
        </g>
      </g>
      <g
         id="id-085bc926-7c0d-4bfe-b0d5-9d55fecd43d5"
         style="fill:#000000;fill-opacity:1">
        <g
           transform="translate(192.771,138.2)"
           id="g2775">
          <path
             id="id-fca4ea7b-5953-4824-a78a-87d69a26ba72"
             d="m 1.5625,-1.59375 c 0.1875,0 0.75,-0.015625 1.125,-0.140625 0.515625,-0.1875 0.609375,-0.515625 0.609375,-0.71875 0,-0.390625 -0.390625,-0.625 -0.859375,-0.625 -0.84375,0 -1.96875,0.640625 -1.96875,1.84375 0,0.703125 0.4375,1.296875 1.25,1.296875 1.1875,0 1.734375,-0.6875 1.734375,-0.78125 0,-0.046875 -0.0625,-0.125 -0.125,-0.125 -0.03125,0 -0.046875,0.015625 -0.109375,0.078125 C 2.671875,-0.125 1.859375,-0.125 1.734375,-0.125 1.3125,-0.125 1.03125,-0.40625 1.03125,-0.96875 c 0,-0.09375 0,-0.234375 0.09375,-0.625 z M 1.171875,-1.78125 C 1.46875,-2.796875 2.234375,-2.875 2.4375,-2.875 2.734375,-2.875 3,-2.71875 3,-2.453125 3,-1.78125 1.8125,-1.78125 1.515625,-1.78125 Z m 0,0"
             style="stroke:none" />
        </g>
      </g>
      <g
         id="id-aee4f1e8-bc8e-4c9d-bbfc-2a147c3afb10"
         style="fill:#000000;fill-opacity:1">
        <g
           transform="translate(196.551,136.208)"
           id="g2779">
          <path
             id="id-82715faa-9feb-424e-b11a-2490e706059f"
             d="m 4.390625,-1.109375 c 0.078125,0 0.203125,0 0.203125,-0.140625 0,-0.140625 -0.125,-0.140625 -0.203125,-0.140625 h -3.375 c -0.078125,0 -0.21875,0 -0.21875,0.140625 0,0.140625 0.140625,0.140625 0.21875,0.140625 z m 0,0"
             style="stroke:none" />
        </g>
      </g>
      <g
         id="id-6bab939e-23b8-4abb-aa00-f7ef718f9b6c"
         style="fill:#000000;fill-opacity:1">
        <g
           transform="translate(201.948,136.208)"
           id="g2783">
          <path
             id="id-4954bd43-b80a-4cff-9882-7858faab85f6"
             d="m 3.09375,-1.953125 c -0.234375,0.0625 -0.234375,0.28125 -0.234375,0.296875 0,0.078125 0.0625,0.203125 0.234375,0.203125 0.140625,0 0.3125,-0.125 0.3125,-0.34375 0,-0.296875 -0.328125,-0.40625 -0.59375,-0.40625 -0.328125,0 -0.546875,0.203125 -0.640625,0.34375 -0.15625,-0.28125 -0.484375,-0.34375 -0.65625,-0.34375 -0.625,0 -0.984375,0.59375 -0.984375,0.765625 0,0.078125 0.078125,0.078125 0.109375,0.078125 0.046875,0 0.078125,0 0.109375,-0.0625 0.140625,-0.484375 0.546875,-0.609375 0.734375,-0.609375 0.171875,0 0.359375,0.0625 0.359375,0.328125 0,0.125 -0.09375,0.46875 -0.265625,1.140625 -0.0625,0.28125 -0.296875,0.453125 -0.515625,0.453125 -0.03125,0 -0.171875,0 -0.296875,-0.078125 0.21875,-0.09375 0.21875,-0.28125 0.21875,-0.296875 0,-0.140625 -0.109375,-0.203125 -0.21875,-0.203125 -0.125,0 -0.296875,0.09375 -0.296875,0.328125 0,0.3125 0.328125,0.421875 0.59375,0.421875 0.265625,0 0.5,-0.171875 0.609375,-0.34375 C 1.875,0.015625 2.1875,0.0625 2.34375,0.0625 c 0.625,0 0.984375,-0.59375 0.984375,-0.78125 0,-0.0625 -0.078125,-0.0625 -0.109375,-0.0625 -0.078125,0 -0.09375,0.03125 -0.109375,0.0625 C 2.96875,-0.265625 2.59375,-0.109375 2.375,-0.109375 c -0.15625,0 -0.359375,-0.0625 -0.359375,-0.34375 0,-0.0625 0,-0.09375 0.03125,-0.265625 0.09375,-0.34375 0.21875,-0.890625 0.265625,-0.984375 0.0625,-0.125 0.234375,-0.328125 0.484375,-0.328125 0.015625,0 0.1875,0 0.296875,0.078125 z m 0,0"
             style="stroke:none" />
        </g>
      </g>
    </g>
  </g>
  <g
     transform="translate(70.765079,-137.77847)"
     style="font-size:12px;line-height:1.3;font-family:sans-serif;-inkscape-font-specification:sans-serif;stroke-width:0.75;stroke-linecap:butt;stroke-linejoin:round"
     id="text2861"
     aria-label="ReLu
max(0,x)">
    <path
       id="path2890"
       style="font-size:12px;text-align:center;text-anchor:middle;stroke-width:0.75;stroke-linecap:butt;stroke-linejoin:round"
       d="m 5.7812881,161.61086 q 0.3808594,0.1289 0.7382813,0.55078 0.3632812,0.42187 0.7265625,1.16015 l 1.2011719,2.39063 H 7.1758194 l -1.1191406,-2.24414 q -0.4335938,-0.87891 -0.84375,-1.16602 -0.4042969,-0.28711 -1.1074219,-0.28711 H 2.8164444 v 3.69727 H 1.6328506 v -8.74805 h 2.671875 q 1.5,0 2.2382813,0.62695 0.7382812,0.62696 0.7382812,1.89258 0,0.82617 -0.3867187,1.3711 -0.3808594,0.54492 -1.1132813,0.75586 z m -2.9648437,-3.67383 v 3.10547 h 1.4882812 q 0.8554688,0 1.2890625,-0.39258 0.4394532,-0.39844 0.4394532,-1.16602 0,-0.76758 -0.4394532,-1.15429 -0.4335937,-0.39258 -1.2890625,-0.39258 z" />
    <path
       id="path2892"
       style="font-size:12px;text-align:center;text-anchor:middle;stroke-width:0.75;stroke-linecap:butt;stroke-linejoin:round"
       d="m 15.003944,162.16164 v 0.52734 h -4.957031 q 0.07031,1.11328 0.667969,1.69922 0.603516,0.58008 1.675781,0.58008 0.621094,0 1.201172,-0.15235 0.585938,-0.15234 1.160156,-0.45703 v 1.01953 q -0.580078,0.2461 -1.189453,0.375 -0.609375,0.12891 -1.236328,0.12891 -1.570312,0 -2.4902344,-0.91406 -0.9140625,-0.91407 -0.9140625,-2.47266 0,-1.61133 0.8671875,-2.55469 0.8730474,-0.94922 2.3496094,-0.94922 1.324219,0 2.091797,0.85547 0.773437,0.84961 0.773437,2.31446 z m -1.078125,-0.31641 q -0.01172,-0.88477 -0.498046,-1.41211 -0.480469,-0.52734 -1.277344,-0.52734 -0.902344,0 -1.447266,0.50976 -0.539062,0.50977 -0.621094,1.43555 z" />
    <path
       id="path2894"
       style="font-size:12px;text-align:center;text-anchor:middle;stroke-width:0.75;stroke-linecap:butt;stroke-linejoin:round"
       d="m 16.820351,156.96437 h 1.183593 v 7.75195 h 4.259766 v 0.9961 h -5.443359 z" />
    <path
       id="path2896"
       style="font-size:12px;text-align:center;text-anchor:middle;stroke-width:0.75;stroke-linecap:butt;stroke-linejoin:round"
       d="m 23.130898,163.12257 v -3.97265 h 1.078125 v 3.93164 q 0,0.93164 0.363281,1.40039 0.363281,0.46289 1.089844,0.46289 0.873046,0 1.376953,-0.55664 0.509765,-0.55664 0.509765,-1.51758 v -3.7207 h 1.078125 v 6.5625 h -1.078125 v -1.00781 q -0.392578,0.59765 -0.914062,0.89062 -0.515625,0.28711 -1.201172,0.28711 -1.130859,0 -1.716797,-0.70313 -0.585937,-0.70312 -0.585937,-2.05664 z m 2.71289,-4.13086 z" />
    <path
       id="path2898"
       style="font-size:12px;text-align:center;text-anchor:middle;stroke-width:0.75;stroke-linecap:butt;stroke-linejoin:round"
       d="m -5.7148056,176.00968 q 0.4042969,-0.72656 0.9667969,-1.07226 0.5625,-0.34571 1.3242187,-0.34571 1.0253906,0 1.5820313,0.72071 0.5566406,0.71484 0.5566406,2.03906 v 3.96094 h -1.0839844 v -3.92578 q 0,-0.94336 -0.3339844,-1.40039 -0.3339843,-0.45704 -1.0195312,-0.45704 -0.8378906,0 -1.3242188,0.55664 -0.4863281,0.55665 -0.4863281,1.51758 v 3.70899 h -1.0839844 v -3.92578 q 0,-0.94922 -0.3339843,-1.40039 -0.3339844,-0.45704 -1.03125,-0.45704 -0.8261719,0 -1.3125,0.5625 -0.4863282,0.55664 -0.4863282,1.51172 v 3.70899 h -1.0839841 v -6.5625 h 1.0839841 v 1.01953 q 0.3691407,-0.60352 0.8847657,-0.89063 0.515625,-0.28711 1.2246093,-0.28711 0.7148438,0 1.2128907,0.36329 0.5039062,0.36328 0.7441406,1.05468 z" />
    <path
       id="path2900"
       style="font-size:12px;text-align:center;text-anchor:middle;stroke-width:0.75;stroke-linecap:butt;stroke-linejoin:round"
       d="m 3.8535538,178.01359 q -1.3066407,0 -1.8105469,0.29883 -0.5039063,0.29883 -0.5039063,1.01953 0,0.57422 0.375,0.91406 0.3808594,0.33399 1.03125,0.33399 0.8964844,0 1.4355469,-0.63282 0.5449219,-0.63867 0.5449219,-1.69336 v -0.24023 z m 2.1503906,-0.44531 v 3.74414 h -1.078125 v -0.9961 q -0.3691406,0.59766 -0.9199219,0.88477 -0.5507812,0.28125 -1.3476562,0.28125 -1.0078125,0 -1.6054688,-0.5625 -0.59179685,-0.56836 -0.59179685,-1.51758 0,-1.10742 0.73828125,-1.66992 0.7441406,-0.5625 2.2148437,-0.5625 h 1.5117188 v -0.10547 q 0,-0.74414 -0.4921875,-1.14844 -0.4863281,-0.41015 -1.3710938,-0.41015 -0.5625,0 -1.0957031,0.13476 -0.5332031,0.13477 -1.0253906,0.4043 v -0.99609 q 0.5917969,-0.22852 1.1484375,-0.33985 0.5566406,-0.11719 1.0839844,-0.11719 1.4238281,0 2.1269531,0.73829 0.703125,0.73828 0.703125,2.23828 z" />
    <path
       id="path2902"
       style="font-size:12px;text-align:center;text-anchor:middle;stroke-width:0.75;stroke-linecap:butt;stroke-linejoin:round"
       d="m 13.685585,174.74992 -2.373047,3.19336 2.496094,3.36914 h -1.271484 l -1.910157,-2.57813 -1.910156,2.57813 H 7.4453506 l 2.5488282,-3.4336 -2.3320313,-3.1289 h 1.2714844 l 1.7402341,2.33789 1.740235,-2.33789 z" />
    <path
       id="path2904"
       style="font-size:12px;text-align:center;text-anchor:middle;stroke-width:0.75;stroke-linecap:butt;stroke-linejoin:round"
       d="m 17.921913,172.20695 q -0.785156,1.34765 -1.166015,2.66601 -0.38086,1.31836 -0.38086,2.67188 0,1.35351 0.38086,2.68359 0.386718,1.32422 1.166015,2.66602 h -0.9375 q -0.878906,-1.37695 -1.318359,-2.70703 -0.433594,-1.33008 -0.433594,-2.64258 0,-1.30664 0.433594,-2.63086 0.433594,-1.32422 1.318359,-2.70703 z" />
    <path
       id="path2906"
       style="font-size:12px;text-align:center;text-anchor:middle;stroke-width:0.75;stroke-linecap:butt;stroke-linejoin:round"
       d="m 22.703163,173.34367 q -0.914062,0 -1.376953,0.90234 -0.457031,0.89649 -0.457031,2.70117 0,1.79883 0.457031,2.70117 0.462891,0.89649 1.376953,0.89649 0.919922,0 1.376953,-0.89649 0.462891,-0.90234 0.462891,-2.70117 0,-1.80468 -0.462891,-2.70117 -0.457031,-0.90234 -1.376953,-0.90234 z m 0,-0.9375 q 1.470703,0 2.244141,1.16601 0.779297,1.16016 0.779297,3.375 0,2.20899 -0.779297,3.375 -0.773438,1.16016 -2.244141,1.16016 -1.470703,0 -2.25,-1.16016 -0.773437,-1.16601 -0.773437,-3.375 0,-2.21484 0.773437,-3.375 0.779297,-1.16601 2.25,-1.16601 z" />
    <path
       id="path2908"
       style="font-size:12px;text-align:center;text-anchor:middle;stroke-width:0.75;stroke-linecap:butt;stroke-linejoin:round"
       d="m 27.935585,179.82414 h 1.236328 v 1.00781 l -0.960937,1.875 h -0.75586 l 0.480469,-1.875 z" />
    <path
       id="path2910"
       style="font-size:12px;text-align:center;text-anchor:middle;stroke-width:0.75;stroke-linecap:butt;stroke-linejoin:round"
       d="m 36.935585,174.74992 -2.373047,3.19336 2.496094,3.36914 h -1.271484 l -1.910157,-2.57813 -1.910156,2.57813 h -1.271484 l 2.548828,-3.4336 -2.332031,-3.1289 h 1.271484 l 1.740234,2.33789 1.740235,-2.33789 z" />
    <path
       id="path2912"
       style="font-size:12px;text-align:center;text-anchor:middle;stroke-width:0.75;stroke-linecap:butt;stroke-linejoin:round"
       d="m 38.412148,172.20695 h 0.9375 q 0.878906,1.38281 1.3125,2.70703 0.439453,1.32422 0.439453,2.63086 0,1.3125 -0.439453,2.64258 -0.433594,1.33008 -1.3125,2.70703 h -0.9375 q 0.779296,-1.3418 1.160156,-2.66602 0.386719,-1.33008 0.386719,-2.68359 0,-1.35352 -0.386719,-2.67188 -0.38086,-1.31836 -1.160156,-2.66601 z" />
  </g>
  <g
     transform="translate(113.3401,-1.561209)"
     style="font-size:12px;line-height:1.25;font-family:sans-serif;-inkscape-font-specification:sans-serif;stroke-width:0.75;stroke-linecap:butt;stroke-linejoin:round"
     id="text2917"
     aria-label="Tanh
tanh(x)">
    <path
       id="path2921"
       style="font-size:12px;text-align:center;text-anchor:middle;stroke-width:0.75;stroke-linecap:butt;stroke-linejoin:round"
       d="m 55.146126,157.34515 h 7.40039 v 0.9961 h -3.105468 v 7.75195 h -1.189453 v -7.75195 h -3.105469 z" />
    <path
       id="path2923"
       style="font-size:12px;text-align:center;text-anchor:middle;stroke-width:0.75;stroke-linecap:butt;stroke-linejoin:round"
       d="m 64.638313,162.79437 q -1.30664,0 -1.810547,0.29883 -0.503906,0.29883 -0.503906,1.01953 0,0.57422 0.375,0.91406 0.38086,0.33399 1.03125,0.33399 0.896485,0 1.435547,-0.63281 0.544922,-0.63868 0.544922,-1.69336 v -0.24024 z m 2.150391,-0.44531 v 3.74414 h -1.078125 v -0.99609 q -0.369141,0.59765 -0.919922,0.88476 -0.550781,0.28125 -1.347656,0.28125 -1.007813,0 -1.605469,-0.5625 -0.591797,-0.56836 -0.591797,-1.51758 0,-1.10742 0.738281,-1.66992 0.744141,-0.5625 2.214844,-0.5625 h 1.511719 v -0.10547 q 0,-0.74414 -0.492188,-1.14843 -0.486328,-0.41016 -1.371093,-0.41016 -0.5625,0 -1.095703,0.13477 -0.533204,0.13476 -1.025391,0.40429 v -0.99609 q 0.591797,-0.22852 1.148437,-0.33984 0.556641,-0.11719 1.083985,-0.11719 1.423828,0 2.126953,0.73828 0.703125,0.73828 0.703125,2.23828 z" />
    <path
       id="path2925"
       style="font-size:12px;text-align:center;text-anchor:middle;stroke-width:0.75;stroke-linecap:butt;stroke-linejoin:round"
       d="m 74.470345,162.13226 v 3.96094 H 73.39222 v -3.92578 q 0,-0.93164 -0.363282,-1.39453 -0.363281,-0.46289 -1.089843,-0.46289 -0.873047,0 -1.376954,0.55664 -0.503906,0.55664 -0.503906,1.51758 v 3.70898 h -1.083984 v -6.5625 h 1.083984 v 1.01953 q 0.386719,-0.59179 0.908203,-0.88476 0.527344,-0.29297 1.212891,-0.29297 1.130859,0 1.710937,0.70312 0.580079,0.69727 0.580079,2.05664 z" />
    <path
       id="path2927"
       style="font-size:12px;text-align:center;text-anchor:middle;stroke-width:0.75;stroke-linecap:butt;stroke-linejoin:round"
       d="m 82.087532,162.13226 v 3.96094 h -1.078125 v -3.92578 q 0,-0.93164 -0.363281,-1.39453 -0.363281,-0.46289 -1.089844,-0.46289 -0.873047,0 -1.376953,0.55664 -0.503906,0.55664 -0.503906,1.51758 v 3.70898 h -1.083985 v -9.11719 h 1.083985 v 3.57422 q 0.386718,-0.59179 0.908203,-0.88476 0.527344,-0.29297 1.21289,-0.29297 1.13086,0 1.710938,0.70312 0.580078,0.69727 0.580078,2.05664 z" />
    <path
       id="path2929"
       style="font-size:12px;text-align:center;text-anchor:middle;stroke-width:0.75;stroke-linecap:butt;stroke-linejoin:round"
       d="m 49.456673,172.66742 v 1.86328 h 2.220703 v 0.83789 h -2.220703 v 3.5625 q 0,0.80274 0.216797,1.03125 0.222656,0.22852 0.896484,0.22852 h 1.107422 v 0.90234 h -1.107422 q -1.248047,0 -1.722656,-0.46289 -0.47461,-0.46875 -0.47461,-1.69922 v -3.5625 h -0.791015 v -0.83789 h 0.791015 v -1.86328 z" />
    <path
       id="path2931"
       style="font-size:12px;text-align:center;text-anchor:middle;stroke-width:0.75;stroke-linecap:butt;stroke-linejoin:round"
       d="m 56.083626,177.79437 q -1.306641,0 -1.810547,0.29883 -0.503906,0.29883 -0.503906,1.01953 0,0.57422 0.375,0.91406 0.380859,0.33399 1.03125,0.33399 0.896484,0 1.435547,-0.63281 0.544921,-0.63868 0.544921,-1.69336 v -0.24024 z m 2.15039,-0.44531 v 3.74414 h -1.078125 v -0.99609 q -0.36914,0.59765 -0.919921,0.88476 -0.550782,0.28125 -1.347657,0.28125 -1.007812,0 -1.605468,-0.5625 -0.591797,-0.56836 -0.591797,-1.51758 0,-1.10742 0.738281,-1.66992 0.744141,-0.5625 2.214844,-0.5625 h 1.511718 v -0.10547 q 0,-0.74414 -0.492187,-1.14843 -0.486328,-0.41016 -1.371094,-0.41016 -0.5625,0 -1.095703,0.13477 -0.533203,0.13476 -1.025391,0.40429 v -0.99609 q 0.591797,-0.22852 1.148438,-0.33984 0.556641,-0.11719 1.083984,-0.11719 1.423828,0 2.126953,0.73828 0.703125,0.73828 0.703125,2.23828 z" />
    <path
       id="path2933"
       style="font-size:12px;text-align:center;text-anchor:middle;stroke-width:0.75;stroke-linecap:butt;stroke-linejoin:round"
       d="m 65.915657,177.13226 v 3.96094 h -1.078125 v -3.92578 q 0,-0.93164 -0.363281,-1.39453 Q 64.11097,175.31 63.384407,175.31 q -0.873047,0 -1.376953,0.55664 -0.503906,0.55664 -0.503906,1.51758 v 3.70898 h -1.083985 v -6.5625 h 1.083985 v 1.01953 q 0.386718,-0.59179 0.908203,-0.88476 0.527344,-0.29297 1.21289,-0.29297 1.13086,0 1.710938,0.70312 0.580078,0.69727 0.580078,2.05664 z" />
    <path
       id="path2935"
       style="font-size:12px;text-align:center;text-anchor:middle;stroke-width:0.75;stroke-linecap:butt;stroke-linejoin:round"
       d="m 73.532845,177.13226 v 3.96094 H 72.45472 v -3.92578 q 0,-0.93164 -0.363282,-1.39453 -0.363281,-0.46289 -1.089843,-0.46289 -0.873047,0 -1.376954,0.55664 -0.503906,0.55664 -0.503906,1.51758 v 3.70898 h -1.083984 v -9.11719 h 1.083984 v 3.57422 q 0.386719,-0.59179 0.908203,-0.88476 0.527344,-0.29297 1.212891,-0.29297 1.130859,0 1.710937,0.70312 0.580079,0.69727 0.580079,2.05664 z" />
    <path
       id="path2937"
       style="font-size:12px;text-align:center;text-anchor:middle;stroke-width:0.75;stroke-linecap:butt;stroke-linejoin:round"
       d="m 78.284798,171.98773 q -0.785157,1.34766 -1.166016,2.66602 -0.380859,1.31836 -0.380859,2.67187 0,1.35352 0.380859,2.6836 0.386719,1.32422 1.166016,2.66601 h -0.9375 q -0.878907,-1.37695 -1.31836,-2.70703 -0.433593,-1.33008 -0.433593,-2.64258 0,-1.30664 0.433593,-2.63086 0.433594,-1.32422 1.31836,-2.70703 z" />
    <path
       id="path2939"
       style="font-size:12px;text-align:center;text-anchor:middle;stroke-width:0.75;stroke-linecap:butt;stroke-linejoin:round"
       d="m 85.837532,174.5307 -2.373047,3.19336 2.496094,3.36914 h -1.271484 l -1.910157,-2.57812 -1.910156,2.57812 h -1.271484 l 2.548828,-3.43359 -2.332031,-3.12891 h 1.271484 l 1.740234,2.33789 1.740235,-2.33789 z" />
    <path
       id="path2941"
       style="font-size:12px;text-align:center;text-anchor:middle;stroke-width:0.75;stroke-linecap:butt;stroke-linejoin:round"
       d="m 87.314095,171.98773 h 0.9375 q 0.878906,1.38281 1.3125,2.70703 0.439453,1.32422 0.439453,2.63086 0,1.3125 -0.439453,2.64258 -0.433594,1.33008 -1.3125,2.70703 h -0.9375 q 0.779296,-1.34179 1.160156,-2.66601 0.386719,-1.33008 0.386719,-2.6836 0,-1.35351 -0.386719,-2.67187 -0.38086,-1.31836 -1.160156,-2.66602 z" />
  </g>
</svg>
