<?xml version="1.0" encoding="UTF-8" standalone="no"?>
<svg
   xmlns:ns1="http://www.iki.fi/pav/software/textext/"
   xmlns:dc="http://purl.org/dc/elements/1.1/"
   xmlns:cc="http://creativecommons.org/ns#"
   xmlns:rdf="http://www.w3.org/1999/02/22-rdf-syntax-ns#"
   xmlns:svg="http://www.w3.org/2000/svg"
   xmlns="http://www.w3.org/2000/svg"
   xmlns:xlink="http://www.w3.org/1999/xlink"
   xmlns:sodipodi="http://sodipodi.sourceforge.net/DTD/sodipodi-0.dtd"
   xmlns:inkscape="http://www.inkscape.org/namespaces/inkscape"
   inkscape:version="1.0 (1.0+r73+1)"
   sodipodi:docname="activatefns1.svg"
   id="svg437"
   width="432pt"
   viewBox="0 0 432 288"
   version="1.1"
   height="288pt">
  <metadata
     id="metadata441">
    <rdf:RDF>
      <cc:Work
         rdf:about="">
        <dc:format>image/svg+xml</dc:format>
        <dc:type
           rdf:resource="http://purl.org/dc/dcmitype/StillImage" />
        <dc:title></dc:title>
      </cc:Work>
    </rdf:RDF>
  </metadata>
  <sodipodi:namedview
     inkscape:snap-global="false"
     inkscape:current-layer="svg437"
     inkscape:window-maximized="1"
     inkscape:window-y="0"
     inkscape:window-x="0"
     inkscape:cy="139.40302"
     inkscape:cx="178.85589"
     inkscape:zoom="1"
     showgrid="false"
     id="namedview439"
     inkscape:window-height="850"
     inkscape:window-width="1600"
     inkscape:pageshadow="2"
     inkscape:pageopacity="0"
     guidetolerance="10"
     gridtolerance="10"
     objecttolerance="10"
     borderopacity="1"
     bordercolor="#666666"
     pagecolor="#ffffff" />
  <defs
     id="defs4">
    <style
       id="style2"
       type="text/css">
*{stroke-linecap:butt;stroke-linejoin:round;}
  </style>
    <g
       id="id-66b979ff-d3ae-4ef8-96af-588007ee89ec">
      <symbol
         id="id-7762a6eb-9d14-418f-a67a-3db2b6e9e1cb"
         overflow="visible">
        <path
           id="id-6bda0cf6-f98e-4281-bac3-ddae95ee15ff"
           d=""
           style="stroke:none" />
      </symbol>
      <symbol
         id="id-616de340-ac59-4e3e-b2e5-a9f873944f27"
         overflow="visible">
        <path
           id="id-3e53e15d-5dca-4602-a735-20fba4c008c2"
           d="m 5.15625,-3.71875 c 0.140625,0 0.5,0 0.5,-0.34375 0,-0.234375 -0.21875,-0.234375 -0.390625,-0.234375 h -2.28125 c -1.5,0 -2.609375,1.640625 -2.609375,2.828125 0,0.875 0.59375,1.578125 1.5,1.578125 1.171875,0 2.5,-1.203125 2.5,-2.734375 0,-0.171875 0,-0.65625 -0.3125,-1.09375 z M 1.890625,-0.109375 C 1.390625,-0.109375 1,-0.46875 1,-1.1875 c 0,-0.296875 0.109375,-1.109375 0.46875,-1.703125 0.421875,-0.6875 1.015625,-0.828125 1.359375,-0.828125 0.828125,0 0.90625,0.65625 0.90625,0.96875 0,0.46875 -0.203125,1.28125 -0.53125,1.796875 -0.390625,0.578125 -0.9375,0.84375 -1.3125,0.84375 z m 0,0"
           style="stroke:none" />
      </symbol>
      <symbol
         id="id-860c0404-b4f7-420f-a23d-7570d3523983"
         overflow="visible">
        <path
           id="id-84525b82-6e0b-48de-b67b-175de890a122"
           d="M 3.328125,-3.015625 C 3.390625,-3.265625 3.625,-4.1875 4.3125,-4.1875 c 0.046875,0 0.296875,0 0.5,0.125 C 4.53125,-4 4.34375,-3.765625 4.34375,-3.515625 c 0,0.15625 0.109375,0.34375 0.375,0.34375 0.21875,0 0.53125,-0.171875 0.53125,-0.578125 0,-0.515625 -0.578125,-0.65625 -0.921875,-0.65625 -0.578125,0 -0.921875,0.53125 -1.046875,0.75 -0.25,-0.65625 -0.78125,-0.75 -1.078125,-0.75 -1.03125,0 -1.609375,1.28125 -1.609375,1.53125 0,0.109375 0.109375,0.109375 0.125,0.109375 0.078125,0 0.109375,-0.03125 0.125,-0.109375 0.34375,-1.0625 1,-1.3125 1.34375,-1.3125 0.1875,0 0.53125,0.09375 0.53125,0.671875 0,0.3125 -0.171875,0.96875 -0.53125,2.375 -0.15625,0.609375 -0.515625,1.03125 -0.953125,1.03125 -0.0625,0 -0.28125,0 -0.5,-0.125 0.25,-0.0625 0.46875,-0.265625 0.46875,-0.546875 0,-0.265625 -0.21875,-0.34375 -0.359375,-0.34375 -0.3125,0 -0.546875,0.25 -0.546875,0.578125 0,0.453125 0.484375,0.65625 0.921875,0.65625 0.671875,0 1.03125,-0.703125 1.046875,-0.75 0.125,0.359375 0.484375,0.75 1.078125,0.75 1.03125,0 1.59375,-1.28125 1.59375,-1.53125 0,-0.109375 -0.078125,-0.109375 -0.109375,-0.109375 -0.09375,0 -0.109375,0.046875 -0.140625,0.109375 -0.328125,1.078125 -1,1.3125 -1.3125,1.3125 -0.390625,0 -0.546875,-0.3125 -0.546875,-0.65625 0,-0.21875 0.046875,-0.4375 0.15625,-0.875 z m 0,0"
           style="stroke:none" />
      </symbol>
      <symbol
         id="id-73c64a64-9720-4dde-bfcf-3cb2ad304021"
         overflow="visible">
        <path
           id="id-1014f666-11be-4d88-98de-76f9c8762188"
           d=""
           style="stroke:none" />
      </symbol>
      <symbol
         id="id-0a83b974-da6f-4787-8b8d-23b96d1f4b57"
         overflow="visible">
        <path
           id="id-a8e5d46b-3a6d-49c8-9c7b-3565eadcf186"
           d="m 3.296875,2.390625 c 0,-0.03125 0,-0.046875 -0.171875,-0.21875 C 1.890625,0.921875 1.5625,-0.96875 1.5625,-2.5 c 0,-1.734375 0.375,-3.46875 1.609375,-4.703125 0.125,-0.125 0.125,-0.140625 0.125,-0.171875 0,-0.078125 -0.03125,-0.109375 -0.09375,-0.109375 -0.109375,0 -1,0.6875 -1.59375,1.953125 -0.5,1.09375 -0.625,2.203125 -0.625,3.03125 0,0.78125 0.109375,1.984375 0.65625,3.125 C 2.25,1.84375 3.09375,2.5 3.203125,2.5 c 0.0625,0 0.09375,-0.03125 0.09375,-0.109375 z m 0,0"
           style="stroke:none" />
      </symbol>
      <symbol
         id="id-42bbffcb-d627-4a67-ad13-8e3f4779646c"
         overflow="visible">
        <path
           id="id-99d0ede4-b1cc-4ebc-9f77-2f15667961e3"
           d="m 2.875,-2.5 c 0,-0.765625 -0.109375,-1.96875 -0.65625,-3.109375 -0.59375,-1.21875 -1.453125,-1.875 -1.546875,-1.875 -0.0625,0 -0.109375,0.046875 -0.109375,0.109375 0,0.03125 0,0.046875 0.1875,0.234375 0.984375,0.984375 1.546875,2.5625 1.546875,4.640625 0,1.71875 -0.359375,3.46875 -1.59375,4.71875 C 0.5625,2.34375 0.5625,2.359375 0.5625,2.390625 0.5625,2.453125 0.609375,2.5 0.671875,2.5 0.765625,2.5 1.671875,1.8125 2.25,0.546875 2.765625,-0.546875 2.875,-1.65625 2.875,-2.5 Z m 0,0"
           style="stroke:none" />
      </symbol>
      <symbol
         id="id-2b09984d-6c13-4131-98c5-fd5c94905fd0"
         overflow="visible">
        <path
           id="id-502fdae6-e804-465d-a989-4d67ef7210eb"
           d="m 6.84375,-3.265625 c 0.15625,0 0.34375,0 0.34375,-0.1875 C 7.1875,-3.65625 7,-3.65625 6.859375,-3.65625 h -5.96875 c -0.140625,0 -0.328125,0 -0.328125,0.203125 0,0.1875 0.1875,0.1875 0.328125,0.1875 z m 0.015625,1.9375 c 0.140625,0 0.328125,0 0.328125,-0.203125 0,-0.1875 -0.1875,-0.1875 -0.34375,-0.1875 H 0.890625 c -0.140625,0 -0.328125,0 -0.328125,0.1875 0,0.203125 0.1875,0.203125 0.328125,0.203125 z m 0,0"
           style="stroke:none" />
      </symbol>
      <symbol
         id="id-ed02afdc-38f6-4e85-aca2-d6934dcddb6a"
         overflow="visible">
        <path
           id="id-2dde5799-7a6e-42d0-ba2b-70b864673a81"
           d=""
           style="stroke:none" />
      </symbol>
      <symbol
         id="id-96dab160-ec32-448e-9e15-7d538ff73b7e"
         overflow="visible">
        <path
           id="id-b65dbc7d-c7bf-4851-96cc-5cccd229f090"
           d="m 2.328125,-4.4375 c 0,-0.1875 0,-0.1875 -0.203125,-0.1875 -0.453125,0.4375 -1.078125,0.4375 -1.359375,0.4375 v 0.25 c 0.15625,0 0.625,0 1,-0.1875 v 3.546875 c 0,0.234375 0,0.328125 -0.6875,0.328125 H 0.8125 V 0 c 0.125,0 0.984375,-0.03125 1.234375,-0.03125 0.21875,0 1.09375,0.03125 1.25,0.03125 V -0.25 H 3.03125 c -0.703125,0 -0.703125,-0.09375 -0.703125,-0.328125 z m 0,0"
           style="stroke:none" />
      </symbol>
      <symbol
         id="id-c58764e6-2e5d-4987-97da-e7b56d20c418"
         overflow="visible">
        <path
           id="id-715b81db-426a-4934-8823-07fc084853ae"
           d="m 3.21875,-1.578125 h 2.140625 c 0.09375,0 0.25,0 0.25,-0.15625 0,-0.1875 -0.15625,-0.1875 -0.25,-0.1875 H 3.21875 V -4.0625 c 0,-0.078125 0,-0.25 -0.15625,-0.25 -0.171875,0 -0.171875,0.15625 -0.171875,0.25 v 2.140625 H 0.75 c -0.09375,0 -0.265625,0 -0.265625,0.171875 0,0.171875 0.15625,0.171875 0.265625,0.171875 H 2.890625 V 0.5625 c 0,0.09375 0,0.265625 0.15625,0.265625 0.171875,0 0.171875,-0.171875 0.171875,-0.265625 z m 0,0"
           style="stroke:none" />
      </symbol>
      <symbol
         id="id-8a9f4eac-6323-45b6-8dc5-637f5a080a52"
         overflow="visible">
        <path
           id="id-3f41b379-36cf-491c-9ce8-8efefbb13ff8"
           d=""
           style="stroke:none" />
      </symbol>
      <symbol
         id="id-d239c9cf-a9dd-4a17-8d8d-8da45c93bda0"
         overflow="visible">
        <path
           id="id-3f056833-9387-46d8-8f51-93bd26b99e2c"
           d="m 1.5625,-1.59375 c 0.1875,0 0.75,-0.015625 1.125,-0.140625 0.515625,-0.1875 0.609375,-0.515625 0.609375,-0.71875 0,-0.390625 -0.390625,-0.625 -0.859375,-0.625 -0.84375,0 -1.96875,0.640625 -1.96875,1.84375 0,0.703125 0.4375,1.296875 1.25,1.296875 1.1875,0 1.734375,-0.6875 1.734375,-0.78125 0,-0.046875 -0.0625,-0.125 -0.125,-0.125 -0.03125,0 -0.046875,0.015625 -0.109375,0.078125 C 2.671875,-0.125 1.859375,-0.125 1.734375,-0.125 1.3125,-0.125 1.03125,-0.40625 1.03125,-0.96875 c 0,-0.09375 0,-0.234375 0.09375,-0.625 z M 1.171875,-1.78125 C 1.46875,-2.796875 2.234375,-2.875 2.4375,-2.875 2.734375,-2.875 3,-2.71875 3,-2.453125 3,-1.78125 1.8125,-1.78125 1.515625,-1.78125 Z m 0,0"
           style="stroke:none" />
      </symbol>
      <symbol
         id="id-930fc5a3-2a64-4482-a6e7-e92d3afb877f"
         overflow="visible">
        <path
           id="id-19a03b58-b139-468b-bf16-b40711841124"
           d=""
           style="stroke:none" />
      </symbol>
      <symbol
         id="id-c720fdcd-0712-49cb-8cf0-0565020e698f"
         overflow="visible">
        <path
           id="id-41e6dd00-65d3-47f8-9fc3-4f75fc851bba"
           d="m 4.390625,-1.109375 c 0.078125,0 0.203125,0 0.203125,-0.140625 0,-0.140625 -0.125,-0.140625 -0.203125,-0.140625 h -3.375 c -0.078125,0 -0.21875,0 -0.21875,0.140625 0,0.140625 0.140625,0.140625 0.21875,0.140625 z m 0,0"
           style="stroke:none" />
      </symbol>
      <symbol
         id="id-0ece0219-3554-4cbd-8e5c-846d8d139529"
         overflow="visible">
        <path
           id="id-5139d7bd-26f9-475a-8d07-3d93cc8cdf0e"
           d=""
           style="stroke:none" />
      </symbol>
      <symbol
         id="id-9695efa4-c123-4134-b929-6c0f30e636df"
         overflow="visible">
        <path
           id="id-99969763-e866-437b-9a1b-97cb897e0805"
           d="m 3.09375,-1.953125 c -0.234375,0.0625 -0.234375,0.28125 -0.234375,0.296875 0,0.078125 0.0625,0.203125 0.234375,0.203125 0.140625,0 0.3125,-0.125 0.3125,-0.34375 0,-0.296875 -0.328125,-0.40625 -0.59375,-0.40625 -0.328125,0 -0.546875,0.203125 -0.640625,0.34375 -0.15625,-0.28125 -0.484375,-0.34375 -0.65625,-0.34375 -0.625,0 -0.984375,0.59375 -0.984375,0.765625 0,0.078125 0.078125,0.078125 0.109375,0.078125 0.046875,0 0.078125,0 0.109375,-0.0625 0.140625,-0.484375 0.546875,-0.609375 0.734375,-0.609375 0.171875,0 0.359375,0.0625 0.359375,0.328125 0,0.125 -0.09375,0.46875 -0.265625,1.140625 -0.0625,0.28125 -0.296875,0.453125 -0.515625,0.453125 -0.03125,0 -0.171875,0 -0.296875,-0.078125 0.21875,-0.09375 0.21875,-0.28125 0.21875,-0.296875 0,-0.140625 -0.109375,-0.203125 -0.21875,-0.203125 -0.125,0 -0.296875,0.09375 -0.296875,0.328125 0,0.3125 0.328125,0.421875 0.59375,0.421875 0.265625,0 0.5,-0.171875 0.609375,-0.34375 C 1.875,0.015625 2.1875,0.0625 2.34375,0.0625 c 0.625,0 0.984375,-0.59375 0.984375,-0.78125 0,-0.0625 -0.078125,-0.0625 -0.109375,-0.0625 -0.078125,0 -0.09375,0.03125 -0.109375,0.0625 C 2.96875,-0.265625 2.59375,-0.109375 2.375,-0.109375 c -0.15625,0 -0.359375,-0.0625 -0.359375,-0.34375 0,-0.0625 0,-0.09375 0.03125,-0.265625 0.09375,-0.34375 0.21875,-0.890625 0.265625,-0.984375 0.0625,-0.125 0.234375,-0.328125 0.484375,-0.328125 0.015625,0 0.1875,0 0.296875,0.078125 z m 0,0"
           style="stroke:none" />
      </symbol>
    </g>
  </defs>
  <g
     id="axes_1">
    <g
       id="patch_2">
      <path
         d="M 42.01,121.52 H 211.635 V 10.8 H 42.01 Z"
         style="fill:#ffffff"
         id="path9" />
    </g>
    <g
       id="matplotlib.axis_1">
      <g
         id="xtick_1">
        <g
           id="line2d_1">
          <defs
             id="defs13">
            <path
               d="M 0,0 V 3.5"
               id="md8ac68b005"
               style="stroke:#000000;stroke-width:0.8" />
          </defs>
          <g
             id="g17">
            <use
               style="stroke:#000000;stroke-width:0.8"
               x="62.570606"
               xlink:href="#md8ac68b005"
               y="121.52"
               id="use15"
               width="100%"
               height="100%" />
          </g>
        </g>
        <g
           id="text_1">
          <!-- −5 -->
          <defs
             id="defs22">
            <path
               d="M 10.59375,35.5 H 73.1875 V 27.203125 H 10.59375 Z"
               id="DejaVuSans-8722" />
            <path
               d="m 10.796875,72.90625 h 38.71875 v -8.3125 h -29.6875 V 46.734375 q 2.140625,0.734375 4.28125,1.09375 2.15625,0.359375 4.3125,0.359375 Q 40.625,48.1875 47.75,41.5 54.890625,34.8125 54.890625,23.390625 54.890625,11.625 47.5625,5.09375 40.234375,-1.421875 26.90625,-1.421875 q -4.59375,0 -9.359375,0.78125 -4.75,0.78125 -9.828125,2.34375 V 11.625 q 4.390625,-2.390625 9.078125,-3.5625 4.6875,-1.171875 9.90625,-1.171875 8.453125,0 13.375,4.4375 4.9375,4.4375 4.9375,12.0625 0,7.609375 -4.9375,12.046875 -4.921875,4.453125 -13.375,4.453125 -3.953125,0 -7.890625,-0.875 -3.921875,-0.875 -8.015625,-2.734375 z"
               id="DejaVuSans-53" />
          </defs>
          <g
             transform="matrix(0.1,0,0,-0.1,55.199512,136.11844)"
             id="g28">
            <use
               xlink:href="#DejaVuSans-8722"
               id="use24"
               x="0"
               y="0"
               width="100%"
               height="100%" />
            <use
               x="83.789062"
               xlink:href="#DejaVuSans-53"
               id="use26"
               y="0"
               width="100%"
               height="100%" />
          </g>
        </g>
      </g>
      <g
         id="xtick_2">
        <g
           id="line2d_2">
          <g
             id="g34">
            <use
               style="stroke:#000000;stroke-width:0.8"
               x="126.8225"
               xlink:href="#md8ac68b005"
               y="121.52"
               id="use32"
               width="100%"
               height="100%" />
          </g>
        </g>
        <g
           id="text_2">
          <!-- 0 -->
          <defs
             id="defs38">
            <path
               d="m 31.78125,66.40625 q -7.609375,0 -11.453125,-7.5 Q 16.5,51.421875 16.5,36.375 q 0,-14.984375 3.828125,-22.484375 3.84375,-7.5 11.453125,-7.5 7.671875,0 11.5,7.5 3.84375,7.5 3.84375,22.484375 0,15.046875 -3.84375,22.53125 -3.828125,7.5 -11.5,7.5 z m 0,7.8125 q 12.265625,0 18.734375,-9.703125 6.46875,-9.6875 6.46875,-28.140625 0,-18.40625 -6.46875,-28.109375 -6.46875,-9.6875 -18.734375,-9.6875 -12.25,0 -18.71875,9.6875 Q 6.59375,17.96875 6.59375,36.375 q 0,18.453125 6.46875,28.140625 6.46875,9.703125 18.71875,9.703125 z"
               id="DejaVuSans-48" />
          </defs>
          <g
             transform="matrix(0.1,0,0,-0.1,123.64125,136.11844)"
             id="g42">
            <use
               xlink:href="#DejaVuSans-48"
               id="use40"
               x="0"
               y="0"
               width="100%"
               height="100%" />
          </g>
        </g>
      </g>
      <g
         id="xtick_3">
        <g
           id="line2d_3">
          <g
             id="g48">
            <use
               style="stroke:#000000;stroke-width:0.8"
               x="191.07439"
               xlink:href="#md8ac68b005"
               y="121.52"
               id="use46"
               width="100%"
               height="100%" />
          </g>
        </g>
        <g
           id="text_3">
          <!-- 5 -->
          <g
             transform="matrix(0.1,0,0,-0.1,187.89314,136.11844)"
             id="g53">
            <use
               xlink:href="#DejaVuSans-53"
               id="use51"
               x="0"
               y="0"
               width="100%"
               height="100%" />
          </g>
        </g>
      </g>
    </g>
    <g
       id="matplotlib.axis_2">
      <g
         id="ytick_1">
        <g
           id="line2d_4">
          <defs
             id="defs59">
            <path
               d="M 0,0 H -3.5"
               id="mf0d9a0be1a"
               style="stroke:#000000;stroke-width:0.8" />
          </defs>
          <g
             id="g63">
            <use
               style="stroke:#000000;stroke-width:0.8"
               x="42.009998"
               xlink:href="#mf0d9a0be1a"
               y="116.48727"
               id="use61"
               width="100%"
               height="100%" />
          </g>
        </g>
        <g
           id="text_4">
          <!-- 0 -->
          <g
             transform="matrix(0.1,0,0,-0.1,28.6475,120.28649)"
             id="g68">
            <use
               xlink:href="#DejaVuSans-48"
               id="use66"
               x="0"
               y="0"
               width="100%"
               height="100%" />
          </g>
        </g>
      </g>
      <g
         id="ytick_2">
        <g
           id="line2d_5">
          <g
             id="g74">
            <use
               style="stroke:#000000;stroke-width:0.8"
               x="42.009998"
               xlink:href="#mf0d9a0be1a"
               y="82.93576"
               id="use72"
               width="100%"
               height="100%" />
          </g>
        </g>
        <g
           id="text_5">
          <!-- 2 -->
          <defs
             id="defs78">
            <path
               d="M 19.1875,8.296875 H 53.609375 V 0 H 7.328125 v 8.296875 q 5.609375,5.8125 15.296875,15.59375 9.703125,9.796875 12.1875,12.640625 4.734375,5.3125 6.609375,9 1.890625,3.6875 1.890625,7.25 0,5.8125 -4.078125,9.46875 -4.078125,3.671875 -10.625,3.671875 -4.640625,0 -9.796875,-1.609375 -5.140625,-1.609375 -11,-4.890625 v 9.96875 Q 13.765625,71.78125 18.9375,73 q 5.1875,1.21875 9.484375,1.21875 11.328125,0 18.0625,-5.671875 6.734375,-5.65625 6.734375,-15.125 0,-4.5 -1.6875,-8.53125 Q 49.859375,40.875 45.40625,35.40625 44.1875,33.984375 37.640625,27.21875 31.109375,20.453125 19.1875,8.296875 Z"
               id="DejaVuSans-50" />
          </defs>
          <g
             transform="matrix(0.1,0,0,-0.1,28.6475,86.734976)"
             id="g82">
            <use
               xlink:href="#DejaVuSans-50"
               id="use80"
               x="0"
               y="0"
               width="100%"
               height="100%" />
          </g>
        </g>
      </g>
      <g
         id="ytick_3">
        <g
           id="line2d_6">
          <g
             id="g88">
            <use
               style="stroke:#000000;stroke-width:0.8"
               x="42.009998"
               xlink:href="#mf0d9a0be1a"
               y="49.384243"
               id="use86"
               width="100%"
               height="100%" />
          </g>
        </g>
        <g
           id="text_6">
          <!-- 4 -->
          <defs
             id="defs92">
            <path
               d="M 37.796875,64.3125 12.890625,25.390625 h 24.90625 z m -2.59375,8.59375 h 12.40625 V 25.390625 h 10.40625 V 17.1875 H 47.609375 V 0 h -9.8125 V 17.1875 H 4.890625 v 9.515625 z"
               id="DejaVuSans-52" />
          </defs>
          <g
             transform="matrix(0.1,0,0,-0.1,28.6475,53.183461)"
             id="g96">
            <use
               xlink:href="#DejaVuSans-52"
               id="use94"
               x="0"
               y="0"
               width="100%"
               height="100%" />
          </g>
        </g>
      </g>
      <g
         id="ytick_4">
        <g
           id="line2d_7">
          <g
             id="g102">
            <use
               style="stroke:#000000;stroke-width:0.8"
               x="42.009998"
               xlink:href="#mf0d9a0be1a"
               y="15.832727"
               id="use100"
               width="100%"
               height="100%" />
          </g>
        </g>
        <g
           id="text_7">
          <!-- 6 -->
          <defs
             id="defs106">
            <path
               d="m 33.015625,40.375 q -6.640625,0 -10.53125,-4.546875 -3.875,-4.53125 -3.875,-12.4375 0,-7.859375 3.875,-12.4375 3.890625,-4.5625 10.53125,-4.5625 6.640625,0 10.515625,4.5625 3.875,4.578125 3.875,12.4375 0,7.90625 -3.875,12.4375 Q 39.65625,40.375 33.015625,40.375 Z M 52.59375,71.296875 V 62.3125 q -3.71875,1.75 -7.5,2.671875 -3.78125,0.9375 -7.5,0.9375 -9.765625,0 -14.921875,-6.59375 -5.140625,-6.59375 -5.875,-19.921875 2.875,4.25 7.21875,6.515625 4.359375,2.265625 9.578125,2.265625 10.984375,0 17.359375,-6.671875 6.375,-6.65625 6.375,-18.125 0,-11.234375 -6.640625,-18.03125 -6.640625,-6.78125 -17.671875,-6.78125 -12.65625,0 -19.34375,9.6875 -6.6875,9.703125 -6.6875,28.109375 0,17.28125 8.203125,27.5625 8.203125,10.28125 22.015625,10.28125 3.71875,0 7.5,-0.734375 3.78125,-0.734375 7.890625,-2.1875 z"
               id="DejaVuSans-54" />
          </defs>
          <g
             transform="matrix(0.1,0,0,-0.1,28.6475,19.631946)"
             id="g110">
            <use
               xlink:href="#DejaVuSans-54"
               id="use108"
               x="0"
               y="0"
               width="100%"
               height="100%" />
          </g>
        </g>
      </g>
    </g>
    <g
       id="LineCollection_1">
      <path
         clip-path="url(#p750c61bdf2)"
         d="M 126.8225,116.48727 V 15.832727"
         style="fill:none;stroke:#000000;stroke-width:0.5"
         id="path115" />
    </g>
    <g
       id="line2d_8">
      <path
         clip-path="url(#p750c61bdf2)"
         d="m 49.720227,116.48727 h 3.147032 3.147031 3.147032 3.147031 3.147032 3.147032 3.147031 3.147032 3.147031 3.147032 3.147031 3.147032 3.147031 3.147032 3.147031 3.14703 3.14703 3.14703 3.14704 3.14703 3.14703 3.14703 3.14703 3.14703 l 3.14704,-2.05417 3.14703,-4.10835 3.14703,-4.10835 3.14703,-4.10835 3.14703,-4.108347 3.14703,-4.108349 3.14704,-4.108348 3.14703,-4.108349 3.14703,-4.108349 3.14703,-4.108349 3.14703,-4.108349 3.14703,-4.108348 3.14703,-4.108349 3.14704,-4.108349 3.14703,-4.108349 3.14703,-4.108349 3.14703,-4.108348 3.14703,-4.108349 3.14703,-4.108349 3.14703,-4.108349 3.14704,-4.108349 3.14703,-4.108348 3.14703,-4.108349 3.14703,-4.108349 3.14703,-4.108349"
         style="fill:none;stroke:#b65256;stroke-width:2.5;stroke-linecap:square"
         id="path118" />
    </g>
    <g
       id="patch_3">
      <path
         d="M 42.01,121.52 V 10.8"
         style="fill:none;stroke:#000000;stroke-width:0.8;stroke-linecap:square;stroke-linejoin:miter"
         id="path121" />
    </g>
    <g
       id="patch_4">
      <path
         d="M 211.635,121.52 V 10.8"
         style="fill:none;stroke:#000000;stroke-width:0.8;stroke-linecap:square;stroke-linejoin:miter"
         id="path124" />
    </g>
    <g
       id="patch_5">
      <path
         d="M 42.01,121.52 H 211.635"
         style="fill:none;stroke:#000000;stroke-width:0.8;stroke-linecap:square;stroke-linejoin:miter"
         id="path127" />
    </g>
    <g
       id="patch_6">
      <path
         d="M 42.01,10.8 H 211.635"
         style="fill:none;stroke:#000000;stroke-width:0.8;stroke-linecap:square;stroke-linejoin:miter"
         id="path130" />
    </g>
  </g>
  <g
     id="axes_2">
    <g
       id="patch_7">
      <path
         d="M 251.575,121.52 H 421.2 V 10.8 H 251.575 Z"
         style="fill:#ffffff"
         id="path134" />
    </g>
    <g
       id="matplotlib.axis_3">
      <g
         id="xtick_4">
        <g
           id="line2d_9">
          <g
             id="g139">
            <use
               style="stroke:#000000;stroke-width:0.8"
               x="272.13562"
               xlink:href="#md8ac68b005"
               y="121.52"
               id="use137"
               width="100%"
               height="100%" />
          </g>
        </g>
        <g
           id="text_8">
          <!-- −5 -->
          <g
             transform="matrix(0.1,0,0,-0.1,264.76451,136.11844)"
             id="g146">
            <use
               xlink:href="#DejaVuSans-8722"
               id="use142"
               x="0"
               y="0"
               width="100%"
               height="100%" />
            <use
               x="83.789062"
               xlink:href="#DejaVuSans-53"
               id="use144"
               y="0"
               width="100%"
               height="100%" />
          </g>
        </g>
      </g>
      <g
         id="xtick_5">
        <g
           id="line2d_10">
          <g
             id="g152">
            <use
               style="stroke:#000000;stroke-width:0.8"
               x="336.38751"
               xlink:href="#md8ac68b005"
               y="121.52"
               id="use150"
               width="100%"
               height="100%" />
          </g>
        </g>
        <g
           id="text_9">
          <!-- 0 -->
          <g
             transform="matrix(0.1,0,0,-0.1,333.20625,136.11844)"
             id="g157">
            <use
               xlink:href="#DejaVuSans-48"
               id="use155"
               x="0"
               y="0"
               width="100%"
               height="100%" />
          </g>
        </g>
      </g>
      <g
         id="xtick_6">
        <g
           id="line2d_11">
          <g
             id="g163">
            <use
               style="stroke:#000000;stroke-width:0.8"
               x="400.6394"
               xlink:href="#md8ac68b005"
               y="121.52"
               id="use161"
               width="100%"
               height="100%" />
          </g>
        </g>
        <g
           id="text_10">
          <!-- 5 -->
          <g
             transform="matrix(0.1,0,0,-0.1,397.45814,136.11844)"
             id="g168">
            <use
               xlink:href="#DejaVuSans-53"
               id="use166"
               x="0"
               y="0"
               width="100%"
               height="100%" />
          </g>
        </g>
      </g>
    </g>
    <g
       id="matplotlib.axis_4">
      <g
         id="ytick_5">
        <g
           id="line2d_12">
          <g
             id="g175">
            <use
               style="stroke:#000000;stroke-width:0.8"
               x="251.575"
               xlink:href="#mf0d9a0be1a"
               y="116.48727"
               id="use173"
               width="100%"
               height="100%" />
          </g>
        </g>
        <g
           id="text_11">
          <!-- 0.00 -->
          <defs
             id="defs179">
            <path
               d="M 10.6875,12.40625 H 21 V 0 H 10.6875 Z"
               id="DejaVuSans-46" />
          </defs>
          <g
             transform="matrix(0.1,0,0,-0.1,222.30937,120.28649)"
             id="g189">
            <use
               xlink:href="#DejaVuSans-48"
               id="use181"
               x="0"
               y="0"
               width="100%"
               height="100%" />
            <use
               x="63.623047"
               xlink:href="#DejaVuSans-46"
               id="use183"
               y="0"
               width="100%"
               height="100%" />
            <use
               x="95.410156"
               xlink:href="#DejaVuSans-48"
               id="use185"
               y="0"
               width="100%"
               height="100%" />
            <use
               x="159.0332"
               xlink:href="#DejaVuSans-48"
               id="use187"
               y="0"
               width="100%"
               height="100%" />
          </g>
        </g>
      </g>
      <g
         id="ytick_6">
        <g
           id="line2d_13">
          <g
             id="g195">
            <use
               style="stroke:#000000;stroke-width:0.8"
               x="251.575"
               xlink:href="#mf0d9a0be1a"
               y="91.323639"
               id="use193"
               width="100%"
               height="100%" />
          </g>
        </g>
        <g
           id="text_12">
          <!-- 0.25 -->
          <g
             transform="matrix(0.1,0,0,-0.1,222.30937,95.122855)"
             id="g206">
            <use
               xlink:href="#DejaVuSans-48"
               id="use198"
               x="0"
               y="0"
               width="100%"
               height="100%" />
            <use
               x="63.623047"
               xlink:href="#DejaVuSans-46"
               id="use200"
               y="0"
               width="100%"
               height="100%" />
            <use
               x="95.410156"
               xlink:href="#DejaVuSans-50"
               id="use202"
               y="0"
               width="100%"
               height="100%" />
            <use
               x="159.0332"
               xlink:href="#DejaVuSans-53"
               id="use204"
               y="0"
               width="100%"
               height="100%" />
          </g>
        </g>
      </g>
      <g
         id="ytick_7">
        <g
           id="line2d_14">
          <g
             id="g212">
            <use
               style="stroke:#000000;stroke-width:0.8"
               x="251.575"
               xlink:href="#mf0d9a0be1a"
               y="66.160004"
               id="use210"
               width="100%"
               height="100%" />
          </g>
        </g>
        <g
           id="text_13">
          <!-- 0.50 -->
          <g
             transform="matrix(0.1,0,0,-0.1,222.30937,69.959219)"
             id="g223">
            <use
               xlink:href="#DejaVuSans-48"
               id="use215"
               x="0"
               y="0"
               width="100%"
               height="100%" />
            <use
               x="63.623047"
               xlink:href="#DejaVuSans-46"
               id="use217"
               y="0"
               width="100%"
               height="100%" />
            <use
               x="95.410156"
               xlink:href="#DejaVuSans-53"
               id="use219"
               y="0"
               width="100%"
               height="100%" />
            <use
               x="159.0332"
               xlink:href="#DejaVuSans-48"
               id="use221"
               y="0"
               width="100%"
               height="100%" />
          </g>
        </g>
      </g>
      <g
         id="ytick_8">
        <g
           id="line2d_15">
          <g
             id="g229">
            <use
               style="stroke:#000000;stroke-width:0.8"
               x="251.575"
               xlink:href="#mf0d9a0be1a"
               y="40.996365"
               id="use227"
               width="100%"
               height="100%" />
          </g>
        </g>
        <g
           id="text_14">
          <!-- 0.75 -->
          <defs
             id="defs233">
            <path
               d="m 8.203125,72.90625 h 46.875 V 68.703125 L 28.609375,0 H 18.3125 L 43.21875,64.59375 H 8.203125 Z"
               id="DejaVuSans-55" />
          </defs>
          <g
             transform="matrix(0.1,0,0,-0.1,222.30937,44.795582)"
             id="g243">
            <use
               xlink:href="#DejaVuSans-48"
               id="use235"
               x="0"
               y="0"
               width="100%"
               height="100%" />
            <use
               x="63.623047"
               xlink:href="#DejaVuSans-46"
               id="use237"
               y="0"
               width="100%"
               height="100%" />
            <use
               x="95.410156"
               xlink:href="#DejaVuSans-55"
               id="use239"
               y="0"
               width="100%"
               height="100%" />
            <use
               x="159.0332"
               xlink:href="#DejaVuSans-53"
               id="use241"
               y="0"
               width="100%"
               height="100%" />
          </g>
        </g>
      </g>
      <g
         id="ytick_9">
        <g
           id="line2d_16">
          <g
             id="g249">
            <use
               style="stroke:#000000;stroke-width:0.8"
               x="251.575"
               xlink:href="#mf0d9a0be1a"
               y="15.832727"
               id="use247"
               width="100%"
               height="100%" />
          </g>
        </g>
        <g
           id="text_15">
          <!-- 1.00 -->
          <defs
             id="defs253">
            <path
               d="m 12.40625,8.296875 h 16.109375 v 55.625 L 10.984375,60.40625 v 8.984375 l 17.4375,3.515625 H 38.28125 V 8.296875 H 54.390625 V 0 H 12.40625 Z"
               id="DejaVuSans-49" />
          </defs>
          <g
             transform="matrix(0.1,0,0,-0.1,222.30937,19.631946)"
             id="g263">
            <use
               xlink:href="#DejaVuSans-49"
               id="use255"
               x="0"
               y="0"
               width="100%"
               height="100%" />
            <use
               x="63.623047"
               xlink:href="#DejaVuSans-46"
               id="use257"
               y="0"
               width="100%"
               height="100%" />
            <use
               x="95.410156"
               xlink:href="#DejaVuSans-48"
               id="use259"
               y="0"
               width="100%"
               height="100%" />
            <use
               x="159.0332"
               xlink:href="#DejaVuSans-48"
               id="use261"
               y="0"
               width="100%"
               height="100%" />
          </g>
        </g>
      </g>
    </g>
    <g
       id="LineCollection_2">
      <path
         clip-path="url(#p80cf09f789)"
         d="M 336.3875,116.48727 V 15.832727"
         style="fill:none;stroke:#000000;stroke-width:0.5"
         id="path268" />
    </g>
    <g
       id="line2d_17">
      <path
         clip-path="url(#p80cf09f789)"
         d="m 259.28523,116.23839 3.14703,-0.0688 3.14703,-0.0878 3.14703,-0.11196 3.14703,-0.14265 3.14703,-0.18166 3.14704,-0.2311 3.14703,-0.29368 3.14703,-0.37266 3.14703,-0.47202 3.14703,-0.59649 3.14703,-0.75157 3.14704,-0.94349 3.14703,-1.17896 3.14703,-1.4647 3.14703,-1.80669 3.14703,-2.20891 3.14703,-2.67168 3.14704,-3.189512 3.14703,-3.748944 3.14703,-4.326777 3.14703,-4.88969 3.14703,-5.396156 3.14703,-5.801222 3.14703,-6.063802 3.14704,-6.154834 3.14703,-6.063802 3.14703,-5.801222 3.14703,-5.396156 3.14703,-4.88969 3.14703,-4.326777 3.14703,-3.748944 3.14704,-3.189512 3.14703,-2.671678 3.14703,-2.208912 3.14703,-1.806688 3.14703,-1.4647 3.14703,-1.178959 3.14704,-0.943495 3.14703,-0.751573 3.14703,-0.596488 3.14703,-0.472021 3.14703,-0.37266 3.14703,-0.293678 3.14703,-0.231102 3.14704,-0.181653 3.14703,-0.142656 3.14703,-0.111954 3.14703,-0.08781 3.14703,-0.06884"
         style="fill:none;stroke:#57ab27;stroke-width:2.5;stroke-linecap:square"
         id="path271" />
    </g>
    <g
       id="patch_8">
      <path
         d="M 251.575,121.52 V 10.8"
         style="fill:none;stroke:#000000;stroke-width:0.8;stroke-linecap:square;stroke-linejoin:miter"
         id="path274" />
    </g>
    <g
       id="patch_9">
      <path
         d="M 421.2,121.52 V 10.8"
         style="fill:none;stroke:#000000;stroke-width:0.8;stroke-linecap:square;stroke-linejoin:miter"
         id="path277" />
    </g>
    <g
       id="patch_10">
      <path
         d="M 251.575,121.52 H 421.2"
         style="fill:none;stroke:#000000;stroke-width:0.8;stroke-linecap:square;stroke-linejoin:miter"
         id="path280" />
    </g>
    <g
       id="patch_11">
      <path
         d="M 251.575,10.8 H 421.2"
         style="fill:none;stroke:#000000;stroke-width:0.8;stroke-linecap:square;stroke-linejoin:miter"
         id="path283" />
    </g>
  </g>
  <g
     transform="translate(101.3081,-0.01666257)"
     id="axes_3">
    <g
       id="patch_12">
      <path
         d="M 42.01,260.12 H 211.635 V 149.4 H 42.01 Z"
         style="fill:#ffffff"
         id="path287" />
    </g>
    <g
       id="matplotlib.axis_5">
      <g
         id="xtick_7">
        <g
           id="line2d_18">
          <g
             id="g292">
            <use
               style="stroke:#000000;stroke-width:0.8"
               x="62.570606"
               xlink:href="#md8ac68b005"
               y="260.12"
               id="use290"
               width="100%"
               height="100%" />
          </g>
        </g>
        <g
           id="text_16">
          <!-- −5 -->
          <g
             transform="matrix(0.1,0,0,-0.1,55.199512,274.71844)"
             id="g299">
            <use
               xlink:href="#DejaVuSans-8722"
               id="use295"
               x="0"
               y="0"
               width="100%"
               height="100%" />
            <use
               x="83.789062"
               xlink:href="#DejaVuSans-53"
               id="use297"
               y="0"
               width="100%"
               height="100%" />
          </g>
        </g>
      </g>
      <g
         id="xtick_8">
        <g
           id="line2d_19">
          <g
             id="g305">
            <use
               style="stroke:#000000;stroke-width:0.8"
               x="126.8225"
               xlink:href="#md8ac68b005"
               y="260.12"
               id="use303"
               width="100%"
               height="100%" />
          </g>
        </g>
        <g
           id="text_17">
          <!-- 0 -->
          <g
             transform="matrix(0.1,0,0,-0.1,123.64125,274.71844)"
             id="g310">
            <use
               xlink:href="#DejaVuSans-48"
               id="use308"
               x="0"
               y="0"
               width="100%"
               height="100%" />
          </g>
        </g>
      </g>
      <g
         id="xtick_9">
        <g
           id="line2d_20">
          <g
             id="g316">
            <use
               style="stroke:#000000;stroke-width:0.8"
               x="191.07439"
               xlink:href="#md8ac68b005"
               y="260.12"
               id="use314"
               width="100%"
               height="100%" />
          </g>
        </g>
        <g
           id="text_18">
          <!-- 5 -->
          <g
             transform="matrix(0.1,0,0,-0.1,187.89314,274.71844)"
             id="g321">
            <use
               xlink:href="#DejaVuSans-53"
               id="use319"
               x="0"
               y="0"
               width="100%"
               height="100%" />
          </g>
        </g>
      </g>
    </g>
    <g
       id="matplotlib.axis_6">
      <g
         id="ytick_10">
        <g
           id="line2d_21">
          <g
             id="g328">
            <use
               style="stroke:#000000;stroke-width:0.8"
               x="42.009998"
               xlink:href="#mf0d9a0be1a"
               y="255.08728"
               id="use326"
               width="100%"
               height="100%" />
          </g>
        </g>
        <g
           id="text_19">
          <!-- −1.0 -->
          <g
             transform="matrix(0.1,0,0,-0.1,10.727188,258.88649)"
             id="g339">
            <use
               xlink:href="#DejaVuSans-8722"
               id="use331"
               x="0"
               y="0"
               width="100%"
               height="100%" />
            <use
               x="83.789062"
               xlink:href="#DejaVuSans-49"
               id="use333"
               y="0"
               width="100%"
               height="100%" />
            <use
               x="147.41211"
               xlink:href="#DejaVuSans-46"
               id="use335"
               y="0"
               width="100%"
               height="100%" />
            <use
               x="179.19922"
               xlink:href="#DejaVuSans-48"
               id="use337"
               y="0"
               width="100%"
               height="100%" />
          </g>
        </g>
      </g>
      <g
         id="ytick_11">
        <g
           id="line2d_22">
          <g
             id="g345">
            <use
               style="stroke:#000000;stroke-width:0.8"
               x="42.009998"
               xlink:href="#mf0d9a0be1a"
               y="229.92363"
               id="use343"
               width="100%"
               height="100%" />
          </g>
        </g>
        <g
           id="text_20">
          <!-- −0.5 -->
          <g
             transform="matrix(0.1,0,0,-0.1,10.727188,233.72285)"
             id="g356">
            <use
               xlink:href="#DejaVuSans-8722"
               id="use348"
               x="0"
               y="0"
               width="100%"
               height="100%" />
            <use
               x="83.789062"
               xlink:href="#DejaVuSans-48"
               id="use350"
               y="0"
               width="100%"
               height="100%" />
            <use
               x="147.41211"
               xlink:href="#DejaVuSans-46"
               id="use352"
               y="0"
               width="100%"
               height="100%" />
            <use
               x="179.19922"
               xlink:href="#DejaVuSans-53"
               id="use354"
               y="0"
               width="100%"
               height="100%" />
          </g>
        </g>
      </g>
      <g
         id="ytick_12">
        <g
           id="line2d_23">
          <g
             id="g362">
            <use
               style="stroke:#000000;stroke-width:0.8"
               x="42.009998"
               xlink:href="#mf0d9a0be1a"
               y="204.75999"
               id="use360"
               width="100%"
               height="100%" />
          </g>
        </g>
        <g
           id="text_21">
          <!-- 0.0 -->
          <g
             transform="matrix(0.1,0,0,-0.1,19.106875,208.55922)"
             id="g371">
            <use
               xlink:href="#DejaVuSans-48"
               id="use365"
               x="0"
               y="0"
               width="100%"
               height="100%" />
            <use
               x="63.623047"
               xlink:href="#DejaVuSans-46"
               id="use367"
               y="0"
               width="100%"
               height="100%" />
            <use
               x="95.410156"
               xlink:href="#DejaVuSans-48"
               id="use369"
               y="0"
               width="100%"
               height="100%" />
          </g>
        </g>
      </g>
      <g
         id="ytick_13">
        <g
           id="line2d_24">
          <g
             id="g377">
            <use
               style="stroke:#000000;stroke-width:0.8"
               x="42.009998"
               xlink:href="#mf0d9a0be1a"
               y="179.59636"
               id="use375"
               width="100%"
               height="100%" />
          </g>
        </g>
        <g
           id="text_22">
          <!-- 0.5 -->
          <g
             transform="matrix(0.1,0,0,-0.1,19.106875,183.39558)"
             id="g386">
            <use
               xlink:href="#DejaVuSans-48"
               id="use380"
               x="0"
               y="0"
               width="100%"
               height="100%" />
            <use
               x="63.623047"
               xlink:href="#DejaVuSans-46"
               id="use382"
               y="0"
               width="100%"
               height="100%" />
            <use
               x="95.410156"
               xlink:href="#DejaVuSans-53"
               id="use384"
               y="0"
               width="100%"
               height="100%" />
          </g>
        </g>
      </g>
      <g
         id="ytick_14">
        <g
           id="line2d_25">
          <g
             id="g392">
            <use
               style="stroke:#000000;stroke-width:0.8"
               x="42.009998"
               xlink:href="#mf0d9a0be1a"
               y="154.43272"
               id="use390"
               width="100%"
               height="100%" />
          </g>
        </g>
        <g
           id="text_23">
          <!-- 1.0 -->
          <g
             transform="matrix(0.1,0,0,-0.1,19.106875,158.23195)"
             id="g401">
            <use
               xlink:href="#DejaVuSans-49"
               id="use395"
               x="0"
               y="0"
               width="100%"
               height="100%" />
            <use
               x="63.623047"
               xlink:href="#DejaVuSans-46"
               id="use397"
               y="0"
               width="100%"
               height="100%" />
            <use
               x="95.410156"
               xlink:href="#DejaVuSans-48"
               id="use399"
               y="0"
               width="100%"
               height="100%" />
          </g>
        </g>
      </g>
    </g>
    <g
       id="LineCollection_3">
      <path
         clip-path="url(#pb37620d14f)"
         d="M 126.8225,255.08727 V 154.43273"
         style="fill:none;stroke:#000000;stroke-width:0.5"
         id="path406" />
    </g>
    <g
       id="line2d_26">
      <path
         clip-path="url(#pb37620d14f)"
         d="m 49.720227,255.08665 3.147032,-3.9e-4 3.147031,-6.3e-4 3.147032,-0.001 3.147031,-0.002 3.147032,-0.003 3.147032,-0.005 3.147031,-0.007 3.147032,-0.012 3.147031,-0.0197 3.147032,-0.032 3.147031,-0.0523 3.147032,-0.0852 3.147031,-0.1387 3.147032,-0.22554 3.147031,-0.36592 3.14703,-0.59144 3.14703,-0.95031 3.14703,-1.51234 3.14704,-2.3705 3.14703,-3.6285 3.14703,-5.35724 3.14703,-7.50266 3.14703,-9.76532 3.14703,-11.56663 3.14704,-12.26382 3.14703,-11.56663 3.14703,-9.76533 3.14703,-7.50265 3.14703,-5.35725 3.14703,-3.62849 3.14704,-2.3705 3.14703,-1.51234 3.14703,-0.95031 3.14703,-0.59144 3.14703,-0.36592 3.14703,-0.22554 3.14703,-0.1387 3.14704,-0.0852 3.14703,-0.0523 3.14703,-0.032 3.14703,-0.0196 3.14703,-0.0121 3.14703,-0.007 3.14703,-0.005 3.14704,-0.003 3.14703,-0.002 3.14703,-0.001 3.14703,-6.3e-4 3.14703,-3.9e-4"
         style="fill:none;stroke:#f6a800;stroke-width:2.5;stroke-linecap:square"
         id="path409" />
    </g>
    <g
       id="patch_13">
      <path
         d="M 42.01,260.12 V 149.4"
         style="fill:none;stroke:#000000;stroke-width:0.8;stroke-linecap:square;stroke-linejoin:miter"
         id="path412" />
    </g>
    <g
       id="patch_14">
      <path
         d="M 211.635,260.12 V 149.4"
         style="fill:none;stroke:#000000;stroke-width:0.8;stroke-linecap:square;stroke-linejoin:miter"
         id="path415" />
    </g>
    <g
       id="patch_15">
      <path
         d="M 42.01,260.12 H 211.635"
         style="fill:none;stroke:#000000;stroke-width:0.8;stroke-linecap:square;stroke-linejoin:miter"
         id="path418" />
    </g>
    <g
       id="patch_16">
      <path
         d="M 42.01,149.4 H 211.635"
         style="fill:none;stroke:#000000;stroke-width:0.8;stroke-linecap:square;stroke-linejoin:miter"
         id="path421" />
    </g>
  </g>
  <defs
     id="defs435">
    <clipPath
       id="p750c61bdf2">
      <rect
         id="rect426"
         y="10.8"
         x="42.01"
         width="169.625"
         height="110.72" />
    </clipPath>
    <clipPath
       id="p80cf09f789">
      <rect
         id="rect429"
         y="10.8"
         x="251.575"
         width="169.625"
         height="110.72" />
    </clipPath>
    <clipPath
       id="pb37620d14f">
      <rect
         id="rect432"
         y="149.4"
         x="42.01"
         width="169.625"
         height="110.72" />
    </clipPath>
  </defs>
  <g
     transform="matrix(1.2712554,0,0,1.4990035,256.90303,33.756453)"
     ns1:version="1.1.0"
     ns1:texconverter="pdflatex"
     ns1:pdfconverter="inkscape"
     ns1:text="$\\sigma(x) = \\frac{1}{1+e^{-x}}$"
     ns1:preamble="/home/kaladin/.config/inkscape/extensions/textext/default_packages.tex"
     ns1:scale="1.0019999999999998"
     ns1:alignment="middle center"
     ns1:inkscapeversion="1.0"
     ns1:jacobian_sqrt="1.336"
     id="g30565">
    <defs
       id="id-4ace3f7d-bc9d-4825-a971-10437693e7c0">
      <g
         id="g2304">
        <symbol
           id="symbol2242"
           overflow="visible">
          <path
             id="path2240"
             d=""
             style="stroke:none" />
        </symbol>
        <symbol
           id="symbol2246"
           overflow="visible">
          <path
             id="path2244"
             d="m 5.15625,-3.71875 c 0.140625,0 0.5,0 0.5,-0.34375 0,-0.234375 -0.21875,-0.234375 -0.390625,-0.234375 h -2.28125 c -1.5,0 -2.609375,1.640625 -2.609375,2.828125 0,0.875 0.59375,1.578125 1.5,1.578125 1.171875,0 2.5,-1.203125 2.5,-2.734375 0,-0.171875 0,-0.65625 -0.3125,-1.09375 z M 1.890625,-0.109375 C 1.390625,-0.109375 1,-0.46875 1,-1.1875 c 0,-0.296875 0.109375,-1.109375 0.46875,-1.703125 0.421875,-0.6875 1.015625,-0.828125 1.359375,-0.828125 0.828125,0 0.90625,0.65625 0.90625,0.96875 0,0.46875 -0.203125,1.28125 -0.53125,1.796875 -0.390625,0.578125 -0.9375,0.84375 -1.3125,0.84375 z m 0,0"
             style="stroke:none" />
        </symbol>
        <symbol
           id="symbol2250"
           overflow="visible">
          <path
             id="path2248"
             d="M 3.328125,-3.015625 C 3.390625,-3.265625 3.625,-4.1875 4.3125,-4.1875 c 0.046875,0 0.296875,0 0.5,0.125 C 4.53125,-4 4.34375,-3.765625 4.34375,-3.515625 c 0,0.15625 0.109375,0.34375 0.375,0.34375 0.21875,0 0.53125,-0.171875 0.53125,-0.578125 0,-0.515625 -0.578125,-0.65625 -0.921875,-0.65625 -0.578125,0 -0.921875,0.53125 -1.046875,0.75 -0.25,-0.65625 -0.78125,-0.75 -1.078125,-0.75 -1.03125,0 -1.609375,1.28125 -1.609375,1.53125 0,0.109375 0.109375,0.109375 0.125,0.109375 0.078125,0 0.109375,-0.03125 0.125,-0.109375 0.34375,-1.0625 1,-1.3125 1.34375,-1.3125 0.1875,0 0.53125,0.09375 0.53125,0.671875 0,0.3125 -0.171875,0.96875 -0.53125,2.375 -0.15625,0.609375 -0.515625,1.03125 -0.953125,1.03125 -0.0625,0 -0.28125,0 -0.5,-0.125 0.25,-0.0625 0.46875,-0.265625 0.46875,-0.546875 0,-0.265625 -0.21875,-0.34375 -0.359375,-0.34375 -0.3125,0 -0.546875,0.25 -0.546875,0.578125 0,0.453125 0.484375,0.65625 0.921875,0.65625 0.671875,0 1.03125,-0.703125 1.046875,-0.75 0.125,0.359375 0.484375,0.75 1.078125,0.75 1.03125,0 1.59375,-1.28125 1.59375,-1.53125 0,-0.109375 -0.078125,-0.109375 -0.109375,-0.109375 -0.09375,0 -0.109375,0.046875 -0.140625,0.109375 -0.328125,1.078125 -1,1.3125 -1.3125,1.3125 -0.390625,0 -0.546875,-0.3125 -0.546875,-0.65625 0,-0.21875 0.046875,-0.4375 0.15625,-0.875 z m 0,0"
             style="stroke:none" />
        </symbol>
        <symbol
           id="symbol2254"
           overflow="visible">
          <path
             id="path2252"
             d=""
             style="stroke:none" />
        </symbol>
        <symbol
           id="symbol2258"
           overflow="visible">
          <path
             id="path2256"
             d="m 3.296875,2.390625 c 0,-0.03125 0,-0.046875 -0.171875,-0.21875 C 1.890625,0.921875 1.5625,-0.96875 1.5625,-2.5 c 0,-1.734375 0.375,-3.46875 1.609375,-4.703125 0.125,-0.125 0.125,-0.140625 0.125,-0.171875 0,-0.078125 -0.03125,-0.109375 -0.09375,-0.109375 -0.109375,0 -1,0.6875 -1.59375,1.953125 -0.5,1.09375 -0.625,2.203125 -0.625,3.03125 0,0.78125 0.109375,1.984375 0.65625,3.125 C 2.25,1.84375 3.09375,2.5 3.203125,2.5 c 0.0625,0 0.09375,-0.03125 0.09375,-0.109375 z m 0,0"
             style="stroke:none" />
        </symbol>
        <symbol
           id="symbol2262"
           overflow="visible">
          <path
             id="path2260"
             d="m 2.875,-2.5 c 0,-0.765625 -0.109375,-1.96875 -0.65625,-3.109375 -0.59375,-1.21875 -1.453125,-1.875 -1.546875,-1.875 -0.0625,0 -0.109375,0.046875 -0.109375,0.109375 0,0.03125 0,0.046875 0.1875,0.234375 0.984375,0.984375 1.546875,2.5625 1.546875,4.640625 0,1.71875 -0.359375,3.46875 -1.59375,4.71875 C 0.5625,2.34375 0.5625,2.359375 0.5625,2.390625 0.5625,2.453125 0.609375,2.5 0.671875,2.5 0.765625,2.5 1.671875,1.8125 2.25,0.546875 2.765625,-0.546875 2.875,-1.65625 2.875,-2.5 Z m 0,0"
             style="stroke:none" />
        </symbol>
        <symbol
           id="symbol2266"
           overflow="visible">
          <path
             id="path2264"
             d="m 6.84375,-3.265625 c 0.15625,0 0.34375,0 0.34375,-0.1875 C 7.1875,-3.65625 7,-3.65625 6.859375,-3.65625 h -5.96875 c -0.140625,0 -0.328125,0 -0.328125,0.203125 0,0.1875 0.1875,0.1875 0.328125,0.1875 z m 0.015625,1.9375 c 0.140625,0 0.328125,0 0.328125,-0.203125 0,-0.1875 -0.1875,-0.1875 -0.34375,-0.1875 H 0.890625 c -0.140625,0 -0.328125,0 -0.328125,0.1875 0,0.203125 0.1875,0.203125 0.328125,0.203125 z m 0,0"
             style="stroke:none" />
        </symbol>
        <symbol
           id="symbol2270"
           overflow="visible">
          <path
             id="path2268"
             d=""
             style="stroke:none" />
        </symbol>
        <symbol
           id="symbol2274"
           overflow="visible">
          <path
             id="path2272"
             d="m 2.328125,-4.4375 c 0,-0.1875 0,-0.1875 -0.203125,-0.1875 -0.453125,0.4375 -1.078125,0.4375 -1.359375,0.4375 v 0.25 c 0.15625,0 0.625,0 1,-0.1875 v 3.546875 c 0,0.234375 0,0.328125 -0.6875,0.328125 H 0.8125 V 0 c 0.125,0 0.984375,-0.03125 1.234375,-0.03125 0.21875,0 1.09375,0.03125 1.25,0.03125 V -0.25 H 3.03125 c -0.703125,0 -0.703125,-0.09375 -0.703125,-0.328125 z m 0,0"
             style="stroke:none" />
        </symbol>
        <symbol
           id="symbol2278"
           overflow="visible">
          <path
             id="path2276"
             d="m 3.21875,-1.578125 h 2.140625 c 0.09375,0 0.25,0 0.25,-0.15625 0,-0.1875 -0.15625,-0.1875 -0.25,-0.1875 H 3.21875 V -4.0625 c 0,-0.078125 0,-0.25 -0.15625,-0.25 -0.171875,0 -0.171875,0.15625 -0.171875,0.25 v 2.140625 H 0.75 c -0.09375,0 -0.265625,0 -0.265625,0.171875 0,0.171875 0.15625,0.171875 0.265625,0.171875 H 2.890625 V 0.5625 c 0,0.09375 0,0.265625 0.15625,0.265625 0.171875,0 0.171875,-0.171875 0.171875,-0.265625 z m 0,0"
             style="stroke:none" />
        </symbol>
        <symbol
           id="symbol2282"
           overflow="visible">
          <path
             id="path2280"
             d=""
             style="stroke:none" />
        </symbol>
        <symbol
           id="symbol2286"
           overflow="visible">
          <path
             id="path2284"
             d="m 1.5625,-1.59375 c 0.1875,0 0.75,-0.015625 1.125,-0.140625 0.515625,-0.1875 0.609375,-0.515625 0.609375,-0.71875 0,-0.390625 -0.390625,-0.625 -0.859375,-0.625 -0.84375,0 -1.96875,0.640625 -1.96875,1.84375 0,0.703125 0.4375,1.296875 1.25,1.296875 1.1875,0 1.734375,-0.6875 1.734375,-0.78125 0,-0.046875 -0.0625,-0.125 -0.125,-0.125 -0.03125,0 -0.046875,0.015625 -0.109375,0.078125 C 2.671875,-0.125 1.859375,-0.125 1.734375,-0.125 1.3125,-0.125 1.03125,-0.40625 1.03125,-0.96875 c 0,-0.09375 0,-0.234375 0.09375,-0.625 z M 1.171875,-1.78125 C 1.46875,-2.796875 2.234375,-2.875 2.4375,-2.875 2.734375,-2.875 3,-2.71875 3,-2.453125 3,-1.78125 1.8125,-1.78125 1.515625,-1.78125 Z m 0,0"
             style="stroke:none" />
        </symbol>
        <symbol
           id="symbol2290"
           overflow="visible">
          <path
             id="path2288"
             d=""
             style="stroke:none" />
        </symbol>
        <symbol
           id="symbol2294"
           overflow="visible">
          <path
             id="path2292"
             d="m 4.390625,-1.109375 c 0.078125,0 0.203125,0 0.203125,-0.140625 0,-0.140625 -0.125,-0.140625 -0.203125,-0.140625 h -3.375 c -0.078125,0 -0.21875,0 -0.21875,0.140625 0,0.140625 0.140625,0.140625 0.21875,0.140625 z m 0,0"
             style="stroke:none" />
        </symbol>
        <symbol
           id="symbol2298"
           overflow="visible">
          <path
             id="path2296"
             d=""
             style="stroke:none" />
        </symbol>
        <symbol
           id="symbol2302"
           overflow="visible">
          <path
             id="path2300"
             d="m 3.09375,-1.953125 c -0.234375,0.0625 -0.234375,0.28125 -0.234375,0.296875 0,0.078125 0.0625,0.203125 0.234375,0.203125 0.140625,0 0.3125,-0.125 0.3125,-0.34375 0,-0.296875 -0.328125,-0.40625 -0.59375,-0.40625 -0.328125,0 -0.546875,0.203125 -0.640625,0.34375 -0.15625,-0.28125 -0.484375,-0.34375 -0.65625,-0.34375 -0.625,0 -0.984375,0.59375 -0.984375,0.765625 0,0.078125 0.078125,0.078125 0.109375,0.078125 0.046875,0 0.078125,0 0.109375,-0.0625 0.140625,-0.484375 0.546875,-0.609375 0.734375,-0.609375 0.171875,0 0.359375,0.0625 0.359375,0.328125 0,0.125 -0.09375,0.46875 -0.265625,1.140625 -0.0625,0.28125 -0.296875,0.453125 -0.515625,0.453125 -0.03125,0 -0.171875,0 -0.296875,-0.078125 0.21875,-0.09375 0.21875,-0.28125 0.21875,-0.296875 0,-0.140625 -0.109375,-0.203125 -0.21875,-0.203125 -0.125,0 -0.296875,0.09375 -0.296875,0.328125 0,0.3125 0.328125,0.421875 0.59375,0.421875 0.265625,0 0.5,-0.171875 0.609375,-0.34375 C 1.875,0.015625 2.1875,0.0625 2.34375,0.0625 c 0.625,0 0.984375,-0.59375 0.984375,-0.78125 0,-0.0625 -0.078125,-0.0625 -0.109375,-0.0625 -0.078125,0 -0.09375,0.03125 -0.109375,0.0625 C 2.96875,-0.265625 2.59375,-0.109375 2.375,-0.109375 c -0.15625,0 -0.359375,-0.0625 -0.359375,-0.34375 0,-0.0625 0,-0.09375 0.03125,-0.265625 0.09375,-0.34375 0.21875,-0.890625 0.265625,-0.984375 0.0625,-0.125 0.234375,-0.328125 0.484375,-0.328125 0.015625,0 0.1875,0 0.296875,0.078125 z m 0,0"
             style="stroke:none" />
        </symbol>
      </g>
    </defs>
    <g
       transform="translate(-149.087,-126.217)"
       id="id-879bfb27-f179-4c82-a302-e57c8eedb23a">
      <g
         id="id-268493fc-9595-4e0e-af04-fd21759ca827"
         style="fill:#000000;fill-opacity:1">
        <g
           transform="translate(148.712,134.765)"
           id="g30521">
          <path
             id="id-da91f7eb-ec89-482e-be5d-9c89d9ab7e74"
             d="m 5.15625,-3.71875 c 0.140625,0 0.5,0 0.5,-0.34375 0,-0.234375 -0.21875,-0.234375 -0.390625,-0.234375 h -2.28125 c -1.5,0 -2.609375,1.640625 -2.609375,2.828125 0,0.875 0.59375,1.578125 1.5,1.578125 1.171875,0 2.5,-1.203125 2.5,-2.734375 0,-0.171875 0,-0.65625 -0.3125,-1.09375 z M 1.890625,-0.109375 C 1.390625,-0.109375 1,-0.46875 1,-1.1875 c 0,-0.296875 0.109375,-1.109375 0.46875,-1.703125 0.421875,-0.6875 1.015625,-0.828125 1.359375,-0.828125 0.828125,0 0.90625,0.65625 0.90625,0.96875 0,0.46875 -0.203125,1.28125 -0.53125,1.796875 -0.390625,0.578125 -0.9375,0.84375 -1.3125,0.84375 z m 0,0"
             style="stroke:none" />
        </g>
      </g>
      <g
         id="id-dd8be03b-e1c9-46b4-b353-c93c712f275d"
         style="fill:#000000;fill-opacity:1">
        <g
           transform="translate(154.763,134.765)"
           id="g30525">
          <path
             id="id-87f4533b-ad1e-4853-b97a-6b8f09a682a7"
             d="m 3.296875,2.390625 c 0,-0.03125 0,-0.046875 -0.171875,-0.21875 C 1.890625,0.921875 1.5625,-0.96875 1.5625,-2.5 c 0,-1.734375 0.375,-3.46875 1.609375,-4.703125 0.125,-0.125 0.125,-0.140625 0.125,-0.171875 0,-0.078125 -0.03125,-0.109375 -0.09375,-0.109375 -0.109375,0 -1,0.6875 -1.59375,1.953125 -0.5,1.09375 -0.625,2.203125 -0.625,3.03125 0,0.78125 0.109375,1.984375 0.65625,3.125 C 2.25,1.84375 3.09375,2.5 3.203125,2.5 c 0.0625,0 0.09375,-0.03125 0.09375,-0.109375 z m 0,0"
             style="stroke:none" />
        </g>
      </g>
      <g
         id="id-acd3b33e-b3b4-41da-aa50-e0ec744fd200"
         style="fill:#000000;fill-opacity:1">
        <g
           transform="translate(158.637,134.765)"
           id="g30529">
          <path
             id="id-4a0a97d8-1108-4269-bced-5c0787a8256d"
             d="M 3.328125,-3.015625 C 3.390625,-3.265625 3.625,-4.1875 4.3125,-4.1875 c 0.046875,0 0.296875,0 0.5,0.125 C 4.53125,-4 4.34375,-3.765625 4.34375,-3.515625 c 0,0.15625 0.109375,0.34375 0.375,0.34375 0.21875,0 0.53125,-0.171875 0.53125,-0.578125 0,-0.515625 -0.578125,-0.65625 -0.921875,-0.65625 -0.578125,0 -0.921875,0.53125 -1.046875,0.75 -0.25,-0.65625 -0.78125,-0.75 -1.078125,-0.75 -1.03125,0 -1.609375,1.28125 -1.609375,1.53125 0,0.109375 0.109375,0.109375 0.125,0.109375 0.078125,0 0.109375,-0.03125 0.125,-0.109375 0.34375,-1.0625 1,-1.3125 1.34375,-1.3125 0.1875,0 0.53125,0.09375 0.53125,0.671875 0,0.3125 -0.171875,0.96875 -0.53125,2.375 -0.15625,0.609375 -0.515625,1.03125 -0.953125,1.03125 -0.0625,0 -0.28125,0 -0.5,-0.125 0.25,-0.0625 0.46875,-0.265625 0.46875,-0.546875 0,-0.265625 -0.21875,-0.34375 -0.359375,-0.34375 -0.3125,0 -0.546875,0.25 -0.546875,0.578125 0,0.453125 0.484375,0.65625 0.921875,0.65625 0.671875,0 1.03125,-0.703125 1.046875,-0.75 0.125,0.359375 0.484375,0.75 1.078125,0.75 1.03125,0 1.59375,-1.28125 1.59375,-1.53125 0,-0.109375 -0.078125,-0.109375 -0.109375,-0.109375 -0.09375,0 -0.109375,0.046875 -0.140625,0.109375 -0.328125,1.078125 -1,1.3125 -1.3125,1.3125 -0.390625,0 -0.546875,-0.3125 -0.546875,-0.65625 0,-0.21875 0.046875,-0.4375 0.15625,-0.875 z m 0,0"
             style="stroke:none" />
        </g>
      </g>
      <g
         id="id-8c5511ef-4741-4eac-986e-205d75deef3f"
         style="fill:#000000;fill-opacity:1">
        <g
           transform="translate(164.331,134.765)"
           id="g30533">
          <path
             id="id-ace1672e-1dc0-44c2-8af4-86c2eb186457"
             d="m 2.875,-2.5 c 0,-0.765625 -0.109375,-1.96875 -0.65625,-3.109375 -0.59375,-1.21875 -1.453125,-1.875 -1.546875,-1.875 -0.0625,0 -0.109375,0.046875 -0.109375,0.109375 0,0.03125 0,0.046875 0.1875,0.234375 0.984375,0.984375 1.546875,2.5625 1.546875,4.640625 0,1.71875 -0.359375,3.46875 -1.59375,4.71875 C 0.5625,2.34375 0.5625,2.359375 0.5625,2.390625 0.5625,2.453125 0.609375,2.5 0.671875,2.5 0.765625,2.5 1.671875,1.8125 2.25,0.546875 2.765625,-0.546875 2.875,-1.65625 2.875,-2.5 Z m 0,0"
             style="stroke:none" />
        </g>
      </g>
      <g
         id="id-84f06c89-1438-47ec-9bc5-8c648041b642"
         style="fill:#000000;fill-opacity:1">
        <g
           transform="translate(170.975,134.765)"
           id="g30537">
          <path
             id="id-8f027ae4-19f8-4b50-8248-88046a851777"
             d="m 6.84375,-3.265625 c 0.15625,0 0.34375,0 0.34375,-0.1875 C 7.1875,-3.65625 7,-3.65625 6.859375,-3.65625 h -5.96875 c -0.140625,0 -0.328125,0 -0.328125,0.203125 0,0.1875 0.1875,0.1875 0.328125,0.1875 z m 0.015625,1.9375 c 0.140625,0 0.328125,0 0.328125,-0.203125 0,-0.1875 -0.1875,-0.1875 -0.34375,-0.1875 H 0.890625 c -0.140625,0 -0.328125,0 -0.328125,0.1875 0,0.203125 0.1875,0.203125 0.328125,0.203125 z m 0,0"
             style="stroke:none" />
        </g>
      </g>
      <g
         id="id-db0ac7d1-8de2-4b47-8cbf-eeff3b764862"
         style="fill:#000000;fill-opacity:1">
        <g
           transform="translate(192.551,130.842)"
           id="g30541">
          <path
             id="id-c8952b41-147f-4890-a903-5aa2ce4174e2"
             d="m 2.328125,-4.4375 c 0,-0.1875 0,-0.1875 -0.203125,-0.1875 -0.453125,0.4375 -1.078125,0.4375 -1.359375,0.4375 v 0.25 c 0.15625,0 0.625,0 1,-0.1875 v 3.546875 c 0,0.234375 0,0.328125 -0.6875,0.328125 H 0.8125 V 0 c 0.125,0 0.984375,-0.03125 1.234375,-0.03125 0.21875,0 1.09375,0.03125 1.25,0.03125 V -0.25 H 3.03125 c -0.703125,0 -0.703125,-0.09375 -0.703125,-0.328125 z m 0,0"
             style="stroke:none" />
        </g>
      </g>
      <path
         id="id-8a3302d7-b7ed-46be-9d48-91b7cc71321f"
         transform="matrix(1,0,0,-1,182.684,132.274)"
         d="M -4.0625e-4,5.625e-4 H 23.706625"
         style="fill:none;stroke:#000000;stroke-width:0.398;stroke-linecap:butt;stroke-linejoin:miter;stroke-miterlimit:10;stroke-opacity:1" />
      <g
         id="id-71636a87-ac88-4643-b726-7304e51816e0"
         style="fill:#000000;fill-opacity:1">
        <g
           transform="translate(182.684,138.2)"
           id="g30546">
          <path
             id="id-3bfc2cb2-18d5-4679-8397-d8272933aee3"
             d="m 2.328125,-4.4375 c 0,-0.1875 0,-0.1875 -0.203125,-0.1875 -0.453125,0.4375 -1.078125,0.4375 -1.359375,0.4375 v 0.25 c 0.15625,0 0.625,0 1,-0.1875 v 3.546875 c 0,0.234375 0,0.328125 -0.6875,0.328125 H 0.8125 V 0 c 0.125,0 0.984375,-0.03125 1.234375,-0.03125 0.21875,0 1.09375,0.03125 1.25,0.03125 V -0.25 H 3.03125 c -0.703125,0 -0.703125,-0.09375 -0.703125,-0.328125 z m 0,0"
             style="stroke:none" />
        </g>
        <g
           transform="translate(186.656,138.2)"
           id="g30549">
          <path
             id="id-7ca7ecf5-ca61-429e-8836-4166b059435d"
             d="m 3.21875,-1.578125 h 2.140625 c 0.09375,0 0.25,0 0.25,-0.15625 0,-0.1875 -0.15625,-0.1875 -0.25,-0.1875 H 3.21875 V -4.0625 c 0,-0.078125 0,-0.25 -0.15625,-0.25 -0.171875,0 -0.171875,0.15625 -0.171875,0.25 v 2.140625 H 0.75 c -0.09375,0 -0.265625,0 -0.265625,0.171875 0,0.171875 0.15625,0.171875 0.265625,0.171875 H 2.890625 V 0.5625 c 0,0.09375 0,0.265625 0.15625,0.265625 0.171875,0 0.171875,-0.171875 0.171875,-0.265625 z m 0,0"
             style="stroke:none" />
        </g>
      </g>
      <g
         id="id-26e820bc-f6b6-47ce-a0ff-0a27d9323fa9"
         style="fill:#000000;fill-opacity:1">
        <g
           transform="translate(192.771,138.2)"
           id="g30553">
          <path
             id="id-edccc92b-f0c1-483f-89bc-bc4bf5f8db59"
             d="m 1.5625,-1.59375 c 0.1875,0 0.75,-0.015625 1.125,-0.140625 0.515625,-0.1875 0.609375,-0.515625 0.609375,-0.71875 0,-0.390625 -0.390625,-0.625 -0.859375,-0.625 -0.84375,0 -1.96875,0.640625 -1.96875,1.84375 0,0.703125 0.4375,1.296875 1.25,1.296875 1.1875,0 1.734375,-0.6875 1.734375,-0.78125 0,-0.046875 -0.0625,-0.125 -0.125,-0.125 -0.03125,0 -0.046875,0.015625 -0.109375,0.078125 C 2.671875,-0.125 1.859375,-0.125 1.734375,-0.125 1.3125,-0.125 1.03125,-0.40625 1.03125,-0.96875 c 0,-0.09375 0,-0.234375 0.09375,-0.625 z M 1.171875,-1.78125 C 1.46875,-2.796875 2.234375,-2.875 2.4375,-2.875 2.734375,-2.875 3,-2.71875 3,-2.453125 3,-1.78125 1.8125,-1.78125 1.515625,-1.78125 Z m 0,0"
             style="stroke:none" />
        </g>
      </g>
      <g
         id="id-7f7408c5-fca0-4a65-b8f1-2adc2885a086"
         style="fill:#000000;fill-opacity:1">
        <g
           transform="translate(196.551,136.208)"
           id="g30557">
          <path
             id="id-499f2596-30b3-4c3d-ba96-2533b0505c9b"
             d="m 4.390625,-1.109375 c 0.078125,0 0.203125,0 0.203125,-0.140625 0,-0.140625 -0.125,-0.140625 -0.203125,-0.140625 h -3.375 c -0.078125,0 -0.21875,0 -0.21875,0.140625 0,0.140625 0.140625,0.140625 0.21875,0.140625 z m 0,0"
             style="stroke:none" />
        </g>
      </g>
      <g
         id="id-8ba7a55c-1cab-4e55-950d-4f5efc6d5918"
         style="fill:#000000;fill-opacity:1">
        <g
           transform="translate(201.948,136.208)"
           id="g30561">
          <path
             id="id-8e41ee37-3f90-4fcd-9903-f4aaaebc7f55"
             d="m 3.09375,-1.953125 c -0.234375,0.0625 -0.234375,0.28125 -0.234375,0.296875 0,0.078125 0.0625,0.203125 0.234375,0.203125 0.140625,0 0.3125,-0.125 0.3125,-0.34375 0,-0.296875 -0.328125,-0.40625 -0.59375,-0.40625 -0.328125,0 -0.546875,0.203125 -0.640625,0.34375 -0.15625,-0.28125 -0.484375,-0.34375 -0.65625,-0.34375 -0.625,0 -0.984375,0.59375 -0.984375,0.765625 0,0.078125 0.078125,0.078125 0.109375,0.078125 0.046875,0 0.078125,0 0.109375,-0.0625 0.140625,-0.484375 0.546875,-0.609375 0.734375,-0.609375 0.171875,0 0.359375,0.0625 0.359375,0.328125 0,0.125 -0.09375,0.46875 -0.265625,1.140625 -0.0625,0.28125 -0.296875,0.453125 -0.515625,0.453125 -0.03125,0 -0.171875,0 -0.296875,-0.078125 0.21875,-0.09375 0.21875,-0.28125 0.21875,-0.296875 0,-0.140625 -0.109375,-0.203125 -0.21875,-0.203125 -0.125,0 -0.296875,0.09375 -0.296875,0.328125 0,0.3125 0.328125,0.421875 0.59375,0.421875 0.265625,0 0.5,-0.171875 0.609375,-0.34375 C 1.875,0.015625 2.1875,0.0625 2.34375,0.0625 c 0.625,0 0.984375,-0.59375 0.984375,-0.78125 0,-0.0625 -0.078125,-0.0625 -0.109375,-0.0625 -0.078125,0 -0.09375,0.03125 -0.109375,0.0625 C 2.96875,-0.265625 2.59375,-0.109375 2.375,-0.109375 c -0.15625,0 -0.359375,-0.0625 -0.359375,-0.34375 0,-0.0625 0,-0.09375 0.03125,-0.265625 0.09375,-0.34375 0.21875,-0.890625 0.265625,-0.984375 0.0625,-0.125 0.234375,-0.328125 0.484375,-0.328125 0.015625,0 0.1875,0 0.296875,0.078125 z m 0,0"
             style="stroke:none" />
        </g>
      </g>
    </g>
  </g>
  <g
     transform="matrix(0.54681552,0,0,0.54681552,327.45203,-25.581942)"
     style="font-size:20px;line-height:1.25;font-family:sans-serif;-inkscape-font-specification:sans-serif;stroke-width:0.75;stroke-linecap:butt;stroke-linejoin:round"
     id="text2344"
     aria-label="Sigmoid">
    <path
       id="path2346"
       style="stroke-width:0.75;stroke-linecap:butt;stroke-linejoin:round"
       d="m -91.904282,79.254143 v 1.923828 q -1.123046,-0.537109 -2.11914,-0.800781 -0.996094,-0.263672 -1.923828,-0.263672 -1.611328,0 -2.490235,0.625 -0.86914,0.625 -0.86914,1.777344 0,0.966796 0.576172,1.464843 0.585937,0.488282 2.207031,0.791016 l 1.191406,0.244141 q 2.207031,0.419921 3.251953,1.484375 1.054688,1.054687 1.054688,2.832031 0,2.11914 -1.425782,3.21289 -1.416015,1.09375 -4.160156,1.09375 -1.035156,0 -2.207031,-0.234375 -1.162109,-0.234375 -2.412106,-0.693359 v -2.03125 q 1.20117,0.673828 2.353512,1.015625 1.152344,0.341797 2.265625,0.341797 1.689453,0 2.607422,-0.664063 0.917969,-0.664062 0.917969,-1.894531 0,-1.074219 -0.664063,-1.679687 -0.654297,-0.605469 -2.158203,-0.908203 l -1.201172,-0.234375 q -2.207031,-0.439454 -3.19336,-1.376954 -0.98633,-0.9375 -0.98633,-2.607421 0,-1.933594 1.357425,-3.046875 1.367187,-1.113282 3.759765,-1.113282 1.025391,0 2.089844,0.185547 1.064453,0.185547 2.177734,0.556641 z" />
    <path
       id="path2348"
       style="stroke-width:0.75;stroke-linecap:butt;stroke-linejoin:round"
       d="m -88.027328,82.418205 h 1.796875 v 10.9375 h -1.796875 z m 0,-4.257812 h 1.796875 v 2.27539 h -1.796875 z" />
    <path
       id="path2350"
       style="stroke-width:0.75;stroke-linecap:butt;stroke-linejoin:round"
       d="m -75.283188,87.760002 q 0,-1.953125 -0.810547,-3.027344 -0.800781,-1.074218 -2.255859,-1.074218 -1.445313,0 -2.255859,1.074218 -0.800782,1.074219 -0.800782,3.027344 0,1.94336 0.800782,3.017578 0.810546,1.074219 2.255859,1.074219 1.455078,0 2.255859,-1.074219 0.810547,-1.074218 0.810547,-3.017578 z m 1.796875,4.238281 q 0,2.792969 -1.240234,4.150391 -1.240235,1.367188 -3.798828,1.367188 -0.947266,0 -1.78711,-0.146485 -0.839843,-0.136719 -1.630859,-0.429687 v -1.748047 q 0.791016,0.429687 1.5625,0.634765 0.771484,0.205079 1.572266,0.205079 1.767578,0 2.646484,-0.927735 0.878906,-0.917969 0.878906,-2.783203 v -0.888672 q -0.55664,0.966797 -1.425781,1.445313 -0.869141,0.478515 -2.080078,0.478515 -2.011719,0 -3.242188,-1.533203 -1.230468,-1.533203 -1.230468,-4.0625 0,-2.539062 1.230468,-4.072265 1.230469,-1.533204 3.242188,-1.533204 1.210937,0 2.080078,0.478516 0.869141,0.478516 1.425781,1.445313 v -1.660157 h 1.796875 z" />
    <path
       id="path2352"
       style="stroke-width:0.75;stroke-linecap:butt;stroke-linejoin:round"
       d="m -61.269516,84.517815 q 0.673828,-1.210938 1.611328,-1.78711 0.9375,-0.576172 2.207031,-0.576172 1.708985,0 2.636719,1.201172 0.927735,1.191407 0.927735,3.398438 v 6.601562 h -1.806641 v -6.542968 q 0,-1.572266 -0.556641,-2.333985 -0.55664,-0.761719 -1.699218,-0.761719 -1.396485,0 -2.207032,0.927735 -0.810547,0.927734 -0.810547,2.529297 v 6.18164 h -1.80664 v -6.542968 q 0,-1.582032 -0.556641,-2.333985 -0.55664,-0.761719 -1.71875,-0.761719 -1.376953,0 -2.1875,0.9375 -0.810547,0.927735 -0.810547,2.519532 v 6.18164 h -1.80664 v -10.9375 h 1.80664 v 1.699219 q 0.615235,-1.005859 1.47461,-1.484375 0.859375,-0.478516 2.041015,-0.478516 1.191407,0 2.021485,0.605469 0.839843,0.605469 1.240234,1.757813 z" />
    <path
       id="path2354"
       style="stroke-width:0.75;stroke-linecap:butt;stroke-linejoin:round"
       d="m -46.054672,83.677971 q -1.445313,0 -2.285156,1.132812 -0.839844,1.123047 -0.839844,3.085938 0,1.962891 0.830078,3.095703 0.839844,1.123047 2.294922,1.123047 1.435547,0 2.27539,-1.132813 0.839844,-1.132812 0.839844,-3.085937 0,-1.943359 -0.839844,-3.076172 -0.839843,-1.142578 -2.27539,-1.142578 z m 0,-1.523438 q 2.34375,0 3.68164,1.523438 1.337891,1.523437 1.337891,4.21875 0,2.685547 -1.337891,4.21875 -1.33789,1.523437 -3.68164,1.523437 -2.353516,0 -3.691406,-1.523437 -1.328125,-1.533203 -1.328125,-4.21875 0,-2.695313 1.328125,-4.21875 1.33789,-1.523438 3.691406,-1.523438 z" />
    <path
       id="path2356"
       style="stroke-width:0.75;stroke-linecap:butt;stroke-linejoin:round"
       d="m -38.066391,82.418205 h 1.796875 v 10.9375 h -1.796875 z m 0,-4.257812 h 1.796875 v 2.27539 h -1.796875 z" />
    <path
       id="path2358"
       style="stroke-width:0.75;stroke-linecap:butt;stroke-linejoin:round"
       d="m -25.32225,84.078362 v -5.917969 h 1.796875 V 93.355705 H -25.32225 V 91.71508 q -0.566407,0.976563 -1.435547,1.455078 -0.859375,0.46875 -2.070313,0.46875 -1.982422,0 -3.232422,-1.582031 -1.240234,-1.582031 -1.240234,-4.160156 0,-2.578125 1.240234,-4.160156 1.25,-1.582032 3.232422,-1.582032 1.210938,0 2.070313,0.478516 0.86914,0.46875 1.435547,1.445313 z m -6.123047,3.818359 q 0,1.982422 0.810547,3.115234 0.820312,1.123047 2.246093,1.123047 1.425782,0 2.246094,-1.123047 0.820313,-1.132812 0.820313,-3.115234 0,-1.982422 -0.820313,-3.105469 -0.820312,-1.132812 -2.246094,-1.132812 -1.425781,0 -2.246093,1.132812 -0.810547,1.123047 -0.810547,3.105469 z" />
  </g>
  <g
     transform="matrix(0.67749924,0,0,0.67749924,159.64499,10.000045)"
     style="font-size:17.5945px;line-height:1.25;font-family:sans-serif;-inkscape-font-specification:sans-serif;stroke-width:0.659793;stroke-linecap:butt;stroke-linejoin:round"
     id="text2381"
     aria-label="ReLu">
    <path
       id="path2399"
       style="stroke-width:0.659793;stroke-linecap:butt;stroke-linejoin:round"
       d="m -139.39545,14.133882 q 0.55842,0.189003 1.08247,0.80756 0.53265,0.618557 1.0653,1.701031 l 1.76116,3.505154 h -1.86426 l -1.64089,-3.290378 q -0.63574,-1.288659 -1.23711,-1.709622 -0.59279,-0.420962 -1.62371,-0.420962 h -1.89004 v 5.420962 h -1.73539 V 7.3211679 h 3.91752 q 2.19931,0 3.28179,0.9192439 1.08247,0.9192439 1.08247,2.7749142 0,1.21134 -0.56701,2.010309 -0.55842,0.798969 -1.6323,1.108247 z m -4.34708,-5.3865974 v 4.5532644 h 2.18213 q 1.2543,0 1.89004,-0.575602 0.64433,-0.584192 0.64433,-1.709621 0,-1.1254298 -0.64433,-1.6924401 -0.63574,-0.5756013 -1.89004,-0.5756013 z" />
    <path
       id="path2401"
       style="stroke-width:0.659793;stroke-linecap:butt;stroke-linejoin:round"
       d="m -125.87311,14.941442 v 0.773196 h -7.26805 q 0.1031,1.632302 0.97939,2.491408 0.88488,0.850516 2.45704,0.850516 0.91065,0 1.76117,-0.223368 0.85911,-0.223368 1.70103,-0.670103 v 1.494845 q -0.85052,0.360825 -1.74399,0.549828 -0.89347,0.189004 -1.81271,0.189004 -2.30241,0 -3.6512,-1.340206 -1.34021,-1.340206 -1.34021,-3.625429 0,-2.362543 1.27148,-3.745704 1.28007,-1.391753 3.44501,-1.391753 1.94159,0 3.06701,1.254296 1.13403,1.245704 1.13403,3.39347 z m -1.58076,-0.463918 q -0.0172,-1.29725 -0.73024,-2.070446 -0.70447,-0.773196 -1.87285,-0.773196 -1.32303,0 -2.122,0.747423 -0.79037,0.747422 -0.91065,2.104811 z" />
    <path
       id="path2403"
       style="stroke-width:0.659793;stroke-linecap:butt;stroke-linejoin:round"
       d="m -123.20988,7.3211679 h 1.73539 V 18.687146 h 6.24571 v 1.460481 h -7.9811 z" />
    <path
       id="path2405"
       style="stroke-width:0.659793;stroke-linecap:butt;stroke-linejoin:round"
       d="m -113.95731,16.350376 v -5.824741 h 1.58076 v 5.764604 q 0,1.365979 0.53264,2.053264 0.53265,0.678694 1.59794,0.678694 1.28007,0 2.0189,-0.816151 0.74743,-0.816151 0.74743,-2.225085 v -5.455326 h 1.58075 v 9.621992 h -1.58075 v -1.477663 q -0.57561,0.876288 -1.34021,1.305842 -0.75601,0.420962 -1.76117,0.420962 -1.65807,0 -2.51718,-1.030928 -0.85911,-1.030928 -0.85911,-3.015464 z m 3.97767,-6.0567 z" />
  </g>
  <g
     transform="matrix(0.73678802,0,0,0.73678802,167.06124,14.952156)"
     style="font-size:15.6792px;line-height:1.25;font-family:sans-serif;-inkscape-font-specification:sans-serif;stroke-width:0.587969;stroke-linecap:butt;stroke-linejoin:round"
     id="text2397"
     aria-label="max(0,x)">
    <path
       id="path2408"
       style="stroke-width:0.587969;stroke-linecap:butt;stroke-linejoin:round"
       d="m -152.8604,33.781378 q 0.52826,-0.949327 1.26322,-1.401023 0.73496,-0.451695 1.73023,-0.451695 1.33977,0 2.06708,0.94167 0.7273,0.934015 0.7273,2.664239 v 5.175361 h -1.41633 v -5.129425 q 0,-1.232594 -0.43638,-1.829751 -0.43639,-0.597157 -1.33212,-0.597157 -1.09479,0 -1.73023,0.727307 -0.63543,0.727306 -0.63543,1.982867 v 4.846159 h -1.41634 v -5.129425 q 0,-1.24025 -0.43638,-1.829751 -0.43639,-0.597157 -1.34743,-0.597157 -1.07948,0 -1.71492,0.734963 -0.63543,0.727306 -0.63543,1.975211 v 4.846159 h -1.41634 v -8.574562 h 1.41634 v 1.332119 q 0.48232,-0.788553 1.15603,-1.16369 0.67372,-0.375137 1.60008,-0.375137 0.93401,0 1.58476,0.474663 0.6584,0.474663 0.97229,1.378055 z" />
    <path
       id="path2410"
       style="stroke-width:0.587969;stroke-linecap:butt;stroke-linejoin:round"
       d="m -140.35838,36.399682 q -1.70725,0 -2.36566,0.390448 -0.6584,0.390449 -0.6584,1.33212 0,0.750274 0.48997,1.194314 0.49763,0.436384 1.34744,0.436384 1.17134,0 1.87568,-0.826833 0.712,-0.834489 0.712,-2.212543 v -0.31389 z m 2.8097,-0.581846 v 4.892094 h -1.40867 v -1.301496 q -0.48232,0.780898 -1.20197,1.156035 -0.71966,0.367481 -1.76085,0.367481 -1.31681,0 -2.09771,-0.734962 -0.77324,-0.742619 -0.77324,-1.982868 0,-1.446957 0.96464,-2.18192 0.97229,-0.734962 2.89391,-0.734962 h 1.97522 v -0.137806 q 0,-0.972294 -0.6431,-1.500548 -0.63543,-0.53591 -1.79147,-0.53591 -0.73496,0 -1.43164,0.176084 -0.69669,0.176085 -1.33978,0.528255 v -1.301496 q 0.77324,-0.298579 1.50055,-0.44404 0.72731,-0.153117 1.41633,-0.153117 1.86038,0 2.77908,0.964638 0.9187,0.964638 0.9187,2.924538 z" />
    <path
       id="path2412"
       style="stroke-width:0.587969;stroke-linecap:butt;stroke-linejoin:round"
       d="m -127.51185,32.135368 -3.10062,4.172443 3.2614,4.402119 h -1.66132 l -2.49581,-3.368578 -2.49581,3.368578 h -1.66133 l 3.3303,-4.486333 -3.04703,-4.088229 h 1.66132 l 2.27379,3.054688 2.27379,-3.054688 z" />
    <path
       id="path2414"
       style="stroke-width:0.587969;stroke-linecap:butt;stroke-linejoin:round"
       d="m -121.97666,28.812725 q -1.02588,1.760847 -1.52351,3.483416 -0.49763,1.722568 -0.49763,3.491072 0,1.768503 0.49763,3.506383 0.50528,1.730225 1.52351,3.483416 h -1.22493 q -1.14838,-1.799126 -1.72257,-3.537007 -0.56654,-1.73788 -0.56654,-3.452792 0,-1.707257 0.56654,-3.437481 0.56653,-1.730224 1.72257,-3.537007 z" />
    <path
       id="path2416"
       style="stroke-width:0.587969;stroke-linecap:butt;stroke-linejoin:round"
       d="m -115.72948,30.297962 q -1.19431,0 -1.79912,1.179002 -0.59716,1.171346 -0.59716,3.529351 0,2.350349 0.59716,3.529351 0.60481,1.171347 1.79912,1.171347 1.20197,0 1.79913,-1.171347 0.60481,-1.179002 0.60481,-3.529351 0,-2.358005 -0.60481,-3.529351 -0.59716,-1.179002 -1.79913,-1.179002 z m 0,-1.224938 q 1.92163,0 2.9322,1.523516 1.01823,1.51586 1.01823,4.409775 0,2.886259 -1.01823,4.409775 -1.01057,1.51586 -2.9322,1.51586 -1.92162,0 -2.93985,-1.51586 -1.01057,-1.523516 -1.01057,-4.409775 0,-2.893915 1.01057,-4.409775 1.01823,-1.523516 2.93985,-1.523516 z" />
    <path
       id="path2418"
       style="stroke-width:0.587969;stroke-linecap:butt;stroke-linejoin:round"
       d="m -108.89279,38.765342 h 1.61538 v 1.316808 l -1.25556,2.449875 h -0.9876 l 0.62778,-2.449875 z" />
    <path
       id="path2420"
       style="stroke-width:0.587969;stroke-linecap:butt;stroke-linejoin:round"
       d="m -97.133393,32.135368 -3.100627,4.172443 3.2614,4.402119 h -1.661321 l -2.495809,-3.368578 -2.49581,3.368578 h -1.66132 l 3.3303,-4.486333 -3.04704,-4.088229 h 1.66133 l 2.27379,3.054688 2.273786,-3.054688 z" />
    <path
       id="path2422"
       style="stroke-width:0.587969;stroke-linecap:butt;stroke-linejoin:round"
       d="m -95.204118,28.812725 h 1.224938 q 1.148379,1.806783 1.714912,3.537007 0.57419,1.730224 0.57419,3.437481 0,1.714912 -0.57419,3.452792 -0.566533,1.737881 -1.714912,3.537007 h -1.224938 q 1.01823,-1.753191 1.51586,-3.483416 0.505287,-1.73788 0.505287,-3.506383 0,-1.768504 -0.505287,-3.491072 -0.49763,-1.722569 -1.51586,-3.483416 z" />
  </g>
  <g
     transform="matrix(0.79702554,0,0,0.79702554,35.889455,32.080162)"
     style="font-size:14.9387px;line-height:1.25;font-family:sans-serif;-inkscape-font-specification:sans-serif;stroke-width:0.560202;stroke-linecap:butt;stroke-linejoin:round"
     id="text2427"
     aria-label="Tanh">
    <path
       id="path2448"
       style="stroke-width:0.560202;stroke-linecap:butt;stroke-linejoin:round"
       d="m 160.04803,152.72906 h 9.21269 v 1.24003 h -3.86598 v 9.65034 H 163.914 v -9.65034 h -3.86597 z" />
    <path
       id="path2450"
       style="stroke-width:0.560202;stroke-linecap:butt;stroke-linejoin:round"
       d="m 171.86478,159.51275 q -1.62663,0 -2.25394,0.37201 -0.62731,0.372 -0.62731,1.2692 0,0.71484 0.46684,1.13791 0.47413,0.41577 1.28379,0.41577 1.11603,0 1.7871,-0.78778 0.67837,-0.79508 0.67837,-2.10805 v -0.29906 z m 2.677,-0.55437 v 4.66105 h -1.34215 v -1.24003 q -0.45954,0.74402 -1.1452,1.10144 -0.68567,0.35012 -1.67769,0.35012 -1.25462,0 -1.99863,-0.70025 -0.73673,-0.70754 -0.73673,-1.88922 0,-1.37862 0.91908,-2.07887 0.92638,-0.70025 2.75724,-0.70025 h 1.88193 v -0.1313 q 0,-0.92637 -0.61272,-1.42968 -0.60543,-0.5106 -1.70686,-0.5106 -0.70025,0 -1.36403,0.16777 -0.66378,0.16777 -1.2765,0.50331 v -1.24003 q 0.73672,-0.28448 1.42968,-0.42307 0.69295,-0.14589 1.34944,-0.14589 1.77251,0 2.64782,0.91908 0.87532,0.91908 0.87532,2.78642 z" />
    <path
       id="path2452"
       style="stroke-width:0.560202;stroke-linecap:butt;stroke-linejoin:round"
       d="m 184.10459,158.68849 v 4.93094 h -1.34215 v -4.88717 q 0,-1.15979 -0.45224,-1.73604 -0.45225,-0.57625 -1.35674,-0.57625 -1.08685,0 -1.71416,0.69296 -0.62731,0.69295 -0.62731,1.88922 v 4.61728 h -1.34944 v -8.1696 h 1.34944 v 1.26921 q 0.48142,-0.73673 1.13062,-1.10144 0.65648,-0.36472 1.50991,-0.36472 1.4078,0 2.12994,0.87532 0.72213,0.86802 0.72213,2.56029 z" />
    <path
       id="path2454"
       style="stroke-width:0.560202;stroke-linecap:butt;stroke-linejoin:round"
       d="m 193.58716,158.68849 v 4.93094 h -1.34214 v -4.88717 q 0,-1.15979 -0.45225,-1.73604 -0.45225,-0.57625 -1.35674,-0.57625 -1.08685,0 -1.71416,0.69296 -0.6273,0.69295 -0.6273,1.88922 v 4.61728 h -1.34945 v -11.34991 h 1.34945 v 4.44952 q 0.48142,-0.73673 1.13061,-1.10144 0.65649,-0.36472 1.50992,-0.36472 1.4078,0 2.12993,0.87532 0.72213,0.86802 0.72213,2.56029 z" />
  </g>
  <g
     transform="matrix(0.79995559,0,0,0.79995559,41.296433,36.543511)"
     style="font-size:15.1096px;line-height:1.25;font-family:sans-serif;-inkscape-font-specification:sans-serif;stroke-width:0.566611;stroke-linecap:butt;stroke-linejoin:round"
     id="text2431"
     aria-label="tanh(x)">
    <path
       id="path2433"
       style="stroke-width:0.566611;stroke-linecap:butt;stroke-linejoin:round"
       d="m 152.47106,170.45225 v 2.34612 h 2.79616 v 1.05502 h -2.79616 v 4.48566 q 0,1.01075 0.27297,1.29848 0.28036,0.28773 1.1288,0.28773 h 1.39439 v 1.13617 h -1.39439 q -1.57146,0 -2.16906,-0.58284 -0.59759,-0.59022 -0.59759,-2.13954 v -4.48566 h -0.996 v -1.05502 h 0.996 v -2.34612 z" />
    <path
       id="path2435"
       style="stroke-width:0.566611;stroke-linecap:butt;stroke-linejoin:round"
       d="m 160.81527,176.90777 q -1.64523,0 -2.27972,0.37626 -0.63448,0.37627 -0.63448,1.28373 0,0.72302 0.47217,1.15092 0.47956,0.42054 1.29849,0.42054 1.12879,0 1.80754,-0.7968 0.68613,-0.80417 0.68613,-2.13217 v -0.30248 z m 2.70763,-0.56071 v 4.71437 h -1.3575 v -1.25421 q -0.4648,0.75253 -1.1583,1.11403 -0.69351,0.35414 -1.69688,0.35414 -1.26897,0 -2.0215,-0.70827 -0.74515,-0.71564 -0.74515,-1.91083 0,-1.39439 0.92959,-2.10265 0.93697,-0.70827 2.78878,-0.70827 h 1.90346 v -0.1328 q 0,-0.93697 -0.61973,-1.44603 -0.61235,-0.51644 -1.72639,-0.51644 -0.70826,0 -1.37964,0.16968 -0.67137,0.16969 -1.2911,0.50907 v -1.25422 q 0.74515,-0.28773 1.44604,-0.4279 0.70088,-0.14756 1.36488,-0.14756 1.79279,0 2.67812,0.9296 0.88532,0.92959 0.88532,2.81829 z" />
    <path
       id="path2437"
       style="stroke-width:0.566611;stroke-linecap:butt;stroke-linejoin:round"
       d="m 173.19511,176.07408 v 4.98735 h -1.3575 v -4.94308 q 0,-1.17306 -0.45742,-1.7559 -0.45742,-0.58284 -1.37226,-0.58284 -1.09928,0 -1.73377,0.70088 -0.63448,0.70089 -0.63448,1.91084 v 4.6701 h -1.36488 v -8.26306 h 1.36488 v 1.28373 q 0.48693,-0.74516 1.14355,-1.11404 0.66399,-0.36889 1.52719,-0.36889 1.4239,0 2.1543,0.88533 0.73039,0.87795 0.73039,2.58958 z" />
    <path
       id="path2439"
       style="stroke-width:0.566611;stroke-linecap:butt;stroke-linejoin:round"
       d="m 182.78617,176.07408 v 4.98735 h -1.3575 v -4.94308 q 0,-1.17306 -0.45742,-1.7559 -0.45742,-0.58284 -1.37226,-0.58284 -1.09929,0 -1.73377,0.70088 -0.63449,0.70089 -0.63449,1.91084 v 4.6701 h -1.36488 v -11.47975 h 1.36488 v 4.50042 q 0.48694,-0.74516 1.14355,-1.11404 0.664,-0.36889 1.52719,-0.36889 1.42391,0 2.1543,0.88533 0.7304,0.87795 0.7304,2.58958 z" />
    <path
       id="path2441"
       style="stroke-width:0.566611;stroke-linecap:butt;stroke-linejoin:round"
       d="m 188.76951,169.59643 q -0.98862,1.69688 -1.46817,3.35687 -0.47955,1.65999 -0.47955,3.36425 0,1.70426 0.47955,3.379 0.48693,1.66737 1.46817,3.35687 h -1.18044 q -1.10666,-1.73377 -1.65999,-3.40851 -0.54595,-1.67475 -0.54595,-3.32736 0,-1.64524 0.54595,-3.3126 0.54595,-1.66737 1.65999,-3.40852 z" />
    <path
       id="path2443"
       style="stroke-width:0.566611;stroke-linecap:butt;stroke-linejoin:round"
       d="m 198.27941,172.79837 -2.98798,4.02086 3.14291,4.2422 h -1.60097 l -2.40514,-3.2462 -2.40514,3.2462 h -1.60097 l 3.20932,-4.32335 -2.93634,-3.93971 h 1.60097 l 2.19118,2.94372 2.19119,-2.94372 z" />
    <path
       id="path2445"
       style="stroke-width:0.566611;stroke-linecap:butt;stroke-linejoin:round"
       d="m 200.1386,169.59643 h 1.18044 q 1.10666,1.74115 1.65261,3.40852 0.55333,1.66736 0.55333,3.3126 0,1.65261 -0.55333,3.32736 -0.54595,1.67474 -1.65261,3.40851 h -1.18044 q 0.98124,-1.6895 1.46079,-3.35687 0.48693,-1.67474 0.48693,-3.379 0,-1.70426 -0.48693,-3.36425 -0.47955,-1.65999 -1.46079,-3.35687 z" />
  </g>
</svg>
