<?xml version="1.0" encoding="UTF-8" standalone="no"?>
<svg
   xmlns:dc="http://purl.org/dc/elements/1.1/"
   xmlns:cc="http://creativecommons.org/ns#"
   xmlns:rdf="http://www.w3.org/1999/02/22-rdf-syntax-ns#"
   xmlns:svg="http://www.w3.org/2000/svg"
   xmlns="http://www.w3.org/2000/svg"
   xmlns:sodipodi="http://sodipodi.sourceforge.net/DTD/sodipodi-0.dtd"
   xmlns:inkscape="http://www.inkscape.org/namespaces/inkscape"
   sodipodi:docname="aimldl.svg"
   inkscape:version="1.0 (1.0+r73+1)"
   id="svg8"
   version="1.1"
   viewBox="0 0 210 297"
   height="297mm"
   width="210mm">
  <defs
     id="defs2" />
  <sodipodi:namedview
     inkscape:snap-global="false"
     inkscape:snap-nodes="false"
     inkscape:window-maximized="1"
     inkscape:window-y="0"
     inkscape:window-x="0"
     inkscape:window-height="850"
     inkscape:window-width="1600"
     showgrid="false"
     inkscape:document-rotation="0"
     inkscape:current-layer="g974"
     inkscape:document-units="mm"
     inkscape:cy="276.36893"
     inkscape:cx="584.17836"
     inkscape:zoom="0.9899495"
     inkscape:pageshadow="2"
     inkscape:pageopacity="0.0"
     borderopacity="1.0"
     bordercolor="#666666"
     pagecolor="#ffffff"
     id="base" />
  <metadata
     id="metadata5">
    <rdf:RDF>
      <cc:Work
         rdf:about="">
        <dc:format>image/svg+xml</dc:format>
        <dc:type
           rdf:resource="http://purl.org/dc/dcmitype/StillImage" />
        <dc:title></dc:title>
      </cc:Work>
    </rdf:RDF>
  </metadata>
  <g
     id="layer1"
     inkscape:groupmode="layer"
     inkscape:label="Layer 1">
    <g
       transform="translate(-1.4397384,-47.621381)"
       id="g974"
       inkscape:export-xdpi="96"
       inkscape:export-ydpi="96">
      <path
         id="path10"
         style="opacity:0.881454;fill:#407fb7;fill-opacity:1;fill-rule:evenodd;stroke:none;stroke-width:0.238119"
         d="M 146.16458,63.112343 A 43.381603,70.805328 88.959813 0 1 166.52259,122.88146 43.381603,70.805328 88.959813 0 1 68.663005,136.61121 43.381603,70.805328 88.959813 0 1 47.833883,76.908188 43.381603,70.805328 88.959813 0 1 145.59318,62.891017" />
      <path
         id="path12"
         style="opacity:0.881454;fill:#ffeb00;fill-opacity:0.9;fill-rule:evenodd;stroke:none;stroke-width:0.221921"
         d="m 156.74995,79.152933 a 28.949813,47.02149 85.822954 0 1 -1.39718,41.013557 28.949813,47.02149 85.822954 0 1 -66.29725,2.23605 28.949813,47.02149 85.822954 0 1 1.077826,-41.002778 28.949813,47.02149 85.822954 0 1 66.302454,-2.433571" />
      <path
         id="path14"
         style="opacity:0.881454;fill:#e69679;fill-opacity:1;fill-rule:evenodd;stroke:none;stroke-width:0.224229"
         d="m 148.43639,83.743893 a 17.817431,25.292941 88.375377 0 1 8.47224,24.333047 17.817431,25.292941 88.375377 0 1 -34.67946,6.52482 17.817431,25.292941 88.375377 0 1 -8.6393,-24.301627 17.817431,25.292941 88.375377 0 1 34.63784,-6.64187" />
      <g
         aria-label="  Deep  learning"
         transform="matrix(0.68523045,-0.03736608,0.00983395,1.0046216,52.901603,-20.410053)"
         id="text18"
         style="font-style:oblique;font-variant:normal;font-weight:normal;font-stretch:normal;font-size:9.21362px;line-height:1.25;font-family:'DejaVu Sans Mono';-inkscape-font-specification:'DejaVu Sans Mono, Oblique';font-variant-ligatures:normal;font-variant-caps:normal;font-variant-numeric:normal;font-variant-east-asian:normal;fill:#000000;fill-opacity:1;stroke:none;stroke-width:0.288049">
        <path
           d="m 109.07131,118.46878 q 0.83228,0 1.33615,-0.27893 0.50387,-0.28343 0.80979,-0.91776 0.24294,-0.51737 0.3959,-1.23269 0.15746,-0.71981 0.15746,-1.31816 0,-0.79179 -0.3689,-1.1337 -0.36891,-0.34191 -1.23718,-0.34191 h -0.51287 l -1.01674,5.22315 z m 1.17869,-5.96996 q 1.22819,0 1.83553,0.55785 0.61184,0.55786 0.61184,1.69157 0,0.72881 -0.18895,1.50261 -0.18895,0.7738 -0.50837,1.37215 -0.46788,0.85927 -1.1697,1.22818 -0.69732,0.3644 -1.88951,0.3644 h -1.36315 l 1.30917,-6.71676 z"
           style="stroke-width:0.288049"
           id="path91" />
        <path
           d="m 117.37616,116.25085 q 0.027,-0.12147 0.036,-0.19795 0.009,-0.081 0.009,-0.15296 0,-0.53986 -0.29242,-0.84128 -0.29243,-0.30142 -0.81429,-0.30142 -0.55336,0 -1.01224,0.40489 -0.45438,0.4049 -0.65233,1.08872 z m 0.10348,2.7083 q -0.47238,0.19345 -0.92226,0.28793 -0.44989,0.099 -0.91327,0.099 -1.00324,0 -1.5251,-0.49937 -0.52187,-0.50387 -0.52187,-1.46662 0,-0.70182 0.26993,-1.37665 0.26993,-0.67482 0.74681,-1.1652 0.3734,-0.3869 0.82328,-0.58934 0.45439,-0.20245 0.94476,-0.20245 0.83678,0 1.33616,0.51737 0.50387,0.51286 0.50387,1.37214 0,0.15296 -0.0225,0.3824 -0.0225,0.22494 -0.0765,0.57585 h -3.63056 q -0.027,0.14397 -0.0405,0.26094 -0.0135,0.11697 -0.0135,0.20694 0,0.62534 0.34641,0.95376 0.34641,0.32841 1.00774,0.32841 0.3959,0 0.86378,-0.12597 0.47238,-0.13046 0.98525,-0.3824 z"
           style="stroke-width:0.288049"
           id="path93" />
        <path
           d="m 122.91873,116.25085 q 0.027,-0.12147 0.036,-0.19795 0.009,-0.081 0.009,-0.15296 0,-0.53986 -0.29242,-0.84128 -0.29243,-0.30142 -0.81429,-0.30142 -0.55336,0 -1.01224,0.40489 -0.45438,0.4049 -0.65233,1.08872 z m 0.10348,2.7083 q -0.47238,0.19345 -0.92227,0.28793 -0.44988,0.099 -0.91326,0.099 -1.00324,0 -1.52511,-0.49937 -0.52186,-0.50387 -0.52186,-1.46662 0,-0.70182 0.26993,-1.37665 0.26993,-0.67482 0.74681,-1.1652 0.3734,-0.3869 0.82328,-0.58934 0.45439,-0.20245 0.94476,-0.20245 0.83678,0 1.33615,0.51737 0.50387,0.51286 0.50387,1.37214 0,0.15296 -0.0225,0.3824 -0.0225,0.22494 -0.0765,0.57585 h -3.63056 q -0.027,0.14397 -0.0405,0.26094 -0.0135,0.11697 -0.0135,0.20694 0,0.62534 0.34641,0.95376 0.34641,0.32841 1.00774,0.32841 0.3959,0 0.86378,-0.12597 0.47238,-0.13046 0.98524,-0.3824 z"
           style="stroke-width:0.288049"
           id="path95" />
        <path
           d="m 125.55955,118.58125 -0.49937,2.55084 h -0.82779 l 1.35415,-6.9552 h 0.82779 l -0.12597,0.64333 q 0.27443,-0.36891 0.66133,-0.56685 0.3869,-0.19795 0.83678,-0.19795 0.72882,0 1.12921,0.46788 0.4004,0.46787 0.4004,1.30916 0,0.64333 -0.17995,1.29116 -0.17546,0.64784 -0.49038,1.14271 -0.33741,0.53086 -0.79629,0.80529 -0.45888,0.27443 -1.00774,0.27443 -0.44989,0 -0.7693,-0.18895 -0.31492,-0.18895 -0.51287,-0.57585 z m 1.24168,0.063 q 0.3644,0 0.66583,-0.19795 0.30142,-0.20245 0.50387,-0.58485 0.22044,-0.41389 0.34641,-0.93126 0.12596,-0.52186 0.12596,-1.03023 0,-0.57135 -0.23393,-0.85478 -0.22945,-0.28792 -0.68833,-0.28792 -0.3824,0 -0.69282,0.20244 -0.30592,0.20245 -0.52186,0.59835 -0.22045,0.3959 -0.34641,0.90876 -0.12597,0.51287 -0.12597,1.02574 0,0.55336 0.25193,0.85478 0.25194,0.29692 0.71532,0.29692 z"
           style="stroke-width:0.288049"
           id="path97" />
        <path
           d="m 99.227852,128.89708 q -0.03149,0.15746 -0.04949,0.27893 -0.0135,0.12147 -0.0135,0.20245 0,0.32841 0.197949,0.49037 0.202448,0.16196 0.611842,0.16196 h 0.949247 l -0.13946,0.70182 h -0.931256 q -0.778299,0 -1.1607,-0.28343 -0.377902,-0.28792 -0.377902,-0.87727 0,-0.12597 0.02249,-0.30592 0.02249,-0.17996 0.06298,-0.3869 l 0.949255,-4.54833 h -1.421633 l 0.130466,-0.64783 h 2.24942 z"
           style="stroke-width:0.288049"
           id="path99" />
        <path
           d="m 106.29103,127.76787 q 0.027,-0.12146 0.036,-0.19794 0.009,-0.081 0.009,-0.15296 0,-0.53987 -0.29243,-0.84129 -0.29242,-0.30142 -0.81429,-0.30142 -0.55336,0 -1.01224,0.4049 -0.45438,0.40489 -0.65233,1.08871 z m 0.10347,2.70831 q -0.47238,0.19345 -0.92226,0.28792 -0.44988,0.099 -0.91327,0.099 -1.00324,0 -1.5251,-0.49938 -0.52187,-0.50387 -0.52187,-1.46662 0,-0.70182 0.26993,-1.37664 0.26993,-0.67483 0.74681,-1.1652 0.3734,-0.3869 0.82329,-0.58935 0.45438,-0.20245 0.94475,-0.20245 0.83679,0 1.33616,0.51737 0.50387,0.51287 0.50387,1.37215 0,0.15296 -0.0225,0.3824 -0.0225,0.22494 -0.0765,0.57585 h -3.63056 q -0.027,0.14396 -0.0405,0.26093 -0.0135,0.11697 -0.0135,0.20695 0,0.62534 0.34641,0.95375 0.34641,0.32842 1.00774,0.32842 0.39589,0 0.86377,-0.12597 0.47238,-0.13047 0.98525,-0.3824 z"
           style="stroke-width:0.288049"
           id="path101" />
        <path
           d="m 110.72688,128.19976 q -0.53536,0 -0.79629,0.036 -0.26094,0.0315 -0.45439,0.11247 -0.30592,0.12147 -0.49037,0.4004 -0.18445,0.27443 -0.18445,0.60285 0,0.3734 0.22944,0.59834 0.23394,0.22044 0.62984,0.22044 0.66582,0 1.1472,-0.47687 0.48588,-0.47688 0.65683,-1.30916 l 0.036,-0.18446 z m 1.66907,-0.34191 -0.56235,2.87476 h -0.82779 l 0.14396,-0.74681 q -0.32391,0.42289 -0.7648,0.65233 -0.44089,0.22495 -0.93576,0.22495 -0.68832,0 -1.10221,-0.37341 -0.4094,-0.3779 -0.4094,-0.99874 0,-0.88177 0.69282,-1.40814 0.69732,-0.53086 1.88502,-0.53086 h 1.10671 l 0.054,-0.27443 q 0.009,-0.0405 0.0135,-0.0855 0.005,-0.045 0.005,-0.12596 0,-0.38241 -0.28343,-0.58485 -0.28342,-0.20695 -0.80979,-0.20695 -0.3869,0 -0.83678,0.11697 -0.44538,0.11247 -0.94476,0.34191 l 0.15746,-0.80979 q 0.48588,-0.17545 0.92227,-0.26093 0.43638,-0.09 0.83678,-0.09 0.83678,0 1.30016,0.36891 0.46788,0.3689 0.46788,1.02123 0,0.14397 -0.027,0.37791 -0.027,0.23393 -0.081,0.51736 z"
           style="stroke-width:0.288049"
           id="path103" />
        <path
           d="m 118.48288,126.73314 q -0.20245,-0.19795 -0.47238,-0.29692 -0.26543,-0.099 -0.60734,-0.099 -0.73781,0 -1.26418,0.51737 -0.52636,0.51287 -0.69732,1.40814 l -0.48137,2.46986 h -0.82779 l 0.97625,-5.0387 h 0.82779 l -0.17996,0.98525 q 0.30142,-0.53986 0.7783,-0.82329 0.48138,-0.28343 1.08872,-0.28343 0.31942,0 0.57585,0.0855 0.26093,0.081 0.44089,0.23844 z"
           style="stroke-width:0.288049"
           id="path105" />
        <path
           d="m 123.53507,127.61042 -0.60734,3.12219 h -0.82779 l 0.60735,-3.12669 q 0.004,-0.018 0.0135,-0.063 0.0675,-0.31941 0.0675,-0.49487 0,-0.36441 -0.21145,-0.55786 -0.20695,-0.19794 -0.59835,-0.19794 -0.57135,0 -0.97174,0.41839 -0.4004,0.41839 -0.54886,1.17419 l -0.55336,2.84777 h -0.82779 l 0.98525,-5.0387 h 0.82779 l -0.14397,0.75581 q 0.33742,-0.43639 0.72882,-0.65684 0.39589,-0.22044 0.83678,-0.22044 0.62534,0 0.97175,0.32842 0.34641,0.32391 0.34641,0.90876 0,0.14397 -0.027,0.35541 -0.0225,0.21145 -0.0675,0.44539 z"
           style="stroke-width:0.288049"
           id="path107" />
        <path
           d="m 125.85197,125.69391 h 2.11896 l -0.85478,4.39537 h 1.64207 l -0.13046,0.64333 h -4.11194 l 0.13047,-0.64333 h 1.64207 l 0.72431,-3.75204 h -1.28666 z m 1.66907,-1.96149 h 0.82779 l -0.20245,1.04823 h -0.82778 z"
           style="stroke-width:0.288049"
           id="path109" />
        <path
           d="m 134.62021,127.61042 -0.60734,3.12219 h -0.82779 l 0.60734,-3.12669 q 0.005,-0.018 0.0135,-0.063 0.0675,-0.31941 0.0675,-0.49487 0,-0.36441 -0.21144,-0.55786 -0.20695,-0.19794 -0.59835,-0.19794 -0.57135,0 -0.97175,0.41839 -0.40039,0.41839 -0.54886,1.17419 l -0.55335,2.84777 h -0.82779 l 0.98525,-5.0387 h 0.82778 l -0.14396,0.75581 q 0.33741,-0.43639 0.72881,-0.65684 0.3959,-0.22044 0.83679,-0.22044 0.62533,0 0.97174,0.32842 0.34641,0.32391 0.34641,0.90876 0,0.14397 -0.027,0.35541 -0.0225,0.21145 -0.0675,0.44539 z"
           style="stroke-width:0.288049"
           id="path111" />
        <path
           d="m 137.62993,130.08028 q 0.35541,0 0.65233,-0.20245 0.30143,-0.20245 0.50837,-0.58035 0.22044,-0.4049 0.34191,-0.90877 0.12597,-0.50387 0.12597,-0.98074 0,-0.53536 -0.25193,-0.83229 -0.25194,-0.30142 -0.70182,-0.30142 -0.69282,0 -1.1697,0.7603 -0.47238,0.75581 -0.47238,1.90301 0,0.53536 0.25644,0.84129 0.25643,0.30142 0.71081,0.30142 z m 1.9345,0.32841 q -0.23844,1.21919 -0.84128,1.75905 -0.59835,0.54436 -1.70956,0.54436 -0.3689,0 -0.72881,-0.063 -0.35541,-0.063 -0.69282,-0.18445 l 0.16646,-0.81879 q 0.32841,0.19795 0.67932,0.30143 0.35541,0.10347 0.71531,0.10347 0.67033,0 1.03924,-0.35991 0.3689,-0.35991 0.53536,-1.19669 l 0.10797,-0.52636 q -0.26093,0.3914 -0.65233,0.59834 -0.3914,0.20245 -0.88627,0.20245 -0.69282,0 -1.10222,-0.48138 -0.40939,-0.48587 -0.40939,-1.31366 0,-0.62534 0.17995,-1.24168 0.17996,-0.62084 0.50387,-1.09771 0.33292,-0.50387 0.80079,-0.7828 0.46788,-0.27893 0.96725,-0.27893 0.45439,0 0.7963,0.22044 0.34191,0.21595 0.49487,0.59835 l 0.12147,-0.67932 h 0.82779 z"
           style="stroke-width:0.288049"
           id="path113" />
      </g>
      <g
         aria-label="Machine Learning"
         transform="matrix(0.70757658,0.00201415,-0.00137494,0.71354175,33.978502,17.507966)"
         id="text30"
         style="font-style:normal;font-weight:normal;font-size:9.14627px;line-height:1.25;font-family:sans-serif;fill:#000000;fill-opacity:1;stroke:none;stroke-width:0.264583">
        <path
           d="m 69.395352,109.85437 h 1.344252 l 1.701528,4.5374 1.710459,-4.5374 h 1.344252 v 6.66766 H 74.61605 v -5.85486 l -1.719391,4.57314 H 71.99007 l -1.719391,-4.57314 v 5.85486 h -0.875327 z"
           style="stroke-width:0.264583"
           id="path60" />
        <path
           d="m 79.528598,114.0077 q -0.995908,0 -1.379979,0.22777 -0.384072,0.22776 -0.384072,0.77707 0,0.43767 0.285821,0.69669 0.290286,0.25456 0.786007,0.25456 0.683291,0 1.094158,-0.48232 0.415334,-0.48679 0.415334,-1.29066 v -0.18311 z m 1.639004,-0.33941 v 2.85374 h -0.821735 v -0.75921 q -0.281355,0.45553 -0.701155,0.67436 -0.419799,0.21437 -1.027169,0.21437 -0.768143,0 -1.22367,-0.42874 -0.451062,-0.43319 -0.451062,-1.15668 0,-0.84406 0.56271,-1.27279 0.567176,-0.42873 1.68813,-0.42873 h 1.152216 v -0.0804 q 0,-0.56718 -0.37514,-0.87533 -0.370674,-0.31261 -1.045033,-0.31261 -0.428731,0 -0.835133,0.10271 -0.406401,0.10272 -0.781541,0.30815 v -0.75921 q 0.451061,-0.17417 0.875326,-0.25902 0.424266,-0.0893 0.826201,-0.0893 1.085227,0 1.621141,0.56271 0.535914,0.56271 0.535914,1.70599 z"
           style="stroke-width:0.264583"
           id="path62" />
        <path
           d="m 86.464221,111.7122 v 0.76815 q -0.348344,-0.19204 -0.701154,-0.28582 -0.348344,-0.0983 -0.705621,-0.0983 -0.799405,0 -1.241534,0.50911 -0.44213,0.50466 -0.44213,1.42018 0,0.91552 0.44213,1.42464 0.442129,0.50465 1.241534,0.50465 0.357277,0 0.705621,-0.0938 0.35281,-0.0982 0.701154,-0.29028 V 116.33 q -0.343878,0.16077 -0.714552,0.24116 -0.366208,0.0804 -0.781542,0.0804 -1.129886,0 -1.795312,-0.71009 -0.665427,-0.71009 -0.665427,-1.91589 0,-1.22367 0.669893,-1.92483 0.674358,-0.70115 1.844438,-0.70115 0.379606,0 0.741348,0.0804 0.361742,0.0759 0.701154,0.23223 z"
           style="stroke-width:0.264583"
           id="path64" />
        <path
           d="m 92.060059,113.50305 v 3.01898 h -0.821735 v -2.99218 q 0,-0.71009 -0.276889,-1.0629 -0.276889,-0.35281 -0.830667,-0.35281 -0.665427,0 -1.049499,0.42426 -0.384072,0.42427 -0.384072,1.15669 v 2.82694 h -0.826201 v -6.94902 h 0.826201 v 2.72423 q 0.294753,-0.45106 0.692223,-0.67436 0.401935,-0.22329 0.924452,-0.22329 0.861929,0 1.304058,0.53591 0.442129,0.53145 0.442129,1.56755 z"
           style="stroke-width:0.264583"
           id="path66" />
        <path
           d="m 93.707994,111.52017 h 0.821735 v 5.00186 h -0.821735 z m 0,-1.94716 h 0.821735 v 1.04057 h -0.821735 z"
           style="stroke-width:0.264583"
           id="path68" />
        <path
           d="m 100.40246,113.50305 v 3.01898 h -0.821738 v -2.99218 q 0,-0.71009 -0.276889,-1.0629 -0.276889,-0.35281 -0.830668,-0.35281 -0.665426,0 -1.049498,0.42426 -0.384072,0.42427 -0.384072,1.15669 v 2.82694 h -0.826201 v -5.00186 h 0.826201 v 0.77707 q 0.294753,-0.45106 0.692222,-0.67436 0.401936,-0.22329 0.924453,-0.22329 0.861928,0 1.304058,0.53591 0.442132,0.53145 0.442132,1.56755 z"
           style="stroke-width:0.264583"
           id="path70" />
        <path
           d="m 106.32878,113.81567 v 0.40193 h -3.7782 q 0.0536,0.84853 0.50912,1.29513 0.45999,0.44213 1.27726,0.44213 0.47339,0 0.91552,-0.11612 0.4466,-0.11611 0.88426,-0.34834 v 0.77707 q -0.44213,0.18757 -0.90659,0.28583 -0.46446,0.0983 -0.94231,0.0983 -1.19688,0 -1.89803,-0.69669 -0.69669,-0.69669 -0.69669,-1.88463 0,-1.22814 0.66096,-1.94716 0.66543,-0.72348 1.79085,-0.72348 1.0093,0 1.59434,0.65203 0.58951,0.64756 0.58951,1.76405 z m -0.82174,-0.24116 q -0.009,-0.67436 -0.37961,-1.0763 -0.3662,-0.40193 -0.97357,-0.40193 -0.68776,0 -1.10309,0.38853 -0.41087,0.38854 -0.47339,1.09416 z"
           style="stroke-width:0.264583"
           id="path72" />
        <path
           d="m 69.395352,121.2872 h 0.902123 v 5.90846 h 3.246747 v 0.75921 h -4.14887 z"
           style="stroke-width:0.264583"
           id="path74" />
        <path
           d="m 78.568418,125.2485 v 0.40194 h -3.778196 q 0.05359,0.84853 0.509119,1.29513 0.459993,0.44213 1.277262,0.44213 0.473391,0 0.91552,-0.11612 0.446595,-0.11611 0.884259,-0.34834 v 0.77707 q -0.44213,0.18757 -0.906589,0.28582 -0.464459,0.0983 -0.942315,0.0983 -1.196876,0 -1.89803,-0.69668 -0.696689,-0.69669 -0.696689,-1.88464 0,-1.22813 0.660961,-1.94715 0.665427,-0.72349 1.790847,-0.72349 1.009305,0 1.594345,0.65203 0.589506,0.64757 0.589506,1.76405 z m -0.821736,-0.24116 q -0.0089,-0.67436 -0.379606,-1.07629 -0.366208,-0.40194 -0.973577,-0.40194 -0.687757,0 -1.10309,0.38854 -0.410868,0.38854 -0.473391,1.09416 z"
           style="stroke-width:0.264583"
           id="path76" />
        <path
           d="m 82.190305,125.44054 q -0.995908,0 -1.37998,0.22776 -0.384071,0.22777 -0.384071,0.77708 0,0.43766 0.285821,0.69669 0.290286,0.25456 0.786007,0.25456 0.683291,0 1.094158,-0.48233 0.415334,-0.48678 0.415334,-1.29066 v -0.1831 z m 1.639004,-0.33941 v 2.85374 h -0.821735 v -0.75921 q -0.281355,0.45553 -0.701155,0.67436 -0.419799,0.21436 -1.027169,0.21436 -0.768143,0 -1.22367,-0.42873 -0.451062,-0.4332 -0.451062,-1.15668 0,-0.84406 0.56271,-1.2728 0.567176,-0.42873 1.68813,-0.42873 h 1.152216 v -0.0804 q 0,-0.56718 -0.37514,-0.87533 -0.370674,-0.31262 -1.045033,-0.31262 -0.428731,0 -0.835133,0.10272 -0.406402,0.10272 -0.781542,0.30815 v -0.75921 q 0.451062,-0.17417 0.875327,-0.25903 0.424266,-0.0893 0.826201,-0.0893 1.085227,0 1.621141,0.56271 0.535914,0.56271 0.535914,1.706 z"
           style="stroke-width:0.264583"
           id="path78" />
        <path
           d="m 88.424774,123.72115 q -0.138445,-0.0804 -0.303685,-0.11612 -0.160774,-0.0402 -0.357276,-0.0402 -0.696689,0 -1.071829,0.45553 -0.370674,0.45106 -0.370674,1.29959 v 2.63491 H 85.495109 V 122.953 h 0.826201 v 0.77708 q 0.259025,-0.45553 0.674359,-0.67436 0.415334,-0.2233 1.009305,-0.2233 0.08485,0 0.18757,0.0134 0.102717,0.009 0.227764,0.0313 z"
           style="stroke-width:0.264583"
           id="path80" />
        <path
           d="m 93.292662,124.93589 v 3.01898 h -0.821735 v -2.99219 q 0,-0.71008 -0.276889,-1.06289 -0.276889,-0.35281 -0.830667,-0.35281 -0.665427,0 -1.049499,0.42426 -0.384072,0.42427 -0.384072,1.15668 v 2.82695 H 89.103599 V 122.953 H 89.9298 v 0.77708 q 0.294753,-0.45106 0.692223,-0.67436 0.401936,-0.2233 0.924452,-0.2233 0.861929,0 1.304058,0.53592 0.442129,0.53145 0.442129,1.56755 z"
           style="stroke-width:0.264583"
           id="path82" />
        <path
           d="m 94.940597,122.953 h 0.821736 v 5.00187 h -0.821736 z m 0,-1.94715 h 0.821736 v 1.04057 h -0.821736 z"
           style="stroke-width:0.264583"
           id="path84" />
        <path
           d="m 101.63506,124.93589 v 3.01898 h -0.82174 v -2.99219 q 0,-0.71008 -0.27688,-1.06289 -0.27689,-0.35281 -0.830671,-0.35281 -0.665427,0 -1.049499,0.42426 -0.384072,0.42427 -0.384072,1.15668 v 2.82695 H 97.445997 V 122.953 h 0.826201 v 0.77708 q 0.294753,-0.45106 0.692223,-0.67436 0.401935,-0.2233 0.924452,-0.2233 0.861927,0 1.304057,0.53592 0.44213,0.53145 0.44213,1.56755 z"
           style="stroke-width:0.264583"
           id="path86" />
        <path
           d="m 106.5744,125.39588 q 0,-0.89319 -0.37067,-1.38444 -0.36621,-0.49126 -1.03164,-0.49126 -0.66096,0 -1.03163,0.49126 -0.36621,0.49125 -0.36621,1.38444 0,0.88872 0.36621,1.37998 0.37067,0.49125 1.03163,0.49125 0.66543,0 1.03164,-0.49125 0.37067,-0.49126 0.37067,-1.37998 z m 0.82174,1.93822 q 0,1.27727 -0.56718,1.89803 -0.56717,0.62524 -1.73725,0.62524 -0.4332,0 -0.81727,-0.067 -0.38408,-0.0625 -0.74582,-0.1965 v -0.79941 q 0.36174,0.1965 0.71455,0.29029 0.35281,0.0938 0.71902,0.0938 0.80834,0 1.21028,-0.42426 0.40193,-0.4198 0.40193,-1.2728 v -0.4064 q -0.25456,0.44213 -0.65203,0.66096 -0.39747,0.21883 -0.95125,0.21883 -0.91998,0 -1.48269,-0.70115 -0.56271,-0.70116 -0.56271,-1.85784 0,-1.16115 0.56271,-1.8623 0.56271,-0.70116 1.48269,-0.70116 0.55378,0 0.95125,0.21884 0.39747,0.21883 0.65203,0.66096 V 122.953 h 0.82174 z"
           style="stroke-width:0.264583"
           id="path88" />
      </g>
      <g
         aria-label="Artifical Intelligence"
         transform="matrix(0.45271487,-0.01435296,-0.12561282,1.085182,42.722545,15.534029)"
         id="text36"
         style="font-style:normal;font-weight:normal;font-size:11.3412px;line-height:1.25;font-family:sans-serif;fill:#000000;fill-opacity:1;stroke:none;stroke-width:0.264583">
        <path
           d="m 95.324598,45.797987 -1.517328,4.114507 h 3.040195 z m -0.631297,-1.102002 h 1.268132 l 3.150949,8.267779 H 97.949466 L 97.196339,50.842827 H 93.46947 l -0.753126,2.120937 h -1.179529 z"
           style="stroke-width:0.264583"
           id="path19" />
        <path
           d="m 103.86372,47.714029 q -0.17166,-0.09968 -0.37656,-0.14398 -0.19936,-0.04984 -0.44301,-0.04984 -0.86388,0 -1.32905,0.564845 -0.45963,0.559307 -0.45963,1.611469 v 3.26724 H 100.231 v -6.202218 h 1.02447 v 0.963558 q 0.32119,-0.564844 0.83619,-0.836192 0.51501,-0.276884 1.25152,-0.276884 0.10522,0 0.23258,0.01661 0.12737,0.01107 0.28243,0.03876 z"
           style="stroke-width:0.264583"
           id="path21" />
        <path
           d="m 105.95144,45.000558 v 1.760988 h 2.09878 v 0.79189 h -2.09878 v 3.366919 q 0,0.758664 0.20489,0.974634 0.21043,0.21597 0.84727,0.21597 h 1.04662 v 0.852805 h -1.04662 q -1.17953,0 -1.62808,-0.437478 -0.44856,-0.443015 -0.44856,-1.605931 v -3.366919 h -0.74759 v -0.79189 h 0.74759 v -1.760988 z"
           style="stroke-width:0.264583"
           id="path23" />
        <path
           d="m 109.39588,46.761546 h 1.01894 v 6.202218 h -1.01894 z m 0,-2.414436 h 1.01894 v 1.290283 h -1.01894 z"
           style="stroke-width:0.264583"
           id="path25" />
        <path
           d="m 117.55291,46.761546 v 6.202218 h -1.02448 v -5.410328 h -2.79653 v 5.410328 h -1.02448 v -5.410328 h -0.97463 v -0.79189 h 0.97463 v -0.431941 q 0,-1.013398 0.47624,-1.495177 0.48178,-0.487318 1.47303,-0.487318 h 1.02448 v 0.847268 h -0.97464 q -0.54823,0 -0.7642,0.221508 -0.21043,0.221507 -0.21043,0.797428 v 0.548232 z m -1.02448,-2.40336 h 1.02448 v 1.290283 h -1.02448 z"
           style="stroke-width:0.264583"
           id="path27" />
        <path
           d="m 124.15938,46.999666 v 0.952484 q -0.43194,-0.238121 -0.86942,-0.354413 -0.43194,-0.121829 -0.87496,-0.121829 -0.99124,0 -1.53948,0.631297 -0.54823,0.62576 -0.54823,1.760988 0,1.135227 0.54823,1.766524 0.54824,0.62576 1.53948,0.62576 0.44302,0 0.87496,-0.116292 0.43748,-0.121829 0.86942,-0.35995 v 0.941408 q -0.4264,0.199357 -0.88603,0.299036 -0.45409,0.09968 -0.9691,0.09968 -1.40104,0 -2.22615,-0.880493 -0.82512,-0.880494 -0.82512,-2.375671 0,-1.517329 0.83065,-2.386747 0.8362,-0.869418 2.28707,-0.869418 0.47071,0 0.91926,0.09968 0.44855,0.09414 0.86942,0.28796 z"
           style="stroke-width:0.264583"
           id="path29" />
        <path
           d="m 128.7612,49.846042 q -1.2349,0 -1.71114,0.282422 -0.47625,0.282423 -0.47625,0.963559 0,0.542694 0.35442,0.863881 0.35995,0.315648 0.97463,0.315648 0.84727,0 1.35674,-0.598071 0.515,-0.603609 0.515,-1.600394 v -0.227045 z m 2.03234,-0.420865 v 3.538587 h -1.01894 v -0.941408 q -0.34887,0.564845 -0.86942,0.836192 -0.52054,0.265809 -1.27367,0.265809 -0.95248,0 -1.51733,-0.531618 -0.5593,-0.537157 -0.5593,-1.434263 0,-1.046625 0.69775,-1.578244 0.70328,-0.531618 2.09325,-0.531618 h 1.42872 v -0.09968 q 0,-0.703287 -0.46516,-1.085388 -0.45963,-0.387639 -1.29583,-0.387639 -0.53161,0 -1.03554,0.127367 -0.50393,0.127367 -0.9691,0.382101 v -0.941408 q 0.55931,-0.21597 1.08539,-0.321186 0.52608,-0.110754 1.02447,-0.110754 1.34566,0 2.01018,0.697749 0.66453,0.69775 0.66453,2.1154 z"
           style="stroke-width:0.264583"
           id="path31" />
        <path
           d="m 132.89786,44.34711 h 1.01894 v 8.616654 h -1.01894 z"
           style="stroke-width:0.264583"
           id="path33" />
        <path
           d="m 139.69815,44.695985 h 1.11861 v 8.267779 h -1.11861 z"
           style="stroke-width:0.264583"
           id="path35" />
        <path
           d="m 148.15421,49.220282 v 3.743482 h -1.01894 v -3.710256 q 0,-0.880493 -0.34333,-1.317971 -0.34334,-0.437478 -1.03001,-0.437478 -0.82512,0 -1.30136,0.526081 -0.47624,0.526081 -0.47624,1.434263 v 3.505361 h -1.02448 v -6.202218 h 1.02448 v 0.963558 q 0.36548,-0.559307 0.85834,-0.836192 0.49839,-0.276884 1.1463,-0.276884 1.06878,0 1.61701,0.664523 0.54823,0.658986 0.54823,1.943731 z"
           style="stroke-width:0.264583"
           id="path37" />
        <path
           d="m 151.20548,45.000558 v 1.760988 h 2.09879 v 0.79189 h -2.09879 v 3.366919 q 0,0.758664 0.2049,0.974634 0.21043,0.21597 0.84726,0.21597 h 1.04663 v 0.852805 h -1.04663 q -1.17953,0 -1.62808,-0.437478 -0.44855,-0.443015 -0.44855,-1.605931 v -3.366919 h -0.74759 v -0.79189 h 0.74759 v -1.760988 z"
           style="stroke-width:0.264583"
           id="path39" />
        <path
           d="m 159.95504,49.607921 v 0.498392 h -4.68489 q 0.0665,1.052163 0.63129,1.605932 0.57039,0.548232 1.58379,0.548232 0.58699,0 1.13522,-0.14398 0.55377,-0.14398 1.09647,-0.43194 v 0.963559 q -0.54824,0.232583 -1.12416,0.354412 -0.57592,0.121829 -1.16845,0.121829 -1.4841,0 -2.35352,-0.86388 -0.86388,-0.863881 -0.86388,-2.336908 0,-1.522866 0.81958,-2.414435 0.82512,-0.897106 2.22061,-0.897106 1.25152,0 1.97696,0.808503 0.73098,0.802966 0.73098,2.18739 z m -1.01894,-0.299036 q -0.0111,-0.836192 -0.4707,-1.334584 -0.45409,-0.498393 -1.20722,-0.498393 -0.85281,0 -1.36781,0.48178 -0.50947,0.481779 -0.587,1.356735 z"
           style="stroke-width:0.264583"
           id="path41" />
        <path
           d="m 161.62742,44.34711 h 1.01894 v 8.616654 h -1.01894 z"
           style="stroke-width:0.264583"
           id="path43" />
        <path
           d="m 164.77283,44.34711 h 1.01894 v 8.616654 h -1.01894 z"
           style="stroke-width:0.264583"
           id="path45" />
        <path
           d="m 167.91825,46.761546 h 1.01893 v 6.202218 h -1.01893 z m 0,-2.414436 h 1.01893 v 1.290283 h -1.01893 z"
           style="stroke-width:0.264583"
           id="path47" />
        <path
           d="m 175.14494,49.790665 q 0,-1.107539 -0.45963,-1.716686 -0.45409,-0.609146 -1.27921,-0.609146 -0.81958,0 -1.27921,0.609146 -0.45409,0.609147 -0.45409,1.716686 0,1.102001 0.45409,1.711148 0.45963,0.609146 1.27921,0.609146 0.82512,0 1.27921,-0.609146 0.45963,-0.609147 0.45963,-1.711148 z m 1.01893,2.40336 q 0,1.58378 -0.70328,2.35352 -0.70329,0.775277 -2.15417,0.775277 -0.53715,0 -1.0134,-0.08307 -0.47624,-0.07753 -0.92479,-0.243659 v -0.991247 q 0.44855,0.243658 0.88603,0.35995 0.43748,0.116292 0.89157,0.116292 1.00232,0 1.50071,-0.526081 0.4984,-0.520544 0.4984,-1.578244 v -0.50393 q -0.31565,0.548232 -0.80851,0.819579 -0.49285,0.271347 -1.17953,0.271347 -1.14076,0 -1.83851,-0.869418 -0.69775,-0.869418 -0.69775,-2.303681 0,-1.439801 0.69775,-2.309219 0.69775,-0.869418 1.83851,-0.869418 0.68668,0 1.17953,0.271347 0.49286,0.271347 0.80851,0.819579 v -0.941408 h 1.01893 z"
           style="stroke-width:0.264583"
           id="path49" />
        <path
           d="m 183.56777,49.607921 v 0.498392 h -4.68489 q 0.0665,1.052163 0.6313,1.605932 0.57038,0.548232 1.58378,0.548232 0.587,0 1.13523,-0.14398 0.55377,-0.14398 1.09646,-0.43194 v 0.963559 q -0.54823,0.232583 -1.12415,0.354412 -0.57592,0.121829 -1.16845,0.121829 -1.48411,0 -2.35352,-0.86388 -0.86388,-0.863881 -0.86388,-2.336908 0,-1.522866 0.81957,-2.414435 0.82512,-0.897106 2.22062,-0.897106 1.25152,0 1.97696,0.808503 0.73097,0.802966 0.73097,2.18739 z m -1.01893,-0.299036 q -0.0111,-0.836192 -0.47071,-1.334584 -0.45409,-0.498393 -1.20721,-0.498393 -0.85281,0 -1.36782,0.48178 -0.50946,0.481779 -0.58699,1.356735 z"
           style="stroke-width:0.264583"
           id="path51" />
        <path
           d="m 190.39575,49.220282 v 3.743482 h -1.01894 v -3.710256 q 0,-0.880493 -0.34333,-1.317971 -0.34334,-0.437478 -1.03002,-0.437478 -0.82511,0 -1.30135,0.526081 -0.47625,0.526081 -0.47625,1.434263 v 3.505361 h -1.02447 v -6.202218 h 1.02447 v 0.963558 q 0.36549,-0.559307 0.85835,-0.836192 0.49839,-0.276884 1.1463,-0.276884 1.06877,0 1.61701,0.664523 0.54823,0.658986 0.54823,1.943731 z"
           style="stroke-width:0.264583"
           id="path53" />
        <path
           d="m 196.90254,46.999666 v 0.952484 q -0.43194,-0.238121 -0.86942,-0.354413 -0.43194,-0.121829 -0.87495,-0.121829 -0.99125,0 -1.53948,0.631297 -0.54823,0.62576 -0.54823,1.760988 0,1.135227 0.54823,1.766524 0.54823,0.62576 1.53948,0.62576 0.44301,0 0.87495,-0.116292 0.43748,-0.121829 0.86942,-0.35995 v 0.941408 q -0.4264,0.199357 -0.88603,0.299036 -0.45409,0.09968 -0.9691,0.09968 -1.40103,0 -2.22615,-0.880493 -0.82512,-0.880494 -0.82512,-2.375671 0,-1.517329 0.83066,-2.386747 0.83619,-0.869418 2.28707,-0.869418 0.4707,0 0.91925,0.09968 0.44856,0.09414 0.86942,0.28796 z"
           style="stroke-width:0.264583"
           id="path55" />
        <path
           d="m 203.99079,49.607921 v 0.498392 h -4.68489 q 0.0665,1.052163 0.6313,1.605932 0.57038,0.548232 1.58378,0.548232 0.587,0 1.13523,-0.14398 0.55377,-0.14398 1.09646,-0.43194 v 0.963559 q -0.54823,0.232583 -1.12415,0.354412 -0.57592,0.121829 -1.16845,0.121829 -1.48411,0 -2.35352,-0.86388 -0.86389,-0.863881 -0.86389,-2.336908 0,-1.522866 0.81958,-2.414435 0.82512,-0.897106 2.22062,-0.897106 1.25152,0 1.97696,0.808503 0.73097,0.802966 0.73097,2.18739 z m -1.01893,-0.299036 q -0.0111,-0.836192 -0.47071,-1.334584 -0.45409,-0.498393 -1.20722,-0.498393 -0.8528,0 -1.36781,0.48178 -0.50946,0.481779 -0.58699,1.356735 z"
           style="stroke-width:0.264583"
           id="path57" />
      </g>
    </g>
  </g>
</svg>
