<?xml version="1.0" encoding="UTF-8" standalone="no"?>
<svg
   xmlns:dc="http://purl.org/dc/elements/1.1/"
   xmlns:cc="http://creativecommons.org/ns#"
   xmlns:rdf="http://www.w3.org/1999/02/22-rdf-syntax-ns#"
   xmlns:svg="http://www.w3.org/2000/svg"
   xmlns="http://www.w3.org/2000/svg"
   xmlns:sodipodi="http://sodipodi.sourceforge.net/DTD/sodipodi-0.dtd"
   xmlns:inkscape="http://www.inkscape.org/namespaces/inkscape"
   viewBox="0 0 640 640"
   height="640"
   width="640"
   xml:space="preserve"
   version="1.1"
   id="svg4198"
   sodipodi:docname="carsensors.svg"
   inkscape:version="1.0 (1.0+r73+1)"><sodipodi:namedview
     pagecolor="#ffffff"
     bordercolor="#666666"
     borderopacity="1"
     objecttolerance="10"
     gridtolerance="10"
     guidetolerance="10"
     inkscape:pageopacity="0"
     inkscape:pageshadow="2"
     inkscape:window-width="1600"
     inkscape:window-height="850"
     id="namedview34"
     showgrid="true"
     inkscape:snap-global="false"
     inkscape:zoom="4"
     inkscape:cx="311.62262"
     inkscape:cy="109.69757"
     inkscape:window-x="0"
     inkscape:window-y="0"
     inkscape:window-maximized="1"
     inkscape:current-layer="svg4198"
     inkscape:document-rotation="0"
     showguides="false"><inkscape:grid
       type="xygrid"
       id="grid1127" /></sodipodi:namedview><metadata
     id="metadata4204"><rdf:RDF><cc:Work
         rdf:about=""><dc:format>image/svg+xml</dc:format><dc:type
           rdf:resource="http://purl.org/dc/dcmitype/StillImage" /><dc:title></dc:title></cc:Work></rdf:RDF></metadata><defs
     id="defs4202"><clipPath
       id="clipPath4212"
       clipPathUnits="userSpaceOnUse"><path
         id="path4214"
         d="M 0,512 512,512 512,0 0,0 0,512 Z" /></clipPath></defs><g
     id="text1153"
     style="font-size:26.6667px;line-height:1.25;font-family:sans-serif;-inkscape-font-specification:sans-serif" /><g
     id="g1277"
     transform="translate(-120.01935,18.392578)" /><g
     transform="matrix(0.63843796,0,0,-0.63843796,170.45832,349.46928)"
     id="g4206"><g
       id="g4208"><g
         clip-path="url(#clipPath4212)"
         id="g4210"><g
           transform="translate(254.8198,324.9283)"
           id="g4216"><path
             id="path4218"
             style="fill:#cccccc;fill-opacity:1;fill-rule:nonzero;stroke:none"
             d="m 0,0 -189.736,-203.062 c -10.587,-11.33 -4.928,-29.873 10.181,-33.361 L 24.448,-283.52 c 7.001,-1.617 14.333,0.621 19.238,5.871 l 181.81,194.579 c 10.587,11.33 4.928,29.873 -10.181,33.361 z" /></g><g
           transform="translate(268.8204,67.1462)"
           id="g4220"><path
             id="path4222"
             style="fill:#272425;fill-opacity:1;fill-rule:nonzero;stroke:none"
             d="m 0,0 27.291,-4.666 c 3.458,-0.591 7.019,-0.488 10.457,0.302 l 2.007,0.462 -14.808,38.917 z" /></g><g
           transform="translate(403.75,205.8333)"
           id="g4224"><path
             id="path4226"
             style="fill:#272425;fill-opacity:1;fill-rule:nonzero;stroke:none"
             d="m 0,0 24.276,-4.353 c 3.076,-0.552 6.233,-0.456 9.27,0.282 l 1.773,0.431 -13.736,36.307 z" /></g><g
           transform="translate(283.8443,71.1198)"
           id="g4228"><path
             id="path4230"
             style="fill:#8e3531;fill-opacity:1;fill-rule:nonzero;stroke:none"
             d="M 0,0 C -3.776,-4.102 -9.44,-5.899 -14.89,-4.725 L -132.594,20.63 -236.376,48.036 c -6.907,1.824 -11.718,8.071 -11.718,15.214 v 44.327 c 0,4.933 1.406,9.764 4.053,13.927 l 40.023,62.945 c 8.434,13.264 17.976,25.789 28.523,37.443 l 81.901,90.488 66.497,58.597 c 5.866,5.169 13.716,7.483 21.448,6.322 l 37.532,-5.636 c 15.67,-2.354 31.204,-5.544 46.534,-9.558 l 45.739,-11.975 51.694,-24.487 c 6.194,-2.933 10.276,-9.03 10.63,-15.874 l 4.676,-90.389 -34.012,-38.969 -17.322,-28.531 z" /></g><g
           transform="translate(376.7026,374.9453)"
           id="g4232"><path
             id="path4234"
             style="fill:#272425;fill-opacity:1;fill-rule:nonzero;stroke:none"
             d="m 0,0 27.049,-68.473 c 0.356,-0.901 0.168,-1.926 -0.486,-2.642 l -47.723,-52.301 c -6.409,-7.025 -18.054,-1.648 -16.865,7.787 l 11.085,87.88 c 0.601,4.767 2.806,9.189 6.251,12.538 L -4.128,0.887 C -2.83,2.149 -0.665,1.684 0,0" /></g><g
           transform="translate(383.4201,384.1104)"
           id="g4236"><path
             id="path4238"
             style="fill:#272425;fill-opacity:1;fill-rule:nonzero;stroke:none"
             d="m 0,0 28.262,-61.502 c 0.792,-1.724 3.128,-2 4.301,-0.507 l 23.467,29.882 c 5.992,7.629 5.237,18.555 -1.746,25.289 L 29.403,17.151 C 25.5,20.914 19.321,20.92 15.411,17.164 L 0.548,2.889 C -0.231,2.141 -0.451,0.982 0,0" /></g><g
           transform="translate(324.4084,213.9458)"
           id="g4240"><path
             id="path4242"
             style="fill:#ce5734;fill-opacity:1;fill-rule:nonzero;stroke:none"
             d="m 0,0 18.134,136.873 c 0.618,4.661 2.75,8.99 6.068,12.32 l 56.843,57.046 c 0.441,0.443 0.782,0.937 1.044,1.459 l -44.236,11.581 c -15.33,4.014 -30.864,7.204 -46.535,9.558 l -37.531,5.636 c -7.732,1.161 -15.582,-1.153 -21.448,-6.322 l -66.497,-58.597 -81.901,-90.488 c -10.547,-11.654 -20.089,-24.179 -28.523,-37.443 l -40.023,-62.945 c -1.314,-2.066 -2.32,-4.297 -3.003,-6.623 2.813,-5.823 7.935,-10.519 14.614,-12.59 l 23.353,-7.243 c 44.485,-13.796 89.673,-25.21 135.373,-34.193 l 36.25,-7.125 c 12.551,-2.467 25.319,3.098 32.056,13.972 L -0.794,-2.221 C -0.375,-1.545 -0.104,-0.788 0,0" /></g><g
           transform="translate(334.1277,345.5676)"
           id="g4244"><path
             id="path4246"
             style="fill:#272425;fill-opacity:1;fill-rule:nonzero;stroke:none"
             d="m 0,0 -15.482,-111.878 c -0.802,-5.798 -6.322,-9.722 -12.062,-8.576 l -75.733,13.84 c -20.226,3.696 -40.296,8.199 -60.162,13.497 l -62.167,16.58 c -5.159,1.274 -7.116,7.574 -3.587,11.546 l 83.654,94.147 c 2.628,2.957 6.63,4.292 10.507,3.505 L -4.339,6.123 C -1.503,5.548 0.397,2.866 0,0" /></g><g
           transform="translate(469.0438,260.4167)"
           id="g4248"><path
             id="path4250"
             style="fill:#272425;fill-opacity:1;fill-rule:nonzero;stroke:none"
             d="M 0,0 C -5.41,-32.263 -19.65,-58.318 -31.805,-58.417 -43.559,-58.512 -49.405,-32.268 -44.019,0 -38.633,32.267 -24.37,58.417 -12.214,58.417 -0.059,58.417 5.41,32.263 0,0" /></g><g
           transform="translate(465.451,258.9519)"
           id="g4252"><path
             id="path4254"
             style="fill:#808082;fill-opacity:1;fill-rule:nonzero;stroke:none"
             d="m 0,0 c -3.632,-21.658 -13.191,-39.215 -21.351,-39.215 -8.159,0 -11.83,17.557 -8.199,39.215 3.632,21.658 13.191,39.215 21.351,39.215 C -0.039,39.215 3.632,21.658 0,0" /></g><g
           transform="translate(343.4625,125.653)"
           id="g4256"><path
             id="path4258"
             style="fill:#272425;fill-opacity:1;fill-rule:nonzero;stroke:none"
             d="M 0,0 C -6.703,-34.582 -23.247,-62.509 -36.954,-62.616 -50.209,-62.718 -56.31,-34.588 -49.633,0 -42.956,34.586 -26.385,62.616 -12.679,62.616 1.027,62.616 6.703,34.582 0,0" /></g><g
           transform="translate(339.3841,124.083)"
           id="g4260"><path
             id="path4262"
             style="fill:#808082;fill-opacity:1;fill-rule:nonzero;stroke:none"
             d="m 0,0 c -4.5,-23.214 -15.606,-42.033 -24.807,-42.033 -9.201,0 -13.011,18.819 -8.511,42.033 4.5,23.214 15.606,42.033 24.807,42.033 C 0.689,42.033 4.5,23.214 0,0" /></g></g></g></g><path
     style="fill:none;stroke:#000000;stroke-width:1px;stroke-linecap:butt;stroke-linejoin:miter;stroke-opacity:1"
     d="M 251.28,284.44424 H 127.96947"
     id="path1129" /><path
     style="fill:none;stroke:#000000;stroke-width:1px;stroke-linecap:butt;stroke-linejoin:miter;stroke-opacity:1"
     d="M 328.46182,104.43899 H 207.00908"
     id="path1131"
     sodipodi:nodetypes="cc" /><path
     style="fill:none;stroke:#000000;stroke-width:1px;stroke-linecap:butt;stroke-linejoin:miter;stroke-opacity:1"
     d="m 341.44463,111.16045 -13.73345,9.08972 H 206.74501"
     id="path1141"
     sodipodi:nodetypes="ccc" /><path
     style="fill:none;stroke:#000000;stroke-width:1px;stroke-linecap:butt;stroke-linejoin:miter;stroke-opacity:1"
     d="m 349.08864,113.79219 v 20.0369 H 206.72165"
     id="path1143"
     sodipodi:nodetypes="ccc" /><path
     style="fill:none;stroke:#000000;stroke-width:1px;stroke-linecap:butt;stroke-linejoin:miter;stroke-opacity:1"
     d="m 410.58066,100.94083 12.28275,19.57729 H 533.8339"
     id="path1147" /><path
     style="fill:none;stroke:#000000;stroke-width:1px;stroke-linecap:butt;stroke-linejoin:miter;stroke-opacity:1"
     d="m 401.69552,108.58733 17.87477,38.20912 h 113.36427"
     id="path1149" /><g
     id="g1339"
     transform="matrix(0.73862624,0,0,0.73862624,157.64143,7.555123)"><path
       id="rect1260"
       style="opacity:0.707;fill:#fabe50;fill-opacity:1;stroke:#000000;stroke-width:0.997513;stop-color:#000000"
       d="m 369.05999,317.25482 h 181.621 c 2.84636,0 5.13784,2.29148 5.13784,5.13784 v 89.55262 c 0,2.84636 -2.29148,5.13784 -5.13784,5.13784 h -181.621 c -2.84636,0 -5.13784,-2.29148 -5.13784,-5.13784 v -89.55262 c 0,-2.84636 2.29148,-5.13784 5.13784,-5.13784 z" /><g
       aria-label="Segmented camera (SC)"
       id="text1153-3"
       style="font-size:14.6667px;line-height:1.25;font-family:sans-serif;-inkscape-font-specification:sans-serif"><path
         d="m 380.49448,330.79515 v 1.41081 q -0.82357,-0.39388 -1.55404,-0.58724 -0.73047,-0.19336 -1.41081,-0.19336 -1.18164,0 -1.82617,0.45834 -0.63737,0.45833 -0.63737,1.30339 0,0.70898 0.42252,1.07422 0.42969,0.35807 1.6185,0.58008 l 0.8737,0.17903 q 1.61849,0.30795 2.38477,1.08855 0.77344,0.77344 0.77344,2.07682 0,1.55404 -1.04558,2.35613 -1.03841,0.80208 -3.05079,0.80208 -0.75911,0 -1.61849,-0.17187 -0.85222,-0.17188 -1.76888,-0.50847 v -1.48958 q 0.88086,0.49414 1.72591,0.74479 0.84506,0.25065 1.66146,0.25065 1.23894,0 1.91212,-0.48698 0.67318,-0.48698 0.67318,-1.38932 0,-0.78777 -0.48698,-1.23178 -0.47982,-0.44401 -1.58269,-0.66601 l -0.88086,-0.17188 q -1.6185,-0.32227 -2.3418,-1.00977 -0.72331,-0.6875 -0.72331,-1.91211 0,-1.41797 0.99544,-2.23438 1.00261,-0.81641 2.75717,-0.81641 0.75195,0 1.53256,0.13607 0.7806,0.13607 1.597,0.4082 z"
         style="font-size:14.6667px"
         id="path1830" /><path
         d="m 390.19828,336.79647 v 0.64453 h -6.0586 q 0.0859,1.36068 0.8164,2.07683 0.73764,0.70898 2.04818,0.70898 0.75912,0 1.46811,-0.18619 0.71614,-0.1862 1.41797,-0.5586 v 1.2461 q -0.70899,0.30078 -1.45378,0.45833 -0.74479,0.15755 -1.51107,0.15755 -1.91928,0 -3.04363,-1.11719 -1.11719,-1.11719 -1.11719,-3.02214 0,-1.9694 1.0599,-3.1224 1.06706,-1.16016 2.87175,-1.16016 1.61849,0 2.55665,1.04558 0.94531,1.03841 0.94531,2.82878 z m -1.31771,-0.38672 q -0.0143,-1.08138 -0.60872,-1.72592 -0.58724,-0.64453 -1.56121,-0.64453 -1.10286,0 -1.76888,0.62305 -0.65886,0.62305 -0.75912,1.75456 z"
         style="font-size:14.6667px"
         id="path1832" /><path
         d="m 397.63906,337.0328 q 0,-1.4323 -0.59441,-2.22006 -0.58724,-0.78776 -1.6543,-0.78776 -1.0599,0 -1.6543,0.78776 -0.58724,0.78776 -0.58724,2.22006 0,1.42513 0.58724,2.21289 0.5944,0.78776 1.6543,0.78776 1.06706,0 1.6543,-0.78776 0.59441,-0.78776 0.59441,-2.21289 z m 1.31771,3.10808 q 0,2.04818 -0.90951,3.04362 -0.90951,1.00261 -2.78581,1.00261 -0.69467,0 -1.31055,-0.10742 -0.61589,-0.10026 -1.19597,-0.31511 v -1.2819 q 0.58008,0.3151 1.14584,0.4655 0.56575,0.15039 1.15299,0.15039 1.29623,0 1.94076,-0.68034 0.64454,-0.67318 0.64454,-2.04102 v -0.6517 q -0.40821,0.70899 -1.04558,1.0599 -0.63737,0.35091 -1.52539,0.35091 -1.47527,0 -2.37761,-1.12435 -0.90235,-1.12435 -0.90235,-2.97917 0,-1.86199 0.90235,-2.98634 0.90234,-1.12435 2.37761,-1.12435 0.88802,0 1.52539,0.35091 0.63737,0.35091 1.04558,1.0599 v -1.21745 h 1.31771 z"
         style="font-size:14.6667px"
         id="path1834" /><path
         d="m 407.91577,334.65519 q 0.49414,-0.88803 1.18165,-1.31055 0.6875,-0.42253 1.61849,-0.42253 1.25326,0 1.9336,0.88086 0.68034,0.8737 0.68034,2.4922 v 4.84115 h -1.32488 v -4.79819 q 0,-1.15299 -0.4082,-1.71159 -0.4082,-0.55859 -1.2461,-0.55859 -1.02409,0 -1.61849,0.68034 -0.5944,0.68034 -0.5944,1.85482 v 4.53321 h -1.32488 v -4.79819 q 0,-1.16016 -0.4082,-1.71159 -0.4082,-0.55859 -1.26042,-0.55859 -1.00977,0 -1.60417,0.6875 -0.5944,0.68034 -0.5944,1.84766 v 4.53321 h -1.32487 v -8.02085 h 1.32487 v 1.2461 q 0.45117,-0.73764 1.08138,-1.08855 0.63021,-0.35091 1.49675,-0.35091 0.8737,0 1.48242,0.44401 0.61589,0.44401 0.90951,1.28907 z"
         style="font-size:14.6667px"
         id="path1836" /><path
         d="m 422.82596,336.79647 v 0.64453 h -6.0586 q 0.0859,1.36068 0.8164,2.07683 0.73764,0.70898 2.04819,0.70898 0.75911,0 1.4681,-0.18619 0.71615,-0.1862 1.41797,-0.5586 v 1.2461 q -0.70898,0.30078 -1.45378,0.45833 -0.74479,0.15755 -1.51107,0.15755 -1.91927,0 -3.04363,-1.11719 -1.11719,-1.11719 -1.11719,-3.02214 0,-1.9694 1.0599,-3.1224 1.06706,-1.16016 2.87175,-1.16016 1.6185,0 2.55665,1.04558 0.94531,1.03841 0.94531,2.82878 z m -1.31771,-0.38672 q -0.0143,-1.08138 -0.60872,-1.72592 -0.58724,-0.64453 -1.5612,-0.64453 -1.10287,0 -1.76889,0.62305 -0.65885,0.62305 -0.75911,1.75456 z"
         style="font-size:14.6667px"
         id="path1838" /><path
         d="m 431.65606,336.29517 v 4.84115 h -1.31771 v -4.79819 q 0,-1.13867 -0.44401,-1.70443 -0.44401,-0.56575 -1.33204,-0.56575 -1.06706,0 -1.68294,0.68034 -0.61589,0.68034 -0.61589,1.85482 v 4.53321 h -1.32487 v -8.02085 h 1.32487 v 1.2461 q 0.47266,-0.72331 1.11003,-1.08139 0.64453,-0.35807 1.48242,-0.35807 1.38217,0 2.09116,0.85938 0.70898,0.85221 0.70898,2.51368 z"
         style="font-size:14.6667px"
         id="path1840" /><path
         d="m 435.60203,330.83812 v 2.27735 h 2.7142 v 1.02409 h -2.7142 v 4.35418 q 0,0.98112 0.26498,1.26042 0.27213,0.27929 1.0957,0.27929 h 1.35352 v 1.10287 h -1.35352 q -1.52539,0 -2.10547,-0.56575 -0.58008,-0.57292 -0.58008,-2.07683 v -4.35418 h -0.9668 v -1.02409 h 0.9668 v -2.27735 z"
         style="font-size:14.6667px"
         id="path1842" /><path
         d="m 446.91717,336.79647 v 0.64453 h -6.05861 q 0.0859,1.36068 0.81641,2.07683 0.73763,0.70898 2.04818,0.70898 0.75911,0 1.4681,-0.18619 0.71615,-0.1862 1.41797,-0.5586 v 1.2461 q -0.70898,0.30078 -1.45378,0.45833 -0.74479,0.15755 -1.51107,0.15755 -1.91927,0 -3.04362,-1.11719 -1.11719,-1.11719 -1.11719,-3.02214 0,-1.9694 1.05989,-3.1224 1.06706,-1.16016 2.87176,-1.16016 1.61849,0 2.55664,1.04558 0.94532,1.03841 0.94532,2.82878 z m -1.31772,-0.38672 q -0.0143,-1.08138 -0.60872,-1.72592 -0.58724,-0.64453 -1.5612,-0.64453 -1.10287,0 -1.76889,0.62305 -0.65885,0.62305 -0.75911,1.75456 z"
         style="font-size:14.6667px"
         id="path1844" /><path
         d="m 454.35794,334.33292 v -4.33985 h 1.31771 v 11.14325 h -1.31771 v -1.20313 q -0.41536,0.71615 -1.05274,1.06706 -0.63021,0.34375 -1.51823,0.34375 -1.45378,0 -2.37045,-1.16015 -0.9095,-1.16016 -0.9095,-3.05079 0,-1.89063 0.9095,-3.05079 0.91667,-1.16016 2.37045,-1.16016 0.88802,0 1.51823,0.35091 0.63738,0.34375 1.05274,1.0599 z m -4.49024,2.80014 q 0,1.45378 0.5944,2.28451 0.60156,0.82357 1.64714,0.82357 1.04557,0 1.64714,-0.82357 0.60156,-0.83073 0.60156,-2.28451 0,-1.45378 -0.60156,-2.27735 -0.60157,-0.83073 -1.64714,-0.83073 -1.04558,0 -1.64714,0.83073 -0.5944,0.82357 -0.5944,2.27735 z"
         style="font-size:14.6667px"
         id="path1846" /><path
         d="m 468.83128,333.42341 v 1.23178 q -0.5586,-0.30795 -1.12435,-0.45834 -0.5586,-0.15755 -1.13152,-0.15755 -1.2819,0 -1.99089,0.81641 -0.70898,0.80925 -0.70898,2.27735 0,1.4681 0.70898,2.28451 0.70899,0.80924 1.99089,0.80924 0.57292,0 1.13152,-0.15039 0.56575,-0.15755 1.12435,-0.46549 v 1.21745 q -0.55144,0.25781 -1.14584,0.38672 -0.58724,0.1289 -1.25326,0.1289 -1.81185,0 -2.87891,-1.13867 -1.06706,-1.13867 -1.06706,-3.07227 0,-1.96225 1.07422,-3.0866 1.08138,-1.12435 2.95769,-1.12435 0.60873,0 1.18881,0.12891 0.58008,0.12174 1.12435,0.37239 z"
         style="font-size:14.6667px"
         id="path1848" /><path
         d="m 474.78246,337.10441 q -1.59701,0 -2.2129,0.36524 -0.61588,0.36523 -0.61588,1.24609 0,0.70183 0.45833,1.11719 0.4655,0.40821 1.26042,0.40821 1.09571,0 1.75456,-0.77344 0.66602,-0.7806 0.66602,-2.06967 v -0.29362 z m 2.62826,-0.54427 v 4.57618 h -1.31771 v -1.21745 q -0.45117,0.73047 -1.12435,1.08138 -0.67318,0.34375 -1.64714,0.34375 -1.23178,0 -1.96225,-0.6875 -0.7233,-0.69466 -0.7233,-1.85482 0,-1.35352 0.90234,-2.04102 0.90951,-0.6875 2.70704,-0.6875 h 1.84766 v -0.12891 q 0,-0.9095 -0.60156,-1.40365 -0.59441,-0.5013 -1.67579,-0.5013 -0.6875,0 -1.3392,0.16471 -0.65169,0.16472 -1.25325,0.49415 v -1.21745 q 0.72331,-0.2793 1.40365,-0.41537 0.68034,-0.14323 1.32487,-0.14323 1.74024,0 2.59961,0.90235 0.85938,0.90234 0.85938,2.73568 z"
         style="font-size:14.6667px"
         id="path1850" /><path
         d="m 486.37689,334.65519 q 0.49414,-0.88803 1.18164,-1.31055 0.6875,-0.42253 1.61849,-0.42253 1.25326,0 1.9336,0.88086 0.68034,0.8737 0.68034,2.4922 v 4.84115 h -1.32487 v -4.79819 q 0,-1.15299 -0.40821,-1.71159 -0.4082,-0.55859 -1.24609,-0.55859 -1.02409,0 -1.6185,0.68034 -0.5944,0.68034 -0.5944,1.85482 v 4.53321 h -1.32487 v -4.79819 q 0,-1.16016 -0.4082,-1.71159 -0.40821,-0.55859 -1.26042,-0.55859 -1.00977,0 -1.60417,0.6875 -0.59441,0.68034 -0.59441,1.84766 v 4.53321 h -1.32487 v -8.02085 h 1.32487 v 1.2461 q 0.45118,-0.73764 1.08139,-1.08855 0.63021,-0.35091 1.49674,-0.35091 0.8737,0 1.48243,0.44401 0.61589,0.44401 0.90951,1.28907 z"
         style="font-size:14.6667px"
         id="path1852" /><path
         d="m 501.28708,336.79647 v 0.64453 h -6.05861 q 0.0859,1.36068 0.81641,2.07683 0.73763,0.70898 2.04818,0.70898 0.75912,0 1.4681,-0.18619 0.71615,-0.1862 1.41797,-0.5586 v 1.2461 q -0.70898,0.30078 -1.45378,0.45833 -0.74479,0.15755 -1.51107,0.15755 -1.91927,0 -3.04362,-1.11719 -1.11719,-1.11719 -1.11719,-3.02214 0,-1.9694 1.05989,-3.1224 1.06706,-1.16016 2.87176,-1.16016 1.61849,0 2.55664,1.04558 0.94532,1.03841 0.94532,2.82878 z m -1.31771,-0.38672 q -0.0143,-1.08138 -0.60873,-1.72592 -0.58724,-0.64453 -1.5612,-0.64453 -1.10287,0 -1.76889,0.62305 -0.65885,0.62305 -0.75911,1.75456 z"
         style="font-size:14.6667px"
         id="path1854" /><path
         d="m 508.09765,334.34724 q -0.22201,-0.1289 -0.48698,-0.18619 -0.25781,-0.0645 -0.57292,-0.0645 -1.11719,0 -1.71875,0.73047 -0.5944,0.72331 -0.5944,2.08399 v 4.22527 h -1.32488 v -8.02085 h 1.32488 v 1.2461 q 0.41536,-0.73047 1.08138,-1.08139 0.66601,-0.35807 1.61849,-0.35807 0.13607,0 0.30078,0.0215 0.16472,0.0143 0.36524,0.0501 z"
         style="font-size:14.6667px"
         id="path1856" /><path
         d="m 513.13932,337.10441 q -1.597,0 -2.21289,0.36524 -0.61589,0.36523 -0.61589,1.24609 0,0.70183 0.45834,1.11719 0.46549,0.40821 1.26042,0.40821 1.0957,0 1.75456,-0.77344 0.66601,-0.7806 0.66601,-2.06967 v -0.29362 z m 2.62827,-0.54427 v 4.57618 h -1.31772 v -1.21745 q -0.45117,0.73047 -1.12435,1.08138 -0.67318,0.34375 -1.64714,0.34375 -1.23177,0 -1.96224,-0.6875 -0.72331,-0.69466 -0.72331,-1.85482 0,-1.35352 0.90235,-2.04102 0.9095,-0.6875 2.70703,-0.6875 h 1.84766 v -0.12891 q 0,-0.9095 -0.60156,-1.40365 -0.5944,-0.5013 -1.67578,-0.5013 -0.68751,0 -1.3392,0.16471 -0.65169,0.16472 -1.25326,0.49415 v -1.21745 q 0.72331,-0.2793 1.40365,-0.41537 0.68034,-0.14323 1.32487,-0.14323 1.74024,0 2.59962,0.90235 0.85938,0.90234 0.85938,2.73568 z"
         style="font-size:14.6667px"
         id="path1858" /><path
         d="m 526.3236,330.00739 q -0.95964,1.64714 -1.42513,3.25847 -0.4655,1.61133 -0.4655,3.26563 0,1.6543 0.4655,3.27996 0.47265,1.61849 1.42513,3.25847 h -1.14584 q -1.07422,-1.68295 -1.61133,-3.3086 -0.52995,-1.62566 -0.52995,-3.22983 0,-1.59701 0.52995,-3.2155 0.52995,-1.61849 1.61133,-3.3086 z"
         style="font-size:14.6667px"
         id="path1860" /><path
         d="m 535.35421,330.79515 v 1.41081 q -0.82357,-0.39388 -1.55404,-0.58724 -0.73047,-0.19336 -1.41081,-0.19336 -1.18164,0 -1.82618,0.45834 -0.63737,0.45833 -0.63737,1.30339 0,0.70898 0.42253,1.07422 0.42969,0.35807 1.61849,0.58008 l 0.8737,0.17903 q 1.6185,0.30795 2.38477,1.08855 0.77344,0.77344 0.77344,2.07682 0,1.55404 -1.04557,2.35613 -1.03842,0.80208 -3.05079,0.80208 -0.75912,0 -1.61849,-0.17187 -0.85222,-0.17188 -1.76889,-0.50847 v -1.48958 q 0.88086,0.49414 1.72592,0.74479 0.84505,0.25065 1.66146,0.25065 1.23893,0 1.91211,-0.48698 0.67318,-0.48698 0.67318,-1.38932 0,-0.78777 -0.48698,-1.23178 -0.47982,-0.44401 -1.58268,-0.66601 l -0.88087,-0.17188 q -1.61849,-0.32227 -2.3418,-1.00977 -0.72331,-0.6875 -0.72331,-1.91211 0,-1.41797 0.99545,-2.23438 1.0026,-0.81641 2.75717,-0.81641 0.75195,0 1.53255,0.13607 0.7806,0.13607 1.59701,0.4082 z"
         style="font-size:14.6667px"
         id="path1862" /><path
         d="m 546.26114,331.26781 v 1.52539 q -0.73047,-0.68034 -1.5612,-1.01693 -0.82357,-0.33658 -1.75456,-0.33658 -1.83334,0 -2.8073,1.12435 -0.97396,1.11719 -0.97396,3.23698 0,2.11264 0.97396,3.23699 0.97396,1.11719 2.8073,1.11719 0.93099,0 1.75456,-0.33659 0.83073,-0.33659 1.5612,-1.01693 v 1.51107 q -0.75912,0.51563 -1.61133,0.77344 -0.84506,0.25781 -1.79037,0.25781 -2.42774,0 -3.82423,-1.48242 -1.39649,-1.48959 -1.39649,-4.06056 0,-2.57813 1.39649,-4.06055 1.39649,-1.48959 3.82423,-1.48959 0.95964,0 1.80469,0.25781 0.85222,0.25066 1.59701,0.75912 z"
         style="font-size:14.6667px"
         id="path1864" /><path
         d="m 548.24487,330.00739 h 1.14584 q 1.07422,1.69011 1.60417,3.3086 0.53711,1.61849 0.53711,3.2155 0,1.60417 -0.53711,3.22983 -0.52995,1.62565 -1.60417,3.3086 h -1.14584 q 0.95248,-1.63998 1.41797,-3.25847 0.47266,-1.62566 0.47266,-3.27996 0,-1.6543 -0.47266,-3.26563 -0.46549,-1.61133 -1.41797,-3.25847 z"
         style="font-size:14.6667px"
         id="path1866" /></g><g
       aria-label="Depth Camera(DC)"
       id="text1185"
       style="font-size:14.6667px;line-height:1.25;font-family:sans-serif;-inkscape-font-specification:sans-serif"><path
         d="m 374.67221,363.19527 v 8.31447 h 1.7474 q 2.21289,0 3.23698,-1.0026 1.03126,-1.00261 1.03126,-3.16538 0,-2.14844 -1.03126,-3.14388 -1.02409,-1.00261 -3.23698,-1.00261 z m -1.44662,-1.1888 h 2.97201 q 3.10808,0 4.56186,1.29622 1.45378,1.28907 1.45378,4.03907 0,2.76433 -1.46094,4.06056 -1.46094,1.29623 -4.5547,1.29623 h -2.97201 z"
         style="font-size:14.6667px"
         id="path1869" /><path
         d="m 391.31548,368.35869 v 0.64454 h -6.05861 q 0.0859,1.36068 0.81641,2.07682 0.73763,0.70899 2.04818,0.70899 0.75911,0 1.4681,-0.1862 0.71615,-0.1862 1.41797,-0.55859 v 1.24609 q -0.70898,0.30079 -1.45378,0.45834 -0.74479,0.15755 -1.51107,0.15755 -1.91927,0 -3.04363,-1.11719 -1.11719,-1.11719 -1.11719,-3.02214 0,-1.96941 1.0599,-3.12241 1.06706,-1.16015 2.87175,-1.16015 1.6185,0 2.55665,1.04557 0.94532,1.03841 0.94532,2.82878 z m -1.31772,-0.38672 q -0.0143,-1.08138 -0.60872,-1.72591 -0.58724,-0.64453 -1.5612,-0.64453 -1.10287,0 -1.76889,0.62304 -0.65885,0.62305 -0.75911,1.75457 z"
         style="font-size:14.6667px"
         id="path1871" /><path
         d="m 394.75298,371.49542 v 4.25392 h -1.32487 V 364.6777 h 1.32487 v 1.21745 q 0.41537,-0.71615 1.04558,-1.0599 0.63737,-0.35091 1.51823,-0.35091 1.46094,0 2.37045,1.16015 0.91667,1.16016 0.91667,3.05079 0,1.89063 -0.91667,3.05079 -0.90951,1.16016 -2.37045,1.16016 -0.88086,0 -1.51823,-0.34375 -0.63021,-0.35091 -1.04558,-1.06706 z m 4.48309,-2.80014 q 0,-1.45378 -0.60157,-2.27735 -0.5944,-0.83073 -1.63997,-0.83073 -1.04558,0 -1.64714,0.83073 -0.59441,0.82357 -0.59441,2.27735 0,1.45378 0.59441,2.28451 0.60156,0.82357 1.64714,0.82357 1.04557,0 1.63997,-0.82357 0.60157,-0.83073 0.60157,-2.28451 z"
         style="font-size:14.6667px"
         id="path1873" /><path
         d="m 404.09155,362.40035 v 2.27735 h 2.7142 v 1.02409 h -2.7142 v 4.35417 q 0,0.98113 0.26497,1.26042 0.27214,0.2793 1.09571,0.2793 h 1.35352 v 1.10287 h -1.35352 q -1.5254,0 -2.10548,-0.56576 -0.58008,-0.57292 -0.58008,-2.07683 v -4.35417 h -0.96679 v -1.02409 h 0.96679 v -2.27735 z"
         style="font-size:14.6667px"
         id="path1875" /><path
         d="m 415.21332,367.85739 v 4.84116 h -1.31772 v -4.79819 q 0,-1.13868 -0.44401,-1.70443 -0.44401,-0.56576 -1.33203,-0.56576 -1.06706,0 -1.68295,0.68034 -0.61588,0.68034 -0.61588,1.85482 v 4.53322 h -1.32488 v -11.14326 h 1.32488 v 4.3685 q 0.47265,-0.72331 1.11002,-1.08138 0.64454,-0.35807 1.48243,-0.35807 1.38216,0 2.09115,0.85937 0.70899,0.85222 0.70899,2.51368 z"
         style="font-size:14.6667px"
         id="path1877" /><path
         d="m 430.589,362.83004 v 1.52539 q -0.73047,-0.68034 -1.5612,-1.01693 -0.82357,-0.33659 -1.75456,-0.33659 -1.83334,0 -2.8073,1.12435 -0.97396,1.11719 -0.97396,3.23699 0,2.11263 0.97396,3.23699 0.97396,1.11719 2.8073,1.11719 0.93099,0 1.75456,-0.33659 0.83073,-0.33659 1.5612,-1.01693 v 1.51107 q -0.75911,0.51562 -1.61133,0.77344 -0.84505,0.25781 -1.79037,0.25781 -2.42774,0 -3.82423,-1.48243 -1.39648,-1.48958 -1.39648,-4.06055 0,-2.57813 1.39648,-4.06056 1.39649,-1.48958 3.82423,-1.48958 0.95964,0 1.80469,0.25781 0.85222,0.25065 1.59701,0.75912 z"
         style="font-size:14.6667px"
         id="path1879" /><path
         d="m 436.42561,368.66664 q -1.59701,0 -2.2129,0.36523 -0.61589,0.36524 -0.61589,1.2461 0,0.70182 0.45834,1.11719 0.46549,0.4082 1.26042,0.4082 1.0957,0 1.75456,-0.77344 0.66602,-0.7806 0.66602,-2.06966 v -0.29362 z m 2.62826,-0.54428 v 4.57619 h -1.31771 v -1.21745 q -0.45118,0.73047 -1.12436,1.08138 -0.67317,0.34375 -1.64713,0.34375 -1.23178,0 -1.96225,-0.6875 -0.72331,-0.69466 -0.72331,-1.85482 0,-1.35352 0.90235,-2.04102 0.90951,-0.68751 2.70704,-0.68751 h 1.84766 v -0.1289 q 0,-0.90951 -0.60157,-1.40365 -0.5944,-0.5013 -1.67578,-0.5013 -0.6875,0 -1.3392,0.16471 -0.65169,0.16471 -1.25326,0.49414 v -1.21745 q 0.72331,-0.2793 1.40365,-0.41536 0.68034,-0.14323 1.32487,-0.14323 1.74024,0 2.59962,0.90234 0.85938,0.90235 0.85938,2.73568 z"
         style="font-size:14.6667px"
         id="path1881" /><path
         d="m 448.02003,366.21741 q 0.49414,-0.88802 1.18164,-1.31055 0.6875,-0.42252 1.6185,-0.42252 1.25325,0 1.93359,0.88086 0.68034,0.8737 0.68034,2.49219 v 4.84116 h -1.32487 v -4.79819 q 0,-1.153 -0.4082,-1.71159 -0.40821,-0.5586 -1.2461,-0.5586 -1.02409,0 -1.61849,0.68034 -0.5944,0.68034 -0.5944,1.85482 v 4.53322 h -1.32488 v -4.79819 q 0,-1.16016 -0.4082,-1.71159 -0.40821,-0.5586 -1.26042,-0.5586 -1.00977,0 -1.60417,0.6875 -0.5944,0.68034 -0.5944,1.84766 v 4.53322 h -1.32488 v -8.02085 h 1.32488 v 1.24609 q 0.45117,-0.73763 1.08138,-1.08854 0.63021,-0.35091 1.49675,-0.35091 0.8737,0 1.48242,0.44401 0.61589,0.44401 0.90951,1.28906 z"
         style="font-size:14.6667px"
         id="path1883" /><path
         d="m 462.93022,368.35869 v 0.64454 h -6.05861 q 0.0859,1.36068 0.81641,2.07682 0.73763,0.70899 2.04818,0.70899 0.75912,0 1.4681,-0.1862 0.71615,-0.1862 1.41798,-0.55859 v 1.24609 q -0.70899,0.30079 -1.45378,0.45834 -0.7448,0.15755 -1.51107,0.15755 -1.91928,0 -3.04363,-1.11719 -1.11719,-1.11719 -1.11719,-3.02214 0,-1.96941 1.0599,-3.12241 1.06706,-1.16015 2.87175,-1.16015 1.61849,0 2.55665,1.04557 0.94531,1.03841 0.94531,2.82878 z m -1.31771,-0.38672 q -0.0143,-1.08138 -0.60873,-1.72591 -0.58724,-0.64453 -1.5612,-0.64453 -1.10287,0 -1.76888,0.62304 -0.65886,0.62305 -0.75912,1.75457 z"
         style="font-size:14.6667px"
         id="path1885" /><path
         d="m 469.74078,365.90947 q -0.222,-0.12891 -0.48698,-0.1862 -0.25781,-0.0645 -0.57291,-0.0645 -1.11719,0 -1.71876,0.73047 -0.5944,0.72331 -0.5944,2.08399 v 4.22527 h -1.32487 v -8.02085 h 1.32487 v 1.24609 q 0.41537,-0.73047 1.08138,-1.08138 0.66602,-0.35807 1.6185,-0.35807 0.13606,0 0.30078,0.0215 0.16471,0.0143 0.36523,0.0501 z"
         style="font-size:14.6667px"
         id="path1887" /><path
         d="m 474.78247,368.66664 q -1.59701,0 -2.2129,0.36523 -0.61589,0.36524 -0.61589,1.2461 0,0.70182 0.45834,1.11719 0.46549,0.4082 1.26042,0.4082 1.0957,0 1.75456,-0.77344 0.66602,-0.7806 0.66602,-2.06966 v -0.29362 z m 2.62826,-0.54428 v 4.57619 h -1.31771 v -1.21745 q -0.45118,0.73047 -1.12435,1.08138 -0.67318,0.34375 -1.64714,0.34375 -1.23178,0 -1.96225,-0.6875 -0.72331,-0.69466 -0.72331,-1.85482 0,-1.35352 0.90235,-2.04102 0.90951,-0.68751 2.70704,-0.68751 h 1.84766 v -0.1289 q 0,-0.90951 -0.60157,-1.40365 -0.5944,-0.5013 -1.67578,-0.5013 -0.6875,0 -1.3392,0.16471 -0.65169,0.16471 -1.25326,0.49414 v -1.21745 q 0.72331,-0.2793 1.40365,-0.41536 0.68034,-0.14323 1.32488,-0.14323 1.74023,0 2.59961,0.90234 0.85938,0.90235 0.85938,2.73568 z"
         style="font-size:14.6667px"
         id="path1889" /><path
         d="m 483.29746,361.56962 q -0.95964,1.64713 -1.42513,3.25847 -0.4655,1.61133 -0.4655,3.26563 0,1.6543 0.4655,3.27995 0.47265,1.6185 1.42513,3.25848 h -1.14584 q -1.07422,-1.68295 -1.61133,-3.30861 -0.52995,-1.62565 -0.52995,-3.22982 0,-1.59701 0.52995,-3.2155 0.52995,-1.6185 1.61133,-3.3086 z"
         style="font-size:14.6667px"
         id="path1891" /><path
         d="m 487.36518,363.19527 v 8.31447 h 1.7474 q 2.21289,0 3.23698,-1.0026 1.03126,-1.00261 1.03126,-3.16538 0,-2.14844 -1.03126,-3.14388 -1.02409,-1.00261 -3.23698,-1.00261 z m -1.44662,-1.1888 h 2.97201 q 3.10808,0 4.56186,1.29622 1.45378,1.28907 1.45378,4.03907 0,2.76433 -1.46094,4.06056 -1.46094,1.29623 -4.5547,1.29623 h -2.97201 z"
         style="font-size:14.6667px"
         id="path1893" /><path
         d="m 505.21157,362.83004 v 1.52539 q -0.73047,-0.68034 -1.5612,-1.01693 -0.82357,-0.33659 -1.75456,-0.33659 -1.83334,0 -2.8073,1.12435 -0.97396,1.11719 -0.97396,3.23699 0,2.11263 0.97396,3.23699 0.97396,1.11719 2.8073,1.11719 0.93099,0 1.75456,-0.33659 0.83073,-0.33659 1.5612,-1.01693 v 1.51107 q -0.75911,0.51562 -1.61133,0.77344 -0.84505,0.25781 -1.79037,0.25781 -2.42774,0 -3.82423,-1.48243 -1.39648,-1.48958 -1.39648,-4.06055 0,-2.57813 1.39648,-4.06056 1.39649,-1.48958 3.82423,-1.48958 0.95964,0 1.80469,0.25781 0.85222,0.25065 1.59701,0.75912 z"
         style="font-size:14.6667px"
         id="path1895" /><path
         d="m 507.19529,361.56962 h 1.14584 q 1.07422,1.6901 1.60417,3.3086 0.53711,1.61849 0.53711,3.2155 0,1.60417 -0.53711,3.22982 -0.52995,1.62566 -1.60417,3.30861 h -1.14584 q 0.95248,-1.63998 1.41798,-3.25848 0.47265,-1.62565 0.47265,-3.27995 0,-1.6543 -0.47265,-3.26563 -0.4655,-1.61134 -1.41798,-3.25847 z"
         style="font-size:14.6667px"
         id="path1897" /></g><g
       aria-label="Colour Camera(RGB)"
       id="text1189"
       style="font-size:14.6667px;line-height:1.25;font-family:sans-serif;-inkscape-font-specification:sans-serif"><path
         d="m 382.3519,395.45345 v 1.52539 q -0.73047,-0.68034 -1.5612,-1.01693 -0.82357,-0.33659 -1.75456,-0.33659 -1.83334,0 -2.8073,1.12436 -0.97396,1.11719 -0.97396,3.23698 0,2.11264 0.97396,3.23699 0.97396,1.11719 2.8073,1.11719 0.93099,0 1.75456,-0.33659 0.83073,-0.33659 1.5612,-1.01693 v 1.51107 q -0.75912,0.51563 -1.61133,0.77344 -0.84506,0.25781 -1.79037,0.25781 -2.42774,0 -3.82423,-1.48242 -1.39649,-1.48959 -1.39649,-4.06056 0,-2.57813 1.39649,-4.06055 1.39649,-1.48959 3.82423,-1.48959 0.95964,0 1.80469,0.25781 0.85222,0.25065 1.59701,0.75912 z"
         style="font-size:14.6667px"
         id="path1900" /><path
         d="m 387.65139,398.22494 q -1.0599,0 -1.67578,0.83073 -0.61589,0.82357 -0.61589,2.26303 0,1.43945 0.60872,2.27018 0.61589,0.82357 1.68295,0.82357 1.05274,0 1.66862,-0.83073 0.61589,-0.83073 0.61589,-2.26302 0,-1.42514 -0.61589,-2.25587 -0.61588,-0.83789 -1.66862,-0.83789 z m 0,-1.11719 q 1.71875,0 2.69988,1.11719 0.98112,1.11719 0.98112,3.09376 0,1.9694 -0.98112,3.09375 -0.98113,1.11719 -2.69988,1.11719 -1.72591,0 -2.70704,-1.11719 -0.97396,-1.12435 -0.97396,-3.09375 0,-1.97657 0.97396,-3.09376 0.98113,-1.11719 2.70704,-1.11719 z"
         style="font-size:14.6667px"
         id="path1902" /><path
         d="m 393.50948,394.17871 h 1.31771 v 11.14325 h -1.31771 z"
         style="font-size:14.6667px"
         id="path1904" /><path
         d="m 400.68527,398.22494 q -1.05989,0 -1.67578,0.83073 -0.61589,0.82357 -0.61589,2.26303 0,1.43945 0.60873,2.27018 0.61589,0.82357 1.68294,0.82357 1.05274,0 1.66863,-0.83073 0.61589,-0.83073 0.61589,-2.26302 0,-1.42514 -0.61589,-2.25587 -0.61589,-0.83789 -1.66863,-0.83789 z m 0,-1.11719 q 1.71876,0 2.69988,1.11719 0.98112,1.11719 0.98112,3.09376 0,1.9694 -0.98112,3.09375 -0.98112,1.11719 -2.69988,1.11719 -1.72591,0 -2.70703,-1.11719 -0.97396,-1.12435 -0.97396,-3.09375 0,-1.97657 0.97396,-3.09376 0.98112,-1.11719 2.70703,-1.11719 z"
         style="font-size:14.6667px"
         id="path1906" /><path
         d="m 406.40729,402.15659 v -4.85548 h 1.31772 v 4.80535 q 0,1.13867 0.44401,1.71159 0.44401,0.56576 1.33203,0.56576 1.06706,0 1.68295,-0.68034 0.62305,-0.68034 0.62305,-1.85482 v -4.54754 h 1.31771 v 8.02085 h -1.31771 v -1.23177 q -0.47982,0.73047 -1.11719,1.08854 -0.63021,0.35091 -1.46811,0.35091 -1.38216,0 -2.09831,-0.85937 -0.71615,-0.85938 -0.71615,-2.51368 z m 3.31577,-5.04884 z"
         style="font-size:14.6667px"
         id="path1908" /><path
         d="m 420.50108,398.53288 q -0.22201,-0.1289 -0.48698,-0.1862 -0.25782,-0.0644 -0.57292,-0.0644 -1.11719,0 -1.71876,0.73047 -0.5944,0.72331 -0.5944,2.08399 v 4.22527 h -1.32487 v -8.02085 h 1.32487 v 1.2461 q 0.41537,-0.73048 1.08138,-1.08139 0.66602,-0.35807 1.6185,-0.35807 0.13607,0 0.30078,0.0215 0.16471,0.0143 0.36524,0.0501 z"
         style="font-size:14.6667px"
         id="path1910" /><path
         d="m 434.63067,395.45345 v 1.52539 q -0.73047,-0.68034 -1.56121,-1.01693 -0.82356,-0.33659 -1.75456,-0.33659 -1.83333,0 -2.80729,1.12436 -0.97397,1.11719 -0.97397,3.23698 0,2.11264 0.97397,3.23699 0.97396,1.11719 2.80729,1.11719 0.931,0 1.75456,-0.33659 0.83074,-0.33659 1.56121,-1.01693 v 1.51107 q -0.75912,0.51563 -1.61134,0.77344 -0.84505,0.25781 -1.79036,0.25781 -2.42774,0 -3.82423,-1.48242 -1.39649,-1.48959 -1.39649,-4.06056 0,-2.57813 1.39649,-4.06055 1.39649,-1.48959 3.82423,-1.48959 0.95963,0 1.80469,0.25781 0.85221,0.25065 1.59701,0.75912 z"
         style="font-size:14.6667px"
         id="path1912" /><path
         d="m 440.46727,401.29005 q -1.59701,0 -2.2129,0.36524 -0.61589,0.36523 -0.61589,1.24609 0,0.70183 0.45834,1.11719 0.46549,0.40821 1.26042,0.40821 1.0957,0 1.75456,-0.77344 0.66602,-0.7806 0.66602,-2.06967 v -0.29362 z m 2.62826,-0.54427 v 4.57618 h -1.31771 v -1.21745 q -0.45118,0.73047 -1.12436,1.08138 -0.67317,0.34375 -1.64713,0.34375 -1.23178,0 -1.96225,-0.6875 -0.72331,-0.69466 -0.72331,-1.85482 0,-1.35352 0.90235,-2.04102 0.90951,-0.6875 2.70704,-0.6875 h 1.84766 v -0.12891 q 0,-0.90951 -0.60157,-1.40365 -0.5944,-0.5013 -1.67578,-0.5013 -0.6875,0 -1.3392,0.16471 -0.65169,0.16472 -1.25326,0.49414 v -1.21745 q 0.72331,-0.27929 1.40365,-0.41536 0.68034,-0.14323 1.32488,-0.14323 1.74023,0 2.59961,0.90234 0.85938,0.90235 0.85938,2.73569 z"
         style="font-size:14.6667px"
         id="path1914" /><path
         d="m 452.06169,398.84083 q 0.49415,-0.88803 1.18165,-1.31055 0.6875,-0.42253 1.61849,-0.42253 1.25326,0 1.9336,0.88086 0.68034,0.8737 0.68034,2.49219 v 4.84116 h -1.32487 v -4.79819 q 0,-1.153 -0.40821,-1.71159 -0.4082,-0.5586 -1.2461,-0.5586 -1.02409,0 -1.61849,0.68034 -0.5944,0.68035 -0.5944,1.85483 v 4.53321 h -1.32487 v -4.79819 q 0,-1.16016 -0.40821,-1.71159 -0.4082,-0.5586 -1.26042,-0.5586 -1.00977,0 -1.60417,0.68751 -0.5944,0.68034 -0.5944,1.84766 v 4.53321 h -1.32487 v -8.02085 h 1.32487 v 1.2461 q 0.45117,-0.73764 1.08138,-1.08855 0.63021,-0.35091 1.49675,-0.35091 0.8737,0 1.48243,0.44401 0.61588,0.44401 0.9095,1.28907 z"
         style="font-size:14.6667px"
         id="path1916" /><path
         d="m 466.97188,400.98211 v 0.64453 h -6.0586 q 0.0859,1.36068 0.8164,2.07683 0.73764,0.70898 2.04819,0.70898 0.75911,0 1.4681,-0.1862 0.71615,-0.18619 1.41797,-0.55859 v 1.2461 q -0.70899,0.30078 -1.45378,0.45833 -0.74479,0.15755 -1.51107,0.15755 -1.91927,0 -3.04363,-1.11719 -1.11719,-1.11719 -1.11719,-3.02214 0,-1.9694 1.0599,-3.1224 1.06706,-1.16016 2.87175,-1.16016 1.6185,0 2.55665,1.04557 0.94531,1.03842 0.94531,2.82879 z m -1.31771,-0.38672 q -0.0143,-1.08139 -0.60872,-1.72592 -0.58724,-0.64453 -1.5612,-0.64453 -1.10287,0 -1.76889,0.62305 -0.65885,0.62305 -0.75911,1.75456 z"
         style="font-size:14.6667px"
         id="path1918" /><path
         d="m 473.78245,398.53288 q -0.22201,-0.1289 -0.48698,-0.1862 -0.25781,-0.0644 -0.57292,-0.0644 -1.11719,0 -1.71875,0.73047 -0.59441,0.72331 -0.59441,2.08399 v 4.22527 h -1.32487 v -8.02085 h 1.32487 v 1.2461 q 0.41537,-0.73048 1.08139,-1.08139 0.66601,-0.35807 1.61849,-0.35807 0.13607,0 0.30078,0.0215 0.16472,0.0143 0.36524,0.0501 z"
         style="font-size:14.6667px"
         id="path1920" /><path
         d="m 478.82412,401.29005 q -1.59701,0 -2.21289,0.36524 -0.61589,0.36523 -0.61589,1.24609 0,0.70183 0.45834,1.11719 0.46549,0.40821 1.26041,0.40821 1.09571,0 1.75457,-0.77344 0.66601,-0.7806 0.66601,-2.06967 v -0.29362 z m 2.62826,-0.54427 v 4.57618 h -1.31771 v -1.21745 q -0.45117,0.73047 -1.12435,1.08138 -0.67318,0.34375 -1.64714,0.34375 -1.23177,0 -1.96224,-0.6875 -0.72331,-0.69466 -0.72331,-1.85482 0,-1.35352 0.90235,-2.04102 0.9095,-0.6875 2.70703,-0.6875 h 1.84766 v -0.12891 q 0,-0.90951 -0.60156,-1.40365 -0.5944,-0.5013 -1.67579,-0.5013 -0.6875,0 -1.33919,0.16471 -0.6517,0.16472 -1.25326,0.49414 v -1.21745 q 0.72331,-0.27929 1.40365,-0.41536 0.68034,-0.14323 1.32487,-0.14323 1.74024,0 2.59962,0.90234 0.85937,0.90235 0.85937,2.73569 z"
         style="font-size:14.6667px"
         id="path1922" /><path
         d="m 487.33912,394.19303 q -0.95964,1.64714 -1.42514,3.25847 -0.46549,1.61133 -0.46549,3.26563 0,1.6543 0.46549,3.27996 0.47266,1.61849 1.42514,3.25847 h -1.14584 q -1.07422,-1.68295 -1.61133,-3.3086 -0.52995,-1.62566 -0.52995,-3.22983 0,-1.59701 0.52995,-3.2155 0.52995,-1.61849 1.61133,-3.3086 z"
         style="font-size:14.6667px"
         id="path1924" /><path
         d="m 495.03055,400.30893 q 0.46549,0.15755 0.90234,0.67318 0.44402,0.51562 0.88803,1.41797 l 1.4681,2.92188 h -1.55404 l -1.36784,-2.74284 q -0.52995,-1.07423 -1.03126,-1.42514 -0.49414,-0.35091 -1.35351,-0.35091 h -1.57553 v 4.51889 h -1.44662 v -10.69208 h 3.26564 q 1.83333,0 2.73568,0.76628 0.90235,0.76627 0.90235,2.31315 0,1.00977 -0.47266,1.67579 -0.4655,0.66602 -1.36068,0.92383 z m -3.62371,-4.49025 v 3.79559 h 1.81902 q 1.04557,0 1.57552,-0.47982 0.53711,-0.48698 0.53711,-1.42514 0,-0.93815 -0.53711,-1.41081 -0.52995,-0.47982 -1.57552,-0.47982 z"
         style="font-size:14.6667px"
         id="path1926" /><path
         d="m 507.44854,403.79657 v -2.87176 h -2.36328 v -1.1888 h 3.79558 v 4.59051 q -0.8379,0.5944 -1.84766,0.90234 -1.00977,0.30078 -2.15561,0.30078 -2.50651,0 -3.92449,-1.46094 -1.41081,-1.4681 -1.41081,-4.08204 0,-2.6211 1.41081,-4.08204 1.41798,-1.4681 3.92449,-1.4681 1.04558,0 1.98373,0.25781 0.94532,0.25781 1.74024,0.75912 v 1.53972 q -0.80209,-0.68034 -1.70443,-1.0241 -0.90235,-0.34375 -1.89779,-0.34375 -1.96225,0 -2.95053,1.09571 -0.98112,1.0957 -0.98112,3.26563 0,2.16277 0.98112,3.25847 0.98828,1.09571 2.95053,1.09571 0.76628,0 1.36784,-0.12891 0.60156,-0.13607 1.08138,-0.41536 z"
         style="font-size:14.6667px"
         id="path1928" /><path
         d="m 512.9772,400.21583 v 3.91733 h 2.32032 q 1.16732,0 1.72591,-0.47982 0.56576,-0.48698 0.56576,-1.48243 0,-1.0026 -0.56576,-1.47526 -0.55859,-0.47982 -1.72591,-0.47982 z m 0,-4.39715 v 3.22267 h 2.14128 q 1.0599,0 1.57553,-0.39388 0.52278,-0.40105 0.52278,-1.21745 0,-0.80925 -0.52278,-1.21029 -0.51563,-0.40105 -1.57553,-0.40105 z m -1.44662,-1.1888 h 3.69532 q 1.6543,0 2.54949,0.6875 0.89518,0.6875 0.89518,1.95508 0,0.98112 -0.45833,1.5612 -0.45834,0.58008 -1.34636,0.72331 1.06706,0.22917 1.6543,0.95964 0.5944,0.72331 0.5944,1.81185 0,1.4323 -0.97396,2.2129 -0.97396,0.7806 -2.77149,0.7806 h -3.83855 z"
         style="font-size:14.6667px"
         id="path1930" /><path
         d="m 521.32033,394.19303 h 1.14583 q 1.07422,1.69011 1.60417,3.3086 0.53711,1.61849 0.53711,3.2155 0,1.60417 -0.53711,3.22983 -0.52995,1.62565 -1.60417,3.3086 h -1.14583 q 0.95247,-1.63998 1.41797,-3.25847 0.47265,-1.62566 0.47265,-3.27996 0,-1.6543 -0.47265,-3.26563 -0.4655,-1.61133 -1.41797,-3.25847 z"
         style="font-size:14.6667px"
         id="path1932" /></g></g><g
     aria-label="DC(L)"
     id="text1230"
     style="font-size:13.3333px;line-height:1.25;font-family:sans-serif;-inkscape-font-specification:sans-serif"><path
       d="m 170.90708,61.875515 v 7.558575 h 1.58854 q 2.01171,0 2.9427,-0.911456 0.93749,-0.911456 0.93749,-2.877597 0,-1.95312 -0.93749,-2.858066 -0.93099,-0.911456 -2.9427,-0.911456 z m -1.3151,-1.080726 h 2.70181 q 2.82552,0 4.14713,1.178382 1.32161,1.171872 1.32161,3.671866 0,2.513014 -1.32812,3.691397 -1.32812,1.178382 -4.14062,1.178382 h -2.70181 z"
       style="font-size:13.3333px"
       id="path1935" /><path
       d="M 187.13099,61.543485 V 62.9302 q -0.66406,-0.618488 -1.41926,-0.924477 -0.7487,-0.305989 -1.59505,-0.305989 -1.66666,0 -2.55208,1.022133 -0.88541,1.015623 -0.88541,2.942701 0,1.920568 0.88541,2.942701 0.88542,1.015622 2.55208,1.015622 0.84635,0 1.59505,-0.305988 0.7552,-0.305989 1.41926,-0.924477 v 1.373694 q -0.6901,0.468749 -1.46484,0.703123 -0.76822,0.234375 -1.6276,0.234375 -2.20702,0 -3.47655,-1.347653 -1.26953,-1.354163 -1.26953,-3.691397 0,-2.343744 1.26953,-3.691397 1.26953,-1.354163 3.47655,-1.354163 0.8724,0 1.64063,0.234374 0.77473,0.227864 1.45181,0.690103 z"
       style="font-size:13.3333px"
       id="path1937" /><path
       d="m 192.00077,60.397654 q -0.87239,1.497392 -1.29557,2.962232 -0.42317,1.46484 -0.42317,2.968743 0,1.503902 0.42317,2.981763 0.42969,1.471351 1.29557,2.962232 h -1.04166 q -0.97656,-1.529944 -1.46484,-3.007805 -0.48177,-1.47786 -0.48177,-2.93619 0,-1.451819 0.48177,-2.92317 0.48177,-1.47135 1.46484,-3.007805 z"
       style="font-size:13.3333px"
       id="path1939" /><path
       d="m 194.38358,60.794789 h 1.3151 v 8.613259 h 4.73306 v 1.106768 h -6.04816 z"
       style="font-size:13.3333px"
       id="path1941" /><path
       d="m 201.56455,60.397654 h 1.04166 q 0.97656,1.536455 1.45833,3.007805 0.48828,1.471351 0.48828,2.92317 0,1.45833 -0.48828,2.93619 -0.48177,1.477861 -1.45833,3.007805 h -1.04166 q 0.86588,-1.490881 1.28906,-2.962232 0.42969,-1.477861 0.42969,-2.981763 0,-1.503903 -0.42969,-2.968743 -0.42318,-1.46484 -1.28906,-2.962232 z"
       style="font-size:13.3333px"
       id="path1943" /></g><g
     aria-label="RGB(L)"
     id="text1234"
     style="font-size:13.3333px;line-height:1.25;font-family:sans-serif;-inkscape-font-specification:sans-serif;stroke-width:0.6782"><path
       d="m 165.03468,85.267595 q 0.42318,0.143229 0.82031,0.611977 0.40365,0.468749 0.80729,1.28906 l 1.33464,2.656243 h -1.41276 l -1.24349,-2.493483 q -0.48177,-0.97656 -0.9375,-1.29557 -0.44921,-0.31901 -1.23046,-0.31901 h -1.43229 v 4.108063 h -1.3151 v -9.720028 h 2.96874 q 1.66667,0 2.48698,0.696613 0.82031,0.696613 0.82031,2.102859 0,0.917967 -0.42969,1.523434 -0.42318,0.605467 -1.23698,0.839842 z m -3.29426,-4.082021 v 3.450512 h 1.65364 q 0.95052,0 1.43229,-0.436197 0.48828,-0.442707 0.48828,-1.29557 0,-0.852862 -0.48828,-1.282548 -0.48177,-0.436197 -1.43229,-0.436197 z"
       style="font-size:13.3333px;stroke-width:0.6782"
       id="path1946" /><path
       d="m 176.32372,88.43816 v -2.610671 h -2.14843 v -1.080726 h 3.45051 v 4.173166 q -0.76172,0.540363 -1.67969,0.820311 -0.91796,0.273436 -1.95963,0.273436 -2.27864,0 -3.5677,-1.328121 -1.28254,-1.334632 -1.28254,-3.710928 0,-2.382807 1.28254,-3.710928 1.28906,-1.334632 3.5677,-1.334632 0.95052,0 1.80338,0.234374 0.85938,0.234374 1.58203,0.690102 v 1.399736 q -0.72916,-0.618488 -1.54947,-0.930987 -0.82031,-0.312499 -1.72526,-0.312499 -1.78385,0 -2.68228,0.996091 -0.89193,0.996091 -0.89193,2.968743 0,1.966141 0.89193,2.962232 0.89843,0.996091 2.68228,0.996091 0.69661,0 1.24349,-0.117187 0.54687,-0.123698 0.98307,-0.377603 z"
       style="font-size:13.3333px;stroke-width:0.6782"
       id="path1948" /><path
       d="m 181.34975,85.18296 v 3.561188 h 2.10937 q 1.06119,0 1.569,-0.436196 0.51432,-0.442708 0.51432,-1.347653 0,-0.911456 -0.51432,-1.341143 -0.50781,-0.436196 -1.569,-0.436196 z m 0,-3.997386 v 2.92968 h 1.94661 q 0.96354,0 1.43228,-0.358072 0.47526,-0.364583 0.47526,-1.106768 0,-0.735675 -0.47526,-1.100258 -0.46874,-0.364582 -1.43228,-0.364582 z m -1.3151,-1.080727 h 3.35936 q 1.5039,0 2.3177,0.624999 0.8138,0.624998 0.8138,1.777339 0,0.891925 -0.41666,1.419267 -0.41667,0.527343 -1.22396,0.657551 0.97005,0.208333 1.50391,0.872393 0.54036,0.657551 0.54036,1.647132 0,1.30208 -0.88542,2.011713 -0.88541,0.709634 -2.51952,0.709634 h -3.48957 z"
       style="font-size:13.3333px;stroke-width:0.6782"
       id="path1950" /><path
       d="m 192.00076,79.707713 q -0.87239,1.497392 -1.29557,2.962232 -0.42317,1.46484 -0.42317,2.968743 0,1.503902 0.42317,2.981763 0.42969,1.47135 1.29557,2.962232 h -1.04166 q -0.97656,-1.529944 -1.46484,-3.007805 -0.48177,-1.477861 -0.48177,-2.93619 0,-1.45182 0.48177,-2.92317 0.48177,-1.471351 1.46484,-3.007805 z"
       style="font-size:13.3333px;stroke-width:0.6782"
       id="path1952" /><path
       d="m 194.38357,80.104847 h 1.3151 v 8.61326 h 4.73306 v 1.106768 h -6.04816 z"
       style="font-size:13.3333px;stroke-width:0.6782"
       id="path1954" /><path
       d="m 201.56454,79.707713 h 1.04166 q 0.97656,1.536454 1.45833,3.007805 0.48828,1.47135 0.48828,2.92317 0,1.458329 -0.48828,2.93619 -0.48177,1.477861 -1.45833,3.007805 h -1.04166 q 0.86588,-1.490882 1.28906,-2.962232 0.42969,-1.477861 0.42969,-2.981763 0,-1.503903 -0.42969,-2.968743 -0.42318,-1.46484 -1.28906,-2.962232 z"
       style="font-size:13.3333px;stroke-width:0.6782"
       id="path1956" /><path
       id="path518"
       d="M 206.58844,84.311586 H 313.38188"
       style="fill:none;stroke:#000000;stroke-width:0.996666px;stroke-linecap:butt;stroke-linejoin:miter;stroke-opacity:1" /><path
       id="path520"
       d="m 206.72813,66.644393 h 108.83351 l 7.98624,8.982499"
       style="fill:none;stroke:#000000;stroke-width:1px;stroke-linecap:butt;stroke-linejoin:miter;stroke-opacity:1" /></g><g
     aria-label="RGB(C)"
     id="text1238"
     style="font-size:13.3333px;line-height:1.25;font-family:sans-serif;-inkscape-font-specification:sans-serif"><path
       d="m 163.13365,104.06139 q 0.42318,0.14323 0.82031,0.61198 0.40365,0.46874 0.80729,1.28905 l 1.33463,2.65625 h -1.41275 l -1.24349,-2.49349 q -0.48177,-0.97656 -0.9375,-1.29557 -0.44921,-0.319 -1.23046,-0.319 h -1.43229 v 4.10806 h -1.3151 v -9.72003 h 2.96874 q 1.66666,0 2.48697,0.696613 0.82031,0.696617 0.82031,2.102857 0,0.91797 -0.42968,1.52344 -0.42318,0.60546 -1.23698,0.83984 z m -3.29426,-4.082023 v 3.450513 h 1.65364 q 0.95052,0 1.43229,-0.4362 0.48828,-0.44271 0.48828,-1.29557 0,-0.85286 -0.48828,-1.28255 -0.48177,-0.436193 -1.43229,-0.436193 z"
       style="font-size:13.3333px"
       id="path1959" /><path
       d="m 174.42269,107.23195 v -2.61067 h -2.14844 v -1.08072 h 3.45052 v 4.17316 q -0.76172,0.54037 -1.67969,0.82031 -0.91796,0.27344 -1.95963,0.27344 -2.27864,0 -3.5677,-1.32812 -1.28255,-1.33463 -1.28255,-3.71093 0,-2.38281 1.28255,-3.71093 1.28906,-1.334631 3.5677,-1.334631 0.95052,0 1.80338,0.234375 0.85938,0.234374 1.58203,0.690102 v 1.399734 q -0.72916,-0.61849 -1.54947,-0.93099 -0.82032,-0.312494 -1.72526,-0.312494 -1.78385,0 -2.68229,0.996094 -0.89192,0.99609 -0.89192,2.96874 0,1.96614 0.89192,2.96223 0.89844,0.99609 2.68229,0.99609 0.69661,0 1.24349,-0.11718 0.54687,-0.1237 0.98307,-0.37761 z"
       style="font-size:13.3333px"
       id="path1961" /><path
       d="m 179.44871,103.97675 v 3.56119 h 2.10937 q 1.0612,0 1.56901,-0.4362 0.51432,-0.4427 0.51432,-1.34765 0,-0.91145 -0.51432,-1.34114 -0.50781,-0.4362 -1.56901,-0.4362 z m 0,-3.997383 v 2.929683 h 1.94661 q 0.96354,0 1.43229,-0.35808 0.47526,-0.36458 0.47526,-1.10676 0,-0.73568 -0.47526,-1.10026 -0.46875,-0.364583 -1.43229,-0.364583 z m -1.3151,-1.080727 h 3.35937 q 1.5039,0 2.3177,0.624999 0.8138,0.625001 0.8138,1.777341 0,0.89192 -0.41666,1.41927 -0.41667,0.52734 -1.22396,0.65755 0.97005,0.20833 1.5039,0.87239 0.54037,0.65755 0.54037,1.64713 0,1.30208 -0.88542,2.01171 -0.88541,0.70964 -2.51952,0.70964 h -3.48958 z"
       style="font-size:13.3333px"
       id="path1963" /><path
       d="m 190.09973,98.501506 q -0.87239,1.497392 -1.29557,2.962234 -0.42318,1.46484 -0.42318,2.96874 0,1.5039 0.42318,2.98176 0.42969,1.47135 1.29557,2.96224 h -1.04166 q -0.97656,-1.52995 -1.46484,-3.00781 -0.48177,-1.47786 -0.48177,-2.93619 0,-1.45182 0.48177,-2.92317 0.48177,-1.47135 1.46484,-3.007804 z"
       style="font-size:13.3333px"
       id="path1965" /><path
       d="m 199.76116,99.647336 v 1.386714 q -0.66406,-0.61849 -1.41926,-0.92448 -0.7487,-0.305984 -1.59505,-0.305984 -1.66666,0 -2.55208,1.022134 -0.88541,1.01562 -0.88541,2.9427 0,1.92057 0.88541,2.9427 0.88542,1.01562 2.55208,1.01562 0.84635,0 1.59505,-0.30599 0.7552,-0.30598 1.41926,-0.92447 v 1.37369 q -0.6901,0.46875 -1.46484,0.70312 -0.76822,0.23438 -1.6276,0.23438 -2.20702,0 -3.47655,-1.34765 -1.26953,-1.35417 -1.26953,-3.6914 0,-2.34374 1.26953,-3.6914 1.26953,-1.354161 3.47655,-1.354161 0.8724,0 1.64063,0.234375 0.77473,0.227864 1.45181,0.690102 z"
       style="font-size:13.3333px"
       id="path1967" /><path
       d="m 201.56454,98.501506 h 1.04167 q 0.97656,1.536454 1.45833,3.007804 0.48828,1.47135 0.48828,2.92317 0,1.45833 -0.48828,2.93619 -0.48177,1.47786 -1.45833,3.00781 h -1.04167 q 0.86589,-1.49089 1.28906,-2.96224 0.42969,-1.47786 0.42969,-2.98176 0,-1.5039 -0.42969,-2.96874 -0.42317,-1.464842 -1.28906,-2.962234 z"
       style="font-size:13.3333px"
       id="path1969" /></g><g
     aria-label="SC(C)"
     id="text1242"
     style="font-size:13.3333px;line-height:1.25;font-family:sans-serif;-inkscape-font-specification:sans-serif"><path
       d="m 175.31461,128.73556 v 1.28255 q -0.74869,-0.35807 -1.41275,-0.53385 -0.66406,-0.17578 -1.28255,-0.17578 -1.07422,0 -1.66015,0.41666 -0.57943,0.41667 -0.57943,1.1849 0,0.64453 0.38411,0.97656 0.39063,0.32552 1.47135,0.52734 l 0.79427,0.16276 q 1.47135,0.27995 2.16797,0.98958 0.70312,0.70312 0.70312,1.88802 0,1.41275 -0.95052,2.14192 -0.94401,0.72916 -2.77343,0.72916 -0.6901,0 -1.47135,-0.15625 -0.77474,-0.15625 -1.60807,-0.46223 v -1.35417 q 0.80078,0.44922 1.56901,0.67708 0.76822,0.22787 1.51041,0.22787 1.1263,0 1.73828,-0.44271 0.61197,-0.44271 0.61197,-1.26302 0,-0.71614 -0.4427,-1.11979 -0.4362,-0.40364 -1.4388,-0.60546 l -0.80078,-0.15625 q -1.47135,-0.29297 -2.1289,-0.91797 -0.65755,-0.625 -0.65755,-1.73828 0,-1.28906 0.90494,-2.03124 0.91146,-0.74219 2.50651,-0.74219 0.68359,0 1.39322,0.1237 0.70964,0.1237 1.45182,0.37109 z"
       style="font-size:13.3333px"
       id="path1972" /><path
       d="m 185.22995,129.16525 v 1.38672 q -0.66406,-0.61849 -1.41926,-0.92448 -0.7487,-0.30599 -1.59505,-0.30599 -1.66667,0 -2.55208,1.02213 -0.88541,1.01562 -0.88541,2.9427 0,1.92057 0.88541,2.9427 0.88541,1.01563 2.55208,1.01563 0.84635,0 1.59505,-0.30599 0.7552,-0.30599 1.41926,-0.92448 v 1.3737 q -0.6901,0.46874 -1.46484,0.70312 -0.76822,0.23437 -1.6276,0.23437 -2.20702,0 -3.47655,-1.34765 -1.26953,-1.35416 -1.26953,-3.6914 0,-2.34374 1.26953,-3.69139 1.26953,-1.35417 3.47655,-1.35417 0.8724,0 1.64062,0.23438 0.77474,0.22786 1.45182,0.6901 z"
       style="font-size:13.3333px"
       id="path1974" /><path
       d="m 190.09973,128.01942 q -0.87239,1.49739 -1.29557,2.96223 -0.42317,1.46484 -0.42317,2.96874 0,1.50391 0.42317,2.98177 0.42969,1.47135 1.29557,2.96223 h -1.04166 q -0.97656,-1.52994 -1.46484,-3.00781 -0.48177,-1.47786 -0.48177,-2.93619 0,-1.45182 0.48177,-2.92317 0.48177,-1.47135 1.46484,-3.0078 z"
       style="font-size:13.3333px"
       id="path1976" /><path
       d="m 199.76117,129.16525 v 1.38672 q -0.66406,-0.61849 -1.41927,-0.92448 -0.7487,-0.30599 -1.59505,-0.30599 -1.66666,0 -2.55208,1.02213 -0.88541,1.01562 -0.88541,2.9427 0,1.92057 0.88541,2.9427 0.88542,1.01563 2.55208,1.01563 0.84635,0 1.59505,-0.30599 0.75521,-0.30599 1.41927,-0.92448 v 1.3737 q -0.69011,0.46874 -1.46484,0.70312 -0.76823,0.23437 -1.6276,0.23437 -2.20703,0 -3.47656,-1.34765 -1.26953,-1.35416 -1.26953,-3.6914 0,-2.34374 1.26953,-3.69139 1.26953,-1.35417 3.47656,-1.35417 0.87239,0 1.64062,0.23438 0.77473,0.22786 1.45182,0.6901 z"
       style="font-size:13.3333px"
       id="path1978" /><path
       d="m 201.56455,128.01942 h 1.04166 q 0.97656,1.53645 1.45833,3.0078 0.48828,1.47135 0.48828,2.92317 0,1.45833 -0.48828,2.93619 -0.48177,1.47787 -1.45833,3.00781 h -1.04166 q 0.86588,-1.49088 1.28906,-2.96223 0.42968,-1.47786 0.42968,-2.98177 0,-1.5039 -0.42968,-2.96874 -0.42318,-1.46484 -1.28906,-2.96223 z"
       style="font-size:13.3333px"
       id="path1980" /></g><g
     aria-label="DC(C)"
     id="text1246"
     style="font-size:13.3333px;line-height:1.25;font-family:sans-serif;-inkscape-font-specification:sans-serif"><path
       d="m 169.00603,114.60039 v 7.55858 h 1.58854 q 2.01171,0 2.9427,-0.91146 0.9375,-0.91146 0.9375,-2.8776 0,-1.95312 -0.9375,-2.85806 -0.93099,-0.91146 -2.9427,-0.91146 z m -1.3151,-1.08072 h 2.70182 q 2.82551,0 4.14712,1.17838 1.32161,1.17187 1.32161,3.67186 0,2.51302 -1.32812,3.6914 -1.32812,1.17838 -4.14061,1.17838 h -2.70182 z"
       style="font-size:13.3333px"
       id="path1983" /><path
       d="m 185.22995,114.26836 v 1.38672 q -0.66406,-0.61849 -1.41927,-0.92448 -0.7487,-0.30599 -1.59505,-0.30599 -1.66666,0 -2.55207,1.02213 -0.88542,1.01563 -0.88542,2.9427 0,1.92057 0.88542,2.94271 0.88541,1.01562 2.55207,1.01562 0.84635,0 1.59505,-0.30599 0.75521,-0.30599 1.41927,-0.92448 v 1.3737 q -0.6901,0.46875 -1.46484,0.70312 -0.76823,0.23437 -1.6276,0.23437 -2.20703,0 -3.47656,-1.34765 -1.26952,-1.35416 -1.26952,-3.6914 0,-2.34374 1.26952,-3.69139 1.26953,-1.35417 3.47656,-1.35417 0.87239,0 1.64062,0.23438 0.77474,0.22786 1.45182,0.6901 z"
       style="font-size:13.3333px"
       id="path1985" /><path
       d="m 190.09973,113.12253 q -0.8724,1.49739 -1.29557,2.96223 -0.42318,1.46484 -0.42318,2.96875 0,1.5039 0.42318,2.98176 0.42968,1.47135 1.29557,2.96223 h -1.04167 q -0.97656,-1.52994 -1.46484,-3.0078 -0.48177,-1.47787 -0.48177,-2.93619 0,-1.45182 0.48177,-2.92317 0.48177,-1.47135 1.46484,-3.00781 z"
       style="font-size:13.3333px"
       id="path1987" /><path
       d="m 199.76116,114.26836 v 1.38672 q -0.66406,-0.61849 -1.41927,-0.92448 -0.74869,-0.30599 -1.59504,-0.30599 -1.66667,0 -2.55208,1.02213 -0.88542,1.01563 -0.88542,2.9427 0,1.92057 0.88542,2.94271 0.88541,1.01562 2.55208,1.01562 0.84635,0 1.59504,-0.30599 0.75521,-0.30599 1.41927,-0.92448 v 1.3737 q -0.6901,0.46875 -1.46484,0.70312 -0.76823,0.23437 -1.6276,0.23437 -2.20703,0 -3.47655,-1.34765 -1.26953,-1.35416 -1.26953,-3.6914 0,-2.34374 1.26953,-3.69139 1.26952,-1.35417 3.47655,-1.35417 0.87239,0 1.64062,0.23438 0.77474,0.22786 1.45182,0.6901 z"
       style="font-size:13.3333px"
       id="path1989" /><path
       d="m 201.56454,113.12253 h 1.04167 q 0.97656,1.53646 1.45833,3.00781 0.48828,1.47135 0.48828,2.92317 0,1.45832 -0.48828,2.93619 -0.48177,1.47786 -1.45833,3.0078 h -1.04167 q 0.86589,-1.49088 1.28906,-2.96223 0.42969,-1.47786 0.42969,-2.98176 0,-1.50391 -0.42969,-2.96875 -0.42317,-1.46484 -1.28906,-2.96223 z"
       style="font-size:13.3333px"
       id="path1991" /></g><g
     aria-label="DC(R)"
     id="text1250"
     style="font-size:13.3333px;line-height:1.25;font-family:sans-serif;-inkscape-font-specification:sans-serif"><path
       d="m 537.40854,142.87059 v 7.55857 h 1.58854 q 2.01171,0 2.9427,-0.91145 0.9375,-0.91146 0.9375,-2.8776 0,-1.95312 -0.9375,-2.85807 -0.93099,-0.91145 -2.9427,-0.91145 z m -1.3151,-1.08073 h 2.70182 q 2.82551,0 4.14712,1.17838 1.32161,1.17187 1.32161,3.67187 0,2.51301 -1.32812,3.6914 -1.32812,1.17838 -4.14061,1.17838 h -2.70182 z"
       style="font-size:13.3333px"
       id="path1994" /><path
       d="m 553.63246,142.53856 v 1.38671 q -0.66406,-0.61849 -1.41927,-0.92448 -0.74869,-0.30598 -1.59505,-0.30598 -1.66666,0 -2.55207,1.02213 -0.88542,1.01562 -0.88542,2.9427 0,1.92057 0.88542,2.9427 0.88541,1.01562 2.55207,1.01562 0.84636,0 1.59505,-0.30599 0.75521,-0.30598 1.41927,-0.92447 v 1.37369 q -0.6901,0.46875 -1.46484,0.70312 -0.76823,0.23438 -1.6276,0.23438 -2.20703,0 -3.47655,-1.34765 -1.26953,-1.35417 -1.26953,-3.6914 0,-2.34374 1.26953,-3.6914 1.26952,-1.35416 3.47655,-1.35416 0.87239,0 1.64062,0.23437 0.77474,0.22787 1.45182,0.69011 z"
       style="font-size:13.3333px"
       id="path1996" /><path
       d="m 558.50224,141.39273 q -0.8724,1.49739 -1.29557,2.96223 -0.42318,1.46484 -0.42318,2.96874 0,1.5039 0.42318,2.98176 0.42968,1.47135 1.29557,2.96224 h -1.04167 q -0.97656,-1.52995 -1.46484,-3.00781 -0.48177,-1.47786 -0.48177,-2.93619 0,-1.45182 0.48177,-2.92317 0.48177,-1.47135 1.46484,-3.0078 z"
       style="font-size:13.3333px"
       id="path1998" /><path
       d="m 565.49441,146.95261 q 0.42317,0.14323 0.82031,0.61198 0.40364,0.46874 0.80729,1.28905 l 1.33463,2.65625 h -1.41276 l -1.24348,-2.49349 q -0.48177,-0.97656 -0.9375,-1.29557 -0.44922,-0.319 -1.23047,-0.319 h -1.43228 v 4.10806 h -1.31511 v -9.72003 h 2.96875 q 1.66666,0 2.48697,0.69661 0.82031,0.69662 0.82031,2.10286 0,0.91797 -0.42969,1.52344 -0.42317,0.60546 -1.23697,0.83984 z m -3.29426,-4.08202 v 3.45051 h 1.65364 q 0.95052,0 1.43229,-0.4362 0.48828,-0.44271 0.48828,-1.29557 0,-0.85286 -0.48828,-1.28255 -0.48177,-0.43619 -1.43229,-0.43619 z"
       style="font-size:13.3333px"
       id="path2000" /><path
       d="m 569.91497,141.39273 h 1.04166 q 0.97656,1.53645 1.45833,3.0078 0.48828,1.47135 0.48828,2.92317 0,1.45833 -0.48828,2.93619 -0.48177,1.47786 -1.45833,3.00781 h -1.04166 q 0.86588,-1.49089 1.28906,-2.96224 0.42968,-1.47786 0.42968,-2.98176 0,-1.5039 -0.42968,-2.96874 -0.42318,-1.46484 -1.28906,-2.96223 z"
       style="font-size:13.3333px"
       id="path2002" /></g><g
     aria-label="RGB(R)"
     id="text1254"
     style="font-size:13.3333px;line-height:1.25;font-family:sans-serif;-inkscape-font-specification:sans-serif"><path
       d="m 540.7028,122.23306 q 0.42318,0.14323 0.82032,0.61197 0.40364,0.46875 0.80728,1.28906 l 1.33464,2.65625 h -1.41276 l -1.24349,-2.49349 q -0.48177,-0.97656 -0.93749,-1.29557 -0.44922,-0.31901 -1.23047,-0.31901 h -1.43229 v 4.10807 h -1.3151 v -9.72003 h 2.96874 q 1.66667,0 2.48698,0.69661 0.82031,0.69661 0.82031,2.10286 0,0.91797 -0.42969,1.52343 -0.42318,0.60547 -1.23698,0.83985 z m -3.29426,-4.08202 v 3.45051 h 1.65364 q 0.95052,0 1.43229,-0.4362 0.48828,-0.44271 0.48828,-1.29557 0,-0.85286 -0.48828,-1.28255 -0.48177,-0.43619 -1.43229,-0.43619 z"
       style="font-size:13.3333px"
       id="path2005" /><path
       d="m 551.99184,125.40362 v -2.61067 h -2.14843 v -1.08073 h 3.45051 v 4.17317 q -0.76172,0.54036 -1.67968,0.82031 -0.91797,0.27344 -1.95963,0.27344 -2.27864,0 -3.5677,-1.32812 -1.28255,-1.33464 -1.28255,-3.71093 0,-2.38281 1.28255,-3.71093 1.28906,-1.33463 3.5677,-1.33463 0.95051,0 1.80338,0.23437 0.85937,0.23438 1.58202,0.69011 v 1.39973 q -0.72916,-0.61849 -1.54947,-0.93099 -0.82031,-0.3125 -1.72526,-0.3125 -1.78385,0 -2.68228,0.9961 -0.89193,0.99609 -0.89193,2.96874 0,1.96614 0.89193,2.96223 0.89843,0.99609 2.68228,0.99609 0.69662,0 1.24349,-0.11719 0.54687,-0.12369 0.98307,-0.3776 z"
       style="font-size:13.3333px"
       id="path2007" /><path
       d="m 557.01787,122.14842 v 3.56119 h 2.10937 q 1.06119,0 1.569,-0.4362 0.51433,-0.4427 0.51433,-1.34765 0,-0.91146 -0.51433,-1.34114 -0.50781,-0.4362 -1.569,-0.4362 z m 0,-3.99738 v 2.92968 h 1.94661 q 0.96354,0 1.43229,-0.35808 0.47525,-0.36458 0.47525,-1.10676 0,-0.73568 -0.47525,-1.10026 -0.46875,-0.36458 -1.43229,-0.36458 z m -1.3151,-1.08073 h 3.35936 q 1.50391,0 2.31771,0.625 0.8138,0.625 0.8138,1.77734 0,0.89192 -0.41667,1.41926 -0.41667,0.52735 -1.22395,0.65755 0.97004,0.20834 1.5039,0.8724 0.54036,0.65755 0.54036,1.64713 0,1.30208 -0.88541,2.01171 -0.88542,0.70964 -2.51953,0.70964 h -3.48957 z"
       style="font-size:13.3333px"
       id="path2009" /><path
       d="m 567.66888,116.67317 q -0.87239,1.4974 -1.29557,2.96224 -0.42317,1.46484 -0.42317,2.96874 0,1.5039 0.42317,2.98176 0.42969,1.47135 1.29557,2.96223 h -1.04166 q -0.97656,-1.52994 -1.46484,-3.0078 -0.48177,-1.47786 -0.48177,-2.93619 0,-1.45182 0.48177,-2.92317 0.48177,-1.47135 1.46484,-3.00781 z"
       style="font-size:13.3333px"
       id="path2011" /><path
       d="m 574.66105,122.23306 q 0.42318,0.14323 0.82031,0.61197 0.40365,0.46875 0.80729,1.28906 l 1.33464,2.65625 h -1.41276 l -1.24349,-2.49349 q -0.48177,-0.97656 -0.9375,-1.29557 -0.44921,-0.31901 -1.23046,-0.31901 h -1.43229 v 4.10807 h -1.3151 v -9.72003 h 2.96874 q 1.66666,0 2.48698,0.69661 0.82031,0.69661 0.82031,2.10286 0,0.91797 -0.42969,1.52343 -0.42318,0.60547 -1.23698,0.83985 z m -3.29426,-4.08202 v 3.45051 h 1.65364 q 0.95052,0 1.43229,-0.4362 0.48828,-0.44271 0.48828,-1.29557 0,-0.85286 -0.48828,-1.28255 -0.48177,-0.43619 -1.43229,-0.43619 z"
       style="font-size:13.3333px"
       id="path2013" /><path
       d="m 579.08161,116.67317 h 1.04167 q 0.97656,1.53646 1.45833,3.00781 0.48828,1.47135 0.48828,2.92317 0,1.45833 -0.48828,2.93619 -0.48177,1.47786 -1.45833,3.0078 h -1.04167 q 0.86589,-1.49088 1.28906,-2.96223 0.42969,-1.47786 0.42969,-2.98176 0,-1.5039 -0.42969,-2.96874 -0.42317,-1.46484 -1.28906,-2.96224 z"
       style="font-size:13.3333px"
       id="path2015" /></g><g
     aria-label="Radar"
     id="text1258"
     style="font-size:13.3333px;line-height:1.25;font-family:sans-serif;-inkscape-font-specification:sans-serif"><path
       d="m 91.107437,284.27411 q 0.423176,0.14323 0.820311,0.61198 0.403645,0.46875 0.807289,1.28906 l 1.334633,2.65624 h -1.412757 l -1.243487,-2.49348 q -0.481769,-0.97656 -0.937497,-1.29557 -0.449218,-0.31901 -1.230466,-0.31901 h -1.432288 v 4.10806 h -1.315101 v -9.72003 h 2.968743 q 1.666662,0 2.486972,0.69662 0.820311,0.69661 0.820311,2.10285 0,0.91797 -0.429687,1.52344 -0.423176,0.60547 -1.236976,0.83984 z m -3.294262,-4.08202 v 3.45051 h 1.653642 q 0.950518,0 1.432288,-0.4362 0.48828,-0.4427 0.48828,-1.29557 0,-0.85286 -0.48828,-1.28254 -0.48177,-0.4362 -1.432288,-0.4362 z"
       style="font-size:13.3333px"
       id="path2018" /><path
       d="m 98.744137,285.16604 q -1.45182,0 -2.011714,0.33203 -0.559894,0.33203 -0.559894,1.13281 0,0.63801 0.416665,1.01562 0.423176,0.37109 1.145831,0.37109 0.996091,0 1.595048,-0.70312 0.605467,-0.70964 0.605467,-1.88151 v -0.26692 z m 2.389313,-0.4948 v 4.16015 h -1.19791 v -1.10677 q -0.410155,0.66406 -1.022133,0.98307 -0.611978,0.3125 -1.497392,0.3125 -1.119789,0 -1.78385,-0.625 -0.65755,-0.63151 -0.65755,-1.68619 0,-1.23047 0.82031,-1.85546 0.826821,-0.625 2.460932,-0.625 h 1.679683 v -0.11719 q 0,-0.82682 -0.546874,-1.27604 -0.540363,-0.45573 -1.523433,-0.45573 -0.624999,0 -1.217445,0.14974 -0.592447,0.14974 -1.13932,0.44922 v -1.10677 q 0.65755,-0.2539 1.276038,-0.3776 0.618488,-0.13021 1.204424,-0.13021 1.582028,0 2.36328,0.82031 0.78124,0.82031 0.78124,2.48697 z"
       style="font-size:13.3333px"
       id="path2020" /><path
       d="m 108.40557,282.64651 v -3.9453 h 1.19791 v 10.13018 h -1.19791 v -1.09375 q -0.3776,0.65104 -0.95703,0.97005 -0.57291,0.3125 -1.3802,0.3125 -1.32161,0 -2.15495,-1.05468 -0.82682,-1.05469 -0.82682,-2.77343 0,-1.71875 0.82682,-2.77343 0.83334,-1.05469 2.15495,-1.05469 0.80729,0 1.3802,0.31901 0.57943,0.3125 0.95703,0.96354 z m -4.08202,2.54557 q 0,1.32161 0.54036,2.07681 0.54688,0.7487 1.4974,0.7487 0.95051,0 1.49739,-0.7487 0.54687,-0.7552 0.54687,-2.07681 0,-1.32161 -0.54687,-2.07031 -0.54688,-0.75521 -1.49739,-0.75521 -0.95052,0 -1.4974,0.75521 -0.54036,0.7487 -0.54036,2.07031 z"
       style="font-size:13.3333px"
       id="path2022" /><path
       d="m 115.38472,285.16604 q -1.45182,0 -2.01171,0.33203 -0.5599,0.33203 -0.5599,1.13281 0,0.63801 0.41667,1.01562 0.42317,0.37109 1.14583,0.37109 0.99609,0 1.59505,-0.70312 0.60546,-0.70964 0.60546,-1.88151 v -0.26692 z m 2.38932,-0.4948 v 4.16015 h -1.19792 v -1.10677 q -0.41015,0.66406 -1.02213,0.98307 -0.61198,0.3125 -1.49739,0.3125 -1.11979,0 -1.78385,-0.625 -0.65755,-0.63151 -0.65755,-1.68619 0,-1.23047 0.82031,-1.85546 0.82682,-0.625 2.46093,-0.625 h 1.67968 v -0.11719 q 0,-0.82682 -0.54687,-1.27604 -0.54036,-0.45573 -1.52343,-0.45573 -0.625,0 -1.21745,0.14974 -0.59245,0.14974 -1.13932,0.44922 v -1.10677 q 0.65755,-0.2539 1.27604,-0.3776 0.61849,-0.13021 1.20442,-0.13021 1.58203,0 2.36328,0.82031 0.78125,0.82031 0.78125,2.48697 z"
       style="font-size:13.3333px"
       id="path2024" /><path
       d="m 124.47324,282.65953 q -0.20182,-0.11719 -0.44271,-0.16927 -0.23437,-0.0586 -0.52083,-0.0586 -1.01562,0 -1.5625,0.66406 -0.54036,0.65755 -0.54036,1.89452 v 3.84114 h -1.20442 v -7.29165 h 1.20442 v 1.13281 q 0.3776,-0.66406 0.98307,-0.98307 0.60547,-0.32552 1.47135,-0.32552 0.1237,0 0.27344,0.0195 0.14974,0.013 0.33203,0.0456 z"
       style="font-size:13.3333px"
       id="path2026" /></g><path
     id="path1086"
     style="opacity:0.707;fill:#8dc060;stroke:#000000;stroke-width:0.475191;stop-color:#000000"
     d="m 274.89555,286.5377 a 9.3993789,4.4381084 11.659725 0 1 -10.24161,2.34081 9.3993789,4.4381084 11.659725 0 1 -8.13622,-6.28668 9.3993789,4.4381084 11.659725 0 1 10.2416,-2.3408 9.3993789,4.4381084 11.659725 0 1 8.13623,6.28667" /><path
     id="path859"
     style="opacity:0.707;fill:#8dc060;stroke:#000000;stroke-width:0.679497;stop-color:#000000"
     d="m 345.17577,105.60908 a 3.6728356,4.7259197 0 0 1 -3.67284,4.72592 3.6728356,4.7259197 0 0 1 -3.67284,-4.72592 3.6728356,4.7259197 0 0 1 3.67284,-4.72592 3.6728356,4.7259197 0 0 1 3.67284,4.72592" /><path
     id="ellipse861"
     style="opacity:0.707;fill:#8dc060;stroke:#000000;stroke-width:0.679497;stop-color:#000000"
     d="m 353.21559,107.22394 a 3.6728356,4.7259197 0 0 1 -3.67283,4.72592 3.6728356,4.7259197 0 0 1 -3.67284,-4.72592 3.6728356,4.7259197 0 0 1 3.67284,-4.72592 3.6728356,4.7259197 0 0 1 3.67283,4.72592" /><path
     id="ellipse863"
     style="opacity:0.707;fill:#8dc060;stroke:#000000;stroke-width:0.679497;stop-color:#000000"
     d="m 337.13597,104.18802 a 3.6728356,4.7259197 0 0 1 -3.67284,4.72592 3.6728356,4.7259197 0 0 1 -3.67283,-4.72592 3.6728356,4.7259197 0 0 1 3.67283,-4.725921 3.6728356,4.7259197 0 0 1 3.67284,4.725921" /><path
     d="m 314.52884,90.131527 c -0.83061,-1.066927 -0.9469,-2.725665 0,-4.446494 1.06527,-1.940734 3.00268,-3.14388 4.8861,-3.14388 1.50965,0 2.54584,0.801544 2.97776,1.91623 0.32809,0.840376 0.28863,1.812612 0,2.709884 -0.24088,0.751707 -0.66657,1.47289 -1.18986,2.075085 -0.50252,0.576241 -1.1234,1.074817 -1.7879,1.42866 -0.72679,0.38769 -1.54494,0.621923 -2.33403,0.621923 -0.98428,0 -1.93326,-0.364848 -2.55207,-1.161408"
     style="opacity:0.707;fill:#8dc060;stroke:#000000;stroke-width:1.41101;stop-color:#000000"
     id="ellipse863-6" /><path
     id="path516"
     style="opacity:0.707;fill:#8dc060;stroke:#000000;stroke-width:1.41101;stop-color:#000000"
     d="m 323.92873,82.081681 c -0.83061,-1.066927 -0.9469,-2.725665 0,-4.446494 1.06527,-1.940734 3.00268,-3.14388 4.8861,-3.14388 1.50965,0 2.54584,0.801544 2.97776,1.91623 0.32809,0.840376 0.28863,1.812612 0,2.709884 -0.24088,0.751707 -0.66657,1.47289 -1.18986,2.075085 -0.50252,0.576241 -1.1234,1.074817 -1.7879,1.42866 -0.72679,0.38769 -1.54494,0.621923 -2.33403,0.621923 -0.98428,0 -1.93326,-0.364848 -2.55207,-1.161408" /><path
     id="path683"
     style="opacity:0.707;fill:#8dc060;stroke:#000000;stroke-width:1.41101;stop-color:#000000"
     d="m 394.62735,108.35994 c -0.83061,-1.06693 -0.9469,-2.72567 0,-4.44649 1.06527,-1.94074 3.00268,-3.14388 4.8861,-3.14388 1.50965,0 2.54584,0.80154 2.97776,1.91623 0.32809,0.84037 0.28863,1.81261 0,2.70988 -0.24088,0.75171 -0.66657,1.47289 -1.18986,2.07508 -0.50252,0.57625 -1.1234,1.07482 -1.7879,1.42866 -0.72679,0.38769 -1.54494,0.62193 -2.33403,0.62193 -0.98428,0 -1.93326,-0.36485 -2.55207,-1.16141" /><path
     d="m 403.35559,100.22376 c -0.83061,-1.066935 -0.9469,-2.725675 0,-4.446495 1.06527,-1.94074 3.00268,-3.14388 4.8861,-3.14388 1.50965,0 2.54584,0.80154 2.97776,1.91623 0.32809,0.84037 0.28863,1.81261 0,2.70988 -0.24088,0.75171 -0.66657,1.47289 -1.18986,2.07508 -0.50252,0.57625 -1.1234,1.074825 -1.7879,1.428665 -0.72679,0.38769 -1.54494,0.62193 -2.33403,0.62193 -0.98428,0 -1.93326,-0.36485 -2.55207,-1.16141"
     style="opacity:0.707;fill:#8dc060;stroke:#000000;stroke-width:1.41101;stop-color:#000000"
     id="path685" /></svg>
