<?xml version="1.0" encoding="UTF-8"?>
<svg xmlns="http://www.w3.org/2000/svg" xmlns:xlink="http://www.w3.org/1999/xlink" id="Layer_1" data-name="Layer 1" viewBox="0 0 699 349.5">
  <defs>
    <mask id="mask" x="105.49" y="121.86" width="90.79" height="104.18" maskUnits="userSpaceOnUse">
      <g id="mask-2">
        <path id="path-1" d="M126.52,186.88c3.69,9.82,16.63,22.87,32.56,22.87a35.15,35.15,0,0,0,23-8.43c.47-.23,4.74,4.62,6.47,6.46.35.46.35.58.35.58-21,18.36-56.7,15.71-73.56-16.05a27.33,27.33,0,0,1,3.35-7.39,25,25,0,0,0,7.85,2Z" style="fill:#fff;fill-rule:evenodd"></path>
      </g>
    </mask>
    <mask id="mask-2-2" x="105.62" y="121.98" width="90.66" height="105.33" maskUnits="userSpaceOnUse">
      <g id="mask-4">
        <rect id="path-3" x="105.62" y="121.98" width="90.54" height="103.93" style="fill:#fff"></rect>
      </g>
    </mask>
  </defs>
  <g id="Page-1">
    <g id="logo_conda_RGB_inkscape" data-name="logo conda RGB inkscape">
      <g id="g3588">
        <g id="g19-Clipped">
          <g id="g19">
            <path id="path21" d="M130.68,178a35.93,35.93,0,0,1-10.28-4.39,24.53,24.53,0,0,1,10.28-3.23,34.73,34.73,0,0,1,1-5,37.57,37.57,0,0,1-7-6.93,37.69,37.69,0,0,1,9.82.58,25.3,25.3,0,0,1,3.46-4.62,29.35,29.35,0,0,1-3.23-8,31.58,31.58,0,0,1,7.27,4.39,36.81,36.81,0,0,1,5.43-3.23,39.18,39.18,0,0,1,.69-8,25.2,25.2,0,0,1,4.51,6.24,29.34,29.34,0,0,1,7.27-.58,35.16,35.16,0,0,1,3-6.12,35.45,35.45,0,0,1,1.85,6.7,31.43,31.43,0,0,1,7.28,2.54,26.14,26.14,0,0,1,11.2-5.55,30.57,30.57,0,0,0-3.35-15,43.24,43.24,0,0,0-8.43-2.89,35.23,35.23,0,0,0-7.51,5.43,35.44,35.44,0,0,0-5.89-6.93,39.13,39.13,0,0,0-7.62.58,35.9,35.9,0,0,0-4.73,8,32.36,32.36,0,0,0-9.24-3.93,62.19,62.19,0,0,0-6,3.12,38.35,38.35,0,0,0-.8,9.35,32.92,32.92,0,0,0-10.17-.34,46.12,46.12,0,0,0-3.69,4.5,28.37,28.37,0,0,0,2.77,10.86,30.49,30.49,0,0,0-10.39,4.62c-.46,1.5-.81,3.11-1.16,4.61a32.74,32.74,0,0,0,7.39,8.67,35.46,35.46,0,0,0-7.73,9.23,33.16,33.16,0,0,0,1,5h.11a33.5,33.5,0,0,1,9.35-12.13,36.9,36.9,0,0,0,14,5.89c-.12-1-.35-2.07-.46-3.46Zm43.88-49.08a23.18,23.18,0,0,1,3.35,10.16,31.59,31.59,0,0,0-8.43,4.85,41.24,41.24,0,0,0-3-9.12,32.47,32.47,0,0,1,8.09-5.89Zm-20.21-2.31a29.35,29.35,0,0,1,6.35,7.62,33.36,33.36,0,0,0-4.73,8.2,30.55,30.55,0,0,0-6.36-7.62,29.9,29.9,0,0,1,4.74-8.2Zm-19.75,5.66a25.53,25.53,0,0,1,9.82,4.16,36.32,36.32,0,0,0-1.39,9.93,32.36,32.36,0,0,0-9-4.62,27.25,27.25,0,0,1,.58-9.47ZM130.33,145a35.34,35.34,0,0,0,3.46,10.16,38.78,38.78,0,0,0-11.2-.23,26,26,0,0,1-2.88-10.5,31.53,31.53,0,0,1,10.62.57Zm-20.21,18.48a26.71,26.71,0,0,1,10.39-4.39,36.84,36.84,0,0,0,7.51,8.32,29.11,29.11,0,0,0-10.74,4.15,29.17,29.17,0,0,1-7.16-8.08Z" style="fill:#fff;stroke:#2db24a;stroke-width:0.25px;fill-rule:evenodd"></path>
            <g id="g23">
              <path id="path25" d="M152.73,145.89a26.38,26.38,0,0,0-4.5-6.24,27.29,27.29,0,0,0-.69,8,18.35,18.35,0,0,1,5.19-1.73Z" style="fill:#43b02a;stroke:#43b02a;stroke-width:0.25px;fill-rule:evenodd"></path>
              <path id="path35" d="M142,150.74a29.05,29.05,0,0,0-7.27-4.39,29.5,29.5,0,0,0,3.23,8c0,.23,1.62-1.74,4-3.58Z" style="fill:#43b02a;stroke:#43b02a;stroke-width:0.25px;fill-rule:evenodd"></path>
              <path id="path37" d="M156,142.42a33.36,33.36,0,0,1,4.73-8.2,27.66,27.66,0,0,0-6.35-7.62,30.31,30.31,0,0,0-4.74,8.32,30.65,30.65,0,0,1,6.36,7.5Z" style="fill:#43b02a;stroke:#43b02a;stroke-width:0.25px;fill-rule:evenodd"></path>
              <path id="path39" d="M134.6,159.05h0a37.6,37.6,0,0,0-9.81-.58,27.21,27.21,0,0,0,7,6.93,25.15,25.15,0,0,1,2.77-6.35Z" style="fill:#43b02a;stroke:#43b02a;stroke-width:0.25px;fill-rule:evenodd"></path>
              <path id="path43" d="M117.4,171.52a27.06,27.06,0,0,1,10.74-4.15,36.61,36.61,0,0,1-7.51-8.32,27.74,27.74,0,0,0-10.39,4.39,25.81,25.81,0,0,0,7.16,8.08Z" style="fill:#43b02a;stroke:#43b02a;stroke-width:0.25px;fill-rule:evenodd"></path>
              <path id="path45" d="M130.68,170.48a22.62,22.62,0,0,0-10.28,3.24,36.12,36.12,0,0,0,10.28,4.38h0a27.78,27.78,0,0,1,0-7.62Z" style="fill:#43b02a;stroke:#43b02a;stroke-width:0.25px;fill-rule:evenodd"></path>
              <path id="path47" d="M144.42,136.42a28.39,28.39,0,0,0-9.82-4.16,30.52,30.52,0,0,0-.69,9.47,32.36,32.36,0,0,1,9,4.62,37.26,37.26,0,0,1,1.5-9.93Z" style="fill:#43b02a;stroke:#43b02a;stroke-width:0.25px;fill-rule:evenodd"></path>
              <path id="path49" d="M180,128s3.23,9.93,3.34,15a24.88,24.88,0,0,0-11.2,5.54,27,27,0,0,1,5.66,3.81c1.85,1.62,3.58,2.31,6,1.16,1.38-.93,9.12-8.89,9.93-9.93a4.66,4.66,0,0,0-.58-6.7C188.3,132.38,180,128,180,128Z" style="fill:#43b02a;stroke:#43b02a;stroke-width:0.25px;fill-rule:evenodd"></path>
              <path id="path51" d="M108.27,160.21a31.49,31.49,0,0,1,10.4-4.62,28.37,28.37,0,0,1-2.78-10.86,54,54,0,0,0-7.62,15.48Z" style="fill:#43b02a;stroke:#43b02a;stroke-width:0.25px;fill-rule:evenodd"></path>
              <path id="path55" d="M133.68,155.12A36.37,36.37,0,0,1,130.21,145a28.91,28.91,0,0,0-10.62-.46A26.62,26.62,0,0,0,122.48,155a35.38,35.38,0,0,1,11.2.11Z" style="fill:#43b02a;stroke:#43b02a;stroke-width:0.25px;fill-rule:evenodd"></path>
              <path id="path59" d="M119.59,140.34a32.53,32.53,0,0,1,10.16.35,38.8,38.8,0,0,1,.81-9.35,57,57,0,0,1,6-3.12,31,31,0,0,1,9.23,3.92,36.29,36.29,0,0,1,4.74-8,52.7,52.7,0,0,0-28.06,13.39,51,51,0,0,0-6.59,7.39,39.17,39.17,0,0,1,3.7-4.62Z" style="fill:#43b02a;stroke:#43b02a;stroke-width:0.25px;fill-rule:evenodd"></path>
              <path id="path67" d="M107.7,162.52c.23-.81.34-1.51.57-2.31a20.37,20.37,0,0,0-.57,2.31Z" style="fill:#43b02a;stroke:#43b02a;stroke-width:0.25px;fill-rule:evenodd"></path>
              <path id="path71" d="M114.62,173.6a32.53,32.53,0,0,1-7.39-8.66,52,52,0,0,0-.23,17.9,31.22,31.22,0,0,1,7.62-9.24Z" style="fill:#43b02a;stroke:#43b02a;stroke-width:0.25px;fill-rule:evenodd"></path>
              <path id="path75" d="M192.23,203.39c-7.28-6.92-8.78-11.43-14.9-6.69-16.75,13.16-40.88,5.31-46-15.13a37.19,37.19,0,0,1-14-5.89A34.39,34.39,0,0,0,108,187.81h-.11c10.5,39.72,61.66,49,85.34,24.13,3.92-4.16.34-7-1-8.55Z" style="fill:#43b02a;stroke:#43b02a;stroke-width:0.25px;fill-rule:evenodd"></path>
              <path id="path79" d="M174.56,128.91a27.78,27.78,0,0,0-8.09,5.89,43.16,43.16,0,0,1,3,9.12,35.54,35.54,0,0,1,8.43-4.85,24.08,24.08,0,0,0-3.35-10.16Z" style="fill:#43b02a;stroke:#43b02a;stroke-width:0.25px;fill-rule:evenodd"></path>
              <path id="path83" d="M163,139.19a31.12,31.12,0,0,0-3,6.12h0a35.39,35.39,0,0,1,4.85.69,28.17,28.17,0,0,0-1.85-6.81Z" style="fill:#43b02a;stroke:#43b02a;stroke-width:0.25px;fill-rule:evenodd"></path>
              <path id="path85" d="M175.83,126.37a12,12,0,0,0-1.85-.58,9.11,9.11,0,0,1,1.85.58Z" style="fill:#43b02a;stroke:#43b02a;stroke-width:0.25px;fill-rule:evenodd"></path>
              <path id="path87" d="M164.05,130.41a35,35,0,0,1,7.51-5.43,56.63,56.63,0,0,0-13.4-1.5,35.79,35.79,0,0,1,5.89,6.93Z" style="fill:#43b02a;stroke:#43b02a;stroke-width:0.25px;fill-rule:evenodd"></path>
            </g>
            <g id="g91">
              <g id="g99-Clipped">
                <g style="mask:url(#mask)">
                  <g id="g99">
                    <g id="rect107-Clipped">
                      <g style="mask:url(#mask-2-2)">
                        <rect id="rect107" x="107.81" y="177.53" width="88.34" height="49.66" style="fill:#fff;stroke:#2db24a;stroke-width:0.25px"></rect>
                      </g>
                    </g>
                    <g id="use109">
                      <rect id="SVGID" x="105.62" y="121.98" width="90.54" height="103.93" style="fill:none;stroke:#2db24a;stroke-width:0.25px"></rect>
                    </g>
                  </g>
                </g>
              </g>
              <g id="use111">
                <path id="SVGID-2" data-name="SVGID" d="M126.52,186.88c3.69,9.82,16.63,22.87,32.56,22.87a35.15,35.15,0,0,0,23-8.43c.47-.23,4.74,4.62,6.47,6.46.35.46.35.58.35.58-21,18.36-56.7,15.71-73.56-16.05a27.33,27.33,0,0,1,3.35-7.39,25,25,0,0,0,7.85,2Z" style="fill:none;stroke:#2db24a;stroke-width:0.25px"></path>
              </g>
            </g>
          </g>
        </g>
        <g id="g119">
          <path id="path121" d="M252.27,123.37a51,51,0,1,1-50.92,51.16,50.94,50.94,0,0,1,50.92-51.16Zm0,83.72A32.76,32.76,0,0,0,285,174.64c0-17.78-14.79-32.8-32.69-32.8s-32.44,14.9-32.44,32.8a32.48,32.48,0,0,0,32.44,32.45Z" style="fill:#43b02a;fill-rule:evenodd"></path>
          <path id="path123" d="M318.67,125.91a2.67,2.67,0,0,1,2.66-2.54h3.58l59,62.7H384V127.53a2.68,2.68,0,0,1,2.65-2.66h13.05a2.77,2.77,0,0,1,2.66,2.66V223a2.67,2.67,0,0,1-2.66,2.54h-3.35L337,160.44h-.12v61a2.68,2.68,0,0,1-2.66,2.66H321.33a2.78,2.78,0,0,1-2.66-2.66v-95.5Z" style="fill:#43b02a;fill-rule:evenodd"></path>
          <path id="path125" d="M424.45,127.53a2.67,2.67,0,0,1,2.54-2.66H460.6a49.66,49.66,0,1,1,0,99.31H427a2.67,2.67,0,0,1-2.54-2.66v-94ZM459,206.74c18.48,0,31.87-13.85,31.87-32.45S477.34,142,459,142H442.81v64.78Z" style="fill:#43b02a;fill-rule:evenodd"></path>
          <path id="path127" d="M508.64,220.37l44.11-95.5a2.73,2.73,0,0,1,2.43-1.62h1.38a2.46,2.46,0,0,1,2.43,1.62l43.65,95.5a2.51,2.51,0,0,1-2.43,3.7H587.86c-2.08,0-3.12-.81-4.16-2.89l-6.93-15.36H534.39l-6.93,15.36a4.4,4.4,0,0,1-4.16,2.89H511a2.53,2.53,0,0,1-2.31-3.7ZM570,190.23l-14.21-31.18h-.46l-13.86,31.18Z" style="fill:#43b02a;fill-rule:evenodd"></path>
        </g>
      </g>
    </g>
  </g>
</svg>
