<?xml version="1.0" encoding="UTF-8" standalone="no"?>
<svg
   xmlns:dc="http://purl.org/dc/elements/1.1/"
   xmlns:cc="http://creativecommons.org/ns#"
   xmlns:rdf="http://www.w3.org/1999/02/22-rdf-syntax-ns#"
   xmlns:svg="http://www.w3.org/2000/svg"
   xmlns="http://www.w3.org/2000/svg"
   xmlns:xlink="http://www.w3.org/1999/xlink"
   xmlns:sodipodi="http://sodipodi.sourceforge.net/DTD/sodipodi-0.dtd"
   xmlns:inkscape="http://www.inkscape.org/namespaces/inkscape"
   height="345.6pt"
   version="1.1"
   viewBox="0 0 460.8 345.6"
   width="460.8pt"
   id="svg204"
   sodipodi:docname="dataset1_control_cmds.svg"
   inkscape:version="1.0 (1.0+r73+1)">
  <metadata
     id="metadata208">
    <rdf:RDF>
      <cc:Work
         rdf:about="">
        <dc:format>image/svg+xml</dc:format>
        <dc:type
           rdf:resource="http://purl.org/dc/dcmitype/StillImage" />
        <dc:title />
      </cc:Work>
    </rdf:RDF>
  </metadata>
  <sodipodi:namedview
     inkscape:document-rotation="0"
     pagecolor="#ffffff"
     bordercolor="#666666"
     borderopacity="1"
     objecttolerance="10"
     gridtolerance="10"
     guidetolerance="10"
     inkscape:pageopacity="0"
     inkscape:pageshadow="2"
     inkscape:window-width="1600"
     inkscape:window-height="850"
     id="namedview206"
     showgrid="false"
     showguides="false"
     inkscape:zoom="0.93759166"
     inkscape:cx="428.47037"
     inkscape:cy="253.30183"
     inkscape:window-x="0"
     inkscape:window-y="0"
     inkscape:window-maximized="1"
     inkscape:current-layer="svg204" />
  <defs
     id="defs4">
    <style
       type="text/css"
       id="style2">
*{stroke-linecap:butt;stroke-linejoin:round;}
  </style>
  </defs>
  <g
     id="matplotlib.axis_1" />
  <g
     id="matplotlib.axis_2" />
  <g
     id="g1052">
    <g
       transform="matrix(0.8329187,0,0,0.8329187,39.692814,10.049622)"
       id="patch_2">
      <path
         id="path9"
         style="fill:#d85c41;stroke:#000000;stroke-width:0.5;stroke-linejoin:miter"
         d="m 321.3386,140.57143 c 0,-3.29429 -0.17897,-6.58616 -0.53614,-9.86103 -0.35716,-3.27487 -0.89198,-6.52793 -1.6021,-9.74477 l -88.8149,19.6058 z" />
    </g>
    <g
       transform="matrix(0.8329187,0,0,0.8329187,39.692814,10.049622)"
       id="patch_3">
      <path
         id="path12"
         style="fill:#57ab27;stroke:#000000;stroke-width:0.5;stroke-linejoin:miter"
         d="m 319.20036,120.96563 c -0.10432,-0.4726 -0.21242,-0.94436 -0.32428,-1.41524 -0.11185,-0.47087 -0.22747,-0.94084 -0.34682,-1.40987 l -88.1438,22.43091 z" />
    </g>
    <g
       transform="matrix(0.8329187,0,0,0.8329187,39.692814,10.049622)"
       id="patch_4">
      <path
         id="path15"
         style="fill:#407fb7;stroke:#000000;stroke-width:0.5;stroke-linejoin:miter"
         d="M 318.52926,118.14052 C 315.70118,107.02739 310.79674,96.548703 304.075,87.257963 297.35327,77.967222 288.93471,70.030951 279.26403,63.868366 269.59335,57.705781 258.84386,53.427334 247.5834,51.259027 c -11.26046,-2.168308 -22.83008,-2.187613 -34.09772,-0.0569 -11.26763,2.130716 -22.03134,6.373264 -31.72253,12.503541 -9.6912,6.130277 -18.13619,14.038409 -24.8889,23.306665 -6.7527,9.268256 -11.69208,19.730527 -14.55723,30.834147 -2.86515,11.10363 -3.60472,22.6496 -2.17963,34.02803 1.42509,11.37843 4.98928,22.38538 10.50432,32.43944 5.51503,10.05405 12.88206,18.975 21.71193,26.29162 8.82987,7.31663 18.96432,12.89778 29.86803,16.44866 10.90371,3.55088 22.38124,5.00783 33.82632,4.2939 11.44509,-0.71393 22.65258,-3.58594 33.03048,-8.46434 10.37791,-4.87839 19.74021,-11.67573 27.59236,-20.03296 7.85216,-8.35723 14.05343,-18.12455 18.27626,-28.78604 4.22283,-10.66149 6.39152,-22.02605 6.39151,-33.49337 l -90.95314,1e-5 z" />
    </g>
    <g
       transform="matrix(0.8329187,0,0,0.8329187,37.22328,15.793103)"
       id="text_1">
      <!-- Acceleration -->
      <defs
         id="defs30">
        <path
           id="DejaVuSans-65"
           d="M 34.1875,63.1875 20.796875,26.90625 h 26.8125 z m -5.578125,9.71875 h 11.1875 L 67.578125,0 h -10.25 L 50.6875,18.703125 H 17.828125 L 11.1875,0 H 0.78125 Z" />
        <path
           id="DejaVuSans-99"
           d="M 48.78125,52.59375 V 44.1875 q -3.8125,2.109375 -7.640625,3.15625 -3.828125,1.046875 -7.734375,1.046875 -8.75,0 -13.59375,-5.546875 -4.828125,-5.53125 -4.828125,-15.546875 0,-10.015625 4.828125,-15.5625 4.84375,-5.53125 13.59375,-5.53125 3.90625,0 7.734375,1.046875 3.828125,1.046875 7.640625,3.15625 v -8.3125 q -3.765625,-1.75 -7.796875,-2.625 -4.015625,-0.890625 -8.5625,-0.890625 -12.359375,0 -19.640625,7.765625 -7.265625,7.765625 -7.265625,20.953125 0,13.375 7.34375,21.03125 Q 20.21875,56 33.015625,56 q 4.140625,0 8.09375,-0.859375 3.953125,-0.84375 7.671875,-2.546875 z" />
        <path
           id="DejaVuSans-101"
           d="m 56.203125,29.59375 v -4.390625 h -41.3125 q 0.59375,-9.28125 5.59375,-14.140625 5,-4.859375 13.9375,-4.859375 5.171875,0 10.03125,1.265625 4.859375,1.265625 9.65625,3.8125 v -8.5 q -4.84375,-2.046875 -9.921875,-3.125 -5.078125,-1.078125 -10.296875,-1.078125 -13.09375,0 -20.734375,7.609375 -7.640625,7.625 -7.640625,20.625 0,13.421875 7.25,21.296875 Q 20.015625,56 32.328125,56 q 11.03125,0 17.453125,-7.109375 6.421875,-7.09375 6.421875,-19.296875 z m -8.984375,2.640625 q -0.09375,7.359375 -4.125,11.75 -4.03125,4.40625 -10.671875,4.40625 -7.515625,0 -12.03125,-4.25 -4.515625,-4.25 -5.203125,-11.96875 z" />
        <path
           id="DejaVuSans-108"
           d="M 9.421875,75.984375 H 18.40625 V 0 H 9.421875 Z" />
        <path
           id="DejaVuSans-114"
           d="m 41.109375,46.296875 q -1.515625,0.875 -3.296875,1.28125 Q 36.03125,48 33.890625,48 26.265625,48 22.1875,43.046875 18.109375,38.09375 18.109375,28.8125 V 0 h -9.03125 v 54.6875 h 9.03125 v -8.5 q 2.84375,4.984375 7.375,7.390625 Q 30.03125,56 36.53125,56 q 0.921875,0 2.046875,-0.125 1.125,-0.109375 2.484375,-0.359375 z" />
        <path
           id="DejaVuSans-97"
           d="m 34.28125,27.484375 q -10.890625,0 -15.09375,-2.484375 -4.203125,-2.484375 -4.203125,-8.5 0,-4.78125 3.15625,-7.59375 3.15625,-2.796875 8.5625,-2.796875 7.484375,0 12,5.296875 4.515625,5.296875 4.515625,14.078125 v 2 z m 17.921875,3.71875 V 0 H 43.21875 v 8.296875 q -3.078125,-4.96875 -7.671875,-7.34375 -4.59375,-2.375 -11.234375,-2.375 -8.390625,0 -13.359375,4.71875 Q 6,8.015625 6,15.921875 q 0,9.21875 6.171875,13.90625 6.1875,4.6875 18.4375,4.6875 H 43.21875 v 0.890625 q 0,6.203125 -4.078125,9.59375 -4.078125,3.390625 -11.453125,3.390625 -4.6875,0 -9.140625,-1.125 -4.4375,-1.125 -8.53125,-3.375 v 8.3125 q 4.921875,1.90625 9.5625,2.84375 Q 24.21875,56 28.609375,56 q 11.875,0 17.734375,-6.15625 5.859375,-6.140625 5.859375,-18.640625 z" />
        <path
           id="DejaVuSans-116"
           d="M 18.3125,70.21875 V 54.6875 h 18.5 v -6.984375 h -18.5 v -29.6875 q 0,-6.6875 1.828125,-8.59375 1.828125,-1.90625 7.453125,-1.90625 H 36.8125 V 0 H 27.59375 Q 17.1875,0 13.234375,3.875 9.28125,7.765625 9.28125,18.015625 v 29.6875 H 2.6875 V 54.6875 h 6.59375 v 15.53125 z" />
        <path
           id="DejaVuSans-105"
           d="M 9.421875,54.6875 H 18.40625 V 0 H 9.421875 Z m 0,21.296875 H 18.40625 V 64.59375 H 9.421875 Z" />
        <path
           id="DejaVuSans-111"
           d="m 30.609375,48.390625 q -7.21875,0 -11.421875,-5.640625 -4.203125,-5.640625 -4.203125,-15.453125 0,-9.8125 4.171875,-15.453125 4.1875,-5.640625 11.453125,-5.640625 7.1875,0 11.375,5.65625 4.203125,5.671875 4.203125,15.4375 0,9.71875 -4.203125,15.40625 -4.1875,5.6875 -11.375,5.6875 z m 0,7.609375 q 11.71875,0 18.40625,-7.625 6.703125,-7.609375 6.703125,-21.078125 0,-13.421875 -6.703125,-21.078125 -6.6875,-7.640625 -18.40625,-7.640625 -11.765625,0 -18.4375,7.640625 -6.65625,7.65625 -6.65625,21.078125 0,13.46875 6.65625,21.078125 Q 18.84375,56 30.609375,56 Z" />
        <path
           id="DejaVuSans-110"
           d="M 54.890625,33.015625 V 0 H 45.90625 v 32.71875 q 0,7.765625 -3.03125,11.609375 -3.03125,3.859375 -9.078125,3.859375 -7.28125,0 -11.484375,-4.640625 -4.203125,-4.625 -4.203125,-12.640625 V 0 h -9.03125 v 54.6875 h 9.03125 v -8.5 q 3.234375,4.9375 7.59375,7.375 4.375,2.4375 10.09375,2.4375 9.421875,0 14.25,-5.828125 4.84375,-5.828125 4.84375,-17.15625 z" />
      </defs>
      <g
         id="g56"
         transform="matrix(0.1,0,0,-0.1,329.84416,132.48367)">
        <use
           height="100%"
           width="100%"
           y="0"
           x="0"
           id="use32"
           xlink:href="#DejaVuSans-65" />
        <use
           height="100%"
           width="100%"
           y="0"
           id="use34"
           xlink:href="#DejaVuSans-99"
           x="66.658203" />
        <use
           height="100%"
           width="100%"
           y="0"
           id="use36"
           xlink:href="#DejaVuSans-99"
           x="121.63867" />
        <use
           height="100%"
           width="100%"
           y="0"
           id="use38"
           xlink:href="#DejaVuSans-101"
           x="176.61914" />
        <use
           height="100%"
           width="100%"
           y="0"
           id="use40"
           xlink:href="#DejaVuSans-108"
           x="238.14258" />
        <use
           height="100%"
           width="100%"
           y="0"
           id="use42"
           xlink:href="#DejaVuSans-101"
           x="265.92578" />
        <use
           height="100%"
           width="100%"
           y="0"
           id="use44"
           xlink:href="#DejaVuSans-114"
           x="327.44922" />
        <use
           height="100%"
           width="100%"
           y="0"
           id="use46"
           xlink:href="#DejaVuSans-97"
           x="368.5625" />
        <use
           height="100%"
           width="100%"
           y="0"
           id="use48"
           xlink:href="#DejaVuSans-116"
           x="429.8418" />
        <use
           height="100%"
           width="100%"
           y="0"
           id="use50"
           xlink:href="#DejaVuSans-105"
           x="469.05078" />
        <use
           height="100%"
           width="100%"
           y="0"
           id="use52"
           xlink:href="#DejaVuSans-111"
           x="496.83398" />
        <use
           height="100%"
           width="100%"
           y="0"
           id="use54"
           xlink:href="#DejaVuSans-110"
           x="558.01562" />
      </g>
    </g>
    <g
       transform="matrix(0.8329187,0,0,0.8329187,38.236013,10.049622)"
       id="text_2">
      <!-- Braking -->
      <defs
         id="defs62">
        <path
           id="DejaVuSans-66"
           d="M 19.671875,34.8125 V 8.109375 H 35.5 q 7.953125,0 11.78125,3.296875 3.84375,3.296875 3.84375,10.078125 0,6.84375 -3.84375,10.078125 -3.828125,3.25 -11.78125,3.25 z m 0,29.984375 V 42.828125 H 34.28125 q 7.21875,0 10.75,2.703125 3.546875,2.71875 3.546875,8.28125 0,5.515625 -3.546875,8.25 -3.53125,2.734375 -10.75,2.734375 z M 9.8125,72.90625 h 25.203125 q 11.28125,0 17.375,-4.6875 Q 58.5,63.53125 58.5,54.890625 58.5,48.1875 55.375,44.234375 52.25,40.28125 46.1875,39.3125 53.46875,37.75 57.5,32.78125 q 4.03125,-4.953125 4.03125,-12.375 0,-9.765625 -6.640625,-15.09375 Q 48.25,0 35.984375,0 H 9.8125 Z" />
        <path
           id="DejaVuSans-107"
           d="m 9.078125,75.984375 h 9.03125 v -44.875 l 26.8125,23.578125 h 11.46875 l -29,-25.578125 L 57.625,0 H 45.90625 L 18.109375,26.703125 V 0 h -9.03125 z" />
        <path
           id="DejaVuSans-103"
           d="m 45.40625,27.984375 q 0,9.765625 -4.03125,15.125 -4.015625,5.375 -11.296875,5.375 -7.21875,0 -11.25,-5.375 -4.03125,-5.359375 -4.03125,-15.125 0,-9.71875 4.03125,-15.09375 4.03125,-5.375 11.25,-5.375 7.28125,0 11.296875,5.375 4.03125,5.375 4.03125,15.09375 z M 54.390625,6.78125 q 0,-13.953125 -6.203125,-20.765625 -6.1875,-6.8125 -18.984375,-6.8125 -4.734375,0 -8.9375,0.703125 -4.203125,0.703125 -8.15625,2.171875 V -9.1875 q 3.953125,-2.140625 7.8125,-3.15625 3.859375,-1.03125 7.859375,-1.03125 8.84375,0 13.234375,4.609375 4.390625,4.609375 4.390625,13.9375 V 9.625 Q 42.625,4.78125 38.28125,2.390625 33.9375,0 27.875,0 17.828125,0 11.671875,7.65625 q -6.15625,7.671875 -6.15625,20.328125 0,12.6875 6.15625,20.34375 Q 17.828125,56 27.875,56 q 6.0625,0 10.40625,-2.390625 4.34375,-2.390625 7.125,-7.21875 V 54.6875 h 8.984375 z" />
      </defs>
      <g
         id="g78"
         transform="matrix(0.1,0,0,-0.1,327.72515,120.20767)">
        <use
           height="100%"
           width="100%"
           y="0"
           x="0"
           id="use64"
           xlink:href="#DejaVuSans-66" />
        <use
           height="100%"
           width="100%"
           y="0"
           id="use66"
           xlink:href="#DejaVuSans-114"
           x="68.603516" />
        <use
           height="100%"
           width="100%"
           y="0"
           id="use68"
           xlink:href="#DejaVuSans-97"
           x="109.7168" />
        <use
           height="100%"
           width="100%"
           y="0"
           id="use70"
           xlink:href="#DejaVuSans-107"
           x="170.99609" />
        <use
           height="100%"
           width="100%"
           y="0"
           id="use72"
           xlink:href="#DejaVuSans-105"
           x="228.90625" />
        <use
           height="100%"
           width="100%"
           y="0"
           id="use74"
           xlink:href="#DejaVuSans-110"
           x="256.68945" />
        <use
           height="100%"
           width="100%"
           y="0"
           id="use76"
           xlink:href="#DejaVuSans-103"
           x="320.06836" />
      </g>
    </g>
    <g
       transform="matrix(0.8329187,0,0,0.8329187,44.404121,10.449583)"
       id="text_3">
      <!-- No Action -->
      <defs
         id="defs83">
        <path
           id="DejaVuSans-78"
           d="M 9.8125,72.90625 H 23.09375 L 55.421875,11.921875 V 72.90625 h 9.5625 V 0 h -13.28125 l -32.3125,60.984375 V 0 H 9.8125 Z" />
        <path
           d=""
           id="DejaVuSans-32" />
      </defs>
      <g
         id="g103"
         transform="matrix(0.1,0,0,-0.1,83.015708,155.76419)">
        <use
           height="100%"
           width="100%"
           y="0"
           x="0"
           id="use85"
           xlink:href="#DejaVuSans-78" />
        <use
           height="100%"
           width="100%"
           y="0"
           id="use87"
           xlink:href="#DejaVuSans-111"
           x="74.804688" />
        <use
           height="100%"
           width="100%"
           y="0"
           id="use89"
           xlink:href="#DejaVuSans-32"
           x="135.98633" />
        <use
           height="100%"
           width="100%"
           y="0"
           id="use91"
           xlink:href="#DejaVuSans-65"
           x="167.77344" />
        <use
           height="100%"
           width="100%"
           y="0"
           id="use93"
           xlink:href="#DejaVuSans-99"
           x="234.43164" />
        <use
           height="100%"
           width="100%"
           y="0"
           id="use95"
           xlink:href="#DejaVuSans-116"
           x="289.41211" />
        <use
           height="100%"
           width="100%"
           y="0"
           id="use97"
           xlink:href="#DejaVuSans-105"
           x="328.62109" />
        <use
           height="100%"
           width="100%"
           y="0"
           id="use99"
           xlink:href="#DejaVuSans-111"
           x="356.4043" />
        <use
           height="100%"
           width="100%"
           y="0"
           id="use101"
           xlink:href="#DejaVuSans-110"
           x="417.58594" />
      </g>
    </g>
    <g
       transform="matrix(0.889698,0,0,0.889698,25.388309,1.8096421)"
       id="text_4">
      <!-- Control Commands distribution in dataset 1 -->
      <defs
         id="defs113">
        <path
           id="DejaVuSans-67"
           d="M 64.40625,67.28125 V 56.890625 q -4.984375,4.640625 -10.625,6.921875 -5.640625,2.296875 -11.984375,2.296875 -12.5,0 -19.140625,-7.640625 -6.640625,-7.640625 -6.640625,-22.09375 0,-14.40625 6.640625,-22.046875 Q 29.296875,6.6875 41.796875,6.6875 q 6.34375,0 11.984375,2.296875 5.640625,2.296875 10.625,6.9375 V 5.609375 Q 59.234375,2.09375 53.4375,0.328125 q -5.78125,-1.75 -12.21875,-1.75 -16.5625,0 -26.09375,10.125 Q 5.609375,18.84375 5.609375,36.375 q 0,17.578125 9.515625,27.703125 9.53125,10.140625 26.09375,10.140625 6.53125,0 12.3125,-1.734375 5.796875,-1.734375 10.875,-5.203125 z" />
        <path
           id="DejaVuSans-109"
           d="M 52,44.1875 Q 55.375,50.25 60.0625,53.125 64.75,56 71.09375,56 q 8.546875,0 13.1875,-5.984375 4.640625,-5.96875 4.640625,-17 V 0 h -9.03125 v 32.71875 q 0,7.859375 -2.796875,11.65625 -2.78125,3.8125 -8.484375,3.8125 -6.984375,0 -11.046875,-4.640625 -4.046875,-4.625 -4.046875,-12.640625 V 0 h -9.03125 v 32.71875 q 0,7.90625 -2.78125,11.6875 -2.78125,3.78125 -8.59375,3.78125 -6.890625,0 -10.953125,-4.65625 -4.046875,-4.65625 -4.046875,-12.625 V 0 h -9.03125 v 54.6875 h 9.03125 v -8.5 q 3.078125,5.03125 7.375,7.421875 Q 29.78125,56 35.6875,56 41.65625,56 45.828125,52.96875 50,49.953125 52,44.1875 Z" />
        <path
           id="DejaVuSans-100"
           d="m 45.40625,46.390625 v 29.59375 h 8.984375 V 0 H 45.40625 v 8.203125 q -2.828125,-4.875 -7.15625,-7.25 -4.3125,-2.375 -10.375,-2.375 -9.90625,0 -16.140625,7.90625 -6.21875,7.921875 -6.21875,20.8125 0,12.890625 6.21875,20.796875 Q 17.96875,56 27.875,56 q 6.0625,0 10.375,-2.375 4.328125,-2.359375 7.15625,-7.234375 z M 14.796875,27.296875 q 0,-9.90625 4.078125,-15.546875 4.078125,-5.640625 11.203125,-5.640625 7.125,0 11.21875,5.640625 4.109375,5.640625 4.109375,15.546875 0,9.90625 -4.109375,15.546875 -4.09375,5.640625 -11.21875,5.640625 -7.125,0 -11.203125,-5.640625 -4.078125,-5.640625 -4.078125,-15.546875 z" />
        <path
           id="DejaVuSans-115"
           d="m 44.28125,53.078125 v -8.5 Q 40.484375,46.53125 36.375,47.5 q -4.09375,0.984375 -8.5,0.984375 -6.6875,0 -10.03125,-2.046875 Q 14.5,44.390625 14.5,40.28125 q 0,-3.125 2.390625,-4.90625 2.390625,-1.78125 9.625,-3.390625 l 3.078125,-0.6875 Q 39.15625,29.25 43.1875,25.515625 47.21875,21.78125 47.21875,15.09375 q 0,-7.625 -6.03125,-12.078125 -6.03125,-4.4375 -16.578125,-4.4375 -4.390625,0 -9.15625,0.859375 Q 10.6875,0.296875 5.421875,2 v 9.28125 q 4.984375,-2.59375 9.8125,-3.890625 4.828125,-1.28125 9.578125,-1.28125 6.34375,0 9.75,2.171875 3.421875,2.171875 3.421875,6.125 0,3.65625 -2.46875,5.609375 -2.453125,1.953125 -10.8125,3.765625 l -3.125,0.734375 q -8.34375,1.75 -12.0625,5.390625 -3.703125,3.640625 -3.703125,9.984375 0,7.71875 5.46875,11.90625 Q 16.75,56 26.8125,56 q 4.96875,0 9.359375,-0.734375 4.40625,-0.71875 8.109375,-2.1875 z" />
        <path
           id="DejaVuSans-98"
           d="m 48.6875,27.296875 q 0,9.90625 -4.078125,15.546875 -4.078125,5.640625 -11.203125,5.640625 -7.140625,0 -11.21875,-5.640625 -4.078125,-5.640625 -4.078125,-15.546875 0,-9.90625 4.078125,-15.546875 4.078125,-5.640625 11.21875,-5.640625 7.125,0 11.203125,5.640625 4.078125,5.640625 4.078125,15.546875 z m -30.578125,19.09375 q 2.84375,4.875 7.15625,7.234375 Q 29.59375,56 35.59375,56 q 9.96875,0 16.1875,-7.90625 6.234375,-7.90625 6.234375,-20.796875 0,-12.890625 -6.234375,-20.8125 -6.21875,-7.90625 -16.1875,-7.90625 -6,0 -10.328125,2.375 -4.3125,2.375 -7.15625,7.25 V 0 h -9.03125 v 75.984375 h 9.03125 z" />
        <path
           id="DejaVuSans-117"
           d="M 8.5,21.578125 V 54.6875 h 8.984375 V 21.921875 q 0,-7.765625 3.015625,-11.65625 3.03125,-3.875 9.09375,-3.875 7.265625,0 11.484375,4.640625 4.234375,4.640625 4.234375,12.65625 v 31 h 8.984375 V 0 H 45.3125 V 8.40625 Q 42.046875,3.421875 37.71875,1 33.40625,-1.421875 27.6875,-1.421875 18.265625,-1.421875 13.375,4.4375 8.5,10.296875 8.5,21.578125 Z M 31.109375,56 Z" />
        <path
           id="DejaVuSans-49"
           d="m 12.40625,8.296875 h 16.109375 v 55.625 L 10.984375,60.40625 v 8.984375 l 17.4375,3.515625 H 38.28125 V 8.296875 H 54.390625 V 0 H 12.40625 Z" />
      </defs>
      <g
         id="g199"
         transform="matrix(0.12,0,0,-0.12,99.0389,20.88)">
        <use
           height="100%"
           width="100%"
           y="0"
           x="0"
           id="use115"
           xlink:href="#DejaVuSans-67" />
        <use
           height="100%"
           width="100%"
           y="0"
           id="use117"
           xlink:href="#DejaVuSans-111"
           x="69.824219" />
        <use
           height="100%"
           width="100%"
           y="0"
           id="use119"
           xlink:href="#DejaVuSans-110"
           x="131.00586" />
        <use
           height="100%"
           width="100%"
           y="0"
           id="use121"
           xlink:href="#DejaVuSans-116"
           x="194.38477" />
        <use
           height="100%"
           width="100%"
           y="0"
           id="use123"
           xlink:href="#DejaVuSans-114"
           x="233.59375" />
        <use
           height="100%"
           width="100%"
           y="0"
           id="use125"
           xlink:href="#DejaVuSans-111"
           x="272.45703" />
        <use
           height="100%"
           width="100%"
           y="0"
           id="use127"
           xlink:href="#DejaVuSans-108"
           x="333.63867" />
        <use
           height="100%"
           width="100%"
           y="0"
           id="use129"
           xlink:href="#DejaVuSans-32"
           x="361.42188" />
        <use
           height="100%"
           width="100%"
           y="0"
           id="use131"
           xlink:href="#DejaVuSans-67"
           x="393.20898" />
        <use
           height="100%"
           width="100%"
           y="0"
           id="use133"
           xlink:href="#DejaVuSans-111"
           x="463.0332" />
        <use
           height="100%"
           width="100%"
           y="0"
           id="use135"
           xlink:href="#DejaVuSans-109"
           x="524.21484" />
        <use
           height="100%"
           width="100%"
           y="0"
           id="use137"
           xlink:href="#DejaVuSans-109"
           x="621.62695" />
        <use
           height="100%"
           width="100%"
           y="0"
           id="use139"
           xlink:href="#DejaVuSans-97"
           x="719.03906" />
        <use
           height="100%"
           width="100%"
           y="0"
           id="use141"
           xlink:href="#DejaVuSans-110"
           x="780.31836" />
        <use
           height="100%"
           width="100%"
           y="0"
           id="use143"
           xlink:href="#DejaVuSans-100"
           x="843.69727" />
        <use
           height="100%"
           width="100%"
           y="0"
           id="use145"
           xlink:href="#DejaVuSans-115"
           x="907.17383" />
        <use
           height="100%"
           width="100%"
           y="0"
           id="use147"
           xlink:href="#DejaVuSans-32"
           x="959.27344" />
        <use
           height="100%"
           width="100%"
           y="0"
           id="use149"
           xlink:href="#DejaVuSans-100"
           x="991.06055" />
        <use
           height="100%"
           width="100%"
           y="0"
           id="use151"
           xlink:href="#DejaVuSans-105"
           x="1054.5371" />
        <use
           height="100%"
           width="100%"
           y="0"
           id="use153"
           xlink:href="#DejaVuSans-115"
           x="1082.3203" />
        <use
           height="100%"
           width="100%"
           y="0"
           id="use155"
           xlink:href="#DejaVuSans-116"
           x="1134.4199" />
        <use
           height="100%"
           width="100%"
           y="0"
           id="use157"
           xlink:href="#DejaVuSans-114"
           x="1173.6289" />
        <use
           height="100%"
           width="100%"
           y="0"
           id="use159"
           xlink:href="#DejaVuSans-105"
           x="1214.7422" />
        <use
           height="100%"
           width="100%"
           y="0"
           id="use161"
           xlink:href="#DejaVuSans-98"
           x="1242.5254" />
        <use
           height="100%"
           width="100%"
           y="0"
           id="use163"
           xlink:href="#DejaVuSans-117"
           x="1306.002" />
        <use
           height="100%"
           width="100%"
           y="0"
           id="use165"
           xlink:href="#DejaVuSans-116"
           x="1369.3809" />
        <use
           height="100%"
           width="100%"
           y="0"
           id="use167"
           xlink:href="#DejaVuSans-105"
           x="1408.5898" />
        <use
           height="100%"
           width="100%"
           y="0"
           id="use169"
           xlink:href="#DejaVuSans-111"
           x="1436.373" />
        <use
           height="100%"
           width="100%"
           y="0"
           id="use171"
           xlink:href="#DejaVuSans-110"
           x="1497.5547" />
        <use
           height="100%"
           width="100%"
           y="0"
           id="use173"
           xlink:href="#DejaVuSans-32"
           x="1560.9336" />
        <use
           height="100%"
           width="100%"
           y="0"
           id="use175"
           xlink:href="#DejaVuSans-105"
           x="1592.7207" />
        <use
           height="100%"
           width="100%"
           y="0"
           id="use177"
           xlink:href="#DejaVuSans-110"
           x="1620.5039" />
        <use
           height="100%"
           width="100%"
           y="0"
           id="use179"
           xlink:href="#DejaVuSans-32"
           x="1683.8828" />
        <use
           height="100%"
           width="100%"
           y="0"
           id="use181"
           xlink:href="#DejaVuSans-100"
           x="1715.6699" />
        <use
           height="100%"
           width="100%"
           y="0"
           id="use183"
           xlink:href="#DejaVuSans-97"
           x="1779.1465" />
        <use
           height="100%"
           width="100%"
           y="0"
           id="use185"
           xlink:href="#DejaVuSans-116"
           x="1840.4258" />
        <use
           height="100%"
           width="100%"
           y="0"
           id="use187"
           xlink:href="#DejaVuSans-97"
           x="1879.6348" />
        <use
           height="100%"
           width="100%"
           y="0"
           id="use189"
           xlink:href="#DejaVuSans-115"
           x="1940.9141" />
        <use
           height="100%"
           width="100%"
           y="0"
           id="use191"
           xlink:href="#DejaVuSans-101"
           x="1993.0137" />
        <use
           height="100%"
           width="100%"
           y="0"
           id="use193"
           xlink:href="#DejaVuSans-116"
           x="2054.5371" />
        <use
           height="100%"
           width="100%"
           y="0"
           id="use195"
           xlink:href="#DejaVuSans-32"
           x="2093.7461" />
        <use
           height="100%"
           width="100%"
           y="0"
           id="use197"
           xlink:href="#DejaVuSans-49"
           x="2125.5332" />
      </g>
    </g>
  </g>
</svg>
