<?xml version="1.0" encoding="UTF-8" standalone="no"?>
<svg
   xmlns:dc="http://purl.org/dc/elements/1.1/"
   xmlns:cc="http://creativecommons.org/ns#"
   xmlns:rdf="http://www.w3.org/1999/02/22-rdf-syntax-ns#"
   xmlns:svg="http://www.w3.org/2000/svg"
   xmlns="http://www.w3.org/2000/svg"
   xmlns:sodipodi="http://sodipodi.sourceforge.net/DTD/sodipodi-0.dtd"
   xmlns:inkscape="http://www.inkscape.org/namespaces/inkscape"
   sodipodi:docname="datasets_control_cmds.svg"
   inkscape:version="1.0 (1.0+r73+1)"
   id="svg1179"
   version="1.1"
   viewBox="0 0 210 297"
   height="297mm"
   width="210mm">
  <defs
     id="defs1173">
    <path
       d="M 34.1875,63.1875 20.796875,26.90625 h 26.8125 z m -5.578125,9.71875 h 11.1875 L 67.578125,0 h -10.25 L 50.6875,18.703125 H 17.828125 L 11.1875,0 H 0.78125 Z"
       id="DejaVuSans-65" />
    <path
       d="M 48.78125,52.59375 V 44.1875 q -3.8125,2.109375 -7.640625,3.15625 -3.828125,1.046875 -7.734375,1.046875 -8.75,0 -13.59375,-5.546875 -4.828125,-5.53125 -4.828125,-15.546875 0,-10.015625 4.828125,-15.5625 4.84375,-5.53125 13.59375,-5.53125 3.90625,0 7.734375,1.046875 3.828125,1.046875 7.640625,3.15625 v -8.3125 q -3.765625,-1.75 -7.796875,-2.625 -4.015625,-0.890625 -8.5625,-0.890625 -12.359375,0 -19.640625,7.765625 -7.265625,7.765625 -7.265625,20.953125 0,13.375 7.34375,21.03125 Q 20.21875,56 33.015625,56 q 4.140625,0 8.09375,-0.859375 3.953125,-0.84375 7.671875,-2.546875 z"
       id="DejaVuSans-99" />
    <path
       d="m 56.203125,29.59375 v -4.390625 h -41.3125 q 0.59375,-9.28125 5.59375,-14.140625 5,-4.859375 13.9375,-4.859375 5.171875,0 10.03125,1.265625 4.859375,1.265625 9.65625,3.8125 v -8.5 q -4.84375,-2.046875 -9.921875,-3.125 -5.078125,-1.078125 -10.296875,-1.078125 -13.09375,0 -20.734375,7.609375 -7.640625,7.625 -7.640625,20.625 0,13.421875 7.25,21.296875 Q 20.015625,56 32.328125,56 q 11.03125,0 17.453125,-7.109375 6.421875,-7.09375 6.421875,-19.296875 z m -8.984375,2.640625 q -0.09375,7.359375 -4.125,11.75 -4.03125,4.40625 -10.671875,4.40625 -7.515625,0 -12.03125,-4.25 -4.515625,-4.25 -5.203125,-11.96875 z"
       id="DejaVuSans-101" />
    <path
       d="M 9.421875,75.984375 H 18.40625 V 0 H 9.421875 Z"
       id="DejaVuSans-108" />
    <path
       d="m 41.109375,46.296875 q -1.515625,0.875 -3.296875,1.28125 Q 36.03125,48 33.890625,48 26.265625,48 22.1875,43.046875 18.109375,38.09375 18.109375,28.8125 V 0 h -9.03125 v 54.6875 h 9.03125 v -8.5 q 2.84375,4.984375 7.375,7.390625 Q 30.03125,56 36.53125,56 q 0.921875,0 2.046875,-0.125 1.125,-0.109375 2.484375,-0.359375 z"
       id="DejaVuSans-114" />
    <path
       d="m 34.28125,27.484375 q -10.890625,0 -15.09375,-2.484375 -4.203125,-2.484375 -4.203125,-8.5 0,-4.78125 3.15625,-7.59375 3.15625,-2.796875 8.5625,-2.796875 7.484375,0 12,5.296875 4.515625,5.296875 4.515625,14.078125 v 2 z m 17.921875,3.71875 V 0 H 43.21875 v 8.296875 q -3.078125,-4.96875 -7.671875,-7.34375 -4.59375,-2.375 -11.234375,-2.375 -8.390625,0 -13.359375,4.71875 Q 6,8.015625 6,15.921875 q 0,9.21875 6.171875,13.90625 6.1875,4.6875 18.4375,4.6875 H 43.21875 v 0.890625 q 0,6.203125 -4.078125,9.59375 -4.078125,3.390625 -11.453125,3.390625 -4.6875,0 -9.140625,-1.125 -4.4375,-1.125 -8.53125,-3.375 v 8.3125 q 4.921875,1.90625 9.5625,2.84375 Q 24.21875,56 28.609375,56 q 11.875,0 17.734375,-6.15625 5.859375,-6.140625 5.859375,-18.640625 z"
       id="DejaVuSans-97" />
    <path
       d="M 18.3125,70.21875 V 54.6875 h 18.5 v -6.984375 h -18.5 v -29.6875 q 0,-6.6875 1.828125,-8.59375 1.828125,-1.90625 7.453125,-1.90625 H 36.8125 V 0 H 27.59375 Q 17.1875,0 13.234375,3.875 9.28125,7.765625 9.28125,18.015625 v 29.6875 H 2.6875 V 54.6875 h 6.59375 v 15.53125 z"
       id="DejaVuSans-116" />
    <path
       d="M 9.421875,54.6875 H 18.40625 V 0 H 9.421875 Z m 0,21.296875 H 18.40625 V 64.59375 H 9.421875 Z"
       id="DejaVuSans-105" />
    <path
       d="m 30.609375,48.390625 q -7.21875,0 -11.421875,-5.640625 -4.203125,-5.640625 -4.203125,-15.453125 0,-9.8125 4.171875,-15.453125 4.1875,-5.640625 11.453125,-5.640625 7.1875,0 11.375,5.65625 4.203125,5.671875 4.203125,15.4375 0,9.71875 -4.203125,15.40625 -4.1875,5.6875 -11.375,5.6875 z m 0,7.609375 q 11.71875,0 18.40625,-7.625 6.703125,-7.609375 6.703125,-21.078125 0,-13.421875 -6.703125,-21.078125 -6.6875,-7.640625 -18.40625,-7.640625 -11.765625,0 -18.4375,7.640625 -6.65625,7.65625 -6.65625,21.078125 0,13.46875 6.65625,21.078125 Q 18.84375,56 30.609375,56 Z"
       id="DejaVuSans-111" />
    <path
       d="M 54.890625,33.015625 V 0 H 45.90625 v 32.71875 q 0,7.765625 -3.03125,11.609375 -3.03125,3.859375 -9.078125,3.859375 -7.28125,0 -11.484375,-4.640625 -4.203125,-4.625 -4.203125,-12.640625 V 0 h -9.03125 v 54.6875 h 9.03125 v -8.5 q 3.234375,4.9375 7.59375,7.375 4.375,2.4375 10.09375,2.4375 9.421875,0 14.25,-5.828125 4.84375,-5.828125 4.84375,-17.15625 z"
       id="DejaVuSans-110" />
    <path
       d="M 19.671875,34.8125 V 8.109375 H 35.5 q 7.953125,0 11.78125,3.296875 3.84375,3.296875 3.84375,10.078125 0,6.84375 -3.84375,10.078125 -3.828125,3.25 -11.78125,3.25 z m 0,29.984375 V 42.828125 H 34.28125 q 7.21875,0 10.75,2.703125 3.546875,2.71875 3.546875,8.28125 0,5.515625 -3.546875,8.25 -3.53125,2.734375 -10.75,2.734375 z M 9.8125,72.90625 h 25.203125 q 11.28125,0 17.375,-4.6875 Q 58.5,63.53125 58.5,54.890625 58.5,48.1875 55.375,44.234375 52.25,40.28125 46.1875,39.3125 53.46875,37.75 57.5,32.78125 q 4.03125,-4.953125 4.03125,-12.375 0,-9.765625 -6.640625,-15.09375 Q 48.25,0 35.984375,0 H 9.8125 Z"
       id="DejaVuSans-66" />
    <path
       d="m 9.078125,75.984375 h 9.03125 v -44.875 l 26.8125,23.578125 h 11.46875 l -29,-25.578125 L 57.625,0 H 45.90625 L 18.109375,26.703125 V 0 h -9.03125 z"
       id="DejaVuSans-107" />
    <path
       d="m 45.40625,27.984375 q 0,9.765625 -4.03125,15.125 -4.015625,5.375 -11.296875,5.375 -7.21875,0 -11.25,-5.375 -4.03125,-5.359375 -4.03125,-15.125 0,-9.71875 4.03125,-15.09375 4.03125,-5.375 11.25,-5.375 7.28125,0 11.296875,5.375 4.03125,5.375 4.03125,15.09375 z M 54.390625,6.78125 q 0,-13.953125 -6.203125,-20.765625 -6.1875,-6.8125 -18.984375,-6.8125 -4.734375,0 -8.9375,0.703125 -4.203125,0.703125 -8.15625,2.171875 V -9.1875 q 3.953125,-2.140625 7.8125,-3.15625 3.859375,-1.03125 7.859375,-1.03125 8.84375,0 13.234375,4.609375 4.390625,4.609375 4.390625,13.9375 V 9.625 Q 42.625,4.78125 38.28125,2.390625 33.9375,0 27.875,0 17.828125,0 11.671875,7.65625 q -6.15625,7.671875 -6.15625,20.328125 0,12.6875 6.15625,20.34375 Q 17.828125,56 27.875,56 q 6.0625,0 10.40625,-2.390625 4.34375,-2.390625 7.125,-7.21875 V 54.6875 h 8.984375 z"
       id="DejaVuSans-103" />
    <path
       d="M 9.8125,72.90625 H 23.09375 L 55.421875,11.921875 V 72.90625 h 9.5625 V 0 h -13.28125 l -32.3125,60.984375 V 0 H 9.8125 Z"
       id="DejaVuSans-78" />
    <path
       id="DejaVuSans-32"
       d="" />
    <path
       d="M 64.40625,67.28125 V 56.890625 q -4.984375,4.640625 -10.625,6.921875 -5.640625,2.296875 -11.984375,2.296875 -12.5,0 -19.140625,-7.640625 -6.640625,-7.640625 -6.640625,-22.09375 0,-14.40625 6.640625,-22.046875 Q 29.296875,6.6875 41.796875,6.6875 q 6.34375,0 11.984375,2.296875 5.640625,2.296875 10.625,6.9375 V 5.609375 Q 59.234375,2.09375 53.4375,0.328125 q -5.78125,-1.75 -12.21875,-1.75 -16.5625,0 -26.09375,10.125 Q 5.609375,18.84375 5.609375,36.375 q 0,17.578125 9.515625,27.703125 9.53125,10.140625 26.09375,10.140625 6.53125,0 12.3125,-1.734375 5.796875,-1.734375 10.875,-5.203125 z"
       id="DejaVuSans-67" />
    <path
       d="M 52,44.1875 Q 55.375,50.25 60.0625,53.125 64.75,56 71.09375,56 q 8.546875,0 13.1875,-5.984375 4.640625,-5.96875 4.640625,-17 V 0 h -9.03125 v 32.71875 q 0,7.859375 -2.796875,11.65625 -2.78125,3.8125 -8.484375,3.8125 -6.984375,0 -11.046875,-4.640625 -4.046875,-4.625 -4.046875,-12.640625 V 0 h -9.03125 v 32.71875 q 0,7.90625 -2.78125,11.6875 -2.78125,3.78125 -8.59375,3.78125 -6.890625,0 -10.953125,-4.65625 -4.046875,-4.65625 -4.046875,-12.625 V 0 h -9.03125 v 54.6875 h 9.03125 v -8.5 q 3.078125,5.03125 7.375,7.421875 Q 29.78125,56 35.6875,56 41.65625,56 45.828125,52.96875 50,49.953125 52,44.1875 Z"
       id="DejaVuSans-109" />
    <path
       d="m 45.40625,46.390625 v 29.59375 h 8.984375 V 0 H 45.40625 v 8.203125 q -2.828125,-4.875 -7.15625,-7.25 -4.3125,-2.375 -10.375,-2.375 -9.90625,0 -16.140625,7.90625 -6.21875,7.921875 -6.21875,20.8125 0,12.890625 6.21875,20.796875 Q 17.96875,56 27.875,56 q 6.0625,0 10.375,-2.375 4.328125,-2.359375 7.15625,-7.234375 z M 14.796875,27.296875 q 0,-9.90625 4.078125,-15.546875 4.078125,-5.640625 11.203125,-5.640625 7.125,0 11.21875,5.640625 4.109375,5.640625 4.109375,15.546875 0,9.90625 -4.109375,15.546875 -4.09375,5.640625 -11.21875,5.640625 -7.125,0 -11.203125,-5.640625 -4.078125,-5.640625 -4.078125,-15.546875 z"
       id="DejaVuSans-100" />
    <path
       d="m 44.28125,53.078125 v -8.5 Q 40.484375,46.53125 36.375,47.5 q -4.09375,0.984375 -8.5,0.984375 -6.6875,0 -10.03125,-2.046875 Q 14.5,44.390625 14.5,40.28125 q 0,-3.125 2.390625,-4.90625 2.390625,-1.78125 9.625,-3.390625 l 3.078125,-0.6875 Q 39.15625,29.25 43.1875,25.515625 47.21875,21.78125 47.21875,15.09375 q 0,-7.625 -6.03125,-12.078125 -6.03125,-4.4375 -16.578125,-4.4375 -4.390625,0 -9.15625,0.859375 Q 10.6875,0.296875 5.421875,2 v 9.28125 q 4.984375,-2.59375 9.8125,-3.890625 4.828125,-1.28125 9.578125,-1.28125 6.34375,0 9.75,2.171875 3.421875,2.171875 3.421875,6.125 0,3.65625 -2.46875,5.609375 -2.453125,1.953125 -10.8125,3.765625 l -3.125,0.734375 q -8.34375,1.75 -12.0625,5.390625 -3.703125,3.640625 -3.703125,9.984375 0,7.71875 5.46875,11.90625 Q 16.75,56 26.8125,56 q 4.96875,0 9.359375,-0.734375 4.40625,-0.71875 8.109375,-2.1875 z"
       id="DejaVuSans-115" />
    <path
       d="m 48.6875,27.296875 q 0,9.90625 -4.078125,15.546875 -4.078125,5.640625 -11.203125,5.640625 -7.140625,0 -11.21875,-5.640625 -4.078125,-5.640625 -4.078125,-15.546875 0,-9.90625 4.078125,-15.546875 4.078125,-5.640625 11.21875,-5.640625 7.125,0 11.203125,5.640625 4.078125,5.640625 4.078125,15.546875 z m -30.578125,19.09375 q 2.84375,4.875 7.15625,7.234375 Q 29.59375,56 35.59375,56 q 9.96875,0 16.1875,-7.90625 6.234375,-7.90625 6.234375,-20.796875 0,-12.890625 -6.234375,-20.8125 -6.21875,-7.90625 -16.1875,-7.90625 -6,0 -10.328125,2.375 -4.3125,2.375 -7.15625,7.25 V 0 h -9.03125 v 75.984375 h 9.03125 z"
       id="DejaVuSans-98" />
    <path
       d="M 8.5,21.578125 V 54.6875 h 8.984375 V 21.921875 q 0,-7.765625 3.015625,-11.65625 3.03125,-3.875 9.09375,-3.875 7.265625,0 11.484375,4.640625 4.234375,4.640625 4.234375,12.65625 v 31 h 8.984375 V 0 H 45.3125 V 8.40625 Q 42.046875,3.421875 37.71875,1 33.40625,-1.421875 27.6875,-1.421875 18.265625,-1.421875 13.375,4.4375 8.5,10.296875 8.5,21.578125 Z M 31.109375,56 Z"
       id="DejaVuSans-117" />
    <path
       d="m 12.40625,8.296875 h 16.109375 v 55.625 L 10.984375,60.40625 v 8.984375 l 17.4375,3.515625 H 38.28125 V 8.296875 H 54.390625 V 0 H 12.40625 Z"
       id="DejaVuSans-49" />
    <path
       d="M 34.1875,63.1875 20.796875,26.90625 h 26.8125 z m -5.578125,9.71875 h 11.1875 L 67.578125,0 h -10.25 L 50.6875,18.703125 H 17.828125 L 11.1875,0 H 0.78125 Z"
       id="DejaVuSans-65-9" />
    <path
       d="M 48.78125,52.59375 V 44.1875 q -3.8125,2.109375 -7.640625,3.15625 -3.828125,1.046875 -7.734375,1.046875 -8.75,0 -13.59375,-5.546875 -4.828125,-5.53125 -4.828125,-15.546875 0,-10.015625 4.828125,-15.5625 4.84375,-5.53125 13.59375,-5.53125 3.90625,0 7.734375,1.046875 3.828125,1.046875 7.640625,3.15625 v -8.3125 q -3.765625,-1.75 -7.796875,-2.625 -4.015625,-0.890625 -8.5625,-0.890625 -12.359375,0 -19.640625,7.765625 -7.265625,7.765625 -7.265625,20.953125 0,13.375 7.34375,21.03125 Q 20.21875,56 33.015625,56 q 4.140625,0 8.09375,-0.859375 3.953125,-0.84375 7.671875,-2.546875 z"
       id="DejaVuSans-99-1" />
    <path
       d="m 56.203125,29.59375 v -4.390625 h -41.3125 q 0.59375,-9.28125 5.59375,-14.140625 5,-4.859375 13.9375,-4.859375 5.171875,0 10.03125,1.265625 4.859375,1.265625 9.65625,3.8125 v -8.5 q -4.84375,-2.046875 -9.921875,-3.125 -5.078125,-1.078125 -10.296875,-1.078125 -13.09375,0 -20.734375,7.609375 -7.640625,7.625 -7.640625,20.625 0,13.421875 7.25,21.296875 Q 20.015625,56 32.328125,56 q 11.03125,0 17.453125,-7.109375 6.421875,-7.09375 6.421875,-19.296875 z m -8.984375,2.640625 q -0.09375,7.359375 -4.125,11.75 -4.03125,4.40625 -10.671875,4.40625 -7.515625,0 -12.03125,-4.25 -4.515625,-4.25 -5.203125,-11.96875 z"
       id="DejaVuSans-101-2" />
    <path
       d="M 9.421875,75.984375 H 18.40625 V 0 H 9.421875 Z"
       id="DejaVuSans-108-7" />
    <path
       d="m 41.109375,46.296875 q -1.515625,0.875 -3.296875,1.28125 Q 36.03125,48 33.890625,48 26.265625,48 22.1875,43.046875 18.109375,38.09375 18.109375,28.8125 V 0 h -9.03125 v 54.6875 h 9.03125 v -8.5 q 2.84375,4.984375 7.375,7.390625 Q 30.03125,56 36.53125,56 q 0.921875,0 2.046875,-0.125 1.125,-0.109375 2.484375,-0.359375 z"
       id="DejaVuSans-114-0" />
    <path
       d="m 34.28125,27.484375 q -10.890625,0 -15.09375,-2.484375 -4.203125,-2.484375 -4.203125,-8.5 0,-4.78125 3.15625,-7.59375 3.15625,-2.796875 8.5625,-2.796875 7.484375,0 12,5.296875 4.515625,5.296875 4.515625,14.078125 v 2 z m 17.921875,3.71875 V 0 H 43.21875 v 8.296875 q -3.078125,-4.96875 -7.671875,-7.34375 -4.59375,-2.375 -11.234375,-2.375 -8.390625,0 -13.359375,4.71875 Q 6,8.015625 6,15.921875 q 0,9.21875 6.171875,13.90625 6.1875,4.6875 18.4375,4.6875 H 43.21875 v 0.890625 q 0,6.203125 -4.078125,9.59375 -4.078125,3.390625 -11.453125,3.390625 -4.6875,0 -9.140625,-1.125 -4.4375,-1.125 -8.53125,-3.375 v 8.3125 q 4.921875,1.90625 9.5625,2.84375 Q 24.21875,56 28.609375,56 q 11.875,0 17.734375,-6.15625 5.859375,-6.140625 5.859375,-18.640625 z"
       id="DejaVuSans-97-9" />
    <path
       d="M 18.3125,70.21875 V 54.6875 h 18.5 v -6.984375 h -18.5 v -29.6875 q 0,-6.6875 1.828125,-8.59375 1.828125,-1.90625 7.453125,-1.90625 H 36.8125 V 0 H 27.59375 Q 17.1875,0 13.234375,3.875 9.28125,7.765625 9.28125,18.015625 v 29.6875 H 2.6875 V 54.6875 h 6.59375 v 15.53125 z"
       id="DejaVuSans-116-3" />
    <path
       d="M 9.421875,54.6875 H 18.40625 V 0 H 9.421875 Z m 0,21.296875 H 18.40625 V 64.59375 H 9.421875 Z"
       id="DejaVuSans-105-6" />
    <path
       d="m 30.609375,48.390625 q -7.21875,0 -11.421875,-5.640625 -4.203125,-5.640625 -4.203125,-15.453125 0,-9.8125 4.171875,-15.453125 4.1875,-5.640625 11.453125,-5.640625 7.1875,0 11.375,5.65625 4.203125,5.671875 4.203125,15.4375 0,9.71875 -4.203125,15.40625 -4.1875,5.6875 -11.375,5.6875 z m 0,7.609375 q 11.71875,0 18.40625,-7.625 6.703125,-7.609375 6.703125,-21.078125 0,-13.421875 -6.703125,-21.078125 -6.6875,-7.640625 -18.40625,-7.640625 -11.765625,0 -18.4375,7.640625 -6.65625,7.65625 -6.65625,21.078125 0,13.46875 6.65625,21.078125 Q 18.84375,56 30.609375,56 Z"
       id="DejaVuSans-111-0" />
    <path
       d="M 54.890625,33.015625 V 0 H 45.90625 v 32.71875 q 0,7.765625 -3.03125,11.609375 -3.03125,3.859375 -9.078125,3.859375 -7.28125,0 -11.484375,-4.640625 -4.203125,-4.625 -4.203125,-12.640625 V 0 h -9.03125 v 54.6875 h 9.03125 v -8.5 q 3.234375,4.9375 7.59375,7.375 4.375,2.4375 10.09375,2.4375 9.421875,0 14.25,-5.828125 4.84375,-5.828125 4.84375,-17.15625 z"
       id="DejaVuSans-110-6" />
    <path
       d="M 19.671875,34.8125 V 8.109375 H 35.5 q 7.953125,0 11.78125,3.296875 3.84375,3.296875 3.84375,10.078125 0,6.84375 -3.84375,10.078125 -3.828125,3.25 -11.78125,3.25 z m 0,29.984375 V 42.828125 H 34.28125 q 7.21875,0 10.75,2.703125 3.546875,2.71875 3.546875,8.28125 0,5.515625 -3.546875,8.25 -3.53125,2.734375 -10.75,2.734375 z M 9.8125,72.90625 h 25.203125 q 11.28125,0 17.375,-4.6875 Q 58.5,63.53125 58.5,54.890625 58.5,48.1875 55.375,44.234375 52.25,40.28125 46.1875,39.3125 53.46875,37.75 57.5,32.78125 q 4.03125,-4.953125 4.03125,-12.375 0,-9.765625 -6.640625,-15.09375 Q 48.25,0 35.984375,0 H 9.8125 Z"
       id="DejaVuSans-66-8" />
    <path
       d="m 9.078125,75.984375 h 9.03125 v -44.875 l 26.8125,23.578125 h 11.46875 l -29,-25.578125 L 57.625,0 H 45.90625 L 18.109375,26.703125 V 0 h -9.03125 z"
       id="DejaVuSans-107-9" />
    <path
       d="m 45.40625,27.984375 q 0,9.765625 -4.03125,15.125 -4.015625,5.375 -11.296875,5.375 -7.21875,0 -11.25,-5.375 -4.03125,-5.359375 -4.03125,-15.125 0,-9.71875 4.03125,-15.09375 4.03125,-5.375 11.25,-5.375 7.28125,0 11.296875,5.375 4.03125,5.375 4.03125,15.09375 z M 54.390625,6.78125 q 0,-13.953125 -6.203125,-20.765625 -6.1875,-6.8125 -18.984375,-6.8125 -4.734375,0 -8.9375,0.703125 -4.203125,0.703125 -8.15625,2.171875 V -9.1875 q 3.953125,-2.140625 7.8125,-3.15625 3.859375,-1.03125 7.859375,-1.03125 8.84375,0 13.234375,4.609375 4.390625,4.609375 4.390625,13.9375 V 9.625 Q 42.625,4.78125 38.28125,2.390625 33.9375,0 27.875,0 17.828125,0 11.671875,7.65625 q -6.15625,7.671875 -6.15625,20.328125 0,12.6875 6.15625,20.34375 Q 17.828125,56 27.875,56 q 6.0625,0 10.40625,-2.390625 4.34375,-2.390625 7.125,-7.21875 V 54.6875 h 8.984375 z"
       id="DejaVuSans-103-7" />
    <path
       d="M 9.8125,72.90625 H 23.09375 L 55.421875,11.921875 V 72.90625 h 9.5625 V 0 h -13.28125 l -32.3125,60.984375 V 0 H 9.8125 Z"
       id="DejaVuSans-78-8" />
    <path
       id="DejaVuSans-32-4"
       d="" />
    <path
       d="M 64.40625,67.28125 V 56.890625 q -4.984375,4.640625 -10.625,6.921875 -5.640625,2.296875 -11.984375,2.296875 -12.5,0 -19.140625,-7.640625 -6.640625,-7.640625 -6.640625,-22.09375 0,-14.40625 6.640625,-22.046875 Q 29.296875,6.6875 41.796875,6.6875 q 6.34375,0 11.984375,2.296875 5.640625,2.296875 10.625,6.9375 V 5.609375 Q 59.234375,2.09375 53.4375,0.328125 q -5.78125,-1.75 -12.21875,-1.75 -16.5625,0 -26.09375,10.125 Q 5.609375,18.84375 5.609375,36.375 q 0,17.578125 9.515625,27.703125 9.53125,10.140625 26.09375,10.140625 6.53125,0 12.3125,-1.734375 5.796875,-1.734375 10.875,-5.203125 z"
       id="DejaVuSans-67-5" />
    <path
       d="M 52,44.1875 Q 55.375,50.25 60.0625,53.125 64.75,56 71.09375,56 q 8.546875,0 13.1875,-5.984375 4.640625,-5.96875 4.640625,-17 V 0 h -9.03125 v 32.71875 q 0,7.859375 -2.796875,11.65625 -2.78125,3.8125 -8.484375,3.8125 -6.984375,0 -11.046875,-4.640625 -4.046875,-4.625 -4.046875,-12.640625 V 0 h -9.03125 v 32.71875 q 0,7.90625 -2.78125,11.6875 -2.78125,3.78125 -8.59375,3.78125 -6.890625,0 -10.953125,-4.65625 -4.046875,-4.65625 -4.046875,-12.625 V 0 h -9.03125 v 54.6875 h 9.03125 v -8.5 q 3.078125,5.03125 7.375,7.421875 Q 29.78125,56 35.6875,56 41.65625,56 45.828125,52.96875 50,49.953125 52,44.1875 Z"
       id="DejaVuSans-109-5" />
    <path
       d="m 45.40625,46.390625 v 29.59375 h 8.984375 V 0 H 45.40625 v 8.203125 q -2.828125,-4.875 -7.15625,-7.25 -4.3125,-2.375 -10.375,-2.375 -9.90625,0 -16.140625,7.90625 -6.21875,7.921875 -6.21875,20.8125 0,12.890625 6.21875,20.796875 Q 17.96875,56 27.875,56 q 6.0625,0 10.375,-2.375 4.328125,-2.359375 7.15625,-7.234375 z M 14.796875,27.296875 q 0,-9.90625 4.078125,-15.546875 4.078125,-5.640625 11.203125,-5.640625 7.125,0 11.21875,5.640625 4.109375,5.640625 4.109375,15.546875 0,9.90625 -4.109375,15.546875 -4.09375,5.640625 -11.21875,5.640625 -7.125,0 -11.203125,-5.640625 -4.078125,-5.640625 -4.078125,-15.546875 z"
       id="DejaVuSans-100-4" />
    <path
       d="m 44.28125,53.078125 v -8.5 Q 40.484375,46.53125 36.375,47.5 q -4.09375,0.984375 -8.5,0.984375 -6.6875,0 -10.03125,-2.046875 Q 14.5,44.390625 14.5,40.28125 q 0,-3.125 2.390625,-4.90625 2.390625,-1.78125 9.625,-3.390625 l 3.078125,-0.6875 Q 39.15625,29.25 43.1875,25.515625 47.21875,21.78125 47.21875,15.09375 q 0,-7.625 -6.03125,-12.078125 -6.03125,-4.4375 -16.578125,-4.4375 -4.390625,0 -9.15625,0.859375 Q 10.6875,0.296875 5.421875,2 v 9.28125 q 4.984375,-2.59375 9.8125,-3.890625 4.828125,-1.28125 9.578125,-1.28125 6.34375,0 9.75,2.171875 3.421875,2.171875 3.421875,6.125 0,3.65625 -2.46875,5.609375 -2.453125,1.953125 -10.8125,3.765625 l -3.125,0.734375 q -8.34375,1.75 -12.0625,5.390625 -3.703125,3.640625 -3.703125,9.984375 0,7.71875 5.46875,11.90625 Q 16.75,56 26.8125,56 q 4.96875,0 9.359375,-0.734375 4.40625,-0.71875 8.109375,-2.1875 z"
       id="DejaVuSans-115-7" />
    <path
       d="m 48.6875,27.296875 q 0,9.90625 -4.078125,15.546875 -4.078125,5.640625 -11.203125,5.640625 -7.140625,0 -11.21875,-5.640625 -4.078125,-5.640625 -4.078125,-15.546875 0,-9.90625 4.078125,-15.546875 4.078125,-5.640625 11.21875,-5.640625 7.125,0 11.203125,5.640625 4.078125,5.640625 4.078125,15.546875 z m -30.578125,19.09375 q 2.84375,4.875 7.15625,7.234375 Q 29.59375,56 35.59375,56 q 9.96875,0 16.1875,-7.90625 6.234375,-7.90625 6.234375,-20.796875 0,-12.890625 -6.234375,-20.8125 -6.21875,-7.90625 -16.1875,-7.90625 -6,0 -10.328125,2.375 -4.3125,2.375 -7.15625,7.25 V 0 h -9.03125 v 75.984375 h 9.03125 z"
       id="DejaVuSans-98-6" />
    <path
       d="M 8.5,21.578125 V 54.6875 h 8.984375 V 21.921875 q 0,-7.765625 3.015625,-11.65625 3.03125,-3.875 9.09375,-3.875 7.265625,0 11.484375,4.640625 4.234375,4.640625 4.234375,12.65625 v 31 h 8.984375 V 0 H 45.3125 V 8.40625 Q 42.046875,3.421875 37.71875,1 33.40625,-1.421875 27.6875,-1.421875 18.265625,-1.421875 13.375,4.4375 8.5,10.296875 8.5,21.578125 Z M 31.109375,56 Z"
       id="DejaVuSans-117-5" />
    <path
       d="m 12.40625,8.296875 h 16.109375 v 55.625 L 10.984375,60.40625 v 8.984375 l 17.4375,3.515625 H 38.28125 V 8.296875 H 54.390625 V 0 H 12.40625 Z"
       id="DejaVuSans-49-6" />
    <defs
       id="defs83-7">
      <path
         d="M 9.8125,72.90625 H 23.09375 L 55.421875,11.921875 V 72.90625 h 9.5625 V 0 h -13.28125 l -32.3125,60.984375 V 0 H 9.8125 Z"
         id="path2210" />
      <path
         id="path2212"
         d="" />
    </defs>
    <path
       d="M 64.40625,67.28125 V 56.890625 q -4.984375,4.640625 -10.625,6.921875 -5.640625,2.296875 -11.984375,2.296875 -12.5,0 -19.140625,-7.640625 -6.640625,-7.640625 -6.640625,-22.09375 0,-14.40625 6.640625,-22.046875 Q 29.296875,6.6875 41.796875,6.6875 q 6.34375,0 11.984375,2.296875 5.640625,2.296875 10.625,6.9375 V 5.609375 Q 59.234375,2.09375 53.4375,0.328125 q -5.78125,-1.75 -12.21875,-1.75 -16.5625,0 -26.09375,10.125 Q 5.609375,18.84375 5.609375,36.375 q 0,17.578125 9.515625,27.703125 9.53125,10.140625 26.09375,10.140625 6.53125,0 12.3125,-1.734375 5.796875,-1.734375 10.875,-5.203125 z"
       id="DejaVuSans-67-1" />
    <path
       d="M 52,44.1875 Q 55.375,50.25 60.0625,53.125 64.75,56 71.09375,56 q 8.546875,0 13.1875,-5.984375 4.640625,-5.96875 4.640625,-17 V 0 h -9.03125 v 32.71875 q 0,7.859375 -2.796875,11.65625 -2.78125,3.8125 -8.484375,3.8125 -6.984375,0 -11.046875,-4.640625 -4.046875,-4.625 -4.046875,-12.640625 V 0 h -9.03125 v 32.71875 q 0,7.90625 -2.78125,11.6875 -2.78125,3.78125 -8.59375,3.78125 -6.890625,0 -10.953125,-4.65625 -4.046875,-4.65625 -4.046875,-12.625 V 0 h -9.03125 v 54.6875 h 9.03125 v -8.5 q 3.078125,5.03125 7.375,7.421875 Q 29.78125,56 35.6875,56 41.65625,56 45.828125,52.96875 50,49.953125 52,44.1875 Z"
       id="DejaVuSans-109-0" />
    <path
       d="m 45.40625,46.390625 v 29.59375 h 8.984375 V 0 H 45.40625 v 8.203125 q -2.828125,-4.875 -7.15625,-7.25 -4.3125,-2.375 -10.375,-2.375 -9.90625,0 -16.140625,7.90625 -6.21875,7.921875 -6.21875,20.8125 0,12.890625 6.21875,20.796875 Q 17.96875,56 27.875,56 q 6.0625,0 10.375,-2.375 4.328125,-2.359375 7.15625,-7.234375 z M 14.796875,27.296875 q 0,-9.90625 4.078125,-15.546875 4.078125,-5.640625 11.203125,-5.640625 7.125,0 11.21875,5.640625 4.109375,5.640625 4.109375,15.546875 0,9.90625 -4.109375,15.546875 -4.09375,5.640625 -11.21875,5.640625 -7.125,0 -11.203125,-5.640625 -4.078125,-5.640625 -4.078125,-15.546875 z"
       id="DejaVuSans-100-6" />
    <path
       d="m 44.28125,53.078125 v -8.5 Q 40.484375,46.53125 36.375,47.5 q -4.09375,0.984375 -8.5,0.984375 -6.6875,0 -10.03125,-2.046875 Q 14.5,44.390625 14.5,40.28125 q 0,-3.125 2.390625,-4.90625 2.390625,-1.78125 9.625,-3.390625 l 3.078125,-0.6875 Q 39.15625,29.25 43.1875,25.515625 47.21875,21.78125 47.21875,15.09375 q 0,-7.625 -6.03125,-12.078125 -6.03125,-4.4375 -16.578125,-4.4375 -4.390625,0 -9.15625,0.859375 Q 10.6875,0.296875 5.421875,2 v 9.28125 q 4.984375,-2.59375 9.8125,-3.890625 4.828125,-1.28125 9.578125,-1.28125 6.34375,0 9.75,2.171875 3.421875,2.171875 3.421875,6.125 0,3.65625 -2.46875,5.609375 -2.453125,1.953125 -10.8125,3.765625 l -3.125,0.734375 q -8.34375,1.75 -12.0625,5.390625 -3.703125,3.640625 -3.703125,9.984375 0,7.71875 5.46875,11.90625 Q 16.75,56 26.8125,56 q 4.96875,0 9.359375,-0.734375 4.40625,-0.71875 8.109375,-2.1875 z"
       id="DejaVuSans-115-1" />
    <path
       d="m 48.6875,27.296875 q 0,9.90625 -4.078125,15.546875 -4.078125,5.640625 -11.203125,5.640625 -7.140625,0 -11.21875,-5.640625 -4.078125,-5.640625 -4.078125,-15.546875 0,-9.90625 4.078125,-15.546875 4.078125,-5.640625 11.21875,-5.640625 7.125,0 11.203125,5.640625 4.078125,5.640625 4.078125,15.546875 z m -30.578125,19.09375 q 2.84375,4.875 7.15625,7.234375 Q 29.59375,56 35.59375,56 q 9.96875,0 16.1875,-7.90625 6.234375,-7.90625 6.234375,-20.796875 0,-12.890625 -6.234375,-20.8125 -6.21875,-7.90625 -16.1875,-7.90625 -6,0 -10.328125,2.375 -4.3125,2.375 -7.15625,7.25 V 0 h -9.03125 v 75.984375 h 9.03125 z"
       id="DejaVuSans-98-5" />
    <path
       d="M 8.5,21.578125 V 54.6875 h 8.984375 V 21.921875 q 0,-7.765625 3.015625,-11.65625 3.03125,-3.875 9.09375,-3.875 7.265625,0 11.484375,4.640625 4.234375,4.640625 4.234375,12.65625 v 31 h 8.984375 V 0 H 45.3125 V 8.40625 Q 42.046875,3.421875 37.71875,1 33.40625,-1.421875 27.6875,-1.421875 18.265625,-1.421875 13.375,4.4375 8.5,10.296875 8.5,21.578125 Z M 31.109375,56 Z"
       id="DejaVuSans-117-9" />
    <path
       d="M 40.578125,39.3125 Q 47.65625,37.796875 51.625,33 q 3.984375,-4.78125 3.984375,-11.8125 0,-10.78125 -7.421875,-16.703125 -7.421875,-5.90625 -21.09375,-5.90625 -4.578125,0 -9.4375,0.90625 -4.859375,0.90625 -10.03125,2.71875 v 9.515625 q 4.09375,-2.390625 8.96875,-3.609375 4.890625,-1.21875 10.21875,-1.21875 9.265625,0 14.125,3.65625 4.859375,3.65625 4.859375,10.640625 0,6.453125 -4.515625,10.078125 -4.515625,3.640625 -12.5625,3.640625 h -8.5 v 8.109375 h 8.890625 q 7.265625,0 11.125,2.90625 3.859375,2.90625 3.859375,8.375 0,5.609375 -3.984375,8.609375 -3.96875,3.015625 -11.390625,3.015625 -4.0625,0 -8.703125,-0.890625 Q 15.375,64.15625 9.8125,62.3125 v 8.78125 q 5.625,1.5625 10.53125,2.34375 4.90625,0.78125 9.25,0.78125 11.234375,0 17.765625,-5.109375 6.546875,-5.09375 6.546875,-13.78125 0,-6.0625 -3.46875,-10.234375 -3.46875,-4.171875 -9.859375,-5.78125 z"
       id="DejaVuSans-51" />
    <path
       d="M 34.1875,63.1875 20.796875,26.90625 h 26.8125 z m -5.578125,9.71875 h 11.1875 L 67.578125,0 h -10.25 L 50.6875,18.703125 H 17.828125 L 11.1875,0 H 0.78125 Z"
       id="DejaVuSans-65-7" />
    <path
       d="M 48.78125,52.59375 V 44.1875 q -3.8125,2.109375 -7.640625,3.15625 -3.828125,1.046875 -7.734375,1.046875 -8.75,0 -13.59375,-5.546875 -4.828125,-5.53125 -4.828125,-15.546875 0,-10.015625 4.828125,-15.5625 4.84375,-5.53125 13.59375,-5.53125 3.90625,0 7.734375,1.046875 3.828125,1.046875 7.640625,3.15625 v -8.3125 q -3.765625,-1.75 -7.796875,-2.625 -4.015625,-0.890625 -8.5625,-0.890625 -12.359375,0 -19.640625,7.765625 -7.265625,7.765625 -7.265625,20.953125 0,13.375 7.34375,21.03125 Q 20.21875,56 33.015625,56 q 4.140625,0 8.09375,-0.859375 3.953125,-0.84375 7.671875,-2.546875 z"
       id="DejaVuSans-99-5" />
    <path
       d="m 56.203125,29.59375 v -4.390625 h -41.3125 q 0.59375,-9.28125 5.59375,-14.140625 5,-4.859375 13.9375,-4.859375 5.171875,0 10.03125,1.265625 4.859375,1.265625 9.65625,3.8125 v -8.5 q -4.84375,-2.046875 -9.921875,-3.125 -5.078125,-1.078125 -10.296875,-1.078125 -13.09375,0 -20.734375,7.609375 -7.640625,7.625 -7.640625,20.625 0,13.421875 7.25,21.296875 Q 20.015625,56 32.328125,56 q 11.03125,0 17.453125,-7.109375 6.421875,-7.09375 6.421875,-19.296875 z m -8.984375,2.640625 q -0.09375,7.359375 -4.125,11.75 -4.03125,4.40625 -10.671875,4.40625 -7.515625,0 -12.03125,-4.25 -4.515625,-4.25 -5.203125,-11.96875 z"
       id="DejaVuSans-101-3" />
    <path
       d="M 9.421875,75.984375 H 18.40625 V 0 H 9.421875 Z"
       id="DejaVuSans-108-5" />
    <path
       d="m 41.109375,46.296875 q -1.515625,0.875 -3.296875,1.28125 Q 36.03125,48 33.890625,48 26.265625,48 22.1875,43.046875 18.109375,38.09375 18.109375,28.8125 V 0 h -9.03125 v 54.6875 h 9.03125 v -8.5 q 2.84375,4.984375 7.375,7.390625 Q 30.03125,56 36.53125,56 q 0.921875,0 2.046875,-0.125 1.125,-0.109375 2.484375,-0.359375 z"
       id="DejaVuSans-114-6" />
    <path
       d="m 34.28125,27.484375 q -10.890625,0 -15.09375,-2.484375 -4.203125,-2.484375 -4.203125,-8.5 0,-4.78125 3.15625,-7.59375 3.15625,-2.796875 8.5625,-2.796875 7.484375,0 12,5.296875 4.515625,5.296875 4.515625,14.078125 v 2 z m 17.921875,3.71875 V 0 H 43.21875 v 8.296875 q -3.078125,-4.96875 -7.671875,-7.34375 -4.59375,-2.375 -11.234375,-2.375 -8.390625,0 -13.359375,4.71875 Q 6,8.015625 6,15.921875 q 0,9.21875 6.171875,13.90625 6.1875,4.6875 18.4375,4.6875 H 43.21875 v 0.890625 q 0,6.203125 -4.078125,9.59375 -4.078125,3.390625 -11.453125,3.390625 -4.6875,0 -9.140625,-1.125 -4.4375,-1.125 -8.53125,-3.375 v 8.3125 q 4.921875,1.90625 9.5625,2.84375 Q 24.21875,56 28.609375,56 q 11.875,0 17.734375,-6.15625 5.859375,-6.140625 5.859375,-18.640625 z"
       id="DejaVuSans-97-2" />
    <path
       d="M 18.3125,70.21875 V 54.6875 h 18.5 v -6.984375 h -18.5 v -29.6875 q 0,-6.6875 1.828125,-8.59375 1.828125,-1.90625 7.453125,-1.90625 H 36.8125 V 0 H 27.59375 Q 17.1875,0 13.234375,3.875 9.28125,7.765625 9.28125,18.015625 v 29.6875 H 2.6875 V 54.6875 h 6.59375 v 15.53125 z"
       id="DejaVuSans-116-9" />
    <path
       d="M 9.421875,54.6875 H 18.40625 V 0 H 9.421875 Z m 0,21.296875 H 18.40625 V 64.59375 H 9.421875 Z"
       id="DejaVuSans-105-1" />
    <path
       d="m 30.609375,48.390625 q -7.21875,0 -11.421875,-5.640625 -4.203125,-5.640625 -4.203125,-15.453125 0,-9.8125 4.171875,-15.453125 4.1875,-5.640625 11.453125,-5.640625 7.1875,0 11.375,5.65625 4.203125,5.671875 4.203125,15.4375 0,9.71875 -4.203125,15.40625 -4.1875,5.6875 -11.375,5.6875 z m 0,7.609375 q 11.71875,0 18.40625,-7.625 6.703125,-7.609375 6.703125,-21.078125 0,-13.421875 -6.703125,-21.078125 -6.6875,-7.640625 -18.40625,-7.640625 -11.765625,0 -18.4375,7.640625 -6.65625,7.65625 -6.65625,21.078125 0,13.46875 6.65625,21.078125 Q 18.84375,56 30.609375,56 Z"
       id="DejaVuSans-111-2" />
    <path
       d="M 54.890625,33.015625 V 0 H 45.90625 v 32.71875 q 0,7.765625 -3.03125,11.609375 -3.03125,3.859375 -9.078125,3.859375 -7.28125,0 -11.484375,-4.640625 -4.203125,-4.625 -4.203125,-12.640625 V 0 h -9.03125 v 54.6875 h 9.03125 v -8.5 q 3.234375,4.9375 7.59375,7.375 4.375,2.4375 10.09375,2.4375 9.421875,0 14.25,-5.828125 4.84375,-5.828125 4.84375,-17.15625 z"
       id="DejaVuSans-110-7" />
    <path
       d="M 19.671875,34.8125 V 8.109375 H 35.5 q 7.953125,0 11.78125,3.296875 3.84375,3.296875 3.84375,10.078125 0,6.84375 -3.84375,10.078125 -3.828125,3.25 -11.78125,3.25 z m 0,29.984375 V 42.828125 H 34.28125 q 7.21875,0 10.75,2.703125 3.546875,2.71875 3.546875,8.28125 0,5.515625 -3.546875,8.25 -3.53125,2.734375 -10.75,2.734375 z M 9.8125,72.90625 h 25.203125 q 11.28125,0 17.375,-4.6875 Q 58.5,63.53125 58.5,54.890625 58.5,48.1875 55.375,44.234375 52.25,40.28125 46.1875,39.3125 53.46875,37.75 57.5,32.78125 q 4.03125,-4.953125 4.03125,-12.375 0,-9.765625 -6.640625,-15.09375 Q 48.25,0 35.984375,0 H 9.8125 Z"
       id="DejaVuSans-66-0" />
    <path
       d="m 9.078125,75.984375 h 9.03125 v -44.875 l 26.8125,23.578125 h 11.46875 l -29,-25.578125 L 57.625,0 H 45.90625 L 18.109375,26.703125 V 0 h -9.03125 z"
       id="DejaVuSans-107-93" />
    <path
       d="m 45.40625,27.984375 q 0,9.765625 -4.03125,15.125 -4.015625,5.375 -11.296875,5.375 -7.21875,0 -11.25,-5.375 -4.03125,-5.359375 -4.03125,-15.125 0,-9.71875 4.03125,-15.09375 4.03125,-5.375 11.25,-5.375 7.28125,0 11.296875,5.375 4.03125,5.375 4.03125,15.09375 z M 54.390625,6.78125 q 0,-13.953125 -6.203125,-20.765625 -6.1875,-6.8125 -18.984375,-6.8125 -4.734375,0 -8.9375,0.703125 -4.203125,0.703125 -8.15625,2.171875 V -9.1875 q 3.953125,-2.140625 7.8125,-3.15625 3.859375,-1.03125 7.859375,-1.03125 8.84375,0 13.234375,4.609375 4.390625,4.609375 4.390625,13.9375 V 9.625 Q 42.625,4.78125 38.28125,2.390625 33.9375,0 27.875,0 17.828125,0 11.671875,7.65625 q -6.15625,7.671875 -6.15625,20.328125 0,12.6875 6.15625,20.34375 Q 17.828125,56 27.875,56 q 6.0625,0 10.40625,-2.390625 4.34375,-2.390625 7.125,-7.21875 V 54.6875 h 8.984375 z"
       id="DejaVuSans-103-6" />
    <path
       d="M 9.8125,72.90625 H 23.09375 L 55.421875,11.921875 V 72.90625 h 9.5625 V 0 h -13.28125 l -32.3125,60.984375 V 0 H 9.8125 Z"
       id="DejaVuSans-78-0" />
    <path
       id="DejaVuSans-32-6"
       d="" />
    <path
       d="M 64.40625,67.28125 V 56.890625 q -4.984375,4.640625 -10.625,6.921875 -5.640625,2.296875 -11.984375,2.296875 -12.5,0 -19.140625,-7.640625 -6.640625,-7.640625 -6.640625,-22.09375 0,-14.40625 6.640625,-22.046875 Q 29.296875,6.6875 41.796875,6.6875 q 6.34375,0 11.984375,2.296875 5.640625,2.296875 10.625,6.9375 V 5.609375 Q 59.234375,2.09375 53.4375,0.328125 q -5.78125,-1.75 -12.21875,-1.75 -16.5625,0 -26.09375,10.125 Q 5.609375,18.84375 5.609375,36.375 q 0,17.578125 9.515625,27.703125 9.53125,10.140625 26.09375,10.140625 6.53125,0 12.3125,-1.734375 5.796875,-1.734375 10.875,-5.203125 z"
       id="DejaVuSans-67-2" />
    <path
       d="M 52,44.1875 Q 55.375,50.25 60.0625,53.125 64.75,56 71.09375,56 q 8.546875,0 13.1875,-5.984375 4.640625,-5.96875 4.640625,-17 V 0 h -9.03125 v 32.71875 q 0,7.859375 -2.796875,11.65625 -2.78125,3.8125 -8.484375,3.8125 -6.984375,0 -11.046875,-4.640625 -4.046875,-4.625 -4.046875,-12.640625 V 0 h -9.03125 v 32.71875 q 0,7.90625 -2.78125,11.6875 -2.78125,3.78125 -8.59375,3.78125 -6.890625,0 -10.953125,-4.65625 -4.046875,-4.65625 -4.046875,-12.625 V 0 h -9.03125 v 54.6875 h 9.03125 v -8.5 q 3.078125,5.03125 7.375,7.421875 Q 29.78125,56 35.6875,56 41.65625,56 45.828125,52.96875 50,49.953125 52,44.1875 Z"
       id="DejaVuSans-109-6" />
    <path
       d="m 45.40625,46.390625 v 29.59375 h 8.984375 V 0 H 45.40625 v 8.203125 q -2.828125,-4.875 -7.15625,-7.25 -4.3125,-2.375 -10.375,-2.375 -9.90625,0 -16.140625,7.90625 -6.21875,7.921875 -6.21875,20.8125 0,12.890625 6.21875,20.796875 Q 17.96875,56 27.875,56 q 6.0625,0 10.375,-2.375 4.328125,-2.359375 7.15625,-7.234375 z M 14.796875,27.296875 q 0,-9.90625 4.078125,-15.546875 4.078125,-5.640625 11.203125,-5.640625 7.125,0 11.21875,5.640625 4.109375,5.640625 4.109375,15.546875 0,9.90625 -4.109375,15.546875 -4.09375,5.640625 -11.21875,5.640625 -7.125,0 -11.203125,-5.640625 -4.078125,-5.640625 -4.078125,-15.546875 z"
       id="DejaVuSans-100-1" />
    <path
       d="m 44.28125,53.078125 v -8.5 Q 40.484375,46.53125 36.375,47.5 q -4.09375,0.984375 -8.5,0.984375 -6.6875,0 -10.03125,-2.046875 Q 14.5,44.390625 14.5,40.28125 q 0,-3.125 2.390625,-4.90625 2.390625,-1.78125 9.625,-3.390625 l 3.078125,-0.6875 Q 39.15625,29.25 43.1875,25.515625 47.21875,21.78125 47.21875,15.09375 q 0,-7.625 -6.03125,-12.078125 -6.03125,-4.4375 -16.578125,-4.4375 -4.390625,0 -9.15625,0.859375 Q 10.6875,0.296875 5.421875,2 v 9.28125 q 4.984375,-2.59375 9.8125,-3.890625 4.828125,-1.28125 9.578125,-1.28125 6.34375,0 9.75,2.171875 3.421875,2.171875 3.421875,6.125 0,3.65625 -2.46875,5.609375 -2.453125,1.953125 -10.8125,3.765625 l -3.125,0.734375 q -8.34375,1.75 -12.0625,5.390625 -3.703125,3.640625 -3.703125,9.984375 0,7.71875 5.46875,11.90625 Q 16.75,56 26.8125,56 q 4.96875,0 9.359375,-0.734375 4.40625,-0.71875 8.109375,-2.1875 z"
       id="DejaVuSans-115-8" />
    <path
       d="m 48.6875,27.296875 q 0,9.90625 -4.078125,15.546875 -4.078125,5.640625 -11.203125,5.640625 -7.140625,0 -11.21875,-5.640625 -4.078125,-5.640625 -4.078125,-15.546875 0,-9.90625 4.078125,-15.546875 4.078125,-5.640625 11.21875,-5.640625 7.125,0 11.203125,5.640625 4.078125,5.640625 4.078125,15.546875 z m -30.578125,19.09375 q 2.84375,4.875 7.15625,7.234375 Q 29.59375,56 35.59375,56 q 9.96875,0 16.1875,-7.90625 6.234375,-7.90625 6.234375,-20.796875 0,-12.890625 -6.234375,-20.8125 -6.21875,-7.90625 -16.1875,-7.90625 -6,0 -10.328125,2.375 -4.3125,2.375 -7.15625,7.25 V 0 h -9.03125 v 75.984375 h 9.03125 z"
       id="DejaVuSans-98-7" />
    <path
       d="M 8.5,21.578125 V 54.6875 h 8.984375 V 21.921875 q 0,-7.765625 3.015625,-11.65625 3.03125,-3.875 9.09375,-3.875 7.265625,0 11.484375,4.640625 4.234375,4.640625 4.234375,12.65625 v 31 h 8.984375 V 0 H 45.3125 V 8.40625 Q 42.046875,3.421875 37.71875,1 33.40625,-1.421875 27.6875,-1.421875 18.265625,-1.421875 13.375,4.4375 8.5,10.296875 8.5,21.578125 Z M 31.109375,56 Z"
       id="DejaVuSans-117-92" />
    <path
       d="m 12.40625,8.296875 h 16.109375 v 55.625 L 10.984375,60.40625 v 8.984375 l 17.4375,3.515625 H 38.28125 V 8.296875 H 54.390625 V 0 H 12.40625 Z"
       id="DejaVuSans-49-0" />
    <path
       d="M 34.1875,63.1875 20.796875,26.90625 h 26.8125 z m -5.578125,9.71875 h 11.1875 L 67.578125,0 h -10.25 L 50.6875,18.703125 H 17.828125 L 11.1875,0 H 0.78125 Z"
       id="DejaVuSans-65-6" />
    <path
       d="M 48.78125,52.59375 V 44.1875 q -3.8125,2.109375 -7.640625,3.15625 -3.828125,1.046875 -7.734375,1.046875 -8.75,0 -13.59375,-5.546875 -4.828125,-5.53125 -4.828125,-15.546875 0,-10.015625 4.828125,-15.5625 4.84375,-5.53125 13.59375,-5.53125 3.90625,0 7.734375,1.046875 3.828125,1.046875 7.640625,3.15625 v -8.3125 q -3.765625,-1.75 -7.796875,-2.625 -4.015625,-0.890625 -8.5625,-0.890625 -12.359375,0 -19.640625,7.765625 -7.265625,7.765625 -7.265625,20.953125 0,13.375 7.34375,21.03125 Q 20.21875,56 33.015625,56 q 4.140625,0 8.09375,-0.859375 3.953125,-0.84375 7.671875,-2.546875 z"
       id="DejaVuSans-99-12" />
    <path
       d="m 56.203125,29.59375 v -4.390625 h -41.3125 q 0.59375,-9.28125 5.59375,-14.140625 5,-4.859375 13.9375,-4.859375 5.171875,0 10.03125,1.265625 4.859375,1.265625 9.65625,3.8125 v -8.5 q -4.84375,-2.046875 -9.921875,-3.125 -5.078125,-1.078125 -10.296875,-1.078125 -13.09375,0 -20.734375,7.609375 -7.640625,7.625 -7.640625,20.625 0,13.421875 7.25,21.296875 Q 20.015625,56 32.328125,56 q 11.03125,0 17.453125,-7.109375 6.421875,-7.09375 6.421875,-19.296875 z m -8.984375,2.640625 q -0.09375,7.359375 -4.125,11.75 -4.03125,4.40625 -10.671875,4.40625 -7.515625,0 -12.03125,-4.25 -4.515625,-4.25 -5.203125,-11.96875 z"
       id="DejaVuSans-101-9" />
    <path
       d="M 9.421875,75.984375 H 18.40625 V 0 H 9.421875 Z"
       id="DejaVuSans-108-3" />
    <path
       d="m 41.109375,46.296875 q -1.515625,0.875 -3.296875,1.28125 Q 36.03125,48 33.890625,48 26.265625,48 22.1875,43.046875 18.109375,38.09375 18.109375,28.8125 V 0 h -9.03125 v 54.6875 h 9.03125 v -8.5 q 2.84375,4.984375 7.375,7.390625 Q 30.03125,56 36.53125,56 q 0.921875,0 2.046875,-0.125 1.125,-0.109375 2.484375,-0.359375 z"
       id="DejaVuSans-114-1" />
    <path
       d="m 34.28125,27.484375 q -10.890625,0 -15.09375,-2.484375 -4.203125,-2.484375 -4.203125,-8.5 0,-4.78125 3.15625,-7.59375 3.15625,-2.796875 8.5625,-2.796875 7.484375,0 12,5.296875 4.515625,5.296875 4.515625,14.078125 v 2 z m 17.921875,3.71875 V 0 H 43.21875 v 8.296875 q -3.078125,-4.96875 -7.671875,-7.34375 -4.59375,-2.375 -11.234375,-2.375 -8.390625,0 -13.359375,4.71875 Q 6,8.015625 6,15.921875 q 0,9.21875 6.171875,13.90625 6.1875,4.6875 18.4375,4.6875 H 43.21875 v 0.890625 q 0,6.203125 -4.078125,9.59375 -4.078125,3.390625 -11.453125,3.390625 -4.6875,0 -9.140625,-1.125 -4.4375,-1.125 -8.53125,-3.375 v 8.3125 q 4.921875,1.90625 9.5625,2.84375 Q 24.21875,56 28.609375,56 q 11.875,0 17.734375,-6.15625 5.859375,-6.140625 5.859375,-18.640625 z"
       id="DejaVuSans-97-94" />
    <path
       d="M 18.3125,70.21875 V 54.6875 h 18.5 v -6.984375 h -18.5 v -29.6875 q 0,-6.6875 1.828125,-8.59375 1.828125,-1.90625 7.453125,-1.90625 H 36.8125 V 0 H 27.59375 Q 17.1875,0 13.234375,3.875 9.28125,7.765625 9.28125,18.015625 v 29.6875 H 2.6875 V 54.6875 h 6.59375 v 15.53125 z"
       id="DejaVuSans-116-7" />
    <path
       d="M 9.421875,54.6875 H 18.40625 V 0 H 9.421875 Z m 0,21.296875 H 18.40625 V 64.59375 H 9.421875 Z"
       id="DejaVuSans-105-8" />
    <path
       d="m 30.609375,48.390625 q -7.21875,0 -11.421875,-5.640625 -4.203125,-5.640625 -4.203125,-15.453125 0,-9.8125 4.171875,-15.453125 4.1875,-5.640625 11.453125,-5.640625 7.1875,0 11.375,5.65625 4.203125,5.671875 4.203125,15.4375 0,9.71875 -4.203125,15.40625 -4.1875,5.6875 -11.375,5.6875 z m 0,7.609375 q 11.71875,0 18.40625,-7.625 6.703125,-7.609375 6.703125,-21.078125 0,-13.421875 -6.703125,-21.078125 -6.6875,-7.640625 -18.40625,-7.640625 -11.765625,0 -18.4375,7.640625 -6.65625,7.65625 -6.65625,21.078125 0,13.46875 6.65625,21.078125 Q 18.84375,56 30.609375,56 Z"
       id="DejaVuSans-111-4" />
    <path
       d="M 54.890625,33.015625 V 0 H 45.90625 v 32.71875 q 0,7.765625 -3.03125,11.609375 -3.03125,3.859375 -9.078125,3.859375 -7.28125,0 -11.484375,-4.640625 -4.203125,-4.625 -4.203125,-12.640625 V 0 h -9.03125 v 54.6875 h 9.03125 v -8.5 q 3.234375,4.9375 7.59375,7.375 4.375,2.4375 10.09375,2.4375 9.421875,0 14.25,-5.828125 4.84375,-5.828125 4.84375,-17.15625 z"
       id="DejaVuSans-110-5" />
    <path
       d="M 19.671875,34.8125 V 8.109375 H 35.5 q 7.953125,0 11.78125,3.296875 3.84375,3.296875 3.84375,10.078125 0,6.84375 -3.84375,10.078125 -3.828125,3.25 -11.78125,3.25 z m 0,29.984375 V 42.828125 H 34.28125 q 7.21875,0 10.75,2.703125 3.546875,2.71875 3.546875,8.28125 0,5.515625 -3.546875,8.25 -3.53125,2.734375 -10.75,2.734375 z M 9.8125,72.90625 h 25.203125 q 11.28125,0 17.375,-4.6875 Q 58.5,63.53125 58.5,54.890625 58.5,48.1875 55.375,44.234375 52.25,40.28125 46.1875,39.3125 53.46875,37.75 57.5,32.78125 q 4.03125,-4.953125 4.03125,-12.375 0,-9.765625 -6.640625,-15.09375 Q 48.25,0 35.984375,0 H 9.8125 Z"
       id="DejaVuSans-66-6" />
    <path
       d="m 9.078125,75.984375 h 9.03125 v -44.875 l 26.8125,23.578125 h 11.46875 l -29,-25.578125 L 57.625,0 H 45.90625 L 18.109375,26.703125 V 0 h -9.03125 z"
       id="DejaVuSans-107-5" />
    <path
       d="m 45.40625,27.984375 q 0,9.765625 -4.03125,15.125 -4.015625,5.375 -11.296875,5.375 -7.21875,0 -11.25,-5.375 -4.03125,-5.359375 -4.03125,-15.125 0,-9.71875 4.03125,-15.09375 4.03125,-5.375 11.25,-5.375 7.28125,0 11.296875,5.375 4.03125,5.375 4.03125,15.09375 z M 54.390625,6.78125 q 0,-13.953125 -6.203125,-20.765625 -6.1875,-6.8125 -18.984375,-6.8125 -4.734375,0 -8.9375,0.703125 -4.203125,0.703125 -8.15625,2.171875 V -9.1875 q 3.953125,-2.140625 7.8125,-3.15625 3.859375,-1.03125 7.859375,-1.03125 8.84375,0 13.234375,4.609375 4.390625,4.609375 4.390625,13.9375 V 9.625 Q 42.625,4.78125 38.28125,2.390625 33.9375,0 27.875,0 17.828125,0 11.671875,7.65625 q -6.15625,7.671875 -6.15625,20.328125 0,12.6875 6.15625,20.34375 Q 17.828125,56 27.875,56 q 6.0625,0 10.40625,-2.390625 4.34375,-2.390625 7.125,-7.21875 V 54.6875 h 8.984375 z"
       id="DejaVuSans-103-69" />
    <path
       d="M 9.8125,72.90625 H 23.09375 L 55.421875,11.921875 V 72.90625 h 9.5625 V 0 h -13.28125 l -32.3125,60.984375 V 0 H 9.8125 Z"
       id="DejaVuSans-78-3" />
    <path
       id="DejaVuSans-32-0"
       d="" />
    <path
       d="M 64.40625,67.28125 V 56.890625 q -4.984375,4.640625 -10.625,6.921875 -5.640625,2.296875 -11.984375,2.296875 -12.5,0 -19.140625,-7.640625 -6.640625,-7.640625 -6.640625,-22.09375 0,-14.40625 6.640625,-22.046875 Q 29.296875,6.6875 41.796875,6.6875 q 6.34375,0 11.984375,2.296875 5.640625,2.296875 10.625,6.9375 V 5.609375 Q 59.234375,2.09375 53.4375,0.328125 q -5.78125,-1.75 -12.21875,-1.75 -16.5625,0 -26.09375,10.125 Q 5.609375,18.84375 5.609375,36.375 q 0,17.578125 9.515625,27.703125 9.53125,10.140625 26.09375,10.140625 6.53125,0 12.3125,-1.734375 5.796875,-1.734375 10.875,-5.203125 z"
       id="DejaVuSans-67-6" />
    <path
       d="M 52,44.1875 Q 55.375,50.25 60.0625,53.125 64.75,56 71.09375,56 q 8.546875,0 13.1875,-5.984375 4.640625,-5.96875 4.640625,-17 V 0 h -9.03125 v 32.71875 q 0,7.859375 -2.796875,11.65625 -2.78125,3.8125 -8.484375,3.8125 -6.984375,0 -11.046875,-4.640625 -4.046875,-4.625 -4.046875,-12.640625 V 0 h -9.03125 v 32.71875 q 0,7.90625 -2.78125,11.6875 -2.78125,3.78125 -8.59375,3.78125 -6.890625,0 -10.953125,-4.65625 -4.046875,-4.65625 -4.046875,-12.625 V 0 h -9.03125 v 54.6875 h 9.03125 v -8.5 q 3.078125,5.03125 7.375,7.421875 Q 29.78125,56 35.6875,56 41.65625,56 45.828125,52.96875 50,49.953125 52,44.1875 Z"
       id="DejaVuSans-109-8" />
    <path
       d="m 45.40625,46.390625 v 29.59375 h 8.984375 V 0 H 45.40625 v 8.203125 q -2.828125,-4.875 -7.15625,-7.25 -4.3125,-2.375 -10.375,-2.375 -9.90625,0 -16.140625,7.90625 -6.21875,7.921875 -6.21875,20.8125 0,12.890625 6.21875,20.796875 Q 17.96875,56 27.875,56 q 6.0625,0 10.375,-2.375 4.328125,-2.359375 7.15625,-7.234375 z M 14.796875,27.296875 q 0,-9.90625 4.078125,-15.546875 4.078125,-5.640625 11.203125,-5.640625 7.125,0 11.21875,5.640625 4.109375,5.640625 4.109375,15.546875 0,9.90625 -4.109375,15.546875 -4.09375,5.640625 -11.21875,5.640625 -7.125,0 -11.203125,-5.640625 -4.078125,-5.640625 -4.078125,-15.546875 z"
       id="DejaVuSans-100-9" />
    <path
       d="m 44.28125,53.078125 v -8.5 Q 40.484375,46.53125 36.375,47.5 q -4.09375,0.984375 -8.5,0.984375 -6.6875,0 -10.03125,-2.046875 Q 14.5,44.390625 14.5,40.28125 q 0,-3.125 2.390625,-4.90625 2.390625,-1.78125 9.625,-3.390625 l 3.078125,-0.6875 Q 39.15625,29.25 43.1875,25.515625 47.21875,21.78125 47.21875,15.09375 q 0,-7.625 -6.03125,-12.078125 -6.03125,-4.4375 -16.578125,-4.4375 -4.390625,0 -9.15625,0.859375 Q 10.6875,0.296875 5.421875,2 v 9.28125 q 4.984375,-2.59375 9.8125,-3.890625 4.828125,-1.28125 9.578125,-1.28125 6.34375,0 9.75,2.171875 3.421875,2.171875 3.421875,6.125 0,3.65625 -2.46875,5.609375 -2.453125,1.953125 -10.8125,3.765625 l -3.125,0.734375 q -8.34375,1.75 -12.0625,5.390625 -3.703125,3.640625 -3.703125,9.984375 0,7.71875 5.46875,11.90625 Q 16.75,56 26.8125,56 q 4.96875,0 9.359375,-0.734375 4.40625,-0.71875 8.109375,-2.1875 z"
       id="DejaVuSans-115-2" />
    <path
       d="m 48.6875,27.296875 q 0,9.90625 -4.078125,15.546875 -4.078125,5.640625 -11.203125,5.640625 -7.140625,0 -11.21875,-5.640625 -4.078125,-5.640625 -4.078125,-15.546875 0,-9.90625 4.078125,-15.546875 4.078125,-5.640625 11.21875,-5.640625 7.125,0 11.203125,5.640625 4.078125,5.640625 4.078125,15.546875 z m -30.578125,19.09375 q 2.84375,4.875 7.15625,7.234375 Q 29.59375,56 35.59375,56 q 9.96875,0 16.1875,-7.90625 6.234375,-7.90625 6.234375,-20.796875 0,-12.890625 -6.234375,-20.8125 -6.21875,-7.90625 -16.1875,-7.90625 -6,0 -10.328125,2.375 -4.3125,2.375 -7.15625,7.25 V 0 h -9.03125 v 75.984375 h 9.03125 z"
       id="DejaVuSans-98-66" />
    <path
       d="M 8.5,21.578125 V 54.6875 h 8.984375 V 21.921875 q 0,-7.765625 3.015625,-11.65625 3.03125,-3.875 9.09375,-3.875 7.265625,0 11.484375,4.640625 4.234375,4.640625 4.234375,12.65625 v 31 h 8.984375 V 0 H 45.3125 V 8.40625 Q 42.046875,3.421875 37.71875,1 33.40625,-1.421875 27.6875,-1.421875 18.265625,-1.421875 13.375,4.4375 8.5,10.296875 8.5,21.578125 Z M 31.109375,56 Z"
       id="DejaVuSans-117-4" />
    <path
       d="M 40.578125,39.3125 Q 47.65625,37.796875 51.625,33 q 3.984375,-4.78125 3.984375,-11.8125 0,-10.78125 -7.421875,-16.703125 -7.421875,-5.90625 -21.09375,-5.90625 -4.578125,0 -9.4375,0.90625 -4.859375,0.90625 -10.03125,2.71875 v 9.515625 q 4.09375,-2.390625 8.96875,-3.609375 4.890625,-1.21875 10.21875,-1.21875 9.265625,0 14.125,3.65625 4.859375,3.65625 4.859375,10.640625 0,6.453125 -4.515625,10.078125 -4.515625,3.640625 -12.5625,3.640625 h -8.5 v 8.109375 h 8.890625 q 7.265625,0 11.125,2.90625 3.859375,2.90625 3.859375,8.375 0,5.609375 -3.984375,8.609375 -3.96875,3.015625 -11.390625,3.015625 -4.0625,0 -8.703125,-0.890625 Q 15.375,64.15625 9.8125,62.3125 v 8.78125 q 5.625,1.5625 10.53125,2.34375 4.90625,0.78125 9.25,0.78125 11.234375,0 17.765625,-5.109375 6.546875,-5.09375 6.546875,-13.78125 0,-6.0625 -3.46875,-10.234375 -3.46875,-4.171875 -9.859375,-5.78125 z"
       id="DejaVuSans-51-9" />
  </defs>
  <sodipodi:namedview
     inkscape:window-maximized="1"
     inkscape:window-y="0"
     inkscape:window-x="0"
     inkscape:window-height="850"
     inkscape:window-width="1600"
     showgrid="false"
     inkscape:document-rotation="0"
     inkscape:current-layer="layer1"
     inkscape:document-units="mm"
     inkscape:cy="205.08963"
     inkscape:cx="304.00859"
     inkscape:zoom="1"
     inkscape:pageshadow="2"
     inkscape:pageopacity="0.0"
     borderopacity="1.0"
     bordercolor="#666666"
     pagecolor="#ffffff"
     id="base" />
  <metadata
     id="metadata1176">
    <rdf:RDF>
      <cc:Work
         rdf:about="">
        <dc:format>image/svg+xml</dc:format>
        <dc:type
           rdf:resource="http://purl.org/dc/dcmitype/StillImage" />
        <dc:title></dc:title>
      </cc:Work>
    </rdf:RDF>
  </metadata>
  <g
     id="layer1"
     inkscape:groupmode="layer"
     inkscape:label="Layer 1">
    <g
       transform="matrix(0.35277777,0,0,0.35277777,74.97974,7.840194)"
       id="matplotlib.axis_1"
       style="stroke-linecap:butt;stroke-linejoin:round" />
    <g
       transform="matrix(0.35277777,0,0,0.35277777,74.97974,7.840194)"
       id="matplotlib.axis_2"
       style="stroke-linecap:butt;stroke-linejoin:round" />
    <g
       style="stroke-linecap:butt;stroke-linejoin:round"
       id="matplotlib.axis_1-3"
       transform="matrix(0.25275684,0,0,0.25275684,-11.437614,-1.6955746)" />
    <g
       style="stroke-linecap:butt;stroke-linejoin:round"
       id="matplotlib.axis_2-6"
       transform="matrix(0.25275684,0,0,0.25275684,-11.437614,-1.6955746)" />
    <g
       style="stroke-linecap:butt;stroke-linejoin:round"
       id="matplotlib.axis_1-8"
       transform="matrix(0.25275684,0,0,0.25275684,89.856608,-1.6955767)" />
    <g
       style="stroke-linecap:butt;stroke-linejoin:round"
       id="matplotlib.axis_2-9"
       transform="matrix(0.25275684,0,0,0.25275684,89.856608,-1.6955767)" />
    <g
       transform="translate(0.21259819)"
       id="g299">
      <g
         transform="matrix(0.25275684,0,0,0.25275684,-11.437614,-1.6955746)"
         id="patch_2"
         style="stroke-linecap:butt;stroke-linejoin:round">
        <path
           d="m 354.144,180.12 c 0,-6.04428 -0.44285,-12.08045 -1.32499,-18.06001 -0.88215,-5.97957 -2.20121,-11.88647 -3.9466,-17.67326 L 230.4,180.12 Z"
           style="fill:#d85c41;stroke:#000000;stroke-width:0.5;stroke-linejoin:miter"
           id="path9" />
      </g>
      <g
         transform="matrix(0.25275684,0,0,0.25275684,-11.437614,-1.6955746)"
         id="patch_3"
         style="stroke-linecap:butt;stroke-linejoin:round">
        <path
           d="m 348.87241,144.38673 c -0.43617,-1.44609 -0.89878,-2.88408 -1.38759,-4.31323 -0.48881,-1.42916 -1.00375,-2.84925 -1.54456,-4.25955 L 230.4,180.12 Z"
           style="fill:#57ab27;stroke:#000000;stroke-width:0.5;stroke-linejoin:miter"
           id="path12" />
      </g>
      <g
         transform="matrix(0.25275684,0,0,0.25275684,-11.437614,-1.6955746)"
         id="patch_4"
         style="stroke-linecap:butt;stroke-linejoin:round">
        <path
           d="M 345.94026,135.81395 C 340.46309,121.53073 332.38454,108.38619 322.11511,97.048251 311.84568,85.710317 299.56231,76.374336 285.88915,69.514701 272.21598,62.655065 257.38862,58.389963 242.16048,56.936118 c -15.22815,-1.453844 -30.59469,-0.07138 -45.31881,4.07714 -14.72412,4.148521 -28.55213,10.991625 -40.78138,20.18159 -12.22924,9.189965 -22.64903,20.568452 -30.72988,33.557282 -8.08086,12.98883 -13.68356,27.36421 -16.5234,42.39569 -2.83985,15.03147 -2.86792,30.46005 -0.0828,45.50176 2.78513,15.04171 8.33549,29.43738 16.36902,42.45553 8.03354,13.01815 18.41185,24.43448 30.60758,33.66888 12.19573,9.23441 25.99874,16.12778 40.70767,20.32985 14.70893,4.20208 30.07034,5.64044 45.30367,4.24202 15.23333,-1.39842 30.07612,-5.60954 43.77415,-12.41938 13.69803,-6.80984 26.0153,-16.10106 36.32592,-27.40155 10.31062,-11.30049 18.43694,-24.41555 23.96605,-38.67875 5.5291,-14.26321 8.36572,-29.42881 8.36572,-44.72619 L 230.4,180.12 Z"
           style="fill:#407fb7;stroke:#000000;stroke-width:0.5;stroke-linejoin:miter"
           id="path15" />
      </g>
    </g>
    <g
       style="font-size:3.52778px;line-height:1.25;font-family:sans-serif;-inkscape-font-specification:sans-serif;stroke-width:0.264583"
       id="text832-9"
       aria-label="No Action">
      <path
         id="path1150"
         style="font-size:3.52778px;stroke-width:0.264583"
         d="M -0.14175204,55.92276 H 0.32678125 L 1.4671086,58.074224 V 55.92276 h 0.3376196 v 2.571766 H 1.3361949 L 0.19586754,56.343062 v 2.151464 h -0.33761958 z" />
      <path
         id="path1152"
         style="font-size:3.52778px;stroke-width:0.264583"
         d="m 3.2309986,56.78748 q -0.2549372,0 -0.4030764,0.199816 -0.1481392,0.198093 -0.1481392,0.544325 0,0.346232 0.1464167,0.546048 0.1481392,0.198093 0.4047989,0.198093 0.2532147,0 0.4013539,-0.199815 0.1481392,-0.199816 0.1481392,-0.544326 0,-0.342787 -0.1481392,-0.542603 Q 3.4842133,56.78748 3.2309986,56.78748 Z m 0,-0.268718 q 0.4134118,0 0.649401,0.268718 0.2359891,0.268718 0.2359891,0.744141 0,0.473701 -0.2359891,0.744141 -0.2359892,0.268718 -0.649401,0.268718 -0.4151342,0 -0.6511234,-0.268718 -0.2342667,-0.27044 -0.2342667,-0.744141 0,-0.475423 0.2342667,-0.744141 0.2359892,-0.268718 0.6511234,-0.268718 z" />
      <path
         id="path1154"
         style="font-size:3.52778px;stroke-width:0.264583"
         d="M 6.6364776,56.265548 6.1644993,57.545401 H 7.1101786 Z M 6.4401071,55.92276 h 0.3944637 l 0.9801303,2.571766 H 7.4529658 L 7.2186992,57.83479 H 6.0594238 L 5.8251571,58.494526 H 5.4582542 Z" />
      <path
         id="path1156"
         style="font-size:3.52778px;stroke-width:0.264583"
         d="m 9.5010762,56.639341 v 0.296278 Q 9.3667174,56.86155 9.230636,56.825376 q -0.1343588,-0.0379 -0.2721627,-0.0379 -0.3083362,0 -0.4788686,0.196371 -0.1705323,0.194648 -0.1705323,0.54777 0,0.353123 0.1705323,0.549493 0.1705324,0.194648 0.4788686,0.194648 0.1378039,0 0.2721627,-0.03617 0.1360814,-0.0379 0.2704402,-0.111966 v 0.292833 q -0.1326363,0.06201 -0.2756078,0.09302 -0.141249,0.03101 -0.3014461,0.03101 -0.4358048,0 -0.6924646,-0.273885 -0.2566598,-0.273886 -0.2566598,-0.738974 0,-0.471978 0.2583823,-0.742418 0.2601049,-0.270441 0.7114127,-0.270441 0.1464167,0 0.2859431,0.03101 0.1395265,0.02928 0.2704402,0.08957 z" />
      <path
         id="path1158"
         style="font-size:3.52778px;stroke-width:0.264583"
         d="m 10.369241,56.017501 v 0.54777 h 0.652846 v 0.246325 h -0.652846 v 1.047309 q 0,0.23599 0.06373,0.303169 0.06546,0.06718 0.26355,0.06718 h 0.325562 v 0.265273 h -0.325562 q -0.366903,0 -0.506429,-0.136081 -0.139527,-0.137804 -0.139527,-0.49954 v -1.04731 H 9.8180252 v -0.246325 h 0.2325438 v -0.54777 z" />
      <path
         id="path1160"
         style="font-size:3.52778px;stroke-width:0.264583"
         d="m 11.440667,56.565271 h 0.316949 v 1.929255 h -0.316949 z m 0,-0.751031 h 0.316949 v 0.401354 h -0.316949 z" />
      <path
         id="path1162"
         style="font-size:3.52778px;stroke-width:0.264583"
         d="m 13.166661,56.78748 q -0.254938,0 -0.403077,0.199816 -0.148139,0.198093 -0.148139,0.544325 0,0.346232 0.146417,0.546048 0.148139,0.198093 0.404799,0.198093 0.253214,0 0.401354,-0.199815 0.148139,-0.199816 0.148139,-0.544326 0,-0.342787 -0.148139,-0.542603 -0.14814,-0.201538 -0.401354,-0.201538 z m 0,-0.268718 q 0.413411,0 0.649401,0.268718 0.235989,0.268718 0.235989,0.744141 0,0.473701 -0.235989,0.744141 -0.23599,0.268718 -0.649401,0.268718 -0.415135,0 -0.651124,-0.268718 -0.234266,-0.27044 -0.234266,-0.744141 0,-0.475423 0.234266,-0.744141 0.235989,-0.268718 0.651124,-0.268718 z" />
      <path
         id="path1164"
         style="font-size:3.52778px;stroke-width:0.264583"
         d="m 16.179399,57.330083 v 1.164443 H 15.86245 v -1.154108 q 0,-0.273885 -0.106798,-0.409966 -0.106798,-0.136082 -0.320394,-0.136082 -0.25666,0 -0.404799,0.163642 -0.148139,0.163642 -0.148139,0.44614 v 1.090374 h -0.318672 v -1.929255 h 0.318672 v 0.299724 q 0.113688,-0.173978 0.266995,-0.260105 0.155029,-0.08613 0.356567,-0.08613 0.332452,0 0.502985,0.206706 0.170532,0.204984 0.170532,0.604615 z" />
    </g>
    <g
       style="font-size:3.52778px;line-height:1.25;font-family:sans-serif;-inkscape-font-specification:sans-serif;stroke-width:0.264583"
       id="text1078"
       aria-label="Braking">
      <path
         id="path1167"
         style="font-size:3.52778px;stroke-width:0.264583"
         d="m 80.340076,31.522277 v 0.942234 h 0.558106 q 0.280776,0 0.415135,-0.115411 0.136081,-0.117133 0.136081,-0.356568 0,-0.241156 -0.136081,-0.354845 -0.134359,-0.11541 -0.415135,-0.11541 z m 0,-1.057645 v 0.775147 h 0.515043 q 0.254937,0 0.37896,-0.09474 0.125746,-0.09646 0.125746,-0.292833 0,-0.194648 -0.125746,-0.291111 -0.124023,-0.09646 -0.37896,-0.09646 z m -0.347954,-0.285943 h 0.888835 q 0.397909,0 0.613227,0.165364 0.215319,0.165365 0.215319,0.470256 0,0.235989 -0.110243,0.375516 -0.110243,0.139526 -0.32384,0.173977 0.25666,0.05512 0.397909,0.230822 0.142972,0.173977 0.142972,0.435805 0,0.344509 -0.234267,0.532267 -0.234266,0.187758 -0.666626,0.187758 h -0.923286 z" />
      <path
         id="path1169"
         style="font-size:3.52778px;stroke-width:0.264583"
         d="m 83.514734,31.117478 q -0.0534,-0.03101 -0.117133,-0.04479 -0.06201,-0.0155 -0.137804,-0.0155 -0.268718,0 -0.413412,0.1757 -0.142971,0.173978 -0.142971,0.501262 v 1.016304 h -0.318672 v -1.929255 h 0.318672 v 0.299724 q 0.09991,-0.1757 0.260104,-0.260105 0.160198,-0.08613 0.389297,-0.08613 0.03273,0 0.07235,0.0052 0.03962,0.0034 0.08785,0.01206 z" />
      <path
         id="path1171"
         style="font-size:3.52778px;stroke-width:0.264583"
         d="m 84.727408,31.780659 q -0.384128,0 -0.532267,0.08785 -0.148139,0.08785 -0.148139,0.299723 0,0.16881 0.110243,0.268718 0.111965,0.09818 0.303168,0.09818 0.26355,0 0.422025,-0.186035 0.160197,-0.187758 0.160197,-0.497817 v -0.07062 z m 0.632176,-0.130914 v 1.100709 h -0.316949 v -0.292833 q -0.108521,0.1757 -0.27044,0.260105 -0.16192,0.08268 -0.396186,0.08268 -0.296279,0 -0.471979,-0.165365 -0.173977,-0.167087 -0.173977,-0.44614 0,-0.325562 0.217041,-0.490926 0.218764,-0.165365 0.651123,-0.165365 h 0.444418 V 31.5016 q 0,-0.218764 -0.144694,-0.33762 -0.142972,-0.120578 -0.403077,-0.120578 -0.165364,0 -0.322116,0.03962 -0.156752,0.03962 -0.301446,0.118856 v -0.292834 q 0.173977,-0.06718 0.337619,-0.09991 0.163642,-0.03445 0.318672,-0.03445 0.418579,0 0.625285,0.217042 0.206706,0.217041 0.206706,0.658013 z" />
      <path
         id="path1173"
         style="font-size:3.52778px;stroke-width:0.264583"
         d="m 86.002095,30.070168 h 0.318671 v 1.583022 l 0.94568,-0.831991 h 0.404799 l -1.023194,0.902616 1.066257,1.026639 H 87.300897 L 86.320766,31.80822 v 0.942234 h -0.318671 z" />
      <path
         id="path1175"
         style="font-size:3.52778px;stroke-width:0.264583"
         d="m 88.06054,30.821199 h 0.316949 v 1.929255 H 88.06054 Z m 0,-0.751031 h 0.316949 v 0.401354 H 88.06054 Z" />
      <path
         id="path1177"
         style="font-size:3.52778px;stroke-width:0.264583"
         d="m 90.642641,31.586011 v 1.164443 h -0.316949 v -1.154108 q 0,-0.273885 -0.106798,-0.409966 -0.106798,-0.136082 -0.320394,-0.136082 -0.25666,0 -0.404799,0.163642 -0.148139,0.163643 -0.148139,0.446141 v 1.090373 H 89.02689 v -1.929255 h 0.318672 v 0.299724 q 0.113688,-0.173978 0.266995,-0.260105 0.155029,-0.08613 0.356568,-0.08613 0.332451,0 0.502984,0.206706 0.170532,0.204984 0.170532,0.604615 z" />
      <path
         id="path1179"
         style="font-size:3.52778px;stroke-width:0.264583"
         d="m 92.547781,31.763433 q 0,-0.344509 -0.142972,-0.53399 -0.141249,-0.18948 -0.397909,-0.18948 -0.254937,0 -0.397908,0.18948 -0.141249,0.189481 -0.141249,0.53399 0,0.342788 0.141249,0.532268 0.142971,0.18948 0.397908,0.18948 0.25666,0 0.397909,-0.18948 0.142972,-0.18948 0.142972,-0.532268 z m 0.316949,0.747587 q 0,0.492649 -0.218764,0.732083 -0.218764,0.241157 -0.670071,0.241157 -0.167088,0 -0.315227,-0.02584 -0.148139,-0.02412 -0.287666,-0.07579 v -0.308336 q 0.139527,0.07579 0.275608,0.111966 0.136082,0.03617 0.277331,0.03617 0.311781,0 0.46681,-0.163642 0.15503,-0.161919 0.15503,-0.490926 V 32.41111 q -0.09819,0.170532 -0.251492,0.254937 -0.153307,0.0844 -0.366903,0.0844 -0.354845,0 -0.571887,-0.27044 -0.217041,-0.27044 -0.217041,-0.716581 0,-0.447862 0.217041,-0.718302 0.217042,-0.270441 0.571887,-0.270441 0.213596,0 0.366903,0.08441 0.153306,0.08441 0.251492,0.254938 v -0.292834 h 0.316949 z" />
    </g>
    <g
       style="font-size:3.52778px;line-height:1.25;font-family:sans-serif;-inkscape-font-specification:sans-serif;stroke-width:0.264583"
       id="text1086"
       aria-label="Acceleration">
      <path
         id="path1182"
         style="font-size:3.52778px;stroke-width:0.264583"
         d="m 81.29781,40.255523 -0.471978,1.279853 h 0.945679 z m -0.196371,-0.342788 h 0.394464 l 0.98013,2.571766 h -0.361735 l -0.234267,-0.659736 h -1.159275 l -0.234267,0.659736 h -0.366902 z" />
      <path
         id="path1184"
         style="font-size:3.52778px;stroke-width:0.264583"
         d="m 84.162409,40.629316 v 0.296278 q -0.134359,-0.07407 -0.27044,-0.110243 -0.134359,-0.0379 -0.272163,-0.0379 -0.308336,0 -0.478869,0.196371 -0.170532,0.194648 -0.170532,0.54777 0,0.353123 0.170532,0.549493 0.170533,0.194648 0.478869,0.194648 0.137804,0 0.272163,-0.03617 0.136081,-0.0379 0.27044,-0.111966 v 0.292833 q -0.132637,0.06201 -0.275608,0.09302 -0.141249,0.03101 -0.301446,0.03101 -0.435805,0 -0.692465,-0.273885 -0.25666,-0.273886 -0.25666,-0.738974 0,-0.471978 0.258383,-0.742418 0.260105,-0.270441 0.711412,-0.270441 0.146417,0 0.285944,0.03101 0.139526,0.02928 0.27044,0.08957 z" />
      <path
         id="path1186"
         style="font-size:3.52778px;stroke-width:0.264583"
         d="m 86.105444,40.629316 v 0.296278 q -0.134359,-0.07407 -0.27044,-0.110243 -0.134359,-0.0379 -0.272163,-0.0379 -0.308336,0 -0.478868,0.196371 -0.170533,0.194648 -0.170533,0.54777 0,0.353123 0.170533,0.549493 0.170532,0.194648 0.478868,0.194648 0.137804,0 0.272163,-0.03617 0.136081,-0.0379 0.27044,-0.111966 v 0.292833 q -0.132636,0.06201 -0.275608,0.09302 -0.141249,0.03101 -0.301446,0.03101 -0.435805,0 -0.692464,-0.273885 -0.25666,-0.273886 -0.25666,-0.738974 0,-0.471978 0.258382,-0.742418 0.260105,-0.270441 0.711413,-0.270441 0.146416,0 0.285943,0.03101 0.139526,0.02928 0.27044,0.08957 z" />
      <path
         id="path1188"
         style="font-size:3.52778px;stroke-width:0.264583"
         d="m 88.310307,41.440636 v 0.15503 H 86.85303 q 0.02067,0.327284 0.196371,0.499539 0.177422,0.170532 0.492649,0.170532 0.18259,0 0.353122,-0.04479 0.172255,-0.04479 0.341065,-0.134359 v 0.299724 q -0.170532,0.07235 -0.349677,0.110243 -0.179145,0.0379 -0.363458,0.0379 -0.461643,0 -0.732083,-0.268718 -0.268718,-0.268717 -0.268718,-0.726915 0,-0.473701 0.254937,-0.751032 0.25666,-0.279053 0.690742,-0.279053 0.389296,0 0.61495,0.251492 0.227377,0.24977 0.227377,0.680407 z m -0.316949,-0.09302 q -0.0034,-0.260105 -0.146417,-0.415135 -0.141249,-0.155029 -0.375516,-0.155029 -0.265272,0 -0.425469,0.149862 -0.158475,0.149861 -0.18259,0.422024 z" />
      <path
         id="path1190"
         style="font-size:3.52778px;stroke-width:0.264583"
         d="m 88.830516,39.804215 h 0.316949 v 2.680286 h -0.316949 z" />
      <path
         id="path1192"
         style="font-size:3.52778px;stroke-width:0.264583"
         d="m 91.459126,41.440636 v 0.15503 h -1.457277 q 0.02067,0.327284 0.196371,0.499539 0.177422,0.170532 0.492649,0.170532 0.18259,0 0.353122,-0.04479 0.172255,-0.04479 0.341065,-0.134359 v 0.299724 q -0.170532,0.07235 -0.349677,0.110243 -0.179145,0.0379 -0.363458,0.0379 -0.461643,0 -0.732083,-0.268718 -0.268718,-0.268717 -0.268718,-0.726915 0,-0.473701 0.254937,-0.751032 0.25666,-0.279053 0.690742,-0.279053 0.389296,0 0.61495,0.251492 0.227377,0.24977 0.227377,0.680407 z m -0.316949,-0.09302 q -0.0034,-0.260105 -0.146417,-0.415135 -0.141249,-0.155029 -0.375516,-0.155029 -0.265272,0 -0.425469,0.149862 -0.158475,0.149861 -0.18259,0.422024 z" />
      <path
         id="path1194"
         style="font-size:3.52778px;stroke-width:0.264583"
         d="m 93.09727,40.851525 q -0.0534,-0.03101 -0.117133,-0.04479 -0.06201,-0.0155 -0.137804,-0.0155 -0.268718,0 -0.413412,0.1757 -0.142971,0.173978 -0.142971,0.501262 v 1.016304 h -0.318672 v -1.929255 h 0.318672 v 0.299724 q 0.09991,-0.1757 0.260104,-0.260105 0.160198,-0.08613 0.389297,-0.08613 0.03273,0 0.07235,0.0052 0.03962,0.0034 0.08785,0.01206 z" />
      <path
         id="path1196"
         style="font-size:3.52778px;stroke-width:0.264583"
         d="m 94.309944,41.514706 q -0.384128,0 -0.532268,0.08785 -0.148139,0.08785 -0.148139,0.299723 0,0.16881 0.110243,0.268718 0.111966,0.09819 0.303169,0.09819 0.26355,0 0.422024,-0.186035 0.160197,-0.187758 0.160197,-0.497817 v -0.07062 z m 0.632175,-0.130914 v 1.100709 H 94.62517 v -0.292833 q -0.10852,0.1757 -0.27044,0.260104 -0.161919,0.08268 -0.396186,0.08268 -0.296278,0 -0.471978,-0.165365 -0.173978,-0.167087 -0.173978,-0.44614 0,-0.325562 0.217041,-0.490926 0.218764,-0.165365 0.651124,-0.165365 h 0.444417 v -0.03101 q 0,-0.218764 -0.144694,-0.33762 -0.142971,-0.120578 -0.403076,-0.120578 -0.165365,0 -0.322117,0.03962 -0.156752,0.03962 -0.301446,0.118855 V 40.64309 q 0.173978,-0.06718 0.33762,-0.09991 0.163642,-0.03445 0.318671,-0.03445 0.41858,0 0.625286,0.217042 0.206705,0.217041 0.206705,0.658013 z" />
      <path
         id="path1198"
         style="font-size:3.52778px;stroke-width:0.264583"
         d="m 95.910192,40.007476 v 0.54777 h 0.652846 v 0.246325 h -0.652846 v 1.047309 q 0,0.23599 0.06374,0.303169 0.06546,0.06718 0.26355,0.06718 h 0.325561 v 0.265273 h -0.325561 q -0.366903,0 -0.50643,-0.136081 -0.139526,-0.137804 -0.139526,-0.49954 v -1.047309 h -0.232544 v -0.246325 h 0.232544 v -0.54777 z" />
      <path
         id="path1200"
         style="font-size:3.52778px;stroke-width:0.264583"
         d="m 96.981618,40.555246 h 0.316949 v 1.929255 h -0.316949 z m 0,-0.751031 h 0.316949 v 0.401354 h -0.316949 z" />
      <path
         id="path1202"
         style="font-size:3.52778px;stroke-width:0.264583"
         d="m 98.707611,40.777455 q -0.254937,0 -0.403076,0.199816 -0.148139,0.198093 -0.148139,0.544325 0,0.346232 0.146416,0.546048 0.148139,0.198093 0.404799,0.198093 0.253215,0 0.401354,-0.199815 0.148139,-0.199816 0.148139,-0.544326 0,-0.342787 -0.148139,-0.542603 -0.148139,-0.201538 -0.401354,-0.201538 z m 0,-0.268718 q 0.413412,0 0.649401,0.268718 0.235989,0.268718 0.235989,0.744141 0,0.473701 -0.235989,0.744141 -0.235989,0.268718 -0.649401,0.268718 -0.415134,0 -0.651123,-0.268718 -0.234267,-0.27044 -0.234267,-0.744141 0,-0.475423 0.234267,-0.744141 0.235989,-0.268718 0.651123,-0.268718 z" />
      <path
         id="path1204"
         style="font-size:3.52778px;stroke-width:0.264583"
         d="m 101.72035,41.320058 v 1.164443 h -0.31695 v -1.154108 q 0,-0.273885 -0.1068,-0.409966 -0.1068,-0.136082 -0.32039,-0.136082 -0.25666,0 -0.4048,0.163642 -0.14814,0.163642 -0.14814,0.44614 v 1.090374 h -0.31867 v -1.929255 h 0.31867 v 0.299724 q 0.11369,-0.173978 0.267,-0.260105 0.15502,-0.08613 0.35656,-0.08613 0.33245,0 0.50299,0.206706 0.17053,0.204984 0.17053,0.604615 z" />
    </g>
    <g
       transform="translate(-0.56143544)"
       id="g325">
      <g
         transform="matrix(0.25275684,0,0,0.25275684,89.856608,-1.6955767)"
         id="patch_2-3"
         style="stroke-linecap:butt;stroke-linejoin:round">
        <path
           d="m 354.144,180.12 c 0,-14.73813 -2.63301,-29.35843 -7.7747,-43.17058 -5.14169,-13.81215 -12.70986,-26.5953 -22.34715,-37.745862 L 230.4,180.12 Z"
           style="fill:#d85c41;stroke:#000000;stroke-width:0.5;stroke-linejoin:miter"
           id="path9-7" />
      </g>
      <g
         transform="matrix(0.25275684,0,0,0.25275684,89.856608,-1.6955767)"
         id="patch_3-5"
         style="stroke-linecap:butt;stroke-linejoin:round">
        <path
           d="M 324.02215,99.203558 C 316.3332,90.307269 307.41532,82.552166 297.53788,76.172501 287.66044,69.792835 276.92391,64.853495 265.65259,61.503676 L 230.4,180.12 Z"
           style="fill:#57ab27;stroke:#000000;stroke-width:0.5;stroke-linejoin:miter"
           id="path12-9" />
      </g>
      <g
         transform="matrix(0.25275684,0,0,0.25275684,89.856608,-1.6955767)"
         id="patch_4-2"
         style="stroke-linecap:butt;stroke-linejoin:round">
        <path
           d="m 265.65259,61.503676 c -12.38412,-3.680541 -25.26858,-5.399038 -38.18443,-5.092939 -12.91584,0.306098 -25.70444,2.633031 -37.90029,6.896103 -12.19586,4.263072 -23.6492,10.409925 -33.94313,18.216823 -10.29394,7.806899 -19.30204,17.177961 -26.69643,27.772097 -7.3944,10.59413 -13.08426,22.28123 -16.8625,34.63589 -3.77824,12.35466 -5.59845,25.22515 -5.39437,38.14301 0.20407,12.91786 2.42993,25.72443 6.59654,37.95358 4.16661,12.22915 10.22281,23.73068 17.94816,34.08595 7.72536,10.35528 17.02498,19.43711 27.56038,26.91495 10.5354,7.47784 22.17719,13.25983 34.50162,17.13553 12.32444,3.87571 25.18015,5.79751 38.09922,5.69547 12.91907,-0.10204 25.74282,-2.22668 38.0045,-6.29657 12.26167,-4.06989 23.81068,-10.03506 34.22665,-17.67838 10.41596,-7.64333 19.57097,-16.87093 27.13178,-27.34694 7.56082,-10.47601 13.43458,-22.07177 17.40751,-34.36521 3.97292,-12.29343 5.9962,-25.13357 5.9962,-38.05304 H 230.4 Z"
           style="fill:#407fb7;stroke:#000000;stroke-width:0.5;stroke-linejoin:miter"
           id="path15-2" />
      </g>
    </g>
    <g
       style="font-size:3.52778px;line-height:1.25;font-family:sans-serif;-inkscape-font-specification:sans-serif;stroke-width:0.264583"
       id="text832"
       aria-label="No Action">
      <path
         id="path1282"
         style="font-size:3.52778px;stroke-width:0.264583"
         d="m 101.11975,55.922757 h 0.46853 l 1.14033,2.151463 v -2.151463 h 0.33762 v 2.571765 h -0.46854 l -1.14032,-2.151463 v 2.151463 h -0.33762 z" />
      <path
         id="path1284"
         style="font-size:3.52778px;stroke-width:0.264583"
         d="m 104.4925,56.787476 q -0.25494,0 -0.40308,0.199816 -0.14814,0.198093 -0.14814,0.544325 0,0.346233 0.14642,0.546048 0.14814,0.198093 0.4048,0.198093 0.25321,0 0.40135,-0.199815 0.14814,-0.199816 0.14814,-0.544326 0,-0.342787 -0.14814,-0.542603 -0.14814,-0.201538 -0.40135,-0.201538 z m 0,-0.268717 q 0.41341,0 0.6494,0.268717 0.23599,0.268718 0.23599,0.744141 0,0.473701 -0.23599,0.744141 -0.23599,0.268718 -0.6494,0.268718 -0.41514,0 -0.65113,-0.268718 -0.23426,-0.27044 -0.23426,-0.744141 0,-0.475423 0.23426,-0.744141 0.23599,-0.268717 0.65113,-0.268717 z" />
      <path
         id="path1286"
         style="font-size:3.52778px;stroke-width:0.264583"
         d="m 107.89798,56.265544 -0.47198,1.279854 h 0.94568 z m -0.19637,-0.342787 h 0.39446 l 0.98013,2.571765 h -0.36174 l -0.23426,-0.659736 h -1.15928 l -0.23426,0.659736 h -0.36691 z" />
      <path
         id="path1288"
         style="font-size:3.52778px;stroke-width:0.264583"
         d="m 110.76257,56.639337 v 0.296278 q -0.13435,-0.07407 -0.27044,-0.110243 -0.13435,-0.0379 -0.27216,-0.0379 -0.30833,0 -0.47887,0.196371 -0.17053,0.194648 -0.17053,0.54777 0,0.353123 0.17053,0.549493 0.17054,0.194648 0.47887,0.194648 0.13781,0 0.27216,-0.03617 0.13609,-0.0379 0.27044,-0.111966 v 0.292833 q -0.13263,0.06201 -0.2756,0.09302 -0.14125,0.03101 -0.30145,0.03101 -0.4358,0 -0.69246,-0.273885 -0.25666,-0.273886 -0.25666,-0.738974 0,-0.471978 0.25838,-0.742418 0.2601,-0.27044 0.71141,-0.27044 0.14642,0 0.28594,0.03101 0.13953,0.02928 0.27044,0.08957 z" />
      <path
         id="path1290"
         style="font-size:3.52778px;stroke-width:0.264583"
         d="m 111.63074,56.017497 v 0.54777 h 0.65285 v 0.246325 h -0.65285 v 1.04731 q 0,0.235989 0.0637,0.303168 0.0655,0.06718 0.26355,0.06718 h 0.32557 v 0.265272 h -0.32557 q -0.3669,0 -0.50643,-0.136081 -0.13952,-0.137804 -0.13952,-0.499539 v -1.04731 h -0.23255 v -0.246325 h 0.23255 v -0.54777 z" />
      <path
         id="path1292"
         style="font-size:3.52778px;stroke-width:0.264583"
         d="m 112.70216,56.565267 h 0.31695 v 1.929255 h -0.31695 z m 0,-0.751031 h 0.31695 v 0.401354 h -0.31695 z" />
      <path
         id="path1294"
         style="font-size:3.52778px;stroke-width:0.264583"
         d="m 114.42816,56.787476 q -0.25494,0 -0.40308,0.199816 -0.14814,0.198093 -0.14814,0.544325 0,0.346233 0.14642,0.546048 0.14814,0.198093 0.4048,0.198093 0.25321,0 0.40135,-0.199815 0.14814,-0.199816 0.14814,-0.544326 0,-0.342787 -0.14814,-0.542603 -0.14814,-0.201538 -0.40135,-0.201538 z m 0,-0.268717 q 0.41341,0 0.6494,0.268717 0.23599,0.268718 0.23599,0.744141 0,0.473701 -0.23599,0.744141 -0.23599,0.268718 -0.6494,0.268718 -0.41514,0 -0.65112,-0.268718 -0.23427,-0.27044 -0.23427,-0.744141 0,-0.475423 0.23427,-0.744141 0.23598,-0.268717 0.65112,-0.268717 z" />
      <path
         id="path1296"
         style="font-size:3.52778px;stroke-width:0.264583"
         d="m 117.4409,57.330079 v 1.164443 h -0.31695 v -1.154108 q 0,-0.273885 -0.1068,-0.409966 -0.1068,-0.136082 -0.32039,-0.136082 -0.25666,0 -0.4048,0.163643 -0.14814,0.163642 -0.14814,0.44614 v 1.090373 h -0.31867 v -1.929255 h 0.31867 v 0.299724 q 0.11369,-0.173978 0.26699,-0.260105 0.15503,-0.08613 0.35657,-0.08613 0.33245,0 0.50298,0.206705 0.17054,0.204984 0.17054,0.604615 z" />
    </g>
    <g
       style="font-size:3.52778px;line-height:1.25;font-family:sans-serif;-inkscape-font-specification:sans-serif;stroke-width:0.264583"
       id="text1082"
       aria-label="Braking">
      <path
         id="path1299"
         style="font-size:3.52778px;stroke-width:0.264583"
         d="m 168.26856,16.212512 v 0.942234 h 0.5581 q 0.28078,0 0.41514,-0.115411 0.13608,-0.117133 0.13608,-0.356567 0,-0.241157 -0.13608,-0.354845 -0.13436,-0.115411 -0.41514,-0.115411 z m 0,-1.057645 v 0.775147 h 0.51504 q 0.25494,0 0.37896,-0.09474 0.12575,-0.09646 0.12575,-0.292834 0,-0.194648 -0.12575,-0.291111 -0.12402,-0.09646 -0.37896,-0.09646 z m -0.34796,-0.285943 h 0.88884 q 0.39791,0 0.61323,0.165364 0.21531,0.165365 0.21531,0.470256 0,0.235989 -0.11024,0.375516 -0.11024,0.139526 -0.32384,0.173977 0.25666,0.05512 0.39791,0.230822 0.14297,0.173977 0.14297,0.435805 0,0.344509 -0.23426,0.532267 -0.23427,0.187758 -0.66663,0.187758 h -0.92329 z" />
      <path
         id="path1301"
         style="font-size:3.52778px;stroke-width:0.264583"
         d="m 171.44322,15.807713 q -0.0534,-0.03101 -0.11714,-0.04479 -0.062,-0.0155 -0.1378,-0.0155 -0.26872,0 -0.41341,0.1757 -0.14297,0.173977 -0.14297,0.501261 v 1.016304 h -0.31868 v -1.929255 h 0.31868 v 0.299724 q 0.0999,-0.1757 0.2601,-0.260105 0.1602,-0.08613 0.3893,-0.08613 0.0327,0 0.0723,0.0052 0.0396,0.0034 0.0878,0.01206 z" />
      <path
         id="path1303"
         style="font-size:3.52778px;stroke-width:0.264583"
         d="m 172.65589,16.470894 q -0.38413,0 -0.53227,0.08785 -0.14814,0.08785 -0.14814,0.299724 0,0.168809 0.11025,0.268717 0.11196,0.09819 0.30317,0.09819 0.26355,0 0.42202,-0.186035 0.1602,-0.187758 0.1602,-0.497816 v -0.07062 z m 0.63218,-0.130914 v 1.100709 h -0.31695 v -0.292833 q -0.10852,0.1757 -0.27044,0.260105 -0.16192,0.08268 -0.39619,0.08268 -0.29628,0 -0.47198,-0.165365 -0.17398,-0.167087 -0.17398,-0.44614 0,-0.325562 0.21705,-0.490926 0.21876,-0.165365 0.65112,-0.165365 h 0.44442 v -0.03101 q 0,-0.218764 -0.1447,-0.337619 -0.14297,-0.120579 -0.40307,-0.120579 -0.16537,0 -0.32212,0.03962 -0.15675,0.03962 -0.30145,0.118856 v -0.292834 q 0.17398,-0.06718 0.33762,-0.09991 0.16365,-0.03445 0.31867,-0.03445 0.41858,0 0.62529,0.217041 0.20671,0.217041 0.20671,0.658013 z" />
      <path
         id="path1305"
         style="font-size:3.52778px;stroke-width:0.264583"
         d="m 173.93058,14.760403 h 0.31867 v 1.583022 l 0.94568,-0.831991 h 0.4048 l -1.0232,0.902616 1.06626,1.026639 h -0.41341 l -0.98013,-0.942234 v 0.942234 h -0.31867 z" />
      <path
         id="path1307"
         style="font-size:3.52778px;stroke-width:0.264583"
         d="m 175.98902,15.511434 h 0.31695 v 1.929255 h -0.31695 z m 0,-0.751031 h 0.31695 v 0.401354 h -0.31695 z" />
      <path
         id="path1309"
         style="font-size:3.52778px;stroke-width:0.264583"
         d="m 178.57112,16.276246 v 1.164443 h -0.31695 v -1.154108 q 0,-0.273885 -0.10679,-0.409966 -0.1068,-0.136082 -0.3204,-0.136082 -0.25666,0 -0.4048,0.163643 -0.14814,0.163642 -0.14814,0.44614 v 1.090373 h -0.31867 v -1.929255 h 0.31867 v 0.299724 q 0.11369,-0.173978 0.267,-0.260105 0.15503,-0.08613 0.35657,-0.08613 0.33245,0 0.50298,0.206705 0.17053,0.204984 0.17053,0.604615 z" />
      <path
         id="path1311"
         style="font-size:3.52778px;stroke-width:0.264583"
         d="m 180.47626,16.453669 q 0,-0.34451 -0.14297,-0.533991 -0.14125,-0.18948 -0.39791,-0.18948 -0.25493,0 -0.39791,0.18948 -0.14125,0.189481 -0.14125,0.533991 0,0.342787 0.14125,0.532267 0.14298,0.189481 0.39791,0.189481 0.25666,0 0.39791,-0.189481 0.14297,-0.18948 0.14297,-0.532267 z m 0.31695,0.747586 q 0,0.492649 -0.21876,0.732083 -0.21877,0.241157 -0.67007,0.241157 -0.16709,0 -0.31523,-0.02584 -0.14814,-0.02412 -0.28767,-0.07579 v -0.308337 q 0.13953,0.07579 0.27561,0.111966 0.13608,0.03617 0.27733,0.03617 0.31178,0 0.46681,-0.163642 0.15503,-0.161919 0.15503,-0.490926 v -0.156752 q -0.0982,0.170532 -0.25149,0.254937 -0.15331,0.08441 -0.3669,0.08441 -0.35485,0 -0.57189,-0.27044 -0.21704,-0.27044 -0.21704,-0.71658 0,-0.447863 0.21704,-0.718303 0.21704,-0.27044 0.57189,-0.27044 0.21359,0 0.3669,0.0844 0.15331,0.08441 0.25149,0.254938 v -0.292834 h 0.31695 z" />
    </g>
    <g
       style="font-size:3.52778px;line-height:1.25;font-family:sans-serif;-inkscape-font-specification:sans-serif;stroke-width:0.264583"
       id="text1090"
       aria-label="Acceleration">
      <path
         id="path1314"
         style="font-size:3.52778px;stroke-width:0.264583"
         d="m 180.18102,32.993384 -0.47198,1.279854 h 0.94568 z m -0.19637,-0.342787 h 0.39446 l 0.98013,2.571766 h -0.36173 l -0.23427,-0.659737 h -1.15927 l -0.23427,0.659737 h -0.3669 z" />
      <path
         id="path1316"
         style="font-size:3.52778px;stroke-width:0.264583"
         d="m 183.04562,33.367177 v 0.296279 q -0.13436,-0.07407 -0.27044,-0.110243 -0.13436,-0.0379 -0.27216,-0.0379 -0.30834,0 -0.47887,0.19637 -0.17054,0.194648 -0.17054,0.547771 0,0.353122 0.17054,0.549493 0.17053,0.194648 0.47887,0.194648 0.1378,0 0.27216,-0.03617 0.13608,-0.0379 0.27044,-0.111965 v 0.292833 q -0.13264,0.06201 -0.27561,0.09302 -0.14125,0.031 -0.30145,0.031 -0.4358,0 -0.69246,-0.273885 -0.25666,-0.273885 -0.25666,-0.738973 0,-0.471979 0.25838,-0.742419 0.26011,-0.27044 0.71141,-0.27044 0.14642,0 0.28595,0.03101 0.13952,0.02928 0.27044,0.08957 z" />
      <path
         id="path1318"
         style="font-size:3.52778px;stroke-width:0.264583"
         d="m 184.98865,33.367177 v 0.296279 q -0.13436,-0.07407 -0.27044,-0.110243 -0.13436,-0.0379 -0.27216,-0.0379 -0.30834,0 -0.47887,0.19637 -0.17053,0.194648 -0.17053,0.547771 0,0.353122 0.17053,0.549493 0.17053,0.194648 0.47887,0.194648 0.1378,0 0.27216,-0.03617 0.13608,-0.0379 0.27044,-0.111965 v 0.292833 q -0.13263,0.06201 -0.2756,0.09302 -0.14125,0.031 -0.30145,0.031 -0.43581,0 -0.69247,-0.273885 -0.25665,-0.273885 -0.25665,-0.738973 0,-0.471979 0.25838,-0.742419 0.2601,-0.27044 0.71141,-0.27044 0.14642,0 0.28594,0.03101 0.13953,0.02928 0.27044,0.08957 z" />
      <path
         id="path1320"
         style="font-size:3.52778px;stroke-width:0.264583"
         d="m 187.19352,34.178498 v 0.155029 h -1.45728 q 0.0207,0.327285 0.19637,0.499539 0.17742,0.170533 0.49265,0.170533 0.18259,0 0.35312,-0.04479 0.17226,-0.04479 0.34107,-0.134359 v 0.299723 q -0.17054,0.07235 -0.34968,0.110243 -0.17915,0.0379 -0.36346,0.0379 -0.46164,0 -0.73208,-0.268717 -0.26872,-0.268718 -0.26872,-0.726916 0,-0.473701 0.25494,-0.751031 0.25666,-0.279053 0.69074,-0.279053 0.3893,0 0.61495,0.251492 0.22738,0.24977 0.22738,0.680407 z m -0.31695,-0.09302 q -0.003,-0.260105 -0.14642,-0.415134 -0.14125,-0.155029 -0.37552,-0.155029 -0.26527,0 -0.42546,0.149861 -0.15848,0.149862 -0.1826,0.422025 z" />
      <path
         id="path1322"
         style="font-size:3.52778px;stroke-width:0.264583"
         d="m 187.71373,32.542076 h 0.31694 v 2.680287 h -0.31694 z" />
      <path
         id="path1324"
         style="font-size:3.52778px;stroke-width:0.264583"
         d="m 190.34233,34.178498 v 0.155029 h -1.45727 q 0.0207,0.327285 0.19637,0.499539 0.17742,0.170533 0.49265,0.170533 0.18259,0 0.35312,-0.04479 0.17226,-0.04479 0.34107,-0.134359 v 0.299723 q -0.17054,0.07235 -0.34968,0.110243 -0.17915,0.0379 -0.36346,0.0379 -0.46164,0 -0.73208,-0.268717 -0.26872,-0.268718 -0.26872,-0.726916 0,-0.473701 0.25494,-0.751031 0.25666,-0.279053 0.69074,-0.279053 0.38929,0 0.61495,0.251492 0.22737,0.24977 0.22737,0.680407 z m -0.31694,-0.09302 q -0.003,-0.260105 -0.14642,-0.415134 -0.14125,-0.155029 -0.37552,-0.155029 -0.26527,0 -0.42547,0.149861 -0.15847,0.149862 -0.18259,0.422025 z" />
      <path
         id="path1326"
         style="font-size:3.52778px;stroke-width:0.264583"
         d="m 191.98048,33.589386 q -0.0534,-0.03101 -0.11713,-0.04479 -0.062,-0.0155 -0.13781,-0.0155 -0.26872,0 -0.41341,0.1757 -0.14297,0.173977 -0.14297,0.501262 v 1.016304 h -0.31867 v -1.929255 h 0.31867 v 0.299723 q 0.0999,-0.1757 0.2601,-0.260105 0.1602,-0.08613 0.3893,-0.08613 0.0327,0 0.0724,0.0052 0.0396,0.0034 0.0879,0.01206 z" />
      <path
         id="path1328"
         style="font-size:3.52778px;stroke-width:0.264583"
         d="m 193.19315,34.252568 q -0.38413,0 -0.53226,0.08785 -0.14814,0.08785 -0.14814,0.299723 0,0.16881 0.11024,0.268718 0.11197,0.09819 0.30317,0.09819 0.26355,0 0.42202,-0.186035 0.1602,-0.187758 0.1602,-0.497817 v -0.07062 z m 0.63218,-0.130914 v 1.100709 h -0.31695 v -0.292834 q -0.10852,0.1757 -0.27044,0.260105 -0.16192,0.08268 -0.39619,0.08268 -0.29628,0 -0.47198,-0.165364 -0.17397,-0.167087 -0.17397,-0.44614 0,-0.325562 0.21704,-0.490927 0.21876,-0.165365 0.65112,-0.165365 h 0.44442 v -0.03101 q 0,-0.218764 -0.14469,-0.33762 -0.14298,-0.120578 -0.40308,-0.120578 -0.16537,0 -0.32212,0.03962 -0.15675,0.03962 -0.30144,0.118856 v -0.292833 q 0.17397,-0.06718 0.33762,-0.09991 0.16364,-0.03445 0.31867,-0.03445 0.41858,0 0.62528,0.217041 0.20671,0.217041 0.20671,0.658014 z" />
      <path
         id="path1330"
         style="font-size:3.52778px;stroke-width:0.264583"
         d="m 194.7934,32.745337 v 0.547771 h 0.65285 v 0.246324 h -0.65285 v 1.04731 q 0,0.235989 0.0637,0.303169 0.0655,0.06718 0.26355,0.06718 h 0.32556 v 0.265273 h -0.32556 q -0.36691,0 -0.50643,-0.136082 -0.13953,-0.137804 -0.13953,-0.499539 v -1.04731 h -0.23254 v -0.246324 h 0.23254 v -0.547771 z" />
      <path
         id="path1332"
         style="font-size:3.52778px;stroke-width:0.264583"
         d="m 195.86483,33.293108 h 0.31695 v 1.929255 h -0.31695 z m 0,-0.751032 h 0.31695 v 0.401354 h -0.31695 z" />
      <path
         id="path1334"
         style="font-size:3.52778px;stroke-width:0.264583"
         d="m 197.59082,33.515317 q -0.25494,0 -0.40308,0.199815 -0.14814,0.198093 -0.14814,0.544326 0,0.346232 0.14642,0.546048 0.14814,0.198093 0.4048,0.198093 0.25322,0 0.40135,-0.199816 0.14814,-0.199816 0.14814,-0.544325 0,-0.342788 -0.14814,-0.542603 -0.14813,-0.201538 -0.40135,-0.201538 z m 0,-0.268718 q 0.41341,0 0.6494,0.268718 0.23599,0.268717 0.23599,0.744141 0,0.473701 -0.23599,0.744141 -0.23599,0.268717 -0.6494,0.268717 -0.41513,0 -0.65112,-0.268717 -0.23427,-0.27044 -0.23427,-0.744141 0,-0.475424 0.23427,-0.744141 0.23599,-0.268718 0.65112,-0.268718 z" />
      <path
         id="path1336"
         style="font-size:3.52778px;stroke-width:0.264583"
         d="m 200.60356,34.057919 v 1.164444 h -0.31695 v -1.154108 q 0,-0.273885 -0.1068,-0.409967 -0.1068,-0.136081 -0.32039,-0.136081 -0.25666,0 -0.4048,0.163642 -0.14814,0.163642 -0.14814,0.44614 v 1.090374 h -0.31867 v -1.929255 h 0.31867 v 0.299723 q 0.11369,-0.173977 0.26699,-0.260105 0.15503,-0.08613 0.35657,-0.08613 0.33245,0 0.50299,0.206706 0.17053,0.204983 0.17053,0.604614 z" />
    </g>
    <text
       id="text269"
       y="8.1187668"
       x="34.963181"
       style="font-size:4.93889px;line-height:1.25;font-family:sans-serif;-inkscape-font-specification:sans-serif;stroke-width:0.264583"
       xml:space="preserve"><tspan
         style="font-size:4.93889px;stroke-width:0.264583"
         y="8.1187668"
         x="34.963181"
         id="tspan267"
         sodipodi:role="line">Dataset 1</tspan></text>
    <text
       xml:space="preserve"
       style="font-size:4.93889px;line-height:1.25;font-family:sans-serif;-inkscape-font-specification:sans-serif;stroke-width:0.264583"
       x="135.45322"
       y="8.1513233"
       id="text269-3"><tspan
         id="tspan289"
         sodipodi:role="line"
         x="135.45322"
         y="8.1513233"
         style="font-size:4.93889px;stroke-width:0.264583">Dataset 3</tspan></text>
  </g>
</svg>
