<?xml version="1.0" encoding="UTF-8" standalone="no"?>
<svg
   xmlns:dc="http://purl.org/dc/elements/1.1/"
   xmlns:cc="http://creativecommons.org/ns#"
   xmlns:rdf="http://www.w3.org/1999/02/22-rdf-syntax-ns#"
   xmlns:svg="http://www.w3.org/2000/svg"
   xmlns="http://www.w3.org/2000/svg"
   xmlns:xlink="http://www.w3.org/1999/xlink"
   xmlns:sodipodi="http://sodipodi.sourceforge.net/DTD/sodipodi-0.dtd"
   xmlns:inkscape="http://www.inkscape.org/namespaces/inkscape"
   inkscape:version="1.0 (1.0+r73+1)"
   sodipodi:docname="datasets_general.svg"
   id="svg146"
   width="460.8pt"
   viewBox="0 0 460.8 345.6"
   version="1.1"
   height="345.6pt">
  <metadata
     id="metadata150">
    <rdf:RDF>
      <cc:Work
         rdf:about="">
        <dc:format>image/svg+xml</dc:format>
        <dc:type
           rdf:resource="http://purl.org/dc/dcmitype/StillImage" />
        <dc:title></dc:title>
      </cc:Work>
    </rdf:RDF>
  </metadata>
  <sodipodi:namedview
     inkscape:current-layer="svg146"
     inkscape:window-maximized="1"
     inkscape:window-y="0"
     inkscape:window-x="0"
     inkscape:cy="275.69509"
     inkscape:cx="243.11056"
     inkscape:zoom="1"
     showgrid="false"
     id="namedview148"
     inkscape:window-height="850"
     inkscape:window-width="1600"
     inkscape:pageshadow="2"
     inkscape:pageopacity="0"
     guidetolerance="10"
     gridtolerance="10"
     objecttolerance="10"
     borderopacity="1"
     bordercolor="#666666"
     pagecolor="#ffffff" />
  <defs
     id="defs4">
    <style
       id="style2"
       type="text/css">
*{stroke-linecap:butt;stroke-linejoin:round;}
  </style>
  </defs>
  <g
     transform="matrix(0.87141597,0,0,0.87141597,-78.887703,47.96801)"
     id="axes_1">
    <g
       id="patch_2">
      <path
         d="m 318.72,137.28 c 0,-21.24694 -7.667,-41.796505 -21.58408,-57.851014 -13.91709,-16.05451 -33.17068,-26.560062 -54.2026,-29.575174 L 230.4,137.28 Z"
         style="fill:#d85c41;stroke:#000000;stroke-width:0.5;stroke-linejoin:miter"
         id="path9" />
    </g>
    <g
       id="patch_3">
      <path
         d="m 242.93332,49.853812 c -19.8619,-2.847379 -40.11323,1.156997 -57.39675,11.349284 -17.28351,10.192286 -30.58825,25.976314 -37.70856,44.735414 L 230.4,137.28 Z"
         style="fill:#57ab27;stroke:#000000;stroke-width:0.5;stroke-linejoin:miter"
         id="path12" />
    </g>
    <g
       id="patch_4">
      <path
         d="m 147.82801,105.93851 c -4.59454,12.10474 -6.47161,25.07302 -5.49789,37.98373 0.97373,12.9107 4.77464,25.45075 11.13276,36.72944 6.35813,11.27869 15.11928,21.02251 25.66116,28.53937 10.54189,7.51686 22.60887,12.62447 35.34384,14.96006 12.73498,2.33559 25.82912,1.84251 38.35238,-1.44422 12.52326,-3.28672 24.17194,-9.28739 34.11865,-17.57578 9.94672,-8.28838 17.95026,-18.6635 23.44215,-30.38842 5.49188,-11.72492 8.33894,-24.51531 8.33894,-37.46268 l -88.32,-1e-5 z"
         style="fill:#407fb7;stroke:#000000;stroke-width:0.5;stroke-linejoin:miter"
         id="path15" />
    </g>
    <g
       id="matplotlib.axis_1" />
    <g
       id="matplotlib.axis_2" />
    <g
       id="text_1">
      <!-- Dataset1 -->
      <defs
         id="defs26">
        <path
           d="M 19.671875,64.796875 V 8.109375 H 31.59375 q 15.09375,0 22.09375,6.828125 7,6.84375 7,21.59375 0,14.640625 -7,21.453125 -7,6.8125 -22.09375,6.8125 z M 9.8125,72.90625 h 20.265625 q 21.1875,0 31.09375,-8.8125 9.921875,-8.8125 9.921875,-27.5625 0,-18.859375 -9.96875,-27.703125 Q 51.171875,0 30.078125,0 H 9.8125 Z"
           id="DejaVuSans-68" />
        <path
           d="m 34.28125,27.484375 q -10.890625,0 -15.09375,-2.484375 -4.203125,-2.484375 -4.203125,-8.5 0,-4.78125 3.15625,-7.59375 3.15625,-2.796875 8.5625,-2.796875 7.484375,0 12,5.296875 4.515625,5.296875 4.515625,14.078125 v 2 z m 17.921875,3.71875 V 0 H 43.21875 v 8.296875 q -3.078125,-4.96875 -7.671875,-7.34375 -4.59375,-2.375 -11.234375,-2.375 -8.390625,0 -13.359375,4.71875 Q 6,8.015625 6,15.921875 q 0,9.21875 6.171875,13.90625 6.1875,4.6875 18.4375,4.6875 H 43.21875 v 0.890625 q 0,6.203125 -4.078125,9.59375 -4.078125,3.390625 -11.453125,3.390625 -4.6875,0 -9.140625,-1.125 -4.4375,-1.125 -8.53125,-3.375 v 8.3125 q 4.921875,1.90625 9.5625,2.84375 Q 24.21875,56 28.609375,56 q 11.875,0 17.734375,-6.15625 5.859375,-6.140625 5.859375,-18.640625 z"
           id="DejaVuSans-97" />
        <path
           d="M 18.3125,70.21875 V 54.6875 h 18.5 v -6.984375 h -18.5 v -29.6875 q 0,-6.6875 1.828125,-8.59375 1.828125,-1.90625 7.453125,-1.90625 H 36.8125 V 0 H 27.59375 Q 17.1875,0 13.234375,3.875 9.28125,7.765625 9.28125,18.015625 v 29.6875 H 2.6875 V 54.6875 h 6.59375 v 15.53125 z"
           id="DejaVuSans-116" />
        <path
           d="m 44.28125,53.078125 v -8.5 Q 40.484375,46.53125 36.375,47.5 q -4.09375,0.984375 -8.5,0.984375 -6.6875,0 -10.03125,-2.046875 Q 14.5,44.390625 14.5,40.28125 q 0,-3.125 2.390625,-4.90625 2.390625,-1.78125 9.625,-3.390625 l 3.078125,-0.6875 Q 39.15625,29.25 43.1875,25.515625 47.21875,21.78125 47.21875,15.09375 q 0,-7.625 -6.03125,-12.078125 -6.03125,-4.4375 -16.578125,-4.4375 -4.390625,0 -9.15625,0.859375 Q 10.6875,0.296875 5.421875,2 v 9.28125 q 4.984375,-2.59375 9.8125,-3.890625 4.828125,-1.28125 9.578125,-1.28125 6.34375,0 9.75,2.171875 3.421875,2.171875 3.421875,6.125 0,3.65625 -2.46875,5.609375 -2.453125,1.953125 -10.8125,3.765625 l -3.125,0.734375 q -8.34375,1.75 -12.0625,5.390625 -3.703125,3.640625 -3.703125,9.984375 0,7.71875 5.46875,11.90625 Q 16.75,56 26.8125,56 q 4.96875,0 9.359375,-0.734375 4.40625,-0.71875 8.109375,-2.1875 z"
           id="DejaVuSans-115" />
        <path
           d="m 56.203125,29.59375 v -4.390625 h -41.3125 q 0.59375,-9.28125 5.59375,-14.140625 5,-4.859375 13.9375,-4.859375 5.171875,0 10.03125,1.265625 4.859375,1.265625 9.65625,3.8125 v -8.5 q -4.84375,-2.046875 -9.921875,-3.125 -5.078125,-1.078125 -10.296875,-1.078125 -13.09375,0 -20.734375,7.609375 -7.640625,7.625 -7.640625,20.625 0,13.421875 7.25,21.296875 Q 20.015625,56 32.328125,56 q 11.03125,0 17.453125,-7.109375 6.421875,-7.09375 6.421875,-19.296875 z m -8.984375,2.640625 q -0.09375,7.359375 -4.125,11.75 -4.03125,4.40625 -10.671875,4.40625 -7.515625,0 -12.03125,-4.25 -4.515625,-4.25 -5.203125,-11.96875 z"
           id="DejaVuSans-101" />
        <path
           d="m 12.40625,8.296875 h 16.109375 v 55.625 L 10.984375,60.40625 v 8.984375 l 17.4375,3.515625 H 38.28125 V 8.296875 H 54.390625 V 0 H 12.40625 Z"
           id="DejaVuSans-49" />
      </defs>
      <g
         transform="matrix(0.1,0,0,-0.1,303.80951,76.403259)"
         id="g44">
        <use
           xlink:href="#DejaVuSans-68"
           id="use28"
           x="0"
           y="0"
           width="100%"
           height="100%" />
        <use
           x="77.001953"
           xlink:href="#DejaVuSans-97"
           id="use30"
           y="0"
           width="100%"
           height="100%" />
        <use
           x="138.28125"
           xlink:href="#DejaVuSans-116"
           id="use32"
           y="0"
           width="100%"
           height="100%" />
        <use
           x="177.49023"
           xlink:href="#DejaVuSans-97"
           id="use34"
           y="0"
           width="100%"
           height="100%" />
        <use
           x="238.76953"
           xlink:href="#DejaVuSans-115"
           id="use36"
           y="0"
           width="100%"
           height="100%" />
        <use
           x="290.86914"
           xlink:href="#DejaVuSans-101"
           id="use38"
           y="0"
           width="100%"
           height="100%" />
        <use
           x="352.39258"
           xlink:href="#DejaVuSans-116"
           id="use40"
           y="0"
           width="100%"
           height="100%" />
        <use
           x="391.60156"
           xlink:href="#DejaVuSans-49"
           id="use42"
           y="0"
           width="100%"
           height="100%" />
      </g>
    </g>
    <g
       id="text_2">
      <!-- Dataset2 -->
      <defs
         id="defs48">
        <path
           d="M 19.1875,8.296875 H 53.609375 V 0 H 7.328125 v 8.296875 q 5.609375,5.8125 15.296875,15.59375 9.703125,9.796875 12.1875,12.640625 4.734375,5.3125 6.609375,9 1.890625,3.6875 1.890625,7.25 0,5.8125 -4.078125,9.46875 -4.078125,3.671875 -10.625,3.671875 -4.640625,0 -9.796875,-1.609375 -5.140625,-1.609375 -11,-4.890625 v 9.96875 Q 13.765625,71.78125 18.9375,73 q 5.1875,1.21875 9.484375,1.21875 11.328125,0 18.0625,-5.671875 6.734375,-5.65625 6.734375,-15.125 0,-4.5 -1.6875,-8.53125 Q 49.859375,40.875 45.40625,35.40625 44.1875,33.984375 37.640625,27.21875 31.109375,20.453125 19.1875,8.296875 Z"
           id="DejaVuSans-50" />
      </defs>
      <g
         transform="matrix(0.1,0,0,-0.1,135.52836,56.35478)"
         id="g66">
        <use
           xlink:href="#DejaVuSans-68"
           id="use50"
           x="0"
           y="0"
           width="100%"
           height="100%" />
        <use
           x="77.001953"
           xlink:href="#DejaVuSans-97"
           id="use52"
           y="0"
           width="100%"
           height="100%" />
        <use
           x="138.28125"
           xlink:href="#DejaVuSans-116"
           id="use54"
           y="0"
           width="100%"
           height="100%" />
        <use
           x="177.49023"
           xlink:href="#DejaVuSans-97"
           id="use56"
           y="0"
           width="100%"
           height="100%" />
        <use
           x="238.76953"
           xlink:href="#DejaVuSans-115"
           id="use58"
           y="0"
           width="100%"
           height="100%" />
        <use
           x="290.86914"
           xlink:href="#DejaVuSans-101"
           id="use60"
           y="0"
           width="100%"
           height="100%" />
        <use
           x="352.39258"
           xlink:href="#DejaVuSans-116"
           id="use62"
           y="0"
           width="100%"
           height="100%" />
        <use
           x="391.60156"
           xlink:href="#DejaVuSans-50"
           id="use64"
           y="0"
           width="100%"
           height="100%" />
      </g>
    </g>
    <g
       id="text_3">
      <!-- Dataset3 -->
      <defs
         id="defs70">
        <path
           d="M 40.578125,39.3125 Q 47.65625,37.796875 51.625,33 q 3.984375,-4.78125 3.984375,-11.8125 0,-10.78125 -7.421875,-16.703125 -7.421875,-5.90625 -21.09375,-5.90625 -4.578125,0 -9.4375,0.90625 -4.859375,0.90625 -10.03125,2.71875 v 9.515625 q 4.09375,-2.390625 8.96875,-3.609375 4.890625,-1.21875 10.21875,-1.21875 9.265625,0 14.125,3.65625 4.859375,3.65625 4.859375,10.640625 0,6.453125 -4.515625,10.078125 -4.515625,3.640625 -12.5625,3.640625 h -8.5 v 8.109375 h 8.890625 q 7.265625,0 11.125,2.90625 3.859375,2.90625 3.859375,8.375 0,5.609375 -3.984375,8.609375 -3.96875,3.015625 -11.390625,3.015625 -4.0625,0 -8.703125,-0.890625 Q 15.375,64.15625 9.8125,62.3125 v 8.78125 q 5.625,1.5625 10.53125,2.34375 4.90625,0.78125 9.25,0.78125 11.234375,0 17.765625,-5.109375 6.546875,-5.09375 6.546875,-13.78125 0,-6.0625 -3.46875,-10.234375 -3.46875,-4.171875 -9.859375,-5.78125 z"
           id="DejaVuSans-51" />
      </defs>
      <g
         transform="matrix(0.1,0,0,-0.1,167.3528,235.5976)"
         id="g88">
        <use
           xlink:href="#DejaVuSans-68"
           id="use72"
           x="0"
           y="0"
           width="100%"
           height="100%" />
        <use
           x="77.001953"
           xlink:href="#DejaVuSans-97"
           id="use74"
           y="0"
           width="100%"
           height="100%" />
        <use
           x="138.28125"
           xlink:href="#DejaVuSans-116"
           id="use76"
           y="0"
           width="100%"
           height="100%" />
        <use
           x="177.49023"
           xlink:href="#DejaVuSans-97"
           id="use78"
           y="0"
           width="100%"
           height="100%" />
        <use
           x="238.76953"
           xlink:href="#DejaVuSans-115"
           id="use80"
           y="0"
           width="100%"
           height="100%" />
        <use
           x="290.86914"
           xlink:href="#DejaVuSans-101"
           id="use82"
           y="0"
           width="100%"
           height="100%" />
        <use
           x="352.39258"
           xlink:href="#DejaVuSans-116"
           id="use84"
           y="0"
           width="100%"
           height="100%" />
        <use
           x="391.60156"
           xlink:href="#DejaVuSans-51"
           id="use86"
           y="0"
           width="100%"
           height="100%" />
      </g>
    </g>
    <g
       id="text_4">
      <!-- Dataset distribution -->
      <defs
         id="defs99">
        <path
           id="DejaVuSans-32"
           d="" />
        <path
           d="m 45.40625,46.390625 v 29.59375 h 8.984375 V 0 H 45.40625 v 8.203125 q -2.828125,-4.875 -7.15625,-7.25 -4.3125,-2.375 -10.375,-2.375 -9.90625,0 -16.140625,7.90625 -6.21875,7.921875 -6.21875,20.8125 0,12.890625 6.21875,20.796875 Q 17.96875,56 27.875,56 q 6.0625,0 10.375,-2.375 4.328125,-2.359375 7.15625,-7.234375 z M 14.796875,27.296875 q 0,-9.90625 4.078125,-15.546875 4.078125,-5.640625 11.203125,-5.640625 7.125,0 11.21875,5.640625 4.109375,5.640625 4.109375,15.546875 0,9.90625 -4.109375,15.546875 -4.09375,5.640625 -11.21875,5.640625 -7.125,0 -11.203125,-5.640625 -4.078125,-5.640625 -4.078125,-15.546875 z"
           id="DejaVuSans-100" />
        <path
           d="M 9.421875,54.6875 H 18.40625 V 0 H 9.421875 Z m 0,21.296875 H 18.40625 V 64.59375 H 9.421875 Z"
           id="DejaVuSans-105" />
        <path
           d="m 41.109375,46.296875 q -1.515625,0.875 -3.296875,1.28125 Q 36.03125,48 33.890625,48 26.265625,48 22.1875,43.046875 18.109375,38.09375 18.109375,28.8125 V 0 h -9.03125 v 54.6875 h 9.03125 v -8.5 q 2.84375,4.984375 7.375,7.390625 Q 30.03125,56 36.53125,56 q 0.921875,0 2.046875,-0.125 1.125,-0.109375 2.484375,-0.359375 z"
           id="DejaVuSans-114" />
        <path
           d="m 48.6875,27.296875 q 0,9.90625 -4.078125,15.546875 -4.078125,5.640625 -11.203125,5.640625 -7.140625,0 -11.21875,-5.640625 -4.078125,-5.640625 -4.078125,-15.546875 0,-9.90625 4.078125,-15.546875 4.078125,-5.640625 11.21875,-5.640625 7.125,0 11.203125,5.640625 4.078125,5.640625 4.078125,15.546875 z m -30.578125,19.09375 q 2.84375,4.875 7.15625,7.234375 Q 29.59375,56 35.59375,56 q 9.96875,0 16.1875,-7.90625 6.234375,-7.90625 6.234375,-20.796875 0,-12.890625 -6.234375,-20.8125 -6.21875,-7.90625 -16.1875,-7.90625 -6,0 -10.328125,2.375 -4.3125,2.375 -7.15625,7.25 V 0 h -9.03125 v 75.984375 h 9.03125 z"
           id="DejaVuSans-98" />
        <path
           d="M 8.5,21.578125 V 54.6875 h 8.984375 V 21.921875 q 0,-7.765625 3.015625,-11.65625 3.03125,-3.875 9.09375,-3.875 7.265625,0 11.484375,4.640625 4.234375,4.640625 4.234375,12.65625 v 31 h 8.984375 V 0 H 45.3125 V 8.40625 Q 42.046875,3.421875 37.71875,1 33.40625,-1.421875 27.6875,-1.421875 18.265625,-1.421875 13.375,4.4375 8.5,10.296875 8.5,21.578125 Z M 31.109375,56 Z"
           id="DejaVuSans-117" />
        <path
           d="m 30.609375,48.390625 q -7.21875,0 -11.421875,-5.640625 -4.203125,-5.640625 -4.203125,-15.453125 0,-9.8125 4.171875,-15.453125 4.1875,-5.640625 11.453125,-5.640625 7.1875,0 11.375,5.65625 4.203125,5.671875 4.203125,15.4375 0,9.71875 -4.203125,15.40625 -4.1875,5.6875 -11.375,5.6875 z m 0,7.609375 q 11.71875,0 18.40625,-7.625 6.703125,-7.609375 6.703125,-21.078125 0,-13.421875 -6.703125,-21.078125 -6.6875,-7.640625 -18.40625,-7.640625 -11.765625,0 -18.4375,7.640625 -6.65625,7.65625 -6.65625,21.078125 0,13.46875 6.65625,21.078125 Q 18.84375,56 30.609375,56 Z"
           id="DejaVuSans-111" />
        <path
           d="M 54.890625,33.015625 V 0 H 45.90625 v 32.71875 q 0,7.765625 -3.03125,11.609375 -3.03125,3.859375 -9.078125,3.859375 -7.28125,0 -11.484375,-4.640625 -4.203125,-4.625 -4.203125,-12.640625 V 0 h -9.03125 v 54.6875 h 9.03125 v -8.5 q 3.234375,4.9375 7.59375,7.375 4.375,2.4375 10.09375,2.4375 9.421875,0 14.25,-5.828125 4.84375,-5.828125 4.84375,-17.15625 z"
           id="DejaVuSans-110" />
      </defs>
      <g
         transform="matrix(0.12,0,0,-0.12,170.80594,20.88)"
         id="g141">
        <use
           xlink:href="#DejaVuSans-68"
           id="use101"
           x="0"
           y="0"
           width="100%"
           height="100%" />
        <use
           x="77.001953"
           xlink:href="#DejaVuSans-97"
           id="use103"
           y="0"
           width="100%"
           height="100%" />
        <use
           x="138.28125"
           xlink:href="#DejaVuSans-116"
           id="use105"
           y="0"
           width="100%"
           height="100%" />
        <use
           x="177.49023"
           xlink:href="#DejaVuSans-97"
           id="use107"
           y="0"
           width="100%"
           height="100%" />
        <use
           x="238.76953"
           xlink:href="#DejaVuSans-115"
           id="use109"
           y="0"
           width="100%"
           height="100%" />
        <use
           x="290.86914"
           xlink:href="#DejaVuSans-101"
           id="use111"
           y="0"
           width="100%"
           height="100%" />
        <use
           x="352.39258"
           xlink:href="#DejaVuSans-116"
           id="use113"
           y="0"
           width="100%"
           height="100%" />
        <use
           x="391.60156"
           xlink:href="#DejaVuSans-32"
           id="use115"
           y="0"
           width="100%"
           height="100%" />
        <use
           x="423.38867"
           xlink:href="#DejaVuSans-100"
           id="use117"
           y="0"
           width="100%"
           height="100%" />
        <use
           x="486.86523"
           xlink:href="#DejaVuSans-105"
           id="use119"
           y="0"
           width="100%"
           height="100%" />
        <use
           x="514.64844"
           xlink:href="#DejaVuSans-115"
           id="use121"
           y="0"
           width="100%"
           height="100%" />
        <use
           x="566.74805"
           xlink:href="#DejaVuSans-116"
           id="use123"
           y="0"
           width="100%"
           height="100%" />
        <use
           x="605.95703"
           xlink:href="#DejaVuSans-114"
           id="use125"
           y="0"
           width="100%"
           height="100%" />
        <use
           x="647.07031"
           xlink:href="#DejaVuSans-105"
           id="use127"
           y="0"
           width="100%"
           height="100%" />
        <use
           x="674.85352"
           xlink:href="#DejaVuSans-98"
           id="use129"
           y="0"
           width="100%"
           height="100%" />
        <use
           x="738.33008"
           xlink:href="#DejaVuSans-117"
           id="use131"
           y="0"
           width="100%"
           height="100%" />
        <use
           x="801.70898"
           xlink:href="#DejaVuSans-116"
           id="use133"
           y="0"
           width="100%"
           height="100%" />
        <use
           x="840.91797"
           xlink:href="#DejaVuSans-105"
           id="use135"
           y="0"
           width="100%"
           height="100%" />
        <use
           x="868.70117"
           xlink:href="#DejaVuSans-111"
           id="use137"
           y="0"
           width="100%"
           height="100%" />
        <use
           x="929.88281"
           xlink:href="#DejaVuSans-110"
           id="use139"
           y="0"
           width="100%"
           height="100%" />
      </g>
    </g>
  </g>
</svg>
