<?xml version="1.0" encoding="UTF-8" standalone="no"?>
<svg
   xmlns:dc="http://purl.org/dc/elements/1.1/"
   xmlns:cc="http://creativecommons.org/ns#"
   xmlns:rdf="http://www.w3.org/1999/02/22-rdf-syntax-ns#"
   xmlns:svg="http://www.w3.org/2000/svg"
   xmlns="http://www.w3.org/2000/svg"
   xmlns:sodipodi="http://sodipodi.sourceforge.net/DTD/sodipodi-0.dtd"
   xmlns:inkscape="http://www.inkscape.org/namespaces/inkscape"
   sodipodi:docname="inputhiddenoutput.svg"
   inkscape:version="1.0 (1.0+r73+1)"
   id="svg8"
   version="1.1"
   viewBox="0 0 210 297"
   height="297mm"
   width="210mm">
  <defs
     id="defs2">
    <inkscape:path-effect
       only_selected="false"
       apply_with_weight="true"
       apply_no_weight="true"
       helper_size="0"
       steps="2"
       weight="33.333333"
       lpeversion="1"
       is_visible="true"
       id="path-effect4376"
       effect="bspline" />
    <marker
       inkscape:isstock="true"
       style="overflow:visible;"
       id="marker3970"
       refX="0.0"
       refY="0.0"
       orient="auto"
       inkscape:stockid="Arrow1Lend">
      <path
         transform="scale(0.8) rotate(180) translate(12.5,0)"
         style="fill-rule:evenodd;stroke:#000000;stroke-width:1pt;stroke-opacity:1;fill:#000000;fill-opacity:1"
         d="M 0.0,0.0 L 5.0,-5.0 L -12.5,0.0 L 5.0,5.0 L 0.0,0.0 z "
         id="path3968" />
    </marker>
    <marker
       inkscape:isstock="true"
       style="overflow:visible;"
       id="marker3960"
       refX="0.0"
       refY="0.0"
       orient="auto"
       inkscape:stockid="Arrow1Lend">
      <path
         transform="scale(0.8) rotate(180) translate(12.5,0)"
         style="fill-rule:evenodd;stroke:#000000;stroke-width:1pt;stroke-opacity:1;fill:#000000;fill-opacity:1"
         d="M 0.0,0.0 L 5.0,-5.0 L -12.5,0.0 L 5.0,5.0 L 0.0,0.0 z "
         id="path3958" />
    </marker>
    <inkscape:path-effect
       only_selected="false"
       apply_with_weight="true"
       apply_no_weight="true"
       helper_size="0"
       steps="2"
       weight="33.333333"
       lpeversion="1"
       is_visible="true"
       id="path-effect3956"
       effect="bspline" />
    <inkscape:path-effect
       only_selected="false"
       apply_with_weight="true"
       apply_no_weight="true"
       helper_size="0"
       steps="2"
       weight="33.333333"
       lpeversion="1"
       is_visible="true"
       id="path-effect3952"
       effect="bspline" />
    <marker
       inkscape:collect="always"
       inkscape:stockid="Arrow1Lend"
       orient="auto"
       refY="0.0"
       refX="0.0"
       id="marker3696"
       style="overflow:visible;"
       inkscape:isstock="true">
      <path
         id="path3694"
         d="M 0.0,0.0 L 5.0,-5.0 L -12.5,0.0 L 5.0,5.0 L 0.0,0.0 z "
         style="fill-rule:evenodd;stroke:#000000;stroke-width:1pt;stroke-opacity:1;fill:#000000;fill-opacity:1"
         transform="scale(0.8) rotate(180) translate(12.5,0)" />
    </marker>
    <marker
       inkscape:collect="always"
       inkscape:isstock="true"
       style="overflow:visible;"
       id="marker3440"
       refX="0.0"
       refY="0.0"
       orient="auto"
       inkscape:stockid="Arrow1Lend">
      <path
         transform="scale(0.8) rotate(180) translate(12.5,0)"
         style="fill-rule:evenodd;stroke:#000000;stroke-width:1pt;stroke-opacity:1;fill:#000000;fill-opacity:1"
         d="M 0.0,0.0 L 5.0,-5.0 L -12.5,0.0 L 5.0,5.0 L 0.0,0.0 z "
         id="path3438" />
    </marker>
    <marker
       inkscape:isstock="true"
       style="overflow:visible;"
       id="marker3430"
       refX="0.0"
       refY="0.0"
       orient="auto"
       inkscape:stockid="Arrow1Lend">
      <path
         transform="scale(0.8) rotate(180) translate(12.5,0)"
         style="fill-rule:evenodd;stroke:#000000;stroke-width:1pt;stroke-opacity:1;fill:#000000;fill-opacity:1"
         d="M 0.0,0.0 L 5.0,-5.0 L -12.5,0.0 L 5.0,5.0 L 0.0,0.0 z "
         id="path3428" />
    </marker>
    <marker
       inkscape:collect="always"
       inkscape:stockid="Arrow1Lend"
       orient="auto"
       refY="0.0"
       refX="0.0"
       id="marker3144"
       style="overflow:visible;"
       inkscape:isstock="true">
      <path
         id="path3142"
         d="M 0.0,0.0 L 5.0,-5.0 L -12.5,0.0 L 5.0,5.0 L 0.0,0.0 z "
         style="fill-rule:evenodd;stroke:#000000;stroke-width:1pt;stroke-opacity:1;fill:#000000;fill-opacity:1"
         transform="scale(0.8) rotate(180) translate(12.5,0)" />
    </marker>
    <marker
       inkscape:stockid="Arrow1Lend"
       orient="auto"
       refY="0.0"
       refX="0.0"
       id="marker3134"
       style="overflow:visible;"
       inkscape:isstock="true">
      <path
         id="path3132"
         d="M 0.0,0.0 L 5.0,-5.0 L -12.5,0.0 L 5.0,5.0 L 0.0,0.0 z "
         style="fill-rule:evenodd;stroke:#000000;stroke-width:1pt;stroke-opacity:1;fill:#000000;fill-opacity:1"
         transform="scale(0.8) rotate(180) translate(12.5,0)" />
    </marker>
    <marker
       inkscape:stockid="Arrow1Lend"
       orient="auto"
       refY="0.0"
       refX="0.0"
       id="marker3124"
       style="overflow:visible;"
       inkscape:isstock="true">
      <path
         id="path3122"
         d="M 0.0,0.0 L 5.0,-5.0 L -12.5,0.0 L 5.0,5.0 L 0.0,0.0 z "
         style="fill-rule:evenodd;stroke:#000000;stroke-width:1pt;stroke-opacity:1;fill:#000000;fill-opacity:1"
         transform="scale(0.8) rotate(180) translate(12.5,0)" />
    </marker>
    <marker
       inkscape:stockid="Arrow1Lend"
       orient="auto"
       refY="0.0"
       refX="0.0"
       id="marker3114"
       style="overflow:visible;"
       inkscape:isstock="true">
      <path
         id="path3112"
         d="M 0.0,0.0 L 5.0,-5.0 L -12.5,0.0 L 5.0,5.0 L 0.0,0.0 z "
         style="fill-rule:evenodd;stroke:#000000;stroke-width:1pt;stroke-opacity:1;fill:#000000;fill-opacity:1"
         transform="scale(0.8) rotate(180) translate(12.5,0)" />
    </marker>
    <marker
       inkscape:stockid="Arrow1Lend"
       orient="auto"
       refY="0.0"
       refX="0.0"
       id="marker3104"
       style="overflow:visible;"
       inkscape:isstock="true">
      <path
         id="path3102"
         d="M 0.0,0.0 L 5.0,-5.0 L -12.5,0.0 L 5.0,5.0 L 0.0,0.0 z "
         style="fill-rule:evenodd;stroke:#000000;stroke-width:1pt;stroke-opacity:1;fill:#000000;fill-opacity:1"
         transform="scale(0.8) rotate(180) translate(12.5,0)" />
    </marker>
    <marker
       inkscape:stockid="Arrow1Lend"
       orient="auto"
       refY="0.0"
       refX="0.0"
       id="marker3094"
       style="overflow:visible;"
       inkscape:isstock="true">
      <path
         id="path3092"
         d="M 0.0,0.0 L 5.0,-5.0 L -12.5,0.0 L 5.0,5.0 L 0.0,0.0 z "
         style="fill-rule:evenodd;stroke:#000000;stroke-width:1pt;stroke-opacity:1;fill:#000000;fill-opacity:1"
         transform="scale(0.8) rotate(180) translate(12.5,0)" />
    </marker>
    <marker
       inkscape:stockid="Arrow1Lend"
       orient="auto"
       refY="0.0"
       refX="0.0"
       id="marker3084"
       style="overflow:visible;"
       inkscape:isstock="true">
      <path
         id="path3082"
         d="M 0.0,0.0 L 5.0,-5.0 L -12.5,0.0 L 5.0,5.0 L 0.0,0.0 z "
         style="fill-rule:evenodd;stroke:#000000;stroke-width:1pt;stroke-opacity:1;fill:#000000;fill-opacity:1"
         transform="scale(0.8) rotate(180) translate(12.5,0)" />
    </marker>
    <inkscape:path-effect
       only_selected="false"
       apply_with_weight="true"
       apply_no_weight="true"
       helper_size="0"
       steps="2"
       weight="33.333333"
       lpeversion="1"
       is_visible="true"
       id="path-effect3080"
       effect="bspline" />
    <inkscape:path-effect
       only_selected="false"
       apply_with_weight="true"
       apply_no_weight="true"
       helper_size="0"
       steps="2"
       weight="33.333333"
       lpeversion="1"
       is_visible="true"
       id="path-effect3076"
       effect="bspline" />
    <inkscape:path-effect
       only_selected="false"
       apply_with_weight="true"
       apply_no_weight="true"
       helper_size="0"
       steps="2"
       weight="33.333333"
       lpeversion="1"
       is_visible="true"
       id="path-effect3072"
       effect="bspline" />
    <inkscape:path-effect
       only_selected="false"
       apply_with_weight="true"
       apply_no_weight="true"
       helper_size="0"
       steps="2"
       weight="33.333333"
       lpeversion="1"
       is_visible="true"
       id="path-effect3068"
       effect="bspline" />
    <inkscape:path-effect
       only_selected="false"
       apply_with_weight="true"
       apply_no_weight="true"
       helper_size="0"
       steps="2"
       weight="33.333333"
       lpeversion="1"
       is_visible="true"
       id="path-effect3064"
       effect="bspline" />
    <inkscape:path-effect
       only_selected="false"
       apply_with_weight="true"
       apply_no_weight="true"
       helper_size="0"
       steps="2"
       weight="33.333333"
       lpeversion="1"
       is_visible="true"
       id="path-effect3060"
       effect="bspline" />
    <inkscape:path-effect
       only_selected="false"
       apply_with_weight="true"
       apply_no_weight="true"
       helper_size="0"
       steps="2"
       weight="33.333333"
       lpeversion="1"
       is_visible="true"
       id="path-effect3056"
       effect="bspline" />
    <inkscape:path-effect
       only_selected="false"
       apply_with_weight="true"
       apply_no_weight="true"
       helper_size="0"
       steps="2"
       weight="33.333333"
       lpeversion="1"
       is_visible="true"
       id="path-effect3052"
       effect="bspline" />
    <inkscape:path-effect
       only_selected="false"
       apply_with_weight="true"
       apply_no_weight="true"
       helper_size="0"
       steps="2"
       weight="33.333333"
       lpeversion="1"
       is_visible="true"
       id="path-effect3048"
       effect="bspline" />
    <inkscape:path-effect
       only_selected="false"
       apply_with_weight="true"
       apply_no_weight="true"
       helper_size="0"
       steps="2"
       weight="33.333333"
       lpeversion="1"
       is_visible="true"
       id="path-effect3044"
       effect="bspline" />
    <marker
       inkscape:collect="always"
       inkscape:isstock="true"
       style="overflow:visible;"
       id="marker2836"
       refX="0.0"
       refY="0.0"
       orient="auto"
       inkscape:stockid="Arrow1Lend">
      <path
         transform="scale(0.8) rotate(180) translate(12.5,0)"
         style="fill-rule:evenodd;stroke:#000000;stroke-width:1pt;stroke-opacity:1;fill:#000000;fill-opacity:1"
         d="M 0.0,0.0 L 5.0,-5.0 L -12.5,0.0 L 5.0,5.0 L 0.0,0.0 z "
         id="path2834" />
    </marker>
    <marker
       inkscape:isstock="true"
       style="overflow:visible;"
       id="marker2826"
       refX="0.0"
       refY="0.0"
       orient="auto"
       inkscape:stockid="Arrow1Lend">
      <path
         transform="scale(0.8) rotate(180) translate(12.5,0)"
         style="fill-rule:evenodd;stroke:#000000;stroke-width:1pt;stroke-opacity:1;fill:#000000;fill-opacity:1"
         d="M 0.0,0.0 L 5.0,-5.0 L -12.5,0.0 L 5.0,5.0 L 0.0,0.0 z "
         id="path2824" />
    </marker>
    <marker
       inkscape:isstock="true"
       style="overflow:visible;"
       id="marker2816"
       refX="0.0"
       refY="0.0"
       orient="auto"
       inkscape:stockid="Arrow1Lend">
      <path
         transform="scale(0.8) rotate(180) translate(12.5,0)"
         style="fill-rule:evenodd;stroke:#000000;stroke-width:1pt;stroke-opacity:1;fill:#000000;fill-opacity:1"
         d="M 0.0,0.0 L 5.0,-5.0 L -12.5,0.0 L 5.0,5.0 L 0.0,0.0 z "
         id="path2814" />
    </marker>
    <inkscape:path-effect
       effect="bspline"
       id="path-effect2812"
       is_visible="true"
       lpeversion="1"
       weight="33.333333"
       steps="2"
       helper_size="0"
       apply_no_weight="true"
       apply_with_weight="true"
       only_selected="false" />
    <inkscape:path-effect
       effect="bspline"
       id="path-effect2803"
       is_visible="true"
       lpeversion="1"
       weight="33.333333"
       steps="2"
       helper_size="0"
       apply_no_weight="true"
       apply_with_weight="true"
       only_selected="false" />
    <inkscape:path-effect
       only_selected="false"
       apply_with_weight="true"
       apply_no_weight="true"
       helper_size="0"
       steps="2"
       weight="33.333333"
       lpeversion="1"
       is_visible="true"
       id="path-effect2784"
       effect="bspline" />
    <marker
       inkscape:collect="always"
       inkscape:stockid="Arrow1Lend"
       orient="auto"
       refY="0.0"
       refX="0.0"
       id="marker2348"
       style="overflow:visible;"
       inkscape:isstock="true">
      <path
         id="path2346"
         d="M 0.0,0.0 L 5.0,-5.0 L -12.5,0.0 L 5.0,5.0 L 0.0,0.0 z "
         style="fill-rule:evenodd;stroke:#000000;stroke-width:1pt;stroke-opacity:1;fill:#000000;fill-opacity:1"
         transform="scale(0.8) rotate(180) translate(12.5,0)" />
    </marker>
    <marker
       inkscape:stockid="Arrow1Lend"
       orient="auto"
       refY="0.0"
       refX="0.0"
       id="marker2338"
       style="overflow:visible;"
       inkscape:isstock="true">
      <path
         id="path2336"
         d="M 0.0,0.0 L 5.0,-5.0 L -12.5,0.0 L 5.0,5.0 L 0.0,0.0 z "
         style="fill-rule:evenodd;stroke:#000000;stroke-width:1pt;stroke-opacity:1;fill:#000000;fill-opacity:1"
         transform="scale(0.8) rotate(180) translate(12.5,0)" />
    </marker>
    <marker
       inkscape:stockid="Arrow1Lend"
       orient="auto"
       refY="0.0"
       refX="0.0"
       id="marker2328"
       style="overflow:visible;"
       inkscape:isstock="true">
      <path
         id="path2326"
         d="M 0.0,0.0 L 5.0,-5.0 L -12.5,0.0 L 5.0,5.0 L 0.0,0.0 z "
         style="fill-rule:evenodd;stroke:#000000;stroke-width:1pt;stroke-opacity:1;fill:#000000;fill-opacity:1"
         transform="scale(0.8) rotate(180) translate(12.5,0)" />
    </marker>
    <marker
       inkscape:stockid="Arrow1Lend"
       orient="auto"
       refY="0.0"
       refX="0.0"
       id="marker2318"
       style="overflow:visible;"
       inkscape:isstock="true">
      <path
         id="path2316"
         d="M 0.0,0.0 L 5.0,-5.0 L -12.5,0.0 L 5.0,5.0 L 0.0,0.0 z "
         style="fill-rule:evenodd;stroke:#000000;stroke-width:1pt;stroke-opacity:1;fill:#000000;fill-opacity:1"
         transform="scale(0.8) rotate(180) translate(12.5,0)" />
    </marker>
    <marker
       inkscape:stockid="Arrow1Lend"
       orient="auto"
       refY="0.0"
       refX="0.0"
       id="marker2308"
       style="overflow:visible;"
       inkscape:isstock="true">
      <path
         id="path2306"
         d="M 0.0,0.0 L 5.0,-5.0 L -12.5,0.0 L 5.0,5.0 L 0.0,0.0 z "
         style="fill-rule:evenodd;stroke:#000000;stroke-width:1pt;stroke-opacity:1;fill:#000000;fill-opacity:1"
         transform="scale(0.8) rotate(180) translate(12.5,0)" />
    </marker>
    <marker
       inkscape:stockid="Arrow1Lend"
       orient="auto"
       refY="0.0"
       refX="0.0"
       id="marker2298"
       style="overflow:visible;"
       inkscape:isstock="true">
      <path
         id="path2296"
         d="M 0.0,0.0 L 5.0,-5.0 L -12.5,0.0 L 5.0,5.0 L 0.0,0.0 z "
         style="fill-rule:evenodd;stroke:#000000;stroke-width:1pt;stroke-opacity:1;fill:#000000;fill-opacity:1"
         transform="scale(0.8) rotate(180) translate(12.5,0)" />
    </marker>
    <marker
       inkscape:stockid="Arrow1Lend"
       orient="auto"
       refY="0.0"
       refX="0.0"
       id="marker2288"
       style="overflow:visible;"
       inkscape:isstock="true">
      <path
         id="path2286"
         d="M 0.0,0.0 L 5.0,-5.0 L -12.5,0.0 L 5.0,5.0 L 0.0,0.0 z "
         style="fill-rule:evenodd;stroke:#000000;stroke-width:1pt;stroke-opacity:1;fill:#000000;fill-opacity:1"
         transform="scale(0.8) rotate(180) translate(12.5,0)" />
    </marker>
    <marker
       inkscape:stockid="Arrow1Lend"
       orient="auto"
       refY="0.0"
       refX="0.0"
       id="marker2278"
       style="overflow:visible;"
       inkscape:isstock="true">
      <path
         id="path2276"
         d="M 0.0,0.0 L 5.0,-5.0 L -12.5,0.0 L 5.0,5.0 L 0.0,0.0 z "
         style="fill-rule:evenodd;stroke:#000000;stroke-width:1pt;stroke-opacity:1;fill:#000000;fill-opacity:1"
         transform="scale(0.8) rotate(180) translate(12.5,0)" />
    </marker>
    <marker
       inkscape:stockid="Arrow1Lend"
       orient="auto"
       refY="0.0"
       refX="0.0"
       id="marker2268"
       style="overflow:visible;"
       inkscape:isstock="true">
      <path
         id="path2266"
         d="M 0.0,0.0 L 5.0,-5.0 L -12.5,0.0 L 5.0,5.0 L 0.0,0.0 z "
         style="fill-rule:evenodd;stroke:#000000;stroke-width:1pt;stroke-opacity:1;fill:#000000;fill-opacity:1"
         transform="scale(0.8) rotate(180) translate(12.5,0)" />
    </marker>
    <marker
       inkscape:stockid="Arrow1Lend"
       orient="auto"
       refY="0.0"
       refX="0.0"
       id="marker2258"
       style="overflow:visible;"
       inkscape:isstock="true">
      <path
         id="path2256"
         d="M 0.0,0.0 L 5.0,-5.0 L -12.5,0.0 L 5.0,5.0 L 0.0,0.0 z "
         style="fill-rule:evenodd;stroke:#000000;stroke-width:1pt;stroke-opacity:1;fill:#000000;fill-opacity:1"
         transform="scale(0.8) rotate(180) translate(12.5,0)" />
    </marker>
    <marker
       inkscape:stockid="Arrow1Lend"
       orient="auto"
       refY="0.0"
       refX="0.0"
       id="marker2248"
       style="overflow:visible;"
       inkscape:isstock="true">
      <path
         id="path2246"
         d="M 0.0,0.0 L 5.0,-5.0 L -12.5,0.0 L 5.0,5.0 L 0.0,0.0 z "
         style="fill-rule:evenodd;stroke:#000000;stroke-width:1pt;stroke-opacity:1;fill:#000000;fill-opacity:1"
         transform="scale(0.8) rotate(180) translate(12.5,0)" />
    </marker>
    <marker
       inkscape:stockid="Arrow1Lend"
       orient="auto"
       refY="0.0"
       refX="0.0"
       id="marker2238"
       style="overflow:visible;"
       inkscape:isstock="true">
      <path
         id="path2236"
         d="M 0.0,0.0 L 5.0,-5.0 L -12.5,0.0 L 5.0,5.0 L 0.0,0.0 z "
         style="fill-rule:evenodd;stroke:#000000;stroke-width:1pt;stroke-opacity:1;fill:#000000;fill-opacity:1"
         transform="scale(0.8) rotate(180) translate(12.5,0)" />
    </marker>
    <marker
       inkscape:stockid="Arrow1Lend"
       orient="auto"
       refY="0.0"
       refX="0.0"
       id="marker2228"
       style="overflow:visible;"
       inkscape:isstock="true">
      <path
         id="path2226"
         d="M 0.0,0.0 L 5.0,-5.0 L -12.5,0.0 L 5.0,5.0 L 0.0,0.0 z "
         style="fill-rule:evenodd;stroke:#000000;stroke-width:1pt;stroke-opacity:1;fill:#000000;fill-opacity:1"
         transform="scale(0.8) rotate(180) translate(12.5,0)" />
    </marker>
    <marker
       inkscape:stockid="Arrow1Lend"
       orient="auto"
       refY="0.0"
       refX="0.0"
       id="marker2218"
       style="overflow:visible;"
       inkscape:isstock="true">
      <path
         id="path2216"
         d="M 0.0,0.0 L 5.0,-5.0 L -12.5,0.0 L 5.0,5.0 L 0.0,0.0 z "
         style="fill-rule:evenodd;stroke:#000000;stroke-width:1pt;stroke-opacity:1;fill:#000000;fill-opacity:1"
         transform="scale(0.8) rotate(180) translate(12.5,0)" />
    </marker>
    <marker
       inkscape:stockid="Arrow1Send"
       orient="auto"
       refY="0.0"
       refX="0.0"
       id="marker1384"
       style="overflow:visible;"
       inkscape:isstock="true">
      <path
         id="path1382"
         d="M 0.0,0.0 L 5.0,-5.0 L -12.5,0.0 L 5.0,5.0 L 0.0,0.0 z "
         style="fill-rule:evenodd;stroke:#000000;stroke-width:1pt;stroke-opacity:1;fill:#000000;fill-opacity:1"
         transform="scale(0.2) rotate(180) translate(6,0)" />
    </marker>
    <marker
       inkscape:stockid="Arrow1Send"
       orient="auto"
       refY="0.0"
       refX="0.0"
       id="marker1374"
       style="overflow:visible;"
       inkscape:isstock="true">
      <path
         id="path1372"
         d="M 0.0,0.0 L 5.0,-5.0 L -12.5,0.0 L 5.0,5.0 L 0.0,0.0 z "
         style="fill-rule:evenodd;stroke:#000000;stroke-width:1pt;stroke-opacity:1;fill:#000000;fill-opacity:1"
         transform="scale(0.2) rotate(180) translate(6,0)" />
    </marker>
    <marker
       inkscape:stockid="Arrow1Send"
       orient="auto"
       refY="0.0"
       refX="0.0"
       id="marker1364"
       style="overflow:visible;"
       inkscape:isstock="true">
      <path
         id="path1362"
         d="M 0.0,0.0 L 5.0,-5.0 L -12.5,0.0 L 5.0,5.0 L 0.0,0.0 z "
         style="fill-rule:evenodd;stroke:#000000;stroke-width:1pt;stroke-opacity:1;fill:#000000;fill-opacity:1"
         transform="scale(0.2) rotate(180) translate(6,0)" />
    </marker>
    <marker
       inkscape:stockid="Arrow1Send"
       orient="auto"
       refY="0.0"
       refX="0.0"
       id="marker1354"
       style="overflow:visible;"
       inkscape:isstock="true">
      <path
         id="path1352"
         d="M 0.0,0.0 L 5.0,-5.0 L -12.5,0.0 L 5.0,5.0 L 0.0,0.0 z "
         style="fill-rule:evenodd;stroke:#000000;stroke-width:1pt;stroke-opacity:1;fill:#000000;fill-opacity:1"
         transform="scale(0.2) rotate(180) translate(6,0)" />
    </marker>
    <marker
       inkscape:stockid="Arrow1Send"
       orient="auto"
       refY="0.0"
       refX="0.0"
       id="marker1344"
       style="overflow:visible;"
       inkscape:isstock="true">
      <path
         id="path1342"
         d="M 0.0,0.0 L 5.0,-5.0 L -12.5,0.0 L 5.0,5.0 L 0.0,0.0 z "
         style="fill-rule:evenodd;stroke:#000000;stroke-width:1pt;stroke-opacity:1;fill:#000000;fill-opacity:1"
         transform="scale(0.2) rotate(180) translate(6,0)" />
    </marker>
    <marker
       inkscape:stockid="Arrow1Send"
       orient="auto"
       refY="0.0"
       refX="0.0"
       id="marker1334"
       style="overflow:visible;"
       inkscape:isstock="true">
      <path
         id="path1332"
         d="M 0.0,0.0 L 5.0,-5.0 L -12.5,0.0 L 5.0,5.0 L 0.0,0.0 z "
         style="fill-rule:evenodd;stroke:#000000;stroke-width:1pt;stroke-opacity:1;fill:#000000;fill-opacity:1"
         transform="scale(0.2) rotate(180) translate(6,0)" />
    </marker>
    <marker
       inkscape:stockid="Arrow1Send"
       orient="auto"
       refY="0.0"
       refX="0.0"
       id="marker1324"
       style="overflow:visible;"
       inkscape:isstock="true">
      <path
         id="path1322"
         d="M 0.0,0.0 L 5.0,-5.0 L -12.5,0.0 L 5.0,5.0 L 0.0,0.0 z "
         style="fill-rule:evenodd;stroke:#000000;stroke-width:1pt;stroke-opacity:1;fill:#000000;fill-opacity:1"
         transform="scale(0.2) rotate(180) translate(6,0)" />
    </marker>
    <marker
       inkscape:stockid="Arrow1Send"
       orient="auto"
       refY="0.0"
       refX="0.0"
       id="marker1314"
       style="overflow:visible;"
       inkscape:isstock="true">
      <path
         id="path1312"
         d="M 0.0,0.0 L 5.0,-5.0 L -12.5,0.0 L 5.0,5.0 L 0.0,0.0 z "
         style="fill-rule:evenodd;stroke:#000000;stroke-width:1pt;stroke-opacity:1;fill:#000000;fill-opacity:1"
         transform="scale(0.2) rotate(180) translate(6,0)" />
    </marker>
    <marker
       inkscape:stockid="Arrow1Send"
       orient="auto"
       refY="0.0"
       refX="0.0"
       id="marker1304"
       style="overflow:visible;"
       inkscape:isstock="true">
      <path
         id="path1302"
         d="M 0.0,0.0 L 5.0,-5.0 L -12.5,0.0 L 5.0,5.0 L 0.0,0.0 z "
         style="fill-rule:evenodd;stroke:#000000;stroke-width:1pt;stroke-opacity:1;fill:#000000;fill-opacity:1"
         transform="scale(0.2) rotate(180) translate(6,0)" />
    </marker>
    <marker
       inkscape:stockid="Arrow1Send"
       orient="auto"
       refY="0.0"
       refX="0.0"
       id="marker1294"
       style="overflow:visible;"
       inkscape:isstock="true">
      <path
         id="path1292"
         d="M 0.0,0.0 L 5.0,-5.0 L -12.5,0.0 L 5.0,5.0 L 0.0,0.0 z "
         style="fill-rule:evenodd;stroke:#000000;stroke-width:1pt;stroke-opacity:1;fill:#000000;fill-opacity:1"
         transform="scale(0.2) rotate(180) translate(6,0)" />
    </marker>
    <marker
       inkscape:stockid="Arrow1Send"
       orient="auto"
       refY="0.0"
       refX="0.0"
       id="marker1284"
       style="overflow:visible;"
       inkscape:isstock="true">
      <path
         id="path1282"
         d="M 0.0,0.0 L 5.0,-5.0 L -12.5,0.0 L 5.0,5.0 L 0.0,0.0 z "
         style="fill-rule:evenodd;stroke:#000000;stroke-width:1pt;stroke-opacity:1;fill:#000000;fill-opacity:1"
         transform="scale(0.2) rotate(180) translate(6,0)" />
    </marker>
    <marker
       inkscape:stockid="Arrow1Send"
       orient="auto"
       refY="0.0"
       refX="0.0"
       id="marker1274"
       style="overflow:visible;"
       inkscape:isstock="true">
      <path
         id="path1272"
         d="M 0.0,0.0 L 5.0,-5.0 L -12.5,0.0 L 5.0,5.0 L 0.0,0.0 z "
         style="fill-rule:evenodd;stroke:#000000;stroke-width:1pt;stroke-opacity:1;fill:#000000;fill-opacity:1"
         transform="scale(0.2) rotate(180) translate(6,0)" />
    </marker>
    <marker
       inkscape:stockid="Arrow1Send"
       orient="auto"
       refY="0.0"
       refX="0.0"
       id="marker1264"
       style="overflow:visible;"
       inkscape:isstock="true">
      <path
         id="path1262"
         d="M 0.0,0.0 L 5.0,-5.0 L -12.5,0.0 L 5.0,5.0 L 0.0,0.0 z "
         style="fill-rule:evenodd;stroke:#000000;stroke-width:1pt;stroke-opacity:1;fill:#000000;fill-opacity:1"
         transform="scale(0.2) rotate(180) translate(6,0)" />
    </marker>
    <inkscape:path-effect
       only_selected="false"
       apply_with_weight="true"
       apply_no_weight="true"
       helper_size="0"
       steps="2"
       weight="33.333333"
       lpeversion="1"
       is_visible="true"
       id="path-effect167"
       effect="bspline" />
    <inkscape:path-effect
       only_selected="false"
       apply_with_weight="true"
       apply_no_weight="true"
       helper_size="0"
       steps="2"
       weight="33.333333"
       lpeversion="1"
       is_visible="true"
       id="path-effect163"
       effect="bspline" />
    <inkscape:path-effect
       only_selected="false"
       apply_with_weight="true"
       apply_no_weight="true"
       helper_size="0"
       steps="2"
       weight="33.333333"
       lpeversion="1"
       is_visible="true"
       id="path-effect159"
       effect="bspline" />
    <inkscape:path-effect
       only_selected="false"
       apply_with_weight="true"
       apply_no_weight="true"
       helper_size="0"
       steps="2"
       weight="33.333333"
       lpeversion="1"
       is_visible="true"
       id="path-effect155"
       effect="bspline" />
    <inkscape:path-effect
       only_selected="false"
       apply_with_weight="true"
       apply_no_weight="true"
       helper_size="0"
       steps="2"
       weight="33.333333"
       lpeversion="1"
       is_visible="true"
       id="path-effect151"
       effect="bspline" />
    <inkscape:path-effect
       only_selected="false"
       apply_with_weight="true"
       apply_no_weight="true"
       helper_size="0"
       steps="2"
       weight="33.333333"
       lpeversion="1"
       is_visible="true"
       id="path-effect147"
       effect="bspline" />
    <inkscape:path-effect
       only_selected="false"
       apply_with_weight="true"
       apply_no_weight="true"
       helper_size="0"
       steps="2"
       weight="33.333333"
       lpeversion="1"
       is_visible="true"
       id="path-effect143"
       effect="bspline" />
    <inkscape:path-effect
       only_selected="false"
       apply_with_weight="true"
       apply_no_weight="true"
       helper_size="0"
       steps="2"
       weight="33.333333"
       lpeversion="1"
       is_visible="true"
       id="path-effect139"
       effect="bspline" />
    <inkscape:path-effect
       only_selected="false"
       apply_with_weight="true"
       apply_no_weight="true"
       helper_size="0"
       steps="2"
       weight="33.333333"
       lpeversion="1"
       is_visible="true"
       id="path-effect135"
       effect="bspline" />
    <inkscape:path-effect
       only_selected="false"
       apply_with_weight="true"
       apply_no_weight="true"
       helper_size="0"
       steps="2"
       weight="33.333333"
       lpeversion="1"
       is_visible="true"
       id="path-effect131"
       effect="bspline" />
    <inkscape:path-effect
       only_selected="false"
       apply_with_weight="true"
       apply_no_weight="true"
       helper_size="0"
       steps="2"
       weight="33.333333"
       lpeversion="1"
       is_visible="true"
       id="path-effect127"
       effect="bspline" />
    <inkscape:path-effect
       only_selected="false"
       apply_with_weight="true"
       apply_no_weight="true"
       helper_size="0"
       steps="2"
       weight="33.333333"
       lpeversion="1"
       is_visible="true"
       id="path-effect123"
       effect="bspline" />
    <inkscape:path-effect
       only_selected="false"
       apply_with_weight="true"
       apply_no_weight="true"
       helper_size="0"
       steps="2"
       weight="33.333333"
       lpeversion="1"
       is_visible="true"
       id="path-effect119"
       effect="bspline" />
    <inkscape:path-effect
       only_selected="false"
       apply_with_weight="true"
       apply_no_weight="true"
       helper_size="0"
       steps="2"
       weight="33.333333"
       lpeversion="1"
       is_visible="true"
       id="path-effect115"
       effect="bspline" />
  </defs>
  <sodipodi:namedview
     inkscape:snap-global="false"
     inkscape:window-maximized="1"
     inkscape:window-y="0"
     inkscape:window-x="0"
     inkscape:window-height="850"
     inkscape:window-width="1600"
     showgrid="true"
     inkscape:document-rotation="0"
     inkscape:current-layer="layer1"
     inkscape:document-units="mm"
     inkscape:cy="222.7987"
     inkscape:cx="345.56364"
     inkscape:zoom="1.4"
     inkscape:pageshadow="2"
     inkscape:pageopacity="0.0"
     borderopacity="1.0"
     bordercolor="#666666"
     pagecolor="#ffffff"
     id="base">
    <inkscape:grid
       id="grid4938"
       type="xygrid" />
  </sodipodi:namedview>
  <metadata
     id="metadata5">
    <rdf:RDF>
      <cc:Work
         rdf:about="">
        <dc:format>image/svg+xml</dc:format>
        <dc:type
           rdf:resource="http://purl.org/dc/dcmitype/StillImage" />
        <dc:title></dc:title>
      </cc:Work>
    </rdf:RDF>
  </metadata>
  <g
     id="layer1"
     inkscape:groupmode="layer"
     inkscape:label="Layer 1">
    <path
       d="m 43.981103,30.673323 a 7.1539292,6.2630568 0 0 1 -6.371331,6.866562 7.1539292,6.2630568 0 0 1 -7.858601,-5.561361 7.1539292,6.2630568 0 0 1 6.333476,-6.893351 7.1539292,6.2630568 0 0 1 7.88911,5.528155"
       sodipodi:arc-type="arc"
       sodipodi:open="true"
       sodipodi:end="6.1715715"
       sodipodi:start="6.1812057"
       sodipodi:ry="6.2630568"
       sodipodi:rx="7.1539292"
       sodipodi:cy="31.310921"
       sodipodi:cx="36.864342"
       sodipodi:type="arc"
       id="path10"
       style="opacity:0.866302;fill:#2d7f83;fill-rule:evenodd;stroke:#000000;stroke-width:0.176389;fill-opacity:1" />
    <path
       style="opacity:0.866302;fill:#2d7f83;fill-rule:evenodd;stroke:#000000;stroke-width:0.176389;fill-opacity:1"
       id="path10-3"
       sodipodi:type="arc"
       sodipodi:cx="37.284073"
       sodipodi:cy="54.324684"
       sodipodi:rx="7.1539292"
       sodipodi:ry="6.2630568"
       sodipodi:start="6.1812057"
       sodipodi:end="6.1715715"
       sodipodi:open="true"
       sodipodi:arc-type="arc"
       d="m 44.400834,53.687087 a 7.1539292,6.2630568 0 0 1 -6.371331,6.866561 7.1539292,6.2630568 0 0 1 -7.858601,-5.561361 7.1539292,6.2630568 0 0 1 6.333476,-6.893351 7.1539292,6.2630568 0 0 1 7.88911,5.528155" />
    <path
       style="opacity:0.866302;fill:#2d7f83;fill-rule:evenodd;stroke:#000000;stroke-width:0.176389;fill-opacity:1"
       id="path10-6"
       sodipodi:type="arc"
       sodipodi:cx="37.637089"
       sodipodi:cy="77.338455"
       sodipodi:rx="7.1539292"
       sodipodi:ry="6.2630568"
       sodipodi:start="6.1812057"
       sodipodi:end="6.1715715"
       sodipodi:open="true"
       sodipodi:arc-type="arc"
       d="m 44.75385,76.700858 a 7.1539292,6.2630568 0 0 1 -6.371331,6.866561 7.1539292,6.2630568 0 0 1 -7.858601,-5.561361 7.1539292,6.2630568 0 0 1 6.333476,-6.893351 7.1539292,6.2630568 0 0 1 7.88911,5.528155" />
    <path
       style="opacity:0.866302;fill:#fabe50;fill-opacity:1;fill-rule:evenodd;stroke:#000000;stroke-width:0.176389"
       id="path10-7"
       sodipodi:type="arc"
       sodipodi:cx="79.14418"
       sodipodi:cy="25.390621"
       sodipodi:rx="7.1539292"
       sodipodi:ry="6.2630568"
       sodipodi:start="6.1812057"
       sodipodi:end="6.1715715"
       sodipodi:open="true"
       sodipodi:arc-type="arc"
       d="m 86.260942,24.753024 a 7.1539292,6.2630568 0 0 1 -6.371332,6.866561 7.1539292,6.2630568 0 0 1 -7.8586,-5.561361 7.1539292,6.2630568 0 0 1 6.333476,-6.893351 7.1539292,6.2630568 0 0 1 7.889109,5.528155" />
    <path
       style="opacity:0.866302;fill:#fabe50;fill-rule:evenodd;stroke:#000000;stroke-width:0.176389;fill-opacity:1"
       id="path10-5"
       sodipodi:type="arc"
       sodipodi:cx="79.14418"
       sodipodi:cy="43.431316"
       sodipodi:rx="7.1539292"
       sodipodi:ry="6.2630568"
       sodipodi:start="6.1812057"
       sodipodi:end="6.1715715"
       sodipodi:open="true"
       sodipodi:arc-type="arc"
       d="m 86.260942,42.793719 a 7.1539292,6.2630568 0 0 1 -6.371332,6.866561 7.1539292,6.2630568 0 0 1 -7.8586,-5.561361 7.1539292,6.2630568 0 0 1 6.333476,-6.893351 7.1539292,6.2630568 0 0 1 7.889109,5.528155" />
    <path
       style="opacity:0.866302;fill:#fabe50;fill-rule:evenodd;stroke:#000000;stroke-width:0.176389;fill-opacity:1"
       id="path10-35"
       sodipodi:type="arc"
       sodipodi:cx="79.14418"
       sodipodi:cy="61.472012"
       sodipodi:rx="7.1539292"
       sodipodi:ry="6.2630568"
       sodipodi:start="6.1812057"
       sodipodi:end="6.1715715"
       sodipodi:open="true"
       sodipodi:arc-type="arc"
       d="m 86.260942,60.834414 a 7.1539292,6.2630568 0 0 1 -6.371332,6.866561 7.1539292,6.2630568 0 0 1 -7.8586,-5.56136 7.1539292,6.2630568 0 0 1 6.333476,-6.893351 7.1539292,6.2630568 0 0 1 7.889109,5.528154" />
    <path
       style="opacity:0.866302;fill:#fabe50;fill-rule:evenodd;stroke:#000000;stroke-width:0.176389;fill-opacity:1"
       id="path10-62"
       sodipodi:type="arc"
       sodipodi:cx="79.14418"
       sodipodi:cy="79.512703"
       sodipodi:rx="7.1539292"
       sodipodi:ry="6.2630568"
       sodipodi:start="6.1812057"
       sodipodi:end="6.1715715"
       sodipodi:open="true"
       sodipodi:arc-type="arc"
       d="m 86.260942,78.875105 a 7.1539292,6.2630568 0 0 1 -6.371332,6.866562 7.1539292,6.2630568 0 0 1 -7.8586,-5.561361 7.1539292,6.2630568 0 0 1 6.333476,-6.893351 7.1539292,6.2630568 0 0 1 7.889109,5.528155" />
    <path
       style="opacity:0.866302;fill:#fabe50;fill-rule:evenodd;stroke:#000000;stroke-width:0.176389;fill-opacity:1"
       id="path10-9"
       sodipodi:type="arc"
       sodipodi:cx="79.14418"
       sodipodi:cy="97.553398"
       sodipodi:rx="7.1539292"
       sodipodi:ry="6.2630568"
       sodipodi:start="6.1812057"
       sodipodi:end="6.1715715"
       sodipodi:open="true"
       sodipodi:arc-type="arc"
       d="m 86.260942,96.915801 a 7.1539292,6.2630568 0 0 1 -6.371332,6.866559 7.1539292,6.2630568 0 0 1 -7.8586,-5.561359 7.1539292,6.2630568 0 0 1 6.333476,-6.893351 7.1539292,6.2630568 0 0 1 7.889109,5.528155" />
    <path
       d="m 129.56092,42.616206 a 7.1539292,6.2630568 0 0 1 -6.37133,6.866561 7.1539292,6.2630568 0 0 1 -7.8586,-5.561361 7.1539292,6.2630568 0 0 1 6.33348,-6.893351 7.1539292,6.2630568 0 0 1 7.88911,5.528155"
       sodipodi:arc-type="arc"
       sodipodi:open="true"
       sodipodi:end="6.1715715"
       sodipodi:start="6.1812057"
       sodipodi:ry="6.2630568"
       sodipodi:rx="7.1539292"
       sodipodi:cy="43.253803"
       sodipodi:cx="122.44416"
       sodipodi:type="arc"
       id="path10-7-1"
       style="opacity:0.866302;fill:#b65256;fill-rule:evenodd;stroke:#000000;stroke-width:0.176389;fill-opacity:1" />
    <path
       d="m 129.56092,74.49185 a 7.1539292,6.2630568 0 0 1 -6.37133,6.866562 7.1539292,6.2630568 0 0 1 -7.8586,-5.561361 7.1539292,6.2630568 0 0 1 6.33348,-6.893351 7.1539292,6.2630568 0 0 1 7.88911,5.528155"
       sodipodi:arc-type="arc"
       sodipodi:open="true"
       sodipodi:end="6.1715715"
       sodipodi:start="6.1812057"
       sodipodi:ry="6.2630568"
       sodipodi:rx="7.1539292"
       sodipodi:cy="75.129448"
       sodipodi:cx="122.44416"
       sodipodi:type="arc"
       id="path10-7-2"
       style="opacity:0.866302;fill:#b65256;fill-rule:evenodd;stroke:#000000;stroke-width:0.176389;fill-opacity:1" />
    <path
       inkscape:original-d="m 43.973757,30.613328 c 9.372447,-2.511004 18.744629,-5.022274 28.116546,-7.533807"
       inkscape:path-effect="#path-effect115"
       id="path113"
       d="M 43.973757,30.613328 C 53.34612,28.102011 62.718302,25.590741 72.090303,23.079521"
       style="fill:none;stroke:#000000;stroke-width:0.265;stroke-linecap:butt;stroke-linejoin:miter;stroke-opacity:1;stroke-miterlimit:4;stroke-dasharray:none;marker-end:url(#marker2348)" />
    <path
       inkscape:original-d="M 44.387147,53.633088 C 53.4719,44.548977 62.629053,35.391938 71.74961,26.270967"
       inkscape:path-effect="#path-effect119"
       id="path117"
       d="M 44.387147,53.633088 C 53.471636,44.548713 62.628789,35.391674 71.74961,26.270967"
       style="fill:none;stroke:#000000;stroke-width:0.265059;stroke-linecap:butt;stroke-linejoin:miter;stroke-miterlimit:4;stroke-dasharray:none;stroke-opacity:1;marker-end:url(#marker2338)" />
    <path
       inkscape:original-d="M 43.542966,73.65596 C 53.549957,59.092919 63.556683,44.529616 73.563151,29.966052"
       inkscape:path-effect="#path-effect123"
       id="path121"
       d="M 43.542966,73.65596 C 53.549656,59.092712 63.556384,44.529411 73.563151,29.966052"
       style="fill:none;stroke:#000000;stroke-width:0.26244;stroke-linecap:butt;stroke-linejoin:miter;stroke-miterlimit:4;stroke-dasharray:none;stroke-opacity:1;marker-end:url(#marker2328)" />
    <path
       inkscape:original-d="m 44.01049,31.093371 c 9.324741,3.285838 18.649222,6.571415 27.973442,9.856729"
       inkscape:path-effect="#path-effect127"
       id="path125"
       d="m 44.01049,31.093371 c 9.324794,3.285687 18.649275,6.571263 27.973442,9.856729"
       style="fill:none;stroke:#000000;stroke-width:0.26227;stroke-linecap:butt;stroke-linejoin:miter;stroke-miterlimit:4;stroke-dasharray:none;stroke-opacity:1;marker-end:url(#marker2318)" />
    <path
       inkscape:original-d="m 43.629969,33.580505 c 9.583948,8.269981 19.167635,16.539704 28.75106,24.809168"
       inkscape:path-effect="#path-effect131"
       id="path129"
       d="m 43.629969,33.580505 c 9.583964,8.269962 19.167651,16.539685 28.75106,24.809168"
       style="fill:none;stroke:#000000;stroke-width:0.260142;stroke-linecap:butt;stroke-linejoin:miter;stroke-miterlimit:4;stroke-dasharray:none;stroke-opacity:1;marker-end:url(#marker2288)" />
    <path
       inkscape:original-d="M 42.531365,35.182967 C 52.50605,48.880399 62.480466,62.577572 72.45462,76.274491"
       inkscape:path-effect="#path-effect135"
       id="path133"
       d="m 42.531365,35.182967 c 9.974633,13.69747 19.94905,27.394642 29.923255,41.091524"
       style="fill:none;stroke:#000000;stroke-width:0.261488;stroke-linecap:butt;stroke-linejoin:miter;stroke-miterlimit:4;stroke-dasharray:none;stroke-opacity:1;marker-end:url(#marker2258)" />
    <path
       inkscape:original-d="M 41.114668,36.386322 C 51.829099,55.35377 62.543264,74.320966 73.257162,93.287898"
       inkscape:path-effect="#path-effect139"
       id="path137"
       d="m 41.114668,36.386322 c 10.714339,18.9675 21.428505,37.934695 32.142494,56.901576"
       style="fill:none;stroke:#000000;stroke-width:0.262656;stroke-linecap:butt;stroke-linejoin:miter;stroke-miterlimit:4;stroke-dasharray:none;stroke-opacity:1;marker-end:url(#marker2238)" />
    <path
       inkscape:original-d="m 43.113952,50.54333 c 9.452156,-2.356587 18.904049,-4.713428 28.35567,-7.070523"
       inkscape:path-effect="#path-effect143"
       id="path141"
       d="m 43.113952,50.54333 c 9.452081,-2.356889 18.903974,-4.71373 28.35567,-7.070523"
       style="fill:none;stroke:#000000;stroke-width:0.261857;stroke-linecap:butt;stroke-linejoin:miter;stroke-miterlimit:4;stroke-dasharray:none;stroke-opacity:1;marker-end:url(#marker2308)" />
    <path
       inkscape:original-d="m 44.470921,55.019615 c 9.044947,1.821484 18.089629,3.642698 27.134044,5.463639"
       inkscape:path-effect="#path-effect147"
       id="path145"
       d="m 44.470921,55.019615 c 9.044989,1.821275 18.089671,3.642488 27.134044,5.463639"
       style="fill:none;stroke:#000000;stroke-width:0.269752px;stroke-linecap:butt;stroke-linejoin:miter;stroke-opacity:1;marker-end:url(#marker2278)" />
    <path
       inkscape:original-d="m 43.350749,57.613963 c 9.417745,7.543983 18.835228,15.087702 28.252449,22.63116"
       inkscape:path-effect="#path-effect151"
       id="path149"
       d="m 43.350749,57.613963 c 9.417771,7.543951 18.835253,15.08767 28.252449,22.63116"
       style="fill:none;stroke:#000000;stroke-width:0.262259;stroke-linecap:butt;stroke-linejoin:miter;stroke-miterlimit:4;stroke-dasharray:none;stroke-opacity:1;marker-end:url(#marker2248)" />
    <path
       inkscape:original-d="m 41.773819,59.276672 c 9.959158,12.392923 19.918053,24.785582 29.876679,37.17798"
       inkscape:path-effect="#path-effect155"
       id="path153"
       d="m 41.773819,59.276672 c 9.959125,12.392949 19.918019,24.78561 29.876679,37.17798"
       style="fill:none;stroke:#000000;stroke-width:0.265347;stroke-linecap:butt;stroke-linejoin:miter;stroke-miterlimit:4;stroke-dasharray:none;stroke-opacity:1;marker-end:url(#marker2228)" />
    <path
       inkscape:original-d="M 44.575563,75.711173 C 53.841676,66.028688 63.107524,56.345941 72.373108,46.662927"
       inkscape:path-effect="#path-effect159"
       id="path157"
       d="M 44.575563,75.711173 C 53.841406,66.02843 63.107253,56.345682 72.373108,46.662927"
       style="fill:none;stroke:#000000;stroke-width:0.265;stroke-linecap:butt;stroke-linejoin:miter;stroke-opacity:1;stroke-miterlimit:4;stroke-dasharray:none;marker-end:url(#marker2298)" />
    <path
       inkscape:original-d="m 44.761986,77.372229 c 8.91977,-4.879565 17.839281,-9.759384 26.758533,-14.63946"
       inkscape:path-effect="#path-effect163"
       id="path161"
       d="m 44.761986,77.372229 c 8.919603,-4.87987 17.839114,-9.75969 26.758533,-14.63946"
       style="fill:none;stroke:#000000;stroke-width:0.258096;stroke-linecap:butt;stroke-linejoin:miter;stroke-miterlimit:4;stroke-dasharray:none;stroke-opacity:1;marker-end:url(#marker2268)" />
    <path
       inkscape:original-d="m 37.361371,90.405657 c 11.808834,3.487807 23.617332,6.975447 35.425493,10.462923"
       inkscape:path-effect="#path-effect167"
       id="path165"
       d="m 37.361371,90.405657 c 11.808852,3.487746 23.61735,6.975387 35.425493,10.462923"
       style="fill:none;stroke:#000000;stroke-width:0.265;stroke-linecap:butt;stroke-linejoin:miter;stroke-miterlimit:4;stroke-dasharray:none;stroke-opacity:1;marker-end:url(#marker2218)" />
    <path
       inkscape:original-d="m 12.60736,31.895325 c 5.535506,2.64e-4 11.07075,2.64e-4 16.605731,0"
       inkscape:path-effect="#path-effect2784"
       id="path2782"
       d="m 12.60736,31.895325 c 5.535506,0 11.07075,0 16.605731,0"
       style="fill:none;stroke:#000000;stroke-width:0.263106px;stroke-linecap:butt;stroke-linejoin:miter;stroke-opacity:1;marker-end:url(#marker2836)" />
    <path
       style="fill:none;stroke:#000000;stroke-width:0.261406px;stroke-linecap:butt;stroke-linejoin:miter;stroke-opacity:1;marker-end:url(#marker2826)"
       d="m 13.288471,54.176164 c 5.464201,0 10.928144,0 16.391827,0"
       id="path2782-7"
       inkscape:path-effect="#path-effect2803"
       inkscape:original-d="m 13.288471,54.176164 c 5.464201,2.64e-4 10.928144,2.64e-4 16.391827,0" />
    <path
       style="fill:none;stroke:#000000;stroke-width:0.25938px;stroke-linecap:butt;stroke-linejoin:miter;stroke-opacity:1;marker-end:url(#marker2816)"
       d="m 13.925765,77.467054 c 5.379829,0 10.759403,0 16.138721,0"
       id="path2782-0"
       inkscape:path-effect="#path-effect2812"
       inkscape:original-d="m 13.925765,77.467054 c 5.379829,2.64e-4 10.759403,2.64e-4 16.138721,0" />
    <path
       inkscape:original-d="m 86.331206,24.819874 c 10.394905,4.433389 20.789534,8.866571 31.183904,13.299541"
       inkscape:path-effect="#path-effect3044"
       id="path3042"
       d="m 86.331206,24.819874 c 10.394939,4.43331 20.789574,8.866489 31.183904,13.299541"
       style="fill:none;stroke:#000000;stroke-width:0.237671px;stroke-linecap:butt;stroke-linejoin:miter;stroke-opacity:1;marker-end:url(#marker3144)" />
    <path
       inkscape:original-d="M 84.338183,29.952865 C 95.646196,43.106665 106.95395,56.2602 118.26143,69.413471"
       inkscape:path-effect="#path-effect3048"
       id="path3046"
       d="M 84.338183,29.952865 C 95.646175,43.106683 106.95393,56.260221 118.26143,69.413471"
       style="fill:none;stroke:#000000;stroke-width:0.264583px;stroke-linecap:butt;stroke-linejoin:miter;stroke-opacity:1;marker-end:url(#marker3430)" />
    <path
       inkscape:original-d="m 85.507699,41.28435 c 9.90608,-0.154594 19.811891,-0.309452 29.717441,-0.464574"
       inkscape:path-effect="#path-effect3052"
       id="path3050"
       d="m 85.507699,41.28435 c 9.906076,-0.154862 19.811891,-0.30972 29.717441,-0.464574"
       style="fill:none;stroke:#000000;stroke-width:0.264583px;stroke-linecap:butt;stroke-linejoin:miter;stroke-opacity:1;marker-end:url(#marker3134)" />
    <path
       inkscape:original-d="M 84.344265,47.479631 C 94.874606,55.480623 105.40468,63.48135 115.93448,71.481813"
       inkscape:path-effect="#path-effect3056"
       id="path3054"
       d="m 84.344265,47.479631 c 10.53037,8.000954 21.060445,16.001682 31.590215,24.002182"
       style="fill:none;stroke:#000000;stroke-width:0.266541px;stroke-linecap:butt;stroke-linejoin:miter;stroke-opacity:1;marker-end:url(#marker3440)" />
    <path
       inkscape:original-d="m 85.66918,59.285052 c 9.741738,-4.835358 19.48321,-9.670981 29.22442,-14.506869"
       inkscape:path-effect="#path-effect3060"
       id="path3058"
       d="m 85.66918,59.285052 c 9.74158,-4.835676 19.48305,-9.671298 29.22442,-14.506869"
       style="fill:none;stroke:#000000;stroke-width:0.264583px;stroke-linecap:butt;stroke-linejoin:miter;stroke-opacity:1;marker-end:url(#marker3114)" />
    <path
       inkscape:original-d="m 84.722124,65.266438 c 10.059334,3.074863 20.118396,6.149463 30.177196,9.223799"
       inkscape:path-effect="#path-effect3064"
       id="path3062"
       d="m 84.722124,65.266438 c 10.059385,3.074697 20.118446,6.149296 30.177196,9.223799"
       style="fill:none;stroke:#000000;stroke-width:0.264611px;stroke-linecap:butt;stroke-linejoin:miter;stroke-opacity:1;marker-end:url(#marker3696)" />
    <path
       inkscape:original-d="m 86.154288,80.175037 c 9.737479,-0.967039 19.474702,-1.934334 29.211662,-2.901886"
       inkscape:path-effect="#path-effect3068"
       id="path3066"
       d="m 86.154288,80.175037 c 9.737451,-0.967318 19.474672,-1.934614 29.211662,-2.901886"
       style="fill:none;stroke:#000000;stroke-width:0.258816px;stroke-linecap:butt;stroke-linejoin:miter;stroke-opacity:1;marker-end:url(#marker3094)" />
    <path
       inkscape:original-d="m 83.636209,74.452913 c 11.293103,-8.703737 22.585941,-17.407739 33.878511,-26.112"
       inkscape:path-effect="#path-effect3072"
       id="path3070"
       d="m 83.636209,74.452913 c 11.292877,-8.704031 22.585711,-17.408032 33.878511,-26.112"
       style="fill:none;stroke:#000000;stroke-width:0.262726px;stroke-linecap:butt;stroke-linejoin:miter;stroke-opacity:1;marker-end:url(#marker3124)" />
    <path
       inkscape:original-d="M 85.318267,94.454143 C 97.186948,79.565007 109.05537,64.67561 120.92351,49.785947"
       inkscape:path-effect="#path-effect3076"
       id="path3074"
       d="M 85.318267,94.454143 C 97.186657,79.564775 109.05507,64.675374 120.92351,49.785947"
       style="fill:none;stroke:#000000;stroke-width:0.26475px;stroke-linecap:butt;stroke-linejoin:miter;stroke-opacity:1;marker-end:url(#marker3104)" />
    <path
       inkscape:original-d="M 85.888141,99.739748 C 96.366605,93.226674 106.84481,86.713344 117.32276,80.199758"
       inkscape:path-effect="#path-effect3080"
       id="path3078"
       d="M 85.888141,99.739748 C 96.366418,93.226374 106.84462,86.713044 117.32276,80.199758"
       style="fill:none;stroke:#000000;stroke-width:0.255297px;stroke-linecap:butt;stroke-linejoin:miter;stroke-opacity:1;marker-end:url(#marker3084)" />
    <path
       inkscape:original-d="m 129.42341,43.508059 c 8.18664,-0.119912 16.37302,2.65e-4 24.55914,0"
       inkscape:path-effect="#path-effect3952"
       id="path3950"
       d="m 129.42341,43.508059 c 8.18664,0 16.37302,0 24.55914,0"
       style="fill:none;stroke:#000000;stroke-width:0.264583px;stroke-linecap:butt;stroke-linejoin:miter;stroke-opacity:1;marker-end:url(#marker3960)" />
    <path
       inkscape:original-d="m 129.50607,75.418243 c 8.48897,0.04911 16.97769,2.64e-4 25.46614,0"
       inkscape:path-effect="#path-effect3956"
       id="path3954"
       d="m 129.50607,75.418243 c 8.48897,0 16.97769,0 25.46614,0"
       style="fill:none;stroke:#000000;stroke-width:0.264583px;stroke-linecap:butt;stroke-linejoin:miter;stroke-opacity:1;marker-end:url(#marker3970)" />
    <path
       inkscape:original-d="m 37.444095,83.689113 c 2.65e-4,2.240847 2.65e-4,4.481428 0,6.721743"
       inkscape:path-effect="#path-effect4376"
       id="path4374"
       d="m 37.444095,83.689113 c 0,2.240847 0,4.481428 0,6.721743"
       style="fill:none;stroke:#000000;stroke-width:0.264583px;stroke-linecap:butt;stroke-linejoin:miter;stroke-opacity:1" />
    <g
       aria-label="I1"
       id="text4608"
       style="font-weight:bold;font-size:3.52777px;line-height:1.25;font-family:sans-serif;-inkscape-font-specification:'sans-serif Bold';stroke-width:0.264583"
       transform="matrix(1.5911382,0,0,1.5911382,-9.0995595,-19.244189)">
      <path
         d="m 15.863901,27.245232 h 0.347954 v 2.571758 h -0.347954 z"
         style="font-weight:normal;stroke-width:0.264583"
         id="path890" />
      <path
         d="m 16.842478,30.332203 h 0.369486 v -1.275286 l -0.401956,0.08062 v -0.206016 l 0.399717,-0.08061 h 0.22617 v 1.481302 h 0.369485 v 0.190341 h -0.962902 z"
         style="font-size:65%;baseline-shift:sub"
         id="path892" />
    </g>
    <g
       transform="matrix(0.66636229,0,0,0.66636229,6.1751046,16.78947)"
       aria-label="I2"
       id="text4608-9"
       style="font-weight:bold;font-size:8.52968px;line-height:1.25;font-family:sans-serif;-inkscape-font-specification:'sans-serif Bold';stroke-width:0.639727">
      <path
         d="m 14.949789,45.260559 h 0.841306 v 6.21817 h -0.841306 z"
         style="font-weight:normal;stroke-width:0.639727"
         id="path895" />
      <path
         d="m 17.692155,52.724446 h 1.908557 v 0.460219 h -2.5664 v -0.460219 q 0.311325,-0.322154 0.847345,-0.863588 0.538728,-0.544142 0.676794,-0.701158 0.262595,-0.295082 0.365468,-0.49812 0.10558,-0.205745 0.10558,-0.403369 0,-0.322153 -0.227403,-0.525191 -0.224695,-0.203038 -0.587456,-0.203038 -0.257182,0 -0.544142,0.08934 -0.284253,0.08934 -0.609114,0.270717 v -0.552263 q 0.330275,-0.132652 0.617235,-0.200331 0.286961,-0.06768 0.525192,-0.06768 0.628064,0 1.001654,0.314032 0.37359,0.314032 0.37359,0.839223 0,0.24906 -0.09475,0.473755 -0.09204,0.221989 -0.338397,0.525192 -0.06768,0.07851 -0.43044,0.454805 -0.362762,0.37359 -1.023312,1.047676 z"
         style="font-size:5.54429px;baseline-shift:sub;stroke-width:0.639727"
         id="path897" />
    </g>
    <g
       aria-label="I3"
       id="text4608-6"
       style="font-weight:bold;font-size:3.52777px;line-height:1.25;font-family:sans-serif;-inkscape-font-specification:'sans-serif Bold';stroke-width:0.264583"
       transform="matrix(1.6716691,0,0,1.6716691,-10.478663,-52.440592)">
      <path
         d="m 15.863901,73.159397 h 0.347954 v 2.571758 h -0.347954 z"
         style="font-weight:normal;stroke-width:0.264583"
         id="path881" />
      <path
         d="m 17.488518,75.535388 q 0.16235,0.03471 0.253042,0.144436 0.09181,0.109726 0.09181,0.270956 0,0.247443 -0.170188,0.382921 -0.170187,0.135478 -0.48369,0.135478 -0.105247,0 -0.217213,-0.02127 -0.110845,-0.02015 -0.229529,-0.06158 v -0.218332 q 0.09405,0.05486 0.206016,0.08285 0.111966,0.02799 0.234008,0.02799 0.212734,0 0.32358,-0.08397 0.111965,-0.08397 0.111965,-0.244084 0,-0.147795 -0.104127,-0.230649 -0.103009,-0.08397 -0.287751,-0.08397 h -0.19482 V 75.450295 H 17.2254 q 0.166828,0 0.255281,-0.06606 0.08845,-0.06718 0.08845,-0.19258 0,-0.128761 -0.09181,-0.197059 -0.09069,-0.06942 -0.260879,-0.06942 -0.09293,0 -0.199299,0.02015 -0.106367,0.02015 -0.234007,0.0627 v -0.201537 q 0.12876,-0.03583 0.240725,-0.05374 0.113085,-0.01791 0.212734,-0.01791 0.257521,0 0.407554,0.117564 0.150034,0.116444 0.150034,0.315742 0,0.138837 -0.0795,0.235127 -0.07949,0.09517 -0.22617,0.132119 z"
         style="font-size:65%;baseline-shift:sub"
         id="path883" />
    </g>
    <g
       aria-label="i1"
       transform="matrix(0.74157148,0,0,0.75519565,9.3959534,8.0031676)"
       id="text4608-2"
       style="font-weight:bold;font-size:7.76885px;line-height:1.25;font-family:sans-serif;-inkscape-font-specification:'sans-serif Bold';stroke-width:0.582664">
      <path
         d="m 35.594538,29.440696 h 0.697983 v 4.248589 h -0.697983 z m 0,-1.653916 h 0.697983 v 0.883859 h -0.697983 z"
         style="font-weight:normal;stroke-width:0.582664"
         id="path874" />
      <path
         d="m 37.643345,34.823887 h 0.81368 v -2.808431 l -0.885186,0.177531 v -0.453689 l 0.880255,-0.17753 h 0.498071 v 3.262119 h 0.81368 v 0.419168 h -2.1205 z"
         style="font-size:5.04975px;baseline-shift:sub;stroke-width:0.582664"
         id="path876" />
    </g>
    <g
       aria-label="i2"
       transform="matrix(2.4235554,0,0,2.3250294,-46.259429,-74.755007)"
       id="text4608-3"
       style="font-weight:bold;font-size:2.80314px;line-height:1.25;font-family:sans-serif;-inkscape-font-specification:'sans-serif Bold';stroke-width:0.210235">
      <path
         d="m 34.059108,54.839164 h 0.251844 v 1.532967 h -0.251844 z m 0,-0.596762 h 0.251844 v 0.318912 h -0.251844 z"
         style="font-weight:normal;stroke-width:0.210235"
         id="path860" />
      <path
         d="m 34.922018,56.781516 h 0.627216 v 0.151243 h -0.843406 v -0.151243 q 0.102312,-0.105871 0.278467,-0.283805 0.177044,-0.178823 0.222417,-0.230424 0.0863,-0.09697 0.120105,-0.163699 0.0347,-0.06761 0.0347,-0.13256 0,-0.105871 -0.07473,-0.172596 -0.07384,-0.06672 -0.193058,-0.06672 -0.08452,0 -0.178824,0.02936 -0.09342,0.02936 -0.200175,0.08897 V 55.66855 q 0.10854,-0.04359 0.202844,-0.06584 0.0943,-0.02224 0.172596,-0.02224 0.206403,0 0.329177,0.103202 0.122775,0.103201 0.122775,0.275797 0,0.08185 -0.03114,0.155692 -0.03025,0.07295 -0.111208,0.172596 -0.02224,0.0258 -0.141458,0.149464 -0.119215,0.122774 -0.336294,0.344302 z"
         style="font-size:65%;baseline-shift:sub"
         id="path862" />
    </g>
    <g
       aria-label="i3"
       transform="matrix(2.4434315,0,0,2.2727004,-46.876257,-105.0869)"
       id="text4608-5"
       style="font-weight:bold;font-size:2.9341px;line-height:1.25;font-family:sans-serif;-inkscape-font-specification:'sans-serif Bold';stroke-width:0.220058">
      <path
         d="m 34.220634,79.516088 h 0.263611 v 1.604586 h -0.263611 z m 0,-0.624642 h 0.263611 v 0.333811 h -0.263611 z"
         style="font-weight:normal;stroke-width:0.220058"
         id="path867" />
      <path
         d="m 35.531739,80.957852 q 0.135028,0.02887 0.210458,0.120129 0.07636,0.09126 0.07636,0.225358 0,0.205803 -0.141547,0.318482 -0.141547,0.112679 -0.402293,0.112679 -0.08754,0 -0.180659,-0.01769 -0.09219,-0.01676 -0.190902,-0.05122 v -0.181591 q 0.07822,0.04563 0.171346,0.06891 0.09312,0.02328 0.194628,0.02328 0.176934,0 0.269126,-0.06984 0.09312,-0.06984 0.09312,-0.203009 0,-0.122923 -0.0866,-0.191834 -0.08567,-0.06984 -0.239327,-0.06984 h -0.162034 v -0.154585 h 0.169484 q 0.138754,0 0.212321,-0.05494 0.07357,-0.05587 0.07357,-0.160172 0,-0.107092 -0.07636,-0.163897 -0.07543,-0.05774 -0.216977,-0.05774 -0.07729,0 -0.165759,0.01676 -0.08847,0.01676 -0.194628,0.05215 V 80.35162 q 0.107092,-0.0298 0.200215,-0.0447 0.09405,-0.0149 0.176934,-0.0149 0.214184,0 0.338969,0.09778 0.124785,0.09685 0.124785,0.262607 0,0.115473 -0.06612,0.195559 -0.06612,0.07916 -0.188109,0.109886 z"
         style="font-size:65%;baseline-shift:sub"
         id="path869" />
    </g>
    <g
       aria-label="h1"
       transform="matrix(0.80885584,0,0,0.93904642,10.268319,3.385675)"
       id="text4608-22"
       style="font-weight:bold;font-size:6.84307px;line-height:1.25;font-family:sans-serif;-inkscape-font-specification:'sans-serif Bold';stroke-width:0.513231">
      <path
         d="m 86.179261,24.114093 v 2.258748 h -0.614807 v -2.2387 q 0,-0.531273 -0.207163,-0.795239 -0.207164,-0.263966 -0.62149,-0.263966 -0.49786,0 -0.785216,0.317427 -0.287355,0.317428 -0.287355,0.865408 v 2.11507 h -0.618149 v -5.199129 h 0.618149 v 2.038219 q 0.220528,-0.337476 0.517908,-0.504543 0.300721,-0.167067 0.691658,-0.167067 0.644879,0 0.975672,0.400961 0.330793,0.39762 0.330793,1.172811 z"
         style="font-weight:normal;stroke-width:0.513231"
         id="path843" />
      <path
         d="m 87.318994,27.372236 h 0.716718 V 24.89847 l -0.779703,0.156375 V 24.65522 l 0.77536,-0.156375 h 0.438718 v 2.873391 h 0.716719 v 0.369219 h -1.867812 z"
         style="font-size:4.448px;baseline-shift:sub;stroke-width:0.513231"
         id="path845" />
    </g>
    <g
       aria-label="h2"
       transform="matrix(0.87535133,0,0,0.83885691,11.325284,6.2837128)"
       id="text4608-97"
       style="font-weight:bold;font-size:6.67373px;line-height:1.25;font-family:sans-serif;-inkscape-font-specification:'sans-serif Bold';stroke-width:0.500529">
      <path
         d="m 77.559146,44.52445 v 2.202853 h -0.599593 v -2.183301 q 0,-0.518126 -0.202036,-0.77556 -0.202037,-0.257434 -0.606111,-0.257434 -0.485539,0 -0.765784,0.309572 -0.280244,0.309573 -0.280244,0.843993 v 2.06273 h -0.602852 v -5.070471 h 0.602852 v 1.987781 q 0.215071,-0.329125 0.505091,-0.492057 0.29328,-0.162933 0.674542,-0.162933 0.628921,0 0.951528,0.391039 0.322607,0.38778 0.322607,1.143788 z"
         style="font-weight:normal;stroke-width:0.500529"
         id="path838" />
      <path
         d="m 78.965093,47.701967 h 1.493278 v 0.360082 h -2.007982 v -0.360082 q 0.243584,-0.252057 0.662973,-0.675682 0.421507,-0.425743 0.529531,-0.548594 0.205458,-0.230876 0.285947,-0.389735 0.08261,-0.160978 0.08261,-0.315601 0,-0.252057 -0.177923,-0.410916 -0.175804,-0.158859 -0.459633,-0.158859 -0.201222,0 -0.425743,0.0699 -0.222403,0.0699 -0.476578,0.211812 v -0.432097 q 0.258411,-0.103788 0.482932,-0.156741 0.224522,-0.05295 0.410917,-0.05295 0.491405,0 0.783706,0.245703 0.292301,0.245702 0.292301,0.656619 0,0.194867 -0.07413,0.370672 -0.07202,0.173686 -0.264766,0.410916 -0.05295,0.06142 -0.336782,0.355845 -0.283828,0.292301 -0.800651,0.819714 z"
         style="font-size:4.33792px;baseline-shift:sub;stroke-width:0.500529"
         id="path840" />
    </g>
    <g
       aria-label="h3"
       transform="matrix(1.132566,0,0,0.94102879,-2.5373961,-2.1825444)"
       id="text4608-1"
       style="font-weight:bold;font-size:5.05903px;line-height:1.25;font-family:sans-serif;-inkscape-font-specification:'sans-serif Bold';stroke-width:0.379428">
      <path
         d="m 72.413081,67.768174 v 1.669875 h -0.454522 v -1.655053 q 0,-0.392767 -0.153154,-0.587915 -0.153154,-0.195148 -0.459463,-0.195148 -0.368064,0 -0.580504,0.234672 -0.21244,0.234671 -0.21244,0.639789 v 1.563655 h -0.456992 v -3.843677 h 0.456992 v 1.50684 q 0.163036,-0.249493 0.382886,-0.373004 0.222321,-0.123512 0.511338,-0.123512 0.476754,0 0.721307,0.296428 0.244552,0.293957 0.244552,0.86705 z"
         style="font-weight:normal;stroke-width:0.379428"
         id="path848" />
      <path
         d="m 74.182136,69.157308 q 0.23282,0.04977 0.362877,0.207128 0.131663,0.157354 0.131663,0.388568 0,0.354848 -0.244058,0.549132 -0.244059,0.194283 -0.693641,0.194283 -0.150931,0 -0.311496,-0.03051 -0.158959,-0.0289 -0.329158,-0.08831 v -0.313102 q 0.134875,0.07868 0.29544,0.118819 0.160564,0.04014 0.33558,0.04014 0.305074,0 0.464033,-0.120424 0.160565,-0.120424 0.160565,-0.350031 0,-0.211946 -0.149326,-0.330764 -0.147719,-0.120424 -0.412651,-0.120424 h -0.279383 v -0.266538 h 0.292228 q 0.239242,0 0.366088,-0.09473 0.126846,-0.09634 0.126846,-0.276172 0,-0.184649 -0.131663,-0.282594 -0.130058,-0.09955 -0.374116,-0.09955 -0.133269,0 -0.285806,0.0289 -0.152537,0.0289 -0.335581,0.08992 V 68.11203 q 0.18465,-0.05138 0.345215,-0.07707 0.16217,-0.02569 0.305073,-0.02569 0.3693,0 0.584457,0.168593 0.215157,0.166988 0.215157,0.452794 0,0.1991 -0.114001,0.337186 -0.114002,0.13648 -0.324342,0.189467 z"
         style="font-size:3.28837px;baseline-shift:sub;stroke-width:0.379428"
         id="path850" />
    </g>
    <g
       aria-label="h4"
       transform="matrix(0.95642518,0,0,0.82720938,8.7579235,8.8017418)"
       id="text4608-93"
       style="font-weight:bold;font-size:6.08424px;line-height:1.25;font-family:sans-serif;-inkscape-font-specification:'sans-serif Bold';stroke-width:0.456318">
      <path
         d="m 73.676566,85.323764 v 2.008275 h -0.546631 v -1.99045 q 0,-0.47236 -0.184191,-0.707055 -0.18419,-0.234695 -0.552572,-0.234695 -0.442652,0 -0.698143,0.282228 -0.25549,0.282228 -0.25549,0.769443 v 1.880529 h -0.549602 v -4.622596 h 0.549602 v 1.8122 q 0.196074,-0.300053 0.460477,-0.448594 0.267373,-0.148541 0.614959,-0.148541 0.573369,0 0.86748,0.356498 0.294111,0.353528 0.294111,1.042758 z"
         style="font-weight:normal;stroke-width:0.456318"
         id="path853" />
      <path
         d="m 75.694052,86.005714 -0.984828,1.539035 h 0.984828 z m -0.102345,-0.339863 h 0.490483 v 1.878898 h 0.41131 v 0.324414 h -0.41131 v 0.679724 h -0.388138 v -0.679724 h -1.301518 v -0.376552 z"
         style="font-size:3.95476px;baseline-shift:sub;stroke-width:0.456318"
         id="path855" />
    </g>
    <g
       aria-label="h5"
       transform="matrix(1.9452859,0,0,1.8146907,-66.642073,-86.925319)"
       id="text4608-94"
       style="font-weight:bold;font-size:2.62414px;line-height:1.25;font-family:sans-serif;-inkscape-font-specification:'sans-serif Bold';stroke-width:0.196811">
      <path
         d="m 75.210694,101.87244 v 0.86617 h -0.235762 v -0.85848 q 0,-0.20373 -0.07944,-0.30496 -0.07944,-0.10122 -0.238325,-0.10122 -0.190917,0 -0.30111,0.12172 -0.110193,0.12173 -0.110193,0.33186 v 0.81108 H 74.00882 v -1.99373 h 0.237044 v 0.7816 q 0.08457,-0.12941 0.198604,-0.19348 0.115319,-0.0641 0.265233,-0.0641 0.247294,0 0.374145,0.15376 0.12685,0.15247 0.12685,0.44974 z"
         style="font-weight:normal;stroke-width:0.196811"
         id="path825" />
      <path
         d="m 75.620268,102.01998 h 0.660455 v 0.14159 h -0.506377 v 0.30482 q 0.03665,-0.0125 0.07329,-0.0183 0.03664,-0.007 0.07329,-0.007 0.208214,0 0.329812,0.1141 0.121597,0.1141 0.121597,0.30899 0,0.20072 -0.124929,0.31232 -0.124928,0.11077 -0.352298,0.11077 -0.07829,0 -0.159909,-0.0133 -0.08079,-0.0133 -0.167404,-0.04 v -0.16907 q 0.07496,0.0408 0.154911,0.0608 0.07995,0.02 0.16907,0.02 0.144084,0 0.228203,-0.0758 0.08412,-0.0758 0.08412,-0.20571 0,-0.12993 -0.08412,-0.20572 -0.08412,-0.0758 -0.228203,-0.0758 -0.06746,0 -0.134923,0.015 -0.06663,0.015 -0.136588,0.0466 z"
         style="font-size:65%;baseline-shift:sub"
         id="path827" />
    </g>
    <g
       aria-label="o2"
       id="text4608-4"
       style="font-weight:bold;font-size:3.52777px;line-height:1.25;font-family:sans-serif;-inkscape-font-specification:'sans-serif Bold';stroke-width:0.264583"
       transform="matrix(1.8560382,0,0,2.1409711,-102.43398,-86.496906)">
      <path
         d="m 120.5453,74.629194 q -0.25494,0 -0.40308,0.199815 -0.14814,0.198093 -0.14814,0.544324 0,0.346231 0.14642,0.546046 0.14814,0.198093 0.4048,0.198093 0.25321,0 0.40135,-0.199815 0.14814,-0.199815 0.14814,-0.544324 0,-0.342786 -0.14814,-0.542601 -0.14814,-0.201538 -0.40135,-0.201538 z m 0,-0.268717 q 0.41341,0 0.6494,0.268717 0.23599,0.268717 0.23599,0.744139 0,0.4737 -0.23599,0.744139 -0.23599,0.268717 -0.6494,0.268717 -0.41513,0 -0.65112,-0.268717 -0.23427,-0.270439 -0.23427,-0.744139 0,-0.475422 0.23427,-0.744139 0.23599,-0.268717 0.65112,-0.268717 z"
         style="font-weight:normal;stroke-width:0.264583"
         id="path809" />
      <path
         d="m 122.06191,76.851448 h 0.78936 v 0.190341 h -1.06143 v -0.190341 q 0.12876,-0.133239 0.35045,-0.35717 0.22281,-0.22505 0.27991,-0.28999 0.10861,-0.122042 0.15115,-0.206016 0.0437,-0.08509 0.0437,-0.166828 0,-0.133239 -0.094,-0.217213 -0.0929,-0.08397 -0.24296,-0.08397 -0.10637,0 -0.22505,0.03695 -0.11757,0.03695 -0.25193,0.111966 v -0.22841 q 0.1366,-0.05486 0.25528,-0.08285 0.11869,-0.02799 0.21722,-0.02799 0.25976,0 0.41427,0.129879 0.15451,0.12988 0.15451,0.347093 0,0.103008 -0.0392,0.195939 -0.0381,0.09181 -0.13995,0.217213 -0.028,0.03247 -0.17803,0.188102 -0.15003,0.154512 -0.42323,0.433306 z"
         style="font-size:65%;baseline-shift:sub"
         id="path811" />
    </g>
    <g
       aria-label="o1"
       id="text4608-0"
       style="font-weight:bold;font-size:3.52777px;line-height:1.25;font-family:sans-serif;-inkscape-font-specification:'sans-serif Bold';stroke-width:0.264583"
       transform="matrix(2.0817614,0,0,2.0785733,-129.84209,-48.213659)">
      <path
         d="m 120.6959,43.136877 q -0.25494,0 -0.40308,0.199815 -0.14814,0.198092 -0.14814,0.544324 0,0.346231 0.14642,0.546046 0.14814,0.198093 0.4048,0.198093 0.25321,0 0.40135,-0.199815 0.14814,-0.199815 0.14814,-0.544324 0,-0.342786 -0.14814,-0.542602 -0.14814,-0.201537 -0.40135,-0.201537 z m 0,-0.268717 q 0.41341,0 0.64939,0.268717 0.23599,0.268717 0.23599,0.744139 0,0.473699 -0.23599,0.744139 -0.23598,0.268717 -0.64939,0.268717 -0.41514,0 -0.65113,-0.268717 -0.23426,-0.27044 -0.23426,-0.744139 0,-0.475422 0.23426,-0.744139 0.23599,-0.268717 0.65113,-0.268717 z"
         style="font-weight:normal;stroke-width:0.264583"
         id="path802" />
      <path
         d="m 122.05688,45.359131 h 0.36948 v -1.275286 l -0.40195,0.08062 v -0.206016 l 0.39971,-0.08062 h 0.22617 v 1.481302 h 0.36949 v 0.190341 h -0.9629 z"
         style="font-size:65%;baseline-shift:sub"
         id="path804" />
    </g>
    <g
       aria-label="O1"
       id="text4608-06"
       style="font-weight:bold;font-size:3.52777px;line-height:1.25;font-family:sans-serif;-inkscape-font-specification:'sans-serif Bold';stroke-width:0.264583"
       transform="matrix(0.79383793,0,0,0.79383793,32.026159,7.3462427)">
      <path
         d="m 138.62795,36.238558 q -0.84109,0 -1.33809,0.626991 -0.49319,0.626994 -0.49319,1.708937 0,1.078119 0.49319,1.70511 0.497,0.626991 1.33809,0.626991 0.84109,0 1.33045,-0.626991 0.49317,-0.626991 0.49317,-1.70511 0,-1.081943 -0.49317,-1.708937 -0.48936,-0.626991 -1.33045,-0.626991 z m 0,-0.626991 q 1.20046,0 1.91921,0.806679 0.71875,0.802854 0.71875,2.15624 0,1.349561 -0.71875,2.156238 -0.71875,0.802857 -1.91921,0.802857 -1.20428,0 -1.92685,-0.802857 -0.71875,-0.802855 -0.71875,-2.156238 0,-1.353386 0.71875,-2.15624 0.72257,-0.806679 1.92685,-0.806679 z"
         style="font-weight:normal;stroke-width:0.587232"
         id="path818" />
      <path
         d="m 142.33676,42.566205 h 0.82007 v -2.830448 l -0.89214,0.178933 v -0.457245 l 0.88716,-0.17891 h 0.50198 v 3.287692 h 0.82005 v 0.422455 h -2.13712 z"
         style="font-size:65%;baseline-shift:sub;stroke-width:0.587232"
         id="path820" />
    </g>
    <g
       aria-label="O2"
       transform="matrix(0.9145177,0,0,0.76919413,22.961917,11.558607)"
       id="text4608-061"
       style="font-weight:bold;font-size:7.40145px;line-height:1.25;font-family:sans-serif;-inkscape-font-specification:'sans-serif Bold';stroke-width:0.555109">
      <path
         d="m 130.14127,75.248463 q -0.79508,0 -1.2649,0.592694 -0.4662,0.592695 -0.4662,1.615454 0,1.019145 0.4662,1.611839 0.46982,0.592694 1.2649,0.592694 0.79507,0 1.25766,-0.592694 0.46621,-0.592694 0.46621,-1.611839 0,-1.022759 -0.46621,-1.615454 -0.46259,-0.592694 -1.25766,-0.592694 z m 0,-0.592694 q 1.13479,0 1.81422,0.762552 0.67943,0.758937 0.67943,2.03829 0,1.275738 -0.67943,2.03829 -0.67943,0.758937 -1.81422,0.758937 -1.13841,0 -1.82145,-0.758937 -0.67943,-0.758938 -0.67943,-2.03829 0,-1.279353 0.67943,-2.03829 0.68304,-0.762552 1.82145,-0.762552 z"
         style="font-weight:normal;stroke-width:0.555109"
         id="path967" />
      <path
         d="m 133.97372,81.229977 h 1.65611 v 0.399346 h -2.22694 v -0.399346 q 0.27015,-0.279542 0.73527,-0.74936 0.46747,-0.472168 0.58727,-0.608415 0.22786,-0.256051 0.31713,-0.432233 0.0916,-0.178531 0.0916,-0.350014 0,-0.279542 -0.19732,-0.455724 -0.19498,-0.176182 -0.50975,-0.176182 -0.22317,0 -0.47217,0.07752 -0.24666,0.07752 -0.52855,0.234909 v -0.479215 q 0.28659,-0.115105 0.5356,-0.173832 0.249,-0.05873 0.45572,-0.05873 0.54499,0 0.86916,0.272495 0.32418,0.272495 0.32418,0.728218 0,0.216117 -0.0822,0.411091 -0.0799,0.192626 -0.29364,0.455724 -0.0587,0.06812 -0.3735,0.394648 -0.31478,0.324174 -0.88796,0.909098 z"
         style="font-size:4.81094px;baseline-shift:sub;stroke-width:0.555109"
         id="path969" />
    </g>
    <rect
       y="8.7351408"
       x="24.311241"
       height="101.39732"
       width="27.036667"
       id="rect4876"
       style="opacity:0.866302;fill:none;fill-opacity:1;fill-rule:evenodd;stroke:#000000;stroke-width:0.3;stroke-miterlimit:4;stroke-dasharray:1.2,0.6;stroke-dashoffset:0" />
    <g
       aria-label="Input Layer"
       id="text4880"
       style="font-weight:bold;font-size:3.52777px;line-height:1.25;font-family:sans-serif;-inkscape-font-specification:'sans-serif Bold';stroke-width:0.264583"
       transform="matrix(1.220364,0,0,1.220364,-5.4943552,-1.6201171)">
      <path
         d="m 24.933085,4.018881 h 0.66318 v 2.5717581 h -0.66318 z"
         style="stroke-width:0.264583"
         id="path900" />
      <path
         d="m 28.161133,5.4158641 v 1.174775 H 27.541017 V 6.3994367 5.6914712 q 0,-0.2497689 -0.01206,-0.3445088 -0.01034,-0.09474 -0.0379,-0.1395261 -0.03617,-0.060289 -0.09819,-0.093017 -0.06201,-0.034451 -0.141248,-0.034451 -0.192925,0 -0.303168,0.1498613 -0.110243,0.1481388 -0.110243,0.411688 v 0.9491215 h -0.61666 V 4.6613899 h 0.616671 v 0.2824972 q 0.139526,-0.1688093 0.296278,-0.2480463 0.156751,-0.08096 0.346231,-0.08096 0.334174,0 0.506428,0.2049827 0.173977,0.2049827 0.173977,0.5960006 z"
         style="stroke-width:0.264583"
         id="path902" />
      <path
         d="m 29.353133,6.311587 v 1.0128558 h -0.61667 V 4.6613899 h 0.61667 v 0.2824972 q 0.127469,-0.1688093 0.282498,-0.2480463 0.155029,-0.08096 0.356566,-0.08096 0.356567,0 0.585665,0.2842197 0.229098,0.2824973 0.229098,0.7286361 0,0.4461389 -0.229098,0.7303587 -0.229098,0.2824972 -0.585665,0.2824972 -0.201537,0 -0.356566,-0.079237 -0.155029,-0.08096 -0.282498,-0.2497685 z m 0.409966,-1.2488444 q -0.198093,0 -0.30489,0.1464163 -0.105076,0.1446936 -0.105076,0.4185781 0,0.2738845 0.105076,0.4203008 0.106797,0.1446937 0.30489,0.1446937 0.198092,0 0.301445,-0.1446937 0.105075,-0.1446937 0.105075,-0.4203008 0,-0.275607 -0.105075,-0.4203007 -0.103353,-0.1446937 -0.301445,-0.1446937 z"
         style="stroke-width:0.264583"
         id="path904" />
      <path
         d="m 31.244487,5.8396099 v -1.17822 h 0.620116 v 0.1929249 q 0,0.1567515 -0.0017,0.3944626 -0.0017,0.2359885 -0.0017,0.3152255 0,0.2325434 0.01206,0.3358961 0.01206,0.1016301 0.04134,0.1481388 0.0379,0.060289 0.09818,0.093017 0.06201,0.032728 0.141249,0.032728 0.192925,0 0.303168,-0.1481388 0.110243,-0.1481388 0.110243,-0.411688 V 4.6613899 h 0.61667 v 1.9292492 h -0.61667 V 6.311587 q -0.139527,0.1688093 -0.296278,0.2497689 -0.155029,0.079237 -0.342786,0.079237 -0.334174,0 -0.509873,-0.2049827 -0.173977,-0.2049828 -0.173977,-0.5960003 z"
         style="stroke-width:0.264583"
         id="path906" />
      <path
         d="m 34.453586,4.1136209 v 0.547769 h 0.635619 v 0.4409712 h -0.635619 v 0.8182084 q 0,0.1343584 0.0534,0.1825897 0.0534,0.046509 0.211873,0.046509 h 0.316948 v 0.4409712 h -0.528821 q -0.365179,0 -0.518485,-0.1515839 -0.151585,-0.1533067 -0.151585,-0.518486 V 5.1023611 H 33.530303 V 4.6613899 h 0.306613 v -0.547769 z"
         style="stroke-width:0.264583"
         id="path908" />
      <path
         d="m 36.722177,4.018881 h 0.663179 v 2.0704978 h 1.16444 v 0.5012603 h -1.827619 z"
         style="stroke-width:0.264583"
         id="path910" />
      <path
         d="m 39.80553,5.722477 q -0.192925,0 -0.29111,0.065457 -0.09646,0.065457 -0.09646,0.192925 0,0.1171329 0.07751,0.1843122 0.07924,0.065457 0.218763,0.065457 0.173977,0 0.292832,-0.1240231 0.118856,-0.1257457 0.118856,-0.313503 V 5.722477 Z M 40.747761,5.4899335 V 6.5906391 H 40.125923 V 6.3046968 q -0.124023,0.1756995 -0.279052,0.2566591 -0.155029,0.079237 -0.377237,0.079237 -0.299723,0 -0.48748,-0.173977 -0.186035,-0.1756994 -0.186035,-0.4547516 0,-0.3393411 0.232543,-0.4978152 0.234266,-0.158474 0.733804,-0.158474 h 0.363457 v -0.048231 q 0,-0.1464163 -0.115411,-0.2135955 -0.11541,-0.068902 -0.360011,-0.068902 -0.198093,0 -0.368625,0.039619 -0.170532,0.039619 -0.316948,0.1188555 V 4.7130662 q 0.198093,-0.048231 0.397908,-0.072347 0.199815,-0.025838 0.39963,-0.025838 0.521931,0 0.752752,0.2067053 0.232543,0.2049827 0.232543,0.668347 z"
         style="stroke-width:0.264583"
         id="path912" />
      <path
         d="m 40.961357,4.6613899 h 0.61667 l 0.518486,1.3091334 0.440971,-1.3091334 h 0.616671 l -0.811318,2.1118389 q -0.122301,0.3221157 -0.285942,0.4495839 -0.16192,0.1291908 -0.428914,0.1291908 H 41.271415 V 6.9472057 h 0.192924 q 0.156752,0 0.227376,-0.049954 0.07235,-0.049954 0.111966,-0.1791445 l 0.01723,-0.053399 z"
         style="stroke-width:0.264583"
         id="path914" />
      <path
         d="m 45.441694,5.6208469 v 0.1756994 h -1.441769 q 0.02239,0.2170406 0.156751,0.3255609 0.134358,0.1085202 0.375515,0.1085202 0.194647,0 0.397907,-0.056844 0.204983,-0.058566 0.420301,-0.1756995 V 6.473506 q -0.218763,0.082682 -0.437526,0.1240232 -0.218763,0.043064 -0.437526,0.043064 -0.523654,0 -0.814764,-0.2652718 -0.289387,-0.2669943 -0.289387,-0.7475841 0,-0.471977 0.28422,-0.7424164 0.285942,-0.2704394 0.78548,-0.2704394 0.454751,0 0.726913,0.2738845 0.273885,0.2738845 0.273885,0.7320809 z M 44.807798,5.4158641 q 0,-0.1756995 -0.103353,-0.2824972 -0.10163,-0.1085203 -0.266994,-0.1085203 -0.179145,0 -0.29111,0.1016301 -0.111966,0.099908 -0.139526,0.2893874 z"
         style="stroke-width:0.264583"
         id="path916" />
      <path
         d="m 47.339936,5.1867658 q -0.08096,-0.037896 -0.161919,-0.055121 -0.07924,-0.018948 -0.160196,-0.018948 -0.237711,0 -0.366902,0.1533064 -0.127468,0.1515839 -0.127468,0.4358036 V 6.5906391 H 45.90678 V 4.6613899 h 0.616671 V 4.978338 q 0.118855,-0.1894799 0.272161,-0.2756071 0.155029,-0.08785 0.370347,-0.08785 0.03101,0 0.06718,0.00345 0.03617,0.00172 0.105075,0.010335 z"
         style="stroke-width:0.264583"
         id="path918" />
    </g>
    <rect
       style="opacity:0.866302;fill:none;fill-opacity:1;fill-rule:evenodd;stroke:#000000;stroke-width:0.3;stroke-miterlimit:4;stroke-dasharray:1.2, 0.6;stroke-dashoffset:0"
       id="rect4876-4"
       width="27.036667"
       height="101.39732"
       x="64.387985"
       y="8.9988222" />
    <g
       aria-label="Hidden Layer"
       id="text4899"
       style="font-weight:bold;font-size:3.52777px;line-height:1.25;font-family:sans-serif;-inkscape-font-specification:'sans-serif Bold';stroke-width:0.264583"
       transform="matrix(1.12262,0,0,1.12262,-7.9174386,-0.89676114)">
      <path
         d="m 64.568925,3.9802152 h 0.663179 v 0.9801275 h 0.978405 V 3.9802152 h 0.66318 v 2.5717581 h -0.66318 V 5.461603 h -0.978405 v 1.0903703 h -0.663179 z"
         style="stroke-width:0.264583"
         id="path921" />
      <path
         d="m 67.49725,4.6227241 h 0.61667 v 1.9292492 h -0.61667 z m 0,-0.7510292 h 0.61667 v 0.5029829 h -0.61667 z"
         style="stroke-width:0.264583"
         id="path923" />
      <path
         d="M 70.022499,4.9052213 V 3.8716949 h 0.620116 V 6.5519733 H 70.022499 V 6.2729212 q -0.127468,0.1705319 -0.280775,0.2497689 -0.153306,0.079237 -0.354844,0.079237 -0.356566,0 -0.585665,-0.2824972 -0.229098,-0.2842197 -0.229098,-0.7303586 0,-0.4461389 0.229098,-0.7286361 0.229099,-0.2842198 0.585665,-0.2842198 0.199815,0 0.353122,0.08096 0.155029,0.079237 0.282497,0.2480459 z m -0.40652,1.2488444 q 0.198092,0 0.301445,-0.1446937 0.105075,-0.1446937 0.105075,-0.4203007 0,-0.2756071 -0.105075,-0.4203008 -0.103353,-0.1446937 -0.301445,-0.1446937 -0.19637,0 -0.301446,0.1446937 -0.103352,0.1446937 -0.103352,0.4203008 0,0.275607 0.103352,0.4203007 0.105076,0.1446937 0.301446,0.1446937 z"
         style="stroke-width:0.264583"
         id="path925" />
      <path
         d="M 72.551194,4.9052213 V 3.8716949 h 0.620115 V 6.5519733 H 72.551194 V 6.2729212 q -0.127469,0.1705319 -0.280775,0.2497689 -0.153307,0.079237 -0.354844,0.079237 -0.356567,0 -0.585665,-0.2824972 -0.229098,-0.2842197 -0.229098,-0.7303586 0,-0.4461389 0.229098,-0.7286361 0.229098,-0.2842198 0.585665,-0.2842198 0.199815,0 0.353121,0.08096 0.155029,0.079237 0.282498,0.2480459 z m -0.406521,1.2488444 q 0.198093,0 0.301445,-0.1446937 0.105076,-0.1446937 0.105076,-0.4203007 0,-0.2756071 -0.105076,-0.4203008 -0.103352,-0.1446937 -0.301445,-0.1446937 -0.19637,0 -0.301445,0.1446937 -0.103353,0.1446937 -0.103353,0.4203008 0,0.275607 0.103353,0.4203007 0.105075,0.1446937 0.301445,0.1446937 z"
         style="stroke-width:0.264583"
         id="path927" />
      <path
         d="m 75.693114,5.5821811 v 0.1756995 h -1.441769 q 0.02239,0.2170405 0.156751,0.3255608 0.134358,0.1085203 0.375515,0.1085203 0.194647,0 0.397907,-0.056844 0.204983,-0.058567 0.420301,-0.1756995 v 0.4754222 q -0.218763,0.082682 -0.437526,0.1240231 -0.218763,0.043064 -0.437526,0.043064 -0.523654,0 -0.814764,-0.2652718 -0.289387,-0.2669943 -0.289387,-0.747584 0,-0.4719771 0.28422,-0.7424165 0.285942,-0.2704394 0.78548,-0.2704394 0.454751,0 0.726913,0.2738845 0.273885,0.2738845 0.273885,0.7320808 z M 75.059218,5.3771984 q 0,-0.1756995 -0.103353,-0.2824973 -0.10163,-0.1085202 -0.266994,-0.1085202 -0.179145,0 -0.29111,0.1016301 -0.111966,0.099907 -0.139526,0.2893874 z"
         style="stroke-width:0.264583"
         id="path929" />
      <path
         d="M 78.097785,5.3771984 V 6.5519733 H 77.477669 V 6.360771 5.6528054 q 0,-0.2497689 -0.01206,-0.3445088 -0.01034,-0.09474 -0.0379,-0.1395261 -0.03617,-0.060289 -0.09819,-0.093017 -0.06201,-0.034451 -0.141249,-0.034451 -0.192925,0 -0.303168,0.1498613 -0.110242,0.1481388 -0.110242,0.411688 V 6.5519733 H 76.158201 V 4.6227241 h 0.616671 v 0.2824972 q 0.139526,-0.1688093 0.296277,-0.2480463 0.156752,-0.08096 0.346231,-0.08096 0.334174,0 0.506428,0.2049827 0.173977,0.2049828 0.173977,0.5960007 z"
         style="stroke-width:0.264583"
         id="path931" />
      <path
         d="m 79.927127,3.9802152 h 0.663179 V 6.050713 h 1.16444 v 0.5012603 h -1.827619 z"
         style="stroke-width:0.264583"
         id="path933" />
      <path
         d="m 83.01048,5.6838112 q -0.192925,0 -0.29111,0.065457 -0.09646,0.065457 -0.09646,0.1929249 0,0.117133 0.07751,0.1843122 0.07924,0.065457 0.218763,0.065457 0.173977,0 0.292833,-0.1240232 0.118855,-0.1257457 0.118855,-0.313503 V 5.6838112 Z M 83.952712,5.4512677 V 6.5519733 H 83.330873 V 6.266031 q -0.124023,0.1756995 -0.279052,0.2566591 -0.155029,0.079237 -0.377237,0.079237 -0.299723,0 -0.48748,-0.1739769 -0.186035,-0.1756995 -0.186035,-0.4547516 0,-0.3393412 0.232544,-0.4978152 0.234266,-0.1584741 0.733803,-0.1584741 h 0.363457 v -0.048231 q 0,-0.1464162 -0.11541,-0.2135955 -0.115411,-0.068902 -0.360012,-0.068902 -0.198092,0 -0.368624,0.039619 -0.170532,0.039618 -0.316948,0.1188555 V 4.6744004 q 0.198092,-0.048231 0.397907,-0.072347 0.199815,-0.025838 0.39963,-0.025838 0.521931,0 0.752752,0.2067053 0.232544,0.2049827 0.232544,0.668347 z"
         style="stroke-width:0.264583"
         id="path935" />
      <path
         d="m 84.166307,4.6227241 h 0.616671 l 0.518485,1.3091334 0.440972,-1.3091334 h 0.61667 L 85.547787,6.734563 q -0.1223,0.3221157 -0.285942,0.449584 -0.161919,0.1291908 -0.428914,0.1291908 H 84.476365 V 6.9085399 h 0.192925 q 0.156751,0 0.227376,-0.049954 0.07235,-0.049954 0.111965,-0.1791446 l 0.01723,-0.053399 z"
         style="stroke-width:0.264583"
         id="path937" />
      <path
         d="m 88.646644,5.5821811 v 0.1756995 h -1.441769 q 0.02239,0.2170405 0.156751,0.3255608 0.134359,0.1085203 0.375515,0.1085203 0.194647,0 0.397908,-0.056844 0.204982,-0.058567 0.4203,-0.1756995 v 0.4754222 q -0.218763,0.082682 -0.437526,0.1240231 -0.218763,0.043064 -0.437526,0.043064 -0.523653,0 -0.814763,-0.2652718 -0.289388,-0.2669943 -0.289388,-0.747584 0,-0.4719771 0.28422,-0.7424165 0.285942,-0.2704394 0.78548,-0.2704394 0.454752,0 0.726914,0.2738845 0.273884,0.2738845 0.273884,0.7320808 z M 88.012748,5.3771984 q 0,-0.1756995 -0.103353,-0.2824973 -0.10163,-0.1085202 -0.266994,-0.1085202 -0.179145,0 -0.29111,0.1016301 -0.111965,0.099907 -0.139526,0.2893874 z"
         style="stroke-width:0.264583"
         id="path939" />
      <path
         d="m 90.544889,5.1481 q -0.08096,-0.037896 -0.16192,-0.055121 -0.07924,-0.018948 -0.160196,-0.018948 -0.237711,0 -0.366902,0.1533064 -0.127468,0.1515839 -0.127468,0.4358037 V 6.5519733 H 89.111732 V 4.6227241 h 0.616671 v 0.3169481 q 0.118855,-0.1894798 0.272162,-0.275607 0.155029,-0.08785 0.370347,-0.08785 0.031,0 0.06718,0.00345 0.03617,0.00172 0.105075,0.010335 z"
         style="stroke-width:0.264583"
         id="path941" />
    </g>
    <rect
       y="8.5041723"
       x="107.82768"
       height="101.39732"
       width="27.036667"
       id="rect4876-4-7"
       style="opacity:0.866302;fill:none;fill-opacity:1;fill-rule:evenodd;stroke:#000000;stroke-width:0.3;stroke-miterlimit:4;stroke-dasharray:1.2,0.6;stroke-dashoffset:0" />
    <g
       aria-label="Output Layer"
       id="text4918"
       style="font-weight:bold;font-size:3.52777px;line-height:1.25;font-family:sans-serif;-inkscape-font-specification:'sans-serif Bold';stroke-width:0.264583"
       transform="matrix(1.1695963,0,0,1.1695963,-19.343361,-1.2190034)">
      <path
         d="m 109.2789,4.3359577 q -0.30317,0 -0.47025,0.2239307 -0.16709,0.2239307 -0.16709,0.6304511 0,0.4047978 0.16709,0.6287285 0.16708,0.2239307 0.47025,0.2239307 0.30489,0 0.47198,-0.2239307 0.16709,-0.2239307 0.16709,-0.6287285 0,-0.4065204 -0.16709,-0.6304511 -0.16709,-0.2239307 -0.47198,-0.2239307 z m 0,-0.4805898 q 0.62012,0 0.97152,0.354844 0.3514,0.3548441 0.3514,0.9801276 0,0.6235609 -0.3514,0.9784049 -0.3514,0.3548441 -0.97152,0.3548441 -0.61839,0 -0.97151,-0.3548441 -0.3514,-0.354844 -0.3514,-0.9784049 0,-0.6252835 0.3514,-0.9801276 0.35312,-0.354844 0.97151,-0.354844 z"
         style="stroke-width:0.264583"
         id="path944" />
      <path
         d="M 111.05312,5.7226056 V 4.5443855 h 0.62012 v 0.1929249 q 0,0.1567515 -0.002,0.3944626 -0.002,0.2359885 -0.002,0.3152255 0,0.2325435 0.0121,0.3358961 0.0121,0.1016301 0.0413,0.1481388 0.0379,0.060289 0.0982,0.093017 0.062,0.032728 0.14125,0.032728 0.19292,0 0.30316,-0.1481388 0.11025,-0.1481388 0.11025,-0.411688 V 4.5443855 h 0.61667 V 6.4736347 H 112.3755 V 6.1945826 q -0.13953,0.1688093 -0.29628,0.2497689 -0.15503,0.079237 -0.34279,0.079237 -0.33417,0 -0.50987,-0.2049827 -0.17398,-0.2049828 -0.17398,-0.5960002 z"
         style="stroke-width:0.264583"
         id="path946" />
      <path
         d="m 114.26222,3.9966165 v 0.547769 h 0.63562 v 0.4409712 h -0.63562 v 0.8182084 q 0,0.1343584 0.0534,0.1825897 0.0534,0.046509 0.21187,0.046509 h 0.31695 V 6.473635 h -0.52882 q -0.36518,0 -0.51849,-0.1515838 -0.15158,-0.1533065 -0.15158,-0.5184858 V 4.9853567 h -0.30661 V 4.5443855 h 0.30661 v -0.547769 z"
         style="stroke-width:0.264583"
         id="path948" />
      <path
         d="M 115.89347,6.1945826 V 7.2074384 H 115.2768 V 4.5443855 h 0.61667 v 0.2824972 q 0.12747,-0.1688093 0.2825,-0.2480463 0.15503,-0.08096 0.35656,-0.08096 0.35657,0 0.58567,0.2842197 0.2291,0.2824973 0.2291,0.7286361 0,0.4461389 -0.2291,0.7303587 -0.2291,0.2824972 -0.58567,0.2824972 -0.20153,0 -0.35656,-0.079237 -0.15503,-0.08096 -0.2825,-0.2497685 z m 0.40997,-1.2488444 q -0.1981,0 -0.30489,0.1464163 -0.10508,0.1446937 -0.10508,0.4185781 0,0.2738845 0.10508,0.4203008 0.10679,0.1446937 0.30489,0.1446937 0.19809,0 0.30144,-0.1446937 0.10508,-0.1446937 0.10508,-0.4203008 0,-0.275607 -0.10508,-0.4203007 -0.10335,-0.1446937 -0.30144,-0.1446937 z"
         style="stroke-width:0.264583"
         id="path950" />
      <path
         d="M 117.78482,5.7226056 V 4.5443855 h 0.62012 v 0.1929249 q 0,0.1567515 -0.002,0.3944626 -0.002,0.2359885 -0.002,0.3152255 0,0.2325435 0.0121,0.3358961 0.0121,0.1016301 0.0413,0.1481388 0.0379,0.060289 0.0982,0.093017 0.062,0.032728 0.14125,0.032728 0.19292,0 0.30317,-0.1481388 0.11024,-0.1481388 0.11024,-0.411688 V 4.5443855 h 0.61667 V 6.4736347 H 119.1072 V 6.1945826 q -0.13953,0.1688093 -0.29628,0.2497689 -0.15503,0.079237 -0.34279,0.079237 -0.33417,0 -0.50987,-0.2049827 -0.17398,-0.2049828 -0.17398,-0.5960002 z"
         style="stroke-width:0.264583"
         id="path952" />
      <path
         d="m 120.99392,3.9966165 v 0.547769 h 0.63562 v 0.4409712 h -0.63562 v 0.8182084 q 0,0.1343584 0.0534,0.1825897 0.0534,0.046509 0.21188,0.046509 h 0.31694 V 6.473635 h -0.52882 q -0.36518,0 -0.51848,-0.1515838 -0.15159,-0.1533065 -0.15159,-0.5184858 V 4.9853567 h -0.30661 V 4.5443855 h 0.30661 v -0.547769 z"
         style="stroke-width:0.264583"
         id="path954" />
      <path
         d="m 123.26251,3.9018766 h 0.66318 v 2.0704978 h 1.16444 v 0.5012603 h -1.82762 z"
         style="stroke-width:0.264583"
         id="path956" />
      <path
         d="m 126.34587,5.6054726 q -0.19293,0 -0.29111,0.065457 -0.0965,0.065457 -0.0965,0.192925 0,0.1171329 0.0775,0.1843122 0.0792,0.065457 0.21876,0.065457 0.17398,0 0.29284,-0.1240231 0.11885,-0.1257457 0.11885,-0.313503 v -0.070624 z m 0.94223,-0.2325435 v 1.1007056 h -0.62184 V 6.1876924 q -0.12402,0.1756995 -0.27905,0.2566591 -0.15503,0.079237 -0.37724,0.079237 -0.29972,0 -0.48748,-0.1739769 -0.18603,-0.1756995 -0.18603,-0.4547517 0,-0.3393411 0.23254,-0.4978152 0.23427,-0.158474 0.7338,-0.158474 h 0.36346 v -0.048231 q 0,-0.1464163 -0.11541,-0.2135955 -0.11541,-0.068902 -0.36001,-0.068902 -0.19809,0 -0.36863,0.039618 -0.17053,0.039619 -0.31694,0.1188555 V 4.5960618 q 0.19809,-0.048231 0.3979,-0.072347 0.19982,-0.025838 0.39963,-0.025838 0.52194,0 0.75276,0.2067053 0.23254,0.2049827 0.23254,0.668347 z"
         style="stroke-width:0.264583"
         id="path958" />
      <path
         d="m 127.5017,4.5443855 h 0.61667 l 0.51848,1.3091334 0.44097,-1.3091334 h 0.61667 l -0.81131,2.1118389 q -0.12231,0.3221157 -0.28595,0.449584 -0.16192,0.1291908 -0.42891,0.1291908 h -0.35657 V 6.8302013 h 0.19293 q 0.15675,0 0.22737,-0.049954 0.0724,-0.049954 0.11197,-0.1791445 l 0.0172,-0.053399 z"
         style="stroke-width:0.264583"
         id="path960" />
      <path
         d="M 131.98203,5.5038425 V 5.679542 h -1.44177 q 0.0224,0.2170405 0.15675,0.3255608 0.13436,0.1085202 0.37552,0.1085202 0.19464,0 0.3979,-0.056844 0.20499,-0.058567 0.42031,-0.1756995 v 0.4754221 q -0.21877,0.082682 -0.43753,0.1240232 -0.21876,0.043064 -0.43753,0.043064 -0.52365,0 -0.81476,-0.2652718 -0.28939,-0.2669943 -0.28939,-0.7475841 0,-0.471977 0.28422,-0.7424164 0.28594,-0.2704394 0.78548,-0.2704394 0.45475,0 0.72692,0.2738845 0.27388,0.2738845 0.27388,0.7320809 z m -0.6339,-0.2049828 q 0,-0.1756994 -0.10335,-0.2824972 -0.10163,-0.1085202 -0.26699,-0.1085202 -0.17915,0 -0.29111,0.10163 -0.11197,0.099908 -0.13953,0.2893874 z"
         style="stroke-width:0.264583"
         id="path962" />
      <path
         d="m 133.88027,5.0697614 q -0.081,-0.037896 -0.16191,-0.055121 -0.0792,-0.018948 -0.1602,-0.018948 -0.23771,0 -0.3669,0.1533064 -0.12747,0.1515839 -0.12747,0.4358036 v 0.8888327 h -0.61667 V 4.5443855 h 0.61667 v 0.3169481 q 0.11885,-0.1894799 0.27216,-0.2756071 0.15503,-0.08785 0.37035,-0.08785 0.031,0 0.0672,0.00345 0.0362,0.00172 0.10507,0.010335 z"
         style="stroke-width:0.264583"
         id="path964" />
    </g>
  </g>
</svg>
