<?xml version="1.0" encoding="UTF-8" standalone="no"?>
<svg
   xmlns:osb="http://www.openswatchbook.org/uri/2009/osb"
   xmlns:dc="http://purl.org/dc/elements/1.1/"
   xmlns:cc="http://creativecommons.org/ns#"
   xmlns:rdf="http://www.w3.org/1999/02/22-rdf-syntax-ns#"
   xmlns:svg="http://www.w3.org/2000/svg"
   xmlns="http://www.w3.org/2000/svg"
   xmlns:xlink="http://www.w3.org/1999/xlink"
   xmlns:sodipodi="http://sodipodi.sourceforge.net/DTD/sodipodi-0.dtd"
   xmlns:inkscape="http://www.inkscape.org/namespaces/inkscape"
   sodipodi:docname="jaguar_sensor_constellation.svg"
   inkscape:version="1.0 (1.0+r73+1)"
   id="svg20"
   version="1.1"
   viewBox="0 0 210 297"
   height="297mm"
   width="210mm">
  <defs
     id="defs14">
    <rect
       id="rect3912"
       height="12.677587"
       width="95.718201"
       y="80.355732"
       x="167.32878" />
    <rect
       id="rect3904"
       height="13.320693"
       width="77.015066"
       y="3.8844186"
       x="43.624114" />
    <linearGradient
       osb:paint="solid"
       id="linearGradient3898">
      <stop
         id="stop3896"
         offset="0"
         style="stop-color:#00ff00;stop-opacity:1;" />
    </linearGradient>
    <linearGradient
       gradientUnits="userSpaceOnUse"
       y2="70.762474"
       x2="38.874698"
       y1="70.762474"
       x1="15.714926"
       id="linearGradient3900"
       xlink:href="#linearGradient3898"
       inkscape:collect="always" />
    <rect
       x="167.32878"
       y="80.355736"
       width="102.6386"
       height="13.317143"
       id="rect3912-7" />
    <rect
       x="167.32878"
       y="80.355736"
       width="95.718201"
       height="12.677587"
       id="rect3942" />
  </defs>
  <sodipodi:namedview
     inkscape:window-maximized="1"
     inkscape:window-y="0"
     inkscape:window-x="0"
     inkscape:window-height="850"
     inkscape:window-width="1600"
     inkscape:snap-global="false"
     inkscape:snap-nodes="false"
     showgrid="false"
     inkscape:document-rotation="0"
     inkscape:current-layer="layer1"
     inkscape:document-units="mm"
     inkscape:cy="500.88496"
     inkscape:cx="541.77421"
     inkscape:zoom="0.76046505"
     inkscape:pageshadow="2"
     inkscape:pageopacity="0.0"
     borderopacity="1.0"
     bordercolor="#666666"
     pagecolor="#ffffff"
     id="base" />
  <metadata
     id="metadata17">
    <rdf:RDF>
      <cc:Work
         rdf:about="">
        <dc:format>image/svg+xml</dc:format>
        <dc:type
           rdf:resource="http://purl.org/dc/dcmitype/StillImage" />
        <dc:title></dc:title>
      </cc:Work>
    </rdf:RDF>
  </metadata>
  <g
     id="layer1"
     inkscape:groupmode="layer"
     inkscape:label="Layer 1">
    <path
       sodipodi:nodetypes="cccccccccccccccccccccccccccccccccccccccc"
       id="path869"
       d="m 72.986318,56.31639 0.33033,-7.048984 5.77916,-3.173705 8.86145,-2.663041 12.331022,-2.023972 12.18873,-1.393357 12.06377,-6.18554 8.19119,-3.470006 12.647,-0.697162 23.73125,0.129968 1.02763,-1.286555 4.1771,0.486344 0.53288,2.516402 8.06636,2.280346 10.15175,3.816828 11.30885,1.920235 0.76408,5.613858 -0.26039,6.237219 2.36039,2.108083 -1.01703,8.670481 -6.71478,2.626677 c -2.85418,0.152223 -8.10248,1.643331 -10.48006,0.37902 -0.63622,-5.73341 -0.69559,-8.011013 -2.61513,-10.510771 -2.25269,-2.862723 -5.20542,-3.955779 -8.17728,-3.213838 -2.8533,0.115585 -5.27481,1.174988 -7.16164,3.044595 -1.14608,1.384985 -2.47951,2.968943 -3.06832,5.598328 0.0372,2.411387 0.24506,4.917841 0.39027,7.185885 l -19.99956,-0.216034 c -13.99098,0.241482 -27.19185,0.33152 -40.25911,0.39595 l -5.51147,0.293883 c -0.71074,-3.798474 0.88965,-8.529651 -1.70608,-11.940376 -2.963242,-3.071586 -4.430032,-3.030425 -7.378822,-4.238819 -3.96983,-0.298569 -6.48368,1.453068 -9.22147,3.177982 -0.82469,1.193186 -1.73107,2.307722 -2.21279,3.831129 -0.50432,1.381342 -0.56124,2.207381 -0.76306,6.626501 0.0184,0.745116 0.40193,1.674214 0.43029,2.482785 -3.78958,-0.674469 -7.09144,-1.593476 -9.69003,-2.455477 l -0.15605,-1.616099 0.8726,-1.14709 z"
       style="fill:#ff0000;fill-opacity:1;stroke:#000000;stroke-width:0.264583px;stroke-linecap:butt;stroke-linejoin:miter;stroke-opacity:1" />
    <path
       sodipodi:nodetypes="ccccccccccccccccccccc"
       id="path871"
       d="m 177.35592,39.398137 -16.82255,0.06882 -18.22522,0.975507 -19.80715,0.79707 c -0.52462,-0.357772 -0.15142,-2.669712 -0.43478,-4.005094 l -2.48243,0.303224 -2.9678,2.047026 -0.57818,1.004411 0.40147,1.229407 -4.04674,5.37e-4 c 0.59061,-0.861577 1.81157,-1.552994 2.83018,-2.299034 l 13.11207,-6.000333 c 3.04007,-1.341922 6.42433,-2.294984 10.65924,-2.286962 l 10.70392,-0.708122 c 5.19654,0.04271 9.34715,0.210257 12.64021,0.480146 l 7.30342,1.028118 4.95304,1.487361 3.66593,1.378829 1.32842,0.931258 -0.16864,2.362183 z"
       style="fill:#2d2017;fill-opacity:1;stroke:#000000;stroke-width:0.264583px;stroke-linecap:butt;stroke-linejoin:miter;stroke-opacity:1" />
    <path
       sodipodi:nodetypes="cccccccccccc"
       id="path873"
       d="m 116.63437,42.331138 1.31707,0.711904 2.45585,-0.194375 2.2761,-0.625372 0.0975,-2.448622 -0.21407,-2.025292 c -0.49679,-0.478028 -1.01861,-0.605983 -1.79921,-0.354577 l -2.23465,0.790128 -1.59405,1.153359 -0.70983,1.059075 0.34402,1.357049 z"
       style="fill:#ff0000;stroke:#000000;stroke-width:0.264583px;stroke-linecap:butt;stroke-linejoin:miter;stroke-opacity:1" />
    <path
       sodipodi:nodetypes="ccccccccccccccccc"
       id="path875"
       d="m 82.611928,62.874201 0.0171,-3.162774 1.15282,-2.472172 2.23913,-2.371363 1.55309,-1.06415 c 1.08078,-0.691061 2.71835,-0.877544 4.53511,-0.901632 h 3.7677 l 2.26682,1.833365 c 0.79221,0.99613 1.6099,1.627252 2.191842,3.394873 l 0.74511,3.149557 -0.31971,4.078854 c -0.46705,1.497568 -1.324352,2.723878 -2.284562,3.878654 -1.78186,2.15834 -3.46669,2.288179 -5.48852,3.099716 -1.42841,-0.07214 -2.81942,0.0888 -4.36744,-0.728885 l -3.04401,-1.096952 -2.55152,-3.10622 z"
       style="fill:#000000;stroke:#000000;stroke-width:0.264583px;stroke-linecap:butt;stroke-linejoin:miter;stroke-opacity:1" />
    <path
       style="fill:#000000;stroke:#000000;stroke-width:0.264583px;stroke-linecap:butt;stroke-linejoin:miter;stroke-opacity:1"
       d="m 169.1334,62.208859 0.0171,-3.162774 1.15282,-2.472172 2.23913,-2.371363 1.55309,-1.06415 c 1.08078,-0.691061 2.71835,-0.877544 4.53511,-0.901632 h 3.7677 l 2.26682,1.833365 c 0.79221,0.99613 1.6099,1.627252 2.19184,3.394873 l 0.74511,3.149557 -0.31972,4.078854 c -0.46704,1.497568 -1.32434,2.723878 -2.28455,3.878654 -1.78186,2.15834 -3.24814,2.939132 -5.91992,3.251597 l -3.93604,-0.880766 -3.04402,-1.096952 -2.55151,-3.10622 z"
       id="path875-3"
       sodipodi:nodetypes="ccccccccccccccccc" />
    <path
       id="path892"
       d="m 174.03993,56.441911 c -1.83566,1.668738 -1.78933,2.09367 -1.78933,2.09367 l 2.89645,0.986673 0.76125,0.285412 0.3342,-0.484088 -0.23004,-0.237807 z"
       style="fill:#ffffff;stroke:#000000;stroke-width:0.264583px;stroke-linecap:butt;stroke-linejoin:miter;stroke-opacity:1" />
    <path
       style="fill:#f2f2f2;stroke:#000000;stroke-width:0.264583px;stroke-linecap:butt;stroke-linejoin:miter;stroke-opacity:1"
       d="m 179.21568,55.105006 c -2.47958,-0.07736 -2.74179,0.260221 -2.74179,0.260221 l 1.39528,2.72326 0.34856,0.734479 0.57681,-0.115461 6e-5,-0.330867 z"
       id="path892-6" />
    <path
       id="path892-6-7"
       d="m 184.55844,56.863268 c -1.59395,-1.900958 -2.0204,-1.871667 -2.0204,-1.871667 l -1.10178,2.854648 -0.31564,0.749215 0.47032,0.353308 0.24682,-0.220344 z"
       style="fill:#f2f2f2;stroke:#000000;stroke-width:0.264583px;stroke-linecap:butt;stroke-linejoin:miter;stroke-opacity:1" />
    <path
       inkscape:transform-center-y="0.26600741"
       inkscape:transform-center-x="0.41070342"
       style="fill:#f2f2f2;stroke:#000000;stroke-width:0.264583px;stroke-linecap:butt;stroke-linejoin:miter;stroke-opacity:1"
       d="m 184.71298,63.390704 c 1.0037,-2.268677 0.78943,-2.638546 0.78943,-2.638546 l -3.04801,0.269358 -0.81164,0.04693 -0.10981,0.577907 0.30658,0.124419 z"
       id="path892-6-7-5" />
    <path
       id="path892-6-7-5-3"
       d="m 181.52501,67.695545 c 2.20928,-1.128448 2.2761,-1.550641 2.2761,-1.550641 l -2.53594,-1.712292 -0.65965,-0.475204 -0.44954,0.379402 0.15956,0.289847 z"
       style="fill:#f2f2f2;stroke:#000000;stroke-width:0.264583px;stroke-linecap:butt;stroke-linejoin:miter;stroke-opacity:1"
       inkscape:transform-center-x="-0.055841978"
       inkscape:transform-center-y="-0.14988609" />
    <path
       inkscape:transform-center-y="-0.39685595"
       inkscape:transform-center-x="0.29555502"
       style="fill:#f2f2f2;stroke:#000000;stroke-width:0.264583px;stroke-linecap:butt;stroke-linejoin:miter;stroke-opacity:1"
       d="m 175.5105,67.673274 c 2.24253,1.060848 2.61771,0.85602 2.61771,0.85602 l -0.19206,-3.05386 -0.0264,-0.812565 -0.57494,-0.124416 -0.13215,0.303332 z"
       id="path892-6-7-5-3-5" />
    <path
       sodipodi:nodetypes="cccccccc"
       id="path892-6-7-5-3-5-6"
       d="m 171.77369,63.256434 c 0.96183,2.286742 1.37792,2.384629 1.37792,2.384629 l 0.92628,-1.174046 0.96901,-1.228208 0.52273,-0.622665 -0.34509,-0.476392 -0.30086,0.137675 z"
       style="fill:#f2f2f2;stroke:#000000;stroke-width:0.264583px;stroke-linecap:butt;stroke-linejoin:miter;stroke-opacity:1"
       inkscape:transform-center-x="0.19241925"
       inkscape:transform-center-y="0.51010088" />
    <path
       style="fill:#ffffff;stroke:#000000;stroke-width:0.264583px;stroke-linecap:butt;stroke-linejoin:miter;stroke-opacity:1"
       d="m 86.640385,57.134518 c -1.835652,1.741183 -1.789322,2.184563 -1.789322,2.184563 l 2.89645,1.029508 0.761245,0.297802 0.334205,-0.505104 -0.230044,-0.248131 z"
       id="path892-9" />
    <path
       id="path892-6-1"
       d="m 91.81614,55.739574 c -2.479581,-0.08072 -2.74179,0.271518 -2.74179,0.271518 l 1.395279,2.841485 0.348561,0.766365 0.576804,-0.120473 6.1e-5,-0.345231 z"
       style="fill:#f2f2f2;stroke:#000000;stroke-width:0.264583px;stroke-linecap:butt;stroke-linejoin:miter;stroke-opacity:1" />
    <path
       style="fill:#f2f2f2;stroke:#000000;stroke-width:0.264583px;stroke-linecap:butt;stroke-linejoin:miter;stroke-opacity:1"
       d="M 97.158897,57.574168 C 95.56495,55.590683 95.138503,55.621246 95.138503,55.621246 l -1.101785,2.978577 -0.315644,0.781741 0.470327,0.368646 0.246822,-0.22991 z"
       id="path892-6-7-2" />
    <path
       id="path892-6-7-5-7"
       d="m 97.313441,64.384979 c 1.003699,-2.367167 0.789432,-2.753093 0.789432,-2.753093 l -3.048015,0.281052 -0.811636,0.04897 -0.109811,0.602996 0.306582,0.12982 z"
       style="fill:#f2f2f2;stroke:#000000;stroke-width:0.264583px;stroke-linecap:butt;stroke-linejoin:miter;stroke-opacity:1"
       inkscape:transform-center-x="0.41070342"
       inkscape:transform-center-y="0.26600741" />
    <path
       inkscape:transform-center-y="-0.14988609"
       inkscape:transform-center-x="-0.055841978"
       style="fill:#f2f2f2;stroke:#000000;stroke-width:0.264583px;stroke-linecap:butt;stroke-linejoin:miter;stroke-opacity:1"
       d="m 94.12547,68.876707 c 2.20928,-1.177438 2.276102,-1.617959 2.276102,-1.617959 l -2.535942,-1.786628 -0.659649,-0.495834 -0.449544,0.395873 0.159566,0.30243 z"
       id="path892-6-7-5-3-0" />
    <path
       id="path892-6-7-5-3-5-9"
       d="m 88.110963,68.853469 c 2.242525,1.106902 2.617701,0.893182 2.617701,0.893182 l -0.192057,-3.186437 -0.02635,-0.847841 -0.57494,-0.129817 -0.132146,0.3165 z"
       style="fill:#f2f2f2;stroke:#000000;stroke-width:0.264583px;stroke-linecap:butt;stroke-linejoin:miter;stroke-opacity:1"
       inkscape:transform-center-x="0.29555502"
       inkscape:transform-center-y="-0.39685595" />
    <path
       inkscape:transform-center-y="0.51010088"
       inkscape:transform-center-x="0.19241925"
       style="fill:#f2f2f2;stroke:#000000;stroke-width:0.264583px;stroke-linecap:butt;stroke-linejoin:miter;stroke-opacity:1"
       d="m 84.374148,64.24488 c 0.961835,2.386017 1.377923,2.488153 1.377923,2.488153 l 0.926281,-1.225015 0.969011,-1.281527 0.522728,-0.649698 -0.345088,-0.497074 -0.300863,0.143653 z"
       id="path892-6-7-5-3-5-6-3"
       sodipodi:nodetypes="cccccccc" />
    <rect
       transform="matrix(0.99997707,-0.00677186,0.02710924,0.99963248,0,0)"
       inkscape:transform-center-y="0.20756541"
       inkscape:transform-center-x="-7.8402296"
       rx="0"
       ry="0"
       y="27.109049"
       x="140.67833"
       height="3.2904387"
       width="11.528578"
       id="rect1061"
       style="opacity:0.55;fill:#1a1a1a;fill-opacity:1;stroke:#0025ff;stroke-width:0.26461;stroke-opacity:1" />
    <ellipse
       ry="0.44874078"
       rx="0.62422633"
       cy="27.705082"
       cx="140.76781"
       id="path1067"
       style="opacity:0.55;fill:#e6e6e6;fill-opacity:1;stroke:#e20000;stroke-width:0.264583;stroke-opacity:1" />
    <ellipse
       ry="1.2899358"
       rx="1.0070825"
       cy="61.673923"
       cx="71.711731"
       id="path1071"
       style="opacity:0.881454;fill:#7280b3;fill-opacity:1;stroke:#e20000;stroke-width:0.264583;stroke-opacity:1" />
    <ellipse
       style="opacity:0.55;fill:#e6e6e6;fill-opacity:1;stroke:#e20000;stroke-width:0.264583;stroke-opacity:1"
       id="path1069-6"
       cx="147.52983"
       cy="25.414925"
       rx="0.73179322"
       ry="0.56208187" />
    <g
       transform="translate(1.1954308,0.43481956)"
       id="g1845">
      <path
         sodipodi:nodetypes="cccccccccccccccccccccccccccccccccccccccc"
         id="path869-0"
         d="m 136.02968,155.82712 -0.35079,-7.04562 -5.78835,-3.11772 -8.86915,-2.57726 -12.33684,-1.90464 -12.192723,-1.27541 -12.08168,-6.06869 -8.201228,-3.39068 -12.648975,-0.5748 -23.730768,0.35953 -1.03136,-1.27658 -4.175671,0.52674 -0.525573,2.52149 -8.059706,2.35833 -10.140627,3.91494 -11.303227,2.02959 -0.74778,5.62111 0.278496,6.23455 -2.354261,2.13087 1.042197,8.66044 6.722377,2.56165 c 2.85461,0.12461 7.961721,1.45583 10.335621,0.16855 0.619573,-5.73943 0.817826,-7.90847 2.730101,-10.42673 1.143654,-2.05244 4.242917,-4.00003 8.167916,-3.29287 2.853623,0.088 5.278199,1.12393 7.170448,2.97524 1.150096,1.37387 2.488119,2.94489 3.084559,5.56851 -0.0302,2.41169 -0.230782,4.9201 -0.369407,7.18949 l 19.998848,-0.4095 c 13.991622,0.10613 27.1927,0.0685 40.260093,0.006 l 5.6424,0.036 c 0.69971,-3.80525 -1.04451,-8.31632 1.54131,-11.75208 2.95431,-3.10018 4.42121,-3.0732 7.36648,-4.3101 3.96895,-0.33696 6.48787,1.39032 9.23066,3.0887 0.82815,1.18518 1.73776,2.29093 2.2239,3.80964 0.50833,1.37643 0.56765,2.20189 0.7823,6.61896 -0.0162,0.74527 -0.39707,1.67806 -0.42308,2.48689 3.7876,-0.71112 7.08678,-1.66204 9.68286,-2.54916 l 0.15135,-1.61757 -0.87592,-1.13862 z"
         style="fill:#ff0000;fill-opacity:1;stroke:#000000;stroke-width:0.264583px;stroke-linecap:butt;stroke-linejoin:miter;stroke-opacity:1" />
      <path
         sodipodi:nodetypes="ccccccccccccccccccccc"
         id="path871-3"
         d="m 31.611405,139.91891 16.822678,-0.0939 18.227974,0.79918 19.80938,0.60544 c 0.52358,-0.36283 0.14367,-2.67111 0.42315,-4.0092 l 2.4833,0.2792 2.97373,2.01827 0.58109,0.99879 -0.3979,1.23327 4.04673,-0.0386 c -0.59311,-0.85585 -1.81607,-1.53544 -2.83684,-2.27161 l -13.129438,-5.87334 c -3.043953,-1.31248 -6.430965,-2.23278 -10.665834,-2.1838 l -10.705932,-0.60455 c -5.196395,0.093 -9.346495,0.30067 -12.638766,0.60241 l -7.300398,1.09874 -4.948705,1.53524 -3.661908,1.41426 -1.325714,0.94409 0.175495,2.36049 z"
         style="fill:#2d2017;fill-opacity:1;stroke:#000000;stroke-width:0.264583px;stroke-linecap:butt;stroke-linejoin:miter;stroke-opacity:1" />
      <path
         sodipodi:nodetypes="cccccccccccc"
         id="path873-6"
         d="m 92.341207,142.26444 -1.31499,0.72463 -2.45641,-0.17061 -2.2779,-0.60334 -0.10461,-2.44762 0.20819,-2.02732 c 0.4954,-0.48282 1.01684,-0.61582 1.79817,-0.37197 l 2.23693,0.76849 1.5974,1.13791 0.7129,1.05218 -0.34008,1.36035 z"
         style="fill:#ff0000;stroke:#000000;stroke-width:0.264583px;stroke-linecap:butt;stroke-linejoin:miter;stroke-opacity:1" />
      <path
         sodipodi:nodetypes="ccccccccccccccccc"
         id="path875-1"
         d="m 126.42315,162.47789 -0.0263,-3.16253 -1.16,-2.46097 -2.246,-2.34964 -1.55617,-1.0491 c -1.08279,-0.68059 -2.72089,-0.85123 -4.53771,-0.85774 l -3.76769,0.0364 -2.26148,1.85525 c -0.78932,1.00377 -1.60517,1.64278 -2.18198,3.41599 l -0.73596,3.15669 0.33155,4.07567 c 0.47139,1.49301 1.33225,2.711 2.29581,3.85646 1.78811,2.14105 3.47331,2.25459 5.49749,3.04655 1.4282,-0.086 2.81967,0.0615 4.36531,-0.77112 l 3.04081,-1.12637 2.54249,-3.13083 z"
         style="fill:#000000;stroke:#000000;stroke-width:0.264583px;stroke-linecap:butt;stroke-linejoin:miter;stroke-opacity:1" />
      <path
         style="fill:#000000;stroke:#000000;stroke-width:0.264583px;stroke-linecap:butt;stroke-linejoin:miter;stroke-opacity:1"
         d="m 39.900109,162.64955 -0.02625,-3.16254 -1.159998,-2.46096 -2.245999,-2.34964 -1.556175,-1.0491 c -1.082784,-0.68059 -2.720884,-0.85123 -4.537708,-0.85774 l -3.767682,0.0365 -2.261493,1.85525 c -0.789309,1.00377 -1.605171,1.64278 -2.181973,3.41599 l -0.735965,3.15669 0.331556,4.07566 c 0.471389,1.49302 1.332245,2.71101 2.295806,3.85647 1.788116,2.14105 3.256656,2.90764 5.929331,3.19425 l 3.933471,-0.91882 3.040816,-1.12638 2.542483,-3.13082 z"
         id="path875-3-0"
         sodipodi:nodetypes="ccccccccccccccccc" />
      <path
         id="path892-3"
         d="m 34.976859,156.9302 c 1.840488,1.65094 1.795392,2.07631 1.795392,2.07631 l -2.893573,1.01467 -0.760414,0.29277 -0.335609,-0.48084 0.229353,-0.24003 z"
         style="fill:#ffffff;stroke:#000000;stroke-width:0.264583px;stroke-linecap:butt;stroke-linejoin:miter;stroke-opacity:1" />
      <path
         style="fill:#f2f2f2;stroke:#000000;stroke-width:0.264583px;stroke-linecap:butt;stroke-linejoin:miter;stroke-opacity:1"
         d="m 29.797244,155.6434 c 2.479346,-0.10135 2.742534,0.23369 2.742534,0.23369 l -1.387367,2.73669 -0.346428,0.73784 -0.577136,-0.10988 -10e-4,-0.33086 z"
         id="path892-6-2" />
      <path
         id="path892-6-7-0"
         d="m 24.459614,157.4533 c 1.588422,-1.91633 2.014952,-1.89116 2.014952,-1.89116 l 1.110067,2.84392 0.317818,0.74614 -0.469299,0.35785 -0.247461,-0.21795 z"
         style="fill:#f2f2f2;stroke:#000000;stroke-width:0.264583px;stroke-linecap:butt;stroke-linejoin:miter;stroke-opacity:1" />
      <path
         inkscape:transform-center-y="0.26600741"
         inkscape:transform-center-x="0.41070342"
         style="fill:#f2f2f2;stroke:#000000;stroke-width:0.264583px;stroke-linecap:butt;stroke-linejoin:miter;stroke-opacity:1"
         d="m 24.32402,163.98208 c -1.010281,-2.25892 -0.797088,-2.63085 -0.797088,-2.63085 l 3.048784,0.23987 0.811768,0.0391 0.111489,0.57683 -0.30622,0.12739 z"
         id="path892-6-7-5-6" />
      <path
         id="path892-6-7-5-3-1"
         d="m 27.524475,168.25598 c -2.212547,-1.10705 -2.280594,-1.52859 -2.280594,-1.52859 l 2.53096,-1.73678 0.658267,-0.48158 0.450643,0.37505 -0.158724,0.29138 z"
         style="fill:#f2f2f2;stroke:#000000;stroke-width:0.264583px;stroke-linecap:butt;stroke-linejoin:miter;stroke-opacity:1"
         inkscape:transform-center-x="-0.055841978"
         inkscape:transform-center-y="-0.14988609" />
      <path
         inkscape:transform-center-y="-0.39685595"
         inkscape:transform-center-x="0.29555502"
         style="fill:#f2f2f2;stroke:#000000;stroke-width:0.264583px;stroke-linecap:butt;stroke-linejoin:miter;stroke-opacity:1"
         d="m 33.538892,168.17552 c -2.239436,1.08252 -2.615205,0.88133 -2.615205,0.88133 l 0.183191,-3.05565 0.02399,-0.8128 0.574577,-0.12997 0.133026,0.30204 z"
         id="path892-6-7-5-3-5-5" />
      <path
         sodipodi:nodetypes="cccccccc"
         id="path892-6-7-5-3-5-6-5"
         d="m 37.262869,163.72264 c -0.955193,2.29599 -1.370995,2.3979 -1.370995,2.3979 l -0.929685,-1.16506 -0.972573,-1.2188 -0.524533,-0.61759 0.343704,-0.47972 0.301261,0.13476 z"
         style="fill:#f2f2f2;stroke:#000000;stroke-width:0.264583px;stroke-linecap:butt;stroke-linejoin:miter;stroke-opacity:1"
         inkscape:transform-center-x="0.19241925"
         inkscape:transform-center-y="0.51010088" />
      <path
         style="fill:#ffffff;stroke:#000000;stroke-width:0.264583px;stroke-linecap:butt;stroke-linejoin:miter;stroke-opacity:1"
         d="m 122.37804,156.77731 c 1.8407,1.72338 1.79566,2.1672 1.79566,2.1672 l -2.89345,1.0575 -0.76038,0.30516 -0.33567,-0.50185 0.22932,-0.25036 z"
         id="path892-9-7" />
      <path
         id="path892-6-1-6"
         d="m 117.19826,155.43247 c 2.47933,-0.1047 2.74256,0.24499 2.74256,0.24499 l -1.38702,2.85491 -0.34634,0.76972 -0.57715,-0.11489 -10e-4,-0.34522 z"
         style="fill:#f2f2f2;stroke:#000000;stroke-width:0.264583px;stroke-linecap:butt;stroke-linejoin:miter;stroke-opacity:1" />
      <path
         style="fill:#f2f2f2;stroke:#000000;stroke-width:0.264583px;stroke-linecap:butt;stroke-linejoin:miter;stroke-opacity:1"
         d="m 111.86085,157.3187 c 1.58818,-1.99885 2.01471,-1.97242 2.01471,-1.97242 l 1.11043,2.96785 0.31791,0.77867 -0.46925,0.37319 -0.24749,-0.22752 z"
         id="path892-6-7-2-5" />
      <path
         id="path892-6-7-5-7-6"
         d="m 111.72608,164.13085 c -1.01057,-2.3574 -0.79742,-2.74539 -0.79742,-2.74539 l 3.04881,0.25156 0.81178,0.0411 0.11156,0.60192 -0.3062,0.13278 z"
         style="fill:#f2f2f2;stroke:#000000;stroke-width:0.264583px;stroke-linecap:butt;stroke-linejoin:miter;stroke-opacity:1"
         inkscape:transform-center-x="0.41070342"
         inkscape:transform-center-y="0.26600741" />
      <path
         inkscape:transform-center-y="-0.14988609"
         inkscape:transform-center-x="-0.055841978"
         style="fill:#f2f2f2;stroke:#000000;stroke-width:0.264583px;stroke-linecap:butt;stroke-linejoin:miter;stroke-opacity:1"
         d="m 114.92707,168.59163 c -2.21268,-1.15604 -2.28079,-1.5959 -2.28079,-1.5959 l 2.53075,-1.81112 0.65821,-0.5022 0.45069,0.39151 -0.15869,0.30397 z"
         id="path892-6-7-5-3-0-9" />
      <path
         id="path892-6-7-5-3-5-9-3"
         d="m 120.94149,168.51021 c -2.2393,1.12857 -2.6151,0.91848 -2.6151,0.91848 l 0.18281,-3.18822 0.0239,-0.84807 0.57456,-0.13538 0.13306,0.31522 z"
         style="fill:#f2f2f2;stroke:#000000;stroke-width:0.264583px;stroke-linecap:butt;stroke-linejoin:miter;stroke-opacity:1"
         inkscape:transform-center-x="0.29555502"
         inkscape:transform-center-y="-0.39685595" />
      <path
         inkscape:transform-center-y="0.51010088"
         inkscape:transform-center-x="0.19241925"
         style="fill:#f2f2f2;stroke:#000000;stroke-width:0.264583px;stroke-linecap:butt;stroke-linejoin:miter;stroke-opacity:1"
         d="m 124.66491,163.86558 c -0.95491,2.39526 -1.3707,2.50142 -1.3707,2.50142 l -0.92983,-1.21602 -0.97273,-1.27212 -0.52461,-0.64463 0.34365,-0.5004 0.30127,0.14074 z"
         id="path892-6-7-5-3-5-6-3-7"
         sodipodi:nodetypes="cccccccc" />
      <rect
         transform="matrix(-0.99999579,0.00290182,-0.02420319,0.99970706,0,0)"
         inkscape:transform-center-y="0.20756541"
         inkscape:transform-center-x="-7.8402296"
         rx="0"
         ry="0"
         y="126.56169"
         x="-70.582184"
         height="3.2909777"
         width="11.52854"
         id="rect1061-5"
         style="opacity:0.55;fill:#1a1a1a;fill-opacity:1;stroke:#2a45ed;stroke-width:0.264631;stroke-opacity:1" />
      <ellipse
         ry="0.44873196"
         rx="0.62425292"
         cy="128.52855"
         cx="-67.795456"
         id="path1067-2"
         style="opacity:0.55;fill:#e6e6e6;fill-opacity:1;stroke:#e20000;stroke-width:0.264586;stroke-opacity:1"
         transform="matrix(-0.99995321,0.00967332,0.00290309,0.99999579,0,0)" />
      <ellipse
         ry="0.56207085"
         rx="0.7318244"
         cy="126.09006"
         cx="-61.256908"
         id="path1069-5"
         style="opacity:0.55;fill:#e6e6e6;fill-opacity:1;stroke:#e20000;stroke-width:0.264586;stroke-opacity:1"
         transform="matrix(-0.99995321,0.00967332,0.00290309,0.99999579,0,0)" />
      <ellipse
         ry="1.2899104"
         rx="1.0071254"
         cy="162.49672"
         cx="-136.85446"
         id="path1071-4"
         style="opacity:0.881454;fill:#7280b3;fill-opacity:1;stroke:#e20000;stroke-width:0.264586;stroke-opacity:1"
         transform="matrix(-0.99995321,0.00967332,0.00290309,0.99999579,0,0)" />
    </g>
    <path
       id="path1892"
       d="M 7.3153884,5.4166077 7.4329824,43.135379 139.90029,27.303078 Z"
       style="fill:#f4c51c;fill-opacity:1;stroke:#000000;stroke-width:0.264585px;stroke-linecap:butt;stroke-linejoin:miter;stroke-opacity:1" />
    <g
       transform="translate(2.1544394,2.6907821)"
       id="g1932">
      <path
         style="fill:none;fill-opacity:1;stroke:#000000;stroke-width:0.264583px;stroke-linecap:butt;stroke-linejoin:miter;stroke-opacity:1"
         d="M 1.4696687,53.323606 1.7860757,65.084745 68.283682,59.01891 Z"
         id="path1894" />
      <path
         style="fill:#ed4f00;fill-opacity:1;stroke:#000000;stroke-width:0.264583px;stroke-linecap:butt;stroke-linejoin:miter;stroke-opacity:1"
         d="M 66.650486,59.063215 43.091668,57.012236 c -1.991426,1.246017 -2.283967,2.577447 -0.08833,4.03397 l 0.787157,0.0236 4.85072,-0.411674 z"
         id="path1925"
         sodipodi:nodetypes="cccccc" />
      <path
         style="fill:#00ff00;stroke:#000000;stroke-width:0.264583px;stroke-linecap:butt;stroke-linejoin:miter;stroke-opacity:1"
         d="M 1.5723354,53.522228 1.8454045,65.030145 42.849985,61.225829 41.493204,59.638116 c 0.02806,-0.488272 -0.09503,-0.981953 0.139564,-1.418623 l 1.395234,-1.323036 z"
         id="path1927"
         sodipodi:nodetypes="ccccccc" />
    </g>
    <text
       transform="scale(0.99952693,1.0004733)"
       id="text1936"
       y="74.123154"
       x="17.930761"
       style="font-style:normal;font-weight:normal;font-size:8.13153px;line-height:1.25;font-family:sans-serif;fill:#0079ff;fill-opacity:1;fill-rule:nonzero;stroke:none;stroke-width:0.264583"
       xml:space="preserve"><tspan
         style="fill:#0079ff;fill-opacity:1;fill-rule:nonzero;stroke-width:0.264583"
         y="74.123154"
         x="17.930761"
         id="tspan1934"
         sodipodi:role="line">Radar</tspan></text>
    <text
       transform="translate(-26.326537,16.461976)"
       style="font-style:normal;font-weight:normal;font-size:10.5833px;line-height:1.25;font-family:sans-serif;white-space:pre;shape-inside:url(#rect3904);fill:#000000;fill-opacity:1;stroke:none;"
       id="text3902"
       xml:space="preserve"><tspan
         x="43.625"
         y="13.248505"><tspan>RGB &amp; Depth </tspan></tspan></text>
    <path
       id="path3908"
       d="m 137.88132,110.23448 27.56466,0.37533 -17.79824,-85.088926 z"
       style="fill:#f4c51c;fill-opacity:1;stroke:#000000;stroke-width:0.264583px;stroke-linecap:butt;stroke-linejoin:miter;stroke-opacity:1" />
    <text
       transform="translate(-67.358358,10.709453)"
       style="font-style:normal;font-weight:normal;font-size:10.5833px;line-height:1.25;font-family:sans-serif;white-space:pre;shape-inside:url(#rect3912);fill:#000000;fill-opacity:1;stroke:none;"
       id="text3910"
       xml:space="preserve"><tspan
         x="167.32812"
         y="89.719208"><tspan>Left RGB &amp; Depth</tspan></tspan></text>
    <path
       style="fill:#f4c51c;fill-opacity:1;stroke:#000000;stroke-width:0.264583px;stroke-linecap:butt;stroke-linejoin:miter;stroke-opacity:1"
       d="M 52.288425,211.33211 81.85673,211.70577 62.764755,126.9958 Z"
       id="path3908-9" />
    <text
       xml:space="preserve"
       id="text3910-7"
       style="font-style:normal;font-weight:normal;font-size:10.5833px;line-height:1.25;font-family:sans-serif;white-space:pre;shape-inside:url(#rect3912-7);fill:#000000;fill-opacity:1;stroke:none;stroke-width:1.0111;"
       transform="matrix(1.0279213,0,0,0.95159002,-141.5052,136.87531)"><tspan
         x="167.32812"
         y="89.719208"><tspan
           style="stroke-width:1.0111">Right RGB &amp; Depth</tspan></tspan></text>
  </g>
</svg>
