<?xml version="1.0" encoding="UTF-8" standalone="no"?>
<svg
   xmlns:osb="http://www.openswatchbook.org/uri/2009/osb"
   xmlns:dc="http://purl.org/dc/elements/1.1/"
   xmlns:cc="http://creativecommons.org/ns#"
   xmlns:rdf="http://www.w3.org/1999/02/22-rdf-syntax-ns#"
   xmlns:svg="http://www.w3.org/2000/svg"
   xmlns="http://www.w3.org/2000/svg"
   xmlns:sodipodi="http://sodipodi.sourceforge.net/DTD/sodipodi-0.dtd"
   xmlns:inkscape="http://www.inkscape.org/namespaces/inkscape"
   inkscape:export-ydpi="96"
   inkscape:export-xdpi="96"
   inkscape:export-filename="/home/kaladin/Documents/arbeit/real/figures/inkscape/jaguar_sensor_constellation.png"
   sodipodi:docname="jaguarsensorconstellation.svg"
   inkscape:version="1.0 (1.0+r73+1)"
   id="svg20"
   version="1.1"
   viewBox="0 0 210 297"
   height="297mm"
   width="210mm">
  <defs
     id="defs14">
    <rect
       id="rect1172"
       height="18.17449"
       width="139.00321"
       y="188.10924"
       x="26.422463" />
    <rect
       id="rect1166"
       height="10.302729"
       width="90.601507"
       y="193.00517"
       x="34.417127" />
    <rect
       x="167.32878"
       y="80.355732"
       width="95.718201"
       height="12.677587"
       id="rect3912" />
    <rect
       x="43.624114"
       y="3.8844186"
       width="77.015066"
       height="13.320693"
       id="rect3904" />
    <linearGradient
       id="linearGradient3898"
       osb:paint="solid">
      <stop
         style="stop-color:#00ff00;stop-opacity:1;"
         offset="0"
         id="stop3896" />
    </linearGradient>
    <rect
       id="rect3912-7"
       height="13.317143"
       width="102.6386"
       y="80.355736"
       x="167.32878" />
    <rect
       id="rect3942"
       height="12.677587"
       width="95.718201"
       y="80.355736"
       x="167.32878" />
  </defs>
  <sodipodi:namedview
     inkscape:pagecheckerboard="true"
     id="base"
     pagecolor="#ffffff"
     bordercolor="#666666"
     borderopacity="1.0"
     inkscape:pageopacity="0.0"
     inkscape:pageshadow="2"
     inkscape:zoom="8.60368"
     inkscape:cx="249.13632"
     inkscape:cy="244.28481"
     inkscape:document-units="mm"
     inkscape:current-layer="text3902"
     inkscape:document-rotation="0"
     showgrid="false"
     inkscape:snap-nodes="false"
     inkscape:snap-global="false"
     inkscape:window-width="1600"
     inkscape:window-height="850"
     inkscape:window-x="0"
     inkscape:window-y="0"
     inkscape:window-maximized="1" />
  <metadata
     id="metadata17">
    <rdf:RDF>
      <cc:Work
         rdf:about="">
        <dc:format>image/svg+xml</dc:format>
        <dc:type
           rdf:resource="http://purl.org/dc/dcmitype/StillImage" />
        <dc:title></dc:title>
      </cc:Work>
    </rdf:RDF>
  </metadata>
  <g
     inkscape:label="Layer 1"
     inkscape:groupmode="layer"
     id="layer1">
    <g
       id="g4243"
       transform="matrix(1,0,0,1.0376415,-0.86365335,33.771572)"
       style="stroke-width:0.981694">
      <g
         id="g1051">
        <path
           style="fill:#ff0000;fill-opacity:1;stroke:#000000;stroke-width:0.25974px;stroke-linecap:butt;stroke-linejoin:miter;stroke-opacity:1"
           d="m 72.986318,56.31639 0.33033,-7.048984 5.77916,-3.173705 8.86145,-2.663041 12.331022,-2.023972 12.18873,-1.393357 12.06377,-6.18554 8.19119,-3.470006 12.647,-0.697162 23.73125,0.129968 1.02763,-1.286555 4.1771,0.486344 0.53288,2.516402 8.06636,2.280346 10.15175,3.816828 11.30885,1.920235 0.76408,5.613858 -0.26039,6.237219 2.36039,2.108083 -1.01703,8.670481 -6.71478,2.626677 c -2.85418,0.152223 -8.10248,1.643331 -10.48006,0.37902 -0.63622,-5.73341 -0.69559,-8.011013 -2.61513,-10.510771 -2.25269,-2.862723 -5.20542,-3.955779 -8.17728,-3.213838 -2.8533,0.115585 -5.27481,1.174988 -7.16164,3.044595 -1.14608,1.384985 -2.47951,2.968943 -3.06832,5.598328 0.0372,2.411387 0.24506,4.917841 0.39027,7.185885 l -19.99956,-0.216034 c -13.99098,0.241482 -27.19185,0.33152 -40.25911,0.39595 l -5.51147,0.293883 c -0.71074,-3.798474 0.88965,-8.529651 -1.70608,-11.940376 -2.963242,-3.071586 -4.430032,-3.030425 -7.378822,-4.238819 -3.96983,-0.298569 -6.48368,1.453068 -9.22147,3.177982 -0.82469,1.193186 -1.73107,2.307722 -2.21279,3.831129 -0.50432,1.381342 -0.56124,2.207381 -0.76306,6.626501 0.0184,0.745116 0.40193,1.674214 0.43029,2.482785 -3.78958,-0.674469 -7.09144,-1.593476 -9.69003,-2.455477 l -0.15605,-1.616099 0.8726,-1.14709 z"
           id="path869"
           sodipodi:nodetypes="cccccccccccccccccccccccccccccccccccccccc" />
        <path
           style="fill:#2d2017;fill-opacity:1;stroke:#000000;stroke-width:0.25974px;stroke-linecap:butt;stroke-linejoin:miter;stroke-opacity:1"
           d="m 177.35592,39.398137 -16.82255,0.06882 -18.22522,0.975507 -19.80715,0.79707 c -0.52462,-0.357772 -0.15142,-2.669712 -0.43478,-4.005094 l -2.48243,0.303224 -2.9678,2.047026 -0.57818,1.004411 0.40147,1.229407 -4.04674,5.37e-4 c 0.59061,-0.861577 1.81157,-1.552994 2.83018,-2.299034 l 13.11207,-6.000333 c 3.04007,-1.341922 6.42433,-2.294984 10.65924,-2.286962 l 10.70392,-0.708122 c 5.19654,0.04271 9.34715,0.210257 12.64021,0.480146 l 7.30342,1.028118 4.95304,1.487361 3.66593,1.378829 1.32842,0.931258 -0.16864,2.362183 z"
           id="path871"
           sodipodi:nodetypes="ccccccccccccccccccccc" />
        <path
           style="fill:#ff0000;stroke:#000000;stroke-width:0.25974px;stroke-linecap:butt;stroke-linejoin:miter;stroke-opacity:1"
           d="m 116.63437,42.331138 1.31707,0.711904 2.45585,-0.194375 2.2761,-0.625372 0.0975,-2.448622 -0.21407,-2.025292 c -0.49679,-0.478028 -1.01861,-0.605983 -1.79921,-0.354577 l -2.23465,0.790128 -1.59405,1.153359 -0.70983,1.059075 0.34402,1.357049 z"
           id="path873"
           sodipodi:nodetypes="cccccccccccc" />
        <path
           style="fill:#000000;stroke:#000000;stroke-width:0.25974px;stroke-linecap:butt;stroke-linejoin:miter;stroke-opacity:1"
           d="m 82.611928,62.874201 0.0171,-3.162774 1.15282,-2.472172 2.23913,-2.371363 1.55309,-1.06415 c 1.08078,-0.691061 2.71835,-0.877544 4.53511,-0.901632 h 3.7677 l 2.26682,1.833365 c 0.79221,0.99613 1.6099,1.627252 2.191842,3.394873 l 0.74511,3.149557 -0.31971,4.078854 c -0.46705,1.497568 -1.324352,2.723878 -2.284562,3.878654 -1.78186,2.15834 -3.46669,2.288179 -5.48852,3.099716 -1.42841,-0.07214 -2.81942,0.0888 -4.36744,-0.728885 l -3.04401,-1.096952 -2.55152,-3.10622 z"
           id="path875"
           sodipodi:nodetypes="ccccccccccccccccc" />
        <path
           sodipodi:nodetypes="ccccccccccccccccc"
           id="path875-3"
           d="m 169.1334,62.208859 0.0171,-3.162774 1.15282,-2.472172 2.23913,-2.371363 1.55309,-1.06415 c 1.08078,-0.691061 2.71835,-0.877544 4.53511,-0.901632 h 3.7677 l 2.26682,1.833365 c 0.79221,0.99613 1.6099,1.627252 2.19184,3.394873 l 0.74511,3.149557 -0.31972,4.078854 c -0.46704,1.497568 -1.32434,2.723878 -2.28455,3.878654 -1.78186,2.15834 -3.24814,2.939132 -5.91992,3.251597 l -3.93604,-0.880766 -3.04402,-1.096952 -2.55151,-3.10622 z"
           style="fill:#000000;stroke:#000000;stroke-width:0.25974px;stroke-linecap:butt;stroke-linejoin:miter;stroke-opacity:1" />
        <path
           style="fill:#ffffff;stroke:#000000;stroke-width:0.25974px;stroke-linecap:butt;stroke-linejoin:miter;stroke-opacity:1"
           d="m 174.03993,56.441911 c -1.83566,1.668738 -1.78933,2.09367 -1.78933,2.09367 l 2.89645,0.986673 0.76125,0.285412 0.3342,-0.484088 -0.23004,-0.237807 z"
           id="path892" />
        <path
           id="path892-6"
           d="m 179.21568,55.105006 c -2.47958,-0.07736 -2.74179,0.260221 -2.74179,0.260221 l 1.39528,2.72326 0.34856,0.734479 0.57681,-0.115461 6e-5,-0.330867 z"
           style="fill:#f2f2f2;stroke:#000000;stroke-width:0.25974px;stroke-linecap:butt;stroke-linejoin:miter;stroke-opacity:1" />
        <path
           style="fill:#f2f2f2;stroke:#000000;stroke-width:0.25974px;stroke-linecap:butt;stroke-linejoin:miter;stroke-opacity:1"
           d="m 184.55844,56.863268 c -1.59395,-1.900958 -2.0204,-1.871667 -2.0204,-1.871667 l -1.10178,2.854648 -0.31564,0.749215 0.47032,0.353308 0.24682,-0.220344 z"
           id="path892-6-7" />
        <path
           id="path892-6-7-5"
           d="m 184.71298,63.390704 c 1.0037,-2.268677 0.78943,-2.638546 0.78943,-2.638546 l -3.04801,0.269358 -0.81164,0.04693 -0.10981,0.577907 0.30658,0.124419 z"
           style="fill:#f2f2f2;stroke:#000000;stroke-width:0.25974px;stroke-linecap:butt;stroke-linejoin:miter;stroke-opacity:1"
           inkscape:transform-center-x="0.41070342"
           inkscape:transform-center-y="0.26600741" />
        <path
           inkscape:transform-center-y="-0.14988609"
           inkscape:transform-center-x="-0.055841978"
           style="fill:#f2f2f2;stroke:#000000;stroke-width:0.25974px;stroke-linecap:butt;stroke-linejoin:miter;stroke-opacity:1"
           d="m 181.52501,67.695545 c 2.20928,-1.128448 2.2761,-1.550641 2.2761,-1.550641 l -2.53594,-1.712292 -0.65965,-0.475204 -0.44954,0.379402 0.15956,0.289847 z"
           id="path892-6-7-5-3" />
        <path
           id="path892-6-7-5-3-5"
           d="m 175.5105,67.673274 c 2.24253,1.060848 2.61771,0.85602 2.61771,0.85602 l -0.19206,-3.05386 -0.0264,-0.812565 -0.57494,-0.124416 -0.13215,0.303332 z"
           style="fill:#f2f2f2;stroke:#000000;stroke-width:0.25974px;stroke-linecap:butt;stroke-linejoin:miter;stroke-opacity:1"
           inkscape:transform-center-x="0.29555502"
           inkscape:transform-center-y="-0.39685595" />
        <path
           inkscape:transform-center-y="0.51010088"
           inkscape:transform-center-x="0.19241925"
           style="fill:#f2f2f2;stroke:#000000;stroke-width:0.25974px;stroke-linecap:butt;stroke-linejoin:miter;stroke-opacity:1"
           d="m 171.77369,63.256434 c 0.96183,2.286742 1.37792,2.384629 1.37792,2.384629 l 0.92628,-1.174046 0.96901,-1.228208 0.52273,-0.622665 -0.34509,-0.476392 -0.30086,0.137675 z"
           id="path892-6-7-5-3-5-6"
           sodipodi:nodetypes="cccccccc" />
        <path
           id="path892-9"
           d="m 86.640385,57.134518 c -1.835652,1.741183 -1.789322,2.184563 -1.789322,2.184563 l 2.89645,1.029508 0.761245,0.297802 0.334205,-0.505104 -0.230044,-0.248131 z"
           style="fill:#ffffff;stroke:#000000;stroke-width:0.25974px;stroke-linecap:butt;stroke-linejoin:miter;stroke-opacity:1" />
        <path
           style="fill:#f2f2f2;stroke:#000000;stroke-width:0.25974px;stroke-linecap:butt;stroke-linejoin:miter;stroke-opacity:1"
           d="m 91.81614,55.739574 c -2.479581,-0.08072 -2.74179,0.271518 -2.74179,0.271518 l 1.395279,2.841485 0.348561,0.766365 0.576804,-0.120473 6.1e-5,-0.345231 z"
           id="path892-6-1" />
        <path
           id="path892-6-7-2"
           d="M 97.158897,57.574168 C 95.56495,55.590683 95.138503,55.621246 95.138503,55.621246 l -1.101785,2.978577 -0.315644,0.781741 0.470327,0.368646 0.246822,-0.22991 z"
           style="fill:#f2f2f2;stroke:#000000;stroke-width:0.25974px;stroke-linecap:butt;stroke-linejoin:miter;stroke-opacity:1" />
        <path
           inkscape:transform-center-y="0.26600741"
           inkscape:transform-center-x="0.41070342"
           style="fill:#f2f2f2;stroke:#000000;stroke-width:0.25974px;stroke-linecap:butt;stroke-linejoin:miter;stroke-opacity:1"
           d="m 97.313441,64.384979 c 1.003699,-2.367167 0.789432,-2.753093 0.789432,-2.753093 l -3.048015,0.281052 -0.811636,0.04897 -0.109811,0.602996 0.306582,0.12982 z"
           id="path892-6-7-5-7" />
        <path
           id="path892-6-7-5-3-0"
           d="m 94.12547,68.876707 c 2.20928,-1.177438 2.276102,-1.617959 2.276102,-1.617959 l -2.535942,-1.786628 -0.659649,-0.495834 -0.449544,0.395873 0.159566,0.30243 z"
           style="fill:#f2f2f2;stroke:#000000;stroke-width:0.25974px;stroke-linecap:butt;stroke-linejoin:miter;stroke-opacity:1"
           inkscape:transform-center-x="-0.055841978"
           inkscape:transform-center-y="-0.14988609" />
        <path
           inkscape:transform-center-y="-0.39685595"
           inkscape:transform-center-x="0.29555502"
           style="fill:#f2f2f2;stroke:#000000;stroke-width:0.25974px;stroke-linecap:butt;stroke-linejoin:miter;stroke-opacity:1"
           d="m 88.110963,68.853469 c 2.242525,1.106902 2.617701,0.893182 2.617701,0.893182 l -0.192057,-3.186437 -0.02635,-0.847841 -0.57494,-0.129817 -0.132146,0.3165 z"
           id="path892-6-7-5-3-5-9" />
        <path
           sodipodi:nodetypes="cccccccc"
           id="path892-6-7-5-3-5-6-3"
           d="m 84.374148,64.24488 c 0.961835,2.386017 1.377923,2.488153 1.377923,2.488153 l 0.926281,-1.225015 0.969011,-1.281527 0.522728,-0.649698 -0.345088,-0.497074 -0.300863,0.143653 z"
           style="fill:#f2f2f2;stroke:#000000;stroke-width:0.25974px;stroke-linecap:butt;stroke-linejoin:miter;stroke-opacity:1"
           inkscape:transform-center-x="0.19241925"
           inkscape:transform-center-y="0.51010088" />
        <path
           id="rect1061"
           style="opacity:0.55;fill:#1a1a1a;fill-opacity:1;stroke:#0025ff;stroke-width:0.259739;stroke-opacity:1"
           inkscape:transform-center-x="-7.8402296"
           inkscape:transform-center-y="0.20756541"
           d="m 141.41001,26.146432 11.52832,-0.07807 0.0892,3.289229 -11.52832,0.07807 z" />
        <path
           id="path1067"
           style="opacity:0.55;fill:#e6e6e6;fill-opacity:1;stroke:#e20000;stroke-width:0.25974;stroke-opacity:1"
           d="m 141.39203,27.705082 a 0.62422633,0.44874078 0 0 1 -0.62422,0.448741 0.62422633,0.44874078 0 0 1 -0.62423,-0.448741 0.62422633,0.44874078 0 0 1 0.62423,-0.448741 0.62422633,0.44874078 0 0 1 0.62422,0.448741" />
        <path
           id="path1071"
           style="opacity:0.881454;fill:#7280b3;fill-opacity:1;stroke:#e20000;stroke-width:0.25974;stroke-opacity:1"
           d="m 72.718813,61.673923 a 1.0070825,1.2899358 0 0 1 -1.007082,1.289936 1.0070825,1.2899358 0 0 1 -1.007083,-1.289936 1.0070825,1.2899358 0 0 1 1.007083,-1.289935 1.0070825,1.2899358 0 0 1 1.007082,1.289935" />
        <path
           id="path1069-6"
           style="opacity:0.55;fill:#e6e6e6;fill-opacity:1;stroke:#e20000;stroke-width:0.25974;stroke-opacity:1"
           d="m 148.26162,25.414925 a 0.73179322,0.56208187 0 0 1 -0.73179,0.562081 0.73179322,0.56208187 0 0 1 -0.73179,-0.562081 0.73179322,0.56208187 0 0 1 0.73179,-0.562082 0.73179322,0.56208187 0 0 1 0.73179,0.562082" />
        <path
           sodipodi:nodetypes="cccccccccccccccccccccccccccccccccccccccc"
           id="path869-0"
           d="m 137.22511,156.26194 -0.35079,-7.04562 -5.78835,-3.11772 -8.86915,-2.57726 -12.33684,-1.90464 -12.192722,-1.27541 -12.08168,-6.06869 -8.201228,-3.39068 -12.648975,-0.5748 -23.730768,0.35953 -1.03136,-1.27658 -4.175671,0.52674 -0.525573,2.52149 -8.059706,2.35833 -10.140627,3.91494 -11.3032272,2.02959 -0.74778,5.62111 0.278496,6.23455 -2.354261,2.13087 1.042197,8.66044 6.7223772,2.56165 c 2.85461,0.12461 7.961721,1.45583 10.335621,0.16855 0.619573,-5.73943 0.817826,-7.90847 2.730101,-10.42673 1.143654,-2.05244 4.242917,-4.00003 8.167916,-3.29287 2.853623,0.088 5.278199,1.12393 7.170448,2.97524 1.150096,1.37387 2.488119,2.94489 3.084559,5.56851 -0.0302,2.41169 -0.230782,4.9201 -0.369407,7.18949 l 19.998848,-0.4095 c 13.991622,0.10613 27.1927,0.0685 40.260092,0.006 l 5.6424,0.036 c 0.69971,-3.80525 -1.04451,-8.31632 1.54131,-11.75208 2.95431,-3.10018 4.42121,-3.0732 7.36648,-4.3101 3.96895,-0.33696 6.48787,1.39032 9.23066,3.0887 0.82815,1.18518 1.73776,2.29093 2.2239,3.80964 0.50833,1.37643 0.56765,2.20189 0.7823,6.61896 -0.0162,0.74527 -0.39707,1.67806 -0.42308,2.48689 3.7876,-0.71112 7.08678,-1.66204 9.68286,-2.54916 l 0.15135,-1.61757 -0.87592,-1.13862 z"
           style="fill:#ff0000;fill-opacity:1;stroke:#000000;stroke-width:0.25974px;stroke-linecap:butt;stroke-linejoin:miter;stroke-opacity:1" />
        <path
           sodipodi:nodetypes="ccccccccccccccccccccc"
           id="path871-3"
           d="m 32.806836,140.35373 16.822678,-0.0939 18.227974,0.79918 19.80938,0.60544 c 0.52358,-0.36283 0.14367,-2.67111 0.42315,-4.0092 l 2.4833,0.2792 2.97373,2.01827 0.58109,0.99879 -0.3979,1.23327 4.04673,-0.0386 c -0.59311,-0.85585 -1.81607,-1.53544 -2.83684,-2.27161 L 81.81069,134.00123 c -3.043953,-1.31248 -6.430965,-2.23278 -10.665834,-2.1838 l -10.705932,-0.60455 c -5.196395,0.093 -9.346495,0.30067 -12.638766,0.60241 l -7.300398,1.09874 -4.948705,1.53524 -3.661908,1.41426 -1.325714,0.94409 0.175495,2.36049 z"
           style="fill:#2d2017;fill-opacity:1;stroke:#000000;stroke-width:0.25974px;stroke-linecap:butt;stroke-linejoin:miter;stroke-opacity:1" />
        <path
           sodipodi:nodetypes="cccccccccccc"
           id="path873-6"
           d="m 93.536638,142.69926 -1.31499,0.72463 -2.45641,-0.17061 -2.2779,-0.60334 -0.10461,-2.44762 0.20819,-2.02732 c 0.4954,-0.48282 1.01684,-0.61582 1.79817,-0.37197 l 2.23693,0.76849 1.5974,1.13791 0.7129,1.05218 -0.34008,1.36035 z"
           style="fill:#ff0000;stroke:#000000;stroke-width:0.25974px;stroke-linecap:butt;stroke-linejoin:miter;stroke-opacity:1" />
        <path
           sodipodi:nodetypes="ccccccccccccccccc"
           id="path875-1"
           d="m 127.61858,162.91271 -0.0263,-3.16253 -1.16,-2.46097 -2.246,-2.34964 -1.55617,-1.0491 c -1.08279,-0.68059 -2.72089,-0.85123 -4.53771,-0.85774 l -3.76769,0.0364 -2.26148,1.85525 c -0.78932,1.00377 -1.60517,1.64278 -2.18198,3.41599 l -0.73596,3.15669 0.33155,4.07567 c 0.47139,1.49301 1.33225,2.711 2.29581,3.85646 1.78811,2.14105 3.47331,2.25459 5.49749,3.04655 1.4282,-0.086 2.81967,0.0615 4.36531,-0.77112 l 3.04081,-1.12637 2.54249,-3.13083 z"
           style="fill:#000000;stroke:#000000;stroke-width:0.25974px;stroke-linecap:butt;stroke-linejoin:miter;stroke-opacity:1" />
        <path
           style="fill:#000000;stroke:#000000;stroke-width:0.25974px;stroke-linecap:butt;stroke-linejoin:miter;stroke-opacity:1"
           d="m 41.09554,163.08437 -0.02625,-3.16254 -1.159998,-2.46096 -2.245999,-2.34964 -1.556175,-1.0491 c -1.082784,-0.68059 -2.720884,-0.85123 -4.537708,-0.85774 l -3.767682,0.0365 -2.261493,1.85525 c -0.789309,1.00377 -1.605171,1.64278 -2.181973,3.41599 l -0.735965,3.15669 0.331556,4.07566 c 0.471389,1.49302 1.332245,2.71101 2.295806,3.85647 1.788116,2.14105 3.256656,2.90764 5.929331,3.19425 l 3.933471,-0.91882 3.040816,-1.12638 2.542483,-3.13082 z"
           id="path875-3-0"
           sodipodi:nodetypes="ccccccccccccccccc" />
        <path
           id="path892-3"
           d="m 36.17229,157.36502 c 1.840488,1.65094 1.795392,2.07631 1.795392,2.07631 l -2.893573,1.01467 -0.760414,0.29277 -0.335609,-0.48084 0.229353,-0.24003 z"
           style="fill:#ffffff;stroke:#000000;stroke-width:0.25974px;stroke-linecap:butt;stroke-linejoin:miter;stroke-opacity:1" />
        <path
           style="fill:#f2f2f2;stroke:#000000;stroke-width:0.25974px;stroke-linecap:butt;stroke-linejoin:miter;stroke-opacity:1"
           d="m 30.992675,156.07822 c 2.479346,-0.10135 2.742534,0.23369 2.742534,0.23369 l -1.387367,2.73669 -0.346428,0.73784 -0.577136,-0.10988 -0.001,-0.33086 z"
           id="path892-6-2" />
        <path
           id="path892-6-7-0"
           d="m 25.655045,157.88812 c 1.588422,-1.91633 2.014952,-1.89116 2.014952,-1.89116 l 1.110067,2.84392 0.317818,0.74614 -0.469299,0.35785 -0.247461,-0.21795 z"
           style="fill:#f2f2f2;stroke:#000000;stroke-width:0.25974px;stroke-linecap:butt;stroke-linejoin:miter;stroke-opacity:1" />
        <path
           inkscape:transform-center-y="0.26600741"
           inkscape:transform-center-x="0.41070342"
           style="fill:#f2f2f2;stroke:#000000;stroke-width:0.25974px;stroke-linecap:butt;stroke-linejoin:miter;stroke-opacity:1"
           d="m 25.519451,164.4169 c -1.010281,-2.25892 -0.797088,-2.63085 -0.797088,-2.63085 l 3.048784,0.23987 0.811768,0.0391 0.111489,0.57683 -0.30622,0.12739 z"
           id="path892-6-7-5-6" />
        <path
           id="path892-6-7-5-3-1"
           d="m 28.719906,168.6908 c -2.212547,-1.10705 -2.280594,-1.52859 -2.280594,-1.52859 l 2.53096,-1.73678 0.658267,-0.48158 0.450643,0.37505 -0.158724,0.29138 z"
           style="fill:#f2f2f2;stroke:#000000;stroke-width:0.25974px;stroke-linecap:butt;stroke-linejoin:miter;stroke-opacity:1"
           inkscape:transform-center-x="-0.055841978"
           inkscape:transform-center-y="-0.14988609" />
        <path
           inkscape:transform-center-y="-0.39685595"
           inkscape:transform-center-x="0.29555502"
           style="fill:#f2f2f2;stroke:#000000;stroke-width:0.25974px;stroke-linecap:butt;stroke-linejoin:miter;stroke-opacity:1"
           d="m 34.734323,168.61034 c -2.239436,1.08252 -2.615205,0.88133 -2.615205,0.88133 l 0.183191,-3.05565 0.02399,-0.8128 0.574577,-0.12997 0.133026,0.30204 z"
           id="path892-6-7-5-3-5-5" />
        <path
           sodipodi:nodetypes="cccccccc"
           id="path892-6-7-5-3-5-6-5"
           d="m 38.4583,164.15746 c -0.955193,2.29599 -1.370995,2.3979 -1.370995,2.3979 l -0.929685,-1.16506 -0.972573,-1.2188 -0.524533,-0.61759 0.343704,-0.47972 0.301261,0.13476 z"
           style="fill:#f2f2f2;stroke:#000000;stroke-width:0.25974px;stroke-linecap:butt;stroke-linejoin:miter;stroke-opacity:1"
           inkscape:transform-center-x="0.19241925"
           inkscape:transform-center-y="0.51010088" />
        <path
           style="fill:#ffffff;stroke:#000000;stroke-width:0.25974px;stroke-linecap:butt;stroke-linejoin:miter;stroke-opacity:1"
           d="m 123.57347,157.21213 c 1.8407,1.72338 1.79566,2.1672 1.79566,2.1672 l -2.89345,1.0575 -0.76038,0.30516 -0.33567,-0.50185 0.22932,-0.25036 z"
           id="path892-9-7" />
        <path
           id="path892-6-1-6"
           d="m 118.39369,155.86729 c 2.47933,-0.1047 2.74256,0.24499 2.74256,0.24499 l -1.38702,2.85491 -0.34634,0.76972 -0.57715,-0.11489 -10e-4,-0.34522 z"
           style="fill:#f2f2f2;stroke:#000000;stroke-width:0.25974px;stroke-linecap:butt;stroke-linejoin:miter;stroke-opacity:1" />
        <path
           style="fill:#f2f2f2;stroke:#000000;stroke-width:0.25974px;stroke-linecap:butt;stroke-linejoin:miter;stroke-opacity:1"
           d="m 113.05628,157.75352 c 1.58818,-1.99885 2.01471,-1.97242 2.01471,-1.97242 l 1.11043,2.96785 0.31791,0.77867 -0.46925,0.37319 -0.24749,-0.22752 z"
           id="path892-6-7-2-5" />
        <path
           id="path892-6-7-5-7-6"
           d="m 112.92151,164.56567 c -1.01057,-2.3574 -0.79742,-2.74539 -0.79742,-2.74539 l 3.04881,0.25156 0.81178,0.0411 0.11156,0.60192 -0.3062,0.13278 z"
           style="fill:#f2f2f2;stroke:#000000;stroke-width:0.25974px;stroke-linecap:butt;stroke-linejoin:miter;stroke-opacity:1"
           inkscape:transform-center-x="0.41070342"
           inkscape:transform-center-y="0.26600741" />
        <path
           inkscape:transform-center-y="-0.14988609"
           inkscape:transform-center-x="-0.055841978"
           style="fill:#f2f2f2;stroke:#000000;stroke-width:0.25974px;stroke-linecap:butt;stroke-linejoin:miter;stroke-opacity:1"
           d="m 116.1225,169.02645 c -2.21268,-1.15604 -2.28079,-1.5959 -2.28079,-1.5959 l 2.53075,-1.81112 0.65821,-0.5022 0.45069,0.39151 -0.15869,0.30397 z"
           id="path892-6-7-5-3-0-9" />
        <path
           id="path892-6-7-5-3-5-9-3"
           d="m 122.13692,168.94503 c -2.2393,1.12857 -2.6151,0.91848 -2.6151,0.91848 l 0.18281,-3.18822 0.0239,-0.84807 0.57456,-0.13538 0.13306,0.31522 z"
           style="fill:#f2f2f2;stroke:#000000;stroke-width:0.25974px;stroke-linecap:butt;stroke-linejoin:miter;stroke-opacity:1"
           inkscape:transform-center-x="0.29555502"
           inkscape:transform-center-y="-0.39685595" />
        <path
           inkscape:transform-center-y="0.51010088"
           inkscape:transform-center-x="0.19241925"
           style="fill:#f2f2f2;stroke:#000000;stroke-width:0.25974px;stroke-linecap:butt;stroke-linejoin:miter;stroke-opacity:1"
           d="m 125.86034,164.3004 c -0.95491,2.39526 -1.3707,2.50142 -1.3707,2.50142 l -0.92983,-1.21602 -0.97273,-1.27212 -0.52461,-0.64463 0.34365,-0.5004 0.30127,0.14074 z"
           id="path892-6-7-5-3-5-6-3-7"
           sodipodi:nodetypes="cccccccc" />
        <path
           id="rect1061-5"
           style="opacity:0.55;fill:#1a1a1a;fill-opacity:1;stroke:#2a45ed;stroke-width:0.259739;stroke-opacity:1"
           inkscape:transform-center-x="-7.8402296"
           inkscape:transform-center-y="0.20756541"
           d="m 68.71412,126.75462 -11.528491,0.0335 -0.07965,3.29002 11.528491,-0.0335 z" />
        <path
           id="path1067-2"
           style="opacity:0.55;fill:#e6e6e6;fill-opacity:1;stroke:#e20000;stroke-width:0.25974;stroke-opacity:1"
           d="m 68.736621,128.31307 a 0.44871068,0.62426821 89.031083 0 0 0.625527,0.44269 0.44871068,0.62426821 89.031083 0 0 0.622921,-0.45477 0.44871068,0.62426821 89.031083 0 0 -0.625527,-0.44269 0.44871068,0.62426821 89.031083 0 0 -0.622921,0.45477" />
        <path
           id="path1069-5"
           style="opacity:0.55;fill:#e6e6e6;fill-opacity:1;stroke:#e20000;stroke-width:0.25974;stroke-opacity:1"
           d="m 62.083734,125.93887 a 0.56203945,0.73184852 88.887956 0 0 0.733421,0.55499 0.56203945,0.73184852 88.887956 0 0 0.730159,-0.56915 0.56203945,0.73184852 88.887956 0 0 -0.733422,-0.55499 0.56203945,0.73184852 88.887956 0 0 -0.730158,0.56915" />
        <path
           id="path1071-4"
           style="opacity:0.881454;fill:#7280b3;fill-opacity:1;stroke:#e20000;stroke-width:0.25974;stroke-opacity:1"
           d="m 137.50815,161.61677 a 1.0070663,1.2899566 0.43919864 0 0 1.01082,1.28016 1.0070663,1.2899566 0.43919864 0 0 1.00333,-1.29965 1.0070663,1.2899566 0.43919864 0 0 -1.01082,-1.28016 1.0070663,1.2899566 0.43919864 0 0 -1.00333,1.29965" />
        <path
           style="fill:#f4c51c;fill-opacity:1;stroke:#000000;stroke-width:0.259742px;stroke-linecap:butt;stroke-linejoin:miter;stroke-opacity:1"
           d="M 7.3153884,5.4166077 7.4329824,43.135379 139.90029,27.303078 Z"
           id="path1892" />
        <path
           style="fill:none;fill-opacity:1;stroke:#000000;stroke-width:0.25974px;stroke-linecap:butt;stroke-linejoin:miter;stroke-opacity:1"
           d="M 3.6241081,56.014388 3.9405151,67.775527 70.438121,61.709692 Z"
           id="path1894" />
        <path
           style="fill:#ed4f00;fill-opacity:1;stroke:#000000;stroke-width:0.25974px;stroke-linecap:butt;stroke-linejoin:miter;stroke-opacity:1"
           d="M 68.804925,61.753997 45.246107,59.703018 c -1.991426,1.246017 -2.283967,2.577447 -0.08833,4.03397 l 0.787157,0.0236 4.85072,-0.411674 z"
           id="path1925"
           sodipodi:nodetypes="cccccc" />
        <path
           style="fill:#00ff00;stroke:#000000;stroke-width:0.25974px;stroke-linecap:butt;stroke-linejoin:miter;stroke-opacity:1"
           d="M 3.7267748,56.21301 3.9998439,67.720927 45.004424,63.916611 43.647643,62.328898 c 0.02806,-0.488272 -0.09503,-0.981953 0.139564,-1.418623 l 1.395234,-1.323036 z"
           id="path1927"
           sodipodi:nodetypes="ccccccc" />
        <g
           aria-label="Radar"
           transform="scale(0.99952693,1.0004733)"
           id="text1936"
           style="font-style:normal;font-variant:normal;font-weight:normal;font-stretch:normal;font-size:6.23376px;line-height:1.25;font-family:sans-serif;-inkscape-font-specification:'sans-serif, Normal';font-variant-ligatures:normal;font-variant-caps:normal;font-variant-numeric:normal;font-variant-east-asian:normal;fill:#000080;fill-opacity:1;fill-rule:nonzero;stroke:none;stroke-width:0.25974">
          <path
             d="m 20.697601,71.992474 q 0.197849,0.06696 0.383522,0.28612 0.188718,0.219155 0.377435,0.602678 l 0.623985,1.241882 H 21.422032 L 20.840661,72.957368 Q 20.615418,72.500793 20.40235,72.351646 20.192326,72.202498 19.827066,72.202498 h -0.669642 v 1.920656 h -0.614853 v -4.544436 h 1.387985 q 0.77922,0 1.162743,0.32569 0.383522,0.32569 0.383522,0.983156 0,0.42918 -0.200893,0.712256 -0.197848,0.283076 -0.578327,0.392654 z m -1.540177,-1.90848 v 1.613229 h 0.773132 q 0.444399,0 0.669643,-0.203937 0.228287,-0.20698 0.228287,-0.605722 0,-0.398741 -0.228287,-0.599634 -0.225244,-0.203936 -0.669643,-0.203936 z"
             style="font-style:normal;font-variant:normal;font-weight:normal;font-stretch:normal;font-size:6.23376px;font-family:sans-serif;-inkscape-font-specification:'sans-serif, Normal';font-variant-ligatures:normal;font-variant-caps:normal;font-variant-numeric:normal;font-variant-east-asian:normal;fill:#000080;fill-opacity:1;fill-rule:nonzero;stroke-width:0.25974"
             id="path687" />
          <path
             d="m 24.268011,72.409478 q -0.678773,0 -0.940542,0.155236 -0.26177,0.155235 -0.26177,0.529626 0,0.298295 0.194805,0.474837 0.197849,0.173498 0.535714,0.173498 0.465706,0 0.745738,-0.328733 0.283076,-0.331778 0.283076,-0.879667 v -0.124797 z m 1.117085,-0.23133 v 1.945006 h -0.560064 v -0.517451 q -0.191761,0.31047 -0.477881,0.459618 -0.28612,0.146104 -0.70008,0.146104 -0.523539,0 -0.834009,-0.292208 -0.307427,-0.295251 -0.307427,-0.788351 0,-0.575284 0.383522,-0.867491 0.386567,-0.292208 1.150567,-0.292208 h 0.785308 v -0.05479 q 0,-0.386566 -0.255682,-0.59659 -0.252637,-0.213068 -0.712255,-0.213068 -0.292208,0 -0.569196,0.07001 -0.276989,0.07001 -0.53267,0.210024 v -0.517451 q 0.307427,-0.118709 0.59659,-0.176542 0.289164,-0.06088 0.563108,-0.06088 0.739651,0 1.10491,0.383522 0.365259,0.383523 0.365259,1.162743 z"
             style="font-style:normal;font-variant:normal;font-weight:normal;font-stretch:normal;font-size:6.23376px;font-family:sans-serif;-inkscape-font-specification:'sans-serif, Normal';font-variant-ligatures:normal;font-variant-caps:normal;font-variant-numeric:normal;font-variant-east-asian:normal;fill:#000080;fill-opacity:1;fill-rule:nonzero;stroke-width:0.25974"
             id="path689" />
          <path
             d="m 28.785052,71.231517 v -1.84456 h 0.560065 v 4.736197 h -0.560065 v -0.511363 q -0.176542,0.304382 -0.447442,0.45353 -0.267857,0.146104 -0.645292,0.146104 -0.617897,0 -1.007507,-0.4931 -0.386566,-0.493101 -0.386566,-1.296671 0,-0.803571 0.386566,-1.296671 0.38961,-0.4931 1.007507,-0.4931 0.377435,0 0.645292,0.149147 0.2709,0.146104 0.447442,0.450487 z m -1.90848,1.190137 q 0,0.617897 0.252638,0.970981 0.255681,0.35004 0.70008,0.35004 0.444399,0 0.700081,-0.35004 0.255681,-0.353084 0.255681,-0.970981 0,-0.617897 -0.255681,-0.967938 -0.255682,-0.353084 -0.700081,-0.353084 -0.444399,0 -0.70008,0.353084 -0.252638,0.350041 -0.252638,0.967938 z"
             style="font-style:normal;font-variant:normal;font-weight:normal;font-stretch:normal;font-size:6.23376px;font-family:sans-serif;-inkscape-font-specification:'sans-serif, Normal';font-variant-ligatures:normal;font-variant-caps:normal;font-variant-numeric:normal;font-variant-east-asian:normal;fill:#000080;fill-opacity:1;fill-rule:nonzero;stroke-width:0.25974"
             id="path691" />
          <path
             d="m 32.048036,72.409478 q -0.678774,0 -0.940543,0.155236 -0.26177,0.155235 -0.26177,0.529626 0,0.298295 0.194805,0.474837 0.197849,0.173498 0.535714,0.173498 0.465706,0 0.745738,-0.328733 0.283076,-0.331778 0.283076,-0.879667 v -0.124797 z m 1.117084,-0.23133 v 1.945006 h -0.560064 v -0.517451 q -0.191761,0.31047 -0.477881,0.459618 -0.28612,0.146104 -0.70008,0.146104 -0.523539,0 -0.834009,-0.292208 -0.307427,-0.295251 -0.307427,-0.788351 0,-0.575284 0.383522,-0.867491 0.386567,-0.292208 1.150567,-0.292208 h 0.785308 v -0.05479 q 0,-0.386566 -0.255681,-0.59659 -0.252638,-0.213068 -0.712256,-0.213068 -0.292208,0 -0.569196,0.07001 -0.276988,0.07001 -0.53267,0.210024 v -0.517451 q 0.307427,-0.118709 0.59659,-0.176542 0.289164,-0.06088 0.563108,-0.06088 0.739651,0 1.10491,0.383522 0.365259,0.383523 0.365259,1.162743 z"
             style="font-style:normal;font-variant:normal;font-weight:normal;font-stretch:normal;font-size:6.23376px;font-family:sans-serif;-inkscape-font-specification:'sans-serif, Normal';font-variant-ligatures:normal;font-variant-caps:normal;font-variant-numeric:normal;font-variant-east-asian:normal;fill:#000080;fill-opacity:1;fill-rule:nonzero;stroke-width:0.25974"
             id="path693" />
          <path
             d="m 36.29722,71.237605 q -0.09436,-0.05479 -0.20698,-0.07914 -0.109578,-0.02739 -0.243506,-0.02739 -0.474838,0 -0.730519,0.31047 -0.252638,0.307427 -0.252638,0.885754 v 1.795859 H 34.300469 V 70.71407 h 0.563108 v 0.529626 q 0.176542,-0.31047 0.459618,-0.459618 0.283076,-0.152191 0.687905,-0.152191 0.05783,0 0.127841,0.0091 0.07001,0.0061 0.155235,0.02131 z"
             style="font-style:normal;font-variant:normal;font-weight:normal;font-stretch:normal;font-size:6.23376px;font-family:sans-serif;-inkscape-font-specification:'sans-serif, Normal';font-variant-ligatures:normal;font-variant-caps:normal;font-variant-numeric:normal;font-variant-east-asian:normal;fill:#000080;fill-opacity:1;fill-rule:nonzero;stroke-width:0.25974"
             id="path695" />
        </g>
        <g
           aria-label="RGB \&amp; Depth "
           transform="translate(0.94372067,18.609528)"
           id="text3902"
           style="font-style:normal;font-variant:normal;font-weight:normal;font-stretch:normal;font-size:4.84848px;line-height:1.25;font-family:sans-serif;-inkscape-font-specification:'sans-serif, Normal';font-variant-ligatures:normal;font-variant-caps:normal;font-variant-numeric:normal;font-variant-east-asian:normal;white-space:pre;shape-inside:url(#rect3904);fill:#000080;fill-opacity:1;stroke:none;stroke-width:0.981694">
          <path
             d="m 45.776987,6.5173389 q 0.153882,0.052083 0.298295,0.2225376 0.14678,0.1704544 0.29356,0.4687496 l 0.485322,0.9659082 H 46.340433 L 45.888255,7.2678116 Q 45.713066,6.9126983 45.547347,6.7966947 45.383995,6.680691 45.099904,6.680691 H 44.579071 V 8.1745343 H 44.100852 V 4.6399732 h 1.079544 q 0.60606,0 0.904355,0.2533142 0.298296,0.2533141 0.298296,0.7646773 0,0.3338065 -0.15625,0.5539767 -0.153883,0.2201703 -0.44981,0.3053975 z M 44.579071,5.0329653 v 1.2547336 h 0.601325 q 0.345644,0 0.520833,-0.1586172 0.177557,-0.1609847 0.177557,-0.471117 0,-0.3101323 -0.177557,-0.4663821 Q 45.52604,5.0329653 45.180396,5.0329653 Z"
             style="font-style:normal;font-variant:normal;font-weight:normal;font-stretch:normal;font-size:4.84848px;font-family:sans-serif;-inkscape-font-specification:'sans-serif, Normal';font-variant-ligatures:normal;font-variant-caps:normal;font-variant-numeric:normal;font-variant-east-asian:normal;fill:#000080;stroke-width:0.981694"
             id="path666" />
          <path
             d="M 49.882096,7.6702734 V 6.7209372 H 49.100847 V 6.3279451 h 1.254734 v 1.5175175 q -0.276989,0.196496 -0.610795,0.2982952 -0.333807,0.099432 -0.712594,0.099432 -0.828598,0 -1.297347,-0.4829541 -0.466383,-0.4853215 -0.466383,-1.3494305 0,-0.8664765 0.466383,-1.3494305 0.468749,-0.4853216 1.297347,-0.4853216 0.345643,0 0.655776,0.085227 0.312499,0.085227 0.575283,0.2509468 V 5.4212225 Q 49.9981,5.1963174 49.699805,5.0826811 49.40151,4.9690449 49.072438,4.9690449 q -0.648674,0 -0.975378,0.3622156 -0.324337,0.3622155 -0.324337,1.0795444 0,0.7149614 0.324337,1.077177 0.326704,0.3622155 0.975378,0.3622155 0.253314,0 0.452178,-0.042613 0.198863,-0.044981 0.35748,-0.137311 z"
             style="font-style:normal;font-variant:normal;font-weight:normal;font-stretch:normal;font-size:4.84848px;font-family:sans-serif;-inkscape-font-specification:'sans-serif, Normal';font-variant-ligatures:normal;font-variant-caps:normal;font-variant-numeric:normal;font-variant-east-asian:normal;fill:#000080;stroke-width:0.981694"
             id="path668" />
          <path
             d="m 51.709746,6.4865624 v 1.2949798 h 0.767045 q 0.38589,0 0.570549,-0.1586173 0.187026,-0.1609847 0.187026,-0.4900563 0,-0.3314391 -0.187026,-0.4876889 -0.184659,-0.1586173 -0.570549,-0.1586173 z m 0,-1.4535971 v 1.0653399 h 0.70786 q 0.350378,0 0.520832,-0.1302082 0.172822,-0.1325757 0.172822,-0.4024618 0,-0.2675187 -0.172822,-0.4000943 Q 52.767984,5.0329653 52.417606,5.0329653 Z M 51.231527,4.6399732 h 1.22159 q 0.546874,0 0.842802,0.2272725 0.295928,0.2272726 0.295928,0.6463063 0,0.3243368 -0.151515,0.5160979 -0.151515,0.1917612 -0.445075,0.2391097 0.352745,0.075757 0.546874,0.3172345 0.196496,0.2391096 0.196496,0.5989578 0,0.4734844 -0.321969,0.7315334 -0.32197,0.258049 -0.916193,0.258049 h -1.268938 z"
             style="font-style:normal;font-variant:normal;font-weight:normal;font-stretch:normal;font-size:4.84848px;font-family:sans-serif;-inkscape-font-specification:'sans-serif, Normal';font-variant-ligatures:normal;font-variant-caps:normal;font-variant-numeric:normal;font-variant-east-asian:normal;fill:#000080;stroke-width:0.981694"
             id="path670" />
          <path
             d="m 57.546471,6.2734944 q -0.215436,0.1917612 -0.317235,0.3835224 -0.09943,0.1893937 -0.09943,0.3977269 0,0.3456436 0.250946,0.5752835 0.250947,0.2296399 0.629734,0.2296399 0.224906,0 0.421402,-0.07339 0.196496,-0.075758 0.369317,-0.2272726 z m 0.333806,-0.2651513 1.202651,1.2310595 Q 59.222606,7.028702 59.30073,6.7895924 59.37886,6.5481154 59.39306,6.2782293 H 59.8334 Q 59.804991,6.590729 59.681885,6.8961264 59.558779,7.2015238 59.338609,7.499819 L 59.99912,8.1745343 H 59.40253 L 59.063988,7.8265232 q -0.246212,0.2107006 -0.516098,0.3148672 -0.269886,0.1017991 -0.580018,0.1017991 -0.570549,0 -0.932764,-0.3243368 -0.362216,-0.3267042 -0.362216,-0.8357 0,-0.30303 0.158617,-0.5681813 0.158618,-0.2675186 0.475852,-0.5018934 -0.113636,-0.1491476 -0.172822,-0.2959278 -0.05918,-0.1491475 -0.05918,-0.2911929 0,-0.3835223 0.262784,-0.6155297 0.262783,-0.2343748 0.698389,-0.2343748 0.196496,0 0.390625,0.042614 0.196496,0.042614 0.397727,0.1278408 V 5.177378 Q 58.618913,5.0661092 58.431887,5.0092911 58.24486,4.9501051 58.083876,4.9501051 q -0.24858,0 -0.40483,0.1325756 -0.153882,0.1302083 -0.153882,0.3385414 0,0.1207385 0.06865,0.2438445 0.07102,0.1207385 0.286458,0.3432761 z"
             style="font-style:normal;font-variant:normal;font-weight:normal;font-stretch:normal;font-size:4.84848px;font-family:sans-serif;-inkscape-font-specification:'sans-serif, Normal';font-variant-ligatures:normal;font-variant-caps:normal;font-variant-numeric:normal;font-variant-east-asian:normal;fill:#000080;stroke-width:0.981694"
             id="path674" />
          <path
             d="m 63.537386,5.0329653 v 2.7485769 h 0.577651 q 0.731533,0 1.070075,-0.3314391 0.340908,-0.331439 0.340908,-1.0464005 0,-0.7102266 -0.340908,-1.0392982 Q 64.84657,5.0329653 64.115037,5.0329653 Z M 63.059167,4.6399732 h 0.98248 q 1.027461,0 1.508048,0.4285034 0.480586,0.426136 0.480586,1.335226 0,0.9138249 -0.482954,1.3423283 -0.482954,0.4285034 -1.50568,0.4285034 h -0.98248 z"
             style="font-style:normal;font-variant:normal;font-weight:normal;font-stretch:normal;font-size:4.84848px;font-family:sans-serif;-inkscape-font-specification:'sans-serif, Normal';font-variant-ligatures:normal;font-variant-caps:normal;font-variant-numeric:normal;font-variant-east-asian:normal;fill:#000080;stroke-width:0.981694"
             id="path676" />
          <path
             d="m 69.039276,6.7398765 v 0.213068 h -2.002839 q 0.02841,0.4498102 0.269886,0.6865524 0.243844,0.2343748 0.677083,0.2343748 0.250946,0 0.485321,-0.061553 0.236742,-0.061553 0.46875,-0.1846589 v 0.4119314 q -0.234375,0.099432 -0.480587,0.151515 -0.246212,0.052083 -0.499526,0.052083 -0.634469,0 -1.006154,-0.3693178 -0.369318,-0.3693179 -0.369318,-0.9990521 0,-0.6510411 0.350378,-1.032196 0.352746,-0.3835224 0.949336,-0.3835224 0.535038,0 0.84517,0.3456437 0.3125,0.3432761 0.3125,0.9351319 z M 68.60367,6.6120358 q -0.0047,-0.3574808 -0.201231,-0.5705487 -0.194128,-0.213068 -0.516098,-0.213068 -0.364583,0 -0.584753,0.2059657 -0.217803,0.2059657 -0.250947,0.5800184 z"
             style="font-style:normal;font-variant:normal;font-weight:normal;font-stretch:normal;font-size:4.84848px;font-family:sans-serif;-inkscape-font-specification:'sans-serif, Normal';font-variant-ligatures:normal;font-variant-caps:normal;font-variant-numeric:normal;font-variant-east-asian:normal;fill:#000080;stroke-width:0.981694"
             id="path678" />
          <path
             d="M 70.175637,7.7768074 V 9.183056 H 69.737664 V 5.5230216 h 0.437973 v 0.4024618 q 0.13731,-0.2367422 0.345643,-0.3503785 0.210701,-0.1160037 0.501894,-0.1160037 0.482954,0 0.783617,0.3835224 0.30303,0.3835224 0.30303,1.0085218 0,0.6249994 -0.30303,1.0085217 -0.300663,0.3835224 -0.783617,0.3835224 -0.291193,0 -0.501894,-0.1136363 -0.208333,-0.1160036 -0.345643,-0.3527458 z m 1.482006,-0.925662 q 0,-0.4805867 -0.198864,-0.7528402 -0.196496,-0.274621 -0.542139,-0.274621 -0.345644,0 -0.544507,0.274621 -0.196496,0.2722535 -0.196496,0.7528402 0,0.4805866 0.196496,0.7552076 0.198863,0.2722535 0.544507,0.2722535 0.345643,0 0.542139,-0.2722535 0.198864,-0.274621 0.198864,-0.7552076 z"
             style="font-style:normal;font-variant:normal;font-weight:normal;font-stretch:normal;font-size:4.84848px;font-family:sans-serif;-inkscape-font-specification:'sans-serif, Normal';font-variant-ligatures:normal;font-variant-caps:normal;font-variant-numeric:normal;font-variant-east-asian:normal;fill:#000080;stroke-width:0.981694"
             id="path680" />
          <path
             d="m 73.262757,4.7701814 v 0.7528402 h 0.897252 V 5.861563 h -0.897252 v 1.4393925 q 0,0.3243369 0.08759,0.4166663 0.08996,0.092329 0.362216,0.092329 h 0.447442 v 0.364583 h -0.447442 q -0.504261,0 -0.696022,-0.1870264 Q 72.824783,7.7981142 72.824783,7.3009555 V 5.861563 H 72.505182 V 5.5230216 h 0.319601 V 4.7701814 Z"
             style="font-style:normal;font-variant:normal;font-weight:normal;font-stretch:normal;font-size:4.84848px;font-family:sans-serif;-inkscape-font-specification:'sans-serif, Normal';font-variant-ligatures:normal;font-variant-caps:normal;font-variant-numeric:normal;font-variant-east-asian:normal;fill:#000080;stroke-width:0.981694"
             id="path682" />
          <path
             d="M 76.939362,6.574157 V 8.1745343 H 76.503756 V 6.5883615 q 0,-0.3764201 -0.14678,-0.5634464 -0.14678,-0.1870263 -0.440341,-0.1870263 -0.352745,0 -0.556344,0.2249051 -0.203598,0.224905 -0.203598,0.6131622 V 8.1745343 H 74.71872 V 4.4908257 h 0.437973 v 1.4441274 q 0.15625,-0.2391097 0.36695,-0.3574808 0.213068,-0.1183711 0.490057,-0.1183711 0.456912,0 0.691287,0.2840907 0.234375,0.2817232 0.234375,0.8309651 z"
             style="font-style:normal;font-variant:normal;font-weight:normal;font-stretch:normal;font-size:4.84848px;font-family:sans-serif;-inkscape-font-specification:'sans-serif, Normal';font-variant-ligatures:normal;font-variant-caps:normal;font-variant-numeric:normal;font-variant-east-asian:normal;fill:#000080;stroke-width:0.981694"
             id="path684" />
        </g>
        <path
           style="fill:#f4c51c;fill-opacity:1;stroke:#000000;stroke-width:0.25974px;stroke-linecap:butt;stroke-linejoin:miter;stroke-opacity:1"
           d="m 137.88886,110.7592 27.56463,0.37752 -17.79094,-85.090345 z"
           id="path3908" />
        <g
           aria-label="Ri"
           id="text1164"
           style="font-style:normal;font-weight:normal;font-size:10.3896px;line-height:1.25;font-family:sans-serif;white-space:pre;shape-inside:url(#rect1166);fill:#000000;fill-opacity:1;stroke:none" />
        <path
           style="fill:#f4c51c;fill-opacity:1;stroke:#000000;stroke-width:0.25974px;stroke-linecap:butt;stroke-linejoin:miter;stroke-opacity:1"
           d="M 54.049,205.01272 78.037691,205.15223 62.71662,126.1554 Z"
           id="path1037" />
        <g
           aria-label="Right RGB \&amp; Depth"
           transform="matrix(0.99999998,2.2902412e-4,-2.4659555e-4,0.99999995,17.272654,4.1030031)"
           id="text1170"
           style="font-style:normal;font-variant:normal;font-weight:normal;font-stretch:normal;font-size:4.84848px;line-height:1.25;font-family:sans-serif;-inkscape-font-specification:'sans-serif, Normal';font-variant-ligatures:normal;font-variant-caps:normal;font-variant-numeric:normal;font-variant-east-asian:normal;white-space:pre;shape-inside:url(#rect1172);fill:#000080;fill-opacity:1;stroke:none">
          <path
             d="m 28.573862,190.74195 q 0.153882,0.0521 0.298295,0.22254 0.14678,0.17045 0.29356,0.46875 l 0.485322,0.9659 h -0.513731 l -0.452178,-0.90672 q -0.175189,-0.35511 -0.340908,-0.47112 -0.163352,-0.116 -0.447443,-0.116 h -0.520833 v 1.49384 h -0.478219 v -3.53456 h 1.079544 q 0.60606,0 0.904355,0.25332 0.298296,0.25331 0.298296,0.76467 0,0.33381 -0.15625,0.55398 -0.153883,0.22017 -0.44981,0.3054 z m -1.197916,-1.48438 v 1.25474 h 0.601325 q 0.345644,0 0.520833,-0.15862 0.177557,-0.16098 0.177557,-0.47112 0,-0.31013 -0.177557,-0.46638 -0.175189,-0.15862 -0.520833,-0.15862 z"
             style="font-style:normal;font-variant:normal;font-weight:normal;font-stretch:normal;font-size:4.84848px;font-family:sans-serif;-inkscape-font-specification:'sans-serif, Normal';font-variant-ligatures:normal;font-variant-caps:normal;font-variant-numeric:normal;font-variant-east-asian:normal;fill:#000080"
             id="path630" />
          <path
             d="m 30.249996,189.74763 h 0.435606 v 2.65151 h -0.435606 z m 0,-1.03219 h 0.435606 v 0.5516 h -0.435606 z"
             style="font-style:normal;font-variant:normal;font-weight:normal;font-stretch:normal;font-size:4.84848px;font-family:sans-serif;-inkscape-font-specification:'sans-serif, Normal';font-variant-ligatures:normal;font-variant-caps:normal;font-variant-numeric:normal;font-variant-east-asian:normal;fill:#000080"
             id="path632" />
          <path
             d="m 33.339482,191.04261 q 0,-0.47348 -0.196496,-0.7339 -0.194128,-0.26042 -0.546874,-0.26042 -0.350379,0 -0.546875,0.26042 -0.194128,0.26042 -0.194128,0.7339 0,0.47112 0.194128,0.73153 0.196496,0.26042 0.546875,0.26042 0.352746,0 0.546874,-0.26042 0.196496,-0.26041 0.196496,-0.73153 z m 0.435606,1.02746 q 0,0.67708 -0.300663,1.00616 -0.300662,0.33144 -0.920927,0.33144 -0.22964,0 -0.433238,-0.0355 -0.203598,-0.0331 -0.39536,-0.10416 v -0.42377 q 0.191762,0.10417 0.378788,0.15388 0.187026,0.0497 0.381155,0.0497 0.428503,0 0.641571,-0.22491 0.213068,-0.22254 0.213068,-0.67471 v -0.21544 q -0.134943,0.23438 -0.345643,0.35038 -0.210701,0.116 -0.504261,0.116 -0.487689,0 -0.785984,-0.37168 -0.298296,-0.37169 -0.298296,-0.98485 0,-0.61553 0.298296,-0.98721 0.298295,-0.37169 0.785984,-0.37169 0.29356,0 0.504261,0.116 0.2107,0.11601 0.345643,0.35038 v -0.40246 h 0.435606 z"
             style="font-style:normal;font-variant:normal;font-weight:normal;font-stretch:normal;font-size:4.84848px;font-family:sans-serif;-inkscape-font-specification:'sans-serif, Normal';font-variant-ligatures:normal;font-variant-caps:normal;font-variant-numeric:normal;font-variant-east-asian:normal;fill:#000080"
             id="path634" />
          <path
             d="m 36.876411,190.79877 v 1.60037 h -0.435606 v -1.58617 q 0,-0.37642 -0.14678,-0.56345 -0.14678,-0.18702 -0.440341,-0.18702 -0.352746,0 -0.556344,0.2249 -0.203598,0.22491 -0.203598,0.61317 v 1.49857 h -0.437973 v -3.6837 h 0.437973 v 1.44412 q 0.15625,-0.23911 0.36695,-0.35748 0.213068,-0.11837 0.490057,-0.11837 0.456912,0 0.691287,0.28409 0.234375,0.28172 0.234375,0.83097 z"
             style="font-style:normal;font-variant:normal;font-weight:normal;font-stretch:normal;font-size:4.84848px;font-family:sans-serif;-inkscape-font-specification:'sans-serif, Normal';font-variant-ligatures:normal;font-variant-caps:normal;font-variant-numeric:normal;font-variant-east-asian:normal;fill:#000080"
             id="path636" />
          <path
             d="m 38.18086,188.99479 v 0.75284 h 0.897253 v 0.33854 H 38.18086 v 1.43939 q 0,0.32434 0.08759,0.41667 0.08996,0.0923 0.362216,0.0923 h 0.447443 v 0.36458 H 38.63067 q -0.504261,0 -0.696022,-0.18702 -0.191761,-0.1894 -0.191761,-0.68656 v -1.43939 h -0.319602 v -0.33854 h 0.319602 v -0.75284 z"
             style="font-style:normal;font-variant:normal;font-weight:normal;font-stretch:normal;font-size:4.84848px;font-family:sans-serif;-inkscape-font-specification:'sans-serif, Normal';font-variant-ligatures:normal;font-variant-caps:normal;font-variant-numeric:normal;font-variant-east-asian:normal;fill:#000080"
             id="path638" />
          <path
             d="m 42.89203,190.74195 q 0.153883,0.0521 0.298295,0.22254 0.146781,0.17045 0.293561,0.46875 l 0.485321,0.9659 h -0.51373 l -0.452178,-0.90672 q -0.175189,-0.35511 -0.340909,-0.47112 -0.163352,-0.116 -0.447442,-0.116 h -0.520833 v 1.49384 h -0.47822 v -3.53456 h 1.079545 q 0.60606,0 0.904355,0.25332 0.298295,0.25331 0.298295,0.76467 0,0.33381 -0.15625,0.55398 -0.153882,0.22017 -0.44981,0.3054 z m -1.197915,-1.48438 v 1.25474 h 0.601325 q 0.345643,0 0.520833,-0.15862 0.177556,-0.16098 0.177556,-0.47112 0,-0.31013 -0.177556,-0.46638 -0.17519,-0.15862 -0.520833,-0.15862 z"
             style="font-style:normal;font-variant:normal;font-weight:normal;font-stretch:normal;font-size:4.84848px;font-family:sans-serif;-inkscape-font-specification:'sans-serif, Normal';font-variant-ligatures:normal;font-variant-caps:normal;font-variant-numeric:normal;font-variant-east-asian:normal;fill:#000080"
             id="path640" />
          <path
             d="m 46.997139,191.89488 v -0.94933 H 46.21589 v -0.393 h 1.254734 v 1.51752 q -0.276989,0.1965 -0.610795,0.2983 -0.333807,0.0994 -0.712594,0.0994 -0.828598,0 -1.297348,-0.48296 -0.466382,-0.48532 -0.466382,-1.34943 0,-0.86647 0.466382,-1.34943 0.46875,-0.48532 1.297348,-0.48532 0.345643,0 0.655776,0.0852 0.312499,0.0852 0.575283,0.25095 v 0.50899 q -0.265151,-0.2249 -0.563446,-0.33854 -0.298295,-0.11364 -0.627367,-0.11364 -0.648674,0 -0.975378,0.36222 -0.324337,0.36222 -0.324337,1.07954 0,0.71497 0.324337,1.07718 0.326704,0.36222 0.975378,0.36222 0.253314,0 0.452178,-0.0426 0.198863,-0.045 0.35748,-0.13731 z"
             style="font-style:normal;font-variant:normal;font-weight:normal;font-stretch:normal;font-size:4.84848px;font-family:sans-serif;-inkscape-font-specification:'sans-serif, Normal';font-variant-ligatures:normal;font-variant-caps:normal;font-variant-numeric:normal;font-variant-east-asian:normal;fill:#000080"
             id="path642" />
          <path
             d="m 48.824789,190.71117 v 1.29498 h 0.767045 q 0.38589,0 0.570548,-0.15862 0.187027,-0.16098 0.187027,-0.49005 0,-0.33144 -0.187027,-0.48769 -0.184658,-0.15862 -0.570548,-0.15862 z m 0,-1.4536 v 1.06534 h 0.707859 q 0.350379,0 0.520833,-0.1302 0.172822,-0.13258 0.172822,-0.40247 0,-0.26751 -0.172822,-0.40009 -0.170454,-0.13258 -0.520833,-0.13258 z m -0.478219,-0.39299 h 1.22159 q 0.546874,0 0.842802,0.22728 0.295928,0.22727 0.295928,0.6463 0,0.32434 -0.151515,0.5161 -0.151515,0.19176 -0.445076,0.23911 0.352746,0.0758 0.546875,0.31723 0.196496,0.23911 0.196496,0.59896 0,0.47349 -0.32197,0.73153 -0.321969,0.25805 -0.916192,0.25805 H 48.34657 Z"
             style="font-style:normal;font-variant:normal;font-weight:normal;font-stretch:normal;font-size:4.84848px;font-family:sans-serif;-inkscape-font-specification:'sans-serif, Normal';font-variant-ligatures:normal;font-variant-caps:normal;font-variant-numeric:normal;font-variant-east-asian:normal;fill:#000080"
             id="path644" />
          <path
             d="m 54.41866,190.55488 q -0.215435,0.19176 -0.317234,0.38353 -0.09943,0.18939 -0.09943,0.39772 0,0.34565 0.250947,0.57529 0.250947,0.22964 0.629734,0.22964 0.224905,0 0.421401,-0.0734 0.196496,-0.0758 0.369318,-0.22728 z m 0.333807,-0.26515 1.20265,1.23106 q 0.139678,-0.2107 0.217803,-0.44981 0.07813,-0.24148 0.09233,-0.51136 h 0.44034 q -0.02841,0.3125 -0.151515,0.6179 -0.123106,0.30539 -0.343276,0.60369 l 0.660511,0.67471 h -0.596591 l -0.338541,-0.34801 q -0.246212,0.2107 -0.516098,0.31487 -0.269886,0.1018 -0.580018,0.1018 -0.570549,0 -0.932765,-0.32434 -0.362215,-0.3267 -0.362215,-0.8357 0,-0.30303 0.158617,-0.56818 0.158617,-0.26752 0.475852,-0.50189 -0.113636,-0.14915 -0.172822,-0.29593 -0.05919,-0.14915 -0.05919,-0.29119 0,-0.38353 0.262784,-0.61553 0.262784,-0.23438 0.69839,-0.23438 0.196496,0 0.390624,0.0426 0.196496,0.0426 0.397727,0.12784 v 0.43087 q -0.205965,-0.11127 -0.392992,-0.16809 -0.187026,-0.0592 -0.348011,-0.0592 -0.248579,0 -0.404829,0.13258 -0.153882,0.13021 -0.153882,0.33854 0,0.12074 0.06865,0.24385 0.07102,0.12073 0.286458,0.34327 z"
             style="font-style:normal;font-variant:normal;font-weight:normal;font-stretch:normal;font-size:4.84848px;font-family:sans-serif;-inkscape-font-specification:'sans-serif, Normal';font-variant-ligatures:normal;font-variant-caps:normal;font-variant-numeric:normal;font-variant-east-asian:normal;fill:#000080"
             id="path648" />
          <path
             d="m 60.652428,189.25757 v 2.74858 h 0.577651 q 0.731533,0 1.070074,-0.33144 0.340909,-0.33144 0.340909,-1.0464 0,-0.71022 -0.340909,-1.0393 -0.338541,-0.33144 -1.070074,-0.33144 z m -0.47822,-0.39299 h 0.982481 q 1.027461,0 1.508047,0.42851 0.480587,0.42613 0.480587,1.33522 0,0.91383 -0.482954,1.34233 -0.482954,0.4285 -1.50568,0.4285 h -0.982481 z"
             style="font-style:normal;font-variant:normal;font-weight:normal;font-stretch:normal;font-size:4.84848px;font-family:sans-serif;-inkscape-font-specification:'sans-serif, Normal';font-variant-ligatures:normal;font-variant-caps:normal;font-variant-numeric:normal;font-variant-east-asian:normal;fill:#000080"
             id="path650" />
          <path
             d="m 66.154319,190.96449 v 0.21306 H 64.15148 q 0.02841,0.44981 0.269886,0.68656 0.243845,0.23437 0.677083,0.23437 0.250947,0 0.485322,-0.0615 0.236742,-0.0616 0.468749,-0.18466 v 0.41193 q -0.234375,0.0994 -0.480586,0.15152 -0.246212,0.0521 -0.499526,0.0521 -0.63447,0 -1.006155,-0.36932 -0.369318,-0.36932 -0.369318,-0.99905 0,-0.65104 0.350379,-1.0322 0.352746,-0.38352 0.949336,-0.38352 0.535037,0 0.84517,0.34564 0.312499,0.34328 0.312499,0.93514 z m -0.435605,-0.12784 q -0.0047,-0.35749 -0.201231,-0.57055 -0.194129,-0.21307 -0.516098,-0.21307 -0.364583,0 -0.584753,0.20596 -0.217803,0.20597 -0.250947,0.58002 z"
             style="font-style:normal;font-variant:normal;font-weight:normal;font-stretch:normal;font-size:4.84848px;font-family:sans-serif;-inkscape-font-specification:'sans-serif, Normal';font-variant-ligatures:normal;font-variant-caps:normal;font-variant-numeric:normal;font-variant-east-asian:normal;fill:#000080"
             id="path652" />
          <path
             d="m 67.290682,192.00142 v 1.40625 h -0.437973 v -3.66004 h 0.437973 v 0.40246 q 0.137311,-0.23674 0.345644,-0.35038 0.2107,-0.116 0.501893,-0.116 0.482954,0 0.783617,0.38352 0.30303,0.38353 0.30303,1.00852 0,0.625 -0.30303,1.00853 -0.300663,0.38352 -0.783617,0.38352 -0.291193,0 -0.501893,-0.11364 -0.208333,-0.116 -0.345644,-0.35274 z m 1.482006,-0.92567 q 0,-0.48058 -0.198863,-0.75284 -0.196496,-0.27462 -0.54214,-0.27462 -0.345643,0 -0.544507,0.27462 -0.196496,0.27226 -0.196496,0.75284 0,0.48059 0.196496,0.75521 0.198864,0.27226 0.544507,0.27226 0.345644,0 0.54214,-0.27226 0.198863,-0.27462 0.198863,-0.75521 z"
             style="font-style:normal;font-variant:normal;font-weight:normal;font-stretch:normal;font-size:4.84848px;font-family:sans-serif;-inkscape-font-specification:'sans-serif, Normal';font-variant-ligatures:normal;font-variant-caps:normal;font-variant-numeric:normal;font-variant-east-asian:normal;fill:#000080"
             id="path654" />
          <path
             d="m 70.3778,188.99479 v 0.75284 h 0.897253 v 0.33854 H 70.3778 v 1.43939 q 0,0.32434 0.0876,0.41667 0.08996,0.0923 0.362215,0.0923 h 0.447443 v 0.36458 H 70.82761 q -0.504261,0 -0.696022,-0.18702 -0.191761,-0.1894 -0.191761,-0.68656 v -1.43939 h -0.319602 v -0.33854 h 0.319602 v -0.75284 z"
             style="font-style:normal;font-variant:normal;font-weight:normal;font-stretch:normal;font-size:4.84848px;font-family:sans-serif;-inkscape-font-specification:'sans-serif, Normal';font-variant-ligatures:normal;font-variant-caps:normal;font-variant-numeric:normal;font-variant-east-asian:normal;fill:#000080"
             id="path656" />
          <path
             d="m 74.054407,190.79877 v 1.60037 h -0.435605 v -1.58617 q 0,-0.37642 -0.146781,-0.56345 -0.14678,-0.18702 -0.44034,-0.18702 -0.352746,0 -0.556344,0.2249 -0.203598,0.22491 -0.203598,0.61317 v 1.49857 h -0.437974 v -3.6837 h 0.437974 v 1.44412 q 0.156249,-0.23911 0.36695,-0.35748 0.213068,-0.11837 0.490056,-0.11837 0.456913,0 0.691288,0.28409 0.234374,0.28172 0.234374,0.83097 z"
             style="font-style:normal;font-variant:normal;font-weight:normal;font-stretch:normal;font-size:4.84848px;font-family:sans-serif;-inkscape-font-specification:'sans-serif, Normal';font-variant-ligatures:normal;font-variant-caps:normal;font-variant-numeric:normal;font-variant-east-asian:normal;fill:#000080"
             id="path658" />
        </g>
        <g
           aria-label="Left RGB \&amp; Depth"
           transform="matrix(1.0186469,0,0,0.98169444,-0.22501442,0.06486892)"
           id="text1432"
           style="font-style:normal;font-variant:normal;font-weight:normal;font-stretch:normal;font-size:4.84848px;line-height:1.25;font-family:sans-serif;-inkscape-font-specification:'sans-serif, Normal';font-variant-ligatures:normal;font-variant-caps:normal;font-variant-numeric:normal;font-variant-east-asian:normal;fill:#000080;fill-opacity:1;stroke:none;stroke-width:0.254985">
          <path
             d="m 129.30698,94.178169 h 0.47822 v 3.1321 h 1.72112 v 0.402461 h -2.19934 z"
             style="font-style:normal;font-variant:normal;font-weight:normal;font-stretch:normal;font-size:4.84848px;font-family:sans-serif;-inkscape-font-specification:'sans-serif, Normal';font-variant-ligatures:normal;font-variant-caps:normal;font-variant-numeric:normal;font-variant-east-asian:normal;fill:#000080;stroke-width:0.254985"
             id="path601" />
          <path
             d="m 134.16967,96.278073 v 0.213068 h -2.00284 q 0.0284,0.44981 0.26988,0.686552 0.24385,0.234375 0.67709,0.234375 0.25094,0 0.48532,-0.06155 0.23674,-0.06155 0.46875,-0.184659 v 0.411931 q -0.23438,0.09943 -0.48059,0.151515 -0.24621,0.05208 -0.49952,0.05208 -0.63447,0 -1.00616,-0.369318 -0.36932,-0.369318 -0.36932,-0.999052 0,-0.651041 0.35038,-1.032196 0.35275,-0.383523 0.94934,-0.383523 0.53504,0 0.84517,0.345644 0.3125,0.343276 0.3125,0.935133 z m -0.43561,-0.127841 q -0.005,-0.357481 -0.20123,-0.570549 -0.19413,-0.213068 -0.5161,-0.213068 -0.36458,0 -0.58475,0.205966 -0.2178,0.205966 -0.25095,0.580018 z"
             style="font-style:normal;font-variant:normal;font-weight:normal;font-stretch:normal;font-size:4.84848px;font-family:sans-serif;-inkscape-font-specification:'sans-serif, Normal';font-variant-ligatures:normal;font-variant-caps:normal;font-variant-numeric:normal;font-variant-east-asian:normal;fill:#000080;stroke-width:0.254985"
             id="path603" />
          <path
             d="m 136.22696,94.029022 v 0.362215 h -0.41667 q -0.23437,0 -0.3267,0.0947 -0.09,0.0947 -0.09,0.340909 v 0.234375 h 0.71733 v 0.338541 h -0.71733 v 2.312971 h -0.43797 v -2.312971 h -0.41666 v -0.338541 h 0.41666 v -0.184659 q 0,-0.442708 0.20597,-0.643939 0.20596,-0.203598 0.65341,-0.203598 z"
             style="font-style:normal;font-variant:normal;font-weight:normal;font-stretch:normal;font-size:4.84848px;font-family:sans-serif;-inkscape-font-specification:'sans-serif, Normal';font-variant-ligatures:normal;font-variant-caps:normal;font-variant-numeric:normal;font-variant-east-asian:normal;fill:#000080;stroke-width:0.254985"
             id="path605" />
          <path
             d="m 136.93482,94.308378 v 0.75284 h 0.89725 v 0.338541 h -0.89725 v 1.439393 q 0,0.324337 0.0876,0.416666 0.09,0.09233 0.36222,0.09233 h 0.44744 v 0.364583 h -0.44744 q -0.50426,0 -0.69603,-0.187026 -0.19176,-0.189394 -0.19176,-0.686552 V 95.39976 h -0.3196 v -0.338541 h 0.3196 v -0.75284 z"
             style="font-style:normal;font-variant:normal;font-weight:normal;font-stretch:normal;font-size:4.84848px;font-family:sans-serif;-inkscape-font-specification:'sans-serif, Normal';font-variant-ligatures:normal;font-variant-caps:normal;font-variant-numeric:normal;font-variant-east-asian:normal;fill:#000080;stroke-width:0.254985"
             id="path607" />
          <path
             d="m 141.64599,96.055535 q 0.15388,0.05208 0.29829,0.222538 0.14678,0.170454 0.29356,0.468749 l 0.48532,0.965908 h -0.51373 l -0.45218,-0.906722 q -0.17518,-0.355114 -0.3409,-0.471117 -0.16336,-0.116004 -0.44745,-0.116004 h -0.52083 v 1.493843 h -0.47822 v -3.534561 h 1.07955 q 0.60606,0 0.90435,0.253315 0.2983,0.253314 0.2983,0.764677 0,0.333806 -0.15625,0.553977 -0.15389,0.22017 -0.44981,0.305397 z m -1.19792,-1.484374 v 1.254734 h 0.60133 q 0.34564,0 0.52083,-0.158617 0.17756,-0.160985 0.17756,-0.471117 0,-0.310132 -0.17756,-0.466382 -0.17519,-0.158618 -0.52083,-0.158618 z"
             style="font-style:normal;font-variant:normal;font-weight:normal;font-stretch:normal;font-size:4.84848px;font-family:sans-serif;-inkscape-font-specification:'sans-serif, Normal';font-variant-ligatures:normal;font-variant-caps:normal;font-variant-numeric:normal;font-variant-east-asian:normal;fill:#000080;stroke-width:0.254985"
             id="path609" />
          <path
             d="m 145.7511,97.20847 v -0.949337 h -0.78125 v -0.392992 h 1.25473 v 1.517518 q -0.27699,0.196496 -0.61079,0.298295 -0.33381,0.09943 -0.7126,0.09943 -0.8286,0 -1.29735,-0.482954 -0.46638,-0.485322 -0.46638,-1.349431 0,-0.866476 0.46638,-1.349431 0.46875,-0.485321 1.29735,-0.485321 0.34565,0 0.65578,0.08523 0.3125,0.08523 0.57528,0.250947 v 0.508996 q -0.26515,-0.224905 -0.56345,-0.338542 -0.29829,-0.113636 -0.62736,-0.113636 -0.64868,0 -0.97538,0.362216 -0.32434,0.362215 -0.32434,1.079544 0,0.714961 0.32434,1.077177 0.3267,0.362216 0.97538,0.362216 0.25331,0 0.45218,-0.04261 0.19886,-0.04498 0.35748,-0.13731 z"
             style="font-style:normal;font-variant:normal;font-weight:normal;font-stretch:normal;font-size:4.84848px;font-family:sans-serif;-inkscape-font-specification:'sans-serif, Normal';font-variant-ligatures:normal;font-variant-caps:normal;font-variant-numeric:normal;font-variant-east-asian:normal;fill:#000080;stroke-width:0.254985"
             id="path611" />
          <path
             d="m 147.57874,96.024759 v 1.294979 h 0.76705 q 0.38589,0 0.57055,-0.158617 0.18702,-0.160985 0.18702,-0.490056 0,-0.331439 -0.18702,-0.487689 -0.18466,-0.158617 -0.57055,-0.158617 z m 0,-1.453598 v 1.06534 h 0.70786 q 0.35038,0 0.52084,-0.130208 0.17282,-0.132576 0.17282,-0.402462 0,-0.267518 -0.17282,-0.400094 -0.17046,-0.132576 -0.52084,-0.132576 z m -0.47821,-0.392992 h 1.22159 q 0.54687,0 0.8428,0.227273 0.29593,0.227272 0.29593,0.646306 0,0.324337 -0.15152,0.516098 -0.15151,0.191761 -0.44507,0.23911 0.35274,0.07576 0.54687,0.317234 0.1965,0.23911 0.1965,0.598958 0,0.473484 -0.32197,0.731533 -0.32197,0.258049 -0.9162,0.258049 h -1.26893 z"
             style="font-style:normal;font-variant:normal;font-weight:normal;font-stretch:normal;font-size:4.84848px;font-family:sans-serif;-inkscape-font-specification:'sans-serif, Normal';font-variant-ligatures:normal;font-variant-caps:normal;font-variant-numeric:normal;font-variant-east-asian:normal;fill:#000080;stroke-width:0.254985"
             id="path613" />
          <path
             d="m 153.60247,95.811691 q -0.21544,0.191761 -0.31724,0.383522 -0.0994,0.189394 -0.0994,0.397727 0,0.345643 0.25095,0.575283 0.25094,0.22964 0.62973,0.22964 0.22491,0 0.4214,-0.07339 0.1965,-0.07576 0.36932,-0.227272 z m 0.3338,-0.265152 1.20265,1.23106 q 0.13968,-0.210701 0.21781,-0.44981 0.0781,-0.241477 0.0923,-0.511364 h 0.44034 q -0.0284,0.3125 -0.15152,0.617898 -0.12311,0.305397 -0.34328,0.603692 l 0.66052,0.674715 h -0.59659 l -0.33855,-0.348011 q -0.24621,0.210701 -0.51609,0.314867 -0.26989,0.1018 -0.58002,0.1018 -0.57055,0 -0.93277,-0.324337 -0.36221,-0.326704 -0.36221,-0.8357 0,-0.30303 0.15861,-0.568181 0.15862,-0.267519 0.47586,-0.501894 -0.11364,-0.149147 -0.17283,-0.295928 -0.0592,-0.149147 -0.0592,-0.291193 0,-0.383522 0.26278,-0.615529 0.26279,-0.234375 0.69839,-0.234375 0.1965,0 0.39063,0.04261 0.19649,0.04261 0.39772,0.12784 v 0.430871 q -0.20596,-0.111269 -0.39299,-0.168087 -0.18702,-0.05918 -0.34801,-0.05918 -0.24858,0 -0.40483,0.132575 -0.15388,0.130209 -0.15388,0.338542 0,0.120738 0.0687,0.243844 0.071,0.120739 0.28646,0.343276 z"
             style="font-style:normal;font-variant:normal;font-weight:normal;font-stretch:normal;font-size:4.84848px;font-family:sans-serif;-inkscape-font-specification:'sans-serif, Normal';font-variant-ligatures:normal;font-variant-caps:normal;font-variant-numeric:normal;font-variant-east-asian:normal;fill:#000080;stroke-width:0.254985"
             id="path617" />
          <path
             d="m 159.40639,94.571161 v 2.748577 h 0.57765 q 0.73153,0 1.07007,-0.331439 0.34091,-0.331439 0.34091,-1.0464 0,-0.710227 -0.34091,-1.039298 -0.33854,-0.33144 -1.07007,-0.33144 z m -0.47822,-0.392992 h 0.98248 q 1.02746,0 1.50804,0.428504 0.48059,0.426136 0.48059,1.335226 0,0.913825 -0.48295,1.342328 -0.48296,0.428503 -1.50568,0.428503 h -0.98248 z"
             style="font-style:normal;font-variant:normal;font-weight:normal;font-stretch:normal;font-size:4.84848px;font-family:sans-serif;-inkscape-font-specification:'sans-serif, Normal';font-variant-ligatures:normal;font-variant-caps:normal;font-variant-numeric:normal;font-variant-east-asian:normal;fill:#000080;stroke-width:0.254985"
             id="path619" />
          <path
             d="m 164.90828,96.278073 v 0.213068 h -2.00284 q 0.0284,0.44981 0.26988,0.686552 0.24385,0.234375 0.67708,0.234375 0.25095,0 0.48533,-0.06155 0.23674,-0.06155 0.46875,-0.184659 v 0.411931 q -0.23438,0.09943 -0.48059,0.151515 -0.24621,0.05208 -0.49953,0.05208 -0.63447,0 -1.00615,-0.369318 -0.36932,-0.369318 -0.36932,-0.999052 0,-0.651041 0.35038,-1.032196 0.35275,-0.383523 0.94934,-0.383523 0.53503,0 0.84517,0.345644 0.3125,0.343276 0.3125,0.935133 z m -0.43561,-0.127841 q -0.005,-0.357481 -0.20123,-0.570549 -0.19413,-0.213068 -0.5161,-0.213068 -0.36458,0 -0.58475,0.205966 -0.21781,0.205966 -0.25095,0.580018 z"
             style="font-style:normal;font-variant:normal;font-weight:normal;font-stretch:normal;font-size:4.84848px;font-family:sans-serif;-inkscape-font-specification:'sans-serif, Normal';font-variant-ligatures:normal;font-variant-caps:normal;font-variant-numeric:normal;font-variant-east-asian:normal;fill:#000080;stroke-width:0.254985"
             id="path621" />
          <path
             d="m 166.04464,97.315004 v 1.406248 h -0.43797 v -3.660034 h 0.43797 v 0.402462 q 0.13731,-0.236743 0.34564,-0.350379 0.2107,-0.116004 0.5019,-0.116004 0.48295,0 0.78361,0.383523 0.30303,0.383522 0.30303,1.008522 0,0.624999 -0.30303,1.008521 -0.30066,0.383523 -0.78361,0.383523 -0.2912,0 -0.5019,-0.113637 -0.20833,-0.116003 -0.34564,-0.352745 z m 1.482,-0.925662 q 0,-0.480587 -0.19886,-0.752841 -0.1965,-0.274621 -0.54214,-0.274621 -0.34564,0 -0.54451,0.274621 -0.19649,0.272254 -0.19649,0.752841 0,0.480586 0.19649,0.755207 0.19887,0.272254 0.54451,0.272254 0.34564,0 0.54214,-0.272254 0.19886,-0.274621 0.19886,-0.755207 z"
             style="font-style:normal;font-variant:normal;font-weight:normal;font-stretch:normal;font-size:4.84848px;font-family:sans-serif;-inkscape-font-specification:'sans-serif, Normal';font-variant-ligatures:normal;font-variant-caps:normal;font-variant-numeric:normal;font-variant-east-asian:normal;fill:#000080;stroke-width:0.254985"
             id="path623" />
          <path
             d="m 169.13176,94.308378 v 0.75284 h 0.89725 v 0.338541 h -0.89725 v 1.439393 q 0,0.324337 0.0876,0.416666 0.09,0.09233 0.36222,0.09233 h 0.44744 v 0.364583 h -0.44744 q -0.50426,0 -0.69603,-0.187026 -0.19176,-0.189394 -0.19176,-0.686552 V 95.39976 h -0.3196 v -0.338541 h 0.3196 v -0.75284 z"
             style="font-style:normal;font-variant:normal;font-weight:normal;font-stretch:normal;font-size:4.84848px;font-family:sans-serif;-inkscape-font-specification:'sans-serif, Normal';font-variant-ligatures:normal;font-variant-caps:normal;font-variant-numeric:normal;font-variant-east-asian:normal;fill:#000080;stroke-width:0.254985"
             id="path625" />
          <path
             d="m 172.80836,96.112353 v 1.600377 h -0.4356 v -1.586172 q 0,-0.37642 -0.14678,-0.563447 -0.14678,-0.187026 -0.44034,-0.187026 -0.35275,0 -0.55635,0.224905 -0.2036,0.224905 -0.2036,0.613162 v 1.498578 h -0.43797 v -3.683708 h 0.43797 v 1.444127 q 0.15625,-0.239109 0.36695,-0.357481 0.21307,-0.118371 0.49006,-0.118371 0.45691,0 0.69129,0.284091 0.23437,0.281723 0.23437,0.830965 z"
             style="font-style:normal;font-variant:normal;font-weight:normal;font-stretch:normal;font-size:4.84848px;font-family:sans-serif;-inkscape-font-specification:'sans-serif, Normal';font-variant-ligatures:normal;font-variant-caps:normal;font-variant-numeric:normal;font-variant-east-asian:normal;fill:#000080;stroke-width:0.254985"
             id="path627" />
        </g>
      </g>
    </g>
  </g>
</svg>
