<?xml version="1.0" encoding="UTF-8" standalone="no"?>
<svg
   xmlns:dc="http://purl.org/dc/elements/1.1/"
   xmlns:cc="http://creativecommons.org/ns#"
   xmlns:rdf="http://www.w3.org/1999/02/22-rdf-syntax-ns#"
   xmlns:svg="http://www.w3.org/2000/svg"
   xmlns="http://www.w3.org/2000/svg"
   xmlns:sodipodi="http://sodipodi.sourceforge.net/DTD/sodipodi-0.dtd"
   xmlns:inkscape="http://www.inkscape.org/namespaces/inkscape"
   width="210mm"
   height="297mm"
   viewBox="0 0 210 297"
   version="1.1"
   id="svg8"
   inkscape:version="1.0 (1.0+r73+1)"
   sodipodi:docname="minima.svg">
  <defs
     id="defs2">
    <inkscape:path-effect
       only_selected="false"
       apply_with_weight="true"
       apply_no_weight="true"
       helper_size="0"
       steps="2"
       weight="33.333333"
       lpeversion="1"
       is_visible="true"
       id="path-effect479"
       effect="bspline" />
    <inkscape:path-effect
       effect="bspline"
       id="path-effect1951"
       is_visible="true"
       lpeversion="1"
       weight="33.333333"
       steps="2"
       helper_size="0"
       apply_no_weight="true"
       apply_with_weight="true"
       only_selected="false" />
    <inkscape:path-effect
       effect="bspline"
       id="path-effect1909"
       is_visible="true"
       lpeversion="1"
       weight="33.333333"
       steps="2"
       helper_size="0"
       apply_no_weight="true"
       apply_with_weight="true"
       only_selected="false" />
    <marker
       inkscape:stockid="Arrow1Mend"
       orient="auto"
       refY="0.0"
       refX="0.0"
       id="Arrow1Mend"
       style="overflow:visible;"
       inkscape:isstock="true">
      <path
         id="path854"
         d="M 0.0,0.0 L 5.0,-5.0 L -12.5,0.0 L 5.0,5.0 L 0.0,0.0 z "
         style="fill-rule:evenodd;stroke:#006165;stroke-width:1pt;stroke-opacity:1;fill:#006165;fill-opacity:1"
         transform="scale(0.4) rotate(180) translate(10,0)" />
    </marker>
    <inkscape:path-effect
       effect="bspline"
       id="path-effect1849"
       is_visible="true"
       lpeversion="1"
       weight="33.333333"
       steps="2"
       helper_size="0"
       apply_no_weight="true"
       apply_with_weight="true"
       only_selected="false" />
    <inkscape:path-effect
       effect="bspline"
       id="path-effect1337"
       is_visible="true"
       lpeversion="1"
       weight="33.333333"
       steps="2"
       helper_size="0"
       apply_no_weight="true"
       apply_with_weight="true"
       only_selected="false" />
    <inkscape:path-effect
       effect="bspline"
       id="path-effect1333"
       is_visible="true"
       lpeversion="1"
       weight="33.333333"
       steps="2"
       helper_size="0"
       apply_no_weight="true"
       apply_with_weight="true"
       only_selected="false" />
    <inkscape:path-effect
       effect="bspline"
       id="path-effect1301"
       is_visible="true"
       lpeversion="1"
       weight="33.333333"
       steps="2"
       helper_size="0"
       apply_no_weight="true"
       apply_with_weight="true"
       only_selected="false" />
    <marker
       inkscape:stockid="Arrow1Lend"
       orient="auto"
       refY="0.0"
       refX="0.0"
       id="marker1219"
       style="overflow:visible;"
       inkscape:isstock="true">
      <path
         id="path1217"
         d="M 0.0,0.0 L 5.0,-5.0 L -12.5,0.0 L 5.0,5.0 L 0.0,0.0 z "
         style="fill-rule:evenodd;stroke:#000000;stroke-width:1pt;stroke-opacity:1;fill:#000000;fill-opacity:1"
         transform="scale(0.8) rotate(180) translate(12.5,0)" />
    </marker>
    <marker
       inkscape:stockid="Arrow1Lend"
       orient="auto"
       refY="0.0"
       refX="0.0"
       id="marker1185"
       style="overflow:visible;"
       inkscape:isstock="true">
      <path
         id="path1183"
         d="M 0.0,0.0 L 5.0,-5.0 L -12.5,0.0 L 5.0,5.0 L 0.0,0.0 z "
         style="fill-rule:evenodd;stroke:#000000;stroke-width:1pt;stroke-opacity:1;fill:#000000;fill-opacity:1"
         transform="scale(0.8) rotate(180) translate(12.5,0)" />
    </marker>
    <marker
       inkscape:isstock="true"
       style="overflow:visible;"
       id="marker1127"
       refX="0.0"
       refY="0.0"
       orient="auto"
       inkscape:stockid="Arrow1Lend"
       inkscape:collect="always">
      <path
         transform="scale(0.8) rotate(180) translate(12.5,0)"
         style="fill-rule:evenodd;stroke:#000000;stroke-width:1pt;stroke-opacity:1;fill:#000000;fill-opacity:1"
         d="M 0.0,0.0 L 5.0,-5.0 L -12.5,0.0 L 5.0,5.0 L 0.0,0.0 z "
         id="path1125" />
    </marker>
    <marker
       inkscape:isstock="true"
       style="overflow:visible;"
       id="marker1117"
       refX="0.0"
       refY="0.0"
       orient="auto"
       inkscape:stockid="Arrow1Lend">
      <path
         transform="scale(0.8) rotate(180) translate(12.5,0)"
         style="fill-rule:evenodd;stroke:#000000;stroke-width:1pt;stroke-opacity:1;fill:#000000;fill-opacity:1"
         d="M 0.0,0.0 L 5.0,-5.0 L -12.5,0.0 L 5.0,5.0 L 0.0,0.0 z "
         id="path1115" />
    </marker>
    <inkscape:path-effect
       only_selected="false"
       apply_with_weight="true"
       apply_no_weight="true"
       helper_size="0"
       steps="2"
       weight="33.333333"
       lpeversion="1"
       is_visible="true"
       id="path-effect20"
       effect="bspline" />
    <inkscape:path-effect
       effect="bspline"
       id="path-effect12"
       is_visible="true"
       lpeversion="1"
       weight="33.333333"
       steps="2"
       helper_size="0"
       apply_no_weight="true"
       apply_with_weight="true"
       only_selected="false" />
  </defs>
  <sodipodi:namedview
     id="base"
     pagecolor="#ffffff"
     bordercolor="#666666"
     borderopacity="1.0"
     inkscape:pageopacity="0.0"
     inkscape:pageshadow="2"
     inkscape:zoom="2"
     inkscape:cx="374.83844"
     inkscape:cy="271.17831"
     inkscape:document-units="mm"
     inkscape:current-layer="layer1"
     inkscape:document-rotation="0"
     showgrid="true"
     inkscape:snap-global="false"
     inkscape:window-width="1600"
     inkscape:window-height="850"
     inkscape:window-x="0"
     inkscape:window-y="0"
     inkscape:window-maximized="1">
    <inkscape:grid
       type="xygrid"
       id="grid461" />
  </sodipodi:namedview>
  <metadata
     id="metadata5">
    <rdf:RDF>
      <cc:Work
         rdf:about="">
        <dc:format>image/svg+xml</dc:format>
        <dc:type
           rdf:resource="http://purl.org/dc/dcmitype/StillImage" />
        <dc:title></dc:title>
      </cc:Work>
    </rdf:RDF>
  </metadata>
  <g
     inkscape:label="Layer 1"
     inkscape:groupmode="layer"
     id="layer1">
    <path
       style="fill:none;stroke:#000000;stroke-width:0.265;stroke-linecap:butt;stroke-linejoin:miter;stroke-miterlimit:4;stroke-dasharray:none;stroke-opacity:1;marker-mid:url(#marker1219);marker-end:url(#marker1219)"
       d="M 34.501494,82.469589 C 34.396588,62.053555 34.291683,41.637783 34.186779,21.222278"
       id="path10"
       inkscape:path-effect="#path-effect12"
       inkscape:original-d="M 34.501494,82.469589 C 34.396323,62.053556 34.291417,41.637784 34.186779,21.222278" />
    <path
       inkscape:original-d="M 34.501495,82.469588 C 54.917531,82.364947 75.333303,82.260041 95.748807,82.154873"
       inkscape:path-effect="#path-effect20"
       id="path18"
       d="M 34.501495,82.469588 C 54.91753,82.364682 75.333302,82.259777 95.748807,82.154873"
       style="fill:none;stroke:#000000;stroke-width:0.265;stroke-linecap:butt;stroke-linejoin:miter;stroke-miterlimit:4;stroke-dasharray:none;stroke-opacity:1;marker-end:url(#marker1127)" />
    <path
       style="fill:none;stroke:#000000;stroke-width:0.343929px;stroke-linecap:butt;stroke-linejoin:miter;stroke-opacity:1"
       d="M 41.91015,26.447767 C 48.72801,51.801373 55.545584,77.153914 62.34852,80.934766 69.151456,84.715618 75.93919,66.924904 79.657606,55.084109 83.376022,43.243313 84.024663,37.35356 84.673317,31.463686"
       id="path1299"
       inkscape:path-effect="#path-effect1301"
       inkscape:original-d="m 41.91015,26.447767 c 6.818043,25.353557 13.635618,50.706098 20.453222,76.059483 6.788403,-17.79151 13.576137,-35.582224 20.364021,-53.374288 0.64892,-5.889617 1.297561,-11.77937 1.945924,-17.669276"
       sodipodi:nodetypes="cccc" />
    <path
       style="opacity:0.64730037;fill:#000000;fill-rule:evenodd;stroke:#000000;stroke-width:0.264583;stroke-miterlimit:4;stroke-dasharray:none;stroke-dashoffset:0"
       id="path1311"
       sodipodi:type="arc"
       sodipodi:cx="82.20356"
       sodipodi:cy="39.814552"
       sodipodi:rx="0.99671781"
       sodipodi:ry="1.1590387"
       sodipodi:start="6.1812057"
       sodipodi:end="6.1715715"
       sodipodi:open="true"
       sodipodi:arc-type="arc"
       d="m 83.195099,39.696559 a 0.99671781,1.1590387 0 0 1 -0.887682,1.270723 0.99671781,1.1590387 0 0 1 -1.094896,-1.029183 0.99671781,1.1590387 0 0 1 0.882408,-1.275681 0.99671781,1.1590387 0 0 1 1.099147,1.023038"
       transform="rotate(-0.29440807)" />
    <path
       style="fill:none;stroke:#cc071e;stroke-width:0.72354722;stroke-linecap:butt;stroke-linejoin:miter;stroke-miterlimit:4;stroke-dasharray:1.44709444, 0.72354722000000005;stroke-dashoffset:0;stroke-opacity:1"
       d="m 84.881706,35.229293 c -1.040032,3.480855 -2.080015,6.961543 -3.119946,10.442059"
       id="path1331"
       inkscape:path-effect="#path-effect1333"
       inkscape:original-d="M 84.881706,35.229293 C 83.841988,38.710242 82.802005,42.19093 81.76176,45.671352" />
    <path
       style="fill:none;stroke:#000000;stroke-width:0.24694444;stroke-linecap:butt;stroke-linejoin:miter;stroke-opacity:1;stroke-miterlimit:4;stroke-dasharray:none"
       d="m 85.080512,37.30701 c 4.202382,-1.320627 8.404533,-2.641181 12.606449,-3.961662"
       id="path1335"
       inkscape:path-effect="#path-effect1337"
       inkscape:original-d="m 85.080512,37.30701 c 4.20252,-1.320188 8.40467,-2.640744 12.606449,-3.961662" />
    <path
       style="fill:none;stroke:#006165;stroke-width:0.264583px;stroke-linecap:butt;stroke-linejoin:miter;stroke-opacity:1;marker-mid:url(#Arrow1Mend);marker-end:url(#Arrow1Mend);opacity:1"
       d="m 81.684177,41.531259 c -0.99183,3.720428 -1.983612,7.440674 -3.023904,11.016993 -1.040293,3.576318 -2.129047,7.008584 -3.226134,9.895221 -1.097087,2.886638 -2.202436,5.227528 -3.216827,7.380947 -1.014391,2.15342 -1.937763,4.119238 -3.029478,5.782164 -1.091714,1.662925 -2.351746,3.022967 -3.611796,4.383028"
       id="path1847"
       inkscape:path-effect="#path-effect1849"
       inkscape:original-d="m 81.684177,41.531259 c -0.991517,3.720511 -1.983301,7.440757 -2.975346,11.160742 -1.088533,3.43267 -2.177287,6.864936 -3.266331,10.29701 -1.10513,2.34125 -2.210477,4.682141 -3.316115,7.022815 -0.923146,1.966163 -1.846517,3.931982 -2.770175,5.897579 -1.259815,1.360359 -2.519847,2.720401 -3.780172,4.080207" />
    <path
       style="fill:none;stroke:#000000;stroke-width:0.24694444;stroke-linecap:butt;stroke-linejoin:miter;stroke-opacity:1;stroke-miterlimit:4;stroke-dasharray:none"
       d="M 66.411584,81.670523 C 76.66187,78.695381 86.911976,75.72029 92.049938,74.219646 97.1879,72.719002 97.213789,72.69286 97.239803,72.666592"
       id="path1907"
       inkscape:path-effect="#path-effect1909"
       inkscape:original-d="m 66.411584,81.670523 c 10.250377,-2.974828 20.500484,-5.949917 30.750319,-8.925271 0.0263,-0.02595 0.0521,-0.05218 0.0779,-0.07866" />
    <path
       style="fill:none;stroke:#000000;stroke-width:0.24694444;stroke-linecap:butt;stroke-linejoin:miter;stroke-opacity:1;stroke-miterlimit:4;stroke-dasharray:none"
       d="m 72.233678,26.399972 c 3.037188,3.987776 6.074152,7.975258 9.11089,11.962443"
       id="path1949"
       inkscape:path-effect="#path-effect1951"
       inkscape:original-d="m 72.233678,26.399972 c 3.037229,3.987745 6.074192,7.975228 9.11089,11.962443" />
    <text
       xml:space="preserve"
       style="font-weight:bold;font-size:3.52777px;line-height:1.25;font-family:sans-serif;-inkscape-font-specification:'sans-serif Bold';stroke-width:0.264583"
       x="115.60562"
       y="79.136101"
       id="text2009"><tspan
         sodipodi:role="line"
         id="tspan2007"
         x="115.60562"
         y="79.136101"
         style="stroke-width:0.264583" /></text>
    <path
       inkscape:original-d="M 80.001257,56.837037 C 86.002219,55.196325 92.002913,53.55535 98.003343,51.914111"
       inkscape:path-effect="#path-effect479"
       id="path477"
       d="m 80.001257,56.837037 c 6.000876,-1.641025 12.00157,-3.282 18.002086,-4.922926"
       style="fill:none;stroke:#000000;stroke-width:0.24694444;stroke-linecap:butt;stroke-linejoin:miter;stroke-opacity:1;stroke-miterlimit:4;stroke-dasharray:none" />
    <g
       style="font-size:5.64444px;line-height:1.25;font-family:sans-serif;-inkscape-font-specification:sans-serif;stroke-width:0.264583"
       id="text5158"
       aria-label="w">
      <path
         id="path5678"
         style="font-size:5.64444px;stroke-width:0.264583"
         d="m 62.733791,84.619762 h 0.507118 l 0.633897,2.408809 0.631141,-2.408809 h 0.598068 l 0.633897,2.408809 0.631141,-2.408809 h 0.507118 l -0.80753,3.086803 h -0.598068 l -0.664214,-2.530076 -0.66697,2.530076 h -0.598068 z" />
    </g>
    <g
       transform="translate(2.5851993)"
       style="font-size:5.64444px;line-height:1.25;font-family:sans-serif;-inkscape-font-specification:sans-serif;stroke-width:0.264583"
       id="text5162"
       aria-label="J(w)">
      <path
         id="path5669"
         style="font-size:5.64444px;stroke-width:0.264583"
         d="m 19.535731,49.444824 h 0.556727 v 3.828187 q 0,0.74414 -0.283876,1.080381 -0.281119,0.336241 -0.906748,0.336241 h -0.212218 v -0.468532 h 0.173633 q 0.369314,0 0.520898,-0.206706 0.151584,-0.206706 0.151584,-0.741384 z" />
      <path
         id="path5671"
         style="font-size:5.64444px;stroke-width:0.264583"
         d="m 22.396536,49.276703 q -0.369314,0.633897 -0.548459,1.254014 -0.179144,0.620117 -0.179144,1.25677 0,0.636653 0.179144,1.262282 0.181901,0.622873 0.548459,1.254014 h -0.440972 q -0.413411,-0.647678 -0.620116,-1.273306 -0.20395,-0.625629 -0.20395,-1.24299 0,-0.614605 0.20395,-1.237477 0.203949,-0.622873 0.620116,-1.273307 z" />
      <path
         id="path5673"
         style="font-size:5.64444px;stroke-width:0.264583"
         d="m 23.088311,50.47284 h 0.507117 l 0.633897,2.408809 0.631141,-2.408809 h 0.598069 l 0.633897,2.408809 0.631141,-2.408809 h 0.507117 l -0.807529,3.086803 h -0.598069 l -0.664213,-2.530076 -0.66697,2.530076 H 23.89584 Z" />
      <path
         id="path5675"
         style="font-size:5.64444px;stroke-width:0.264583"
         d="m 27.922466,49.276703 h 0.440972 q 0.413411,0.650434 0.61736,1.273307 0.206706,0.622872 0.206706,1.237477 0,0.617361 -0.206706,1.24299 -0.203949,0.625628 -0.61736,1.273306 h -0.440972 q 0.366558,-0.631141 0.545702,-1.254014 0.181901,-0.625629 0.181901,-1.262282 0,-0.636653 -0.181901,-1.25677 -0.179144,-0.620117 -0.545702,-1.254014 z" />
    </g>
    <g
       style="font-size:5.64444px;line-height:1.25;font-family:sans-serif;-inkscape-font-specification:sans-serif;stroke-width:0.264583"
       id="text5184"
       aria-label="Initial weight">
      <path
         id="path5642"
         style="font-size:5.64444px;stroke-width:0.264583"
         d="m 53.582093,20.471492 h 0.556727 v 4.114819 h -0.556727 z" />
      <path
         id="path5644"
         style="font-size:5.64444px;stroke-width:0.264583"
         d="m 57.790618,22.723205 v 1.863106 h -0.507117 v -1.846569 q 0,-0.438216 -0.170877,-0.655946 -0.170877,-0.21773 -0.51263,-0.21773 -0.410655,0 -0.647677,0.261827 -0.237023,0.261827 -0.237023,0.713823 v 1.744595 h -0.509873 v -3.086803 h 0.509873 v 0.479557 q 0.181901,-0.278363 0.427192,-0.416167 0.248047,-0.137804 0.570507,-0.137804 0.531923,0 0.804774,0.330729 0.272851,0.327973 0.272851,0.967382 z" />
      <path
         id="path5646"
         style="font-size:5.64444px;stroke-width:0.264583"
         d="m 58.80761,21.499508 h 0.507118 v 3.086803 H 58.80761 Z m 0,-1.201648 h 0.507118 v 0.642165 H 58.80761 Z" />
      <path
         id="path5648"
         style="font-size:5.64444px;stroke-width:0.264583"
         d="m 60.874666,20.623076 v 0.876432 h 1.044552 v 0.394119 h -1.044552 v 1.675693 q 0,0.377582 0.101974,0.485069 0.104731,0.107487 0.42168,0.107487 h 0.520898 v 0.424435 H 61.39832 q -0.587044,0 -0.810286,-0.21773 -0.223242,-0.220485 -0.223242,-0.799261 v -1.675693 h -0.37207 v -0.394119 h 0.37207 v -0.876432 z" />
      <path
         id="path5650"
         style="font-size:5.64444px;stroke-width:0.264583"
         d="m 62.588943,21.499508 h 0.507118 v 3.086803 h -0.507118 z m 0,-1.201648 h 0.507118 v 0.642165 h -0.507118 z" />
      <path
         id="path5652"
         style="font-size:5.64444px;stroke-width:0.264583"
         d="m 65.557236,23.034642 q -0.614605,0 -0.851627,0.140559 -0.237022,0.14056 -0.237022,0.479557 0,0.270096 0.176388,0.429948 0.179145,0.157096 0.485069,0.157096 0.42168,0 0.675239,-0.297656 0.256315,-0.300412 0.256315,-0.796505 v -0.112999 z m 1.011479,-0.209462 v 1.761131 h -0.507117 v -0.468532 q -0.173633,0.281119 -0.432704,0.416167 -0.259071,0.132291 -0.633897,0.132291 -0.474045,0 -0.755165,-0.264583 -0.278363,-0.267339 -0.278363,-0.713823 0,-0.520898 0.347265,-0.785481 0.350022,-0.264583 1.041796,-0.264583 h 0.711068 v -0.04961 q 0,-0.350021 -0.231511,-0.54019 -0.228754,-0.192925 -0.644921,-0.192925 -0.264583,0 -0.515386,0.06339 -0.250803,0.06339 -0.482313,0.19017 v -0.468533 q 0.278364,-0.107487 0.540191,-0.159852 0.261827,-0.05512 0.509873,-0.05512 0.669726,0 1.000455,0.347265 0.330729,0.347266 0.330729,1.052821 z" />
      <path
         id="path5654"
         style="font-size:5.64444px;stroke-width:0.264583"
         d="m 67.616023,20.29786 h 0.507118 v 4.288451 h -0.507118 z" />
      <path
         id="path5656"
         style="font-size:5.64444px;stroke-width:0.264583"
         d="m 70.683535,21.499508 h 0.507117 l 0.633897,2.408809 0.631141,-2.408809 h 0.598069 l 0.633897,2.408809 0.631141,-2.408809 h 0.507117 l -0.807529,3.086803 h -0.598069 l -0.664214,-2.530076 -0.666969,2.530076 h -0.598069 z" />
      <path
         id="path5658"
         style="font-size:5.64444px;stroke-width:0.264583"
         d="m 78.237934,22.91613 v 0.248047 h -2.331638 q 0.03307,0.523654 0.314192,0.799262 0.283876,0.272851 0.788237,0.272851 0.292144,0 0.564996,-0.07166 0.275607,-0.07166 0.545702,-0.214974 v 0.479557 q -0.272851,0.115755 -0.559483,0.176389 -0.286632,0.06063 -0.581532,0.06063 -0.738627,0 -1.171331,-0.429947 -0.429948,-0.429948 -0.429948,-1.163063 0,-0.757921 0.407899,-1.201649 0.410655,-0.446484 1.105186,-0.446484 0.622873,0 0.983919,0.402387 0.363801,0.399631 0.363801,1.088649 z m -0.507117,-0.148828 q -0.0055,-0.416167 -0.234267,-0.664214 -0.225998,-0.248046 -0.600824,-0.248046 -0.424435,0 -0.68075,0.239778 -0.253559,0.239779 -0.292144,0.675238 z" />
      <path
         id="path5660"
         style="font-size:5.64444px;stroke-width:0.264583"
         d="m 79.070268,21.499508 h 0.507117 v 3.086803 h -0.507117 z m 0,-1.201648 h 0.507117 v 0.642165 h -0.507117 z" />
      <path
         id="path5662"
         style="font-size:5.64444px;stroke-width:0.264583"
         d="m 82.666945,23.007081 q 0,-0.551215 -0.228754,-0.854383 -0.225998,-0.303168 -0.636653,-0.303168 -0.407899,0 -0.636653,0.303168 -0.225998,0.303168 -0.225998,0.854383 0,0.548459 0.225998,0.851627 0.228754,0.303168 0.636653,0.303168 0.410655,0 0.636653,-0.303168 0.228754,-0.303168 0.228754,-0.851627 z m 0.507118,1.196136 q 0,0.788237 -0.350022,1.171332 -0.350021,0.38585 -1.072113,0.38585 -0.267339,0 -0.504361,-0.04134 -0.237023,-0.03859 -0.460265,-0.121267 v -0.493338 q 0.223242,0.121268 0.440972,0.179145 0.21773,0.05788 0.443728,0.05788 0.49885,0 0.746896,-0.261827 0.248047,-0.259071 0.248047,-0.785482 v -0.250802 q -0.157096,0.272851 -0.402387,0.407899 -0.24529,0.135047 -0.587044,0.135047 -0.567751,0 -0.915016,-0.432703 -0.347266,-0.432704 -0.347266,-1.146527 0,-0.71658 0.347266,-1.149283 0.347265,-0.432704 0.915016,-0.432704 0.341754,0 0.587044,0.135048 0.245291,0.135047 0.402387,0.407899 v -0.468533 h 0.507118 z" />
      <path
         id="path5664"
         style="font-size:5.64444px;stroke-width:0.264583"
         d="m 86.784521,22.723205 v 1.863106 h -0.507118 v -1.846569 q 0,-0.438216 -0.170877,-0.655946 -0.170876,-0.21773 -0.512629,-0.21773 -0.410655,0 -0.647678,0.261827 -0.237022,0.261827 -0.237022,0.713823 v 1.744595 H 84.199323 V 20.29786 h 0.509874 v 1.681205 q 0.181901,-0.278363 0.427191,-0.416167 0.248047,-0.137804 0.570508,-0.137804 0.531922,0 0.804773,0.330729 0.272852,0.327973 0.272852,0.967382 z" />
      <path
         id="path5666"
         style="font-size:5.64444px;stroke-width:0.264583"
         d="m 88.303116,20.623076 v 0.876432 h 1.044552 v 0.394119 h -1.044552 v 1.675693 q 0,0.377582 0.101975,0.485069 0.104731,0.107487 0.421679,0.107487 h 0.520898 v 0.424435 H 88.82677 q -0.587043,0 -0.810285,-0.21773 -0.223242,-0.220485 -0.223242,-0.799261 v -1.675693 h -0.37207 v -0.394119 h 0.37207 v -0.876432 z" />
    </g>
    <g
       style="font-size:6.35px;line-height:1.25;font-family:sans-serif;-inkscape-font-specification:sans-serif;stroke-width:0.264583"
       id="text5188"
       aria-label="Gradient">
      <path
         id="path5625"
         style="font-size:6.35px;stroke-width:0.264583"
         d="m 102.54309,34.503733 v -1.243335 h -1.0232 v -0.514697 h 1.64331 v 1.987475 q -0.36276,0.257349 -0.79995,0.390674 -0.43718,0.130225 -0.93327,0.130225 -1.08521,0 -1.699124,-0.63252 -0.610815,-0.63562 -0.610815,-1.767334 0,-1.134814 0.610815,-1.767334 0.613914,-0.63562 1.699124,-0.63562 0.45268,0 0.85886,0.111621 0.40928,0.111621 0.75344,0.328663 v 0.666625 q -0.34726,-0.294555 -0.73794,-0.443383 -0.39067,-0.148828 -0.82165,-0.148828 -0.84956,0 -1.27744,0.474389 -0.424784,0.47439 -0.424784,1.413867 0,0.936377 0.424784,1.410767 0.42788,0.47439 1.27744,0.47439 0.33176,0 0.59221,-0.05581 0.26045,-0.05891 0.46819,-0.179834 z" />
      <path
         id="path5627"
         style="font-size:6.35px;stroke-width:0.264583"
         d="m 106.2979,32.224802 q -0.0961,-0.05581 -0.21084,-0.08061 -0.11162,-0.02791 -0.24805,-0.02791 -0.48369,0 -0.74414,0.31626 -0.25735,0.313159 -0.25735,0.90227 v 1.829346 h -0.57361 v -3.472656 h 0.57361 v 0.539502 q 0.17984,-0.31626 0.46819,-0.468189 0.28835,-0.155029 0.70073,-0.155029 0.0589,0 0.13023,0.0093 0.0713,0.0062 0.15813,0.0217 z" />
      <path
         id="path5629"
         style="font-size:6.35px;stroke-width:0.264583"
         d="m 108.48071,33.418528 q -0.69143,0 -0.95808,0.15813 -0.26665,0.15813 -0.26665,0.539502 0,0.303857 0.19844,0.483691 0.20153,0.176734 0.5457,0.176734 0.47439,0 0.75964,-0.334864 0.28836,-0.337964 0.28836,-0.896069 v -0.127124 z m 1.13791,-0.235645 v 1.981275 h -0.5705 v -0.5271 q -0.19534,0.31626 -0.4868,0.468189 -0.29145,0.148828 -0.71313,0.148828 -0.5333,0 -0.84956,-0.297656 -0.31316,-0.300757 -0.31316,-0.803052 0,-0.586011 0.39067,-0.883667 0.39378,-0.297656 1.17203,-0.297656 h 0.79995 v -0.05581 q 0,-0.393774 -0.26045,-0.607715 -0.25735,-0.217041 -0.72554,-0.217041 -0.29766,0 -0.57981,0.07131 -0.28215,0.07131 -0.5426,0.21394 v -0.527099 q 0.31316,-0.120923 0.60771,-0.179834 0.29456,-0.06201 0.57361,-0.06201 0.75344,0 1.12551,0.390674 0.37207,0.390673 0.37207,1.184423 z" />
      <path
         id="path5631"
         style="font-size:6.35px;stroke-width:0.264583"
         d="m 113.08198,32.218601 v -1.878955 h 0.57051 v 4.824512 h -0.57051 v -0.520899 q -0.17983,0.310059 -0.45579,0.461988 -0.27285,0.148828 -0.65732,0.148828 -0.62942,0 -1.02629,-0.502295 -0.39378,-0.502295 -0.39378,-1.32085 0,-0.818554 0.39378,-1.320849 0.39687,-0.502295 1.02629,-0.502295 0.38447,0 0.65732,0.151929 0.27596,0.148828 0.45579,0.458886 z m -1.94407,1.212329 q 0,0.629419 0.25735,0.989087 0.26045,0.356568 0.71314,0.356568 0.45268,0 0.71313,-0.356568 0.26045,-0.359668 0.26045,-0.989087 0,-0.629419 -0.26045,-0.985986 -0.26045,-0.359668 -0.71313,-0.359668 -0.45269,0 -0.71314,0.359668 -0.25735,0.356567 -0.25735,0.985986 z" />
      <path
         id="path5633"
         style="font-size:6.35px;stroke-width:0.264583"
         d="m 114.82761,31.691502 h 0.57051 v 3.472656 h -0.57051 z m 0,-1.351856 h 0.57051 v 0.722437 h -0.57051 z" />
      <path
         id="path5635"
         style="font-size:6.35px;stroke-width:0.264583"
         d="m 119.5591,33.285203 v 0.279053 h -2.62309 q 0.0372,0.589111 0.35347,0.899169 0.31936,0.306958 0.88676,0.306958 0.32866,0 0.63562,-0.08062 0.31006,-0.08062 0.61392,-0.241845 v 0.539501 q -0.30696,0.130225 -0.62942,0.198438 -0.32246,0.06821 -0.65422,0.06821 -0.83096,0 -1.31775,-0.483692 -0.48369,-0.483691 -0.48369,-1.308447 0,-0.852661 0.45888,-1.351855 0.46199,-0.502295 1.24334,-0.502295 0.70073,0 1.10691,0.452685 0.40927,0.449585 0.40927,1.224732 z m -0.5705,-0.167432 q -0.006,-0.468188 -0.26355,-0.747241 -0.25425,-0.279053 -0.67593,-0.279053 -0.47749,0 -0.76585,0.269751 -0.28525,0.269751 -0.32866,0.759644 z" />
      <path
         id="path5637"
         style="font-size:6.35px;stroke-width:0.264583"
         d="m 123.38213,33.068162 v 2.095996 h -0.57051 v -2.077393 q 0,-0.492993 -0.19224,-0.737939 -0.19223,-0.244946 -0.57671,-0.244946 -0.46198,0 -0.72863,0.294555 -0.26665,0.294556 -0.26665,0.803052 v 1.962671 h -0.57361 v -3.472656 h 0.57361 v 0.539502 q 0.20463,-0.31316 0.48059,-0.468189 0.27905,-0.155029 0.64182,-0.155029 0.59841,0 0.90537,0.37207 0.30696,0.36897 0.30696,1.088306 z" />
      <path
         id="path5639"
         style="font-size:6.35px;stroke-width:0.264583"
         d="m 125.09055,30.705515 v 0.985987 h 1.17512 v 0.443383 h -1.17512 v 1.885157 q 0,0.42478 0.11472,0.545703 0.11782,0.120923 0.47439,0.120923 h 0.58601 v 0.47749 h -0.58601 q -0.66042,0 -0.91157,-0.244946 -0.25115,-0.248047 -0.25115,-0.89917 v -1.885157 h -0.41858 v -0.443383 h 0.41858 v -0.985987 z" />
    </g>
    <g
       style="font-size:5.64444px;line-height:1.25;font-family:sans-serif;-inkscape-font-specification:sans-serif;stroke-width:0.264583"
       id="text5192"
       aria-label="Derivative of Cost">
      <path
         id="path5592"
         style="font-size:5.64444px;stroke-width:0.264583"
         d="m 99.538272,49.954864 v 3.199803 h 0.672478 q 0.85163,0 1.24575,-0.385851 0.39687,-0.38585 0.39687,-1.218185 0,-0.826822 -0.39687,-1.209916 -0.39412,-0.385851 -1.24575,-0.385851 z m -0.556727,-0.457508 h 1.143775 q 1.19613,0 1.75562,0.49885 0.55948,0.496093 0.55948,1.554425 0,1.063845 -0.56224,1.562695 -0.56224,0.498849 -1.75286,0.498849 h -1.143775 z" />
      <path
         id="path5594"
         style="font-size:5.64444px;stroke-width:0.264583"
         d="m 105.94339,51.941994 v 0.248047 h -2.33164 q 0.0331,0.523654 0.31419,0.799261 0.28388,0.272852 0.78824,0.272852 0.29214,0 0.56499,-0.07166 0.27561,-0.07166 0.54571,-0.214974 v 0.479557 q -0.27285,0.115755 -0.55949,0.176389 -0.28663,0.06063 -0.58153,0.06063 -0.73863,0 -1.17133,-0.429947 -0.42995,-0.429948 -0.42995,-1.163064 0,-0.75792 0.4079,-1.201648 0.41066,-0.446484 1.10519,-0.446484 0.62287,0 0.98392,0.402387 0.3638,0.39963 0.3638,1.088649 z m -0.50712,-0.148828 q -0.006,-0.416167 -0.23427,-0.664214 -0.22599,-0.248047 -0.60082,-0.248047 -0.42443,0 -0.68075,0.239779 -0.25356,0.239778 -0.29214,0.675238 z" />
      <path
         id="path5596"
         style="font-size:5.64444px;stroke-width:0.264583"
         d="m 108.56442,50.999417 q -0.0854,-0.04961 -0.18742,-0.07166 -0.0992,-0.02481 -0.22048,-0.02481 -0.42995,0 -0.66146,0.28112 -0.22876,0.278363 -0.22876,0.802017 v 1.626084 h -0.50987 v -3.086803 h 0.50987 v 0.479557 q 0.15986,-0.28112 0.41617,-0.416168 0.25632,-0.137803 0.62287,-0.137803 0.0524,0 0.11576,0.0083 0.0634,0.0055 0.14056,0.01929 z" />
      <path
         id="path5598"
         style="font-size:5.64444px;stroke-width:0.264583"
         d="m 109.10185,50.525372 h 0.50712 v 3.086803 h -0.50712 z m 0,-1.201649 h 0.50712 v 0.642166 h -0.50712 z" />
      <path
         id="path5600"
         style="font-size:5.64444px;stroke-width:0.264583"
         d="m 110.3035,50.525372 h 0.53743 l 0.96463,2.59071 0.96462,-2.59071 h 0.53744 l -1.15755,3.086803 h -0.68902 z" />
      <path
         id="path5602"
         style="font-size:5.64444px;stroke-width:0.264583"
         d="m 115.4105,52.060505 q -0.6146,0 -0.85162,0.14056 -0.23702,0.14056 -0.23702,0.479557 0,0.270095 0.17638,0.429947 0.17915,0.157097 0.48507,0.157097 0.42168,0 0.67524,-0.297656 0.25632,-0.300412 0.25632,-0.796506 v -0.112999 z m 1.01148,-0.209461 v 1.761131 h -0.50711 v -0.468533 q -0.17364,0.28112 -0.43271,0.416168 -0.25907,0.132291 -0.63389,0.132291 -0.47405,0 -0.75517,-0.264583 -0.27836,-0.267339 -0.27836,-0.713823 0,-0.520898 0.34726,-0.785481 0.35002,-0.264584 1.0418,-0.264584 h 0.71107 v -0.04961 q 0,-0.350021 -0.23151,-0.54019 -0.22876,-0.192926 -0.64493,-0.192926 -0.26458,0 -0.51538,0.06339 -0.2508,0.06339 -0.48231,0.190169 v -0.468532 q 0.27836,-0.107487 0.54019,-0.159853 0.26182,-0.05512 0.50987,-0.05512 0.66973,0 1.00045,0.347265 0.33073,0.347265 0.33073,1.052821 z" />
      <path
         id="path5604"
         style="font-size:5.64444px;stroke-width:0.264583"
         d="m 117.9709,49.64894 v 0.876432 h 1.04455 v 0.394118 h -1.04455 v 1.675694 q 0,0.377582 0.10197,0.485069 0.10473,0.107487 0.42168,0.107487 h 0.5209 v 0.424435 h -0.5209 q -0.58704,0 -0.81028,-0.21773 -0.22325,-0.220486 -0.22325,-0.799261 V 50.91949 h -0.37207 v -0.394118 h 0.37207 V 49.64894 Z" />
      <path
         id="path5606"
         style="font-size:5.64444px;stroke-width:0.264583"
         d="m 119.68518,50.525372 h 0.50711 v 3.086803 h -0.50711 z m 0,-1.201649 h 0.50711 v 0.642166 h -0.50711 z" />
      <path
         id="path5608"
         style="font-size:5.64444px;stroke-width:0.264583"
         d="m 120.88682,50.525372 h 0.53744 l 0.96463,2.59071 0.96462,-2.59071 h 0.53744 l -1.15756,3.086803 h -0.68901 z" />
      <path
         id="path5610"
         style="font-size:5.64444px;stroke-width:0.264583"
         d="m 127.23131,51.941994 v 0.248047 h -2.33164 q 0.0331,0.523654 0.31419,0.799261 0.28388,0.272852 0.78824,0.272852 0.29214,0 0.56499,-0.07166 0.27561,-0.07166 0.54571,-0.214974 v 0.479557 q -0.27286,0.115755 -0.55949,0.176389 -0.28663,0.06063 -0.58153,0.06063 -0.73863,0 -1.17133,-0.429947 -0.42995,-0.429948 -0.42995,-1.163064 0,-0.75792 0.4079,-1.201648 0.41066,-0.446484 1.10519,-0.446484 0.62287,0 0.98391,0.402387 0.36381,0.39963 0.36381,1.088649 z m -0.50712,-0.148828 q -0.006,-0.416167 -0.23427,-0.664214 -0.226,-0.248047 -0.60082,-0.248047 -0.42444,0 -0.68075,0.239779 -0.25356,0.239778 -0.29215,0.675238 z" />
      <path
         id="path5612"
         style="font-size:5.64444px;stroke-width:0.264583"
         d="m 131.05674,50.880905 q -0.4079,0 -0.64492,0.319705 -0.23703,0.316949 -0.23703,0.870919 0,0.553971 0.23427,0.873676 0.23702,0.316949 0.64768,0.316949 0.40514,0 0.64216,-0.319705 0.23703,-0.319705 0.23703,-0.87092 0,-0.548458 -0.23703,-0.868163 -0.23702,-0.322461 -0.64216,-0.322461 z m 0,-0.429947 q 0.66146,0 1.03904,0.429947 0.37758,0.429948 0.37758,1.190624 0,0.757921 -0.37758,1.190625 -0.37758,0.429947 -1.03904,0.429947 -0.66422,0 -1.0418,-0.429947 -0.37482,-0.432704 -0.37482,-1.190625 0,-0.760676 0.37482,-1.190624 0.37758,-0.429947 1.0418,-0.429947 z" />
      <path
         id="path5614"
         style="font-size:5.64444px;stroke-width:0.264583"
         d="m 134.8739,49.323723 v 0.42168 h -0.48507 q -0.27285,0 -0.38034,0.110243 -0.10473,0.110243 -0.10473,0.396874 v 0.272852 h 0.83509 v 0.394118 h -0.83509 v 2.692685 h -0.50987 V 50.91949 h -0.48507 v -0.394118 h 0.48507 v -0.214974 q 0,-0.515386 0.23978,-0.749652 0.23978,-0.237023 0.76067,-0.237023 z" />
      <path
         id="path5616"
         style="font-size:5.64444px;stroke-width:0.264583"
         d="m 140.19588,49.814305 v 0.587043 q -0.28112,-0.261827 -0.60082,-0.391362 -0.31695,-0.129536 -0.67524,-0.129536 -0.70556,0 -1.08038,0.432704 -0.37483,0.429948 -0.37483,1.245746 0,0.813042 0.37483,1.245745 0.37482,0.429948 1.08038,0.429948 0.35829,0 0.67524,-0.129536 0.3197,-0.129535 0.60082,-0.391362 v 0.581531 q -0.29214,0.198438 -0.62012,0.297656 -0.32521,0.09922 -0.68901,0.09922 -0.93431,0 -1.47175,-0.570507 -0.53743,-0.573264 -0.53743,-1.562694 0,-0.992187 0.53743,-1.562694 0.53744,-0.573264 1.47175,-0.573264 0.36931,0 0.69453,0.09922 0.32797,0.09646 0.6146,0.292144 z" />
      <path
         id="path5618"
         style="font-size:5.64444px;stroke-width:0.264583"
         d="m 142.23538,50.880905 q -0.4079,0 -0.64493,0.319705 -0.23702,0.316949 -0.23702,0.870919 0,0.553971 0.23427,0.873676 0.23702,0.316949 0.64768,0.316949 0.40514,0 0.64216,-0.319705 0.23702,-0.319705 0.23702,-0.87092 0,-0.548458 -0.23702,-0.868163 -0.23702,-0.322461 -0.64216,-0.322461 z m 0,-0.429947 q 0.66145,0 1.03904,0.429947 0.37758,0.429948 0.37758,1.190624 0,0.757921 -0.37758,1.190625 -0.37759,0.429947 -1.03904,0.429947 -0.66422,0 -1.0418,-0.429947 -0.37483,-0.432704 -0.37483,-1.190625 0,-0.760676 0.37483,-1.190624 0.37758,-0.429947 1.0418,-0.429947 z" />
      <path
         id="path5620"
         style="font-size:5.64444px;stroke-width:0.264583"
         d="m 146.45768,50.616322 v 0.479557 q -0.21497,-0.110243 -0.44648,-0.165364 -0.23151,-0.05512 -0.47956,-0.05512 -0.37758,0 -0.56775,0.115755 -0.18742,0.115755 -0.18742,0.347266 0,0.176388 0.13505,0.278363 0.13505,0.09922 0.54295,0.190169 l 0.17363,0.03858 q 0.54019,0.115755 0.76619,0.327973 0.22875,0.209462 0.22875,0.587044 0,0.429948 -0.34175,0.68075 -0.339,0.250803 -0.93431,0.250803 -0.24805,0 -0.51814,-0.04961 -0.26734,-0.04685 -0.565,-0.143316 v -0.523654 q 0.28112,0.146072 0.55398,0.220486 0.27285,0.07166 0.54019,0.07166 0.35829,0 0.55121,-0.121268 0.19293,-0.124023 0.19293,-0.347265 0,-0.206706 -0.14056,-0.316948 -0.13781,-0.110243 -0.6091,-0.212218 l -0.17639,-0.04134 q -0.47128,-0.09922 -0.68075,-0.303168 -0.20946,-0.206706 -0.20946,-0.564996 0,-0.435459 0.30868,-0.672482 0.30868,-0.237022 0.87643,-0.237022 0.28112,0 0.52917,0.04134 0.24805,0.04134 0.45751,0.124023 z" />
      <path
         id="path5622"
         style="font-size:5.64444px;stroke-width:0.264583"
         d="m 147.93494,49.64894 v 0.876432 h 1.04455 v 0.394118 h -1.04455 v 1.675694 q 0,0.377582 0.10197,0.485069 0.10473,0.107487 0.42168,0.107487 h 0.5209 v 0.424435 h -0.5209 q -0.58704,0 -0.81028,-0.21773 -0.22325,-0.220486 -0.22325,-0.799261 V 50.91949 h -0.37207 v -0.394118 h 0.37207 V 49.64894 Z" />
    </g>
    <g
       transform="translate(-0.41604373,-2.3164526)"
       style="font-size:7.05556px;line-height:1.25;font-family:sans-serif;-inkscape-font-specification:sans-serif;stroke-width:0.264583"
       id="text5196"
       aria-label="Global Cost Minimum

">
      <path
         id="path5542"
         style="font-size:5.64444px;stroke-width:0.264583"
         d="M 102.08351,75.066086 V 73.9609 H 101.174 v -0.457508 h 1.46072 v 1.766643 q -0.32246,0.228754 -0.71106,0.347266 -0.38861,0.115755 -0.82958,0.115755 -0.96463,0 -1.510331,-0.562239 -0.542946,-0.564996 -0.542946,-1.570963 0,-1.008723 0.542946,-1.570962 0.545701,-0.564995 1.510331,-0.564995 0.40238,0 0.76343,0.09922 0.3638,0.09922 0.66973,0.292144 v 0.592556 q -0.30868,-0.261827 -0.65595,-0.394118 -0.34726,-0.132292 -0.73036,-0.132292 -0.75516,0 -1.1355,0.421679 -0.377584,0.42168 -0.377584,1.25677 0,0.832335 0.377584,1.254014 0.38034,0.421679 1.1355,0.421679 0.2949,0 0.52641,-0.04961 0.23151,-0.05236 0.41617,-0.159853 z" />
      <path
         id="path5544"
         style="font-size:5.64444px;stroke-width:0.264583"
         d="m 103.63242,71.364678 h 0.50712 v 4.288452 h -0.50712 z" />
      <path
         id="path5546"
         style="font-size:5.64444px;stroke-width:0.264583"
         d="m 106.39401,72.92186 q -0.4079,0 -0.64492,0.319705 -0.23702,0.316948 -0.23702,0.870919 0,0.553971 0.23426,0.873676 0.23702,0.316948 0.64768,0.316948 0.40514,0 0.64216,-0.319704 0.23703,-0.319705 0.23703,-0.87092 0,-0.548459 -0.23703,-0.868163 -0.23702,-0.322461 -0.64216,-0.322461 z m 0,-0.429948 q 0.66146,0 1.03904,0.429948 0.37758,0.429948 0.37758,1.190624 0,0.75792 -0.37758,1.190624 -0.37758,0.429948 -1.03904,0.429948 -0.66422,0 -1.0418,-0.429948 -0.37482,-0.432704 -0.37482,-1.190624 0,-0.760676 0.37482,-1.190624 0.37758,-0.429948 1.0418,-0.429948 z" />
      <path
         id="path5548"
         style="font-size:5.64444px;stroke-width:0.264583"
         d="m 110.86436,74.112484 q 0,-0.559483 -0.23151,-0.876432 -0.22875,-0.319704 -0.63114,-0.319704 -0.40239,0 -0.6339,0.319704 -0.22875,0.316949 -0.22875,0.876432 0,0.559483 0.22875,0.879188 0.23151,0.316948 0.6339,0.316948 0.40239,0 0.63114,-0.316948 0.23151,-0.319705 0.23151,-0.879188 z m -1.7253,-1.077625 q 0.15985,-0.275607 0.40239,-0.407899 0.24529,-0.135048 0.58428,-0.135048 0.56224,0 0.91226,0.446484 0.35278,0.446484 0.35278,1.174088 0,0.727604 -0.35278,1.174088 -0.35002,0.446484 -0.91226,0.446484 -0.33899,0 -0.58428,-0.132292 -0.24254,-0.135047 -0.40239,-0.410655 v 0.463021 h -0.50987 v -4.288452 h 0.50987 z" />
      <path
         id="path5550"
         style="font-size:5.64444px;stroke-width:0.264583"
         d="m 113.63422,74.10146 q -0.61461,0 -0.85163,0.14056 -0.23702,0.140559 -0.23702,0.479556 0,0.270096 0.17639,0.429948 0.17914,0.157096 0.48506,0.157096 0.42168,0 0.67524,-0.297656 0.25632,-0.300412 0.25632,-0.796505 V 74.10146 Z m 1.01147,-0.209462 v 1.761132 h -0.50711 v -0.468533 q -0.17364,0.28112 -0.43271,0.416167 -0.25907,0.132292 -0.63389,0.132292 -0.47405,0 -0.75517,-0.264583 -0.27836,-0.26734 -0.27836,-0.713824 0,-0.520898 0.34726,-0.785481 0.35003,-0.264583 1.0418,-0.264583 h 0.71107 v -0.04961 q 0,-0.350022 -0.23151,-0.540191 -0.22876,-0.192925 -0.64492,-0.192925 -0.26459,0 -0.51539,0.06339 -0.2508,0.06339 -0.48231,0.190169 v -0.468533 q 0.27836,-0.107487 0.54019,-0.159852 0.26182,-0.05512 0.50987,-0.05512 0.66973,0 1.00046,0.347266 0.33072,0.347265 0.33072,1.05282 z" />
      <path
         id="path5552"
         style="font-size:5.64444px;stroke-width:0.264583"
         d="m 115.693,71.364678 h 0.50712 V 75.65313 H 115.693 Z" />
      <path
         id="path5554"
         style="font-size:5.64444px;stroke-width:0.264583"
         d="m 122.15875,71.855259 v 0.587044 q -0.28111,-0.261827 -0.60082,-0.391363 -0.31695,-0.129535 -0.67524,-0.129535 -0.70555,0 -1.08038,0.432704 -0.37482,0.429947 -0.37482,1.245745 0,0.813042 0.37482,1.245746 0.37483,0.429947 1.08038,0.429947 0.35829,0 0.67524,-0.129535 0.31971,-0.129536 0.60082,-0.391363 v 0.581532 q -0.29214,0.198437 -0.62011,0.297656 -0.32522,0.09922 -0.68902,0.09922 -0.93431,0 -1.47174,-0.570508 -0.53744,-0.573263 -0.53744,-1.562694 0,-0.992187 0.53744,-1.562694 0.53743,-0.573263 1.47174,-0.573263 0.36931,0 0.69453,0.09922 0.32797,0.09646 0.6146,0.292144 z" />
      <path
         id="path5556"
         style="font-size:5.64444px;stroke-width:0.264583"
         d="m 124.19825,72.92186 q -0.4079,0 -0.64492,0.319705 -0.23703,0.316948 -0.23703,0.870919 0,0.553971 0.23427,0.873676 0.23702,0.316948 0.64768,0.316948 0.40514,0 0.64216,-0.319704 0.23703,-0.319705 0.23703,-0.87092 0,-0.548459 -0.23703,-0.868163 -0.23702,-0.322461 -0.64216,-0.322461 z m 0,-0.429948 q 0.66146,0 1.03904,0.429948 0.37758,0.429948 0.37758,1.190624 0,0.75792 -0.37758,1.190624 -0.37758,0.429948 -1.03904,0.429948 -0.66422,0 -1.0418,-0.429948 -0.37482,-0.432704 -0.37482,-1.190624 0,-0.760676 0.37482,-1.190624 0.37758,-0.429948 1.0418,-0.429948 z" />
      <path
         id="path5558"
         style="font-size:5.64444px;stroke-width:0.264583"
         d="m 128.42055,72.657277 v 0.479557 q -0.21497,-0.110243 -0.44648,-0.165365 -0.23151,-0.05512 -0.47956,-0.05512 -0.37758,0 -0.56775,0.115755 -0.18741,0.115755 -0.18741,0.347265 0,0.176389 0.13505,0.278364 0.13504,0.09922 0.54294,0.190169 l 0.17364,0.03859 q 0.54019,0.115755 0.76619,0.327973 0.22875,0.209461 0.22875,0.587044 0,0.429947 -0.34175,0.68075 -0.339,0.250803 -0.93431,0.250803 -0.24805,0 -0.51815,-0.04961 -0.26733,-0.04685 -0.56499,-0.143315 v -0.523655 q 0.28112,0.146072 0.55397,0.220486 0.27285,0.07166 0.54019,0.07166 0.35829,0 0.55122,-0.121267 0.19292,-0.124023 0.19292,-0.347265 0,-0.206706 -0.14056,-0.316949 -0.1378,-0.110243 -0.60909,-0.212218 l -0.17639,-0.04134 q -0.47129,-0.09922 -0.68075,-0.303168 -0.20946,-0.206705 -0.20946,-0.564995 0,-0.43546 0.30868,-0.672482 0.30868,-0.237023 0.87643,-0.237023 0.28112,0 0.52917,0.04134 0.24804,0.04134 0.4575,0.124024 z" />
      <path
         id="path5560"
         style="font-size:5.64444px;stroke-width:0.264583"
         d="m 129.89781,71.689895 v 0.876431 h 1.04455 v 0.394119 h -1.04455 v 1.675693 q 0,0.377582 0.10198,0.485069 0.10473,0.107487 0.42167,0.107487 h 0.5209 v 0.424436 h -0.5209 q -0.58704,0 -0.81028,-0.21773 -0.22324,-0.220486 -0.22324,-0.799262 v -1.675693 h -0.37207 v -0.394119 h 0.37207 v -0.876431 z" />
      <path
         id="path5562"
         style="font-size:5.64444px;stroke-width:0.264583"
         d="m 133.4311,71.538311 h 0.82958 l 1.05006,2.800171 1.05558,-2.800171 h 0.82958 v 4.114819 h -0.54295 v -3.613214 l -1.06109,2.82222 h -0.55948 l -1.06109,-2.82222 v 3.613214 h -0.54019 z" />
      <path
         id="path5564"
         style="font-size:5.64444px;stroke-width:0.264583"
         d="m 138.28179,72.566326 h 0.50712 v 3.086804 h -0.50712 z m 0,-1.201648 h 0.50712 v 0.642165 h -0.50712 z" />
      <path
         id="path5566"
         style="font-size:5.64444px;stroke-width:0.264583"
         d="m 142.41314,73.790023 v 1.863107 h -0.50711 v -1.84657 q 0,-0.438216 -0.17088,-0.655946 -0.17088,-0.21773 -0.51263,-0.21773 -0.41066,0 -0.64768,0.261827 -0.23702,0.261827 -0.23702,0.713824 v 1.744595 h -0.50987 v -3.086804 h 0.50987 v 0.479557 q 0.1819,-0.278363 0.42719,-0.416167 0.24805,-0.137804 0.57051,-0.137804 0.53192,0 0.80477,0.330729 0.27285,0.327973 0.27285,0.967382 z" />
      <path
         id="path5568"
         style="font-size:5.64444px;stroke-width:0.264583"
         d="m 143.43013,72.566326 h 0.50712 v 3.086804 h -0.50712 z m 0,-1.201648 h 0.50712 v 0.642165 h -0.50712 z" />
      <path
         id="path5570"
         style="font-size:5.64444px;stroke-width:0.264583"
         d="m 147.39888,73.158882 q 0.19017,-0.341753 0.45476,-0.504361 0.26458,-0.162609 0.62287,-0.162609 0.48231,0 0.74414,0.338997 0.26183,0.336242 0.26183,0.959114 v 1.863107 h -0.50988 v -1.84657 q 0,-0.443728 -0.15709,-0.658702 -0.1571,-0.214974 -0.47956,-0.214974 -0.39412,0 -0.62287,0.261827 -0.22876,0.261827 -0.22876,0.713824 v 1.744595 h -0.50987 v -1.84657 q 0,-0.446484 -0.1571,-0.658702 -0.15709,-0.214974 -0.48507,-0.214974 -0.3886,0 -0.61736,0.264583 -0.22875,0.261827 -0.22875,0.711068 v 1.744595 h -0.50988 v -3.086804 h 0.50988 v 0.479557 q 0.17363,-0.283875 0.41617,-0.418923 0.24253,-0.135048 0.57602,-0.135048 0.33624,0 0.5705,0.170877 0.23703,0.170877 0.35002,0.496093 z" />
      <path
         id="path5572"
         style="font-size:5.64444px;stroke-width:0.264583"
         d="m 150.44434,74.434945 v -1.868619 h 0.50712 v 1.849326 q 0,0.438216 0.17088,0.658702 0.17087,0.21773 0.51263,0.21773 0.41065,0 0.64768,-0.261827 0.23977,-0.261827 0.23977,-0.713823 v -1.750108 h 0.50712 v 3.086804 h -0.50712 v -0.474045 q -0.18465,0.281119 -0.42994,0.418923 -0.24254,0.135048 -0.565,0.135048 -0.53192,0 -0.80753,-0.330729 -0.27561,-0.330729 -0.27561,-0.967382 z m 1.27607,-1.943033 z" />
      <path
         id="path5574"
         style="font-size:5.64444px;stroke-width:0.264583"
         d="m 156.4829,73.158882 q 0.19017,-0.341753 0.45476,-0.504361 0.26458,-0.162609 0.62287,-0.162609 0.48231,0 0.74414,0.338997 0.26183,0.336242 0.26183,0.959114 v 1.863107 h -0.50988 v -1.84657 q 0,-0.443728 -0.15709,-0.658702 -0.1571,-0.214974 -0.47956,-0.214974 -0.39412,0 -0.62287,0.261827 -0.22876,0.261827 -0.22876,0.713824 v 1.744595 h -0.50987 v -1.84657 q 0,-0.446484 -0.1571,-0.658702 -0.1571,-0.214974 -0.48507,-0.214974 -0.3886,0 -0.61736,0.264583 -0.22875,0.261827 -0.22875,0.711068 v 1.744595 h -0.50988 v -3.086804 h 0.50988 v 0.479557 q 0.17363,-0.283875 0.41616,-0.418923 0.24254,-0.135048 0.57602,-0.135048 0.33625,0 0.57051,0.170877 0.23702,0.170877 0.35002,0.496093 z" />
    </g>
    <g
       transform="translate(-7.6952022,-2.3164526)"
       style="font-size:5.64444px;line-height:1.25;font-family:sans-serif;-inkscape-font-specification:sans-serif;stroke-width:0.264583"
       id="text5210"
       aria-label="Jmin(w)">
      <path
         id="path5577"
         style="font-size:5.64444px;stroke-width:0.264583"
         d="m 126.35525,80.603557 h 0.55673 v 3.828187 q 0,0.74414 -0.28388,1.080382 -0.28112,0.336241 -0.90675,0.336241 h -0.21222 v -0.468533 h 0.17364 q 0.36931,0 0.52089,-0.206706 0.15159,-0.206705 0.15159,-0.741384 z" />
      <path
         id="path5579"
         style="font-size:5.64444px;baseline-shift:sub"
         d="m 130.40117,83.353017 q 0.19016,-0.341753 0.45475,-0.504362 0.26458,-0.162608 0.62287,-0.162608 0.48231,0 0.74414,0.338997 0.26183,0.336241 0.26183,0.959114 v 1.863106 h -0.50988 v -1.84657 q 0,-0.443728 -0.15709,-0.658701 -0.1571,-0.214974 -0.47956,-0.214974 -0.39412,0 -0.62287,0.261827 -0.22876,0.261827 -0.22876,0.713823 v 1.744595 h -0.50987 v -1.84657 q 0,-0.446484 -0.1571,-0.658701 -0.15709,-0.214974 -0.48507,-0.214974 -0.3886,0 -0.61736,0.264583 -0.22875,0.261827 -0.22875,0.711067 v 1.744595 h -0.50987 v -3.086803 h 0.50987 v 0.479557 q 0.17363,-0.283876 0.41617,-0.418923 0.24253,-0.135048 0.57602,-0.135048 0.33624,0 0.5705,0.170877 0.23703,0.170876 0.35003,0.496093 z" />
      <path
         id="path5581"
         style="font-size:5.64444px;baseline-shift:sub"
         d="m 133.49899,82.760461 h 0.50712 v 3.086803 h -0.50712 z m 0,-1.201648 h 0.50712 v 0.642165 h -0.50712 z" />
      <path
         id="path5583"
         style="font-size:5.64444px;baseline-shift:sub"
         d="m 137.63035,83.984158 v 1.863106 h -0.50712 v -1.84657 q 0,-0.438215 -0.17088,-0.655945 -0.17087,-0.21773 -0.51263,-0.21773 -0.41065,0 -0.64767,0.261827 -0.23703,0.261827 -0.23703,0.713823 v 1.744595 h -0.50987 v -3.086803 h 0.50987 v 0.479557 q 0.1819,-0.278364 0.4272,-0.416167 0.24804,-0.137804 0.5705,-0.137804 0.53193,0 0.80478,0.330729 0.27285,0.327973 0.27285,0.967382 z" />
      <path
         id="path5585"
         style="font-size:5.64444px;stroke-width:0.264583"
         d="m 139.86552,80.435437 q -0.36931,0.633897 -0.54845,1.254013 -0.17915,0.620117 -0.17915,1.25677 0,0.636654 0.17915,1.262282 0.1819,0.622873 0.54845,1.254014 h -0.44097 q -0.41341,-0.647677 -0.62011,-1.273306 -0.20395,-0.625629 -0.20395,-1.24299 0,-0.614604 0.20395,-1.237477 0.20395,-0.622873 0.62011,-1.273306 z" />
      <path
         id="path5587"
         style="font-size:5.64444px;stroke-width:0.264583"
         d="m 140.5573,81.631573 h 0.50712 l 0.63389,2.408809 0.63115,-2.408809 h 0.59806 l 0.6339,2.408809 0.63114,-2.408809 h 0.50712 l -0.80753,3.086803 h -0.59807 l -0.66421,-2.530076 -0.66697,2.530076 h -0.59807 z" />
      <path
         id="path5589"
         style="font-size:5.64444px;stroke-width:0.264583"
         d="m 145.39145,80.435437 h 0.44098 q 0.41341,0.650433 0.61736,1.273306 0.2067,0.622873 0.2067,1.237477 0,0.617361 -0.2067,1.24299 -0.20395,0.625629 -0.61736,1.273306 h -0.44098 q 0.36656,-0.631141 0.54571,-1.254014 0.1819,-0.625628 0.1819,-1.262282 0,-0.636653 -0.1819,-1.25677 -0.17915,-0.620116 -0.54571,-1.254013 z" />
    </g>
  </g>
</svg>
