<?xml version="1.0" encoding="UTF-8" standalone="no"?>
<svg
   xmlns:dc="http://purl.org/dc/elements/1.1/"
   xmlns:cc="http://creativecommons.org/ns#"
   xmlns:rdf="http://www.w3.org/1999/02/22-rdf-syntax-ns#"
   xmlns:svg="http://www.w3.org/2000/svg"
   xmlns="http://www.w3.org/2000/svg"
   xmlns:sodipodi="http://sodipodi.sourceforge.net/DTD/sodipodi-0.dtd"
   xmlns:inkscape="http://www.inkscape.org/namespaces/inkscape"
   height="460.79999pt"
   version="1.1"
   viewBox="0 0 345.60002 460.79998"
   width="345.60001pt"
   id="svg328"
   sodipodi:docname="nightdriving.svg"
   inkscape:version="1.0 (1.0+r73+1)">
  <metadata
     id="metadata332">
    <rdf:RDF>
      <cc:Work
         rdf:about="">
        <dc:format>image/svg+xml</dc:format>
        <dc:type
           rdf:resource="http://purl.org/dc/dcmitype/StillImage" />
        <dc:title></dc:title>
      </cc:Work>
    </rdf:RDF>
  </metadata>
  <sodipodi:namedview
     inkscape:document-rotation="0"
     pagecolor="#ffffff"
     bordercolor="#666666"
     borderopacity="1"
     objecttolerance="10"
     gridtolerance="10"
     guidetolerance="10"
     inkscape:pageopacity="0"
     inkscape:pageshadow="2"
     inkscape:window-width="1600"
     inkscape:window-height="850"
     id="namedview330"
     showgrid="false"
     inkscape:zoom="1.2868923"
     inkscape:cx="145.33629"
     inkscape:cy="230.0823"
     inkscape:window-x="0"
     inkscape:window-y="0"
     inkscape:window-maximized="1"
     inkscape:current-layer="svg328" />
  <defs
     id="defs4">
    <style
       type="text/css"
       id="style2">
*{stroke-linecap:butt;stroke-linejoin:round;}
  </style>
  </defs>
  <defs
     id="defs326">
    <clipPath
       id="pe78fd1416e">
      <rect
         height="221.18401"
         width="179.71201"
         x="50.688"
         y="86.400002"
         id="rect323" />
    </clipPath>
  </defs>
  <g
     transform="matrix(0.77924703,0,0,0.66264171,42.530684,1.7718957)"
     id="patch_2">
    <path
       d="M 50.688,307.584 H 230.4 V 86.4 H 50.688 Z"
       style="fill:#ffffff"
       id="path9" />
  </g>
  <g
     id="patch_3"
     transform="matrix(0.57891717,0,0,0.66264171,70.685842,1.7718957)">
    <path
       clip-path="url(#pe78fd1416e)"
       d="M 58.856727,307.584 H 140.544 V 219.1104 H 58.856727 Z"
       style="fill:#646567"
       id="path12" />
  </g>
  <g
     id="patch_4"
     transform="matrix(0.57891719,0,0,0.66264171,70.685841,1.7718957)">
    <path
       clip-path="url(#pe78fd1416e)"
       d="m 140.544,307.584 h 81.68727 V 174.8736 H 140.544 Z"
       style="fill:#d85c41"
       id="path15" />
  </g>
  <g
     transform="matrix(0.66284331,0,0,0.66284331,48.40866,1.7321811)"
     id="matplotlib.axis_1">
    <g
       id="xtick_1">
      <g
         id="line2d_1">
        <defs
           id="defs19">
          <path
             d="M 0,0 V 3.5"
             id="m17f51860b2"
             style="stroke:#000000;stroke-width:0.8" />
        </defs>
        <g
           id="g23">
          <path
             style="stroke:#000000;stroke-width:0.8"
             id="use21"
             d="m 140.54401,307.58401 v 3.5" />
        </g>
      </g>
    </g>
    <g
       id="text_1">
      <!-- Dataset 3 -->
      <defs
         id="defs34">
        <path
           d="M 19.671875,64.796875 V 8.109375 H 31.59375 q 15.09375,0 22.09375,6.828125 7,6.84375 7,21.59375 0,14.640625 -7,21.453125 -7,6.8125 -22.09375,6.8125 z M 9.8125,72.90625 h 20.265625 q 21.1875,0 31.09375,-8.8125 9.921875,-8.8125 9.921875,-27.5625 0,-18.859375 -9.96875,-27.703125 Q 51.171875,0 30.078125,0 H 9.8125 Z"
           id="DejaVuSans-68" />
        <path
           d="m 34.28125,27.484375 q -10.890625,0 -15.09375,-2.484375 -4.203125,-2.484375 -4.203125,-8.5 0,-4.78125 3.15625,-7.59375 3.15625,-2.796875 8.5625,-2.796875 7.484375,0 12,5.296875 4.515625,5.296875 4.515625,14.078125 v 2 z m 17.921875,3.71875 V 0 H 43.21875 v 8.296875 q -3.078125,-4.96875 -7.671875,-7.34375 -4.59375,-2.375 -11.234375,-2.375 -8.390625,0 -13.359375,4.71875 Q 6,8.015625 6,15.921875 q 0,9.21875 6.171875,13.90625 6.1875,4.6875 18.4375,4.6875 H 43.21875 v 0.890625 q 0,6.203125 -4.078125,9.59375 -4.078125,3.390625 -11.453125,3.390625 -4.6875,0 -9.140625,-1.125 -4.4375,-1.125 -8.53125,-3.375 v 8.3125 q 4.921875,1.90625 9.5625,2.84375 Q 24.21875,56 28.609375,56 q 11.875,0 17.734375,-6.15625 5.859375,-6.140625 5.859375,-18.640625 z"
           id="DejaVuSans-97" />
        <path
           d="M 18.3125,70.21875 V 54.6875 h 18.5 v -6.984375 h -18.5 v -29.6875 q 0,-6.6875 1.828125,-8.59375 1.828125,-1.90625 7.453125,-1.90625 H 36.8125 V 0 H 27.59375 Q 17.1875,0 13.234375,3.875 9.28125,7.765625 9.28125,18.015625 v 29.6875 H 2.6875 V 54.6875 h 6.59375 v 15.53125 z"
           id="DejaVuSans-116" />
        <path
           d="m 44.28125,53.078125 v -8.5 Q 40.484375,46.53125 36.375,47.5 q -4.09375,0.984375 -8.5,0.984375 -6.6875,0 -10.03125,-2.046875 Q 14.5,44.390625 14.5,40.28125 q 0,-3.125 2.390625,-4.90625 2.390625,-1.78125 9.625,-3.390625 l 3.078125,-0.6875 Q 39.15625,29.25 43.1875,25.515625 47.21875,21.78125 47.21875,15.09375 q 0,-7.625 -6.03125,-12.078125 -6.03125,-4.4375 -16.578125,-4.4375 -4.390625,0 -9.15625,0.859375 Q 10.6875,0.296875 5.421875,2 v 9.28125 q 4.984375,-2.59375 9.8125,-3.890625 4.828125,-1.28125 9.578125,-1.28125 6.34375,0 9.75,2.171875 3.421875,2.171875 3.421875,6.125 0,3.65625 -2.46875,5.609375 -2.453125,1.953125 -10.8125,3.765625 l -3.125,0.734375 q -8.34375,1.75 -12.0625,5.390625 -3.703125,3.640625 -3.703125,9.984375 0,7.71875 5.46875,11.90625 Q 16.75,56 26.8125,56 q 4.96875,0 9.359375,-0.734375 4.40625,-0.71875 8.109375,-2.1875 z"
           id="DejaVuSans-115" />
        <path
           d="m 56.203125,29.59375 v -4.390625 h -41.3125 q 0.59375,-9.28125 5.59375,-14.140625 5,-4.859375 13.9375,-4.859375 5.171875,0 10.03125,1.265625 4.859375,1.265625 9.65625,3.8125 v -8.5 q -4.84375,-2.046875 -9.921875,-3.125 -5.078125,-1.078125 -10.296875,-1.078125 -13.09375,0 -20.734375,7.609375 -7.640625,7.625 -7.640625,20.625 0,13.421875 7.25,21.296875 Q 20.015625,56 32.328125,56 q 11.03125,0 17.453125,-7.109375 6.421875,-7.09375 6.421875,-19.296875 z m -8.984375,2.640625 q -0.09375,7.359375 -4.125,11.75 -4.03125,4.40625 -10.671875,4.40625 -7.515625,0 -12.03125,-4.25 -4.515625,-4.25 -5.203125,-11.96875 z"
           id="DejaVuSans-101" />
        <path
           id="DejaVuSans-32"
           d="" />
        <path
           d="M 40.578125,39.3125 Q 47.65625,37.796875 51.625,33 q 3.984375,-4.78125 3.984375,-11.8125 0,-10.78125 -7.421875,-16.703125 -7.421875,-5.90625 -21.09375,-5.90625 -4.578125,0 -9.4375,0.90625 -4.859375,0.90625 -10.03125,2.71875 v 9.515625 q 4.09375,-2.390625 8.96875,-3.609375 4.890625,-1.21875 10.21875,-1.21875 9.265625,0 14.125,3.65625 4.859375,3.65625 4.859375,10.640625 0,6.453125 -4.515625,10.078125 -4.515625,3.640625 -12.5625,3.640625 h -8.5 v 8.109375 h 8.890625 q 7.265625,0 11.125,2.90625 3.859375,2.90625 3.859375,8.375 0,5.609375 -3.984375,8.609375 -3.96875,3.015625 -11.390625,3.015625 -4.0625,0 -8.703125,-0.890625 Q 15.375,64.15625 9.8125,62.3125 v 8.78125 q 5.625,1.5625 10.53125,2.34375 4.90625,0.78125 9.25,0.78125 11.234375,0 17.765625,-5.109375 6.546875,-5.09375 6.546875,-13.78125 0,-6.0625 -3.46875,-10.234375 -3.46875,-4.171875 -9.859375,-5.78125 z"
           id="DejaVuSans-51" />
      </defs>
      <g
         transform="matrix(0.1,0,0,-0.1,116.194,326.18244)"
         id="g54">
        <path
           id="use36"
           d="M 19.671875,64.796875 V 8.109375 H 31.59375 q 15.09375,0 22.09375,6.828125 7,6.84375 7,21.59375 0,14.640625 -7,21.453125 -7,6.8125 -22.09375,6.8125 z M 9.8125,72.90625 h 20.265625 q 21.1875,0 31.09375,-8.8125 9.921875,-8.8125 9.921875,-27.5625 0,-18.859375 -9.96875,-27.703125 Q 51.171875,0 30.078125,0 H 9.8125 Z" />
        <path
           id="use38"
           d="m 111.2832,27.484375 q -10.89062,0 -15.093747,-2.484375 -4.203125,-2.484375 -4.203125,-8.5 0,-4.78125 3.15625,-7.59375 3.15625,-2.796875 8.562502,-2.796875 7.48437,0 12,5.296875 4.51562,5.296875 4.51562,14.078125 v 2 z m 17.92188,3.71875 V 0 h -8.98438 v 8.296875 q -3.07812,-4.96875 -7.67187,-7.34375 -4.59375,-2.375 -11.23438,-2.375 -8.390622,0 -13.359372,4.71875 -4.953125,4.71875 -4.953125,12.625 0,9.21875 6.171875,13.90625 6.1875,4.6875 18.437502,4.6875 h 12.60937 v 0.890625 q 0,6.203125 -4.07812,9.59375 -4.07813,3.390625 -11.45313,3.390625 -4.6875,0 -9.140622,-1.125 -4.4375,-1.125 -8.53125,-3.375 v 8.3125 q 4.921875,1.90625 9.5625,2.84375 Q 101.2207,56 105.61133,56 q 11.875,0 17.73437,-6.15625 5.85938,-6.140625 5.85938,-18.640625 z" />
        <path
           id="use40"
           d="M 156.59375,70.21875 V 54.6875 h 18.5 v -6.984375 h -18.5 v -29.6875 q 0,-6.6875 1.82812,-8.59375 1.82813,-1.90625 7.45313,-1.90625 h 9.21875 V 0 H 165.875 q -10.40625,0 -14.35938,3.875 -3.95312,3.890625 -3.95312,14.140625 v 29.6875 h -6.59375 V 54.6875 h 6.59375 v 15.53125 z" />
        <path
           id="use42"
           d="m 211.77148,27.484375 q -10.89062,0 -15.09375,-2.484375 -4.20312,-2.484375 -4.20312,-8.5 0,-4.78125 3.15625,-7.59375 3.15625,-2.796875 8.5625,-2.796875 7.48437,0 12,5.296875 4.51562,5.296875 4.51562,14.078125 v 2 z m 17.92188,3.71875 V 0 h -8.98438 v 8.296875 q -3.07812,-4.96875 -7.67187,-7.34375 -4.59375,-2.375 -11.23438,-2.375 -8.39062,0 -13.35937,4.71875 -4.95313,4.71875 -4.95313,12.625 0,9.21875 6.17188,13.90625 6.1875,4.6875 18.4375,4.6875 h 12.60937 v 0.890625 q 0,6.203125 -4.07812,9.59375 -4.07813,3.390625 -11.45313,3.390625 -4.6875,0 -9.14062,-1.125 -4.4375,-1.125 -8.53125,-3.375 v 8.3125 q 4.92187,1.90625 9.5625,2.84375 Q 201.70898,56 206.09961,56 q 11.875,0 17.73437,-6.15625 5.85938,-6.140625 5.85938,-18.640625 z" />
        <path
           id="use44"
           d="m 283.05078,53.078125 v -8.5 q -3.79687,1.953125 -7.90625,2.921875 -4.09375,0.984375 -8.5,0.984375 -6.6875,0 -10.03125,-2.046875 -3.34375,-2.046875 -3.34375,-6.15625 0,-3.125 2.39063,-4.90625 2.39062,-1.78125 9.625,-3.390625 l 3.07812,-0.6875 q 9.5625,-2.046875 13.59375,-5.78125 4.03125,-3.734375 4.03125,-10.421875 0,-7.625 -6.03125,-12.078125 -6.03125,-4.4375 -16.57812,-4.4375 -4.39063,0 -9.15625,0.859375 Q 249.45703,0.296875 244.19141,2 v 9.28125 q 4.98437,-2.59375 9.8125,-3.890625 4.82812,-1.28125 9.57812,-1.28125 6.34375,0 9.75,2.171875 3.42188,2.171875 3.42188,6.125 0,3.65625 -2.46875,5.609375 -2.45313,1.953125 -10.8125,3.765625 l -3.125,0.734375 q -8.34375,1.75 -12.0625,5.390625 -3.70313,3.640625 -3.70313,9.984375 0,7.71875 5.46875,11.90625 Q 255.51953,56 265.58203,56 q 4.96875,0 9.35938,-0.734375 4.40625,-0.71875 8.10937,-2.1875 z" />
        <path
           id="use46"
           d="m 347.07227,29.59375 v -4.390625 h -41.3125 q 0.59375,-9.28125 5.59375,-14.140625 5,-4.859375 13.9375,-4.859375 5.17187,0 10.03125,1.265625 4.85937,1.265625 9.65625,3.8125 v -8.5 q -4.84375,-2.046875 -9.92188,-3.125 -5.07812,-1.078125 -10.29687,-1.078125 -13.09375,0 -20.73438,7.609375 -7.64062,7.625 -7.64062,20.625 0,13.421875 7.25,21.296875 Q 310.88477,56 323.19727,56 q 11.03125,0 17.45312,-7.109375 6.42188,-7.09375 6.42188,-19.296875 z m -8.98438,2.640625 q -0.0937,7.359375 -4.125,11.75 -4.03125,4.40625 -10.67187,4.40625 -7.51563,0 -12.03125,-4.25 -4.51563,-4.25 -5.20313,-11.96875 z" />
        <path
           id="use48"
           d="M 370.70508,70.21875 V 54.6875 h 18.5 v -6.984375 h -18.5 v -29.6875 q 0,-6.6875 1.82812,-8.59375 1.82813,-1.90625 7.45313,-1.90625 h 9.21875 V 0 h -9.21875 q -10.40625,0 -14.35938,3.875 -3.95312,3.890625 -3.95312,14.140625 v 29.6875 h -6.59375 V 54.6875 h 6.59375 v 15.53125 z" />
        <path
           d=""
           id="use50" />
        <path
           id="use52"
           d="m 463.9668,39.3125 q 7.07812,-1.515625 11.04687,-6.3125 3.98438,-4.78125 3.98438,-11.8125 0,-10.78125 -7.42188,-16.703125 -7.42187,-5.90625 -21.09375,-5.90625 -4.57812,0 -9.4375,0.90625 -4.85937,0.90625 -10.03125,2.71875 v 9.515625 q 4.09375,-2.390625 8.96875,-3.609375 4.89063,-1.21875 10.21875,-1.21875 9.26563,0 14.125,3.65625 4.85938,3.65625 4.85938,10.640625 0,6.453125 -4.51563,10.078125 -4.51562,3.640625 -12.5625,3.640625 h -8.5 v 8.109375 h 8.89063 q 7.26562,0 11.125,2.90625 3.85937,2.90625 3.85937,8.375 0,5.609375 -3.98437,8.609375 -3.96875,3.015625 -11.39063,3.015625 -4.0625,0 -8.70312,-0.890625 -4.64063,-0.875 -10.20313,-2.71875 v 8.78125 q 5.625,1.5625 10.53125,2.34375 4.90625,0.78125 9.25,0.78125 11.23438,0 17.76563,-5.109375 6.54687,-5.09375 6.54687,-13.78125 0,-6.0625 -3.46875,-10.234375 -3.46875,-4.171875 -9.85937,-5.78125 z" />
      </g>
    </g>
  </g>
  <g
     transform="matrix(0.66284331,0,0,0.66284331,48.40866,1.7321811)"
     id="ytick_1">
    <g
       id="line2d_2">
      <defs
         id="defs59">
        <path
           style="stroke:#000000;stroke-width:0.8"
           id="mca64dabfdb"
           d="M 0,0 H -3.5" />
      </defs>
      <g
         id="g63">
        <path
           d="m 50.688,307.58401 h -3.5"
           id="use61"
           style="stroke:#000000;stroke-width:0.8" />
      </g>
    </g>
    <g
       id="text_2">
      <!-- 0 -->
      <defs
         id="defs67">
        <path
           id="DejaVuSans-48"
           d="m 31.78125,66.40625 q -7.609375,0 -11.453125,-7.5 Q 16.5,51.421875 16.5,36.375 q 0,-14.984375 3.828125,-22.484375 3.84375,-7.5 11.453125,-7.5 7.671875,0 11.5,7.5 3.84375,7.5 3.84375,22.484375 0,15.046875 -3.84375,22.53125 -3.828125,7.5 -11.5,7.5 z m 0,7.8125 q 12.265625,0 18.734375,-9.703125 6.46875,-9.6875 6.46875,-28.140625 0,-18.40625 -6.46875,-28.109375 -6.46875,-9.6875 -18.734375,-9.6875 -12.25,0 -18.71875,9.6875 Q 6.59375,17.96875 6.59375,36.375 q 0,18.453125 6.46875,28.140625 6.46875,9.703125 18.71875,9.703125 z" />
      </defs>
      <g
         id="g71"
         transform="matrix(0.1,0,0,-0.1,37.3255,311.38322)">
        <path
           d="m 31.78125,66.40625 q -7.609375,0 -11.453125,-7.5 Q 16.5,51.421875 16.5,36.375 q 0,-14.984375 3.828125,-22.484375 3.84375,-7.5 11.453125,-7.5 7.671875,0 11.5,7.5 3.84375,7.5 3.84375,22.484375 0,15.046875 -3.84375,22.53125 -3.828125,7.5 -11.5,7.5 z m 0,7.8125 q 12.265625,0 18.734375,-9.703125 6.46875,-9.6875 6.46875,-28.140625 0,-18.40625 -6.46875,-28.109375 -6.46875,-9.6875 -18.734375,-9.6875 -12.25,0 -18.71875,9.6875 Q 6.59375,17.96875 6.59375,36.375 q 0,18.453125 6.46875,28.140625 6.46875,9.703125 18.71875,9.703125 z"
           id="use69" />
      </g>
    </g>
  </g>
  <g
     transform="matrix(0.66284331,0,0,0.66284331,48.40866,1.7321811)"
     id="ytick_2">
    <g
       id="line2d_3">
      <g
         id="g77">
        <path
           d="m 50.688,263.3472 h -3.5"
           id="use75"
           style="stroke:#000000;stroke-width:0.8" />
      </g>
    </g>
    <g
       id="text_3">
      <!-- 1 -->
      <defs
         id="defs81">
        <path
           id="DejaVuSans-49"
           d="m 12.40625,8.296875 h 16.109375 v 55.625 L 10.984375,60.40625 v 8.984375 l 17.4375,3.515625 H 38.28125 V 8.296875 H 54.390625 V 0 H 12.40625 Z" />
      </defs>
      <g
         id="g85"
         transform="matrix(0.1,0,0,-0.1,37.3255,267.14642)">
        <path
           d="m 12.40625,8.296875 h 16.109375 v 55.625 L 10.984375,60.40625 v 8.984375 l 17.4375,3.515625 H 38.28125 V 8.296875 H 54.390625 V 0 H 12.40625 Z"
           id="use83" />
      </g>
    </g>
  </g>
  <g
     transform="matrix(0.66284331,0,0,0.66284331,48.40866,1.7321811)"
     id="ytick_3">
    <g
       id="line2d_4">
      <g
         id="g91">
        <path
           d="m 50.688,219.1104 h -3.5"
           id="use89"
           style="stroke:#000000;stroke-width:0.8" />
      </g>
    </g>
    <g
       id="text_4">
      <!-- 2 -->
      <defs
         id="defs95">
        <path
           id="DejaVuSans-50"
           d="M 19.1875,8.296875 H 53.609375 V 0 H 7.328125 v 8.296875 q 5.609375,5.8125 15.296875,15.59375 9.703125,9.796875 12.1875,12.640625 4.734375,5.3125 6.609375,9 1.890625,3.6875 1.890625,7.25 0,5.8125 -4.078125,9.46875 -4.078125,3.671875 -10.625,3.671875 -4.640625,0 -9.796875,-1.609375 -5.140625,-1.609375 -11,-4.890625 v 9.96875 Q 13.765625,71.78125 18.9375,73 q 5.1875,1.21875 9.484375,1.21875 11.328125,0 18.0625,-5.671875 6.734375,-5.65625 6.734375,-15.125 0,-4.5 -1.6875,-8.53125 Q 49.859375,40.875 45.40625,35.40625 44.1875,33.984375 37.640625,27.21875 31.109375,20.453125 19.1875,8.296875 Z" />
      </defs>
      <g
         id="g99"
         transform="matrix(0.1,0,0,-0.1,37.3255,222.90962)">
        <path
           d="M 19.1875,8.296875 H 53.609375 V 0 H 7.328125 v 8.296875 q 5.609375,5.8125 15.296875,15.59375 9.703125,9.796875 12.1875,12.640625 4.734375,5.3125 6.609375,9 1.890625,3.6875 1.890625,7.25 0,5.8125 -4.078125,9.46875 -4.078125,3.671875 -10.625,3.671875 -4.640625,0 -9.796875,-1.609375 -5.140625,-1.609375 -11,-4.890625 v 9.96875 Q 13.765625,71.78125 18.9375,73 q 5.1875,1.21875 9.484375,1.21875 11.328125,0 18.0625,-5.671875 6.734375,-5.65625 6.734375,-15.125 0,-4.5 -1.6875,-8.53125 Q 49.859375,40.875 45.40625,35.40625 44.1875,33.984375 37.640625,27.21875 31.109375,20.453125 19.1875,8.296875 Z"
           id="use97" />
      </g>
    </g>
  </g>
  <g
     transform="matrix(0.66284331,0,0,0.66284331,48.40866,1.7321811)"
     id="ytick_4">
    <g
       id="line2d_5">
      <g
         id="g105">
        <path
           d="m 50.688,174.8736 h -3.5"
           id="use103"
           style="stroke:#000000;stroke-width:0.8" />
      </g>
    </g>
    <g
       id="text_5">
      <!-- 3 -->
      <g
         id="g110"
         transform="matrix(0.1,0,0,-0.1,37.3255,178.67282)">
        <path
           d="M 40.578125,39.3125 Q 47.65625,37.796875 51.625,33 q 3.984375,-4.78125 3.984375,-11.8125 0,-10.78125 -7.421875,-16.703125 -7.421875,-5.90625 -21.09375,-5.90625 -4.578125,0 -9.4375,0.90625 -4.859375,0.90625 -10.03125,2.71875 v 9.515625 q 4.09375,-2.390625 8.96875,-3.609375 4.890625,-1.21875 10.21875,-1.21875 9.265625,0 14.125,3.65625 4.859375,3.65625 4.859375,10.640625 0,6.453125 -4.515625,10.078125 -4.515625,3.640625 -12.5625,3.640625 h -8.5 v 8.109375 h 8.890625 q 7.265625,0 11.125,2.90625 3.859375,2.90625 3.859375,8.375 0,5.609375 -3.984375,8.609375 -3.96875,3.015625 -11.390625,3.015625 -4.0625,0 -8.703125,-0.890625 Q 15.375,64.15625 9.8125,62.3125 v 8.78125 q 5.625,1.5625 10.53125,2.34375 4.90625,0.78125 9.25,0.78125 11.234375,0 17.765625,-5.109375 6.546875,-5.09375 6.546875,-13.78125 0,-6.0625 -3.46875,-10.234375 -3.46875,-4.171875 -9.859375,-5.78125 z"
           id="use108" />
      </g>
    </g>
  </g>
  <g
     transform="matrix(0.66284331,0,0,0.66284331,48.40866,1.7321811)"
     id="ytick_5">
    <g
       id="line2d_6">
      <g
         id="g116">
        <path
           d="m 50.688,130.6368 h -3.5"
           id="use114"
           style="stroke:#000000;stroke-width:0.8" />
      </g>
    </g>
    <g
       id="text_6">
      <!-- 4 -->
      <defs
         id="defs120">
        <path
           id="DejaVuSans-52"
           d="M 37.796875,64.3125 12.890625,25.390625 h 24.90625 z m -2.59375,8.59375 h 12.40625 V 25.390625 h 10.40625 V 17.1875 H 47.609375 V 0 h -9.8125 V 17.1875 H 4.890625 v 9.515625 z" />
      </defs>
      <g
         id="g124"
         transform="matrix(0.1,0,0,-0.1,37.3255,134.43602)">
        <path
           d="M 37.796875,64.3125 12.890625,25.390625 h 24.90625 z m -2.59375,8.59375 h 12.40625 V 25.390625 h 10.40625 V 17.1875 H 47.609375 V 0 h -9.8125 V 17.1875 H 4.890625 v 9.515625 z"
           id="use122" />
      </g>
    </g>
  </g>
  <g
     transform="matrix(0.66284331,0,0,0.66284331,48.40866,1.7321811)"
     id="ytick_6">
    <g
       id="line2d_7">
      <g
         id="g130">
        <path
           d="m 50.688,86.400002 h -3.5"
           id="use128"
           style="stroke:#000000;stroke-width:0.8" />
      </g>
    </g>
    <g
       id="text_7">
      <!-- 5 -->
      <defs
         id="defs134">
        <path
           id="DejaVuSans-53"
           d="m 10.796875,72.90625 h 38.71875 v -8.3125 h -29.6875 V 46.734375 q 2.140625,0.734375 4.28125,1.09375 2.15625,0.359375 4.3125,0.359375 Q 40.625,48.1875 47.75,41.5 54.890625,34.8125 54.890625,23.390625 54.890625,11.625 47.5625,5.09375 40.234375,-1.421875 26.90625,-1.421875 q -4.59375,0 -9.359375,0.78125 -4.75,0.78125 -9.828125,2.34375 V 11.625 q 4.390625,-2.390625 9.078125,-3.5625 4.6875,-1.171875 9.90625,-1.171875 8.453125,0 13.375,4.4375 4.9375,4.4375 4.9375,12.0625 0,7.609375 -4.9375,12.046875 -4.921875,4.453125 -13.375,4.453125 -3.953125,0 -7.890625,-0.875 -3.921875,-0.875 -8.015625,-2.734375 z" />
      </defs>
      <g
         id="g138"
         transform="matrix(0.1,0,0,-0.1,37.3255,90.199219)">
        <path
           d="m 10.796875,72.90625 h 38.71875 v -8.3125 h -29.6875 V 46.734375 q 2.140625,0.734375 4.28125,1.09375 2.15625,0.359375 4.3125,0.359375 Q 40.625,48.1875 47.75,41.5 54.890625,34.8125 54.890625,23.390625 54.890625,11.625 47.5625,5.09375 40.234375,-1.421875 26.90625,-1.421875 q -4.59375,0 -9.359375,0.78125 -4.75,0.78125 -9.828125,2.34375 V 11.625 q 4.390625,-2.390625 9.078125,-3.5625 4.6875,-1.171875 9.90625,-1.171875 8.453125,0 13.375,4.4375 4.9375,4.4375 4.9375,12.0625 0,7.609375 -4.9375,12.046875 -4.921875,4.453125 -13.375,4.453125 -3.953125,0 -7.890625,-0.875 -3.921875,-0.875 -8.015625,-2.734375 z"
           id="use136" />
      </g>
    </g>
  </g>
  <g
     transform="matrix(0.77924703,0,0,0.66264171,42.530684,1.7718957)"
     id="patch_5">
    <path
       d="M 50.688,307.584 V 86.4"
       style="fill:none;stroke:#000000;stroke-width:0.8;stroke-linecap:square;stroke-linejoin:miter"
       id="path233" />
  </g>
  <g
     transform="matrix(0.77924703,0,0,0.66264171,42.530684,1.7718957)"
     id="patch_6">
    <path
       d="M 230.4,307.584 V 86.4"
       style="fill:none;stroke:#000000;stroke-width:0.8;stroke-linecap:square;stroke-linejoin:miter"
       id="path236" />
  </g>
  <g
     transform="matrix(0.77924703,0,0,0.66264171,42.530684,1.7718957)"
     id="patch_7">
    <path
       d="M 50.688,307.584 H 230.4"
       style="fill:none;stroke:#000000;stroke-width:0.8;stroke-linecap:square;stroke-linejoin:miter"
       id="path239" />
  </g>
  <g
     transform="matrix(0.77924703,0,0,0.66264171,42.530684,1.7718957)"
     id="patch_8">
    <path
       d="M 50.688,86.4 H 230.4"
       style="fill:none;stroke:#000000;stroke-width:0.8;stroke-linecap:square;stroke-linejoin:miter"
       id="path242" />
  </g>
  <g
     transform="matrix(0.66284331,0,0,0.66284331,58.301665,1.7321811)"
     id="legend_1">
    <g
       id="patch_9">
      <path
         d="M 118.95781,123.75625 H 223.4 q 2,0 2,-2 V 93.4 q 0,-2 -2,-2 H 118.95781 q -2,0 -2,2 v 28.35625 q 0,2 2,2 z"
         style="opacity:0.8;fill:#ffffff;stroke:#cccccc;stroke-linejoin:miter"
         id="path245" />
    </g>
    <g
       id="patch_10">
      <path
         d="m 120.95781,102.99844 h 20 v -7.000003 h -20 z"
         style="fill:#646567"
         id="path248" />
    </g>
    <g
       id="text_9">
      <!-- Without Traffic -->
      <defs
         id="defs255">
        <path
           d="m 3.328125,72.90625 h 9.953125 l 15.328125,-61.625 15.28125,61.625 h 11.09375 l 15.328125,-61.625 15.28125,61.625 H 95.609375 L 77.296875,0 H 64.890625 L 49.515625,63.28125 33.984375,0 h -12.40625 z"
           id="DejaVuSans-87" />
        <path
           d="M 54.890625,33.015625 V 0 H 45.90625 v 32.71875 q 0,7.765625 -3.03125,11.609375 -3.03125,3.859375 -9.078125,3.859375 -7.28125,0 -11.484375,-4.640625 -4.203125,-4.625 -4.203125,-12.640625 V 0 h -9.03125 v 75.984375 h 9.03125 V 46.1875 q 3.234375,4.9375 7.59375,7.375 4.375,2.4375 10.09375,2.4375 9.421875,0 14.25,-5.828125 4.84375,-5.828125 4.84375,-17.15625 z"
           id="DejaVuSans-104" />
        <path
           d="M -0.296875,72.90625 H 61.375 v -8.3125 H 35.5 V 0 H 25.59375 V 64.59375 H -0.296875 Z"
           id="DejaVuSans-84" />
        <path
           d="M 48.78125,52.59375 V 44.1875 q -3.8125,2.109375 -7.640625,3.15625 -3.828125,1.046875 -7.734375,1.046875 -8.75,0 -13.59375,-5.546875 -4.828125,-5.53125 -4.828125,-15.546875 0,-10.015625 4.828125,-15.5625 4.84375,-5.53125 13.59375,-5.53125 3.90625,0 7.734375,1.046875 3.828125,1.046875 7.640625,3.15625 v -8.3125 q -3.765625,-1.75 -7.796875,-2.625 -4.015625,-0.890625 -8.5625,-0.890625 -12.359375,0 -19.640625,7.765625 -7.265625,7.765625 -7.265625,20.953125 0,13.375 7.34375,21.03125 Q 20.21875,56 33.015625,56 q 4.140625,0 8.09375,-0.859375 3.953125,-0.84375 7.671875,-2.546875 z"
           id="DejaVuSans-99" />
      </defs>
      <g
         transform="matrix(0.1,0,0,-0.1,148.95781,102.99844)"
         id="g287">
        <path
           id="use257"
           d="m 3.328125,72.90625 h 9.953125 l 15.328125,-61.625 15.28125,61.625 h 11.09375 l 15.328125,-61.625 15.28125,61.625 H 95.609375 L 77.296875,0 H 64.890625 L 49.515625,63.28125 33.984375,0 h -12.40625 z" />
        <path
           id="use259"
           d="m 106.04883,54.6875 h 8.98437 V 0 h -8.98437 z m 0,21.296875 h 8.98437 V 64.59375 h -8.98437 z" />
        <path
           id="use261"
           d="M 142.72266,70.21875 V 54.6875 h 18.5 v -6.984375 h -18.5 v -29.6875 q 0,-6.6875 1.82812,-8.59375 1.82813,-1.90625 7.45313,-1.90625 h 9.21875 V 0 h -9.21875 q -10.40625,0 -14.35938,3.875 -3.95312,3.890625 -3.95312,14.140625 v 29.6875 h -6.59375 V 54.6875 h 6.59375 v 15.53125 z" />
        <path
           id="use263"
           d="M 218.50977,33.015625 V 0 h -8.98438 v 32.71875 q 0,7.765625 -3.03125,11.609375 -3.03125,3.859375 -9.07812,3.859375 -7.28125,0 -11.48438,-4.640625 -4.20312,-4.625 -4.20312,-12.640625 V 0 h -9.03125 v 75.984375 h 9.03125 V 46.1875 q 3.23437,4.9375 7.59375,7.375 4.375,2.4375 10.09375,2.4375 9.42187,0 14.25,-5.828125 4.84375,-5.828125 4.84375,-17.15625 z" />
        <path
           id="use265"
           d="m 257.60742,48.390625 q -7.21875,0 -11.42187,-5.640625 -4.20313,-5.640625 -4.20313,-15.453125 0,-9.8125 4.17188,-15.453125 4.1875,-5.640625 11.45312,-5.640625 7.1875,0 11.375,5.65625 4.20313,5.671875 4.20313,15.4375 0,9.71875 -4.20313,15.40625 -4.1875,5.6875 -11.375,5.6875 z m 0,7.609375 q 11.71875,0 18.40625,-7.625 6.70313,-7.609375 6.70313,-21.078125 0,-13.421875 -6.70313,-21.078125 -6.6875,-7.640625 -18.40625,-7.640625 -11.76562,0 -18.4375,7.640625 -6.65625,7.65625 -6.65625,21.078125 0,13.46875 6.65625,21.078125 Q 245.8418,56 257.60742,56 Z" />
        <path
           id="use267"
           d="M 296.67969,21.578125 V 54.6875 h 8.98437 V 21.921875 q 0,-7.765625 3.01563,-11.65625 3.03125,-3.875 9.09375,-3.875 7.26562,0 11.48437,4.640625 4.23438,4.640625 4.23438,12.65625 v 31 h 8.98437 V 0 h -8.98437 V 8.40625 Q 330.22656,3.421875 325.89844,1 q -4.3125,-2.421875 -10.03125,-2.421875 -9.42188,0 -14.3125,5.859375 -4.875,5.859375 -4.875,17.140625 z M 319.28906,56 Z" />
        <path
           id="use269"
           d="M 369.87109,70.21875 V 54.6875 h 18.5 v -6.984375 h -18.5 v -29.6875 q 0,-6.6875 1.82813,-8.59375 1.82812,-1.90625 7.45312,-1.90625 h 9.21875 V 0 h -9.21875 q -10.40625,0 -14.35937,3.875 -3.95313,3.890625 -3.95313,14.140625 v 29.6875 h -6.59375 V 54.6875 h 6.59375 v 15.53125 z" />
        <path
           d=""
           id="use271" />
        <path
           id="use273"
           d="m 422.25781,72.90625 h 61.67188 v -8.3125 h -25.875 V 0 h -9.90625 v 64.59375 h -25.89063 z" />
        <path
           id="use275"
           d="m 509.99805,46.296875 q -1.51563,0.875 -3.29688,1.28125 Q 504.91992,48 502.7793,48 495.1543,48 491.07617,43.046875 486.99805,38.09375 486.99805,28.8125 V 0 h -9.03125 v 54.6875 h 9.03125 v -8.5 q 2.84375,4.984375 7.375,7.390625 Q 498.91992,56 505.41992,56 q 0.92188,0 2.04688,-0.125 1.125,-0.109375 2.48437,-0.359375 z" />
        <path
           id="use277"
           d="m 544.2832,27.484375 q -10.89062,0 -15.09375,-2.484375 -4.20312,-2.484375 -4.20312,-8.5 0,-4.78125 3.15625,-7.59375 3.15625,-2.796875 8.5625,-2.796875 7.48437,0 12,5.296875 4.51562,5.296875 4.51562,14.078125 v 2 z m 17.92188,3.71875 V 0 h -8.98438 v 8.296875 q -3.07812,-4.96875 -7.67187,-7.34375 -4.59375,-2.375 -11.23438,-2.375 -8.39062,0 -13.35937,4.71875 -4.95313,4.71875 -4.95313,12.625 0,9.21875 6.17188,13.90625 6.1875,4.6875 18.4375,4.6875 h 12.60937 v 0.890625 q 0,6.203125 -4.07812,9.59375 -4.07813,3.390625 -11.45313,3.390625 -4.6875,0 -9.14062,-1.125 -4.4375,-1.125 -8.53125,-3.375 v 8.3125 q 4.92187,1.90625 9.5625,2.84375 Q 534.2207,56 538.61133,56 q 11.875,0 17.73437,-6.15625 5.85938,-6.140625 5.85938,-18.640625 z" />
        <path
           id="use279"
           d="M 608.39062,75.984375 V 68.5 h -8.59375 q -4.82812,0 -6.71875,-1.953125 -1.875,-1.953125 -1.875,-7.03125 V 54.6875 H 606 V 47.703125 H 591.20312 V 0 h -9.03125 v 47.703125 h -8.59375 V 54.6875 h 8.59375 V 58.5 q 0,9.125 4.25,13.296875 4.25,4.1875 13.46875,4.1875 z" />
        <path
           id="use281"
           d="M 643.5957,75.984375 V 68.5 h -8.59375 q -4.82812,0 -6.71875,-1.953125 -1.875,-1.953125 -1.875,-7.03125 V 54.6875 h 14.79688 V 47.703125 H 626.4082 V 0 h -9.03125 V 47.703125 H 608.7832 V 54.6875 h 8.59375 V 58.5 q 0,9.125 4.25,13.296875 4.25,4.1875 13.46875,4.1875 z" />
        <path
           id="use283"
           d="m 651.11328,54.6875 h 8.98438 V 0 h -8.98438 z m 0,21.296875 h 8.98438 V 64.59375 h -8.98438 z" />
        <path
           id="use285"
           d="M 718.25586,52.59375 V 44.1875 q -3.8125,2.109375 -7.64063,3.15625 -3.82812,1.046875 -7.73437,1.046875 -8.75,0 -13.59375,-5.546875 -4.82813,-5.53125 -4.82813,-15.546875 0,-10.015625 4.82813,-15.5625 4.84375,-5.53125 13.59375,-5.53125 3.90625,0 7.73437,1.046875 3.82813,1.046875 7.64063,3.15625 v -8.3125 q -3.76563,-1.75 -7.79688,-2.625 -4.01562,-0.890625 -8.5625,-0.890625 -12.35937,0 -19.64062,7.765625 -7.26563,7.765625 -7.26563,20.953125 0,13.375 7.34375,21.03125 Q 689.69336,56 702.49023,56 q 4.14063,0 8.09375,-0.859375 3.95313,-0.84375 7.67188,-2.546875 z" />
      </g>
    </g>
    <g
       id="patch_11">
      <path
         d="m 120.95781,117.67656 h 20 v -7 h -20 z"
         style="fill:#d85c41"
         id="path290" />
    </g>
    <g
       id="text_10">
      <!-- With Traffic -->
      <g
         transform="matrix(0.1,0,0,-0.1,148.95781,117.67656)"
         id="g317">
        <path
           id="use293"
           d="m 3.328125,72.90625 h 9.953125 l 15.328125,-61.625 15.28125,61.625 h 11.09375 l 15.328125,-61.625 15.28125,61.625 H 95.609375 L 77.296875,0 H 64.890625 L 49.515625,63.28125 33.984375,0 h -12.40625 z" />
        <path
           id="use295"
           d="m 106.04883,54.6875 h 8.98437 V 0 h -8.98437 z m 0,21.296875 h 8.98437 V 64.59375 h -8.98437 z" />
        <path
           id="use297"
           d="M 142.72266,70.21875 V 54.6875 h 18.5 v -6.984375 h -18.5 v -29.6875 q 0,-6.6875 1.82812,-8.59375 1.82813,-1.90625 7.45313,-1.90625 h 9.21875 V 0 h -9.21875 q -10.40625,0 -14.35938,3.875 -3.95312,3.890625 -3.95312,14.140625 v 29.6875 h -6.59375 V 54.6875 h 6.59375 v 15.53125 z" />
        <path
           id="use299"
           d="M 218.50977,33.015625 V 0 h -8.98438 v 32.71875 q 0,7.765625 -3.03125,11.609375 -3.03125,3.859375 -9.07812,3.859375 -7.28125,0 -11.48438,-4.640625 -4.20312,-4.625 -4.20312,-12.640625 V 0 h -9.03125 v 75.984375 h 9.03125 V 46.1875 q 3.23437,4.9375 7.59375,7.375 4.375,2.4375 10.09375,2.4375 9.42187,0 14.25,-5.828125 4.84375,-5.828125 4.84375,-17.15625 z" />
        <path
           d=""
           id="use301" />
        <path
           id="use303"
           d="m 258.48828,72.90625 h 61.67188 v -8.3125 h -25.875 V 0 h -9.90625 v 64.59375 h -25.89063 z" />
        <path
           id="use305"
           d="m 346.22852,46.296875 q -1.51563,0.875 -3.29688,1.28125 Q 341.15039,48 339.00977,48 331.38477,48 327.30664,43.046875 323.22852,38.09375 323.22852,28.8125 V 0 h -9.03125 v 54.6875 h 9.03125 v -8.5 q 2.84375,4.984375 7.375,7.390625 Q 335.15039,56 341.65039,56 q 0.92188,0 2.04688,-0.125 1.125,-0.109375 2.48437,-0.359375 z" />
        <path
           id="use307"
           d="m 380.51367,27.484375 q -10.89062,0 -15.09375,-2.484375 -4.20312,-2.484375 -4.20312,-8.5 0,-4.78125 3.15625,-7.59375 3.15625,-2.796875 8.5625,-2.796875 7.48437,0 12,5.296875 4.51562,5.296875 4.51562,14.078125 v 2 z m 17.92188,3.71875 V 0 h -8.98438 v 8.296875 q -3.07812,-4.96875 -7.67187,-7.34375 -4.59375,-2.375 -11.23438,-2.375 -8.39062,0 -13.35937,4.71875 -4.95313,4.71875 -4.95313,12.625 0,9.21875 6.17188,13.90625 6.1875,4.6875 18.4375,4.6875 h 12.60937 v 0.890625 q 0,6.203125 -4.07812,9.59375 -4.07813,3.390625 -11.45313,3.390625 -4.6875,0 -9.14062,-1.125 -4.4375,-1.125 -8.53125,-3.375 v 8.3125 q 4.92187,1.90625 9.5625,2.84375 Q 370.45117,56 374.8418,56 q 11.875,0 17.73437,-6.15625 5.85938,-6.140625 5.85938,-18.640625 z" />
        <path
           id="use309"
           d="M 444.62109,75.984375 V 68.5 h -8.59375 q -4.82812,0 -6.71875,-1.953125 -1.875,-1.953125 -1.875,-7.03125 V 54.6875 h 14.79688 V 47.703125 H 427.43359 V 0 h -9.03125 v 47.703125 h -8.59375 V 54.6875 h 8.59375 V 58.5 q 0,9.125 4.25,13.296875 4.25,4.1875 13.46875,4.1875 z" />
        <path
           id="use311"
           d="M 479.82617,75.984375 V 68.5 h -8.59375 q -4.82812,0 -6.71875,-1.953125 -1.875,-1.953125 -1.875,-7.03125 V 54.6875 h 14.79688 V 47.703125 H 462.63867 V 0 h -9.03125 v 47.703125 h -8.59375 V 54.6875 h 8.59375 V 58.5 q 0,9.125 4.25,13.296875 4.25,4.1875 13.46875,4.1875 z" />
        <path
           id="use313"
           d="m 487.34375,54.6875 h 8.98437 V 0 h -8.98437 z m 0,21.296875 h 8.98437 V 64.59375 h -8.98437 z" />
        <path
           id="use315"
           d="M 554.48633,52.59375 V 44.1875 q -3.8125,2.109375 -7.64063,3.15625 -3.82812,1.046875 -7.73437,1.046875 -8.75,0 -13.59375,-5.546875 -4.82813,-5.53125 -4.82813,-15.546875 0,-10.015625 4.82813,-15.5625 4.84375,-5.53125 13.59375,-5.53125 3.90625,0 7.73437,1.046875 3.82813,1.046875 7.64063,3.15625 v -8.3125 q -3.76563,-1.75 -7.79688,-2.625 -4.01562,-0.890625 -8.5625,-0.890625 -12.35937,0 -19.64062,7.765625 -7.26563,7.765625 -7.26563,20.953125 0,13.375 7.34375,21.03125 Q 525.92383,56 538.7207,56 q 4.14063,0 8.09375,-0.859375 3.95313,-0.84375 7.67188,-2.546875 z" />
      </g>
    </g>
  </g>
  <g
     aria-label="Night - RGB-G+Seg fusion"
     id="text719"
     style="font-size:8px;line-height:1.25;font-family:sans-serif;-inkscape-font-specification:sans-serif;stroke-width:0.75;stroke-linecap:butt;stroke-linejoin:round">
    <path
       d="m 90.876625,42.906876 h 1.0625 l 2.585938,4.878906 v -4.878906 h 0.765625 v 5.832031 h -1.0625 L 91.64225,43.860001 v 4.878906 h -0.765625 z"
       style="font-size:8px;stroke-width:0.75;stroke-linecap:butt;stroke-linejoin:round"
       id="path1487" />
    <path
       d="m 96.82975,44.363907 h 0.71875 v 4.375 h -0.71875 z m 0,-1.703125 h 0.71875 v 0.910156 h -0.71875 z"
       style="font-size:8px;stroke-width:0.75;stroke-linecap:butt;stroke-linejoin:round"
       id="path1489" />
    <path
       d="m 101.92741,46.500626 q 0,-0.78125 -0.32422,-1.210938 -0.32031,-0.429687 -0.90235,-0.429687 -0.57812,0 -0.90234,0.429687 -0.320312,0.429688 -0.320312,1.210938 0,0.777343 0.320312,1.207031 0.32422,0.429687 0.90234,0.429687 0.58204,0 0.90235,-0.429687 0.32422,-0.429688 0.32422,-1.207031 z m 0.71875,1.695312 q 0,1.117188 -0.4961,1.660156 -0.49609,0.546875 -1.51953,0.546875 -0.3789,0 -0.714842,-0.05859 -0.335938,-0.05469 -0.652344,-0.171875 v -0.699219 q 0.316406,0.171875 0.625,0.253906 0.308596,0.08203 0.628906,0.08203 0.70703,0 1.05859,-0.371093 0.35157,-0.367188 0.35157,-1.113282 v -0.355468 q -0.22266,0.386718 -0.57032,0.578125 -0.34765,0.191406 -0.83203,0.191406 -0.804685,0 -1.296872,-0.613281 -0.492188,-0.613282 -0.492188,-1.625 0,-1.015625 0.492188,-1.628907 0.492187,-0.613281 1.296872,-0.613281 0.48438,0 0.83203,0.191406 0.34766,0.191407 0.57032,0.578125 v -0.664062 h 0.71875 z"
       style="font-size:8px;stroke-width:0.75;stroke-linecap:butt;stroke-linejoin:round"
       id="path1491" />
    <path
       d="m 107.76334,46.098282 v 2.640625 h -0.71875 v -2.617188 q 0,-0.621093 -0.24218,-0.929687 -0.24219,-0.308594 -0.72657,-0.308594 -0.58203,0 -0.91796,0.371094 -0.33594,0.371094 -0.33594,1.011719 v 2.472656 h -0.72266 v -6.078125 h 0.72266 v 2.382812 q 0.25781,-0.394531 0.60547,-0.589843 0.35156,-0.195313 0.80859,-0.195313 0.75391,0 1.14063,0.46875 0.38671,0.464844 0.38671,1.371094 z"
       style="font-size:8px;stroke-width:0.75;stroke-linecap:butt;stroke-linejoin:round"
       id="path1493" />
    <path
       d="m 109.91569,43.121719 v 1.242188 h 1.48047 v 0.558594 h -1.48047 v 2.375 q 0,0.535156 0.14453,0.6875 0.14844,0.152343 0.59766,0.152343 h 0.73828 v 0.601563 h -0.73828 q -0.83204,0 -1.14844,-0.308594 -0.31641,-0.3125 -0.31641,-1.132812 v -2.375 h -0.52734 v -0.558594 h 0.52734 v -1.242188 z"
       style="font-size:8px;stroke-width:0.75;stroke-linecap:butt;stroke-linejoin:round"
       id="path1495" />
    <path
       d="m 114.52897,46.227188 h 2.10547 v 0.640625 h -2.10547 z"
       style="font-size:8px;stroke-width:0.75;stroke-linecap:butt;stroke-linejoin:round"
       id="path1497" />
    <path
       d="m 123.12663,46.004532 q 0.2539,0.08594 0.49218,0.367187 0.24219,0.28125 0.48438,0.773438 l 0.80078,1.59375 h -0.84766 l -0.74609,-1.496094 q -0.28906,-0.585937 -0.5625,-0.777344 -0.26953,-0.191406 -0.73828,-0.191406 h -0.85938 v 2.464844 H 120.361 v -5.832031 h 1.78125 q 1,0 1.49219,0.417968 0.49219,0.417969 0.49219,1.261719 0,0.550781 -0.25782,0.914063 -0.2539,0.363281 -0.74218,0.503906 z m -1.97657,-2.449219 v 2.070313 h 0.99219 q 0.57031,0 0.85938,-0.261719 0.29296,-0.265625 0.29296,-0.777344 0,-0.511719 -0.29296,-0.769531 -0.28907,-0.261719 -0.85938,-0.261719 z"
       style="font-size:8px;stroke-width:0.75;stroke-linecap:butt;stroke-linejoin:round"
       id="path1499" />
    <path
       d="M 129.90006,47.906876 V 46.340469 H 128.611 v -0.648437 h 2.07031 v 2.503906 q -0.45703,0.324219 -1.00781,0.492188 -0.55078,0.164062 -1.17578,0.164062 -1.36719,0 -2.14063,-0.796875 -0.76953,-0.800781 -0.76953,-2.226562 0,-1.429688 0.76953,-2.226563 0.77344,-0.800781 2.14063,-0.800781 0.57031,0 1.08203,0.140625 0.51563,0.140625 0.94922,0.414062 v 0.839844 q -0.4375,-0.371094 -0.92969,-0.558594 -0.49219,-0.1875 -1.03515,-0.1875 -1.07032,0 -1.60938,0.597657 -0.53516,0.597656 -0.53516,1.78125 0,1.179687 0.53516,1.777343 0.53906,0.597657 1.60938,0.597657 0.41796,0 0.74609,-0.07031 0.32812,-0.07422 0.58984,-0.226562 z"
       style="font-size:8px;stroke-width:0.75;stroke-linecap:butt;stroke-linejoin:round"
       id="path1501" />
    <path
       d="m 132.91569,45.953751 v 2.136718 h 1.26562 q 0.63672,0 0.94141,-0.261718 0.30859,-0.265625 0.30859,-0.808594 0,-0.546875 -0.30859,-0.804688 -0.30469,-0.261718 -0.94141,-0.261718 z m 0,-2.398438 v 1.757813 h 1.16797 q 0.57812,0 0.85937,-0.214844 0.28516,-0.21875 0.28516,-0.664063 0,-0.441406 -0.28516,-0.660156 -0.28125,-0.21875 -0.85937,-0.21875 z m -0.78906,-0.648437 h 2.01562 q 0.90234,0 1.39063,0.375 0.48828,0.375 0.48828,1.066406 0,0.535156 -0.25,0.851562 -0.25,0.316407 -0.73438,0.394532 0.58203,0.125 0.90235,0.523437 0.32421,0.394531 0.32421,0.988281 0,0.78125 -0.53125,1.207032 -0.53125,0.425781 -1.51171,0.425781 h -2.09375 z"
       style="font-size:8px;stroke-width:0.75;stroke-linecap:butt;stroke-linejoin:round"
       id="path1503" />
    <path
       d="m 137.21647,46.227188 h 2.10547 v 0.640625 h -2.10547 z"
       style="font-size:8px;stroke-width:0.75;stroke-linecap:butt;stroke-linejoin:round"
       id="path1505" />
    <path
       d="M 144.77506,47.906876 V 46.340469 H 143.486 v -0.648437 h 2.07031 v 2.503906 q -0.45703,0.324219 -1.00781,0.492188 -0.55078,0.164062 -1.17578,0.164062 -1.36719,0 -2.14063,-0.796875 -0.76953,-0.800781 -0.76953,-2.226562 0,-1.429688 0.76953,-2.226563 0.77344,-0.800781 2.14063,-0.800781 0.57031,0 1.08203,0.140625 0.51563,0.140625 0.94922,0.414062 v 0.839844 q -0.4375,-0.371094 -0.92969,-0.558594 -0.49219,-0.1875 -1.03515,-0.1875 -1.07032,0 -1.60938,0.597657 -0.53516,0.597656 -0.53516,1.78125 0,1.179687 0.53516,1.777343 0.53906,0.597657 1.60938,0.597657 0.41796,0 0.74609,-0.07031 0.32812,-0.07422 0.58984,-0.226562 z"
       style="font-size:8px;stroke-width:0.75;stroke-linecap:butt;stroke-linejoin:round"
       id="path1507" />
    <path
       d="m 149.89616,43.723282 v 2.175781 h 2.17578 v 0.664063 h -2.17578 v 2.175781 h -0.65625 v -2.175781 h -2.17578 v -0.664063 h 2.17578 v -2.175781 z"
       style="font-size:8px;stroke-width:0.75;stroke-linecap:butt;stroke-linejoin:round"
       id="path1509" />
    <path
       d="m 157.20084,43.098282 v 0.769531 q -0.44921,-0.214844 -0.84765,-0.320312 -0.39844,-0.105469 -0.76953,-0.105469 -0.64453,0 -0.9961,0.25 -0.34765,0.25 -0.34765,0.710937 0,0.386719 0.23047,0.585938 0.23437,0.195312 0.88281,0.316406 l 0.47656,0.09766 q 0.88281,0.167969 1.30078,0.59375 0.42188,0.421875 0.42188,1.132813 0,0.847656 -0.57032,1.285156 -0.5664,0.4375 -1.66406,0.4375 -0.41406,0 -0.88281,-0.09375 -0.46484,-0.09375 -0.96484,-0.277344 v -0.8125 q 0.48046,0.269532 0.9414,0.40625 0.46094,0.136719 0.90625,0.136719 0.67578,0 1.04297,-0.265625 0.36719,-0.265625 0.36719,-0.757812 0,-0.429688 -0.26563,-0.671875 -0.26172,-0.242188 -0.86328,-0.363282 l -0.48047,-0.09375 q -0.88281,-0.175781 -1.27734,-0.550781 -0.39453,-0.375 -0.39453,-1.042969 0,-0.773437 0.54297,-1.21875 0.54687,-0.445312 1.5039,-0.445312 0.41016,0 0.83594,0.07422 0.42578,0.07422 0.87109,0.222656 z"
       style="font-size:8px;stroke-width:0.75;stroke-linecap:butt;stroke-linejoin:round"
       id="path1511" />
    <path
       d="m 162.49381,46.371719 v 0.351563 h -3.30468 q 0.0469,0.742187 0.44531,1.132812 0.40234,0.386719 1.11719,0.386719 0.41406,0 0.80078,-0.101562 0.39062,-0.101563 0.77343,-0.304688 v 0.679688 q -0.38671,0.164062 -0.79296,0.25 -0.40625,0.08594 -0.82422,0.08594 -1.04688,0 -1.66016,-0.609375 -0.60937,-0.609375 -0.60937,-1.648437 0,-1.074219 0.57812,-1.703125 0.58203,-0.632813 1.56641,-0.632813 0.88281,0 1.39453,0.570313 0.51562,0.566406 0.51562,1.542968 z m -0.71875,-0.210937 q -0.008,-0.589844 -0.33203,-0.941406 -0.32031,-0.351563 -0.85156,-0.351563 -0.60156,0 -0.96484,0.339844 -0.35938,0.339844 -0.41407,0.957031 z"
       style="font-size:8px;stroke-width:0.75;stroke-linecap:butt;stroke-linejoin:round"
       id="path1513" />
    <path
       d="m 166.55241,46.500626 q 0,-0.78125 -0.32422,-1.210938 -0.32031,-0.429687 -0.90235,-0.429687 -0.57812,0 -0.90234,0.429687 -0.32031,0.429688 -0.32031,1.210938 0,0.777343 0.32031,1.207031 0.32422,0.429687 0.90234,0.429687 0.58204,0 0.90235,-0.429687 0.32422,-0.429688 0.32422,-1.207031 z m 0.71875,1.695312 q 0,1.117188 -0.4961,1.660156 -0.49609,0.546875 -1.51953,0.546875 -0.3789,0 -0.71484,-0.05859 -0.33594,-0.05469 -0.65235,-0.171875 v -0.699219 q 0.31641,0.171875 0.625,0.253906 0.3086,0.08203 0.62891,0.08203 0.70703,0 1.05859,-0.371093 0.35157,-0.367188 0.35157,-1.113282 v -0.355468 q -0.22266,0.386718 -0.57032,0.578125 -0.34765,0.191406 -0.83203,0.191406 -0.80468,0 -1.29687,-0.613281 -0.49219,-0.613282 -0.49219,-1.625 0,-1.015625 0.49219,-1.628907 0.49219,-0.613281 1.29687,-0.613281 0.48438,0 0.83203,0.191406 0.34766,0.191407 0.57032,0.578125 v -0.664062 h 0.71875 z"
       style="font-size:8px;stroke-width:0.75;stroke-linecap:butt;stroke-linejoin:round"
       id="path1515" />
    <path
       d="m 173.51334,42.660782 v 0.597656 h -0.6875 q -0.38671,0 -0.53906,0.15625 -0.14844,0.15625 -0.14844,0.5625 v 0.386719 h 1.1836 v 0.558594 h -1.1836 v 3.816406 h -0.72265 v -3.816406 h -0.6875 v -0.558594 h 0.6875 v -0.304688 q 0,-0.730468 0.33984,-1.0625 0.33985,-0.335937 1.07813,-0.335937 z"
       style="font-size:8px;stroke-width:0.75;stroke-linecap:butt;stroke-linejoin:round"
       id="path1517" />
    <path
       d="m 174.03678,47.012344 v -2.648437 h 0.71875 v 2.621094 q 0,0.621093 0.24219,0.933593 0.24219,0.308594 0.72656,0.308594 0.58203,0 0.91797,-0.371094 0.33984,-0.371093 0.33984,-1.011718 v -2.480469 h 0.71875 v 4.375 h -0.71875 v -0.671875 q -0.26171,0.398437 -0.60937,0.59375 -0.34375,0.191406 -0.80078,0.191406 -0.75391,0 -1.14453,-0.46875 -0.39063,-0.46875 -0.39063,-1.371094 z m 1.8086,-2.753906 z"
       style="font-size:8px;stroke-width:0.75;stroke-linecap:butt;stroke-linejoin:round"
       id="path1519" />
    <path
       d="m 181.97819,44.492813 v 0.679688 q -0.30469,-0.15625 -0.63281,-0.234375 -0.32813,-0.07813 -0.67969,-0.07813 -0.53516,0 -0.80469,0.164062 -0.26562,0.164063 -0.26562,0.492188 0,0.25 0.1914,0.394531 0.19141,0.140625 0.76953,0.269531 l 0.2461,0.05469 q 0.76562,0.164062 1.08593,0.464843 0.32422,0.296875 0.32422,0.832032 0,0.609375 -0.48437,0.964843 -0.48047,0.355469 -1.32422,0.355469 -0.35156,0 -0.73438,-0.07031 -0.3789,-0.06641 -0.80078,-0.203125 v -0.742188 q 0.39844,0.207031 0.78516,0.3125 0.38672,0.101563 0.76562,0.101563 0.50782,0 0.78125,-0.171875 0.27344,-0.175782 0.27344,-0.492188 0,-0.292969 -0.19922,-0.449219 -0.19531,-0.15625 -0.86328,-0.300781 l -0.25,-0.05859 q -0.66797,-0.140625 -0.96484,-0.429687 -0.29688,-0.292969 -0.29688,-0.800781 0,-0.617188 0.4375,-0.953125 0.4375,-0.335938 1.24219,-0.335938 0.39844,0 0.75,0.05859 0.35156,0.05859 0.64844,0.175781 z"
       style="font-size:8px;stroke-width:0.75;stroke-linecap:butt;stroke-linejoin:round"
       id="path1521" />
    <path
       d="m 183.361,44.363907 h 0.71875 v 4.375 H 183.361 Z m 0,-1.703125 h 0.71875 v 0.910156 H 183.361 Z"
       style="font-size:8px;stroke-width:0.75;stroke-linecap:butt;stroke-linejoin:round"
       id="path1523" />
    <path
       d="m 187.27506,44.867813 q -0.57812,0 -0.91406,0.453125 -0.33594,0.449219 -0.33594,1.234375 0,0.785156 0.33203,1.238281 0.33594,0.449219 0.91797,0.449219 0.57422,0 0.91016,-0.453125 0.33594,-0.453125 0.33594,-1.234375 0,-0.777344 -0.33594,-1.230469 -0.33594,-0.457031 -0.91016,-0.457031 z m 0,-0.609375 q 0.9375,0 1.47266,0.609375 0.53516,0.609375 0.53516,1.6875 0,1.074219 -0.53516,1.6875 -0.53516,0.609375 -1.47266,0.609375 -0.9414,0 -1.47656,-0.609375 -0.53125,-0.613281 -0.53125,-1.6875 0,-1.078125 0.53125,-1.6875 0.53516,-0.609375 1.47656,-0.609375 z"
       style="font-size:8px;stroke-width:0.75;stroke-linecap:butt;stroke-linejoin:round"
       id="path1525" />
    <path
       d="m 194.10709,46.098282 v 2.640625 h -0.71875 v -2.617188 q 0,-0.621093 -0.24218,-0.929687 -0.24219,-0.308594 -0.72657,-0.308594 -0.58203,0 -0.91796,0.371094 -0.33594,0.371094 -0.33594,1.011719 v 2.472656 h -0.72266 v -4.375 h 0.72266 v 0.679687 q 0.25781,-0.394531 0.60547,-0.589843 0.35156,-0.195313 0.80859,-0.195313 0.75391,0 1.14063,0.46875 0.38671,0.464844 0.38671,1.371094 z"
       style="font-size:8px;stroke-width:0.75;stroke-linecap:butt;stroke-linejoin:round"
       id="path1527" />
  </g>
  <g
     style="font-size:8px;line-height:1.25;font-family:sans-serif;-inkscape-font-specification:sans-serif;stroke-width:0.75;stroke-linecap:butt;stroke-linejoin:round"
     id="text415"
     transform="rotate(-90)"
     aria-label="Number of collisions after 10 episodes">
    <path
       id="path523"
       style="font-size:8px;stroke-width:0.75;stroke-linecap:butt;stroke-linejoin:round"
       d="m -207.79947,60.582077 h 1.0625 l 2.58594,4.878906 v -4.878906 h 0.76562 v 5.832031 h -1.0625 l -2.58593,-4.878906 v 4.878906 h -0.76563 z" />
    <path
       id="path525"
       style="font-size:8px;stroke-width:0.75;stroke-linecap:butt;stroke-linejoin:round"
       d="m -201.92056,64.687546 v -2.648438 h 0.71875 v 2.621094 q 0,0.621094 0.24218,0.933594 0.24219,0.308594 0.72657,0.308594 0.58203,0 0.91797,-0.371094 0.33984,-0.371094 0.33984,-1.011719 v -2.480469 h 0.71875 v 4.375 h -0.71875 v -0.671875 q -0.26172,0.398438 -0.60938,0.59375 -0.34375,0.191407 -0.80078,0.191407 -0.7539,0 -1.14453,-0.46875 -0.39062,-0.46875 -0.39062,-1.371094 z m 1.80859,-2.753906 z" />
    <path
       id="path527"
       style="font-size:8px;stroke-width:0.75;stroke-linecap:butt;stroke-linejoin:round"
       d="m -193.36197,62.878952 q 0.26953,-0.484375 0.64453,-0.714844 0.375,-0.230468 0.88281,-0.230468 0.6836,0 1.05469,0.480468 0.3711,0.476563 0.3711,1.359375 v 2.640625 h -0.72266 v -2.617187 q 0,-0.628906 -0.22266,-0.933594 -0.22265,-0.304687 -0.67968,-0.304687 -0.5586,0 -0.88282,0.371093 -0.32422,0.371094 -0.32422,1.011719 v 2.472656 h -0.72265 v -2.617187 q 0,-0.632813 -0.22266,-0.933594 -0.22265,-0.304687 -0.6875,-0.304687 -0.55078,0 -0.875,0.375 -0.32422,0.371093 -0.32422,1.007812 v 2.472656 h -0.72265 v -4.375 h 0.72265 v 0.679688 q 0.2461,-0.402344 0.58985,-0.59375 0.34375,-0.191406 0.8164,-0.191406 0.47657,0 0.8086,0.242187 0.33593,0.242188 0.49609,0.703125 z" />
    <path
       id="path529"
       style="font-size:8px;stroke-width:0.75;stroke-linecap:butt;stroke-linejoin:round"
       d="m -185.83072,64.230515 q 0,-0.792969 -0.32812,-1.242188 -0.32422,-0.453125 -0.89454,-0.453125 -0.57031,0 -0.89843,0.453125 -0.32422,0.449219 -0.32422,1.242188 0,0.792968 0.32422,1.246093 0.32812,0.449219 0.89843,0.449219 0.57032,0 0.89454,-0.449219 0.32812,-0.453125 0.32812,-1.246093 z m -2.44531,-1.527344 q 0.22656,-0.390625 0.57031,-0.578125 0.34766,-0.191406 0.82813,-0.191406 0.79687,0 1.29296,0.632812 0.5,0.632813 0.5,1.664063 0,1.03125 -0.5,1.664062 -0.49609,0.632813 -1.29296,0.632813 -0.48047,0 -0.82813,-0.1875 -0.34375,-0.191407 -0.57031,-0.582032 v 0.65625 h -0.72266 v -6.078125 h 0.72266 z" />
    <path
       id="path531"
       style="font-size:8px;stroke-width:0.75;stroke-linecap:butt;stroke-linejoin:round"
       d="m -180.15103,64.046921 v 0.351562 h -3.30469 q 0.0469,0.742188 0.44531,1.132813 0.40235,0.386719 1.11719,0.386719 0.41406,0 0.80078,-0.101563 0.39063,-0.101562 0.77344,-0.304687 v 0.679687 q -0.38672,0.164063 -0.79297,0.25 -0.40625,0.08594 -0.82422,0.08594 -1.04687,0 -1.66015,-0.609375 -0.60938,-0.609375 -0.60938,-1.648438 0,-1.074219 0.57813,-1.703125 0.58203,-0.632812 1.5664,-0.632812 0.88281,0 1.39453,0.570312 0.51563,0.566406 0.51563,1.542969 z m -0.71875,-0.210938 q -0.008,-0.589843 -0.33203,-0.941406 -0.32032,-0.351562 -0.85157,-0.351562 -0.60156,0 -0.96484,0.339843 -0.35937,0.339844 -0.41406,0.957032 z" />
    <path
       id="path533"
       style="font-size:8px;stroke-width:0.75;stroke-linecap:butt;stroke-linejoin:round"
       d="m -176.43619,62.710983 q -0.12109,-0.07031 -0.26562,-0.101562 -0.14063,-0.03516 -0.3125,-0.03516 -0.60938,0 -0.9375,0.398437 -0.32422,0.394531 -0.32422,1.136719 v 2.304687 h -0.72266 v -4.375 h 0.72266 v 0.679688 q 0.22656,-0.398438 0.58984,-0.589844 0.36328,-0.195312 0.88281,-0.195312 0.0742,0 0.16407,0.01172 0.0898,0.0078 0.19922,0.02734 z" />
    <path
       id="path535"
       style="font-size:8px;stroke-width:0.75;stroke-linecap:butt;stroke-linejoin:round"
       d="m -171.43228,62.543015 q -0.57813,0 -0.91406,0.453125 -0.33594,0.449218 -0.33594,1.234375 0,0.785156 0.33203,1.238281 0.33594,0.449219 0.91797,0.449219 0.57422,0 0.91015,-0.453125 0.33594,-0.453125 0.33594,-1.234375 0,-0.777344 -0.33594,-1.230469 -0.33593,-0.457031 -0.91015,-0.457031 z m 0,-0.609375 q 0.9375,0 1.47265,0.609375 0.53516,0.609375 0.53516,1.6875 0,1.074218 -0.53516,1.6875 -0.53515,0.609375 -1.47265,0.609375 -0.94141,0 -1.47656,-0.609375 -0.53125,-0.613282 -0.53125,-1.6875 0,-1.078125 0.53125,-1.6875 0.53515,-0.609375 1.47656,-0.609375 z" />
    <path
       id="path537"
       style="font-size:8px;stroke-width:0.75;stroke-linecap:butt;stroke-linejoin:round"
       d="m -166.02213,60.335983 v 0.597657 h -0.6875 q -0.38671,0 -0.53906,0.15625 -0.14844,0.15625 -0.14844,0.5625 v 0.386718 h 1.1836 v 0.558594 h -1.1836 v 3.816406 h -0.72265 v -3.816406 h -0.6875 v -0.558594 h 0.6875 v -0.304687 q 0,-0.730469 0.33984,-1.0625 0.33985,-0.335938 1.07813,-0.335938 z" />
    <path
       id="path539"
       style="font-size:8px;stroke-width:0.75;stroke-linecap:butt;stroke-linejoin:round"
       d="m -159.72916,62.207077 v 0.671875 q -0.30468,-0.167969 -0.61328,-0.25 -0.30469,-0.08594 -0.61719,-0.08594 -0.69921,0 -1.08593,0.445312 -0.38672,0.441406 -0.38672,1.242188 0,0.800781 0.38672,1.246093 0.38672,0.441407 1.08593,0.441407 0.3125,0 0.61719,-0.08203 0.3086,-0.08594 0.61328,-0.253906 v 0.664063 q -0.30078,0.140625 -0.625,0.210937 -0.32031,0.07031 -0.68359,0.07031 -0.98828,0 -1.57031,-0.621094 -0.58203,-0.621094 -0.58203,-1.675781 0,-1.070313 0.58593,-1.683594 0.58985,-0.613281 1.61328,-0.613281 0.33204,0 0.64844,0.07031 0.31641,0.06641 0.61328,0.203125 z" />
    <path
       id="path541"
       style="font-size:8px;stroke-width:0.75;stroke-linecap:butt;stroke-linejoin:round"
       d="m -156.77603,62.543015 q -0.57813,0 -0.91406,0.453125 -0.33594,0.449218 -0.33594,1.234375 0,0.785156 0.33203,1.238281 0.33594,0.449219 0.91797,0.449219 0.57422,0 0.91015,-0.453125 0.33594,-0.453125 0.33594,-1.234375 0,-0.777344 -0.33594,-1.230469 -0.33593,-0.457031 -0.91015,-0.457031 z m 0,-0.609375 q 0.9375,0 1.47265,0.609375 0.53516,0.609375 0.53516,1.6875 0,1.074218 -0.53516,1.6875 -0.53515,0.609375 -1.47265,0.609375 -0.94141,0 -1.47656,-0.609375 -0.53125,-0.613282 -0.53125,-1.6875 0,-1.078125 0.53125,-1.6875 0.53515,-0.609375 1.47656,-0.609375 z" />
    <path
       id="path543"
       style="font-size:8px;stroke-width:0.75;stroke-linecap:butt;stroke-linejoin:round"
       d="m -153.58072,60.335983 h 0.71875 v 6.078125 h -0.71875 z" />
    <path
       id="path545"
       style="font-size:8px;stroke-width:0.75;stroke-linecap:butt;stroke-linejoin:round"
       d="m -151.36197,60.335983 h 0.71875 v 6.078125 h -0.71875 z" />
    <path
       id="path547"
       style="font-size:8px;stroke-width:0.75;stroke-linecap:butt;stroke-linejoin:round"
       d="m -149.14322,62.039108 h 0.71875 v 4.375 h -0.71875 z m 0,-1.703125 h 0.71875 v 0.910157 h -0.71875 z" />
    <path
       id="path549"
       style="font-size:8px;stroke-width:0.75;stroke-linecap:butt;stroke-linejoin:round"
       d="m -144.13541,62.168015 v 0.679687 q -0.30468,-0.15625 -0.63281,-0.234375 -0.32812,-0.07813 -0.67969,-0.07813 -0.53515,0 -0.80468,0.164063 -0.26563,0.164062 -0.26563,0.492187 0,0.25 0.19141,0.394531 0.1914,0.140625 0.76953,0.269532 l 0.24609,0.05469 q 0.76563,0.164063 1.08594,0.464844 0.32422,0.296875 0.32422,0.832031 0,0.609375 -0.48438,0.964844 -0.48047,0.355469 -1.32422,0.355469 -0.35156,0 -0.73437,-0.07031 -0.37891,-0.06641 -0.80078,-0.203125 v -0.742187 q 0.39844,0.207031 0.78515,0.3125 0.38672,0.101562 0.76563,0.101562 0.50781,0 0.78125,-0.171875 0.27344,-0.175781 0.27344,-0.492187 0,-0.292969 -0.19922,-0.449219 -0.19531,-0.15625 -0.86328,-0.300781 l -0.25,-0.05859 q -0.66797,-0.140625 -0.96485,-0.429688 -0.29687,-0.292968 -0.29687,-0.800781 0,-0.617187 0.4375,-0.953125 0.4375,-0.335937 1.24219,-0.335937 0.39843,0 0.75,0.05859 0.35156,0.05859 0.64843,0.175782 z" />
    <path
       id="path551"
       style="font-size:8px;stroke-width:0.75;stroke-linecap:butt;stroke-linejoin:round"
       d="m -142.75259,62.039108 h 0.71875 v 4.375 h -0.71875 z m 0,-1.703125 h 0.71875 v 0.910157 h -0.71875 z" />
    <path
       id="path553"
       style="font-size:8px;stroke-width:0.75;stroke-linecap:butt;stroke-linejoin:round"
       d="m -138.83853,62.543015 q -0.57813,0 -0.91406,0.453125 -0.33594,0.449218 -0.33594,1.234375 0,0.785156 0.33203,1.238281 0.33594,0.449219 0.91797,0.449219 0.57422,0 0.91015,-0.453125 0.33594,-0.453125 0.33594,-1.234375 0,-0.777344 -0.33594,-1.230469 -0.33593,-0.457031 -0.91015,-0.457031 z m 0,-0.609375 q 0.9375,0 1.47265,0.609375 0.53516,0.609375 0.53516,1.6875 0,1.074218 -0.53516,1.6875 -0.53515,0.609375 -1.47265,0.609375 -0.94141,0 -1.47656,-0.609375 -0.53125,-0.613282 -0.53125,-1.6875 0,-1.078125 0.53125,-1.6875 0.53515,-0.609375 1.47656,-0.609375 z" />
    <path
       id="path555"
       style="font-size:8px;stroke-width:0.75;stroke-linecap:butt;stroke-linejoin:round"
       d="m -132.0065,63.773483 v 2.640625 h -0.71875 v -2.617187 q 0,-0.621094 -0.24219,-0.929688 -0.24219,-0.308593 -0.72656,-0.308593 -0.58203,0 -0.91797,0.371093 -0.33594,0.371094 -0.33594,1.011719 v 2.472656 h -0.72265 v -4.375 h 0.72265 v 0.679688 q 0.25782,-0.394531 0.60547,-0.589844 0.35156,-0.195312 0.8086,-0.195312 0.7539,0 1.14062,0.46875 0.38672,0.464843 0.38672,1.371093 z" />
    <path
       id="path557"
       style="font-size:8px;stroke-width:0.75;stroke-linecap:butt;stroke-linejoin:round"
       d="m -127.77603,62.168015 v 0.679687 q -0.30469,-0.15625 -0.63281,-0.234375 -0.32813,-0.07813 -0.67969,-0.07813 -0.53516,0 -0.80469,0.164063 -0.26562,0.164062 -0.26562,0.492187 0,0.25 0.1914,0.394531 0.19141,0.140625 0.76953,0.269532 l 0.2461,0.05469 q 0.76562,0.164063 1.08593,0.464844 0.32422,0.296875 0.32422,0.832031 0,0.609375 -0.48437,0.964844 -0.48047,0.355469 -1.32422,0.355469 -0.35156,0 -0.73438,-0.07031 -0.3789,-0.06641 -0.80078,-0.203125 v -0.742187 q 0.39844,0.207031 0.78516,0.3125 0.38672,0.101562 0.76562,0.101562 0.50782,0 0.78125,-0.171875 0.27344,-0.175781 0.27344,-0.492187 0,-0.292969 -0.19922,-0.449219 -0.19531,-0.15625 -0.86328,-0.300781 l -0.25,-0.05859 q -0.66797,-0.140625 -0.96484,-0.429688 -0.29688,-0.292968 -0.29688,-0.800781 0,-0.617187 0.4375,-0.953125 0.4375,-0.335937 1.24219,-0.335937 0.39844,0 0.75,0.05859 0.35156,0.05859 0.64844,0.175782 z" />
    <path
       id="path559"
       style="font-size:8px;stroke-width:0.75;stroke-linecap:butt;stroke-linejoin:round"
       d="m -121.85806,64.21489 q -0.8711,0 -1.20703,0.199218 -0.33594,0.199219 -0.33594,0.679688 0,0.382812 0.25,0.609375 0.2539,0.222656 0.6875,0.222656 0.59765,0 0.95703,-0.421875 0.36328,-0.425781 0.36328,-1.128906 V 64.21489 Z m 1.43359,-0.296875 v 2.496093 h -0.71875 v -0.664062 q -0.24609,0.398437 -0.61328,0.589844 -0.36719,0.1875 -0.89844,0.1875 -0.67187,0 -1.07031,-0.375 -0.39453,-0.378907 -0.39453,-1.011719 0,-0.738281 0.49219,-1.113281 0.49609,-0.375 1.47656,-0.375 h 1.00781 v -0.07031 q 0,-0.496094 -0.32812,-0.765625 -0.32422,-0.273437 -0.91407,-0.273437 -0.375,0 -0.73047,0.08984 -0.35546,0.08984 -0.68359,0.269532 v -0.664063 q 0.39453,-0.152344 0.76563,-0.226562 0.37109,-0.07813 0.72265,-0.07813 0.94922,0 1.41797,0.492187 0.46875,0.492188 0.46875,1.492188 z" />
    <path
       id="path561"
       style="font-size:8px;stroke-width:0.75;stroke-linecap:butt;stroke-linejoin:round"
       d="m -116.72525,60.335983 v 0.597657 h -0.6875 q -0.38672,0 -0.53906,0.15625 -0.14844,0.15625 -0.14844,0.5625 v 0.386718 h 1.18359 v 0.558594 h -1.18359 v 3.816406 h -0.72266 v -3.816406 h -0.6875 v -0.558594 h 0.6875 v -0.304687 q 0,-0.730469 0.33985,-1.0625 0.33984,-0.335938 1.07812,-0.335938 z" />
    <path
       id="path563"
       style="font-size:8px;stroke-width:0.75;stroke-linecap:butt;stroke-linejoin:round"
       d="m -115.55728,60.796921 v 1.242187 h 1.48047 v 0.558594 h -1.48047 v 2.375 q 0,0.535156 0.14453,0.6875 0.14844,0.152344 0.59766,0.152344 h 0.73828 v 0.601562 h -0.73828 q -0.83204,0 -1.14844,-0.308593 -0.31641,-0.3125 -0.31641,-1.132813 v -2.375 h -0.52734 v -0.558594 h 0.52734 v -1.242187 z" />
    <path
       id="path565"
       style="font-size:8px;stroke-width:0.75;stroke-linecap:butt;stroke-linejoin:round"
       d="m -109.38541,64.046921 v 0.351562 h -3.30468 q 0.0469,0.742188 0.44531,1.132813 0.40234,0.386719 1.11719,0.386719 0.41406,0 0.80078,-0.101563 0.39062,-0.101562 0.77343,-0.304687 v 0.679687 q -0.38671,0.164063 -0.79296,0.25 -0.40625,0.08594 -0.82422,0.08594 -1.04688,0 -1.66016,-0.609375 -0.60937,-0.609375 -0.60937,-1.648438 0,-1.074219 0.57812,-1.703125 0.58203,-0.632812 1.56641,-0.632812 0.88281,0 1.39453,0.570312 0.51562,0.566406 0.51562,1.542969 z m -0.71875,-0.210938 q -0.008,-0.589843 -0.33203,-0.941406 -0.32031,-0.351562 -0.85156,-0.351562 -0.60156,0 -0.96484,0.339843 -0.35938,0.339844 -0.41407,0.957032 z" />
    <path
       id="path567"
       style="font-size:8px;stroke-width:0.75;stroke-linecap:butt;stroke-linejoin:round"
       d="m -105.67056,62.710983 q -0.1211,-0.07031 -0.26563,-0.101562 -0.14062,-0.03516 -0.3125,-0.03516 -0.60937,0 -0.9375,0.398437 -0.32422,0.394531 -0.32422,1.136719 v 2.304687 h -0.72265 v -4.375 h 0.72265 v 0.679688 q 0.22657,-0.398438 0.58985,-0.589844 0.36328,-0.195312 0.88281,-0.195312 0.0742,0 0.16406,0.01172 0.0898,0.0078 0.19922,0.02734 z" />
    <path
       id="path569"
       style="font-size:8px;stroke-width:0.75;stroke-linecap:butt;stroke-linejoin:round"
       d="m -102.12369,65.750046 h 1.28906 v -4.449219 l -1.40234,0.28125 v -0.71875 l 1.39453,-0.28125 h 0.78906 v 5.167969 h 1.289067 v 0.664062 h -3.359377 z" />
    <path
       id="path571"
       style="font-size:8px;stroke-width:0.75;stroke-linecap:butt;stroke-linejoin:round"
       d="m -95.479156,61.101608 q -0.609375,0 -0.917969,0.601563 -0.304688,0.597656 -0.304688,1.800781 0,1.199219 0.304688,1.800781 0.308594,0.597657 0.917969,0.597657 0.613281,0 0.917968,-0.597657 0.308594,-0.601562 0.308594,-1.800781 0,-1.203125 -0.308594,-1.800781 -0.304687,-0.601563 -0.917968,-0.601563 z m 0,-0.625 q 0.980468,0 1.496093,0.777344 0.519532,0.773438 0.519532,2.25 0,1.472656 -0.519532,2.25 -0.515625,0.773438 -1.496093,0.773438 -0.980469,0 -1.5,-0.773438 -0.515625,-0.777344 -0.515625,-2.25 0,-1.476562 0.515625,-2.25 0.519531,-0.777344 1.5,-0.777344 z" />
    <path
       id="path573"
       style="font-size:8px;stroke-width:0.75;stroke-linecap:butt;stroke-linejoin:round"
       d="m -85.885406,64.046921 v 0.351562 h -3.304688 q 0.04687,0.742188 0.445313,1.132813 0.402343,0.386719 1.117187,0.386719 0.414063,0 0.800781,-0.101563 0.390625,-0.101562 0.773438,-0.304687 v 0.679687 q -0.386719,0.164063 -0.792969,0.25 -0.40625,0.08594 -0.824219,0.08594 -1.046875,0 -1.660156,-0.609375 -0.609375,-0.609375 -0.609375,-1.648438 0,-1.074219 0.578125,-1.703125 0.582031,-0.632812 1.566406,-0.632812 0.882813,0 1.394532,0.570312 0.515625,0.566406 0.515625,1.542969 z m -0.71875,-0.210938 q -0.0078,-0.589843 -0.332032,-0.941406 -0.320312,-0.351562 -0.851562,-0.351562 -0.601563,0 -0.964844,0.339843 -0.359375,0.339844 -0.414062,0.957032 z" />
    <path
       id="path575"
       style="font-size:8px;stroke-width:0.75;stroke-linecap:butt;stroke-linejoin:round"
       d="m -84.010406,65.757858 v 2.320313 h -0.722657 v -6.039063 h 0.722657 v 0.664063 q 0.226562,-0.390625 0.570312,-0.578125 0.347656,-0.191406 0.828125,-0.191406 0.796875,0 1.292969,0.632812 0.5,0.632813 0.5,1.664063 0,1.03125 -0.5,1.664062 -0.496094,0.632813 -1.292969,0.632813 -0.480469,0 -0.828125,-0.1875 -0.34375,-0.191407 -0.570312,-0.582032 z m 2.445312,-1.527343 q 0,-0.792969 -0.328125,-1.242188 -0.324219,-0.453125 -0.894531,-0.453125 -0.570313,0 -0.898438,0.453125 -0.324218,0.449219 -0.324218,1.242188 0,0.792968 0.324218,1.246093 0.328125,0.449219 0.898438,0.449219 0.570312,0 0.894531,-0.449219 0.328125,-0.453125 0.328125,-1.246093 z" />
    <path
       id="path577"
       style="font-size:8px;stroke-width:0.75;stroke-linecap:butt;stroke-linejoin:round"
       d="m -79.627594,62.039108 h 0.71875 v 4.375 h -0.71875 z m 0,-1.703125 h 0.71875 v 0.910157 h -0.71875 z" />
    <path
       id="path579"
       style="font-size:8px;stroke-width:0.75;stroke-linecap:butt;stroke-linejoin:round"
       d="m -74.619781,62.168015 v 0.679687 q -0.304688,-0.15625 -0.632813,-0.234375 -0.328125,-0.07813 -0.679687,-0.07813 -0.535157,0 -0.804688,0.164063 -0.265625,0.164062 -0.265625,0.492187 0,0.25 0.191406,0.394531 0.191407,0.140625 0.769532,0.269532 l 0.246093,0.05469 q 0.765625,0.164063 1.085938,0.464844 0.324219,0.296875 0.324219,0.832031 0,0.609375 -0.484375,0.964844 -0.480469,0.355469 -1.324219,0.355469 -0.351563,0 -0.734375,-0.07031 -0.378906,-0.06641 -0.800781,-0.203125 v -0.742187 q 0.398437,0.207031 0.785156,0.3125 0.386719,0.101562 0.765625,0.101562 0.507812,0 0.78125,-0.171875 0.273437,-0.175781 0.273437,-0.492187 0,-0.292969 -0.199218,-0.449219 -0.195313,-0.15625 -0.863282,-0.300781 l -0.25,-0.05859 q -0.667968,-0.140625 -0.964843,-0.429688 -0.296875,-0.292968 -0.296875,-0.800781 0,-0.617187 0.4375,-0.953125 0.4375,-0.335937 1.242187,-0.335937 0.398438,0 0.75,0.05859 0.351563,0.05859 0.648438,0.175782 z" />
    <path
       id="path581"
       style="font-size:8px;stroke-width:0.75;stroke-linecap:butt;stroke-linejoin:round"
       d="m -71.541656,62.543015 q -0.578125,0 -0.914063,0.453125 -0.335937,0.449218 -0.335937,1.234375 0,0.785156 0.332031,1.238281 0.335937,0.449219 0.917969,0.449219 0.574218,0 0.910156,-0.453125 0.335937,-0.453125 0.335937,-1.234375 0,-0.777344 -0.335937,-1.230469 -0.335938,-0.457031 -0.910156,-0.457031 z m 0,-0.609375 q 0.9375,0 1.472656,0.609375 0.535156,0.609375 0.535156,1.6875 0,1.074218 -0.535156,1.6875 -0.535156,0.609375 -1.472656,0.609375 -0.941407,0 -1.476563,-0.609375 -0.53125,-0.613282 -0.53125,-1.6875 0,-1.078125 0.53125,-1.6875 0.535156,-0.609375 1.476563,-0.609375 z" />
    <path
       id="path583"
       style="font-size:8px;stroke-width:0.75;stroke-linecap:butt;stroke-linejoin:round"
       d="m -65.467438,62.703171 v -2.367188 h 0.71875 v 6.078125 h -0.71875 v -0.65625 q -0.226562,0.390625 -0.574218,0.582032 -0.34375,0.1875 -0.828125,0.1875 -0.792969,0 -1.292969,-0.632813 -0.496094,-0.632812 -0.496094,-1.664062 0,-1.03125 0.496094,-1.664063 0.5,-0.632812 1.292969,-0.632812 0.484375,0 0.828125,0.191406 0.347656,0.1875 0.574218,0.578125 z m -2.449218,1.527344 q 0,0.792968 0.324218,1.246093 0.328125,0.449219 0.898438,0.449219 0.570312,0 0.898437,-0.449219 0.328125,-0.453125 0.328125,-1.246093 0,-0.792969 -0.328125,-1.242188 -0.328125,-0.453125 -0.898437,-0.453125 -0.570313,0 -0.898438,0.453125 -0.324218,0.449219 -0.324218,1.242188 z" />
    <path
       id="path585"
       style="font-size:8px;stroke-width:0.75;stroke-linecap:butt;stroke-linejoin:round"
       d="m -59.526031,64.046921 v 0.351562 h -3.304688 q 0.04687,0.742188 0.445313,1.132813 0.402343,0.386719 1.117187,0.386719 0.414063,0 0.800781,-0.101563 0.390625,-0.101562 0.773438,-0.304687 v 0.679687 q -0.386719,0.164063 -0.792969,0.25 -0.40625,0.08594 -0.824219,0.08594 -1.046875,0 -1.660156,-0.609375 -0.609375,-0.609375 -0.609375,-1.648438 0,-1.074219 0.578125,-1.703125 0.582031,-0.632812 1.566406,-0.632812 0.882813,0 1.394532,0.570312 0.515625,0.566406 0.515625,1.542969 z m -0.71875,-0.210938 q -0.0078,-0.589843 -0.332032,-0.941406 -0.320312,-0.351562 -0.851562,-0.351562 -0.601563,0 -0.964844,0.339843 -0.359375,0.339844 -0.414062,0.957032 z" />
    <path
       id="path587"
       style="font-size:8px;stroke-width:0.75;stroke-linecap:butt;stroke-linejoin:round"
       d="m -55.557281,62.168015 v 0.679687 q -0.304688,-0.15625 -0.632813,-0.234375 -0.328125,-0.07813 -0.679687,-0.07813 -0.535157,0 -0.804688,0.164063 -0.265625,0.164062 -0.265625,0.492187 0,0.25 0.191406,0.394531 0.191407,0.140625 0.769532,0.269532 l 0.246093,0.05469 q 0.765625,0.164063 1.085938,0.464844 0.324219,0.296875 0.324219,0.832031 0,0.609375 -0.484375,0.964844 -0.480469,0.355469 -1.324219,0.355469 -0.351563,0 -0.734375,-0.07031 -0.378906,-0.06641 -0.800781,-0.203125 v -0.742187 q 0.398437,0.207031 0.785156,0.3125 0.386719,0.101562 0.765625,0.101562 0.507812,0 0.78125,-0.171875 0.273437,-0.175781 0.273437,-0.492187 0,-0.292969 -0.199218,-0.449219 -0.195313,-0.15625 -0.863282,-0.300781 l -0.25,-0.05859 q -0.667968,-0.140625 -0.964843,-0.429688 -0.296875,-0.292968 -0.296875,-0.800781 0,-0.617187 0.4375,-0.953125 0.4375,-0.335937 1.242187,-0.335937 0.398438,0 0.75,0.05859 0.351563,0.05859 0.648438,0.175782 z" />
  </g>
</svg>
