<?xml version="1.0" encoding="UTF-8" standalone="no"?>
<svg
   xmlns:dc="http://purl.org/dc/elements/1.1/"
   xmlns:cc="http://creativecommons.org/ns#"
   xmlns:rdf="http://www.w3.org/1999/02/22-rdf-syntax-ns#"
   xmlns:svg="http://www.w3.org/2000/svg"
   xmlns="http://www.w3.org/2000/svg"
   xmlns:sodipodi="http://sodipodi.sourceforge.net/DTD/sodipodi-0.dtd"
   xmlns:inkscape="http://www.inkscape.org/namespaces/inkscape"
   inkscape:version="1.0 (1.0+r73+1)"
   sodipodi:docname="nightdriving.svg"
   id="svg328"
   width="345.60001pt"
   viewBox="0 0 345.60002 460.79998"
   version="1.1"
   height="460.79999pt">
  <metadata
     id="metadata332">
    <rdf:RDF>
      <cc:Work
         rdf:about="">
        <dc:format>image/svg+xml</dc:format>
        <dc:type
           rdf:resource="http://purl.org/dc/dcmitype/StillImage" />
        <dc:title></dc:title>
      </cc:Work>
    </rdf:RDF>
  </metadata>
  <sodipodi:namedview
     inkscape:current-layer="svg328"
     inkscape:window-maximized="1"
     inkscape:window-y="0"
     inkscape:window-x="0"
     inkscape:cy="260.32368"
     inkscape:cx="159.00668"
     inkscape:zoom="0.9099703"
     showgrid="false"
     id="namedview330"
     inkscape:window-height="850"
     inkscape:window-width="1600"
     inkscape:pageshadow="2"
     inkscape:pageopacity="0"
     guidetolerance="10"
     gridtolerance="10"
     objecttolerance="10"
     borderopacity="1"
     bordercolor="#666666"
     pagecolor="#ffffff" />
  <defs
     id="defs4">
    <style
       id="style2"
       type="text/css">
*{stroke-linecap:butt;stroke-linejoin:round;}
  </style>
  </defs>
  <defs
     id="defs326">
    <clipPath
       id="pe78fd1416e">
      <rect
         id="rect323"
         y="86.400002"
         x="50.688"
         width="179.71201"
         height="221.18401" />
    </clipPath>
  </defs>
  <g
     transform="matrix(0.66284331,0,0,0.66284331,48.40866,1.7321811)"
     id="g1297">
    <g
       id="patch_2">
      <path
         d="M 50.688,307.584 H 230.4 V 86.4 H 50.688 Z"
         style="fill:#ffffff"
         id="path9" />
    </g>
    <g
       id="patch_3"
       transform="matrix(0.74291867,0,0,1,36.131236,0)">
      <path
         clip-path="url(#pe78fd1416e)"
         d="M 58.856727,307.584 H 140.544 V 219.1104 H 58.856727 Z"
         style="fill:#646567"
         id="path12" />
    </g>
    <g
       id="patch_4"
       transform="matrix(0.7429187,0,0,1,36.131234,0)">
      <path
         clip-path="url(#pe78fd1416e)"
         d="m 140.544,307.584 h 81.68727 V 174.8736 H 140.544 Z"
         style="fill:#d85c41"
         id="path15" />
    </g>
    <g
       id="matplotlib.axis_1">
      <g
         id="xtick_1">
        <g
           id="line2d_1">
          <defs
             id="defs19">
            <path
               d="M 0,0 V 3.5"
               id="m17f51860b2"
               style="stroke:#000000;stroke-width:0.8" />
          </defs>
          <g
             id="g23">
            <path
               style="stroke:#000000;stroke-width:0.8"
               id="use21"
               d="m 140.54401,307.58401 v 3.5" />
          </g>
        </g>
      </g>
      <g
         id="text_1">
        <!-- Dataset 3 -->
        <defs
           id="defs34">
          <path
             d="M 19.671875,64.796875 V 8.109375 H 31.59375 q 15.09375,0 22.09375,6.828125 7,6.84375 7,21.59375 0,14.640625 -7,21.453125 -7,6.8125 -22.09375,6.8125 z M 9.8125,72.90625 h 20.265625 q 21.1875,0 31.09375,-8.8125 9.921875,-8.8125 9.921875,-27.5625 0,-18.859375 -9.96875,-27.703125 Q 51.171875,0 30.078125,0 H 9.8125 Z"
             id="DejaVuSans-68" />
          <path
             d="m 34.28125,27.484375 q -10.890625,0 -15.09375,-2.484375 -4.203125,-2.484375 -4.203125,-8.5 0,-4.78125 3.15625,-7.59375 3.15625,-2.796875 8.5625,-2.796875 7.484375,0 12,5.296875 4.515625,5.296875 4.515625,14.078125 v 2 z m 17.921875,3.71875 V 0 H 43.21875 v 8.296875 q -3.078125,-4.96875 -7.671875,-7.34375 -4.59375,-2.375 -11.234375,-2.375 -8.390625,0 -13.359375,4.71875 Q 6,8.015625 6,15.921875 q 0,9.21875 6.171875,13.90625 6.1875,4.6875 18.4375,4.6875 H 43.21875 v 0.890625 q 0,6.203125 -4.078125,9.59375 -4.078125,3.390625 -11.453125,3.390625 -4.6875,0 -9.140625,-1.125 -4.4375,-1.125 -8.53125,-3.375 v 8.3125 q 4.921875,1.90625 9.5625,2.84375 Q 24.21875,56 28.609375,56 q 11.875,0 17.734375,-6.15625 5.859375,-6.140625 5.859375,-18.640625 z"
             id="DejaVuSans-97" />
          <path
             d="M 18.3125,70.21875 V 54.6875 h 18.5 v -6.984375 h -18.5 v -29.6875 q 0,-6.6875 1.828125,-8.59375 1.828125,-1.90625 7.453125,-1.90625 H 36.8125 V 0 H 27.59375 Q 17.1875,0 13.234375,3.875 9.28125,7.765625 9.28125,18.015625 v 29.6875 H 2.6875 V 54.6875 h 6.59375 v 15.53125 z"
             id="DejaVuSans-116" />
          <path
             d="m 44.28125,53.078125 v -8.5 Q 40.484375,46.53125 36.375,47.5 q -4.09375,0.984375 -8.5,0.984375 -6.6875,0 -10.03125,-2.046875 Q 14.5,44.390625 14.5,40.28125 q 0,-3.125 2.390625,-4.90625 2.390625,-1.78125 9.625,-3.390625 l 3.078125,-0.6875 Q 39.15625,29.25 43.1875,25.515625 47.21875,21.78125 47.21875,15.09375 q 0,-7.625 -6.03125,-12.078125 -6.03125,-4.4375 -16.578125,-4.4375 -4.390625,0 -9.15625,0.859375 Q 10.6875,0.296875 5.421875,2 v 9.28125 q 4.984375,-2.59375 9.8125,-3.890625 4.828125,-1.28125 9.578125,-1.28125 6.34375,0 9.75,2.171875 3.421875,2.171875 3.421875,6.125 0,3.65625 -2.46875,5.609375 -2.453125,1.953125 -10.8125,3.765625 l -3.125,0.734375 q -8.34375,1.75 -12.0625,5.390625 -3.703125,3.640625 -3.703125,9.984375 0,7.71875 5.46875,11.90625 Q 16.75,56 26.8125,56 q 4.96875,0 9.359375,-0.734375 4.40625,-0.71875 8.109375,-2.1875 z"
             id="DejaVuSans-115" />
          <path
             d="m 56.203125,29.59375 v -4.390625 h -41.3125 q 0.59375,-9.28125 5.59375,-14.140625 5,-4.859375 13.9375,-4.859375 5.171875,0 10.03125,1.265625 4.859375,1.265625 9.65625,3.8125 v -8.5 q -4.84375,-2.046875 -9.921875,-3.125 -5.078125,-1.078125 -10.296875,-1.078125 -13.09375,0 -20.734375,7.609375 -7.640625,7.625 -7.640625,20.625 0,13.421875 7.25,21.296875 Q 20.015625,56 32.328125,56 q 11.03125,0 17.453125,-7.109375 6.421875,-7.09375 6.421875,-19.296875 z m -8.984375,2.640625 q -0.09375,7.359375 -4.125,11.75 -4.03125,4.40625 -10.671875,4.40625 -7.515625,0 -12.03125,-4.25 -4.515625,-4.25 -5.203125,-11.96875 z"
             id="DejaVuSans-101" />
          <path
             id="DejaVuSans-32"
             d="" />
          <path
             d="M 40.578125,39.3125 Q 47.65625,37.796875 51.625,33 q 3.984375,-4.78125 3.984375,-11.8125 0,-10.78125 -7.421875,-16.703125 -7.421875,-5.90625 -21.09375,-5.90625 -4.578125,0 -9.4375,0.90625 -4.859375,0.90625 -10.03125,2.71875 v 9.515625 q 4.09375,-2.390625 8.96875,-3.609375 4.890625,-1.21875 10.21875,-1.21875 9.265625,0 14.125,3.65625 4.859375,3.65625 4.859375,10.640625 0,6.453125 -4.515625,10.078125 -4.515625,3.640625 -12.5625,3.640625 h -8.5 v 8.109375 h 8.890625 q 7.265625,0 11.125,2.90625 3.859375,2.90625 3.859375,8.375 0,5.609375 -3.984375,8.609375 -3.96875,3.015625 -11.390625,3.015625 -4.0625,0 -8.703125,-0.890625 Q 15.375,64.15625 9.8125,62.3125 v 8.78125 q 5.625,1.5625 10.53125,2.34375 4.90625,0.78125 9.25,0.78125 11.234375,0 17.765625,-5.109375 6.546875,-5.09375 6.546875,-13.78125 0,-6.0625 -3.46875,-10.234375 -3.46875,-4.171875 -9.859375,-5.78125 z"
             id="DejaVuSans-51" />
        </defs>
        <g
           transform="matrix(0.1,0,0,-0.1,116.194,326.18244)"
           id="g54">
          <path
             id="use36"
             d="M 19.671875,64.796875 V 8.109375 H 31.59375 q 15.09375,0 22.09375,6.828125 7,6.84375 7,21.59375 0,14.640625 -7,21.453125 -7,6.8125 -22.09375,6.8125 z M 9.8125,72.90625 h 20.265625 q 21.1875,0 31.09375,-8.8125 9.921875,-8.8125 9.921875,-27.5625 0,-18.859375 -9.96875,-27.703125 Q 51.171875,0 30.078125,0 H 9.8125 Z" />
          <path
             id="use38"
             d="m 111.2832,27.484375 q -10.89062,0 -15.093747,-2.484375 -4.203125,-2.484375 -4.203125,-8.5 0,-4.78125 3.15625,-7.59375 3.15625,-2.796875 8.562502,-2.796875 7.48437,0 12,5.296875 4.51562,5.296875 4.51562,14.078125 v 2 z m 17.92188,3.71875 V 0 h -8.98438 v 8.296875 q -3.07812,-4.96875 -7.67187,-7.34375 -4.59375,-2.375 -11.23438,-2.375 -8.390622,0 -13.359372,4.71875 -4.953125,4.71875 -4.953125,12.625 0,9.21875 6.171875,13.90625 6.1875,4.6875 18.437502,4.6875 h 12.60937 v 0.890625 q 0,6.203125 -4.07812,9.59375 -4.07813,3.390625 -11.45313,3.390625 -4.6875,0 -9.140622,-1.125 -4.4375,-1.125 -8.53125,-3.375 v 8.3125 q 4.921875,1.90625 9.5625,2.84375 Q 101.2207,56 105.61133,56 q 11.875,0 17.73437,-6.15625 5.85938,-6.140625 5.85938,-18.640625 z" />
          <path
             id="use40"
             d="M 156.59375,70.21875 V 54.6875 h 18.5 v -6.984375 h -18.5 v -29.6875 q 0,-6.6875 1.82812,-8.59375 1.82813,-1.90625 7.45313,-1.90625 h 9.21875 V 0 H 165.875 q -10.40625,0 -14.35938,3.875 -3.95312,3.890625 -3.95312,14.140625 v 29.6875 h -6.59375 V 54.6875 h 6.59375 v 15.53125 z" />
          <path
             id="use42"
             d="m 211.77148,27.484375 q -10.89062,0 -15.09375,-2.484375 -4.20312,-2.484375 -4.20312,-8.5 0,-4.78125 3.15625,-7.59375 3.15625,-2.796875 8.5625,-2.796875 7.48437,0 12,5.296875 4.51562,5.296875 4.51562,14.078125 v 2 z m 17.92188,3.71875 V 0 h -8.98438 v 8.296875 q -3.07812,-4.96875 -7.67187,-7.34375 -4.59375,-2.375 -11.23438,-2.375 -8.39062,0 -13.35937,4.71875 -4.95313,4.71875 -4.95313,12.625 0,9.21875 6.17188,13.90625 6.1875,4.6875 18.4375,4.6875 h 12.60937 v 0.890625 q 0,6.203125 -4.07812,9.59375 -4.07813,3.390625 -11.45313,3.390625 -4.6875,0 -9.14062,-1.125 -4.4375,-1.125 -8.53125,-3.375 v 8.3125 q 4.92187,1.90625 9.5625,2.84375 Q 201.70898,56 206.09961,56 q 11.875,0 17.73437,-6.15625 5.85938,-6.140625 5.85938,-18.640625 z" />
          <path
             id="use44"
             d="m 283.05078,53.078125 v -8.5 q -3.79687,1.953125 -7.90625,2.921875 -4.09375,0.984375 -8.5,0.984375 -6.6875,0 -10.03125,-2.046875 -3.34375,-2.046875 -3.34375,-6.15625 0,-3.125 2.39063,-4.90625 2.39062,-1.78125 9.625,-3.390625 l 3.07812,-0.6875 q 9.5625,-2.046875 13.59375,-5.78125 4.03125,-3.734375 4.03125,-10.421875 0,-7.625 -6.03125,-12.078125 -6.03125,-4.4375 -16.57812,-4.4375 -4.39063,0 -9.15625,0.859375 Q 249.45703,0.296875 244.19141,2 v 9.28125 q 4.98437,-2.59375 9.8125,-3.890625 4.82812,-1.28125 9.57812,-1.28125 6.34375,0 9.75,2.171875 3.42188,2.171875 3.42188,6.125 0,3.65625 -2.46875,5.609375 -2.45313,1.953125 -10.8125,3.765625 l -3.125,0.734375 q -8.34375,1.75 -12.0625,5.390625 -3.70313,3.640625 -3.70313,9.984375 0,7.71875 5.46875,11.90625 Q 255.51953,56 265.58203,56 q 4.96875,0 9.35938,-0.734375 4.40625,-0.71875 8.10937,-2.1875 z" />
          <path
             id="use46"
             d="m 347.07227,29.59375 v -4.390625 h -41.3125 q 0.59375,-9.28125 5.59375,-14.140625 5,-4.859375 13.9375,-4.859375 5.17187,0 10.03125,1.265625 4.85937,1.265625 9.65625,3.8125 v -8.5 q -4.84375,-2.046875 -9.92188,-3.125 -5.07812,-1.078125 -10.29687,-1.078125 -13.09375,0 -20.73438,7.609375 -7.64062,7.625 -7.64062,20.625 0,13.421875 7.25,21.296875 Q 310.88477,56 323.19727,56 q 11.03125,0 17.45312,-7.109375 6.42188,-7.09375 6.42188,-19.296875 z m -8.98438,2.640625 q -0.0937,7.359375 -4.125,11.75 -4.03125,4.40625 -10.67187,4.40625 -7.51563,0 -12.03125,-4.25 -4.51563,-4.25 -5.20313,-11.96875 z" />
          <path
             id="use48"
             d="M 370.70508,70.21875 V 54.6875 h 18.5 v -6.984375 h -18.5 v -29.6875 q 0,-6.6875 1.82812,-8.59375 1.82813,-1.90625 7.45313,-1.90625 h 9.21875 V 0 h -9.21875 q -10.40625,0 -14.35938,3.875 -3.95312,3.890625 -3.95312,14.140625 v 29.6875 h -6.59375 V 54.6875 h 6.59375 v 15.53125 z" />
          <path
             d=""
             id="use50" />
          <path
             id="use52"
             d="m 463.9668,39.3125 q 7.07812,-1.515625 11.04687,-6.3125 3.98438,-4.78125 3.98438,-11.8125 0,-10.78125 -7.42188,-16.703125 -7.42187,-5.90625 -21.09375,-5.90625 -4.57812,0 -9.4375,0.90625 -4.85937,0.90625 -10.03125,2.71875 v 9.515625 q 4.09375,-2.390625 8.96875,-3.609375 4.89063,-1.21875 10.21875,-1.21875 9.26563,0 14.125,3.65625 4.85938,3.65625 4.85938,10.640625 0,6.453125 -4.51563,10.078125 -4.51562,3.640625 -12.5625,3.640625 h -8.5 v 8.109375 h 8.89063 q 7.26562,0 11.125,2.90625 3.85937,2.90625 3.85937,8.375 0,5.609375 -3.98437,8.609375 -3.96875,3.015625 -11.39063,3.015625 -4.0625,0 -8.70312,-0.890625 -4.64063,-0.875 -10.20313,-2.71875 v 8.78125 q 5.625,1.5625 10.53125,2.34375 4.90625,0.78125 9.25,0.78125 11.23438,0 17.76563,-5.109375 6.54687,-5.09375 6.54687,-13.78125 0,-6.0625 -3.46875,-10.234375 -3.46875,-4.171875 -9.85937,-5.78125 z" />
        </g>
      </g>
    </g>
    <g
       id="matplotlib.axis_2">
      <g
         id="ytick_1">
        <g
           id="line2d_2">
          <defs
             id="defs59">
            <path
               d="M 0,0 H -3.5"
               id="mca64dabfdb"
               style="stroke:#000000;stroke-width:0.8" />
          </defs>
          <g
             id="g63">
            <path
               style="stroke:#000000;stroke-width:0.8"
               id="use61"
               d="m 50.688,307.58401 h -3.5" />
          </g>
        </g>
        <g
           id="text_2">
          <!-- 0 -->
          <defs
             id="defs67">
            <path
               d="m 31.78125,66.40625 q -7.609375,0 -11.453125,-7.5 Q 16.5,51.421875 16.5,36.375 q 0,-14.984375 3.828125,-22.484375 3.84375,-7.5 11.453125,-7.5 7.671875,0 11.5,7.5 3.84375,7.5 3.84375,22.484375 0,15.046875 -3.84375,22.53125 -3.828125,7.5 -11.5,7.5 z m 0,7.8125 q 12.265625,0 18.734375,-9.703125 6.46875,-9.6875 6.46875,-28.140625 0,-18.40625 -6.46875,-28.109375 -6.46875,-9.6875 -18.734375,-9.6875 -12.25,0 -18.71875,9.6875 Q 6.59375,17.96875 6.59375,36.375 q 0,18.453125 6.46875,28.140625 6.46875,9.703125 18.71875,9.703125 z"
               id="DejaVuSans-48" />
          </defs>
          <g
             transform="matrix(0.1,0,0,-0.1,37.3255,311.38322)"
             id="g71">
            <path
               id="use69"
               d="m 31.78125,66.40625 q -7.609375,0 -11.453125,-7.5 Q 16.5,51.421875 16.5,36.375 q 0,-14.984375 3.828125,-22.484375 3.84375,-7.5 11.453125,-7.5 7.671875,0 11.5,7.5 3.84375,7.5 3.84375,22.484375 0,15.046875 -3.84375,22.53125 -3.828125,7.5 -11.5,7.5 z m 0,7.8125 q 12.265625,0 18.734375,-9.703125 6.46875,-9.6875 6.46875,-28.140625 0,-18.40625 -6.46875,-28.109375 -6.46875,-9.6875 -18.734375,-9.6875 -12.25,0 -18.71875,9.6875 Q 6.59375,17.96875 6.59375,36.375 q 0,18.453125 6.46875,28.140625 6.46875,9.703125 18.71875,9.703125 z" />
          </g>
        </g>
      </g>
      <g
         id="ytick_2">
        <g
           id="line2d_3">
          <g
             id="g77">
            <path
               style="stroke:#000000;stroke-width:0.8"
               id="use75"
               d="m 50.688,263.3472 h -3.5" />
          </g>
        </g>
        <g
           id="text_3">
          <!-- 1 -->
          <defs
             id="defs81">
            <path
               d="m 12.40625,8.296875 h 16.109375 v 55.625 L 10.984375,60.40625 v 8.984375 l 17.4375,3.515625 H 38.28125 V 8.296875 H 54.390625 V 0 H 12.40625 Z"
               id="DejaVuSans-49" />
          </defs>
          <g
             transform="matrix(0.1,0,0,-0.1,37.3255,267.14642)"
             id="g85">
            <path
               id="use83"
               d="m 12.40625,8.296875 h 16.109375 v 55.625 L 10.984375,60.40625 v 8.984375 l 17.4375,3.515625 H 38.28125 V 8.296875 H 54.390625 V 0 H 12.40625 Z" />
          </g>
        </g>
      </g>
      <g
         id="ytick_3">
        <g
           id="line2d_4">
          <g
             id="g91">
            <path
               style="stroke:#000000;stroke-width:0.8"
               id="use89"
               d="m 50.688,219.1104 h -3.5" />
          </g>
        </g>
        <g
           id="text_4">
          <!-- 2 -->
          <defs
             id="defs95">
            <path
               d="M 19.1875,8.296875 H 53.609375 V 0 H 7.328125 v 8.296875 q 5.609375,5.8125 15.296875,15.59375 9.703125,9.796875 12.1875,12.640625 4.734375,5.3125 6.609375,9 1.890625,3.6875 1.890625,7.25 0,5.8125 -4.078125,9.46875 -4.078125,3.671875 -10.625,3.671875 -4.640625,0 -9.796875,-1.609375 -5.140625,-1.609375 -11,-4.890625 v 9.96875 Q 13.765625,71.78125 18.9375,73 q 5.1875,1.21875 9.484375,1.21875 11.328125,0 18.0625,-5.671875 6.734375,-5.65625 6.734375,-15.125 0,-4.5 -1.6875,-8.53125 Q 49.859375,40.875 45.40625,35.40625 44.1875,33.984375 37.640625,27.21875 31.109375,20.453125 19.1875,8.296875 Z"
               id="DejaVuSans-50" />
          </defs>
          <g
             transform="matrix(0.1,0,0,-0.1,37.3255,222.90962)"
             id="g99">
            <path
               id="use97"
               d="M 19.1875,8.296875 H 53.609375 V 0 H 7.328125 v 8.296875 q 5.609375,5.8125 15.296875,15.59375 9.703125,9.796875 12.1875,12.640625 4.734375,5.3125 6.609375,9 1.890625,3.6875 1.890625,7.25 0,5.8125 -4.078125,9.46875 -4.078125,3.671875 -10.625,3.671875 -4.640625,0 -9.796875,-1.609375 -5.140625,-1.609375 -11,-4.890625 v 9.96875 Q 13.765625,71.78125 18.9375,73 q 5.1875,1.21875 9.484375,1.21875 11.328125,0 18.0625,-5.671875 6.734375,-5.65625 6.734375,-15.125 0,-4.5 -1.6875,-8.53125 Q 49.859375,40.875 45.40625,35.40625 44.1875,33.984375 37.640625,27.21875 31.109375,20.453125 19.1875,8.296875 Z" />
          </g>
        </g>
      </g>
      <g
         id="ytick_4">
        <g
           id="line2d_5">
          <g
             id="g105">
            <path
               style="stroke:#000000;stroke-width:0.8"
               id="use103"
               d="m 50.688,174.8736 h -3.5" />
          </g>
        </g>
        <g
           id="text_5">
          <!-- 3 -->
          <g
             transform="matrix(0.1,0,0,-0.1,37.3255,178.67282)"
             id="g110">
            <path
               id="use108"
               d="M 40.578125,39.3125 Q 47.65625,37.796875 51.625,33 q 3.984375,-4.78125 3.984375,-11.8125 0,-10.78125 -7.421875,-16.703125 -7.421875,-5.90625 -21.09375,-5.90625 -4.578125,0 -9.4375,0.90625 -4.859375,0.90625 -10.03125,2.71875 v 9.515625 q 4.09375,-2.390625 8.96875,-3.609375 4.890625,-1.21875 10.21875,-1.21875 9.265625,0 14.125,3.65625 4.859375,3.65625 4.859375,10.640625 0,6.453125 -4.515625,10.078125 -4.515625,3.640625 -12.5625,3.640625 h -8.5 v 8.109375 h 8.890625 q 7.265625,0 11.125,2.90625 3.859375,2.90625 3.859375,8.375 0,5.609375 -3.984375,8.609375 -3.96875,3.015625 -11.390625,3.015625 -4.0625,0 -8.703125,-0.890625 Q 15.375,64.15625 9.8125,62.3125 v 8.78125 q 5.625,1.5625 10.53125,2.34375 4.90625,0.78125 9.25,0.78125 11.234375,0 17.765625,-5.109375 6.546875,-5.09375 6.546875,-13.78125 0,-6.0625 -3.46875,-10.234375 -3.46875,-4.171875 -9.859375,-5.78125 z" />
          </g>
        </g>
      </g>
      <g
         id="ytick_5">
        <g
           id="line2d_6">
          <g
             id="g116">
            <path
               style="stroke:#000000;stroke-width:0.8"
               id="use114"
               d="m 50.688,130.6368 h -3.5" />
          </g>
        </g>
        <g
           id="text_6">
          <!-- 4 -->
          <defs
             id="defs120">
            <path
               d="M 37.796875,64.3125 12.890625,25.390625 h 24.90625 z m -2.59375,8.59375 h 12.40625 V 25.390625 h 10.40625 V 17.1875 H 47.609375 V 0 h -9.8125 V 17.1875 H 4.890625 v 9.515625 z"
               id="DejaVuSans-52" />
          </defs>
          <g
             transform="matrix(0.1,0,0,-0.1,37.3255,134.43602)"
             id="g124">
            <path
               id="use122"
               d="M 37.796875,64.3125 12.890625,25.390625 h 24.90625 z m -2.59375,8.59375 h 12.40625 V 25.390625 h 10.40625 V 17.1875 H 47.609375 V 0 h -9.8125 V 17.1875 H 4.890625 v 9.515625 z" />
          </g>
        </g>
      </g>
      <g
         id="ytick_6">
        <g
           id="line2d_7">
          <g
             id="g130">
            <path
               style="stroke:#000000;stroke-width:0.8"
               id="use128"
               d="m 50.688,86.400002 h -3.5" />
          </g>
        </g>
        <g
           id="text_7">
          <!-- 5 -->
          <defs
             id="defs134">
            <path
               d="m 10.796875,72.90625 h 38.71875 v -8.3125 h -29.6875 V 46.734375 q 2.140625,0.734375 4.28125,1.09375 2.15625,0.359375 4.3125,0.359375 Q 40.625,48.1875 47.75,41.5 54.890625,34.8125 54.890625,23.390625 54.890625,11.625 47.5625,5.09375 40.234375,-1.421875 26.90625,-1.421875 q -4.59375,0 -9.359375,0.78125 -4.75,0.78125 -9.828125,2.34375 V 11.625 q 4.390625,-2.390625 9.078125,-3.5625 4.6875,-1.171875 9.90625,-1.171875 8.453125,0 13.375,4.4375 4.9375,4.4375 4.9375,12.0625 0,7.609375 -4.9375,12.046875 -4.921875,4.453125 -13.375,4.453125 -3.953125,0 -7.890625,-0.875 -3.921875,-0.875 -8.015625,-2.734375 z"
               id="DejaVuSans-53" />
          </defs>
          <g
             transform="matrix(0.1,0,0,-0.1,37.3255,90.199219)"
             id="g138">
            <path
               id="use136"
               d="m 10.796875,72.90625 h 38.71875 v -8.3125 h -29.6875 V 46.734375 q 2.140625,0.734375 4.28125,1.09375 2.15625,0.359375 4.3125,0.359375 Q 40.625,48.1875 47.75,41.5 54.890625,34.8125 54.890625,23.390625 54.890625,11.625 47.5625,5.09375 40.234375,-1.421875 26.90625,-1.421875 q -4.59375,0 -9.359375,0.78125 -4.75,0.78125 -9.828125,2.34375 V 11.625 q 4.390625,-2.390625 9.078125,-3.5625 4.6875,-1.171875 9.90625,-1.171875 8.453125,0 13.375,4.4375 4.9375,4.4375 4.9375,12.0625 0,7.609375 -4.9375,12.046875 -4.921875,4.453125 -13.375,4.453125 -3.953125,0 -7.890625,-0.875 -3.921875,-0.875 -8.015625,-2.734375 z" />
          </g>
        </g>
      </g>
      <g
         id="text_8">
        <!-- Number of Collisions per 30s episode -->
        <defs
           id="defs155">
          <path
             d="M 9.8125,72.90625 H 23.09375 L 55.421875,11.921875 V 72.90625 h 9.5625 V 0 h -13.28125 l -32.3125,60.984375 V 0 H 9.8125 Z"
             id="DejaVuSans-78" />
          <path
             d="M 8.5,21.578125 V 54.6875 h 8.984375 V 21.921875 q 0,-7.765625 3.015625,-11.65625 3.03125,-3.875 9.09375,-3.875 7.265625,0 11.484375,4.640625 4.234375,4.640625 4.234375,12.65625 v 31 h 8.984375 V 0 H 45.3125 V 8.40625 Q 42.046875,3.421875 37.71875,1 33.40625,-1.421875 27.6875,-1.421875 18.265625,-1.421875 13.375,4.4375 8.5,10.296875 8.5,21.578125 Z M 31.109375,56 Z"
             id="DejaVuSans-117" />
          <path
             d="M 52,44.1875 Q 55.375,50.25 60.0625,53.125 64.75,56 71.09375,56 q 8.546875,0 13.1875,-5.984375 4.640625,-5.96875 4.640625,-17 V 0 h -9.03125 v 32.71875 q 0,7.859375 -2.796875,11.65625 -2.78125,3.8125 -8.484375,3.8125 -6.984375,0 -11.046875,-4.640625 -4.046875,-4.625 -4.046875,-12.640625 V 0 h -9.03125 v 32.71875 q 0,7.90625 -2.78125,11.6875 -2.78125,3.78125 -8.59375,3.78125 -6.890625,0 -10.953125,-4.65625 -4.046875,-4.65625 -4.046875,-12.625 V 0 h -9.03125 v 54.6875 h 9.03125 v -8.5 q 3.078125,5.03125 7.375,7.421875 Q 29.78125,56 35.6875,56 41.65625,56 45.828125,52.96875 50,49.953125 52,44.1875 Z"
             id="DejaVuSans-109" />
          <path
             d="m 48.6875,27.296875 q 0,9.90625 -4.078125,15.546875 -4.078125,5.640625 -11.203125,5.640625 -7.140625,0 -11.21875,-5.640625 -4.078125,-5.640625 -4.078125,-15.546875 0,-9.90625 4.078125,-15.546875 4.078125,-5.640625 11.21875,-5.640625 7.125,0 11.203125,5.640625 4.078125,5.640625 4.078125,15.546875 z m -30.578125,19.09375 q 2.84375,4.875 7.15625,7.234375 Q 29.59375,56 35.59375,56 q 9.96875,0 16.1875,-7.90625 6.234375,-7.90625 6.234375,-20.796875 0,-12.890625 -6.234375,-20.8125 -6.21875,-7.90625 -16.1875,-7.90625 -6,0 -10.328125,2.375 -4.3125,2.375 -7.15625,7.25 V 0 h -9.03125 v 75.984375 h 9.03125 z"
             id="DejaVuSans-98" />
          <path
             d="m 41.109375,46.296875 q -1.515625,0.875 -3.296875,1.28125 Q 36.03125,48 33.890625,48 26.265625,48 22.1875,43.046875 18.109375,38.09375 18.109375,28.8125 V 0 h -9.03125 v 54.6875 h 9.03125 v -8.5 q 2.84375,4.984375 7.375,7.390625 Q 30.03125,56 36.53125,56 q 0.921875,0 2.046875,-0.125 1.125,-0.109375 2.484375,-0.359375 z"
             id="DejaVuSans-114" />
          <path
             d="m 30.609375,48.390625 q -7.21875,0 -11.421875,-5.640625 -4.203125,-5.640625 -4.203125,-15.453125 0,-9.8125 4.171875,-15.453125 4.1875,-5.640625 11.453125,-5.640625 7.1875,0 11.375,5.65625 4.203125,5.671875 4.203125,15.4375 0,9.71875 -4.203125,15.40625 -4.1875,5.6875 -11.375,5.6875 z m 0,7.609375 q 11.71875,0 18.40625,-7.625 6.703125,-7.609375 6.703125,-21.078125 0,-13.421875 -6.703125,-21.078125 -6.6875,-7.640625 -18.40625,-7.640625 -11.765625,0 -18.4375,7.640625 -6.65625,7.65625 -6.65625,21.078125 0,13.46875 6.65625,21.078125 Q 18.84375,56 30.609375,56 Z"
             id="DejaVuSans-111" />
          <path
             d="M 37.109375,75.984375 V 68.5 h -8.59375 q -4.828125,0 -6.71875,-1.953125 -1.875,-1.953125 -1.875,-7.03125 V 54.6875 H 34.71875 V 47.703125 H 19.921875 V 0 h -9.03125 V 47.703125 H 2.296875 V 54.6875 h 8.59375 V 58.5 q 0,9.125 4.25,13.296875 4.25,4.1875 13.46875,4.1875 z"
             id="DejaVuSans-102" />
          <path
             d="M 64.40625,67.28125 V 56.890625 q -4.984375,4.640625 -10.625,6.921875 -5.640625,2.296875 -11.984375,2.296875 -12.5,0 -19.140625,-7.640625 -6.640625,-7.640625 -6.640625,-22.09375 0,-14.40625 6.640625,-22.046875 Q 29.296875,6.6875 41.796875,6.6875 q 6.34375,0 11.984375,2.296875 5.640625,2.296875 10.625,6.9375 V 5.609375 Q 59.234375,2.09375 53.4375,0.328125 q -5.78125,-1.75 -12.21875,-1.75 -16.5625,0 -26.09375,10.125 Q 5.609375,18.84375 5.609375,36.375 q 0,17.578125 9.515625,27.703125 9.53125,10.140625 26.09375,10.140625 6.53125,0 12.3125,-1.734375 5.796875,-1.734375 10.875,-5.203125 z"
             id="DejaVuSans-67" />
          <path
             d="M 9.421875,75.984375 H 18.40625 V 0 H 9.421875 Z"
             id="DejaVuSans-108" />
          <path
             d="M 9.421875,54.6875 H 18.40625 V 0 H 9.421875 Z m 0,21.296875 H 18.40625 V 64.59375 H 9.421875 Z"
             id="DejaVuSans-105" />
          <path
             d="M 54.890625,33.015625 V 0 H 45.90625 v 32.71875 q 0,7.765625 -3.03125,11.609375 -3.03125,3.859375 -9.078125,3.859375 -7.28125,0 -11.484375,-4.640625 -4.203125,-4.625 -4.203125,-12.640625 V 0 h -9.03125 v 54.6875 h 9.03125 v -8.5 q 3.234375,4.9375 7.59375,7.375 4.375,2.4375 10.09375,2.4375 9.421875,0 14.25,-5.828125 4.84375,-5.828125 4.84375,-17.15625 z"
             id="DejaVuSans-110" />
          <path
             d="m 18.109375,8.203125 v -29 H 9.078125 V 54.6875 h 9.03125 v -8.296875 q 2.84375,4.875 7.15625,7.234375 Q 29.59375,56 35.59375,56 q 9.96875,0 16.1875,-7.90625 6.234375,-7.90625 6.234375,-20.796875 0,-12.890625 -6.234375,-20.8125 -6.21875,-7.90625 -16.1875,-7.90625 -6,0 -10.328125,2.375 -4.3125,2.375 -7.15625,7.25 z M 48.6875,27.296875 q 0,9.90625 -4.078125,15.546875 -4.078125,5.640625 -11.203125,5.640625 -7.140625,0 -11.21875,-5.640625 -4.078125,-5.640625 -4.078125,-15.546875 0,-9.90625 4.078125,-15.546875 4.078125,-5.640625 11.21875,-5.640625 7.125,0 11.203125,5.640625 4.078125,5.640625 4.078125,15.546875 z"
             id="DejaVuSans-112" />
          <path
             d="m 45.40625,46.390625 v 29.59375 h 8.984375 V 0 H 45.40625 v 8.203125 q -2.828125,-4.875 -7.15625,-7.25 -4.3125,-2.375 -10.375,-2.375 -9.90625,0 -16.140625,7.90625 -6.21875,7.921875 -6.21875,20.8125 0,12.890625 6.21875,20.796875 Q 17.96875,56 27.875,56 q 6.0625,0 10.375,-2.375 4.328125,-2.359375 7.15625,-7.234375 z M 14.796875,27.296875 q 0,-9.90625 4.078125,-15.546875 4.078125,-5.640625 11.203125,-5.640625 7.125,0 11.21875,5.640625 4.109375,5.640625 4.109375,15.546875 0,9.90625 -4.109375,15.546875 -4.09375,5.640625 -11.21875,5.640625 -7.125,0 -11.203125,-5.640625 -4.078125,-5.640625 -4.078125,-15.546875 z"
             id="DejaVuSans-100" />
        </defs>
        <g
           transform="matrix(0,-0.1,-0.1,0,31.245812,290.21544)"
           id="g229">
          <path
             id="use157"
             d="M 9.8125,72.90625 H 23.09375 L 55.421875,11.921875 V 72.90625 h 9.5625 V 0 h -13.28125 l -32.3125,60.984375 V 0 H 9.8125 Z" />
          <path
             id="use159"
             d="M 83.304687,21.578125 V 54.6875 h 8.984375 V 21.921875 q 0,-7.765625 3.015625,-11.65625 3.03125,-3.875 9.093753,-3.875 7.26562,0 11.48437,4.640625 4.23438,4.640625 4.23438,12.65625 v 31 h 8.98437 V 0 h -8.98437 V 8.40625 Q 116.85156,3.421875 112.52344,1 q -4.3125,-2.421875 -10.03125,-2.421875 -9.421878,0 -14.312503,5.859375 -4.875,5.859375 -4.875,17.140625 z M 105.91406,56 Z" />
          <path
             id="use161"
             d="m 190.18359,44.1875 q 3.375,6.0625 8.0625,8.9375 4.6875,2.875 11.03125,2.875 8.54688,0 13.1875,-5.984375 4.64063,-5.96875 4.64063,-17 V 0 h -9.03125 v 32.71875 q 0,7.859375 -2.79688,11.65625 -2.78125,3.8125 -8.48437,3.8125 -6.98438,0 -11.04688,-4.640625 -4.04687,-4.625 -4.04687,-12.640625 V 0 h -9.03125 v 32.71875 q 0,7.90625 -2.78125,11.6875 -2.78125,3.78125 -8.59375,3.78125 -6.89063,0 -10.95313,-4.65625 -4.04687,-4.65625 -4.04687,-12.625 V 0 h -9.03125 v 54.6875 h 9.03125 v -8.5 q 3.07812,5.03125 7.375,7.421875 Q 167.96484,56 173.87109,56 q 5.96875,0 10.14063,-3.03125 4.17187,-3.015625 6.17187,-8.78125 z" />
          <path
             id="use163"
             d="m 284.2832,27.296875 q 0,9.90625 -4.07812,15.546875 -4.07813,5.640625 -11.20313,5.640625 -7.14062,0 -11.21875,-5.640625 -4.07812,-5.640625 -4.07812,-15.546875 0,-9.90625 4.07812,-15.546875 4.07813,-5.640625 11.21875,-5.640625 7.125,0 11.20313,5.640625 4.07812,5.640625 4.07812,15.546875 z m -30.57812,19.09375 q 2.84375,4.875 7.15625,7.234375 4.32812,2.375 10.32812,2.375 9.96875,0 16.1875,-7.90625 6.23438,-7.90625 6.23438,-20.796875 0,-12.890625 -6.23438,-20.8125 -6.21875,-7.90625 -16.1875,-7.90625 -6,0 -10.32812,2.375 -4.3125,2.375 -7.15625,7.25 V 0 h -9.03125 v 75.984375 h 9.03125 z" />
          <path
             id="use165"
             d="m 355.27539,29.59375 v -4.390625 h -41.3125 q 0.59375,-9.28125 5.59375,-14.140625 5,-4.859375 13.9375,-4.859375 5.17188,0 10.03125,1.265625 4.85938,1.265625 9.65625,3.8125 v -8.5 q -4.84375,-2.046875 -9.92187,-3.125 -5.07813,-1.078125 -10.29688,-1.078125 -13.09375,0 -20.73437,7.609375 -7.64063,7.625 -7.64063,20.625 0,13.421875 7.25,21.296875 Q 319.08789,56 331.40039,56 q 11.03125,0 17.45313,-7.109375 6.42187,-7.09375 6.42187,-19.296875 z m -8.98437,2.640625 q -0.0937,7.359375 -4.125,11.75 -4.03125,4.40625 -10.67188,4.40625 -7.51562,0 -12.03125,-4.25 -4.51562,-4.25 -5.20312,-11.96875 z" />
          <path
             id="use167"
             d="m 401.70508,46.296875 q -1.51563,0.875 -3.29688,1.28125 Q 396.62695,48 394.48633,48 386.86133,48 382.7832,43.046875 378.70508,38.09375 378.70508,28.8125 V 0 h -9.03125 v 54.6875 h 9.03125 v -8.5 q 2.84375,4.984375 7.375,7.390625 Q 390.62695,56 397.12695,56 q 0.92188,0 2.04688,-0.125 1.125,-0.109375 2.48437,-0.359375 z" />
          <path
             d=""
             id="use169" />
          <path
             id="use171"
             d="m 464.10547,48.390625 q -7.21875,0 -11.42188,-5.640625 -4.20312,-5.640625 -4.20312,-15.453125 0,-9.8125 4.17187,-15.453125 4.1875,-5.640625 11.45313,-5.640625 7.1875,0 11.375,5.65625 4.20312,5.671875 4.20312,15.4375 0,9.71875 -4.20312,15.40625 -4.1875,5.6875 -11.375,5.6875 z m 0,7.609375 q 11.71875,0 18.40625,-7.625 6.70312,-7.609375 6.70312,-21.078125 0,-13.421875 -6.70312,-21.078125 -6.6875,-7.640625 -18.40625,-7.640625 -11.76563,0 -18.4375,7.640625 -6.65625,7.65625 -6.65625,21.078125 0,13.46875 6.65625,21.078125 6.67187,7.625 18.4375,7.625 z" />
          <path
             id="use173"
             d="M 531.78711,75.984375 V 68.5 h -8.59375 q -4.82813,0 -6.71875,-1.953125 -1.875,-1.953125 -1.875,-7.03125 V 54.6875 h 14.79687 V 47.703125 H 514.59961 V 0 h -9.03125 v 47.703125 h -8.59375 V 54.6875 h 8.59375 V 58.5 q 0,9.125 4.25,13.296875 4.25,4.1875 13.46875,4.1875 z" />
          <path
             d=""
             id="use175" />
          <path
             id="use177"
             d="M 626.07617,67.28125 V 56.890625 q -4.98437,4.640625 -10.625,6.921875 -5.64062,2.296875 -11.98437,2.296875 -12.5,0 -19.14063,-7.640625 -6.64062,-7.640625 -6.64062,-22.09375 0,-14.40625 6.64062,-22.046875 Q 590.9668,6.6875 603.4668,6.6875 q 6.34375,0 11.98437,2.296875 5.64063,2.296875 10.625,6.9375 v -10.3125 q -5.17187,-3.515625 -10.96875,-5.28125 -5.78125,-1.75 -12.21875,-1.75 -16.5625,0 -26.09375,10.125 -9.51562,10.140625 -9.51562,27.671875 0,17.578125 9.51562,27.703125 9.53125,10.140625 26.09375,10.140625 6.53125,0 12.3125,-1.734375 5.79688,-1.734375 10.875,-5.203125 z" />
          <path
             id="use179"
             d="m 662.10352,48.390625 q -7.21875,0 -11.42188,-5.640625 -4.20312,-5.640625 -4.20312,-15.453125 0,-9.8125 4.17187,-15.453125 4.1875,-5.640625 11.45313,-5.640625 7.1875,0 11.375,5.65625 4.20312,5.671875 4.20312,15.4375 0,9.71875 -4.20312,15.40625 -4.1875,5.6875 -11.375,5.6875 z m 0,7.609375 q 11.71875,0 18.40625,-7.625 6.70312,-7.609375 6.70312,-21.078125 0,-13.421875 -6.70312,-21.078125 -6.6875,-7.640625 -18.40625,-7.640625 -11.76563,0 -18.4375,7.640625 -6.65625,7.65625 -6.65625,21.078125 0,13.46875 6.65625,21.078125 6.67187,7.625 18.4375,7.625 z" />
          <path
             id="use181"
             d="m 702.09766,75.984375 h 8.98437 V 0 h -8.98437 z" />
          <path
             id="use183"
             d="m 729.88086,75.984375 h 8.98437 V 0 h -8.98437 z" />
          <path
             id="use185"
             d="m 757.66406,54.6875 h 8.98438 V 0 h -8.98438 z m 0,21.296875 h 8.98438 V 64.59375 h -8.98438 z" />
          <path
             id="use187"
             d="m 820.30664,53.078125 v -8.5 q -3.79687,1.953125 -7.90625,2.921875 -4.09375,0.984375 -8.5,0.984375 -6.6875,0 -10.03125,-2.046875 -3.34375,-2.046875 -3.34375,-6.15625 0,-3.125 2.39063,-4.90625 2.39062,-1.78125 9.625,-3.390625 l 3.07812,-0.6875 q 9.5625,-2.046875 13.59375,-5.78125 4.03125,-3.734375 4.03125,-10.421875 0,-7.625 -6.03125,-12.078125 -6.03125,-4.4375 -16.57812,-4.4375 -4.39063,0 -9.15625,0.859375 Q 786.71289,0.296875 781.44727,2 v 9.28125 q 4.98437,-2.59375 9.8125,-3.890625 4.82812,-1.28125 9.57812,-1.28125 6.34375,0 9.75,2.171875 3.42188,2.171875 3.42188,6.125 0,3.65625 -2.46875,5.609375 -2.45313,1.953125 -10.8125,3.765625 l -3.125,0.734375 q -8.34375,1.75 -12.0625,5.390625 -3.70313,3.640625 -3.70313,9.984375 0,7.71875 5.46875,11.90625 Q 792.77539,56 802.83789,56 q 4.96875,0 9.35938,-0.734375 4.40625,-0.71875 8.10937,-2.1875 z" />
          <path
             id="use189"
             d="m 837.54687,54.6875 h 8.98438 V 0 h -8.98438 z m 0,21.296875 h 8.98438 V 64.59375 h -8.98438 z" />
          <path
             id="use191"
             d="m 886.51758,48.390625 q -7.21875,0 -11.42188,-5.640625 -4.20312,-5.640625 -4.20312,-15.453125 0,-9.8125 4.17187,-15.453125 4.1875,-5.640625 11.45313,-5.640625 7.1875,0 11.375,5.65625 4.20312,5.671875 4.20312,15.4375 0,9.71875 -4.20312,15.40625 -4.1875,5.6875 -11.375,5.6875 z m 0,7.609375 q 11.71875,0 18.40625,-7.625 6.70312,-7.609375 6.70312,-21.078125 0,-13.421875 -6.70312,-21.078125 -6.6875,-7.640625 -18.40625,-7.640625 -11.76563,0 -18.4375,7.640625 -6.65625,7.65625 -6.65625,21.078125 0,13.46875 6.65625,21.078125 6.67187,7.625 18.4375,7.625 z" />
          <path
             id="use193"
             d="M 971.98047,33.015625 V 0 h -8.98438 v 32.71875 q 0,7.765625 -3.03125,11.609375 -3.03125,3.859375 -9.07812,3.859375 -7.28125,0 -11.48438,-4.640625 -4.20312,-4.625 -4.20312,-12.640625 V 0 h -9.03125 v 54.6875 h 9.03125 v -8.5 q 3.23437,4.9375 7.59375,7.375 4.375,2.4375 10.09375,2.4375 9.42187,0 14.25,-5.828125 4.84375,-5.828125 4.84375,-17.15625 z" />
          <path
             id="use195"
             d="m 1024.75,53.078125 v -8.5 q -3.7969,1.953125 -7.9063,2.921875 -4.0937,0.984375 -8.5,0.984375 -6.6875,0 -10.0312,-2.046875 -3.34375,-2.046875 -3.34375,-6.15625 0,-3.125 2.39062,-4.90625 2.39063,-1.78125 9.62503,-3.390625 l 3.0781,-0.6875 q 9.5625,-2.046875 13.5937,-5.78125 4.0313,-3.734375 4.0313,-10.421875 0,-7.625 -6.0313,-12.078125 -6.0312,-4.4375 -16.5781,-4.4375 -4.3906,0 -9.15623,0.859375 Q 991.15625,0.296875 985.89062,2 v 9.28125 q 4.98438,-2.59375 9.8125,-3.890625 4.82808,-1.28125 9.57808,-1.28125 6.3438,0 9.75,2.171875 3.4219,2.171875 3.4219,6.125 0,3.65625 -2.4687,5.609375 -2.4532,1.953125 -10.8125,3.765625 l -3.125,0.734375 q -8.34378,1.75 -12.06253,5.390625 -3.70312,3.640625 -3.70312,9.984375 0,7.71875 5.46875,11.90625 Q 997.21875,56 1007.2812,56 q 4.9688,0 9.3594,-0.734375 4.4063,-0.71875 8.1094,-2.1875 z" />
          <path
             d=""
             id="use197" />
          <path
             id="use199"
             d="m 1082.4648,8.203125 v -29 h -9.0312 V 54.6875 h 9.0312 v -8.296875 q 2.8438,4.875 7.1563,7.234375 4.3281,2.375 10.3281,2.375 9.9688,0 16.1875,-7.90625 6.2344,-7.90625 6.2344,-20.796875 0,-12.890625 -6.2344,-20.8125 -6.2187,-7.90625 -16.1875,-7.90625 -6,0 -10.3281,2.375 -4.3125,2.375 -7.1563,7.25 z m 30.5782,19.09375 q 0,9.90625 -4.0782,15.546875 -4.0781,5.640625 -11.2031,5.640625 -7.1406,0 -11.2187,-5.640625 -4.0782,-5.640625 -4.0782,-15.546875 0,-9.90625 4.0782,-15.546875 4.0781,-5.640625 11.2187,-5.640625 7.125,0 11.2031,5.640625 4.0782,5.640625 4.0782,15.546875 z" />
          <path
             id="use201"
             d="m 1184.0352,29.59375 v -4.390625 h -41.3125 q 0.5937,-9.28125 5.5937,-14.140625 5,-4.859375 13.9375,-4.859375 5.1719,0 10.0313,1.265625 4.8593,1.265625 9.6562,3.8125 v -8.5 q -4.8437,-2.046875 -9.9219,-3.125 -5.0781,-1.078125 -10.2968,-1.078125 -13.0938,0 -20.7344,7.609375 -7.6406,7.625 -7.6406,20.625 0,13.421875 7.25,21.296875 Q 1147.8477,56 1160.1602,56 q 11.0312,0 17.4531,-7.109375 6.4219,-7.09375 6.4219,-19.296875 z m -8.9844,2.640625 q -0.094,7.359375 -4.125,11.75 -4.0313,4.40625 -10.6719,4.40625 -7.5156,0 -12.0312,-4.25 -4.5157,-4.25 -5.2032,-11.96875 z" />
          <path
             id="use203"
             d="m 1230.4648,46.296875 q -1.5156,0.875 -3.2968,1.28125 Q 1225.3867,48 1223.2461,48 q -7.625,0 -11.7031,-4.953125 -4.0782,-4.953125 -4.0782,-14.234375 V 0 h -9.0312 v 54.6875 h 9.0312 v -8.5 q 2.8438,4.984375 7.375,7.390625 Q 1219.3867,56 1225.8867,56 q 0.9219,0 2.0469,-0.125 1.125,-0.109375 2.4844,-0.359375 z" />
          <path
             d=""
             id="use205" />
          <path
             id="use207"
             d="m 1302.834,39.3125 q 7.0781,-1.515625 11.0469,-6.3125 3.9843,-4.78125 3.9843,-11.8125 0,-10.78125 -7.4218,-16.703125 -7.4219,-5.90625 -21.0938,-5.90625 -4.5781,0 -9.4375,0.90625 -4.8594,0.90625 -10.0312,2.71875 v 9.515625 q 4.0937,-2.390625 8.9687,-3.609375 4.8906,-1.21875 10.2188,-1.21875 9.2656,0 14.125,3.65625 4.8593,3.65625 4.8593,10.640625 0,6.453125 -4.5156,10.078125 -4.5156,3.640625 -12.5625,3.640625 h -8.5 v 8.109375 h 8.8906 q 7.2657,0 11.125,2.90625 3.8594,2.90625 3.8594,8.375 0,5.609375 -3.9844,8.609375 -3.9687,3.015625 -11.3906,3.015625 -4.0625,0 -8.7031,-0.890625 -4.6406,-0.875 -10.2031,-2.71875 v 8.78125 q 5.625,1.5625 10.5312,2.34375 4.9063,0.78125 9.25,0.78125 11.2344,0 17.7656,-5.109375 6.5469,-5.09375 6.5469,-13.78125 0,-6.0625 -3.4687,-10.234375 -3.4688,-4.171875 -9.8594,-5.78125 z" />
          <path
             id="use209"
             d="m 1357.6602,66.40625 q -7.6094,0 -11.4532,-7.5 -3.8281,-7.484375 -3.8281,-22.53125 0,-14.984375 3.8281,-22.484375 3.8438,-7.5 11.4532,-7.5 7.6718,0 11.5,7.5 3.8437,7.5 3.8437,22.484375 0,15.046875 -3.8437,22.53125 -3.8282,7.5 -11.5,7.5 z m 0,7.8125 q 12.2656,0 18.7343,-9.703125 6.4688,-9.6875 6.4688,-28.140625 0,-18.40625 -6.4688,-28.109375 -6.4687,-9.6875 -18.7343,-9.6875 -12.25,0 -18.7188,9.6875 -6.4687,9.703125 -6.4687,28.109375 0,18.453125 6.4687,28.140625 6.4688,9.703125 18.7188,9.703125 z" />
          <path
             id="use211"
             d="m 1433.7832,53.078125 v -8.5 q -3.7969,1.953125 -7.9062,2.921875 -4.0938,0.984375 -8.5,0.984375 -6.6875,0 -10.0313,-2.046875 -3.3437,-2.046875 -3.3437,-6.15625 0,-3.125 2.3906,-4.90625 2.3906,-1.78125 9.625,-3.390625 l 3.0781,-0.6875 q 9.5625,-2.046875 13.5938,-5.78125 4.0312,-3.734375 4.0312,-10.421875 0,-7.625 -6.0312,-12.078125 -6.0313,-4.4375 -16.5782,-4.4375 -4.3906,0 -9.1562,0.859375 -4.7656,0.859375 -10.0313,2.5625 v 9.28125 q 4.9844,-2.59375 9.8125,-3.890625 4.8282,-1.28125 9.5782,-1.28125 6.3437,0 9.75,2.171875 3.4218,2.171875 3.4218,6.125 0,3.65625 -2.4687,5.609375 -2.4531,1.953125 -10.8125,3.765625 l -3.125,0.734375 q -8.3438,1.75 -12.0625,5.390625 -3.7031,3.640625 -3.7031,9.984375 0,7.71875 5.4687,11.90625 Q 1406.252,56 1416.3145,56 q 4.9687,0 9.3593,-0.734375 4.4063,-0.71875 8.1094,-2.1875 z" />
          <path
             d=""
             id="use213" />
          <path
             id="use215"
             d="m 1529.5918,29.59375 v -4.390625 h -41.3125 q 0.5937,-9.28125 5.5937,-14.140625 5,-4.859375 13.9375,-4.859375 5.1719,0 10.0313,1.265625 4.8594,1.265625 9.6562,3.8125 v -8.5 q -4.8437,-2.046875 -9.9218,-3.125 -5.0782,-1.078125 -10.2969,-1.078125 -13.0938,0 -20.7344,7.609375 -7.6406,7.625 -7.6406,20.625 0,13.421875 7.25,21.296875 Q 1493.4043,56 1505.7168,56 q 11.0312,0 17.4531,-7.109375 6.4219,-7.09375 6.4219,-19.296875 z m -8.9844,2.640625 q -0.094,7.359375 -4.125,11.75 -4.0312,4.40625 -10.6719,4.40625 -7.5156,0 -12.0312,-4.25 -4.5156,-4.25 -5.2031,-11.96875 z" />
          <path
             id="use217"
             d="m 1553.0215,8.203125 v -29 h -9.0313 V 54.6875 h 9.0313 v -8.296875 q 2.8437,4.875 7.1562,7.234375 4.3282,2.375 10.3282,2.375 9.9687,0 16.1875,-7.90625 6.2343,-7.90625 6.2343,-20.796875 0,-12.890625 -6.2343,-20.8125 -6.2188,-7.90625 -16.1875,-7.90625 -6,0 -10.3282,2.375 -4.3125,2.375 -7.1562,7.25 z m 30.5781,19.09375 q 0,9.90625 -4.0781,15.546875 -4.0781,5.640625 -11.2031,5.640625 -7.1407,0 -11.2188,-5.640625 -4.0781,-5.640625 -4.0781,-15.546875 0,-9.90625 4.0781,-15.546875 4.0781,-5.640625 11.2188,-5.640625 7.125,0 11.2031,5.640625 4.0781,5.640625 4.0781,15.546875 z" />
          <path
             id="use219"
             d="m 1607.8105,54.6875 h 8.9844 V 0 h -8.9844 z m 0,21.296875 h 8.9844 V 64.59375 h -8.9844 z" />
          <path
             id="use221"
             d="m 1670.4531,53.078125 v -8.5 q -3.7968,1.953125 -7.9062,2.921875 -4.0938,0.984375 -8.5,0.984375 -6.6875,0 -10.0313,-2.046875 -3.3437,-2.046875 -3.3437,-6.15625 0,-3.125 2.3906,-4.90625 2.3906,-1.78125 9.625,-3.390625 l 3.0781,-0.6875 q 9.5625,-2.046875 13.5938,-5.78125 4.0312,-3.734375 4.0312,-10.421875 0,-7.625 -6.0312,-12.078125 -6.0313,-4.4375 -16.5781,-4.4375 -4.3907,0 -9.1563,0.859375 -4.7656,0.859375 -10.0312,2.5625 v 9.28125 q 4.9843,-2.59375 9.8125,-3.890625 4.8281,-1.28125 9.5781,-1.28125 6.3437,0 9.75,2.171875 3.4219,2.171875 3.4219,6.125 0,3.65625 -2.4688,5.609375 -2.4531,1.953125 -10.8125,3.765625 l -3.125,0.734375 q -8.3437,1.75 -12.0625,5.390625 -3.7031,3.640625 -3.7031,9.984375 0,7.71875 5.4687,11.90625 Q 1642.9219,56 1652.9844,56 q 4.9687,0 9.3594,-0.734375 4.4062,-0.71875 8.1093,-2.1875 z" />
          <path
             id="use223"
             d="m 1708.8809,48.390625 q -7.2188,0 -11.4219,-5.640625 -4.2031,-5.640625 -4.2031,-15.453125 0,-9.8125 4.1718,-15.453125 4.1875,-5.640625 11.4532,-5.640625 7.1875,0 11.375,5.65625 4.2031,5.671875 4.2031,15.4375 0,9.71875 -4.2031,15.40625 -4.1875,5.6875 -11.375,5.6875 z m 0,7.609375 q 11.7187,0 18.4062,-7.625 6.7031,-7.609375 6.7031,-21.078125 0,-13.421875 -6.7031,-21.078125 -6.6875,-7.640625 -18.4062,-7.640625 -11.7657,0 -18.4375,7.640625 -6.6563,7.65625 -6.6563,21.078125 0,13.46875 6.6563,21.078125 6.6718,7.625 18.4375,7.625 z" />
          <path
             id="use225"
             d="m 1784.8594,46.390625 v 29.59375 h 8.9844 V 0 h -8.9844 v 8.203125 q -2.8281,-4.875 -7.1563,-7.25 -4.3125,-2.375 -10.375,-2.375 -9.9062,0 -16.1406,7.90625 -6.2187,7.921875 -6.2187,20.8125 0,12.890625 6.2187,20.796875 Q 1757.4219,56 1767.3281,56 q 6.0625,0 10.375,-2.375 4.3282,-2.359375 7.1563,-7.234375 z M 1754.25,27.296875 q 0,-9.90625 4.0781,-15.546875 4.0782,-5.640625 11.2032,-5.640625 7.125,0 11.2187,5.640625 4.1094,5.640625 4.1094,15.546875 0,9.90625 -4.1094,15.546875 -4.0937,5.640625 -11.2187,5.640625 -7.125,0 -11.2032,-5.640625 -4.0781,-5.640625 -4.0781,-15.546875 z" />
          <path
             id="use227"
             d="m 1859.1328,29.59375 v -4.390625 h -41.3125 q 0.5938,-9.28125 5.5938,-14.140625 5,-4.859375 13.9375,-4.859375 5.1718,0 10.0312,1.265625 4.8594,1.265625 9.6563,3.8125 v -8.5 q -4.8438,-2.046875 -9.9219,-3.125 -5.0781,-1.078125 -10.2969,-1.078125 -13.0937,0 -20.7344,7.609375 -7.6406,7.625 -7.6406,20.625 0,13.421875 7.25,21.296875 Q 1822.9453,56 1835.2578,56 q 11.0313,0 17.4531,-7.109375 6.4219,-7.09375 6.4219,-19.296875 z m -8.9844,2.640625 q -0.094,7.359375 -4.125,11.75 -4.0312,4.40625 -10.6718,4.40625 -7.5157,0 -12.0313,-4.25 -4.5156,-4.25 -5.2031,-11.96875 z" />
        </g>
      </g>
    </g>
    <g
       id="patch_5">
      <path
         d="M 50.688,307.584 V 86.4"
         style="fill:none;stroke:#000000;stroke-width:0.8;stroke-linecap:square;stroke-linejoin:miter"
         id="path233" />
    </g>
    <g
       id="patch_6">
      <path
         d="M 230.4,307.584 V 86.4"
         style="fill:none;stroke:#000000;stroke-width:0.8;stroke-linecap:square;stroke-linejoin:miter"
         id="path236" />
    </g>
    <g
       id="patch_7">
      <path
         d="M 50.688,307.584 H 230.4"
         style="fill:none;stroke:#000000;stroke-width:0.8;stroke-linecap:square;stroke-linejoin:miter"
         id="path239" />
    </g>
    <g
       id="patch_8">
      <path
         d="M 50.688,86.4 H 230.4"
         style="fill:none;stroke:#000000;stroke-width:0.8;stroke-linecap:square;stroke-linejoin:miter"
         id="path242" />
    </g>
    <g
       id="legend_1">
      <g
         id="patch_9">
        <path
           d="M 118.95781,123.75625 H 223.4 q 2,0 2,-2 V 93.4 q 0,-2 -2,-2 H 118.95781 q -2,0 -2,2 v 28.35625 q 0,2 2,2 z"
           style="opacity:0.8;fill:#ffffff;stroke:#cccccc;stroke-linejoin:miter"
           id="path245" />
      </g>
      <g
         id="patch_10">
        <path
           d="m 120.95781,102.99844 h 20 v -7.000003 h -20 z"
           style="fill:#646567"
           id="path248" />
      </g>
      <g
         id="text_9">
        <!-- Without Traffic -->
        <defs
           id="defs255">
          <path
             d="m 3.328125,72.90625 h 9.953125 l 15.328125,-61.625 15.28125,61.625 h 11.09375 l 15.328125,-61.625 15.28125,61.625 H 95.609375 L 77.296875,0 H 64.890625 L 49.515625,63.28125 33.984375,0 h -12.40625 z"
             id="DejaVuSans-87" />
          <path
             d="M 54.890625,33.015625 V 0 H 45.90625 v 32.71875 q 0,7.765625 -3.03125,11.609375 -3.03125,3.859375 -9.078125,3.859375 -7.28125,0 -11.484375,-4.640625 -4.203125,-4.625 -4.203125,-12.640625 V 0 h -9.03125 v 75.984375 h 9.03125 V 46.1875 q 3.234375,4.9375 7.59375,7.375 4.375,2.4375 10.09375,2.4375 9.421875,0 14.25,-5.828125 4.84375,-5.828125 4.84375,-17.15625 z"
             id="DejaVuSans-104" />
          <path
             d="M -0.296875,72.90625 H 61.375 v -8.3125 H 35.5 V 0 H 25.59375 V 64.59375 H -0.296875 Z"
             id="DejaVuSans-84" />
          <path
             d="M 48.78125,52.59375 V 44.1875 q -3.8125,2.109375 -7.640625,3.15625 -3.828125,1.046875 -7.734375,1.046875 -8.75,0 -13.59375,-5.546875 -4.828125,-5.53125 -4.828125,-15.546875 0,-10.015625 4.828125,-15.5625 4.84375,-5.53125 13.59375,-5.53125 3.90625,0 7.734375,1.046875 3.828125,1.046875 7.640625,3.15625 v -8.3125 q -3.765625,-1.75 -7.796875,-2.625 -4.015625,-0.890625 -8.5625,-0.890625 -12.359375,0 -19.640625,7.765625 -7.265625,7.765625 -7.265625,20.953125 0,13.375 7.34375,21.03125 Q 20.21875,56 33.015625,56 q 4.140625,0 8.09375,-0.859375 3.953125,-0.84375 7.671875,-2.546875 z"
             id="DejaVuSans-99" />
        </defs>
        <g
           transform="matrix(0.1,0,0,-0.1,148.95781,102.99844)"
           id="g287">
          <path
             id="use257"
             d="m 3.328125,72.90625 h 9.953125 l 15.328125,-61.625 15.28125,61.625 h 11.09375 l 15.328125,-61.625 15.28125,61.625 H 95.609375 L 77.296875,0 H 64.890625 L 49.515625,63.28125 33.984375,0 h -12.40625 z" />
          <path
             id="use259"
             d="m 106.04883,54.6875 h 8.98437 V 0 h -8.98437 z m 0,21.296875 h 8.98437 V 64.59375 h -8.98437 z" />
          <path
             id="use261"
             d="M 142.72266,70.21875 V 54.6875 h 18.5 v -6.984375 h -18.5 v -29.6875 q 0,-6.6875 1.82812,-8.59375 1.82813,-1.90625 7.45313,-1.90625 h 9.21875 V 0 h -9.21875 q -10.40625,0 -14.35938,3.875 -3.95312,3.890625 -3.95312,14.140625 v 29.6875 h -6.59375 V 54.6875 h 6.59375 v 15.53125 z" />
          <path
             id="use263"
             d="M 218.50977,33.015625 V 0 h -8.98438 v 32.71875 q 0,7.765625 -3.03125,11.609375 -3.03125,3.859375 -9.07812,3.859375 -7.28125,0 -11.48438,-4.640625 -4.20312,-4.625 -4.20312,-12.640625 V 0 h -9.03125 v 75.984375 h 9.03125 V 46.1875 q 3.23437,4.9375 7.59375,7.375 4.375,2.4375 10.09375,2.4375 9.42187,0 14.25,-5.828125 4.84375,-5.828125 4.84375,-17.15625 z" />
          <path
             id="use265"
             d="m 257.60742,48.390625 q -7.21875,0 -11.42187,-5.640625 -4.20313,-5.640625 -4.20313,-15.453125 0,-9.8125 4.17188,-15.453125 4.1875,-5.640625 11.45312,-5.640625 7.1875,0 11.375,5.65625 4.20313,5.671875 4.20313,15.4375 0,9.71875 -4.20313,15.40625 -4.1875,5.6875 -11.375,5.6875 z m 0,7.609375 q 11.71875,0 18.40625,-7.625 6.70313,-7.609375 6.70313,-21.078125 0,-13.421875 -6.70313,-21.078125 -6.6875,-7.640625 -18.40625,-7.640625 -11.76562,0 -18.4375,7.640625 -6.65625,7.65625 -6.65625,21.078125 0,13.46875 6.65625,21.078125 Q 245.8418,56 257.60742,56 Z" />
          <path
             id="use267"
             d="M 296.67969,21.578125 V 54.6875 h 8.98437 V 21.921875 q 0,-7.765625 3.01563,-11.65625 3.03125,-3.875 9.09375,-3.875 7.26562,0 11.48437,4.640625 4.23438,4.640625 4.23438,12.65625 v 31 h 8.98437 V 0 h -8.98437 V 8.40625 Q 330.22656,3.421875 325.89844,1 q -4.3125,-2.421875 -10.03125,-2.421875 -9.42188,0 -14.3125,5.859375 -4.875,5.859375 -4.875,17.140625 z M 319.28906,56 Z" />
          <path
             id="use269"
             d="M 369.87109,70.21875 V 54.6875 h 18.5 v -6.984375 h -18.5 v -29.6875 q 0,-6.6875 1.82813,-8.59375 1.82812,-1.90625 7.45312,-1.90625 h 9.21875 V 0 h -9.21875 q -10.40625,0 -14.35937,3.875 -3.95313,3.890625 -3.95313,14.140625 v 29.6875 h -6.59375 V 54.6875 h 6.59375 v 15.53125 z" />
          <path
             d=""
             id="use271" />
          <path
             id="use273"
             d="m 422.25781,72.90625 h 61.67188 v -8.3125 h -25.875 V 0 h -9.90625 v 64.59375 h -25.89063 z" />
          <path
             id="use275"
             d="m 509.99805,46.296875 q -1.51563,0.875 -3.29688,1.28125 Q 504.91992,48 502.7793,48 495.1543,48 491.07617,43.046875 486.99805,38.09375 486.99805,28.8125 V 0 h -9.03125 v 54.6875 h 9.03125 v -8.5 q 2.84375,4.984375 7.375,7.390625 Q 498.91992,56 505.41992,56 q 0.92188,0 2.04688,-0.125 1.125,-0.109375 2.48437,-0.359375 z" />
          <path
             id="use277"
             d="m 544.2832,27.484375 q -10.89062,0 -15.09375,-2.484375 -4.20312,-2.484375 -4.20312,-8.5 0,-4.78125 3.15625,-7.59375 3.15625,-2.796875 8.5625,-2.796875 7.48437,0 12,5.296875 4.51562,5.296875 4.51562,14.078125 v 2 z m 17.92188,3.71875 V 0 h -8.98438 v 8.296875 q -3.07812,-4.96875 -7.67187,-7.34375 -4.59375,-2.375 -11.23438,-2.375 -8.39062,0 -13.35937,4.71875 -4.95313,4.71875 -4.95313,12.625 0,9.21875 6.17188,13.90625 6.1875,4.6875 18.4375,4.6875 h 12.60937 v 0.890625 q 0,6.203125 -4.07812,9.59375 -4.07813,3.390625 -11.45313,3.390625 -4.6875,0 -9.14062,-1.125 -4.4375,-1.125 -8.53125,-3.375 v 8.3125 q 4.92187,1.90625 9.5625,2.84375 Q 534.2207,56 538.61133,56 q 11.875,0 17.73437,-6.15625 5.85938,-6.140625 5.85938,-18.640625 z" />
          <path
             id="use279"
             d="M 608.39062,75.984375 V 68.5 h -8.59375 q -4.82812,0 -6.71875,-1.953125 -1.875,-1.953125 -1.875,-7.03125 V 54.6875 H 606 V 47.703125 H 591.20312 V 0 h -9.03125 v 47.703125 h -8.59375 V 54.6875 h 8.59375 V 58.5 q 0,9.125 4.25,13.296875 4.25,4.1875 13.46875,4.1875 z" />
          <path
             id="use281"
             d="M 643.5957,75.984375 V 68.5 h -8.59375 q -4.82812,0 -6.71875,-1.953125 -1.875,-1.953125 -1.875,-7.03125 V 54.6875 h 14.79688 V 47.703125 H 626.4082 V 0 h -9.03125 V 47.703125 H 608.7832 V 54.6875 h 8.59375 V 58.5 q 0,9.125 4.25,13.296875 4.25,4.1875 13.46875,4.1875 z" />
          <path
             id="use283"
             d="m 651.11328,54.6875 h 8.98438 V 0 h -8.98438 z m 0,21.296875 h 8.98438 V 64.59375 h -8.98438 z" />
          <path
             id="use285"
             d="M 718.25586,52.59375 V 44.1875 q -3.8125,2.109375 -7.64063,3.15625 -3.82812,1.046875 -7.73437,1.046875 -8.75,0 -13.59375,-5.546875 -4.82813,-5.53125 -4.82813,-15.546875 0,-10.015625 4.82813,-15.5625 4.84375,-5.53125 13.59375,-5.53125 3.90625,0 7.73437,1.046875 3.82813,1.046875 7.64063,3.15625 v -8.3125 q -3.76563,-1.75 -7.79688,-2.625 -4.01562,-0.890625 -8.5625,-0.890625 -12.35937,0 -19.64062,7.765625 -7.26563,7.765625 -7.26563,20.953125 0,13.375 7.34375,21.03125 Q 689.69336,56 702.49023,56 q 4.14063,0 8.09375,-0.859375 3.95313,-0.84375 7.67188,-2.546875 z" />
        </g>
      </g>
      <g
         id="patch_11">
        <path
           d="m 120.95781,117.67656 h 20 v -7 h -20 z"
           style="fill:#d85c41"
           id="path290" />
      </g>
      <g
         id="text_10">
        <!-- With Traffic -->
        <g
           transform="matrix(0.1,0,0,-0.1,148.95781,117.67656)"
           id="g317">
          <path
             id="use293"
             d="m 3.328125,72.90625 h 9.953125 l 15.328125,-61.625 15.28125,61.625 h 11.09375 l 15.328125,-61.625 15.28125,61.625 H 95.609375 L 77.296875,0 H 64.890625 L 49.515625,63.28125 33.984375,0 h -12.40625 z" />
          <path
             id="use295"
             d="m 106.04883,54.6875 h 8.98437 V 0 h -8.98437 z m 0,21.296875 h 8.98437 V 64.59375 h -8.98437 z" />
          <path
             id="use297"
             d="M 142.72266,70.21875 V 54.6875 h 18.5 v -6.984375 h -18.5 v -29.6875 q 0,-6.6875 1.82812,-8.59375 1.82813,-1.90625 7.45313,-1.90625 h 9.21875 V 0 h -9.21875 q -10.40625,0 -14.35938,3.875 -3.95312,3.890625 -3.95312,14.140625 v 29.6875 h -6.59375 V 54.6875 h 6.59375 v 15.53125 z" />
          <path
             id="use299"
             d="M 218.50977,33.015625 V 0 h -8.98438 v 32.71875 q 0,7.765625 -3.03125,11.609375 -3.03125,3.859375 -9.07812,3.859375 -7.28125,0 -11.48438,-4.640625 -4.20312,-4.625 -4.20312,-12.640625 V 0 h -9.03125 v 75.984375 h 9.03125 V 46.1875 q 3.23437,4.9375 7.59375,7.375 4.375,2.4375 10.09375,2.4375 9.42187,0 14.25,-5.828125 4.84375,-5.828125 4.84375,-17.15625 z" />
          <path
             d=""
             id="use301" />
          <path
             id="use303"
             d="m 258.48828,72.90625 h 61.67188 v -8.3125 h -25.875 V 0 h -9.90625 v 64.59375 h -25.89063 z" />
          <path
             id="use305"
             d="m 346.22852,46.296875 q -1.51563,0.875 -3.29688,1.28125 Q 341.15039,48 339.00977,48 331.38477,48 327.30664,43.046875 323.22852,38.09375 323.22852,28.8125 V 0 h -9.03125 v 54.6875 h 9.03125 v -8.5 q 2.84375,4.984375 7.375,7.390625 Q 335.15039,56 341.65039,56 q 0.92188,0 2.04688,-0.125 1.125,-0.109375 2.48437,-0.359375 z" />
          <path
             id="use307"
             d="m 380.51367,27.484375 q -10.89062,0 -15.09375,-2.484375 -4.20312,-2.484375 -4.20312,-8.5 0,-4.78125 3.15625,-7.59375 3.15625,-2.796875 8.5625,-2.796875 7.48437,0 12,5.296875 4.51562,5.296875 4.51562,14.078125 v 2 z m 17.92188,3.71875 V 0 h -8.98438 v 8.296875 q -3.07812,-4.96875 -7.67187,-7.34375 -4.59375,-2.375 -11.23438,-2.375 -8.39062,0 -13.35937,4.71875 -4.95313,4.71875 -4.95313,12.625 0,9.21875 6.17188,13.90625 6.1875,4.6875 18.4375,4.6875 h 12.60937 v 0.890625 q 0,6.203125 -4.07812,9.59375 -4.07813,3.390625 -11.45313,3.390625 -4.6875,0 -9.14062,-1.125 -4.4375,-1.125 -8.53125,-3.375 v 8.3125 q 4.92187,1.90625 9.5625,2.84375 Q 370.45117,56 374.8418,56 q 11.875,0 17.73437,-6.15625 5.85938,-6.140625 5.85938,-18.640625 z" />
          <path
             id="use309"
             d="M 444.62109,75.984375 V 68.5 h -8.59375 q -4.82812,0 -6.71875,-1.953125 -1.875,-1.953125 -1.875,-7.03125 V 54.6875 h 14.79688 V 47.703125 H 427.43359 V 0 h -9.03125 v 47.703125 h -8.59375 V 54.6875 h 8.59375 V 58.5 q 0,9.125 4.25,13.296875 4.25,4.1875 13.46875,4.1875 z" />
          <path
             id="use311"
             d="M 479.82617,75.984375 V 68.5 h -8.59375 q -4.82812,0 -6.71875,-1.953125 -1.875,-1.953125 -1.875,-7.03125 V 54.6875 h 14.79688 V 47.703125 H 462.63867 V 0 h -9.03125 v 47.703125 h -8.59375 V 54.6875 h 8.59375 V 58.5 q 0,9.125 4.25,13.296875 4.25,4.1875 13.46875,4.1875 z" />
          <path
             id="use313"
             d="m 487.34375,54.6875 h 8.98437 V 0 h -8.98437 z m 0,21.296875 h 8.98437 V 64.59375 h -8.98437 z" />
          <path
             id="use315"
             d="M 554.48633,52.59375 V 44.1875 q -3.8125,2.109375 -7.64063,3.15625 -3.82812,1.046875 -7.73437,1.046875 -8.75,0 -13.59375,-5.546875 -4.82813,-5.53125 -4.82813,-15.546875 0,-10.015625 4.82813,-15.5625 4.84375,-5.53125 13.59375,-5.53125 3.90625,0 7.73437,1.046875 3.82813,1.046875 7.64063,3.15625 v -8.3125 q -3.76563,-1.75 -7.79688,-2.625 -4.01562,-0.890625 -8.5625,-0.890625 -12.35937,0 -19.64062,7.765625 -7.26563,7.765625 -7.26563,20.953125 0,13.375 7.34375,21.03125 Q 525.92383,56 538.7207,56 q 4.14063,0 8.09375,-0.859375 3.95313,-0.84375 7.67188,-2.546875 z" />
        </g>
      </g>
    </g>
  </g>
  <g
     style="font-size:8px;line-height:1.25;font-family:sans-serif;-inkscape-font-specification:sans-serif;stroke-width:0.75;stroke-linecap:butt;stroke-linejoin:round"
     id="text719"
     aria-label="Night - RGB-G+Seg fusion">
    <path
       id="path1487"
       style="font-size:8px;stroke-width:0.75;stroke-linecap:butt;stroke-linejoin:round"
       d="m 90.876625,42.906876 h 1.0625 l 2.585938,4.878906 v -4.878906 h 0.765625 v 5.832031 h -1.0625 L 91.64225,43.860001 v 4.878906 h -0.765625 z" />
    <path
       id="path1489"
       style="font-size:8px;stroke-width:0.75;stroke-linecap:butt;stroke-linejoin:round"
       d="m 96.82975,44.363907 h 0.71875 v 4.375 h -0.71875 z m 0,-1.703125 h 0.71875 v 0.910156 h -0.71875 z" />
    <path
       id="path1491"
       style="font-size:8px;stroke-width:0.75;stroke-linecap:butt;stroke-linejoin:round"
       d="m 101.92741,46.500626 q 0,-0.78125 -0.32422,-1.210938 -0.32031,-0.429687 -0.90235,-0.429687 -0.57812,0 -0.90234,0.429687 -0.320312,0.429688 -0.320312,1.210938 0,0.777343 0.320312,1.207031 0.32422,0.429687 0.90234,0.429687 0.58204,0 0.90235,-0.429687 0.32422,-0.429688 0.32422,-1.207031 z m 0.71875,1.695312 q 0,1.117188 -0.4961,1.660156 -0.49609,0.546875 -1.51953,0.546875 -0.3789,0 -0.714842,-0.05859 -0.335938,-0.05469 -0.652344,-0.171875 v -0.699219 q 0.316406,0.171875 0.625,0.253906 0.308596,0.08203 0.628906,0.08203 0.70703,0 1.05859,-0.371093 0.35157,-0.367188 0.35157,-1.113282 v -0.355468 q -0.22266,0.386718 -0.57032,0.578125 -0.34765,0.191406 -0.83203,0.191406 -0.804685,0 -1.296872,-0.613281 -0.492188,-0.613282 -0.492188,-1.625 0,-1.015625 0.492188,-1.628907 0.492187,-0.613281 1.296872,-0.613281 0.48438,0 0.83203,0.191406 0.34766,0.191407 0.57032,0.578125 v -0.664062 h 0.71875 z" />
    <path
       id="path1493"
       style="font-size:8px;stroke-width:0.75;stroke-linecap:butt;stroke-linejoin:round"
       d="m 107.76334,46.098282 v 2.640625 h -0.71875 v -2.617188 q 0,-0.621093 -0.24218,-0.929687 -0.24219,-0.308594 -0.72657,-0.308594 -0.58203,0 -0.91796,0.371094 -0.33594,0.371094 -0.33594,1.011719 v 2.472656 h -0.72266 v -6.078125 h 0.72266 v 2.382812 q 0.25781,-0.394531 0.60547,-0.589843 0.35156,-0.195313 0.80859,-0.195313 0.75391,0 1.14063,0.46875 0.38671,0.464844 0.38671,1.371094 z" />
    <path
       id="path1495"
       style="font-size:8px;stroke-width:0.75;stroke-linecap:butt;stroke-linejoin:round"
       d="m 109.91569,43.121719 v 1.242188 h 1.48047 v 0.558594 h -1.48047 v 2.375 q 0,0.535156 0.14453,0.6875 0.14844,0.152343 0.59766,0.152343 h 0.73828 v 0.601563 h -0.73828 q -0.83204,0 -1.14844,-0.308594 -0.31641,-0.3125 -0.31641,-1.132812 v -2.375 h -0.52734 v -0.558594 h 0.52734 v -1.242188 z" />
    <path
       id="path1497"
       style="font-size:8px;stroke-width:0.75;stroke-linecap:butt;stroke-linejoin:round"
       d="m 114.52897,46.227188 h 2.10547 v 0.640625 h -2.10547 z" />
    <path
       id="path1499"
       style="font-size:8px;stroke-width:0.75;stroke-linecap:butt;stroke-linejoin:round"
       d="m 123.12663,46.004532 q 0.2539,0.08594 0.49218,0.367187 0.24219,0.28125 0.48438,0.773438 l 0.80078,1.59375 h -0.84766 l -0.74609,-1.496094 q -0.28906,-0.585937 -0.5625,-0.777344 -0.26953,-0.191406 -0.73828,-0.191406 h -0.85938 v 2.464844 H 120.361 v -5.832031 h 1.78125 q 1,0 1.49219,0.417968 0.49219,0.417969 0.49219,1.261719 0,0.550781 -0.25782,0.914063 -0.2539,0.363281 -0.74218,0.503906 z m -1.97657,-2.449219 v 2.070313 h 0.99219 q 0.57031,0 0.85938,-0.261719 0.29296,-0.265625 0.29296,-0.777344 0,-0.511719 -0.29296,-0.769531 -0.28907,-0.261719 -0.85938,-0.261719 z" />
    <path
       id="path1501"
       style="font-size:8px;stroke-width:0.75;stroke-linecap:butt;stroke-linejoin:round"
       d="M 129.90006,47.906876 V 46.340469 H 128.611 v -0.648437 h 2.07031 v 2.503906 q -0.45703,0.324219 -1.00781,0.492188 -0.55078,0.164062 -1.17578,0.164062 -1.36719,0 -2.14063,-0.796875 -0.76953,-0.800781 -0.76953,-2.226562 0,-1.429688 0.76953,-2.226563 0.77344,-0.800781 2.14063,-0.800781 0.57031,0 1.08203,0.140625 0.51563,0.140625 0.94922,0.414062 v 0.839844 q -0.4375,-0.371094 -0.92969,-0.558594 -0.49219,-0.1875 -1.03515,-0.1875 -1.07032,0 -1.60938,0.597657 -0.53516,0.597656 -0.53516,1.78125 0,1.179687 0.53516,1.777343 0.53906,0.597657 1.60938,0.597657 0.41796,0 0.74609,-0.07031 0.32812,-0.07422 0.58984,-0.226562 z" />
    <path
       id="path1503"
       style="font-size:8px;stroke-width:0.75;stroke-linecap:butt;stroke-linejoin:round"
       d="m 132.91569,45.953751 v 2.136718 h 1.26562 q 0.63672,0 0.94141,-0.261718 0.30859,-0.265625 0.30859,-0.808594 0,-0.546875 -0.30859,-0.804688 -0.30469,-0.261718 -0.94141,-0.261718 z m 0,-2.398438 v 1.757813 h 1.16797 q 0.57812,0 0.85937,-0.214844 0.28516,-0.21875 0.28516,-0.664063 0,-0.441406 -0.28516,-0.660156 -0.28125,-0.21875 -0.85937,-0.21875 z m -0.78906,-0.648437 h 2.01562 q 0.90234,0 1.39063,0.375 0.48828,0.375 0.48828,1.066406 0,0.535156 -0.25,0.851562 -0.25,0.316407 -0.73438,0.394532 0.58203,0.125 0.90235,0.523437 0.32421,0.394531 0.32421,0.988281 0,0.78125 -0.53125,1.207032 -0.53125,0.425781 -1.51171,0.425781 h -2.09375 z" />
    <path
       id="path1505"
       style="font-size:8px;stroke-width:0.75;stroke-linecap:butt;stroke-linejoin:round"
       d="m 137.21647,46.227188 h 2.10547 v 0.640625 h -2.10547 z" />
    <path
       id="path1507"
       style="font-size:8px;stroke-width:0.75;stroke-linecap:butt;stroke-linejoin:round"
       d="M 144.77506,47.906876 V 46.340469 H 143.486 v -0.648437 h 2.07031 v 2.503906 q -0.45703,0.324219 -1.00781,0.492188 -0.55078,0.164062 -1.17578,0.164062 -1.36719,0 -2.14063,-0.796875 -0.76953,-0.800781 -0.76953,-2.226562 0,-1.429688 0.76953,-2.226563 0.77344,-0.800781 2.14063,-0.800781 0.57031,0 1.08203,0.140625 0.51563,0.140625 0.94922,0.414062 v 0.839844 q -0.4375,-0.371094 -0.92969,-0.558594 -0.49219,-0.1875 -1.03515,-0.1875 -1.07032,0 -1.60938,0.597657 -0.53516,0.597656 -0.53516,1.78125 0,1.179687 0.53516,1.777343 0.53906,0.597657 1.60938,0.597657 0.41796,0 0.74609,-0.07031 0.32812,-0.07422 0.58984,-0.226562 z" />
    <path
       id="path1509"
       style="font-size:8px;stroke-width:0.75;stroke-linecap:butt;stroke-linejoin:round"
       d="m 149.89616,43.723282 v 2.175781 h 2.17578 v 0.664063 h -2.17578 v 2.175781 h -0.65625 v -2.175781 h -2.17578 v -0.664063 h 2.17578 v -2.175781 z" />
    <path
       id="path1511"
       style="font-size:8px;stroke-width:0.75;stroke-linecap:butt;stroke-linejoin:round"
       d="m 157.20084,43.098282 v 0.769531 q -0.44921,-0.214844 -0.84765,-0.320312 -0.39844,-0.105469 -0.76953,-0.105469 -0.64453,0 -0.9961,0.25 -0.34765,0.25 -0.34765,0.710937 0,0.386719 0.23047,0.585938 0.23437,0.195312 0.88281,0.316406 l 0.47656,0.09766 q 0.88281,0.167969 1.30078,0.59375 0.42188,0.421875 0.42188,1.132813 0,0.847656 -0.57032,1.285156 -0.5664,0.4375 -1.66406,0.4375 -0.41406,0 -0.88281,-0.09375 -0.46484,-0.09375 -0.96484,-0.277344 v -0.8125 q 0.48046,0.269532 0.9414,0.40625 0.46094,0.136719 0.90625,0.136719 0.67578,0 1.04297,-0.265625 0.36719,-0.265625 0.36719,-0.757812 0,-0.429688 -0.26563,-0.671875 -0.26172,-0.242188 -0.86328,-0.363282 l -0.48047,-0.09375 q -0.88281,-0.175781 -1.27734,-0.550781 -0.39453,-0.375 -0.39453,-1.042969 0,-0.773437 0.54297,-1.21875 0.54687,-0.445312 1.5039,-0.445312 0.41016,0 0.83594,0.07422 0.42578,0.07422 0.87109,0.222656 z" />
    <path
       id="path1513"
       style="font-size:8px;stroke-width:0.75;stroke-linecap:butt;stroke-linejoin:round"
       d="m 162.49381,46.371719 v 0.351563 h -3.30468 q 0.0469,0.742187 0.44531,1.132812 0.40234,0.386719 1.11719,0.386719 0.41406,0 0.80078,-0.101562 0.39062,-0.101563 0.77343,-0.304688 v 0.679688 q -0.38671,0.164062 -0.79296,0.25 -0.40625,0.08594 -0.82422,0.08594 -1.04688,0 -1.66016,-0.609375 -0.60937,-0.609375 -0.60937,-1.648437 0,-1.074219 0.57812,-1.703125 0.58203,-0.632813 1.56641,-0.632813 0.88281,0 1.39453,0.570313 0.51562,0.566406 0.51562,1.542968 z m -0.71875,-0.210937 q -0.008,-0.589844 -0.33203,-0.941406 -0.32031,-0.351563 -0.85156,-0.351563 -0.60156,0 -0.96484,0.339844 -0.35938,0.339844 -0.41407,0.957031 z" />
    <path
       id="path1515"
       style="font-size:8px;stroke-width:0.75;stroke-linecap:butt;stroke-linejoin:round"
       d="m 166.55241,46.500626 q 0,-0.78125 -0.32422,-1.210938 -0.32031,-0.429687 -0.90235,-0.429687 -0.57812,0 -0.90234,0.429687 -0.32031,0.429688 -0.32031,1.210938 0,0.777343 0.32031,1.207031 0.32422,0.429687 0.90234,0.429687 0.58204,0 0.90235,-0.429687 0.32422,-0.429688 0.32422,-1.207031 z m 0.71875,1.695312 q 0,1.117188 -0.4961,1.660156 -0.49609,0.546875 -1.51953,0.546875 -0.3789,0 -0.71484,-0.05859 -0.33594,-0.05469 -0.65235,-0.171875 v -0.699219 q 0.31641,0.171875 0.625,0.253906 0.3086,0.08203 0.62891,0.08203 0.70703,0 1.05859,-0.371093 0.35157,-0.367188 0.35157,-1.113282 v -0.355468 q -0.22266,0.386718 -0.57032,0.578125 -0.34765,0.191406 -0.83203,0.191406 -0.80468,0 -1.29687,-0.613281 -0.49219,-0.613282 -0.49219,-1.625 0,-1.015625 0.49219,-1.628907 0.49219,-0.613281 1.29687,-0.613281 0.48438,0 0.83203,0.191406 0.34766,0.191407 0.57032,0.578125 v -0.664062 h 0.71875 z" />
    <path
       id="path1517"
       style="font-size:8px;stroke-width:0.75;stroke-linecap:butt;stroke-linejoin:round"
       d="m 173.51334,42.660782 v 0.597656 h -0.6875 q -0.38671,0 -0.53906,0.15625 -0.14844,0.15625 -0.14844,0.5625 v 0.386719 h 1.1836 v 0.558594 h -1.1836 v 3.816406 h -0.72265 v -3.816406 h -0.6875 v -0.558594 h 0.6875 v -0.304688 q 0,-0.730468 0.33984,-1.0625 0.33985,-0.335937 1.07813,-0.335937 z" />
    <path
       id="path1519"
       style="font-size:8px;stroke-width:0.75;stroke-linecap:butt;stroke-linejoin:round"
       d="m 174.03678,47.012344 v -2.648437 h 0.71875 v 2.621094 q 0,0.621093 0.24219,0.933593 0.24219,0.308594 0.72656,0.308594 0.58203,0 0.91797,-0.371094 0.33984,-0.371093 0.33984,-1.011718 v -2.480469 h 0.71875 v 4.375 h -0.71875 v -0.671875 q -0.26171,0.398437 -0.60937,0.59375 -0.34375,0.191406 -0.80078,0.191406 -0.75391,0 -1.14453,-0.46875 -0.39063,-0.46875 -0.39063,-1.371094 z m 1.8086,-2.753906 z" />
    <path
       id="path1521"
       style="font-size:8px;stroke-width:0.75;stroke-linecap:butt;stroke-linejoin:round"
       d="m 181.97819,44.492813 v 0.679688 q -0.30469,-0.15625 -0.63281,-0.234375 -0.32813,-0.07813 -0.67969,-0.07813 -0.53516,0 -0.80469,0.164062 -0.26562,0.164063 -0.26562,0.492188 0,0.25 0.1914,0.394531 0.19141,0.140625 0.76953,0.269531 l 0.2461,0.05469 q 0.76562,0.164062 1.08593,0.464843 0.32422,0.296875 0.32422,0.832032 0,0.609375 -0.48437,0.964843 -0.48047,0.355469 -1.32422,0.355469 -0.35156,0 -0.73438,-0.07031 -0.3789,-0.06641 -0.80078,-0.203125 v -0.742188 q 0.39844,0.207031 0.78516,0.3125 0.38672,0.101563 0.76562,0.101563 0.50782,0 0.78125,-0.171875 0.27344,-0.175782 0.27344,-0.492188 0,-0.292969 -0.19922,-0.449219 -0.19531,-0.15625 -0.86328,-0.300781 l -0.25,-0.05859 q -0.66797,-0.140625 -0.96484,-0.429687 -0.29688,-0.292969 -0.29688,-0.800781 0,-0.617188 0.4375,-0.953125 0.4375,-0.335938 1.24219,-0.335938 0.39844,0 0.75,0.05859 0.35156,0.05859 0.64844,0.175781 z" />
    <path
       id="path1523"
       style="font-size:8px;stroke-width:0.75;stroke-linecap:butt;stroke-linejoin:round"
       d="m 183.361,44.363907 h 0.71875 v 4.375 H 183.361 Z m 0,-1.703125 h 0.71875 v 0.910156 H 183.361 Z" />
    <path
       id="path1525"
       style="font-size:8px;stroke-width:0.75;stroke-linecap:butt;stroke-linejoin:round"
       d="m 187.27506,44.867813 q -0.57812,0 -0.91406,0.453125 -0.33594,0.449219 -0.33594,1.234375 0,0.785156 0.33203,1.238281 0.33594,0.449219 0.91797,0.449219 0.57422,0 0.91016,-0.453125 0.33594,-0.453125 0.33594,-1.234375 0,-0.777344 -0.33594,-1.230469 -0.33594,-0.457031 -0.91016,-0.457031 z m 0,-0.609375 q 0.9375,0 1.47266,0.609375 0.53516,0.609375 0.53516,1.6875 0,1.074219 -0.53516,1.6875 -0.53516,0.609375 -1.47266,0.609375 -0.9414,0 -1.47656,-0.609375 -0.53125,-0.613281 -0.53125,-1.6875 0,-1.078125 0.53125,-1.6875 0.53516,-0.609375 1.47656,-0.609375 z" />
    <path
       id="path1527"
       style="font-size:8px;stroke-width:0.75;stroke-linecap:butt;stroke-linejoin:round"
       d="m 194.10709,46.098282 v 2.640625 h -0.71875 v -2.617188 q 0,-0.621093 -0.24218,-0.929687 -0.24219,-0.308594 -0.72657,-0.308594 -0.58203,0 -0.91796,0.371094 -0.33594,0.371094 -0.33594,1.011719 v 2.472656 h -0.72266 v -4.375 h 0.72266 v 0.679687 q 0.25781,-0.394531 0.60547,-0.589843 0.35156,-0.195313 0.80859,-0.195313 0.75391,0 1.14063,0.46875 0.38671,0.464844 0.38671,1.371094 z" />
  </g>
</svg>
