<?xml version="1.0" encoding="UTF-8" standalone="no"?>
<svg
   xmlns:dc="http://purl.org/dc/elements/1.1/"
   xmlns:cc="http://creativecommons.org/ns#"
   xmlns:rdf="http://www.w3.org/1999/02/22-rdf-syntax-ns#"
   xmlns:svg="http://www.w3.org/2000/svg"
   xmlns="http://www.w3.org/2000/svg"
   xmlns:sodipodi="http://sodipodi.sourceforge.net/DTD/sodipodi-0.dtd"
   xmlns:inkscape="http://www.inkscape.org/namespaces/inkscape"
   sodipodi:docname="overfitting.svg"
   inkscape:version="1.0 (1.0+r73+1)"
   id="svg8"
   version="1.1"
   viewBox="0 0 210 297"
   height="297mm"
   width="210mm">
  <defs
     id="defs2">
    <marker
       inkscape:stockid="Arrow1Mend"
       orient="auto"
       refY="0.0"
       refX="0.0"
       id="Arrow1Mend"
       style="overflow:visible;"
       inkscape:isstock="true">
      <path
         id="path4940"
         d="M 0.0,0.0 L 5.0,-5.0 L -12.5,0.0 L 5.0,5.0 L 0.0,0.0 z "
         style="fill-rule:evenodd;stroke:#000000;stroke-width:1pt;stroke-opacity:1;fill:#000000;fill-opacity:1"
         transform="scale(0.4) rotate(180) translate(10,0)" />
    </marker>
    <marker
       inkscape:stockid="Arrow1Mstart"
       orient="auto"
       refY="0.0"
       refX="0.0"
       id="Arrow1Mstart"
       style="overflow:visible"
       inkscape:isstock="true">
      <path
         id="path4937"
         d="M 0.0,0.0 L 5.0,-5.0 L -12.5,0.0 L 5.0,5.0 L 0.0,0.0 z "
         style="fill-rule:evenodd;stroke:#000000;stroke-width:1pt;stroke-opacity:1;fill:#000000;fill-opacity:1"
         transform="scale(0.4) translate(10,0)" />
    </marker>
    <inkscape:path-effect
       effect="bspline"
       id="path-effect390"
       is_visible="true"
       lpeversion="1"
       weight="33.333333"
       steps="2"
       helper_size="0"
       apply_no_weight="true"
       apply_with_weight="true"
       only_selected="false" />
  </defs>
  <sodipodi:namedview
     inkscape:window-maximized="1"
     inkscape:window-y="0"
     inkscape:window-x="0"
     inkscape:window-height="850"
     inkscape:window-width="1600"
     inkscape:object-nodes="false"
     inkscape:snap-intersection-paths="false"
     inkscape:object-paths="false"
     inkscape:snap-smooth-nodes="true"
     inkscape:snap-global="false"
     showgrid="true"
     inkscape:document-rotation="0"
     inkscape:current-layer="layer1"
     inkscape:document-units="mm"
     inkscape:cy="144.90931"
     inkscape:cx="426.48638"
     inkscape:zoom="2.8284273"
     inkscape:pageshadow="2"
     inkscape:pageopacity="0.0"
     borderopacity="1.0"
     bordercolor="#666666"
     pagecolor="#ffffff"
     id="base">
    <inkscape:grid
       type="xygrid"
       id="grid386" />
  </sodipodi:namedview>
  <metadata
     id="metadata5">
    <rdf:RDF>
      <cc:Work
         rdf:about="">
        <dc:format>image/svg+xml</dc:format>
        <dc:type
           rdf:resource="http://purl.org/dc/dcmitype/StillImage" />
        <dc:title></dc:title>
      </cc:Work>
    </rdf:RDF>
  </metadata>
  <g
     id="layer1"
     inkscape:groupmode="layer"
     inkscape:label="Layer 1">
    <text
       id="text852"
       y="35.289616"
       x="73.539742"
       style="font-weight:bold;font-size:3.52777px;line-height:1.25;font-family:sans-serif;-inkscape-font-specification:'sans-serif Bold';stroke-width:0.264583"
       xml:space="preserve"><tspan
         style="stroke-width:0.264583"
         y="35.289616"
         x="73.539742"
         id="tspan850"
         sodipodi:role="line" /></text>
    <rect
       y="27.705719"
       x="35.951572"
       height="49.94857"
       width="104.3011"
       id="rect10"
       style="opacity:0.940252;fill:none;fill-rule:evenodd;stroke:#000000;stroke-width:0.5;stroke-miterlimit:4;stroke-dasharray:none;stroke-opacity:0.938464" />
    <path
       sodipodi:nodetypes="czc"
       id="path835"
       d="m 37.922932,27.873853 c -0.338521,1.179337 -2.763084,45.824298 11.770507,46.125737 14.533591,0.301439 87.006811,2.515995 87.507791,1.639285"
       style="fill:none;stroke:#006165;stroke-width:0.264583;stroke-linecap:butt;stroke-linejoin:miter;stroke-miterlimit:4;stroke-dasharray:1.05833, 0.264583;stroke-dashoffset:0;stroke-opacity:1" />
    <rect
       y="29.415918"
       x="105.35551"
       height="9.4146519"
       width="32.708305"
       id="rect858"
       style="opacity:0.940252;fill:none;fill-rule:evenodd;stroke:#000000;stroke-width:0.414004;stroke-linejoin:miter;stroke-miterlimit:4;stroke-dasharray:none;stroke-dashoffset:0;stroke-opacity:0.938464" />
    <path
       sodipodi:nodetypes="csscc"
       id="path837"
       d="m 38.840128,28.008092 c -1.337856,0.225918 -2.20454,44.000893 10.88003,44.3316 5.644115,0.142652 16.182863,1.253702 21.96083,0.951839 12.055642,-0.629831 26.180749,-2.376848 30.134932,-2.196447 22.04153,-0.20399 19.58369,-7.384408 36.50364,-10.718517"
       style="fill:none;stroke:#f6a800;stroke-width:0.4;stroke-linecap:butt;stroke-linejoin:miter;stroke-miterlimit:4;stroke-dasharray:none;stroke-opacity:1" />
    <path
       id="path868"
       d="m 107.80656,32.091491 4.86108,-0.01338"
       style="fill:none;stroke:#f6a800;stroke-width:0.289064px;stroke-linecap:butt;stroke-linejoin:miter;stroke-opacity:1" />
    <path
       id="path4929"
       d="m 112.58018,70.956719 v 3.965078"
       style="fill:none;stroke:#000000;stroke-width:0.13229167;stroke-linecap:butt;stroke-linejoin:miter;stroke-miterlimit:4;stroke-dasharray:none;stroke-opacity:1;marker-start:url(#Arrow1Mstart);marker-end:url(#Arrow1Mend)" />
    <path
       style="fill:#a11035;stroke:#a11035;stroke-width:0.264583px;stroke-linecap:butt;stroke-linejoin:miter;stroke-opacity:1;fill-opacity:1"
       d="m 69.57153,27.836127 c 0,15.180892 0,30.361523 0,38.630776 0,8.269254 0,9.627077 0,10.984664"
       id="path388"
       inkscape:path-effect="#path-effect390"
       inkscape:original-d="m 69.57153,27.836127 c 2.65e-4,15.180892 2.65e-4,30.361523 0,45.541887 2.65e-4,1.358143 2.65e-4,2.715966 0,4.073553" />
    <path
       id="path965"
       d="m 107.85913,36.563186 h 4.929"
       style="fill:none;stroke:#006165;stroke-width:0.280849;stroke-linecap:butt;stroke-linejoin:miter;stroke-miterlimit:4;stroke-dasharray:0.561696, 0.280849;stroke-dashoffset:0;stroke-opacity:1" />
    <path
       style="fill:none;stroke:#000000;stroke-width:0.123825;stroke-linecap:butt;stroke-linejoin:miter;stroke-opacity:1;stroke-miterlimit:4;stroke-dasharray:none"
       d="M 70.687295,72.490427 83.314503,60.736851"
       id="path129" />
    <g
       style="font-size:4.23333px;line-height:1.25;font-family:sans-serif;-inkscape-font-specification:sans-serif;stroke-width:0.264583"
       id="text967"
       aria-label="Error">
      <path
         id="path1316"
         style="font-size:4.23333px;stroke-width:0.264583"
         d="m 23.771544,51.106975 h 1.9513 v 0.351399 h -1.533755 v 0.913639 h 1.469677 v 0.351399 h -1.469677 v 1.118277 h 1.570962 v 0.3514 h -1.988507 z" />
      <path
         id="path1318"
         style="font-size:4.23333px;stroke-width:0.264583"
         d="m 27.775431,52.23352 q -0.06408,-0.03721 -0.14056,-0.05374 -0.07441,-0.0186 -0.165365,-0.0186 -0.32246,0 -0.496093,0.21084 -0.171566,0.208772 -0.171566,0.601513 v 1.219563 h -0.382405 v -2.315103 h 0.382405 v 0.359668 q 0.11989,-0.21084 0.312126,-0.312125 0.192236,-0.103353 0.467154,-0.103353 0.03927,0 0.08682,0.0062 0.04754,0.0041 0.10542,0.01447 z" />
      <path
         id="path1320"
         style="font-size:4.23333px;stroke-width:0.264583"
         d="m 29.445611,52.23352 q -0.06408,-0.03721 -0.140559,-0.05374 -0.07441,-0.0186 -0.165365,-0.0186 -0.322461,0 -0.496093,0.21084 -0.171566,0.208772 -0.171566,0.601513 v 1.219563 h -0.382405 v -2.315103 h 0.382405 v 0.359668 q 0.119889,-0.21084 0.312126,-0.312125 0.192236,-0.103353 0.467154,-0.103353 0.03927,0 0.08682,0.0062 0.04754,0.0041 0.10542,0.01447 z" />
      <path
         id="path1322"
         style="font-size:4.23333px;stroke-width:0.264583"
         d="m 30.654839,52.144636 q -0.305924,0 -0.483691,0.239779 -0.177767,0.237711 -0.177767,0.653189 0,0.415479 0.1757,0.655257 0.177767,0.237711 0.485758,0.237711 0.303857,0 0.481624,-0.239778 0.177767,-0.239778 0.177767,-0.65319 0,-0.411344 -0.177767,-0.651122 -0.177767,-0.241846 -0.481624,-0.241846 z m 0,-0.32246 q 0.496093,0 0.77928,0.32246 0.283187,0.322461 0.283187,0.892968 0,0.568441 -0.283187,0.892968 -0.283187,0.322461 -0.77928,0.322461 -0.49816,0 -0.781347,-0.322461 -0.28112,-0.324527 -0.28112,-0.892968 0,-0.570507 0.28112,-0.892968 0.283187,-0.32246 0.781347,-0.32246 z" />
      <path
         id="path1324"
         style="font-size:4.23333px;stroke-width:0.264583"
         d="m 33.68721,52.23352 q -0.06408,-0.03721 -0.14056,-0.05374 -0.07441,-0.0186 -0.165365,-0.0186 -0.32246,0 -0.496093,0.21084 -0.171566,0.208772 -0.171566,0.601513 v 1.219563 h -0.382405 v -2.315103 h 0.382405 v 0.359668 q 0.11989,-0.21084 0.312126,-0.312125 0.192236,-0.103353 0.467154,-0.103353 0.03927,0 0.08682,0.0062 0.04754,0.0041 0.105419,0.01447 z" />
    </g>
    <g
       transform="translate(1.4600055,3.1055744)"
       style="font-size:3.175px;line-height:1.25;font-family:sans-serif;-inkscape-font-specification:sans-serif;stroke-width:0.264583"
       id="text975"
       aria-label="Underfitting zone">
      <path
         id="path1075"
         style="font-size:3.175px;stroke-width:0.264583"
         d="m 38.880147,30.089973 h 0.314709 v 1.406115 q 0,0.372071 0.134876,0.536402 0.134875,0.162781 0.437182,0.162781 0.300757,0 0.435633,-0.162781 0.134875,-0.164331 0.134875,-0.536402 v -1.406115 h 0.31471 v 1.444873 q 0,0.452685 -0.224793,0.683679 -0.223242,0.230994 -0.660425,0.230994 -0.438733,0 -0.663525,-0.230994 -0.223242,-0.230994 -0.223242,-0.683679 z" />
      <path
         id="path1077"
         style="font-size:3.175px;stroke-width:0.264583"
         d="m 42.672163,31.356562 v 1.047998 h -0.285254 v -1.038696 q 0,-0.246497 -0.09612,-0.36897 -0.09612,-0.122473 -0.288354,-0.122473 -0.230994,0 -0.364319,0.147278 -0.133325,0.147278 -0.133325,0.401526 v 0.981335 h -0.286804 v -1.736328 h 0.286804 v 0.269751 q 0.102319,-0.15658 0.240295,-0.234094 0.139527,-0.07752 0.320911,-0.07752 0.299206,0 0.452685,0.186035 0.153479,0.184485 0.153479,0.544153 z" />
      <path
         id="path1079"
         style="font-size:3.175px;stroke-width:0.264583"
         d="m 44.386787,30.931782 v -0.939478 h 0.285254 v 2.412256 h -0.285254 v -0.260449 q -0.08992,0.155029 -0.227893,0.230994 -0.136425,0.07441 -0.328662,0.07441 -0.314709,0 -0.513147,-0.251148 -0.196887,-0.251147 -0.196887,-0.660425 0,-0.409277 0.196887,-0.660424 0.198438,-0.251148 0.513147,-0.251148 0.192237,0 0.328662,0.07596 0.137976,0.07441 0.227893,0.229444 z m -0.972033,0.606164 q 0,0.31471 0.128674,0.494544 0.130225,0.178283 0.356567,0.178283 0.226343,0 0.356568,-0.178283 0.130224,-0.179834 0.130224,-0.494544 0,-0.314709 -0.130224,-0.492993 -0.130225,-0.179834 -0.356568,-0.179834 -0.226342,0 -0.356567,0.179834 -0.128674,0.178284 -0.128674,0.492993 z" />
      <path
         id="path1081"
         style="font-size:3.175px;stroke-width:0.264583"
         d="m 46.744783,31.465083 v 0.139526 h -1.311548 q 0.0186,0.294556 0.176734,0.449585 0.15968,0.153479 0.443383,0.153479 0.164331,0 0.31781,-0.04031 0.15503,-0.04031 0.306958,-0.120923 v 0.269751 q -0.153479,0.06511 -0.314709,0.09922 -0.161231,0.03411 -0.327112,0.03411 -0.415478,0 -0.658874,-0.241846 -0.241846,-0.241846 -0.241846,-0.654224 0,-0.42633 0.229443,-0.675927 0.230994,-0.251148 0.621668,-0.251148 0.350366,0 0.553454,0.226343 0.204639,0.224792 0.204639,0.612366 z m -0.285254,-0.08372 q -0.0031,-0.234094 -0.131775,-0.373621 -0.127124,-0.139526 -0.337964,-0.139526 -0.238745,0 -0.382922,0.134875 -0.142627,0.134876 -0.164331,0.379822 z" />
      <path
         id="path1083"
         style="font-size:3.175px;stroke-width:0.264583"
         d="m 48.219112,30.934882 q -0.04806,-0.02791 -0.10542,-0.04031 -0.05581,-0.01395 -0.124024,-0.01395 -0.241845,0 -0.37207,0.15813 -0.128674,0.15658 -0.128674,0.451135 v 0.914673 h -0.286805 v -1.736328 h 0.286805 v 0.269751 q 0.08992,-0.15813 0.234094,-0.234094 0.144177,-0.07752 0.350366,-0.07752 0.02946,0 0.06511,0.0047 0.03566,0.0031 0.07906,0.01085 z" />
      <path
         id="path1085"
         style="font-size:3.175px;stroke-width:0.264583"
         d="m 49.924433,30.668232 v 1.736328 h -0.286804 v -1.514636 h -0.782898 v 1.514636 h -0.286804 v -1.514636 h -0.272851 v -0.221692 h 0.272851 v -0.120923 q 0,-0.283703 0.133325,-0.418579 0.134876,-0.136426 0.412378,-0.136426 h 0.286804 v 0.237195 h -0.272851 q -0.153479,0 -0.213941,0.06201 -0.05891,0.06201 -0.05891,0.223242 v 0.153479 z m -0.286804,-0.672827 h 0.286804 v 0.361218 h -0.286804 z" />
      <path
         id="path1087"
         style="font-size:3.175px;stroke-width:0.264583"
         d="m 50.806551,30.175239 v 0.492993 h 0.587561 v 0.221692 h -0.587561 v 0.942578 q 0,0.21239 0.05736,0.272852 0.05891,0.06046 0.237195,0.06046 h 0.293005 v 0.238745 h -0.293005 q -0.330213,0 -0.455786,-0.122473 -0.125574,-0.124023 -0.125574,-0.449585 v -0.942578 h -0.20929 v -0.221692 h 0.20929 v -0.492993 z" />
      <path
         id="path1089"
         style="font-size:3.175px;stroke-width:0.264583"
         d="m 52.052986,30.175239 v 0.492993 h 0.587561 v 0.221692 h -0.587561 v 0.942578 q 0,0.21239 0.05736,0.272852 0.05891,0.06046 0.237195,0.06046 h 0.293005 v 0.238745 h -0.293005 q -0.330213,0 -0.455786,-0.122473 -0.125574,-0.124023 -0.125574,-0.449585 v -0.942578 h -0.20929 v -0.221692 h 0.20929 v -0.492993 z" />
      <path
         id="path1091"
         style="font-size:3.175px;stroke-width:0.264583"
         d="m 53.017268,30.668232 h 0.285254 v 1.736328 h -0.285254 z m 0,-0.675928 h 0.285254 v 0.361219 h -0.285254 z" />
      <path
         id="path1093"
         style="font-size:3.175px;stroke-width:0.264583"
         d="m 55.341157,31.356562 v 1.047998 h -0.285254 v -1.038696 q 0,-0.246497 -0.09612,-0.36897 -0.09612,-0.122473 -0.288354,-0.122473 -0.230994,0 -0.364319,0.147278 -0.133325,0.147278 -0.133325,0.401526 v 0.981335 h -0.286804 v -1.736328 h 0.286804 v 0.269751 q 0.102319,-0.15658 0.240295,-0.234094 0.139526,-0.07752 0.320911,-0.07752 0.299206,0 0.452685,0.186035 0.153479,0.184485 0.153479,0.544153 z" />
      <path
         id="path1095"
         style="font-size:3.175px;stroke-width:0.264583"
         d="m 57.055782,31.516242 q 0,-0.310058 -0.128674,-0.480591 -0.127124,-0.170532 -0.358118,-0.170532 -0.229443,0 -0.358117,0.170532 -0.127124,0.170533 -0.127124,0.480591 0,0.308509 0.127124,0.479041 0.128674,0.170532 0.358117,0.170532 0.230994,0 0.358118,-0.170532 0.128674,-0.170532 0.128674,-0.479041 z m 0.285254,0.672827 q 0,0.443384 -0.196887,0.658875 -0.196887,0.217041 -0.603064,0.217041 -0.150378,0 -0.283704,-0.02325 -0.133325,-0.0217 -0.258898,-0.06821 v -0.277503 q 0.125573,0.06821 0.248046,0.100769 0.122474,0.03256 0.249598,0.03256 0.280603,0 0.420129,-0.147277 0.139526,-0.145728 0.139526,-0.441834 v -0.141077 q -0.08837,0.153479 -0.226342,0.229444 -0.137977,0.07596 -0.330213,0.07596 -0.31936,0 -0.514697,-0.243396 -0.195337,-0.243396 -0.195337,-0.644922 0,-0.403076 0.195337,-0.646472 0.195337,-0.243396 0.514697,-0.243396 0.192236,0 0.330213,0.07596 0.137976,0.07597 0.226342,0.229444 v -0.26355 h 0.285254 z" />
      <path
         id="path1097"
         style="font-size:3.175px;stroke-width:0.264583"
         d="m 58.815364,30.668232 h 1.354956 v 0.260449 l -1.072803,1.247986 h 1.072803 v 0.227893 h -1.393714 v -0.260449 l 1.072803,-1.247986 h -1.034045 z" />
      <path
         id="path1099"
         style="font-size:3.175px;stroke-width:0.264583"
         d="m 61.28033,30.86822 q -0.229443,0 -0.362769,0.179834 -0.133325,0.178283 -0.133325,0.489892 0,0.311609 0.131775,0.491443 0.133325,0.178284 0.364319,0.178284 0.227893,0 0.361218,-0.179834 0.133325,-0.179834 0.133325,-0.489893 0,-0.308508 -0.133325,-0.488342 Q 61.508223,30.86822 61.28033,30.86822 Z m 0,-0.241846 q 0.37207,0 0.58446,0.241846 0.21239,0.241845 0.21239,0.669726 0,0.426331 -0.21239,0.669727 -0.21239,0.241846 -0.58446,0.241846 -0.373621,0 -0.586011,-0.241846 -0.21084,-0.243396 -0.21084,-0.669727 0,-0.427881 0.21084,-0.669726 0.21239,-0.241846 0.586011,-0.241846 z" />
      <path
         id="path1101"
         style="font-size:3.175px;stroke-width:0.264583"
         d="m 63.991793,31.356562 v 1.047998 h -0.285254 v -1.038696 q 0,-0.246497 -0.09612,-0.36897 -0.09612,-0.122473 -0.288355,-0.122473 -0.230993,0 -0.364318,0.147278 -0.133326,0.147278 -0.133326,0.401526 v 0.981335 h -0.286804 v -1.736328 h 0.286804 v 0.269751 q 0.10232,-0.15658 0.240296,-0.234094 0.139526,-0.07752 0.32091,-0.07752 0.299207,0 0.452686,0.186035 0.153479,0.184485 0.153479,0.544153 z" />
      <path
         id="path1103"
         style="font-size:3.175px;stroke-width:0.264583"
         d="m 66.049032,31.465083 v 0.139526 h -1.311548 q 0.0186,0.294556 0.176733,0.449585 0.159681,0.153479 0.443384,0.153479 0.164331,0 0.31781,-0.04031 0.155029,-0.04031 0.306958,-0.120923 v 0.269751 q -0.153479,0.06511 -0.314709,0.09922 -0.161231,0.03411 -0.327112,0.03411 -0.415479,0 -0.658875,-0.241846 -0.241845,-0.241846 -0.241845,-0.654224 0,-0.42633 0.229443,-0.675927 0.230994,-0.251148 0.621668,-0.251148 0.350366,0 0.553454,0.226343 0.204639,0.224792 0.204639,0.612366 z m -0.285254,-0.08372 q -0.0031,-0.234094 -0.131775,-0.373621 -0.127124,-0.139526 -0.337964,-0.139526 -0.238745,0 -0.382922,0.134875 -0.142627,0.134876 -0.164331,0.379822 z" />
    </g>
    <g
       transform="translate(0.45704169,1.0003182)"
       style="font-size:3.175px;line-height:1.25;font-family:sans-serif;-inkscape-font-specification:sans-serif;stroke-width:0.264583"
       id="text979"
       aria-label="Overfitting zone">
      <path
         id="path1106"
         style="font-size:3.175px;stroke-width:0.264583"
         d="m 72.102695,32.561732 q -0.341065,0 -0.542603,0.254248 -0.199988,0.254248 -0.199988,0.692981 0,0.437182 0.199988,0.69143 0.201538,0.254248 0.542603,0.254248 0.341064,0 0.539502,-0.254248 0.199987,-0.254248 0.199987,-0.69143 0,-0.438733 -0.199987,-0.692981 -0.198438,-0.254248 -0.539502,-0.254248 z m 0,-0.254248 q 0.486792,0 0.778247,0.327112 0.291455,0.325561 0.291455,0.874365 0,0.547253 -0.291455,0.874365 -0.291455,0.325561 -0.778247,0.325561 -0.488343,0 -0.781348,-0.325561 -0.291455,-0.325562 -0.291455,-0.874365 0,-0.548804 0.291455,-0.874365 0.293005,-0.327112 0.781348,-0.327112 z" />
      <path
         id="path1108"
         style="font-size:3.175px;stroke-width:0.264583"
         d="m 73.445248,32.927601 h 0.302308 l 0.542602,1.457275 0.542603,-1.457275 h 0.302307 l -0.651123,1.736328 h -0.387574 z" />
      <path
         id="path1110"
         style="font-size:3.175px;stroke-width:0.264583"
         d="m 77.014023,33.724451 v 0.139527 h -1.311548 q 0.0186,0.294555 0.176733,0.449585 0.159681,0.153479 0.443384,0.153479 0.164331,0 0.31781,-0.04031 0.15503,-0.04031 0.306958,-0.120923 v 0.269751 q -0.153479,0.06511 -0.314709,0.09922 -0.161231,0.03411 -0.327112,0.03411 -0.415478,0 -0.658874,-0.241845 -0.241846,-0.241846 -0.241846,-0.654224 0,-0.42633 0.229443,-0.675928 0.230994,-0.251147 0.621668,-0.251147 0.350366,0 0.553454,0.226343 0.204639,0.224792 0.204639,0.612365 z m -0.285254,-0.08372 q -0.0031,-0.234095 -0.131775,-0.373621 -0.127124,-0.139526 -0.337964,-0.139526 -0.238745,0 -0.382922,0.134875 -0.142627,0.134876 -0.164331,0.379822 z" />
      <path
         id="path1112"
         style="font-size:3.175px;stroke-width:0.264583"
         d="m 78.488352,33.194251 q -0.04806,-0.02791 -0.10542,-0.04031 -0.05581,-0.01395 -0.124024,-0.01395 -0.241846,0 -0.37207,0.15813 -0.128674,0.156579 -0.128674,0.451135 v 0.914673 h -0.286805 v -1.736328 h 0.286805 v 0.269751 q 0.08992,-0.15813 0.234094,-0.234094 0.144177,-0.07752 0.350366,-0.07752 0.02946,0 0.06511,0.0047 0.03566,0.0031 0.07906,0.01085 z" />
      <path
         id="path1114"
         style="font-size:3.175px;stroke-width:0.264583"
         d="m 80.193674,32.927601 v 1.736328 H 79.90687 v -1.514636 h -0.782898 v 1.514636 h -0.286804 v -1.514636 h -0.272852 v -0.221692 h 0.272852 v -0.120923 q 0,-0.283704 0.133325,-0.418579 0.134875,-0.136426 0.412378,-0.136426 h 0.286804 v 0.237195 h -0.272852 q -0.153479,0 -0.21394,0.06201 -0.05891,0.06201 -0.05891,0.223242 v 0.153479 z M 79.90687,32.254774 h 0.286804 v 0.361218 H 79.90687 Z" />
      <path
         id="path1116"
         style="font-size:3.175px;stroke-width:0.264583"
         d="m 81.07579,32.434608 v 0.492993 h 0.587561 v 0.221692 H 81.07579 v 0.942578 q 0,0.21239 0.05736,0.272851 0.05891,0.06046 0.237195,0.06046 h 0.293005 v 0.238745 h -0.293005 q -0.330212,0 -0.455786,-0.122473 -0.125574,-0.124024 -0.125574,-0.449585 v -0.942578 h -0.209289 v -0.221692 h 0.209289 v -0.492993 z" />
      <path
         id="path1118"
         style="font-size:3.175px;stroke-width:0.264583"
         d="m 82.322226,32.434608 v 0.492993 h 0.587561 v 0.221692 h -0.587561 v 0.942578 q 0,0.21239 0.05736,0.272851 0.05891,0.06046 0.237195,0.06046 h 0.293006 v 0.238745 h -0.293006 q -0.330212,0 -0.455786,-0.122473 -0.125574,-0.124024 -0.125574,-0.449585 v -0.942578 h -0.209289 v -0.221692 h 0.209289 v -0.492993 z" />
      <path
         id="path1120"
         style="font-size:3.175px;stroke-width:0.264583"
         d="m 83.286508,32.927601 h 0.285254 v 1.736328 h -0.285254 z m 0,-0.675928 h 0.285254 v 0.361218 h -0.285254 z" />
      <path
         id="path1122"
         style="font-size:3.175px;stroke-width:0.264583"
         d="m 85.610398,33.615931 v 1.047998 h -0.285254 v -1.038696 q 0,-0.246497 -0.09612,-0.36897 -0.09612,-0.122473 -0.288355,-0.122473 -0.230994,0 -0.364319,0.147278 -0.133325,0.147278 -0.133325,0.401526 v 0.981335 h -0.286804 v -1.736328 h 0.286804 v 0.269751 q 0.102319,-0.15658 0.240296,-0.234094 0.139526,-0.07752 0.32091,-0.07752 0.299207,0 0.452686,0.186035 0.153479,0.184485 0.153479,0.544153 z" />
      <path
         id="path1124"
         style="font-size:3.175px;stroke-width:0.264583"
         d="m 87.325022,33.775611 q 0,-0.310058 -0.128675,-0.480591 -0.127124,-0.170532 -0.358117,-0.170532 -0.229444,0 -0.358118,0.170532 -0.127124,0.170533 -0.127124,0.480591 0,0.308508 0.127124,0.479041 0.128674,0.170532 0.358118,0.170532 0.230993,0 0.358117,-0.170532 0.128675,-0.170533 0.128675,-0.479041 z m 0.285254,0.672827 q 0,0.443384 -0.196888,0.658875 -0.196887,0.217041 -0.603064,0.217041 -0.150378,0 -0.283703,-0.02325 -0.133325,-0.0217 -0.258899,-0.06821 v -0.277502 q 0.125574,0.06821 0.248047,0.100769 0.122473,0.03256 0.249597,0.03256 0.280603,0 0.420129,-0.147278 0.139527,-0.145727 0.139527,-0.441833 v -0.141077 q -0.08837,0.153479 -0.226343,0.229444 -0.137976,0.07596 -0.330212,0.07596 -0.319361,0 -0.514698,-0.243396 -0.195337,-0.243396 -0.195337,-0.644922 0,-0.403076 0.195337,-0.646472 0.195337,-0.243396 0.514698,-0.243396 0.192236,0 0.330212,0.07596 0.137976,0.07597 0.226343,0.229444 v -0.26355 h 0.285254 z" />
      <path
         id="path1126"
         style="font-size:3.175px;stroke-width:0.264583"
         d="m 89.084603,32.927601 h 1.354956 v 0.260449 l -1.072803,1.247986 h 1.072803 v 0.227893 H 89.045846 V 34.40348 l 1.072803,-1.247986 h -1.034046 z" />
      <path
         id="path1128"
         style="font-size:3.175px;stroke-width:0.264583"
         d="m 91.549569,33.127589 q -0.229443,0 -0.362768,0.179834 -0.133325,0.178283 -0.133325,0.489892 0,0.311609 0.131774,0.491443 0.133326,0.178284 0.364319,0.178284 0.227893,0 0.361219,-0.179834 0.133325,-0.179834 0.133325,-0.489893 0,-0.308508 -0.133325,-0.488342 -0.133326,-0.181384 -0.361219,-0.181384 z m 0,-0.241846 q 0.372071,0 0.584461,0.241846 0.21239,0.241845 0.21239,0.669726 0,0.426331 -0.21239,0.669727 -0.21239,0.241845 -0.584461,0.241845 -0.37362,0 -0.58601,-0.241845 -0.21084,-0.243396 -0.21084,-0.669727 0,-0.427881 0.21084,-0.669726 0.21239,-0.241846 0.58601,-0.241846 z" />
      <path
         id="path1130"
         style="font-size:3.175px;stroke-width:0.264583"
         d="m 94.261032,33.615931 v 1.047998 h -0.285253 v -1.038696 q 0,-0.246497 -0.09612,-0.36897 -0.09612,-0.122473 -0.288354,-0.122473 -0.230994,0 -0.364319,0.147278 -0.133325,0.147278 -0.133325,0.401526 v 0.981335 h -0.286804 v -1.736328 h 0.286804 v 0.269751 q 0.102319,-0.15658 0.240295,-0.234094 0.139527,-0.07752 0.320911,-0.07752 0.299206,0 0.452685,0.186035 0.153479,0.184485 0.153479,0.544153 z" />
      <path
         id="path1132"
         style="font-size:3.175px;stroke-width:0.264583"
         d="m 96.318271,33.724451 v 0.139527 h -1.311548 q 0.0186,0.294555 0.176734,0.449585 0.15968,0.153479 0.443384,0.153479 0.164331,0 0.31781,-0.04031 0.155029,-0.04031 0.306958,-0.120923 v 0.269751 q -0.153479,0.06511 -0.31471,0.09922 -0.16123,0.03411 -0.327112,0.03411 -0.415478,0 -0.658874,-0.241845 -0.241846,-0.241846 -0.241846,-0.654224 0,-0.42633 0.229444,-0.675928 0.230993,-0.251147 0.621667,-0.251147 0.350366,0 0.553455,0.226343 0.204638,0.224792 0.204638,0.612365 z m -0.285254,-0.08372 q -0.0031,-0.234095 -0.131775,-0.373621 -0.127124,-0.139526 -0.337963,-0.139526 -0.238746,0 -0.382923,0.134875 -0.142627,0.134876 -0.164331,0.379822 z" />
    </g>
    <g
       style="font-size:3.175px;line-height:1.25;font-family:sans-serif;-inkscape-font-specification:sans-serif;stroke-width:0.264583"
       id="text983"
       aria-label="Validation Gap">
      <path
         id="path1231"
         style="font-size:3.175px;stroke-width:0.264583"
         d="m 115.25009,73.81517 -0.88367,-2.314587 h 0.32711 l 0.73329,1.948718 0.73484,-1.948718 h 0.32556 l -0.88212,2.314587 z" />
      <path
         id="path1233"
         style="font-size:3.175px;stroke-width:0.264583"
         d="m 117.35228,72.942355 q -0.34571,0 -0.47904,0.07906 -0.13332,0.07906 -0.13332,0.269751 0,0.151929 0.0992,0.241846 0.10076,0.08837 0.27285,0.08837 0.23719,0 0.37982,-0.167432 0.14418,-0.168982 0.14418,-0.448035 v -0.06356 z m 0.56896,-0.117822 v 0.990637 h -0.28525 v -0.26355 q -0.0977,0.15813 -0.2434,0.234095 -0.14573,0.07441 -0.35657,0.07441 -0.26665,0 -0.42478,-0.148828 -0.15658,-0.150379 -0.15658,-0.401526 0,-0.293006 0.19534,-0.441834 0.19689,-0.148828 0.58601,-0.148828 h 0.39998 v -0.0279 q 0,-0.196887 -0.13023,-0.303858 -0.12867,-0.10852 -0.36277,-0.10852 -0.14882,0 -0.2899,0.03566 -0.14108,0.03566 -0.2713,0.10697 v -0.26355 q 0.15658,-0.06046 0.30385,-0.08992 0.14728,-0.03101 0.28681,-0.03101 0.37672,0 0.56276,0.195337 0.18603,0.195337 0.18603,0.592212 z" />
      <path
         id="path1235"
         style="font-size:3.175px;stroke-width:0.264583"
         d="m 118.51035,71.402914 h 0.28526 v 2.412256 h -0.28526 z" />
      <path
         id="path1237"
         style="font-size:3.175px;stroke-width:0.264583"
         d="m 119.39092,72.078842 h 0.28525 v 1.736328 h -0.28525 z m 0,-0.675928 h 0.28525 v 0.361219 h -0.28525 z" />
      <path
         id="path1239"
         style="font-size:3.175px;stroke-width:0.264583"
         d="m 121.41405,72.342392 v -0.939478 h 0.28525 v 2.412256 h -0.28525 v -0.260449 q -0.0899,0.155029 -0.22789,0.230994 -0.13643,0.07441 -0.32867,0.07441 -0.3147,0 -0.51314,-0.251148 -0.19689,-0.251147 -0.19689,-0.660424 0,-0.409278 0.19689,-0.660425 0.19844,-0.251148 0.51314,-0.251148 0.19224,0 0.32867,0.07596 0.13797,0.07441 0.22789,0.229443 z m -0.97203,0.606165 q 0,0.314709 0.12867,0.494543 0.13023,0.178284 0.35657,0.178284 0.22634,0 0.35657,-0.178284 0.13022,-0.179834 0.13022,-0.494543 0,-0.31471 -0.13022,-0.492994 -0.13023,-0.179834 -0.35657,-0.179834 -0.22634,0 -0.35657,0.179834 -0.12867,0.178284 -0.12867,0.492994 z" />
      <path
         id="path1241"
         style="font-size:3.175px;stroke-width:0.264583"
         d="m 123.07596,72.942355 q -0.34571,0 -0.47904,0.07906 -0.13332,0.07906 -0.13332,0.269751 0,0.151929 0.0992,0.241846 0.10077,0.08837 0.27285,0.08837 0.23719,0 0.37982,-0.167432 0.14418,-0.168982 0.14418,-0.448035 v -0.06356 z m 0.56896,-0.117822 v 0.990637 h -0.28525 v -0.26355 q -0.0977,0.15813 -0.2434,0.234095 -0.14573,0.07441 -0.35657,0.07441 -0.26665,0 -0.42478,-0.148828 -0.15658,-0.150379 -0.15658,-0.401526 0,-0.293006 0.19534,-0.441834 0.19689,-0.148828 0.58601,-0.148828 h 0.39998 v -0.0279 q 0,-0.196887 -0.13023,-0.303858 -0.12867,-0.10852 -0.36277,-0.10852 -0.14882,0 -0.2899,0.03566 -0.14108,0.03566 -0.2713,0.10697 v -0.26355 q 0.15658,-0.06046 0.30386,-0.08992 0.14727,-0.03101 0.2868,-0.03101 0.37672,0 0.56276,0.195337 0.18603,0.195337 0.18603,0.592212 z" />
      <path
         id="path1243"
         style="font-size:3.175px;stroke-width:0.264583"
         d="m 124.51619,71.585849 v 0.492993 h 0.58756 v 0.221692 h -0.58756 v 0.942578 q 0,0.21239 0.0574,0.272852 0.0589,0.06046 0.23719,0.06046 h 0.29301 v 0.238745 h -0.29301 q -0.33021,0 -0.45578,-0.122473 -0.12558,-0.124023 -0.12558,-0.449585 v -0.942578 h -0.20929 v -0.221692 h 0.20929 v -0.492993 z" />
      <path
         id="path1245"
         style="font-size:3.175px;stroke-width:0.264583"
         d="m 125.48047,72.078842 h 0.28525 v 1.736328 h -0.28525 z m 0,-0.675928 h 0.28525 v 0.361219 h -0.28525 z" />
      <path
         id="path1247"
         style="font-size:3.175px;stroke-width:0.264583"
         d="m 127.03386,72.27883 q -0.22944,0 -0.36277,0.179834 -0.13332,0.178284 -0.13332,0.489893 0,0.311608 0.13177,0.491442 0.13333,0.178284 0.36432,0.178284 0.2279,0 0.36122,-0.179834 0.13333,-0.179834 0.13333,-0.489892 0,-0.308509 -0.13333,-0.488343 -0.13332,-0.181384 -0.36122,-0.181384 z m 0,-0.241846 q 0.37207,0 0.58446,0.241846 0.21239,0.241846 0.21239,0.669727 0,0.42633 -0.21239,0.669726 -0.21239,0.241846 -0.58446,0.241846 -0.37362,0 -0.58601,-0.241846 -0.21084,-0.243396 -0.21084,-0.669726 0,-0.427881 0.21084,-0.669727 0.21239,-0.241846 0.58601,-0.241846 z" />
      <path
         id="path1249"
         style="font-size:3.175px;stroke-width:0.264583"
         d="m 129.74532,72.767172 v 1.047998 h -0.28525 v -1.038696 q 0,-0.246497 -0.0961,-0.36897 -0.0961,-0.122473 -0.28835,-0.122473 -0.231,0 -0.36432,0.147278 -0.13333,0.147278 -0.13333,0.401526 v 0.981335 h -0.2868 v -1.736328 h 0.2868 v 0.269751 q 0.10232,-0.156579 0.2403,-0.234094 0.13953,-0.07751 0.32091,-0.07751 0.29921,0 0.45269,0.186035 0.15347,0.184485 0.15347,0.544153 z" />
      <path
         id="path1251"
         style="font-size:3.175px;stroke-width:0.264583"
         d="M 132.91877,73.484958 V 72.86329 h -0.51159 v -0.257348 h 0.82165 v 0.993738 q -0.18138,0.128674 -0.39997,0.195336 -0.21859,0.06511 -0.46664,0.06511 -0.5426,0 -0.84956,-0.31626 -0.30541,-0.31781 -0.30541,-0.883667 0,-0.567407 0.30541,-0.883667 0.30696,-0.31781 0.84956,-0.31781 0.22634,0 0.42943,0.05581 0.20464,0.05581 0.37672,0.164331 v 0.333313 q -0.17363,-0.147278 -0.36897,-0.221692 -0.19534,-0.07441 -0.41083,-0.07441 -0.42478,0 -0.63872,0.237194 -0.21239,0.237195 -0.21239,0.706934 0,0.468189 0.21239,0.705383 0.21394,0.237195 0.63872,0.237195 0.16589,0 0.29611,-0.0279 0.13022,-0.02946 0.23409,-0.08992 z" />
      <path
         id="path1253"
         style="font-size:3.175px;stroke-width:0.264583"
         d="m 134.57914,72.942355 q -0.34572,0 -0.47904,0.07906 -0.13333,0.07906 -0.13333,0.269751 0,0.151929 0.0992,0.241846 0.10077,0.08837 0.27285,0.08837 0.2372,0 0.37983,-0.167432 0.14417,-0.168982 0.14417,-0.448035 v -0.06356 z m 0.56896,-0.117822 v 0.990637 h -0.28526 v -0.26355 q -0.0977,0.15813 -0.24339,0.234095 -0.14573,0.07441 -0.35657,0.07441 -0.26665,0 -0.42478,-0.148828 -0.15658,-0.150379 -0.15658,-0.401526 0,-0.293006 0.19534,-0.441834 0.19688,-0.148828 0.58601,-0.148828 h 0.39997 v -0.0279 q 0,-0.196887 -0.13022,-0.303858 -0.12868,-0.10852 -0.36277,-0.10852 -0.14883,0 -0.28991,0.03566 -0.14107,0.03566 -0.2713,0.10697 v -0.26355 q 0.15658,-0.06046 0.30386,-0.08992 0.14728,-0.03101 0.2868,-0.03101 0.37673,0 0.56276,0.195337 0.18604,0.195337 0.18604,0.592212 z" />
      <path
         id="path1255"
         style="font-size:3.175px;stroke-width:0.264583"
         d="m 136.01316,73.554721 v 0.920874 h -0.28681 v -2.396753 h 0.28681 v 0.26355 q 0.0899,-0.155029 0.22634,-0.229443 0.13798,-0.07596 0.32866,-0.07596 0.31626,0 0.51315,0.251148 0.19844,0.251147 0.19844,0.660425 0,0.409277 -0.19844,0.660424 -0.19689,0.251148 -0.51315,0.251148 -0.19068,0 -0.32866,-0.07441 -0.13642,-0.07596 -0.22634,-0.230994 z m 0.97048,-0.606164 q 0,-0.31471 -0.13022,-0.492994 -0.12868,-0.179834 -0.35502,-0.179834 -0.22634,0 -0.35657,0.179834 -0.12867,0.178284 -0.12867,0.492994 0,0.314709 0.12867,0.494543 0.13023,0.178284 0.35657,0.178284 0.22634,0 0.35502,-0.178284 0.13022,-0.179834 0.13022,-0.494543 z" />
    </g>
    <g
       style="font-size:3.175px;line-height:1.25;font-family:sans-serif;-inkscape-font-specification:sans-serif;stroke-width:0.264583"
       id="text987"
       aria-label="Optimal Capacity">
      <path
         id="path1183"
         style="font-size:3.175px;stroke-width:0.264583"
         d="m 77.164416,56.837439 q -0.341064,0 -0.542602,0.254248 -0.199988,0.254248 -0.199988,0.692981 0,0.437183 0.199988,0.691431 0.201538,0.254248 0.542602,0.254248 0.341065,0 0.539502,-0.254248 0.199988,-0.254248 0.199988,-0.691431 0,-0.438733 -0.199988,-0.692981 -0.198437,-0.254248 -0.539502,-0.254248 z m 0,-0.254248 q 0.486792,0 0.778248,0.327112 0.291455,0.325561 0.291455,0.874365 0,0.547253 -0.291455,0.874365 -0.291456,0.325562 -0.778248,0.325562 -0.488342,0 -0.781347,-0.325562 -0.291455,-0.325561 -0.291455,-0.874365 0,-0.548804 0.291455,-0.874365 0.293005,-0.327112 0.781347,-0.327112 z" />
      <path
         id="path1185"
         style="font-size:3.175px;stroke-width:0.264583"
         d="m 78.987561,58.679187 v 0.920874 h -0.286804 v -2.396753 h 0.286804 v 0.26355 q 0.08992,-0.155029 0.226343,-0.229443 0.137976,-0.07596 0.328662,-0.07596 0.31626,0 0.513147,0.251148 0.198437,0.251147 0.198437,0.660424 0,0.409278 -0.198437,0.660425 -0.196887,0.251148 -0.513147,0.251148 -0.190686,0 -0.328662,-0.07441 -0.136426,-0.07597 -0.226343,-0.230994 z m 0.970483,-0.606165 q 0,-0.314709 -0.130224,-0.492993 -0.128674,-0.179834 -0.355017,-0.179834 -0.226343,0 -0.356568,0.179834 -0.128674,0.178284 -0.128674,0.492993 0,0.31471 0.128674,0.494544 0.130225,0.178284 0.356568,0.178284 0.226343,0 0.355017,-0.178284 0.130224,-0.179834 0.130224,-0.494544 z" />
      <path
         id="path1187"
         style="font-size:3.175px;stroke-width:0.264583"
         d="m 81.009143,56.710315 v 0.492993 h 0.587561 V 57.425 h -0.587561 v 0.942578 q 0,0.21239 0.05736,0.272852 0.05891,0.06046 0.237195,0.06046 h 0.293005 v 0.238745 h -0.293005 q -0.330213,0 -0.455787,-0.122473 -0.125573,-0.124023 -0.125573,-0.449585 V 57.425 h -0.20929 v -0.221692 h 0.20929 v -0.492993 z" />
      <path
         id="path1189"
         style="font-size:3.175px;stroke-width:0.264583"
         d="m 81.973425,57.203308 h 0.285254 v 1.736328 h -0.285254 z m 0,-0.675928 h 0.285254 v 0.361219 h -0.285254 z" />
      <path
         id="path1191"
         style="font-size:3.175px;stroke-width:0.264583"
         d="m 84.205847,57.536621 q 0.10697,-0.192236 0.255799,-0.283703 0.148828,-0.09147 0.350366,-0.09147 0.271301,0 0.418579,0.190686 0.147278,0.189136 0.147278,0.539502 v 1.047998 H 85.091065 V 57.90094 q 0,-0.249597 -0.08837,-0.37052 -0.08837,-0.120923 -0.269751,-0.120923 -0.221692,0 -0.350366,0.147278 -0.128675,0.147278 -0.128675,0.401526 v 0.981335 H 83.967102 V 57.90094 q 0,-0.251148 -0.08837,-0.37052 -0.08837,-0.120923 -0.272851,-0.120923 -0.218591,0 -0.347266,0.148828 -0.128674,0.147278 -0.128674,0.399976 v 0.981335 H 82.84314 v -1.736328 h 0.286804 v 0.269751 q 0.09767,-0.15968 0.234094,-0.235644 0.136426,-0.07596 0.324011,-0.07596 0.189136,0 0.320911,0.09612 0.133325,0.09612 0.196887,0.279053 z" />
      <path
         id="path1193"
         style="font-size:3.175px;stroke-width:0.264583"
         d="m 86.737476,58.066821 q -0.345716,0 -0.479041,0.07906 -0.133325,0.07906 -0.133325,0.269751 0,0.151929 0.09922,0.241846 0.100769,0.08837 0.272851,0.08837 0.237195,0 0.379822,-0.167432 0.144177,-0.168982 0.144177,-0.448035 v -0.06356 z m 0.568957,-0.117822 v 0.990637 h -0.285254 v -0.26355 q -0.09767,0.15813 -0.243396,0.234095 -0.145727,0.07441 -0.356567,0.07441 -0.266651,0 -0.42478,-0.148828 -0.15658,-0.150379 -0.15658,-0.401526 0,-0.293006 0.195337,-0.441834 0.196887,-0.148828 0.586011,-0.148828 h 0.399975 v -0.0279 q 0,-0.196887 -0.130224,-0.303858 -0.128675,-0.10852 -0.362769,-0.10852 -0.148828,0 -0.289905,0.03566 -0.141076,0.03566 -0.271301,0.10697 v -0.26355 q 0.15658,-0.06046 0.303857,-0.08992 0.147278,-0.03101 0.286805,-0.03101 0.376721,0 0.562756,0.195337 0.186035,0.195337 0.186035,0.592212 z" />
      <path
         id="path1195"
         style="font-size:3.175px;stroke-width:0.264583"
         d="m 87.895545,56.52738 h 0.285254 v 2.412256 h -0.285254 z" />
      <path
         id="path1197"
         style="font-size:3.175px;stroke-width:0.264583"
         d="m 91.532532,56.803333 v 0.330212 q -0.15813,-0.147278 -0.337964,-0.220142 -0.178283,-0.07286 -0.379822,-0.07286 -0.396875,0 -0.607714,0.243396 -0.21084,0.241845 -0.21084,0.700732 0,0.457336 0.21084,0.700732 0.210839,0.241846 0.607714,0.241846 0.201539,0 0.379822,-0.07286 0.179834,-0.07286 0.337964,-0.220141 v 0.327112 q -0.164331,0.111621 -0.348816,0.167431 -0.182934,0.05581 -0.387573,0.05581 -0.525549,0 -0.827856,-0.320911 -0.302308,-0.322461 -0.302308,-0.879016 0,-0.558105 0.302308,-0.879016 0.302307,-0.322461 0.827856,-0.322461 0.207739,0 0.390674,0.05581 0.184485,0.05426 0.345715,0.164332 z" />
      <path
         id="path1199"
         style="font-size:3.175px;stroke-width:0.264583"
         d="m 92.796021,58.066821 q -0.345716,0 -0.479041,0.07906 -0.133325,0.07906 -0.133325,0.269751 0,0.151929 0.09922,0.241846 0.100769,0.08837 0.272851,0.08837 0.237195,0 0.379822,-0.167432 0.144177,-0.168982 0.144177,-0.448035 v -0.06356 z m 0.568957,-0.117822 v 0.990637 h -0.285254 v -0.26355 q -0.09767,0.15813 -0.243396,0.234095 -0.145727,0.07441 -0.356567,0.07441 -0.26665,0 -0.42478,-0.148828 -0.15658,-0.150379 -0.15658,-0.401526 0,-0.293006 0.195337,-0.441834 0.196887,-0.148828 0.586011,-0.148828 h 0.399975 v -0.0279 q 0,-0.196887 -0.130224,-0.303858 -0.128675,-0.10852 -0.362769,-0.10852 -0.148828,0 -0.289905,0.03566 -0.141076,0.03566 -0.271301,0.10697 v -0.26355 q 0.15658,-0.06046 0.303858,-0.08992 0.147277,-0.03101 0.286804,-0.03101 0.376721,0 0.562756,0.195337 0.186035,0.195337 0.186035,0.592212 z" />
      <path
         id="path1201"
         style="font-size:3.175px;stroke-width:0.264583"
         d="m 94.230041,58.679187 v 0.920874 h -0.286804 v -2.396753 h 0.286804 v 0.26355 q 0.08992,-0.155029 0.226343,-0.229443 0.137976,-0.07596 0.328662,-0.07596 0.31626,0 0.513147,0.251148 0.198437,0.251147 0.198437,0.660424 0,0.409278 -0.198437,0.660425 -0.196887,0.251148 -0.513147,0.251148 -0.190686,0 -0.328662,-0.07441 -0.136426,-0.07597 -0.226343,-0.230994 z m 0.970483,-0.606165 q 0,-0.314709 -0.130224,-0.492993 -0.128674,-0.179834 -0.355017,-0.179834 -0.226343,0 -0.356568,0.179834 -0.128674,0.178284 -0.128674,0.492993 0,0.31471 0.128674,0.494544 0.130225,0.178284 0.356568,0.178284 0.226343,0 0.355017,-0.178284 0.130224,-0.179834 0.130224,-0.494544 z" />
      <path
         id="path1203"
         style="font-size:3.175px;stroke-width:0.264583"
         d="m 96.758569,58.066821 q -0.345715,0 -0.479041,0.07906 -0.133325,0.07906 -0.133325,0.269751 0,0.151929 0.09922,0.241846 0.100769,0.08837 0.272852,0.08837 0.237194,0 0.379821,-0.167432 0.144178,-0.168982 0.144178,-0.448035 v -0.06356 z m 0.568957,-0.117822 v 0.990637 h -0.285253 v -0.26355 q -0.09767,0.15813 -0.243396,0.234095 -0.145728,0.07441 -0.356568,0.07441 -0.26665,0 -0.42478,-0.148828 -0.15658,-0.150379 -0.15658,-0.401526 0,-0.293006 0.195337,-0.441834 0.196887,-0.148828 0.586011,-0.148828 h 0.399976 v -0.0279 q 0,-0.196887 -0.130225,-0.303858 -0.128674,-0.10852 -0.362769,-0.10852 -0.148828,0 -0.289904,0.03566 -0.141077,0.03566 -0.271302,0.10697 v -0.26355 q 0.15658,-0.06046 0.303858,-0.08992 0.147278,-0.03101 0.286804,-0.03101 0.376721,0 0.562756,0.195337 0.186035,0.195337 0.186035,0.592212 z" />
      <path
         id="path1205"
         style="font-size:3.175px;stroke-width:0.264583"
         d="m 99.166174,57.269971 v 0.26665 q -0.120923,-0.06666 -0.243396,-0.09922 -0.120923,-0.03411 -0.244946,-0.03411 -0.277502,0 -0.430981,0.176733 -0.153479,0.175183 -0.153479,0.492993 0,0.317811 0.153479,0.494544 0.153479,0.175183 0.430981,0.175183 0.124023,0 0.244946,-0.03256 0.122473,-0.03411 0.243396,-0.100769 v 0.26355 q -0.119372,0.05581 -0.248047,0.08371 -0.127124,0.02791 -0.271301,0.02791 -0.392224,0 -0.623218,-0.246497 -0.230993,-0.246496 -0.230993,-0.665076 0,-0.42478 0.232544,-0.668176 0.234094,-0.243396 0.640271,-0.243396 0.131775,0 0.257348,0.0279 0.125574,0.02636 0.243396,0.08062 z" />
      <path
         id="path1207"
         style="font-size:3.175px;stroke-width:0.264583"
         d="m 99.665368,57.203308 h 0.285254 v 1.736328 h -0.285254 z m 0,-0.675928 h 0.285254 v 0.361219 h -0.285254 z" />
      <path
         id="path1209"
         style="font-size:3.175px;stroke-width:0.264583"
         d="m 100.82809,56.710315 v 0.492993 h 0.58756 V 57.425 h -0.58756 v 0.942578 q 0,0.21239 0.0574,0.272852 0.0589,0.06046 0.23719,0.06046 h 0.29301 v 0.238745 h -0.29301 q -0.33021,0 -0.45578,-0.122473 -0.12558,-0.124023 -0.12558,-0.449585 V 57.425 H 100.332 v -0.221692 h 0.20928 v -0.492993 z" />
      <path
         id="path1211"
         style="font-size:3.175px;stroke-width:0.264583"
         d="m 102.51481,59.100867 q -0.12093,0.310058 -0.23565,0.404626 -0.11472,0.09457 -0.30696,0.09457 h -0.22789 v -0.238745 h 0.16743 q 0.11783,0 0.18294,-0.05581 0.0651,-0.05581 0.14417,-0.263549 l 0.0512,-0.130225 -0.70228,-1.708423 h 0.30231 l 0.5426,1.358057 0.5426,-1.358057 h 0.30231 z" />
    </g>
    <g
       style="font-size:3.175px;line-height:1.25;font-family:sans-serif;-inkscape-font-specification:sans-serif;stroke-width:0.264583"
       id="text991"
       aria-label="Validation Error">
      <path
         id="path1285"
         style="font-size:3.175px;stroke-width:0.264583"
         d="m 113.9779,33.456665 -0.88367,-2.314587 h 0.32711 l 0.73329,1.948718 0.73484,-1.948718 h 0.32556 l -0.88211,2.314587 z" />
      <path
         id="path1287"
         style="font-size:3.175px;stroke-width:0.264583"
         d="m 116.0801,32.58385 q -0.34572,0 -0.47904,0.07906 -0.13333,0.07906 -0.13333,0.269751 0,0.151929 0.0992,0.241846 0.10077,0.08837 0.27285,0.08837 0.2372,0 0.37982,-0.167431 0.14418,-0.168982 0.14418,-0.448035 v -0.06356 z m 0.56895,-0.117822 v 0.990637 h -0.28525 v -0.26355 q -0.0977,0.15813 -0.2434,0.234094 -0.14572,0.07442 -0.35656,0.07442 -0.26665,0 -0.42478,-0.148829 -0.15658,-0.150378 -0.15658,-0.401525 0,-0.293006 0.19533,-0.441834 0.19689,-0.148828 0.58601,-0.148828 h 0.39998 v -0.0279 q 0,-0.196888 -0.13022,-0.303858 -0.12868,-0.10852 -0.36277,-0.10852 -0.14883,0 -0.28991,0.03566 -0.14107,0.03566 -0.2713,0.106971 v -0.26355 q 0.15658,-0.06046 0.30386,-0.08992 0.14728,-0.03101 0.2868,-0.03101 0.37672,0 0.56276,0.195337 0.18603,0.195337 0.18603,0.592212 z" />
      <path
         id="path1289"
         style="font-size:3.175px;stroke-width:0.264583"
         d="m 117.23817,31.044409 h 0.28525 v 2.412256 h -0.28525 z" />
      <path
         id="path1291"
         style="font-size:3.175px;stroke-width:0.264583"
         d="m 118.11873,31.720337 h 0.28526 v 1.736328 h -0.28526 z m 0,-0.675928 h 0.28526 v 0.361218 h -0.28526 z" />
      <path
         id="path1293"
         style="font-size:3.175px;stroke-width:0.264583"
         d="m 120.14186,31.983887 v -0.939478 h 0.28526 v 2.412256 h -0.28526 v -0.260449 q -0.0899,0.155029 -0.22789,0.230993 -0.13643,0.07442 -0.32866,0.07442 -0.31471,0 -0.51315,-0.251148 -0.19689,-0.251147 -0.19689,-0.660425 0,-0.409277 0.19689,-0.660425 0.19844,-0.251147 0.51315,-0.251147 0.19223,0 0.32866,0.07596 0.13798,0.07441 0.22789,0.229444 z m -0.97203,0.606164 q 0,0.31471 0.12867,0.494544 0.13023,0.178283 0.35657,0.178283 0.22634,0 0.35657,-0.178283 0.13022,-0.179834 0.13022,-0.494544 0,-0.314709 -0.13022,-0.492993 -0.13023,-0.179834 -0.35657,-0.179834 -0.22634,0 -0.35657,0.179834 -0.12867,0.178284 -0.12867,0.492993 z" />
      <path
         id="path1295"
         style="font-size:3.175px;stroke-width:0.264583"
         d="m 121.80378,32.58385 q -0.34572,0 -0.47904,0.07906 -0.13333,0.07906 -0.13333,0.269751 0,0.151929 0.0992,0.241846 0.10077,0.08837 0.27285,0.08837 0.2372,0 0.37982,-0.167431 0.14418,-0.168982 0.14418,-0.448035 v -0.06356 z m 0.56896,-0.117822 v 0.990637 h -0.28526 v -0.26355 q -0.0977,0.15813 -0.24339,0.234094 -0.14573,0.07442 -0.35657,0.07442 -0.26665,0 -0.42478,-0.148829 -0.15658,-0.150378 -0.15658,-0.401525 0,-0.293006 0.19534,-0.441834 0.19688,-0.148828 0.58601,-0.148828 h 0.39997 v -0.0279 q 0,-0.196888 -0.13022,-0.303858 -0.12868,-0.10852 -0.36277,-0.10852 -0.14883,0 -0.28991,0.03566 -0.14107,0.03566 -0.2713,0.106971 v -0.26355 q 0.15658,-0.06046 0.30386,-0.08992 0.14728,-0.03101 0.2868,-0.03101 0.37673,0 0.56276,0.195337 0.18604,0.195337 0.18604,0.592212 z" />
      <path
         id="path1297"
         style="font-size:3.175px;stroke-width:0.264583"
         d="m 123.244,31.227344 v 0.492993 h 0.58756 v 0.221692 H 123.244 v 0.942578 q 0,0.21239 0.0574,0.272852 0.0589,0.06046 0.2372,0.06046 h 0.293 v 0.238745 h -0.293 q -0.33022,0 -0.45579,-0.122473 -0.12557,-0.124024 -0.12557,-0.449585 v -0.942578 h -0.20929 v -0.221692 h 0.20929 v -0.492993 z" />
      <path
         id="path1299"
         style="font-size:3.175px;stroke-width:0.264583"
         d="m 124.20828,31.720337 h 0.28526 v 1.736328 h -0.28526 z m 0,-0.675928 h 0.28526 v 0.361218 h -0.28526 z" />
      <path
         id="path1301"
         style="font-size:3.175px;stroke-width:0.264583"
         d="m 125.76168,31.920325 q -0.22945,0 -0.36277,0.179834 -0.13333,0.178283 -0.13333,0.489892 0,0.311609 0.13178,0.491443 0.13332,0.178284 0.36432,0.178284 0.22789,0 0.36121,-0.179834 0.13333,-0.179834 0.13333,-0.489893 0,-0.308508 -0.13333,-0.488342 -0.13332,-0.181384 -0.36121,-0.181384 z m 0,-0.241846 q 0.37207,0 0.58446,0.241846 0.21239,0.241845 0.21239,0.669726 0,0.426331 -0.21239,0.669727 -0.21239,0.241846 -0.58446,0.241846 -0.37362,0 -0.58601,-0.241846 -0.21084,-0.243396 -0.21084,-0.669727 0,-0.427881 0.21084,-0.669726 0.21239,-0.241846 0.58601,-0.241846 z" />
      <path
         id="path1303"
         style="font-size:3.175px;stroke-width:0.264583"
         d="m 128.47314,32.408667 v 1.047998 h -0.28526 v -1.038696 q 0,-0.246497 -0.0961,-0.36897 -0.0961,-0.122473 -0.28836,-0.122473 -0.23099,0 -0.36432,0.147278 -0.13332,0.147278 -0.13332,0.401526 v 0.981335 h -0.28681 v -1.736328 h 0.28681 v 0.269751 q 0.10232,-0.15658 0.24029,-0.234094 0.13953,-0.07752 0.32091,-0.07752 0.29921,0 0.45269,0.186035 0.15348,0.184485 0.15348,0.544153 z" />
      <path
         id="path1305"
         style="font-size:3.175px;stroke-width:0.264583"
         d="m 130.06839,31.142078 h 1.46348 v 0.263549 h -1.15032 v 0.68523 h 1.10226 v 0.26355 h -1.10226 v 0.838708 h 1.17822 v 0.26355 h -1.49138 z" />
      <path
         id="path1307"
         style="font-size:3.175px;stroke-width:0.264583"
         d="m 133.07131,31.986987 q -0.0481,-0.02791 -0.10542,-0.04031 -0.0558,-0.01395 -0.12403,-0.01395 -0.24184,0 -0.37207,0.15813 -0.12867,0.15658 -0.12867,0.451135 v 0.914673 h -0.2868 v -1.736328 h 0.2868 v 0.269751 q 0.0899,-0.15813 0.23409,-0.234094 0.14418,-0.07752 0.35037,-0.07752 0.0295,0 0.0651,0.0047 0.0357,0.0031 0.0791,0.01085 z" />
      <path
         id="path1309"
         style="font-size:3.175px;stroke-width:0.264583"
         d="m 134.32394,31.986987 q -0.0481,-0.02791 -0.10542,-0.04031 -0.0558,-0.01395 -0.12402,-0.01395 -0.24185,0 -0.37207,0.15813 -0.12867,0.15658 -0.12867,0.451135 v 0.914673 h -0.28681 v -1.736328 h 0.28681 v 0.269751 q 0.0899,-0.15813 0.23409,-0.234094 0.14418,-0.07752 0.35037,-0.07752 0.0294,0 0.0651,0.0047 0.0357,0.0031 0.0791,0.01085 z" />
      <path
         id="path1311"
         style="font-size:3.175px;stroke-width:0.264583"
         d="m 135.23086,31.920325 q -0.22944,0 -0.36276,0.179834 -0.13333,0.178283 -0.13333,0.489892 0,0.311609 0.13178,0.491443 0.13332,0.178284 0.36431,0.178284 0.2279,0 0.36122,-0.179834 0.13333,-0.179834 0.13333,-0.489893 0,-0.308508 -0.13333,-0.488342 -0.13332,-0.181384 -0.36122,-0.181384 z m 0,-0.241846 q 0.37208,0 0.58447,0.241846 0.21239,0.241845 0.21239,0.669726 0,0.426331 -0.21239,0.669727 -0.21239,0.241846 -0.58447,0.241846 -0.37362,0 -0.58601,-0.241846 -0.21084,-0.243396 -0.21084,-0.669727 0,-0.427881 0.21084,-0.669726 0.21239,-0.241846 0.58601,-0.241846 z" />
      <path
         id="path1313"
         style="font-size:3.175px;stroke-width:0.264583"
         d="m 137.50515,31.986987 q -0.0481,-0.02791 -0.10542,-0.04031 -0.0558,-0.01395 -0.12403,-0.01395 -0.24184,0 -0.37207,0.15813 -0.12867,0.15658 -0.12867,0.451135 v 0.914673 h -0.28681 v -1.736328 h 0.28681 v 0.269751 q 0.0899,-0.15813 0.23409,-0.234094 0.14418,-0.07752 0.35037,-0.07752 0.0294,0 0.0651,0.0047 0.0357,0.0031 0.0791,0.01085 z" />
    </g>
    <g
       transform="translate(-1.01215)"
       style="font-size:3.175px;line-height:1.25;font-family:sans-serif;-inkscape-font-specification:sans-serif;stroke-width:0.264583"
       id="text995"
       aria-label="Training Error">
      <path
         id="path1258"
         style="font-size:3.175px;stroke-width:0.264583"
         d="m 114.10638,35.090949 h 1.95802 v 0.26355 h -0.82166 v 2.051038 h -0.31471 v -2.051038 h -0.82165 z" />
      <path
         id="path1260"
         style="font-size:3.175px;stroke-width:0.264583"
         d="m 116.8969,35.935859 q -0.0481,-0.02791 -0.10542,-0.04031 -0.0558,-0.01395 -0.12402,-0.01395 -0.24185,0 -0.37207,0.15813 -0.12868,0.156579 -0.12868,0.451135 v 0.914673 h -0.2868 v -1.736328 h 0.2868 v 0.269751 q 0.0899,-0.15813 0.2341,-0.234095 0.14418,-0.07751 0.35036,-0.07751 0.0295,0 0.0651,0.0047 0.0357,0.0031 0.0791,0.01085 z" />
      <path
         id="path1262"
         style="font-size:3.175px;stroke-width:0.264583"
         d="m 117.98831,36.532722 q -0.34572,0 -0.47904,0.07906 -0.13333,0.07906 -0.13333,0.269751 0,0.151928 0.0992,0.241845 0.10077,0.08837 0.27285,0.08837 0.2372,0 0.37982,-0.167432 0.14418,-0.168982 0.14418,-0.448034 v -0.06356 z m 0.56896,-0.117823 v 0.990638 h -0.28526 v -0.26355 q -0.0977,0.15813 -0.24339,0.234094 -0.14573,0.07441 -0.35657,0.07441 -0.26665,0 -0.42478,-0.148828 -0.15658,-0.150378 -0.15658,-0.401526 0,-0.293005 0.19534,-0.441833 0.19688,-0.148828 0.58601,-0.148828 h 0.39997 v -0.02791 q 0,-0.196887 -0.13022,-0.303857 -0.12868,-0.108521 -0.36277,-0.108521 -0.14883,0 -0.28991,0.03566 -0.14107,0.03566 -0.2713,0.10697 v -0.26355 q 0.15658,-0.06046 0.30386,-0.08992 0.14728,-0.03101 0.2868,-0.03101 0.37673,0 0.56276,0.195337 0.18604,0.195336 0.18604,0.592211 z" />
      <path
         id="path1264"
         style="font-size:3.175px;stroke-width:0.264583"
         d="m 119.14638,35.669209 h 0.28525 v 1.736328 h -0.28525 z m 0,-0.675928 h 0.28525 v 0.361218 h -0.28525 z" />
      <path
         id="path1266"
         style="font-size:3.175px;stroke-width:0.264583"
         d="m 121.47027,36.357539 v 1.047998 h -0.28526 V 36.36684 q 0,-0.246496 -0.0961,-0.368969 -0.0961,-0.122473 -0.28835,-0.122473 -0.23099,0 -0.36432,0.147277 -0.13332,0.147278 -0.13332,0.401526 v 0.981336 h -0.28681 v -1.736328 h 0.28681 v 0.269751 q 0.10232,-0.15658 0.24029,-0.234095 0.13953,-0.07751 0.32091,-0.07751 0.29921,0 0.45269,0.186035 0.15348,0.184485 0.15348,0.544153 z" />
      <path
         id="path1268"
         style="font-size:3.175px;stroke-width:0.264583"
         d="m 122.04232,35.669209 h 0.28526 v 1.736328 h -0.28526 z m 0,-0.675928 h 0.28526 v 0.361218 h -0.28526 z" />
      <path
         id="path1270"
         style="font-size:3.175px;stroke-width:0.264583"
         d="m 124.36621,36.357539 v 1.047998 h -0.28525 V 36.36684 q 0,-0.246496 -0.0961,-0.368969 -0.0961,-0.122473 -0.28835,-0.122473 -0.231,0 -0.36432,0.147277 -0.13333,0.147278 -0.13333,0.401526 v 0.981336 h -0.2868 v -1.736328 h 0.2868 v 0.269751 q 0.10232,-0.15658 0.2403,-0.234095 0.13953,-0.07751 0.32091,-0.07751 0.29921,0 0.45269,0.186035 0.15347,0.184485 0.15347,0.544153 z" />
      <path
         id="path1272"
         style="font-size:3.175px;stroke-width:0.264583"
         d="m 126.08084,36.517219 q 0,-0.310059 -0.12868,-0.480591 -0.12712,-0.170532 -0.35811,-0.170532 -0.22945,0 -0.35812,0.170532 -0.12713,0.170532 -0.12713,0.480591 0,0.308508 0.12713,0.47904 0.12867,0.170533 0.35812,0.170533 0.23099,0 0.35811,-0.170533 0.12868,-0.170532 0.12868,-0.47904 z m 0.28525,0.672827 q 0,0.443384 -0.19689,0.658874 -0.19688,0.217041 -0.60306,0.217041 -0.15038,0 -0.2837,-0.02325 -0.13333,-0.0217 -0.2589,-0.06821 v -0.277502 q 0.12557,0.06821 0.24805,0.100769 0.12247,0.03256 0.24959,0.03256 0.28061,0 0.42013,-0.147278 0.13953,-0.145727 0.13953,-0.441833 V 37.10014 q -0.0884,0.153479 -0.22634,0.229443 -0.13798,0.07597 -0.33022,0.07597 -0.31936,0 -0.51469,-0.243396 -0.19534,-0.243396 -0.19534,-0.644922 0,-0.403076 0.19534,-0.646472 0.19533,-0.243396 0.51469,-0.243396 0.19224,0 0.33022,0.07596 0.13797,0.07596 0.22634,0.229443 v -0.263549 h 0.28525 z" />
      <path
         id="path1274"
         style="font-size:3.175px;stroke-width:0.264583"
         d="m 127.97685,35.090949 h 1.46347 v 0.26355 h -1.15031 v 0.68523 h 1.10225 v 0.263549 h -1.10225 v 0.838709 h 1.17822 v 0.26355 h -1.49138 z" />
      <path
         id="path1276"
         style="font-size:3.175px;stroke-width:0.264583"
         d="m 130.97976,35.935859 q -0.0481,-0.02791 -0.10542,-0.04031 -0.0558,-0.01395 -0.12402,-0.01395 -0.24185,0 -0.37207,0.15813 -0.12867,0.156579 -0.12867,0.451135 v 0.914673 h -0.28681 v -1.736328 h 0.28681 v 0.269751 q 0.0899,-0.15813 0.23409,-0.234095 0.14418,-0.07751 0.35037,-0.07751 0.0295,0 0.0651,0.0047 0.0357,0.0031 0.0791,0.01085 z" />
      <path
         id="path1278"
         style="font-size:3.175px;stroke-width:0.264583"
         d="m 132.2324,35.935859 q -0.0481,-0.02791 -0.10542,-0.04031 -0.0558,-0.01395 -0.12402,-0.01395 -0.24185,0 -0.37207,0.15813 -0.12868,0.156579 -0.12868,0.451135 v 0.914673 h -0.2868 v -1.736328 h 0.2868 v 0.269751 q 0.0899,-0.15813 0.2341,-0.234095 0.14417,-0.07751 0.35036,-0.07751 0.0295,0 0.0651,0.0047 0.0357,0.0031 0.0791,0.01085 z" />
      <path
         id="path1280"
         style="font-size:3.175px;stroke-width:0.264583"
         d="m 133.13932,35.869196 q -0.22944,0 -0.36277,0.179834 -0.13332,0.178284 -0.13332,0.489893 0,0.311609 0.13177,0.491443 0.13333,0.178283 0.36432,0.178283 0.22789,0 0.36122,-0.179834 0.13332,-0.179834 0.13332,-0.489892 0,-0.308508 -0.13332,-0.488342 -0.13333,-0.181385 -0.36122,-0.181385 z m 0,-0.241845 q 0.37207,0 0.58446,0.241845 0.21239,0.241846 0.21239,0.669727 0,0.42633 -0.21239,0.669726 -0.21239,0.241846 -0.58446,0.241846 -0.37362,0 -0.58601,-0.241846 -0.21084,-0.243396 -0.21084,-0.669726 0,-0.427881 0.21084,-0.669727 0.21239,-0.241845 0.58601,-0.241845 z" />
      <path
         id="path1282"
         style="font-size:3.175px;stroke-width:0.264583"
         d="m 135.4136,35.935859 q -0.0481,-0.02791 -0.10542,-0.04031 -0.0558,-0.01395 -0.12402,-0.01395 -0.24185,0 -0.37207,0.15813 -0.12868,0.156579 -0.12868,0.451135 v 0.914673 h -0.2868 v -1.736328 h 0.2868 v 0.269751 q 0.0899,-0.15813 0.2341,-0.234095 0.14418,-0.07751 0.35036,-0.07751 0.0295,0 0.0651,0.0047 0.0357,0.0031 0.0791,0.01085 z" />
    </g>
    <g
       style="font-size:4.23333px;line-height:1.25;font-family:sans-serif;-inkscape-font-specification:sans-serif;stroke-width:0.264583"
       id="text1181"
       aria-label="Capacity">
      <path
         id="path1214"
         style="font-size:4.23333px;stroke-width:0.264583"
         d="m 81.516485,79.592622 v 0.440283 q -0.210839,-0.19637 -0.450618,-0.293522 -0.237711,-0.09715 -0.506428,-0.09715 -0.529167,0 -0.810286,0.324527 -0.28112,0.322461 -0.28112,0.934309 0,0.609782 0.28112,0.93431 0.281119,0.32246 0.810286,0.32246 0.268717,0 0.506428,-0.09715 0.239779,-0.09715 0.450618,-0.293522 v 0.436148 q -0.219108,0.148828 -0.465087,0.223242 -0.243913,0.07441 -0.516764,0.07441 -0.700732,0 -1.103808,-0.42788 -0.403076,-0.429948 -0.403076,-1.172021 0,-0.74414 0.403076,-1.17202 0.403076,-0.429948 1.103808,-0.429948 0.276985,0 0.520898,0.07441 0.24598,0.07235 0.460953,0.219108 z" />
      <path
         id="path1216"
         style="font-size:4.23333px;stroke-width:0.264583"
         d="m 83.201136,81.277273 q -0.460954,0 -0.63872,0.105419 -0.177767,0.10542 -0.177767,0.359668 0,0.202571 0.132291,0.322461 0.134359,0.117822 0.363802,0.117822 0.31626,0 0.506429,-0.223242 0.192236,-0.225309 0.192236,-0.597379 v -0.08475 z m 0.758609,-0.157097 v 1.320849 h -0.380338 v -0.3514 q -0.130225,0.21084 -0.324528,0.312126 -0.194303,0.09922 -0.475423,0.09922 -0.355533,0 -0.566373,-0.198437 -0.208772,-0.200504 -0.208772,-0.535367 0,-0.390674 0.260449,-0.589111 0.262516,-0.198437 0.781347,-0.198437 h 0.5333 v -0.03721 q 0,-0.262517 -0.173633,-0.405143 -0.171565,-0.144694 -0.483691,-0.144694 -0.198437,0 -0.386539,0.04754 -0.188102,0.04754 -0.361735,0.142627 v -0.3514 q 0.208773,-0.08061 0.405143,-0.119889 0.19637,-0.04134 0.382405,-0.04134 0.502295,0 0.750341,0.260449 0.248047,0.260449 0.248047,0.789615 z" />
      <path
         id="path1218"
         style="font-size:4.23333px;stroke-width:0.264583"
         d="m 85.113162,82.093759 v 1.227831 h -0.382405 v -3.195667 h 0.382405 v 0.351399 q 0.119889,-0.206706 0.30179,-0.305924 0.183968,-0.101286 0.438216,-0.101286 0.421679,0 0.684195,0.334863 0.264583,0.334863 0.264583,0.880566 0,0.545702 -0.264583,0.880565 -0.262516,0.334863 -0.684195,0.334863 -0.254248,0 -0.438216,-0.09922 -0.181901,-0.101286 -0.30179,-0.307992 z m 1.293977,-0.808218 q 0,-0.419613 -0.173633,-0.657324 -0.171566,-0.239778 -0.473356,-0.239778 -0.30179,0 -0.475422,0.239778 -0.171566,0.237711 -0.171566,0.657324 0,0.419612 0.171566,0.65939 0.173632,0.237712 0.475422,0.237712 0.30179,0 0.473356,-0.237712 0.173633,-0.239778 0.173633,-0.65939 z" />
      <path
         id="path1220"
         style="font-size:4.23333px;stroke-width:0.264583"
         d="m 88.48453,81.277273 q -0.460954,0 -0.63872,0.105419 -0.177767,0.10542 -0.177767,0.359668 0,0.202571 0.132291,0.322461 0.134359,0.117822 0.363802,0.117822 0.31626,0 0.506429,-0.223242 0.192236,-0.225309 0.192236,-0.597379 v -0.08475 z m 0.758609,-0.157097 v 1.320849 h -0.380338 v -0.3514 q -0.130225,0.21084 -0.324528,0.312126 -0.194303,0.09922 -0.475423,0.09922 -0.355533,0 -0.566373,-0.198437 -0.208772,-0.200504 -0.208772,-0.535367 0,-0.390674 0.260449,-0.589111 0.262516,-0.198437 0.781347,-0.198437 h 0.5333 v -0.03721 q 0,-0.262517 -0.173633,-0.405143 -0.171565,-0.144694 -0.483691,-0.144694 -0.198437,0 -0.386539,0.04754 -0.188102,0.04754 -0.361735,0.142627 v -0.3514 q 0.208773,-0.08061 0.405143,-0.119889 0.19637,-0.04134 0.382405,-0.04134 0.502295,0 0.750342,0.260449 0.248046,0.260449 0.248046,0.789615 z" />
      <path
         id="path1222"
         style="font-size:4.23333px;stroke-width:0.264583"
         d="m 91.694667,80.214806 v 0.355534 q -0.16123,-0.08888 -0.324527,-0.132292 -0.161231,-0.04547 -0.326595,-0.04547 -0.370003,0 -0.574642,0.235644 -0.204638,0.233577 -0.204638,0.657324 0,0.423746 0.204638,0.65939 0.204639,0.233578 0.574642,0.233578 0.165364,0 0.326595,-0.04341 0.163297,-0.04548 0.324527,-0.134359 v 0.351399 q -0.159163,0.07441 -0.330729,0.111621 -0.169498,0.03721 -0.361734,0.03721 -0.522965,0 -0.830957,-0.328661 -0.307991,-0.328662 -0.307991,-0.886767 0,-0.566373 0.310058,-0.890901 0.312126,-0.324528 0.853694,-0.324528 0.1757,0 0.343132,0.03721 0.167431,0.03514 0.324527,0.107487 z" />
      <path
         id="path1224"
         style="font-size:4.23333px;stroke-width:0.264583"
         d="m 92.360259,80.125923 h 0.380338 v 2.315102 h -0.380338 z m 0,-0.901237 h 0.380338 v 0.481624 h -0.380338 z" />
      <path
         id="path1226"
         style="font-size:4.23333px;stroke-width:0.264583"
         d="m 93.91055,79.468599 v 0.657324 h 0.783414 v 0.295589 H 93.91055 v 1.256769 q 0,0.283187 0.07648,0.363802 0.07855,0.08061 0.31626,0.08061 h 0.390673 v 0.318327 h -0.390673 q -0.440283,0 -0.607714,-0.163298 -0.167432,-0.165364 -0.167432,-0.599446 v -1.256769 h -0.279052 v -0.295589 h 0.279052 v -0.657324 z" />
      <path
         id="path1228"
         style="font-size:4.23333px;stroke-width:0.264583"
         d="m 96.159507,82.655999 q -0.16123,0.413411 -0.314192,0.539501 -0.152962,0.12609 -0.409277,0.12609 h -0.303857 v -0.318326 h 0.223242 q 0.157096,0 0.243912,-0.07441 0.08682,-0.07441 0.192236,-0.3514 l 0.06821,-0.173632 -0.936376,-2.277895 h 0.403076 l 0.723469,1.81074 0.72347,-1.81074 h 0.403075 z" />
    </g>
  </g>
</svg>
