<?xml version="1.0" encoding="UTF-8" standalone="no"?>
<svg
   xmlns:dc="http://purl.org/dc/elements/1.1/"
   xmlns:cc="http://creativecommons.org/ns#"
   xmlns:rdf="http://www.w3.org/1999/02/22-rdf-syntax-ns#"
   xmlns:svg="http://www.w3.org/2000/svg"
   xmlns="http://www.w3.org/2000/svg"
   xmlns:sodipodi="http://sodipodi.sourceforge.net/DTD/sodipodi-0.dtd"
   xmlns:inkscape="http://www.inkscape.org/namespaces/inkscape"
   width="210mm"
   height="297mm"
   viewBox="0 0 210 297"
   version="1.1"
   id="svg8"
   inkscape:version="1.0 (1.0+r73+1)"
   sodipodi:docname="overfitting.svg">
  <defs
     id="defs2">
    <marker
       inkscape:isstock="true"
       style="overflow:visible;"
       id="Arrow1Mend"
       refX="0.0"
       refY="0.0"
       orient="auto"
       inkscape:stockid="Arrow1Mend">
      <path
         transform="scale(0.4) rotate(180) translate(10,0)"
         style="fill-rule:evenodd;stroke:#000000;stroke-width:1pt;stroke-opacity:1;fill:#000000;fill-opacity:1"
         d="M 0.0,0.0 L 5.0,-5.0 L -12.5,0.0 L 5.0,5.0 L 0.0,0.0 z "
         id="path4940" />
    </marker>
    <marker
       inkscape:isstock="true"
       style="overflow:visible"
       id="Arrow1Mstart"
       refX="0.0"
       refY="0.0"
       orient="auto"
       inkscape:stockid="Arrow1Mstart">
      <path
         transform="scale(0.4) translate(10,0)"
         style="fill-rule:evenodd;stroke:#000000;stroke-width:1pt;stroke-opacity:1;fill:#000000;fill-opacity:1"
         d="M 0.0,0.0 L 5.0,-5.0 L -12.5,0.0 L 5.0,5.0 L 0.0,0.0 z "
         id="path4937" />
    </marker>
    <inkscape:path-effect
       only_selected="false"
       apply_with_weight="true"
       apply_no_weight="true"
       helper_size="0"
       steps="2"
       weight="33.333333"
       lpeversion="1"
       is_visible="true"
       id="path-effect390"
       effect="bspline" />
  </defs>
  <sodipodi:namedview
     id="base"
     pagecolor="#ffffff"
     bordercolor="#666666"
     borderopacity="1.0"
     inkscape:pageopacity="0.0"
     inkscape:pageshadow="2"
     inkscape:zoom="4.0000002"
     inkscape:cx="378.30661"
     inkscape:cy="170.77492"
     inkscape:document-units="mm"
     inkscape:current-layer="layer1"
     inkscape:document-rotation="0"
     showgrid="true"
     inkscape:snap-global="false"
     inkscape:snap-smooth-nodes="true"
     inkscape:object-paths="false"
     inkscape:snap-intersection-paths="false"
     inkscape:object-nodes="false"
     inkscape:window-width="1600"
     inkscape:window-height="850"
     inkscape:window-x="0"
     inkscape:window-y="0"
     inkscape:window-maximized="1">
    <inkscape:grid
       id="grid386"
       type="xygrid" />
  </sodipodi:namedview>
  <metadata
     id="metadata5">
    <rdf:RDF>
      <cc:Work
         rdf:about="">
        <dc:format>image/svg+xml</dc:format>
        <dc:type
           rdf:resource="http://purl.org/dc/dcmitype/StillImage" />
        <dc:title></dc:title>
      </cc:Work>
    </rdf:RDF>
  </metadata>
  <g
     inkscape:label="Layer 1"
     inkscape:groupmode="layer"
     id="layer1">
    <g
       style="font-size:3.41761px;line-height:1.25;font-family:sans-serif;-inkscape-font-specification:sans-serif;stroke-width:0.12816"
       id="text133"
       aria-label="Validation gap">
      <path
         id="path135"
         style="stroke-width:0.12816"
         d="m 115.38595,73.586746 -0.95119,-2.491451 h 0.35211 l 0.78932,2.097625 0.79099,-2.097625 h 0.35043 l -0.94952,2.491451 z" />
      <path
         id="path137"
         style="stroke-width:0.12816"
         d="m 117.64878,72.647237 q -0.37213,0 -0.51565,0.08511 -0.14351,0.08511 -0.14351,0.290363 0,0.163538 0.1068,0.260326 0.10847,0.09512 0.2937,0.09512 0.25532,0 0.40885,-0.180226 0.15519,-0.181894 0.15519,-0.48227 v -0.06842 z m 0.61243,-0.126825 v 1.066334 h -0.30705 v -0.283688 q -0.10513,0.170213 -0.26199,0.251982 -0.15687,0.0801 -0.38382,0.0801 -0.28702,0 -0.45723,-0.1602 -0.16855,-0.16187 -0.16855,-0.432208 0,-0.315395 0.21026,-0.475595 0.21194,-0.1602 0.63079,-0.1602 h 0.43054 v -0.03004 q 0,-0.211932 -0.14017,-0.327076 -0.13851,-0.116813 -0.39049,-0.116813 -0.1602,0 -0.31206,0.03838 -0.15186,0.03838 -0.29203,0.115144 v -0.283689 q 0.16854,-0.06508 0.32707,-0.09679 0.15854,-0.03338 0.30872,-0.03338 0.40551,0 0.60576,0.210264 0.20025,0.210263 0.20025,0.637464 z" />
      <path
         id="path139"
         style="stroke-width:0.12816"
         d="m 118.89534,70.990164 h 0.30705 v 2.596582 h -0.30705 z" />
      <path
         id="path141"
         style="stroke-width:0.12816"
         d="m 119.84319,71.717741 h 0.30705 v 1.869005 h -0.30705 z m 0,-0.727577 h 0.30705 v 0.38882 h -0.30705 z" />
      <path
         id="path143"
         style="stroke-width:0.12816"
         d="m 122.02092,72.001429 v -1.011265 h 0.30705 v 2.596582 h -0.30705 v -0.280351 q -0.0968,0.166876 -0.24531,0.248645 -0.14685,0.0801 -0.35377,0.0801 -0.33876,0 -0.55236,-0.270338 -0.21193,-0.270338 -0.21193,-0.71089 0,-0.440551 0.21193,-0.710889 0.2136,-0.270339 0.55236,-0.270339 0.20692,0 0.35377,0.08177 0.14852,0.0801 0.24531,0.246976 z m -1.04631,0.652483 q 0,0.338757 0.13851,0.532333 0.14017,0.191907 0.38381,0.191907 0.24364,0 0.38381,-0.191907 0.14018,-0.193576 0.14018,-0.532333 0,-0.338757 -0.14018,-0.530664 -0.14017,-0.193575 -0.38381,-0.193575 -0.24364,0 -0.38381,0.193575 -0.13851,0.191907 -0.13851,0.530664 z" />
      <path
         id="path145"
         style="stroke-width:0.12816"
         d="m 123.80982,72.647237 q -0.37213,0 -0.51564,0.08511 -0.14352,0.08511 -0.14352,0.290363 0,0.163538 0.10681,0.260326 0.10846,0.09512 0.2937,0.09512 0.25532,0 0.40884,-0.180226 0.1552,-0.181894 0.1552,-0.48227 v -0.06842 z m 0.61244,-0.126825 v 1.066334 h -0.30705 v -0.283688 q -0.10514,0.170213 -0.262,0.251982 -0.15686,0.0801 -0.38381,0.0801 -0.28703,0 -0.45724,-0.1602 -0.16855,-0.16187 -0.16855,-0.432208 0,-0.315395 0.21027,-0.475595 0.21193,-0.1602 0.63079,-0.1602 h 0.43054 v -0.03004 q 0,-0.211932 -0.14018,-0.327076 -0.13851,-0.116813 -0.39049,-0.116813 -0.1602,0 -0.31206,0.03838 -0.15185,0.03838 -0.29203,0.115144 v -0.283689 q 0.16855,-0.06508 0.32708,-0.09679 0.15853,-0.03338 0.30872,-0.03338 0.4055,0 0.60576,0.210264 0.20025,0.210263 0.20025,0.637464 z" />
      <path
         id="path147"
         style="stroke-width:0.12816"
         d="m 125.3601,71.187077 v 0.530664 h 0.63245 v 0.238632 h -0.63245 v 1.014603 q 0,0.228619 0.0617,0.293701 0.0634,0.06508 0.25532,0.06508 h 0.31539 v 0.256988 h -0.31539 q -0.35545,0 -0.49061,-0.131831 -0.13517,-0.133501 -0.13517,-0.483939 v -1.014603 h -0.22529 v -0.238632 h 0.22529 v -0.530664 z" />
      <path
         id="path149"
         style="stroke-width:0.12816"
         d="m 126.39806,71.717741 h 0.30705 v 1.869005 h -0.30705 z m 0,-0.727577 h 0.30705 v 0.38882 h -0.30705 z" />
      <path
         id="path151"
         style="stroke-width:0.12816"
         d="m 128.07015,71.93301 q -0.24697,0 -0.39048,0.193576 -0.14352,0.191907 -0.14352,0.527326 0,0.33542 0.14185,0.528996 0.14351,0.191906 0.39215,0.191906 0.24531,0 0.38882,-0.193575 0.14352,-0.193576 0.14352,-0.527327 0,-0.332082 -0.14352,-0.525658 -0.14351,-0.195244 -0.38882,-0.195244 z m 0,-0.260326 q 0.40051,0 0.62912,0.260326 0.22862,0.260326 0.22862,0.720902 0,0.458908 -0.22862,0.720902 -0.22861,0.260326 -0.62912,0.260326 -0.40217,0 -0.63079,-0.260326 -0.22695,-0.261994 -0.22695,-0.720902 0,-0.460576 0.22695,-0.720902 0.22862,-0.260326 0.63079,-0.260326 z" />
      <path
         id="path153"
         style="stroke-width:0.12816"
         d="m 130.98881,72.458668 v 1.128078 h -0.30705 V 72.46868 q 0,-0.265332 -0.10347,-0.397163 -0.10346,-0.131832 -0.31039,-0.131832 -0.24864,0 -0.39215,0.158532 -0.14352,0.158532 -0.14352,0.432207 v 1.056322 h -0.30872 v -1.869005 h 0.30872 v 0.290363 q 0.11014,-0.168544 0.25866,-0.251982 0.15019,-0.08344 0.34543,-0.08344 0.32207,0 0.48728,0.200251 0.16521,0.198582 0.16521,0.585733 z" />
      <path
         id="path155"
         style="stroke-width:0.12816"
         d="m 133.92248,72.63055 q 0,-0.333751 -0.13851,-0.517314 -0.13684,-0.183563 -0.38548,-0.183563 -0.24698,0 -0.38548,0.183563 -0.13684,0.183563 -0.13684,0.517314 0,0.332082 0.13684,0.515645 0.1385,0.183563 0.38548,0.183563 0.24864,0 0.38548,-0.183563 0.13851,-0.183563 0.13851,-0.515645 z m 0.30705,0.724239 q 0,0.477264 -0.21193,0.709221 -0.21194,0.233626 -0.64915,0.233626 -0.16187,0 -0.30538,-0.02503 -0.14351,-0.02336 -0.27868,-0.07343 v -0.298707 q 0.13517,0.07343 0.267,0.108469 0.13183,0.03504 0.26867,0.03504 0.30204,0 0.45223,-0.158532 0.15019,-0.156863 0.15019,-0.475595 v -0.151856 q -0.0951,0.165206 -0.24364,0.246975 -0.14852,0.08177 -0.35545,0.08177 -0.34376,0 -0.55402,-0.261994 -0.21027,-0.261995 -0.21027,-0.694202 0,-0.433877 0.21027,-0.695871 0.21026,-0.261995 0.55402,-0.261995 0.20693,0 0.35545,0.08177 0.14852,0.08177 0.24364,0.246976 v -0.283688 h 0.30705 z" />
      <path
         id="path157"
         style="stroke-width:0.12816"
         d="m 135.71138,72.647237 q -0.37213,0 -0.51564,0.08511 -0.14352,0.08511 -0.14352,0.290363 0,0.163538 0.10681,0.260326 0.10846,0.09512 0.2937,0.09512 0.25532,0 0.40884,-0.180226 0.1552,-0.181894 0.1552,-0.48227 v -0.06842 z m 0.61244,-0.126825 v 1.066334 h -0.30705 v -0.283688 q -0.10514,0.170213 -0.262,0.251982 -0.15686,0.0801 -0.38381,0.0801 -0.28703,0 -0.45724,-0.1602 -0.16855,-0.16187 -0.16855,-0.432208 0,-0.315395 0.21027,-0.475595 0.21193,-0.1602 0.63079,-0.1602 h 0.43054 v -0.03004 q 0,-0.211932 -0.14018,-0.327076 -0.13851,-0.116813 -0.39049,-0.116813 -0.1602,0 -0.31206,0.03838 -0.15185,0.03838 -0.29203,0.115144 v -0.283689 q 0.16855,-0.06508 0.32708,-0.09679 0.15853,-0.03338 0.30872,-0.03338 0.4055,0 0.60576,0.210264 0.20025,0.210263 0.20025,0.637464 z" />
      <path
         id="path159"
         style="stroke-width:0.12816"
         d="m 137.25498,73.306395 v 0.991241 h -0.30872 v -2.579895 h 0.30872 v 0.283688 q 0.0968,-0.166875 0.24364,-0.246976 0.14852,-0.08177 0.35378,-0.08177 0.34042,0 0.55235,0.270339 0.2136,0.270338 0.2136,0.710889 0,0.440552 -0.2136,0.71089 -0.21193,0.270338 -0.55235,0.270338 -0.20526,0 -0.35378,-0.0801 -0.14685,-0.08177 -0.24364,-0.248645 z m 1.04464,-0.652483 q 0,-0.338757 -0.14017,-0.530664 -0.13851,-0.193575 -0.38215,-0.193575 -0.24364,0 -0.38381,0.193575 -0.13851,0.191907 -0.13851,0.530664 0,0.338757 0.13851,0.532333 0.14017,0.191907 0.38381,0.191907 0.24364,0 0.38215,-0.191907 0.14017,-0.193576 0.14017,-0.532333 z" />
    </g>
    <text
       xml:space="preserve"
       style="font-weight:bold;font-size:3.52777px;line-height:1.25;font-family:sans-serif;-inkscape-font-specification:'sans-serif Bold';stroke-width:0.264583"
       x="73.539742"
       y="35.289616"
       id="text852"><tspan
         sodipodi:role="line"
         id="tspan850"
         x="73.539742"
         y="35.289616"
         style="stroke-width:0.264583" /></text>
    <rect
       style="opacity:0.940252;fill:none;fill-rule:evenodd;stroke:#000000;stroke-width:0.5;stroke-miterlimit:4;stroke-dasharray:none;stroke-opacity:0.938464"
       id="rect10"
       width="104.3011"
       height="49.94857"
       x="35.951572"
       y="27.705719" />
    <path
       style="fill:none;stroke:#006165;stroke-width:0.264583;stroke-linecap:butt;stroke-linejoin:miter;stroke-miterlimit:4;stroke-dasharray:1.05833, 0.264583;stroke-dashoffset:0;stroke-opacity:1"
       d="m 37.922932,27.873853 c -0.338521,1.179337 -2.763084,45.824298 11.770507,46.125737 14.533591,0.301439 87.006811,2.515995 87.507791,1.639285"
       id="path835"
       sodipodi:nodetypes="czc" />
    <rect
       style="opacity:0.940252;fill:none;fill-rule:evenodd;stroke:#000000;stroke-width:0.398832;stroke-linejoin:miter;stroke-miterlimit:4;stroke-dasharray:none;stroke-dashoffset:0;stroke-opacity:0.938464"
       id="rect858"
       width="30.306086"
       height="9.4298239"
       x="105.34792"
       y="29.408333" />
    <path
       style="fill:none;stroke:#f6a800;stroke-width:0.4;stroke-linecap:butt;stroke-linejoin:miter;stroke-miterlimit:4;stroke-dasharray:none;stroke-opacity:1"
       d="m 38.840128,28.008092 c -1.337856,0.225918 -2.20454,44.000893 10.88003,44.3316 5.644115,0.142652 16.182863,1.253702 21.96083,0.951839 12.055642,-0.629831 26.180749,-2.376848 30.134932,-2.196447 22.04153,-0.20399 19.58369,-7.384408 36.50364,-10.718517"
       id="path837"
       sodipodi:nodetypes="csscc" />
    <g
       aria-label="Underfitting zone"
       id="text848"
       style="font-weight:bold;font-size:3.52777px;line-height:1.25;font-family:sans-serif;-inkscape-font-specification:'sans-serif Bold';stroke-width:0.264583"
       transform="matrix(0.91665175,0,0,1.4347952,6.6037967,-13.476508)">
      <path
         d="m 41.684221,32.272779 h 0.279742 v 1.24988 q 0,0.330729 0.119889,0.476801 0.119889,0.144694 0.388606,0.144694 0.26734,0 0.387229,-0.144694 0.119889,-0.146072 0.119889,-0.476801 v -1.24988 h 0.279742 v 1.284331 q 0,0.402387 -0.199816,0.607714 -0.198437,0.205328 -0.587044,0.205328 -0.389984,0 -0.5898,-0.205328 -0.198437,-0.205327 -0.198437,-0.607714 z"
         style="font-weight:normal;font-size:2.82222px;stroke-width:0.264583"
         id="path1901" />
      <path
         d="m 45.0549,33.398636 v 0.931553 h -0.253559 v -0.923285 q 0,-0.219108 -0.08544,-0.327973 -0.08544,-0.108865 -0.256315,-0.108865 -0.205328,0 -0.323839,0.130914 -0.118511,0.130913 -0.118511,0.356911 v 0.872298 h -0.254937 v -1.543402 h 0.254937 v 0.239779 q 0.09095,-0.139182 0.213596,-0.208084 0.124023,-0.0689 0.285253,-0.0689 0.265962,0 0.402387,0.165365 0.136426,0.163986 0.136426,0.483691 z"
         style="font-weight:normal;font-size:2.82222px;stroke-width:0.264583"
         id="path1903" />
      <path
         d="m 46.579009,33.021053 v -0.83509 h 0.253559 v 2.144226 h -0.253559 v -0.23151 q -0.07993,0.137803 -0.202571,0.205327 -0.121268,0.06615 -0.292144,0.06615 -0.279742,0 -0.456131,-0.223242 -0.17501,-0.223242 -0.17501,-0.587044 0,-0.363802 0.17501,-0.587044 0.176389,-0.223242 0.456131,-0.223242 0.170876,0 0.292144,0.06752 0.122645,0.06615 0.202571,0.203949 z m -0.864029,0.538813 q 0,0.279742 0.114377,0.439594 0.115755,0.158474 0.316948,0.158474 0.201194,0 0.316949,-0.158474 0.115755,-0.159852 0.115755,-0.439594 0,-0.279742 -0.115755,-0.438216 -0.115755,-0.159852 -0.316949,-0.159852 -0.201193,0 -0.316948,0.159852 -0.114377,0.158474 -0.114377,0.438216 z"
         style="font-weight:normal;font-size:2.82222px;stroke-width:0.264583"
         id="path1905" />
      <path
         d="m 48.675004,33.495098 v 0.124024 h -1.16582 q 0.01654,0.261827 0.157096,0.39963 0.141938,0.136426 0.394119,0.136426 0.146072,0 0.282498,-0.03583 0.137803,-0.03583 0.272851,-0.107487 v 0.239779 q -0.136426,0.05788 -0.279741,0.08819 -0.143316,0.03032 -0.290766,0.03032 -0.369314,0 -0.585666,-0.214974 -0.214974,-0.214974 -0.214974,-0.581532 0,-0.37896 0.20395,-0.600824 0.205327,-0.223242 0.552593,-0.223242 0.311436,0 0.491959,0.201194 0.181901,0.199815 0.181901,0.544324 z m -0.253559,-0.07441 q -0.0028,-0.208083 -0.117133,-0.332107 -0.112999,-0.124023 -0.300412,-0.124023 -0.212218,0 -0.340376,0.119889 -0.126779,0.119889 -0.146072,0.337619 z"
         style="font-weight:normal;font-size:2.82222px;stroke-width:0.264583"
         id="path1907" />
      <path
         d="m 49.985517,33.02381 q -0.04272,-0.02481 -0.09371,-0.03583 -0.04961,-0.0124 -0.110243,-0.0124 -0.214973,0 -0.330729,0.14056 -0.114377,0.139182 -0.114377,0.401009 v 0.813042 h -0.254936 v -1.543402 h 0.254936 v 0.239779 q 0.07993,-0.14056 0.208084,-0.208084 0.128157,-0.0689 0.311436,-0.0689 0.02618,0 0.05788,0.0041 0.03169,0.0028 0.07028,0.0096 z"
         style="font-weight:normal;font-size:2.82222px;stroke-width:0.264583"
         id="path1909" />
      <path
         d="m 51.501358,32.786787 v 1.543402 h -0.254936 v -1.346343 h -0.695909 v 1.346343 h -0.254937 v -1.346343 h -0.242535 v -0.197059 h 0.242535 V 32.6793 q 0,-0.252181 0.118511,-0.37207 0.119889,-0.121267 0.366558,-0.121267 h 0.254937 v 0.21084 h -0.242535 q -0.136425,0 -0.190169,0.05512 -0.05236,0.05512 -0.05236,0.198437 v 0.136426 z m -0.254936,-0.598068 h 0.254936 v 0.321083 h -0.254936 z"
         style="font-weight:normal;font-size:2.82222px;stroke-width:0.264583"
         id="path1911" />
      <path
         d="m 52.285461,32.348571 v 0.438216 h 0.522276 v 0.197059 h -0.522276 v 0.837847 q 0,0.188791 0.05099,0.242535 0.05237,0.05374 0.21084,0.05374 h 0.260449 v 0.212218 h -0.260449 q -0.293522,0 -0.405143,-0.108865 -0.111621,-0.110243 -0.111621,-0.399631 v -0.837847 h -0.186035 v -0.197059 h 0.186035 v -0.438216 z"
         style="font-weight:normal;font-size:2.82222px;stroke-width:0.264583"
         id="path1913" />
      <path
         d="m 53.393403,32.348571 v 0.438216 h 0.522276 v 0.197059 h -0.522276 v 0.837847 q 0,0.188791 0.05099,0.242535 0.05236,0.05374 0.210839,0.05374 h 0.260449 v 0.212218 H 53.65523 q -0.293522,0 -0.405143,-0.108865 -0.111621,-0.110243 -0.111621,-0.399631 v -0.837847 h -0.186035 v -0.197059 h 0.186035 v -0.438216 z"
         style="font-weight:normal;font-size:2.82222px;stroke-width:0.264583"
         id="path1915" />
      <path
         d="m 54.250542,32.786787 h 0.253559 v 1.543402 h -0.253559 z m 0,-0.600824 h 0.253559 v 0.321083 h -0.253559 z"
         style="font-weight:normal;font-size:2.82222px;stroke-width:0.264583"
         id="path1917" />
      <path
         d="m 56.31622,33.398636 v 0.931553 h -0.253559 v -0.923285 q 0,-0.219108 -0.08544,-0.327973 -0.08544,-0.108865 -0.256315,-0.108865 -0.205327,0 -0.323839,0.130914 -0.118511,0.130913 -0.118511,0.356911 v 0.872298 h -0.254937 v -1.543402 h 0.254937 v 0.239779 q 0.09095,-0.139182 0.213596,-0.208084 0.124023,-0.0689 0.285254,-0.0689 0.265961,0 0.402386,0.165365 0.136426,0.163986 0.136426,0.483691 z"
         style="font-weight:normal;font-size:2.82222px;stroke-width:0.264583"
         id="path1919" />
      <path
         d="m 57.840329,33.540573 q 0,-0.275607 -0.114378,-0.427191 -0.112999,-0.151584 -0.318326,-0.151584 -0.20395,0 -0.318327,0.151584 -0.112999,0.151584 -0.112999,0.427191 0,0.27423 0.112999,0.425814 0.114377,0.151584 0.318327,0.151584 0.205327,0 0.318326,-0.151584 0.114378,-0.151584 0.114378,-0.425814 z m 0.253558,0.598069 q 0,0.394118 -0.17501,0.585665 -0.175011,0.192926 -0.536057,0.192926 -0.133669,0 -0.252181,-0.02067 -0.118511,-0.01929 -0.230132,-0.06063 V 34.58926 q 0.111621,0.06063 0.220486,0.08957 0.108865,0.02894 0.221864,0.02894 0.249425,0 0.373448,-0.130914 0.124024,-0.129535 0.124024,-0.39274 v -0.125402 q -0.07855,0.136426 -0.201194,0.20395 -0.122645,0.06752 -0.293522,0.06752 -0.283875,0 -0.457508,-0.216352 -0.173633,-0.216352 -0.173633,-0.573264 0,-0.358289 0.173633,-0.574641 0.173633,-0.216352 0.457508,-0.216352 0.170877,0 0.293522,0.06752 0.122645,0.06752 0.201194,0.203949 v -0.234266 h 0.253558 z"
         style="font-weight:normal;font-size:2.82222px;stroke-width:0.264583"
         id="path1921" />
      <path
         d="m 59.4044,32.786787 h 1.204405 v 0.23151 l -0.953602,1.10932 h 0.953602 v 0.202572 h -1.238856 v -0.23151 l 0.953602,-1.10932 H 59.4044 Z"
         style="font-weight:normal;font-size:2.82222px;stroke-width:0.264583"
         id="path1923" />
      <path
         d="m 61.59548,32.964554 q -0.203949,0 -0.32246,0.159852 -0.118512,0.158475 -0.118512,0.43546 0,0.276985 0.117134,0.436838 0.118511,0.158474 0.323838,0.158474 0.202572,0 0.321083,-0.159852 0.118511,-0.159853 0.118511,-0.43546 0,-0.274229 -0.118511,-0.434082 -0.118511,-0.16123 -0.321083,-0.16123 z m 0,-0.214974 q 0.330729,0 0.51952,0.214974 0.188791,0.214974 0.188791,0.595312 0,0.37896 -0.188791,0.595312 -0.188791,0.214974 -0.51952,0.214974 -0.332107,0 -0.520898,-0.214974 -0.187413,-0.216352 -0.187413,-0.595312 0,-0.380338 0.187413,-0.595312 0.188791,-0.214974 0.520898,-0.214974 z"
         style="font-weight:normal;font-size:2.82222px;stroke-width:0.264583"
         id="path1925" />
      <path
         d="m 64.005667,33.398636 v 0.931553 h -0.253559 v -0.923285 q 0,-0.219108 -0.08544,-0.327973 -0.08544,-0.108865 -0.256315,-0.108865 -0.205327,0 -0.323838,0.130914 -0.118511,0.130913 -0.118511,0.356911 v 0.872298 h -0.254937 v -1.543402 h 0.254937 v 0.239779 q 0.09095,-0.139182 0.213595,-0.208084 0.124024,-0.0689 0.285254,-0.0689 0.265961,0 0.402387,0.165365 0.136426,0.163986 0.136426,0.483691 z"
         style="font-weight:normal;font-size:2.82222px;stroke-width:0.264583"
         id="path1927" />
      <path
         d="m 65.834322,33.495098 v 0.124024 h -1.165819 q 0.01654,0.261827 0.157096,0.39963 0.141938,0.136426 0.394119,0.136426 0.146072,0 0.282497,-0.03583 0.137804,-0.03583 0.272852,-0.107487 v 0.239779 q -0.136426,0.05788 -0.279742,0.08819 -0.143316,0.03032 -0.290766,0.03032 -0.369314,0 -0.585666,-0.214974 -0.214973,-0.214974 -0.214973,-0.581532 0,-0.37896 0.203949,-0.600824 0.205328,-0.223242 0.552593,-0.223242 0.311436,0 0.491959,0.201194 0.181901,0.199815 0.181901,0.544324 z m -0.253559,-0.07441 q -0.0028,-0.208083 -0.117133,-0.332107 -0.112999,-0.124023 -0.300412,-0.124023 -0.212218,0 -0.340375,0.119889 -0.12678,0.119889 -0.146072,0.337619 z"
         style="font-weight:normal;font-size:2.82222px;stroke-width:0.264583"
         id="path1929" />
    </g>
    <g
       aria-label="Overfitting zone"
       id="text856"
       style="font-weight:bold;font-size:3.52777px;line-height:1.25;font-family:sans-serif;-inkscape-font-specification:'sans-serif Bold';stroke-width:0.264583"
       transform="matrix(0.93986878,0,0,1.3846672,5.9331496,-12.125577)">
      <path
         d="m 73.904816,32.700576 q -0.303168,0 -0.482313,0.225999 -0.177767,0.225998 -0.177767,0.615982 0,0.388607 0.177767,0.614605 0.179145,0.225998 0.482313,0.225998 0.303168,0 0.479557,-0.225998 0.177767,-0.225998 0.177767,-0.614605 0,-0.389984 -0.177767,-0.615982 -0.176389,-0.225999 -0.479557,-0.225999 z m 0,-0.225998 q 0.432704,0 0.691774,0.290766 0.259071,0.289388 0.259071,0.777213 0,0.486447 -0.259071,0.777213 -0.25907,0.289388 -0.691774,0.289388 -0.434082,0 -0.694531,-0.289388 -0.259071,-0.289388 -0.259071,-0.777213 0,-0.487825 0.259071,-0.777213 0.260449,-0.290766 0.694531,-0.290766 z"
         style="font-weight:normal;font-size:2.82222px;stroke-width:0.264583"
         id="path1872" />
      <path
         d="m 75.098196,33.025793 h 0.268717 l 0.482313,1.295355 0.482313,-1.295355 h 0.268718 l -0.578776,1.543402 h -0.344509 z"
         style="font-weight:normal;font-size:2.82222px;stroke-width:0.264583"
         id="path1874" />
      <path
         d="m 78.270438,33.734104 v 0.124024 h -1.16582 q 0.01654,0.261827 0.157096,0.39963 0.141938,0.136426 0.394119,0.136426 0.146072,0 0.282498,-0.03583 0.137803,-0.03583 0.272851,-0.107487 v 0.239779 q -0.136426,0.05788 -0.279742,0.08819 -0.143315,0.03032 -0.290765,0.03032 -0.369314,0 -0.585666,-0.214974 -0.214974,-0.214974 -0.214974,-0.581532 0,-0.37896 0.20395,-0.600824 0.205327,-0.223242 0.552592,-0.223242 0.311437,0 0.49196,0.201194 0.181901,0.199815 0.181901,0.544324 z m -0.253559,-0.07441 q -0.0028,-0.208083 -0.117133,-0.332107 -0.112999,-0.124023 -0.300412,-0.124023 -0.212218,0 -0.340376,0.119889 -0.126779,0.119889 -0.146072,0.337619 z"
         style="font-weight:normal;font-size:2.82222px;stroke-width:0.264583"
         id="path1876" />
      <path
         d="m 79.580951,33.262816 q -0.04272,-0.02481 -0.09371,-0.03583 -0.04961,-0.0124 -0.110243,-0.0124 -0.214974,0 -0.330729,0.14056 -0.114377,0.139182 -0.114377,0.401009 v 0.813042 h -0.254937 v -1.543402 h 0.254937 v 0.239779 q 0.07993,-0.14056 0.208083,-0.208084 0.128158,-0.0689 0.311437,-0.0689 0.02618,0 0.05788,0.0041 0.03169,0.0028 0.07028,0.0096 z"
         style="font-weight:normal;font-size:2.82222px;stroke-width:0.264583"
         id="path1878" />
      <path
         d="m 81.096792,33.025793 v 1.543402 h -0.254937 v -1.346343 h -0.695909 v 1.346343 h -0.254937 v -1.346343 h -0.242534 v -0.197059 h 0.242534 v -0.107487 q 0,-0.252181 0.118511,-0.37207 0.11989,-0.121267 0.366558,-0.121267 h 0.254937 v 0.21084 h -0.242534 q -0.136426,0 -0.19017,0.05512 -0.05237,0.05512 -0.05237,0.198438 v 0.136425 z m -0.254937,-0.598068 h 0.254937 v 0.321083 h -0.254937 z"
         style="font-weight:normal;font-size:2.82222px;stroke-width:0.264583"
         id="path1880" />
      <path
         d="m 81.880895,32.587577 v 0.438216 h 0.522276 v 0.197059 h -0.522276 v 0.837847 q 0,0.188791 0.05099,0.242535 0.05237,0.05374 0.21084,0.05374 h 0.260449 v 0.212218 h -0.260449 q -0.293522,0 -0.405143,-0.108865 -0.111621,-0.110243 -0.111621,-0.399631 V 33.222849 H 81.439926 V 33.02579 h 0.186035 v -0.438216 z"
         style="font-weight:normal;font-size:2.82222px;stroke-width:0.264583"
         id="path1882" />
      <path
         d="m 82.988837,32.587577 v 0.438216 h 0.522276 v 0.197059 h -0.522276 v 0.837847 q 0,0.188791 0.05099,0.242535 0.05237,0.05374 0.21084,0.05374 h 0.260449 v 0.212218 h -0.260449 q -0.293522,0 -0.405143,-0.108865 Q 82.7339,34.350087 82.7339,34.060699 V 33.222852 H 82.547865 V 33.025793 H 82.7339 v -0.438216 z"
         style="font-weight:normal;font-size:2.82222px;stroke-width:0.264583"
         id="path1884" />
      <path
         d="m 83.845976,33.025793 h 0.253559 v 1.543402 h -0.253559 z m 0,-0.600824 h 0.253559 v 0.321083 h -0.253559 z"
         style="font-weight:normal;font-size:2.82222px;stroke-width:0.264583"
         id="path1886" />
      <path
         d="m 85.911653,33.637642 v 0.931553 H 85.658094 V 33.64591 q 0,-0.219108 -0.08544,-0.327973 -0.08544,-0.108865 -0.256315,-0.108865 -0.205327,0 -0.323838,0.130914 -0.118512,0.130913 -0.118512,0.356911 v 0.872298 h -0.254937 v -1.543402 h 0.254937 v 0.239779 q 0.09095,-0.139182 0.213596,-0.208084 0.124023,-0.0689 0.285254,-0.0689 0.265961,0 0.402387,0.165365 0.136425,0.163986 0.136425,0.483691 z"
         style="font-weight:normal;font-size:2.82222px;stroke-width:0.264583"
         id="path1888" />
      <path
         d="m 87.435763,33.77958 q 0,-0.275608 -0.114377,-0.427192 -0.112999,-0.151584 -0.318327,-0.151584 -0.203949,0 -0.318327,0.151584 -0.112999,0.151584 -0.112999,0.427192 0,0.274229 0.112999,0.425813 0.114378,0.151584 0.318327,0.151584 0.205328,0 0.318327,-0.151584 0.114377,-0.151584 0.114377,-0.425813 z m 0.253559,0.598068 q 0,0.394118 -0.175011,0.585665 -0.175011,0.192926 -0.536057,0.192926 -0.133669,0 -0.25218,-0.02067 -0.118512,-0.01929 -0.230133,-0.06063 v -0.246668 q 0.111621,0.06063 0.220486,0.08957 0.108865,0.02894 0.221864,0.02894 0.249425,0 0.373448,-0.130914 0.124024,-0.129535 0.124024,-0.39274 v -0.125402 q -0.07855,0.136426 -0.201194,0.20395 -0.122645,0.06752 -0.293522,0.06752 -0.283875,0 -0.457508,-0.216352 -0.173633,-0.216352 -0.173633,-0.573263 0,-0.35829 0.173633,-0.574642 0.173633,-0.216352 0.457508,-0.216352 0.170877,0 0.293522,0.06752 0.122646,0.06752 0.201194,0.203949 v -0.234266 h 0.253559 z"
         style="font-weight:normal;font-size:2.82222px;stroke-width:0.264583"
         id="path1890" />
      <path
         d="m 88.999834,33.025793 h 1.204405 v 0.23151 l -0.953602,1.10932 h 0.953602 v 0.202572 h -1.238856 v -0.23151 l 0.953602,-1.10932 h -0.919151 z"
         style="font-weight:normal;font-size:2.82222px;stroke-width:0.264583"
         id="path1892" />
      <path
         d="m 91.190915,33.20356 q -0.20395,0 -0.322461,0.159852 -0.118511,0.158475 -0.118511,0.43546 0,0.276985 0.117133,0.436838 0.118511,0.158474 0.323839,0.158474 0.202571,0 0.321082,-0.159852 0.118511,-0.159853 0.118511,-0.43546 0,-0.274229 -0.118511,-0.434082 -0.118511,-0.16123 -0.321082,-0.16123 z m 0,-0.214974 q 0.330728,0 0.51952,0.214974 0.188791,0.214974 0.188791,0.595312 0,0.37896 -0.188791,0.595312 -0.188792,0.214974 -0.51952,0.214974 -0.332107,0 -0.520899,-0.214974 -0.187413,-0.216352 -0.187413,-0.595312 0,-0.380338 0.187413,-0.595312 0.188792,-0.214974 0.520899,-0.214974 z"
         style="font-weight:normal;font-size:2.82222px;stroke-width:0.264583"
         id="path1894" />
      <path
         d="m 93.601101,33.637642 v 0.931553 H 93.347542 V 33.64591 q 0,-0.219108 -0.08544,-0.327973 -0.08544,-0.108865 -0.256315,-0.108865 -0.205328,0 -0.323839,0.130914 -0.118511,0.130913 -0.118511,0.356911 v 0.872298 H 92.3085 v -1.543402 h 0.254937 v 0.239779 q 0.09095,-0.139182 0.213596,-0.208084 0.124023,-0.0689 0.285253,-0.0689 0.265961,0 0.402387,0.165365 0.136426,0.163986 0.136426,0.483691 z"
         style="font-weight:normal;font-size:2.82222px;stroke-width:0.264583"
         id="path1896" />
      <path
         d="m 95.429756,33.734104 v 0.124024 h -1.165819 q 0.01654,0.261827 0.157096,0.39963 0.141938,0.136426 0.394119,0.136426 0.146072,0 0.282497,-0.03583 0.137804,-0.03583 0.272852,-0.107487 v 0.239779 q -0.136426,0.05788 -0.279742,0.08819 -0.143316,0.03032 -0.290766,0.03032 -0.369314,0 -0.585665,-0.214974 -0.214974,-0.214974 -0.214974,-0.581532 0,-0.37896 0.203949,-0.600824 0.205328,-0.223242 0.552593,-0.223242 0.311437,0 0.491959,0.201194 0.181901,0.199815 0.181901,0.544324 z m -0.253559,-0.07441 q -0.0028,-0.208083 -0.117133,-0.332107 -0.112999,-0.124023 -0.300412,-0.124023 -0.212217,0 -0.340375,0.119889 -0.126779,0.119889 -0.146072,0.337619 z"
         style="font-weight:normal;font-size:2.82222px;stroke-width:0.264583"
         id="path1898" />
    </g>
    <path
       style="fill:none;stroke:#f6a800;stroke-width:0.289064px;stroke-linecap:butt;stroke-linejoin:miter;stroke-opacity:1"
       d="m 107.80656,32.091491 4.86108,-0.01338"
       id="path868" />
    <g
       aria-label="Training error"
       transform="matrix(1.2360338,0,0,1.2807238,-23.295587,-11.468491)"
       id="text872"
       style="font-weight:bold;font-size:2.19345px;line-height:1.25;font-family:sans-serif;-inkscape-font-specification:'sans-serif Bold';stroke-width:0.27418">
      <path
         d="m 110.84012,36.618812 h 1.3527 v 0.182074 h -0.56764 v 1.41696 h -0.21742 v -1.41696 h -0.56764 z"
         style="font-weight:normal;font-size:2.19345px;stroke-width:0.27418"
         id="path1814" />
      <path
         d="m 112.76796,37.202518 q -0.0332,-0.01928 -0.0728,-0.02785 -0.0386,-0.0096 -0.0857,-0.0096 -0.16708,0 -0.25705,0.109244 -0.0889,0.108173 -0.0889,0.311667 v 0.631902 h -0.19814 v -1.199543 h 0.19814 v 0.186358 q 0.0621,-0.109245 0.16172,-0.161725 0.0996,-0.05355 0.24205,-0.05355 0.0203,0 0.045,0.0032 0.0246,0.0021 0.0546,0.0075 z"
         style="font-weight:normal;font-size:2.19345px;stroke-width:0.27418"
         id="path1816" />
      <path
         d="m 113.52196,37.614861 q -0.23884,0 -0.33095,0.05462 -0.0921,0.05462 -0.0921,0.186358 0,0.10496 0.0685,0.167079 0.0696,0.06105 0.1885,0.06105 0.16387,0 0.2624,-0.11567 0.0996,-0.116741 0.0996,-0.309525 v -0.04391 z m 0.39306,-0.0814 v 0.684382 h -0.19706 v -0.182074 q -0.0675,0.109245 -0.16815,0.161725 -0.10068,0.05141 -0.24634,0.05141 -0.18421,0 -0.29346,-0.102818 -0.10817,-0.103889 -0.10817,-0.277395 0,-0.202423 0.13495,-0.305241 0.13602,-0.102818 0.40484,-0.102818 h 0.27633 v -0.01928 q 0,-0.13602 -0.09,-0.20992 -0.0889,-0.07497 -0.25062,-0.07497 -0.10282,0 -0.20028,0.02463 -0.0975,0.02463 -0.18743,0.0739 v -0.182073 q 0.10818,-0.04177 0.20992,-0.06212 0.10175,-0.02142 0.19814,-0.02142 0.26026,0 0.38878,0.134949 0.12852,0.134949 0.12852,0.40913 z"
         style="font-weight:normal;font-size:2.19345px;stroke-width:0.27418"
         id="path1818" />
      <path
         d="m 114.32201,37.018303 h 0.19707 v 1.199543 h -0.19707 z m 0,-0.466965 h 0.19707 v 0.249548 h -0.19707 z"
         style="font-weight:normal;font-size:2.19345px;stroke-width:0.27418"
         id="path1820" />
      <path
         d="m 115.92747,37.493836 v 0.72401 h -0.19707 v -0.717584 q 0,-0.170292 -0.0664,-0.254903 -0.0664,-0.08461 -0.19921,-0.08461 -0.15958,0 -0.25169,0.101747 -0.0921,0.101747 -0.0921,0.277394 v 0.677956 h -0.19814 v -1.199543 h 0.19814 v 0.186358 q 0.0707,-0.108174 0.16601,-0.161725 0.0964,-0.05355 0.2217,-0.05355 0.20671,0 0.31274,0.128523 0.10603,0.127451 0.10603,0.375928 z"
         style="font-weight:normal;font-size:2.19345px;stroke-width:0.27418"
         id="path1822" />
      <path
         d="m 116.32268,37.018303 h 0.19707 v 1.199543 h -0.19707 z m 0,-0.466965 h 0.19707 v 0.249548 h -0.19707 z"
         style="font-weight:normal;font-size:2.19345px;stroke-width:0.27418"
         id="path1824" />
      <path
         d="m 117.92814,37.493836 v 0.72401 h -0.19707 v -0.717584 q 0,-0.170292 -0.0664,-0.254903 -0.0664,-0.08461 -0.19921,-0.08461 -0.15959,0 -0.25169,0.101747 -0.0921,0.101747 -0.0921,0.277394 v 0.677956 h -0.19814 v -1.199543 h 0.19814 v 0.186358 q 0.0707,-0.108174 0.16601,-0.161725 0.0964,-0.05355 0.2217,-0.05355 0.20671,0 0.31274,0.128523 0.10603,0.127451 0.10603,0.375928 z"
         style="font-weight:normal;font-size:2.19345px;stroke-width:0.27418"
         id="path1826" />
      <path
         d="m 119.11269,37.604151 q 0,-0.214204 -0.0889,-0.332016 -0.0878,-0.117812 -0.2474,-0.117812 -0.15852,0 -0.24741,0.117812 -0.0878,0.117812 -0.0878,0.332016 0,0.213133 0.0878,0.330946 0.0889,0.117812 0.24741,0.117812 0.15958,0 0.2474,-0.117812 0.0889,-0.117813 0.0889,-0.330946 z m 0.19706,0.464823 q 0,0.306312 -0.13602,0.455184 -0.13602,0.149943 -0.41662,0.149943 -0.10389,0 -0.196,-0.01607 -0.0921,-0.01499 -0.17886,-0.04713 v -0.191712 q 0.0867,0.04713 0.17136,0.06962 0.0846,0.02249 0.17244,0.02249 0.19385,0 0.29024,-0.101747 0.0964,-0.100676 0.0964,-0.305241 v -0.09746 q -0.061,0.106031 -0.15637,0.158511 -0.0953,0.05248 -0.22813,0.05248 -0.22063,0 -0.35558,-0.16815 -0.13495,-0.168151 -0.13495,-0.445545 0,-0.278465 0.13495,-0.446615 0.13495,-0.168151 0.35558,-0.168151 0.13281,0 0.22813,0.05248 0.0953,0.05248 0.15637,0.158511 v -0.182073 h 0.19706 z"
         style="font-weight:normal;font-size:2.19345px;stroke-width:0.27418"
         id="path1828" />
      <path
         d="m 121.44001,37.568807 v 0.09639 h -0.90608 q 0.0129,0.203494 0.1221,0.310596 0.11031,0.106031 0.30631,0.106031 0.11353,0 0.21956,-0.02785 0.1071,-0.02785 0.21206,-0.08354 v 0.186358 q -0.10603,0.04498 -0.21742,0.06855 -0.11138,0.02356 -0.22598,0.02356 -0.28704,0 -0.45519,-0.16708 -0.16708,-0.167079 -0.16708,-0.45197 0,-0.294531 0.15852,-0.466965 0.15958,-0.173506 0.42947,-0.173506 0.24205,0 0.38236,0.156369 0.14137,0.155298 0.14137,0.423053 z m -0.19706,-0.05783 q -0.002,-0.161724 -0.091,-0.258116 -0.0878,-0.09639 -0.23348,-0.09639 -0.16494,0 -0.26455,0.09318 -0.0985,0.09318 -0.11352,0.2624 z"
         style="font-weight:normal;font-size:2.19345px;stroke-width:0.27418"
         id="path1830" />
      <path
         d="m 122.45855,37.202518 q -0.0332,-0.01928 -0.0728,-0.02785 -0.0386,-0.0096 -0.0857,-0.0096 -0.16708,0 -0.25704,0.109244 -0.0889,0.108173 -0.0889,0.311667 v 0.631902 h -0.19814 v -1.199543 h 0.19814 v 0.186358 q 0.0621,-0.109245 0.16173,-0.161725 0.0996,-0.05355 0.24205,-0.05355 0.0204,0 0.045,0.0032 0.0246,0.0021 0.0546,0.0075 z"
         style="font-weight:normal;font-size:2.19345px;stroke-width:0.27418"
         id="path1832" />
      <path
         d="m 123.32394,37.202518 q -0.0332,-0.01928 -0.0728,-0.02785 -0.0386,-0.0096 -0.0857,-0.0096 -0.16708,0 -0.25705,0.109244 -0.0889,0.108173 -0.0889,0.311667 v 0.631902 h -0.19814 v -1.199543 h 0.19814 v 0.186358 q 0.0621,-0.109245 0.16172,-0.161725 0.0996,-0.05355 0.24205,-0.05355 0.0204,0 0.045,0.0032 0.0246,0.0021 0.0546,0.0075 z"
         style="font-weight:normal;font-size:2.19345px;stroke-width:0.27418"
         id="path1834" />
      <path
         d="m 123.95049,37.156465 q -0.15852,0 -0.25062,0.124238 -0.0921,0.123167 -0.0921,0.338442 0,0.215276 0.091,0.339514 0.0921,0.123167 0.25169,0.123167 0.15744,0 0.24954,-0.124238 0.0921,-0.124238 0.0921,-0.338443 0,-0.213133 -0.0921,-0.337371 -0.0921,-0.125309 -0.24954,-0.125309 z m 0,-0.16708 q 0.25704,0 0.40377,0.16708 0.14673,0.167079 0.14673,0.46268 0,0.294531 -0.14673,0.462681 -0.14673,0.16708 -0.40377,0.16708 -0.25812,0 -0.40485,-0.16708 -0.14566,-0.16815 -0.14566,-0.462681 0,-0.295601 0.14566,-0.46268 0.14673,-0.16708 0.40485,-0.16708 z"
         style="font-weight:normal;font-size:2.19345px;stroke-width:0.27418"
         id="path1836" />
      <path
         d="m 125.52167,37.202518 q -0.0332,-0.01928 -0.0728,-0.02785 -0.0386,-0.0096 -0.0857,-0.0096 -0.16708,0 -0.25704,0.109244 -0.0889,0.108173 -0.0889,0.311667 v 0.631902 h -0.19814 v -1.199543 h 0.19814 v 0.186358 q 0.0621,-0.109245 0.16173,-0.161725 0.0996,-0.05355 0.24205,-0.05355 0.0203,0 0.045,0.0032 0.0246,0.0021 0.0546,0.0075 z"
         style="font-weight:normal;font-size:2.19345px;stroke-width:0.27418"
         id="path1838" />
    </g>
    <g
       aria-label="Validation error"
       transform="matrix(1.0720375,0,0,1.6413672,-4.4252309,-21.936994)"
       id="text876"
       style="font-weight:bold;font-size:2.19345px;line-height:1.25;font-family:sans-serif;-inkscape-font-specification:'sans-serif Bold';stroke-width:0.27418">
      <path
         d="m 110.80419,33.800735 -0.61049,-1.599033 h 0.22599 l 0.50659,1.346273 0.50767,-1.346273 h 0.22491 l -0.60941,1.599033 z"
         style="font-weight:normal;font-size:2.19345px;stroke-width:0.27418"
         id="path1841" />
      <path
         d="m 112.25649,33.197751 q -0.23884,0 -0.33095,0.05462 -0.0921,0.05462 -0.0921,0.186358 0,0.10496 0.0685,0.167079 0.0696,0.06105 0.1885,0.06105 0.16387,0 0.2624,-0.11567 0.0996,-0.116742 0.0996,-0.309525 v -0.04391 z m 0.39306,-0.0814 v 0.684382 h -0.19706 V 33.61866 q -0.0675,0.109244 -0.16815,0.161724 -0.10068,0.05141 -0.24634,0.05141 -0.18421,0 -0.29346,-0.102818 -0.10817,-0.103889 -0.10817,-0.277394 0,-0.202423 0.13495,-0.305241 0.13602,-0.102818 0.40484,-0.102818 h 0.27633 v -0.01928 q 0,-0.13602 -0.09,-0.20992 -0.0889,-0.07497 -0.25062,-0.07497 -0.10282,0 -0.20028,0.02463 -0.0975,0.02463 -0.18743,0.0739 V 32.65581 q 0.10817,-0.04177 0.20992,-0.06212 0.10175,-0.02142 0.19814,-0.02142 0.26026,0 0.38878,0.134949 0.12852,0.134948 0.12852,0.409129 z"
         style="font-weight:normal;font-size:2.19345px;stroke-width:0.27418"
         id="path1843" />
      <path
         d="m 113.05654,32.134228 h 0.19707 v 1.666507 h -0.19707 z"
         style="font-weight:normal;font-size:2.19345px;stroke-width:0.27418"
         id="path1845" />
      <path
         d="m 113.66488,32.601193 h 0.19707 v 1.199542 h -0.19707 z m 0,-0.466965 h 0.19707 v 0.249547 h -0.19707 z"
         style="font-weight:normal;font-size:2.19345px;stroke-width:0.27418"
         id="path1847" />
      <path
         d="m 115.06256,32.783266 v -0.649038 h 0.19707 v 1.666507 h -0.19707 v -0.179931 q -0.0621,0.107102 -0.15744,0.159582 -0.0943,0.05141 -0.22705,0.05141 -0.21742,0 -0.35451,-0.173505 -0.13602,-0.173506 -0.13602,-0.456255 0,-0.282749 0.13602,-0.456255 0.13709,-0.173505 0.35451,-0.173505 0.1328,0 0.22705,0.05248 0.0953,0.05141 0.15744,0.158511 z m -0.67153,0.418769 q 0,0.217417 0.0889,0.341656 0.09,0.123167 0.24633,0.123167 0.15637,0 0.24634,-0.123167 0.09,-0.124239 0.09,-0.341656 0,-0.217417 -0.09,-0.340585 -0.09,-0.124238 -0.24634,-0.124238 -0.15637,0 -0.24633,0.124238 -0.0889,0.123168 -0.0889,0.340585 z"
         style="font-weight:normal;font-size:2.19345px;stroke-width:0.27418"
         id="path1849" />
      <path
         d="m 116.2107,33.197751 q -0.23884,0 -0.33095,0.05462 -0.0921,0.05462 -0.0921,0.186358 0,0.10496 0.0686,0.167079 0.0696,0.06105 0.1885,0.06105 0.16386,0 0.2624,-0.11567 0.0996,-0.116742 0.0996,-0.309525 v -0.04391 z m 0.39306,-0.0814 v 0.684382 h -0.19707 V 33.61866 q -0.0675,0.109244 -0.16815,0.161724 -0.10067,0.05141 -0.24633,0.05141 -0.18422,0 -0.29346,-0.102818 -0.10817,-0.103889 -0.10817,-0.277394 0,-0.202423 0.13494,-0.305241 0.13602,-0.102818 0.40485,-0.102818 h 0.27632 v -0.01928 q 0,-0.13602 -0.09,-0.20992 -0.0889,-0.07497 -0.25062,-0.07497 -0.10282,0 -0.20028,0.02463 -0.0975,0.02463 -0.18743,0.0739 V 32.65581 q 0.10817,-0.04177 0.20992,-0.06212 0.10175,-0.02142 0.19814,-0.02142 0.26026,0 0.38878,0.134949 0.12852,0.134948 0.12852,0.409129 z"
         style="font-weight:normal;font-size:2.19345px;stroke-width:0.27418"
         id="path1851" />
      <path
         d="m 117.20567,32.260608 v 0.340585 h 0.40592 v 0.153155 h -0.40592 v 0.651181 q 0,0.14673 0.0396,0.1885 0.0407,0.04177 0.16387,0.04177 h 0.20242 v 0.164937 h -0.20242 q -0.22813,0 -0.31488,-0.08461 -0.0867,-0.08568 -0.0867,-0.310596 v -0.651181 h -0.14459 v -0.153155 h 0.14459 v -0.340585 z"
         style="font-weight:normal;font-size:2.19345px;stroke-width:0.27418"
         id="path1853" />
      <path
         d="m 117.87185,32.601193 h 0.19707 v 1.199542 h -0.19707 z m 0,-0.466965 h 0.19707 v 0.249547 h -0.19707 z"
         style="font-weight:normal;font-size:2.19345px;stroke-width:0.27418"
         id="path1855" />
      <path
         d="m 118.94501,32.739354 q -0.15851,0 -0.25062,0.124239 -0.0921,0.123167 -0.0921,0.338442 0,0.215275 0.091,0.339514 0.0921,0.123167 0.25169,0.123167 0.15744,0 0.24955,-0.124239 0.0921,-0.124238 0.0921,-0.338442 0,-0.213133 -0.0921,-0.337371 -0.0921,-0.12531 -0.24955,-0.12531 z m 0,-0.167079 q 0.25705,0 0.40378,0.167079 0.14673,0.167079 0.14673,0.462681 0,0.294531 -0.14673,0.462681 -0.14673,0.167079 -0.40378,0.167079 -0.25811,0 -0.40484,-0.167079 -0.14566,-0.16815 -0.14566,-0.462681 0,-0.295602 0.14566,-0.462681 0.14673,-0.167079 0.40484,-0.167079 z"
         style="font-weight:normal;font-size:2.19345px;stroke-width:0.27418"
         id="path1857" />
      <path
         d="m 120.81823,33.076726 v 0.724009 h -0.19707 v -0.717583 q 0,-0.170293 -0.0664,-0.254903 -0.0664,-0.08461 -0.19921,-0.08461 -0.15959,0 -0.25169,0.101747 -0.0921,0.101747 -0.0921,0.277395 v 0.677955 h -0.19814 v -1.199542 h 0.19814 v 0.186357 q 0.0707,-0.108173 0.16601,-0.161724 0.0964,-0.05355 0.2217,-0.05355 0.2067,0 0.31274,0.128522 0.10603,0.127452 0.10603,0.375929 z"
         style="font-weight:normal;font-size:2.19345px;stroke-width:0.27418"
         id="path1859" />
      <path
         d="m 122.93778,33.151697 v 0.09639 h -0.90609 q 0.0129,0.203494 0.1221,0.310596 0.11031,0.106031 0.30631,0.106031 0.11353,0 0.21956,-0.02785 0.1071,-0.02785 0.21206,-0.08354 v 0.186357 q -0.10603,0.04498 -0.21742,0.06855 -0.11138,0.02356 -0.22598,0.02356 -0.28703,0 -0.45518,-0.167079 -0.16708,-0.167079 -0.16708,-0.451971 0,-0.29453 0.15851,-0.466965 0.15958,-0.173505 0.42948,-0.173505 0.24205,0 0.38235,0.156369 0.14138,0.155298 0.14138,0.423053 z m -0.19707,-0.05783 q -0.002,-0.161724 -0.091,-0.258116 -0.0878,-0.09639 -0.23348,-0.09639 -0.16494,0 -0.26454,0.09318 -0.0985,0.09318 -0.11353,0.2624 z"
         style="font-weight:normal;font-size:2.19345px;stroke-width:0.27418"
         id="path1861" />
      <path
         d="m 123.95632,32.785408 q -0.0332,-0.01928 -0.0728,-0.02785 -0.0386,-0.0096 -0.0857,-0.0096 -0.16708,0 -0.25705,0.109244 -0.0889,0.108173 -0.0889,0.311667 v 0.631902 h -0.19814 v -1.199542 h 0.19814 v 0.186357 q 0.0621,-0.109244 0.16172,-0.161724 0.0996,-0.05355 0.24205,-0.05355 0.0204,0 0.045,0.0032 0.0246,0.0021 0.0546,0.0075 z"
         style="font-weight:normal;font-size:2.19345px;stroke-width:0.27418"
         id="path1863" />
      <path
         d="m 124.8217,32.785408 q -0.0332,-0.01928 -0.0728,-0.02785 -0.0386,-0.0096 -0.0857,-0.0096 -0.16708,0 -0.25704,0.109244 -0.0889,0.108173 -0.0889,0.311667 v 0.631902 h -0.19814 v -1.199542 h 0.19814 v 0.186357 q 0.0621,-0.109244 0.16172,-0.161724 0.0996,-0.05355 0.24206,-0.05355 0.0203,0 0.045,0.0032 0.0246,0.0021 0.0546,0.0075 z"
         style="font-weight:normal;font-size:2.19345px;stroke-width:0.27418"
         id="path1865" />
      <path
         d="m 125.44825,32.739354 q -0.15851,0 -0.25062,0.124239 -0.0921,0.123167 -0.0921,0.338442 0,0.215275 0.091,0.339514 0.0921,0.123167 0.25169,0.123167 0.15744,0 0.24955,-0.124239 0.0921,-0.124238 0.0921,-0.338442 0,-0.213133 -0.0921,-0.337371 -0.0921,-0.12531 -0.24955,-0.12531 z m 0,-0.167079 q 0.25704,0 0.40377,0.167079 0.14673,0.167079 0.14673,0.462681 0,0.294531 -0.14673,0.462681 -0.14673,0.167079 -0.40377,0.167079 -0.25812,0 -0.40485,-0.167079 -0.14566,-0.16815 -0.14566,-0.462681 0,-0.295602 0.14566,-0.462681 0.14673,-0.167079 0.40485,-0.167079 z"
         style="font-weight:normal;font-size:2.19345px;stroke-width:0.27418"
         id="path1867" />
      <path
         d="m 127.01944,32.785408 q -0.0332,-0.01928 -0.0728,-0.02785 -0.0386,-0.0096 -0.0857,-0.0096 -0.16707,0 -0.25704,0.109244 -0.0889,0.108173 -0.0889,0.311667 v 0.631902 h -0.19814 v -1.199542 h 0.19814 v 0.186357 q 0.0621,-0.109244 0.16172,-0.161724 0.0996,-0.05355 0.24205,-0.05355 0.0203,0 0.045,0.0032 0.0246,0.0021 0.0546,0.0075 z"
         style="font-weight:normal;font-size:2.19345px;stroke-width:0.27418"
         id="path1869" />
    </g>
    <path
       style="fill:none;stroke:#000000;stroke-width:0.13229167;stroke-linecap:butt;stroke-linejoin:miter;stroke-miterlimit:4;stroke-dasharray:none;stroke-opacity:1;marker-start:url(#Arrow1Mstart);marker-end:url(#Arrow1Mend)"
       d="m 112.58018,70.956719 v 3.965078"
       id="path4929" />
    <g
       aria-label="Optimal capacity"
       id="text880"
       style="font-weight:bold;font-size:3.52777px;line-height:1.25;font-family:sans-serif;-inkscape-font-specification:'sans-serif Bold';stroke-width:0.264583"
       transform="matrix(0.79933809,0,0,1.08524,35.12926,-29.101275)">
      <path
         d="m 61.867668,79.904071 q -0.303168,0 -0.482313,0.225999 -0.177766,0.225998 -0.177766,0.615982 0,0.388607 0.177766,0.614605 0.179145,0.225998 0.482313,0.225998 0.303169,0 0.479557,-0.225998 0.177767,-0.225998 0.177767,-0.614605 0,-0.389984 -0.177767,-0.615982 -0.176388,-0.225999 -0.479557,-0.225999 z m 0,-0.225998 q 0.432704,0 0.691775,0.290766 0.259071,0.289388 0.259071,0.777213 0,0.486447 -0.259071,0.777213 -0.259071,0.289388 -0.691775,0.289388 -0.434081,0 -0.69453,-0.289388 -0.259071,-0.289388 -0.259071,-0.777213 0,-0.487825 0.259071,-0.777213 0.260449,-0.290766 0.69453,-0.290766 z"
         style="font-weight:normal;font-size:2.82222px;stroke-width:0.264583"
         id="path1760" />
      <path
         d="m 63.48824,81.54118 v 0.818554 h -0.254937 v -2.130446 h 0.254937 v 0.234267 q 0.07993,-0.137804 0.201194,-0.20395 0.122645,-0.06752 0.292143,-0.06752 0.28112,0 0.456131,0.223242 0.176388,0.223242 0.176388,0.587044 0,0.363802 -0.176388,0.587044 -0.175011,0.223242 -0.456131,0.223242 -0.169498,0 -0.292143,-0.06615 -0.121268,-0.06752 -0.201194,-0.205327 z m 0.862651,-0.538813 q 0,-0.279741 -0.115755,-0.438216 -0.114377,-0.159852 -0.31557,-0.159852 -0.201194,0 -0.316949,0.159852 -0.114377,0.158475 -0.114377,0.438216 0,0.279742 0.114377,0.439594 0.115755,0.158474 0.316949,0.158474 0.201193,0 0.31557,-0.158474 0.115755,-0.159852 0.115755,-0.439594 z"
         style="font-weight:normal;font-size:2.82222px;stroke-width:0.264583"
         id="path1762" />
      <path
         d="m 65.2852,79.791072 v 0.438216 h 0.522276 v 0.19706 H 65.2852 v 0.837846 q 0,0.188791 0.05099,0.242535 0.05236,0.05374 0.210839,0.05374 h 0.260449 v 0.212218 h -0.260449 q -0.293521,0 -0.405142,-0.108865 -0.111622,-0.110243 -0.111622,-0.399631 V 80.426345 H 64.84423 v -0.19706 h 0.186035 v -0.438216 z"
         style="font-weight:normal;font-size:2.82222px;stroke-width:0.264583"
         id="path1764" />
      <path
         d="m 66.14234,80.229288 h 0.253559 V 81.77269 H 66.14234 Z m 0,-0.600824 h 0.253559 v 0.321083 H 66.14234 Z"
         style="font-weight:normal;font-size:2.82222px;stroke-width:0.264583"
         id="path1766" />
      <path
         d="m 68.126713,80.525566 q 0.09509,-0.170876 0.227376,-0.252181 0.132292,-0.0813 0.311436,-0.0813 0.241157,0 0.372071,0.169499 0.130913,0.16812 0.130913,0.479557 v 0.931553 h -0.254937 v -0.923285 q 0,-0.221864 -0.07855,-0.329351 -0.07855,-0.107487 -0.239778,-0.107487 -0.19706,0 -0.311437,0.130914 -0.114377,0.130913 -0.114377,0.356911 v 0.872298 h -0.254937 v -0.923285 q 0,-0.223242 -0.07855,-0.329351 -0.07855,-0.107487 -0.242534,-0.107487 -0.194304,0 -0.308681,0.132292 -0.114377,0.130913 -0.114377,0.355533 v 0.872298 h -0.254937 v -1.543402 h 0.254937 v 0.239779 q 0.08682,-0.141938 0.208084,-0.209462 0.121267,-0.06752 0.28801,-0.06752 0.16812,0 0.285253,0.08544 0.118511,0.08544 0.175011,0.248046 z"
         style="font-weight:normal;font-size:2.82222px;stroke-width:0.264583"
         id="path1768" />
      <path
         d="m 70.377048,80.996855 q -0.307302,0 -0.425813,0.07028 -0.118512,0.07028 -0.118512,0.239778 0,0.135048 0.08819,0.214974 0.08957,0.07855 0.242534,0.07855 0.21084,0 0.337619,-0.148828 0.128158,-0.150206 0.128158,-0.398253 v -0.0565 z m 0.50574,-0.104731 v 0.880566 h -0.253559 v -0.234266 q -0.08682,0.140559 -0.216352,0.208083 -0.129535,0.06615 -0.316948,0.06615 -0.237023,0 -0.377583,-0.132292 -0.139181,-0.133669 -0.139181,-0.356911 0,-0.260449 0.173632,-0.392741 0.175011,-0.132291 0.520898,-0.132291 h 0.355534 v -0.02481 q 0,-0.175011 -0.115755,-0.270095 -0.114377,-0.09646 -0.322461,-0.09646 -0.132291,0 -0.257693,0.03169 -0.125401,0.03169 -0.241156,0.09508 v -0.234266 q 0.139181,-0.05374 0.270095,-0.07993 0.130913,-0.02756 0.254937,-0.02756 0.334863,0 0.500227,0.173633 0.165365,0.173633 0.165365,0.52641 z"
         style="font-weight:normal;font-size:2.82222px;stroke-width:0.264583"
         id="path1770" />
      <path
         d="M 71.406441,79.628464 H 71.66 v 2.144226 h -0.253559 z"
         style="font-weight:normal;font-size:2.82222px;stroke-width:0.264583"
         id="path1772" />
      <path
         d="m 74.198345,80.288544 v 0.237022 q -0.107487,-0.05925 -0.216352,-0.08819 -0.107487,-0.03032 -0.21773,-0.03032 -0.246668,0 -0.383094,0.157096 -0.136426,0.155718 -0.136426,0.438216 0,0.282498 0.136426,0.439594 0.136426,0.155718 0.383094,0.155718 0.110243,0 0.21773,-0.02894 0.108865,-0.03032 0.216352,-0.08957 v 0.234266 q -0.106109,0.04961 -0.220486,0.07441 -0.112999,0.02481 -0.241157,0.02481 -0.348643,0 -0.55397,-0.219108 -0.205328,-0.219108 -0.205328,-0.591178 0,-0.377582 0.206706,-0.593934 0.208083,-0.216352 0.569129,-0.216352 0.117133,0 0.228754,0.02481 0.111621,0.02343 0.216352,0.07166 z"
         style="font-weight:normal;font-size:2.82222px;stroke-width:0.264583"
         id="path1774" />
      <path
         d="m 75.343494,80.996855 q -0.307302,0 -0.425813,0.07028 -0.118512,0.07028 -0.118512,0.239778 0,0.135048 0.08819,0.214974 0.08957,0.07855 0.242534,0.07855 0.21084,0 0.337619,-0.148828 0.128158,-0.150206 0.128158,-0.398253 v -0.0565 z m 0.50574,-0.104731 v 0.880566 h -0.253559 v -0.234266 q -0.08682,0.140559 -0.216352,0.208083 -0.129535,0.06615 -0.316949,0.06615 -0.237022,0 -0.377582,-0.132292 -0.139181,-0.133669 -0.139181,-0.356911 0,-0.260449 0.173632,-0.392741 0.175011,-0.132291 0.520898,-0.132291 h 0.355534 v -0.02481 q 0,-0.175011 -0.115755,-0.270095 -0.114377,-0.09646 -0.322461,-0.09646 -0.132292,0 -0.257693,0.03169 -0.125401,0.03169 -0.241156,0.09508 v -0.234266 q 0.139181,-0.05374 0.270095,-0.07993 0.130913,-0.02756 0.254937,-0.02756 0.334863,0 0.500227,0.173633 0.165365,0.173633 0.165365,0.52641 z"
         style="font-weight:normal;font-size:2.82222px;stroke-width:0.264583"
         id="path1776" />
      <path
         d="m 76.618179,81.54118 v 0.818554 h -0.254937 v -2.130446 h 0.254937 v 0.234267 q 0.07993,-0.137804 0.201193,-0.20395 0.122645,-0.06752 0.292144,-0.06752 0.28112,0 0.45613,0.223242 0.176389,0.223242 0.176389,0.587044 0,0.363802 -0.176389,0.587044 -0.17501,0.223242 -0.45613,0.223242 -0.169499,0 -0.292144,-0.06615 -0.121267,-0.06752 -0.201193,-0.205327 z m 0.862651,-0.538813 q 0,-0.279741 -0.115755,-0.438216 -0.114377,-0.159852 -0.315571,-0.159852 -0.201193,0 -0.316948,0.159852 -0.114377,0.158475 -0.114377,0.438216 0,0.279742 0.114377,0.439594 0.115755,0.158474 0.316948,0.158474 0.201194,0 0.315571,-0.158474 0.115755,-0.159852 0.115755,-0.439594 z"
         style="font-weight:normal;font-size:2.82222px;stroke-width:0.264583"
         id="path1778" />
      <path
         d="m 78.865757,80.996855 q -0.307303,0 -0.425814,0.07028 -0.118511,0.07028 -0.118511,0.239778 0,0.135048 0.08819,0.214974 0.08957,0.07855 0.242535,0.07855 0.21084,0 0.337619,-0.148828 0.128157,-0.150206 0.128157,-0.398253 v -0.0565 z m 0.505739,-0.104731 v 0.880566 h -0.253559 v -0.234266 q -0.08682,0.140559 -0.216351,0.208083 -0.129536,0.06615 -0.316949,0.06615 -0.237022,0 -0.377582,-0.132292 -0.139182,-0.133669 -0.139182,-0.356911 0,-0.260449 0.173633,-0.392741 0.175011,-0.132291 0.520898,-0.132291 h 0.355533 v -0.02481 q 0,-0.175011 -0.115755,-0.270095 -0.114377,-0.09646 -0.32246,-0.09646 -0.132292,0 -0.257693,0.03169 -0.125402,0.03169 -0.241157,0.09508 v -0.234266 q 0.139182,-0.05374 0.270095,-0.07993 0.130914,-0.02756 0.254937,-0.02756 0.334863,0 0.500228,0.173633 0.165364,0.173633 0.165364,0.52641 z"
         style="font-weight:normal;font-size:2.82222px;stroke-width:0.264583"
         id="path1780" />
      <path
         d="m 81.00585,80.288544 v 0.237022 q -0.107487,-0.05925 -0.216352,-0.08819 -0.107487,-0.03032 -0.21773,-0.03032 -0.246669,0 -0.383094,0.157096 -0.136426,0.155718 -0.136426,0.438216 0,0.282498 0.136426,0.439594 0.136425,0.155718 0.383094,0.155718 0.110243,0 0.21773,-0.02894 0.108865,-0.03032 0.216352,-0.08957 v 0.234266 q -0.106109,0.04961 -0.220486,0.07441 -0.112999,0.02481 -0.241157,0.02481 -0.348643,0 -0.553971,-0.219108 -0.205327,-0.219108 -0.205327,-0.591178 0,-0.377582 0.206705,-0.593934 0.208084,-0.216352 0.56913,-0.216352 0.117133,0 0.228754,0.02481 0.111621,0.02343 0.216352,0.07166 z"
         style="font-weight:normal;font-size:2.82222px;stroke-width:0.264583"
         id="path1782" />
      <path
         d="m 81.449576,80.229288 h 0.253559 v 1.543402 h -0.253559 z m 0,-0.600824 h 0.253559 v 0.321083 h -0.253559 z"
         style="font-weight:normal;font-size:2.82222px;stroke-width:0.264583"
         id="path1784" />
      <path
         d="m 82.483105,79.791072 v 0.438216 h 0.522276 v 0.19706 h -0.522276 v 0.837846 q 0,0.188791 0.05099,0.242535 0.05237,0.05374 0.21084,0.05374 h 0.260449 v 0.212218 h -0.260449 q -0.293522,0 -0.405143,-0.108865 -0.111621,-0.110243 -0.111621,-0.399631 v -0.837846 h -0.186035 v -0.19706 h 0.186035 v -0.438216 z"
         style="font-weight:normal;font-size:2.82222px;stroke-width:0.264583"
         id="path1786" />
      <path
         d="m 83.982408,81.916006 q -0.107487,0.275607 -0.209461,0.359667 -0.101975,0.08406 -0.272852,0.08406 h -0.202571 v -0.212218 h 0.148828 q 0.104731,0 0.162608,-0.04961 0.05788,-0.04961 0.128158,-0.234267 l 0.04548,-0.115755 -0.624251,-1.518597 h 0.268717 l 0.482313,1.207161 0.482313,-1.207161 h 0.268717 z"
         style="font-weight:normal;font-size:2.82222px;stroke-width:0.264583"
         id="path1788" />
    </g>
    <g
       aria-label="Error"
       id="text888"
       style="font-weight:bold;font-size:3.52777px;line-height:1.25;font-family:sans-serif;-inkscape-font-specification:'sans-serif Bold';stroke-width:0.264583"
       transform="matrix(0.91606002,0,0,0.93789184,1.6491991,3.4539371)">
      <path
         d="m 26.883646,49.169708 h 1.463476 v 0.263549 h -1.150317 v 0.68523 h 1.102258 v 0.26355 h -1.102258 v 0.838708 h 1.178222 v 0.26355 h -1.491381 z"
         style="font-weight:normal;font-size:3.175px;stroke-width:0.264583"
         id="path1932" />
      <path
         d="m 29.886563,50.014617 q -0.04806,-0.02791 -0.10542,-0.04031 -0.05581,-0.01395 -0.124023,-0.01395 -0.241846,0 -0.372071,0.15813 -0.128674,0.156579 -0.128674,0.451135 v 0.914673 h -0.286804 v -1.736328 h 0.286804 v 0.269751 q 0.08992,-0.15813 0.234094,-0.234094 0.144177,-0.07752 0.350366,-0.07752 0.02946,0 0.06511,0.0047 0.03566,0.0031 0.07906,0.01085 z"
         style="font-weight:normal;font-size:3.175px;stroke-width:0.264583"
         id="path1934" />
      <path
         d="m 31.1392,50.014617 q -0.04806,-0.02791 -0.10542,-0.04031 -0.05581,-0.01395 -0.124024,-0.01395 -0.241845,0 -0.37207,0.15813 -0.128674,0.156579 -0.128674,0.451135 v 0.914673 h -0.286805 v -1.736328 h 0.286805 v 0.269751 q 0.08992,-0.15813 0.234094,-0.234094 0.144177,-0.07752 0.350366,-0.07752 0.02946,0 0.06511,0.0047 0.03566,0.0031 0.07906,0.01085 z"
         style="font-weight:normal;font-size:3.175px;stroke-width:0.264583"
         id="path1936" />
      <path
         d="m 32.046121,49.947955 q -0.229444,0 -0.362769,0.179834 -0.133325,0.178283 -0.133325,0.489892 0,0.311609 0.131775,0.491443 0.133325,0.178284 0.364319,0.178284 0.227893,0 0.361218,-0.179834 0.133325,-0.179834 0.133325,-0.489893 0,-0.308508 -0.133325,-0.488342 -0.133325,-0.181384 -0.361218,-0.181384 z m 0,-0.241846 q 0.37207,0 0.58446,0.241846 0.21239,0.241845 0.21239,0.669726 0,0.426331 -0.21239,0.669727 -0.21239,0.241845 -0.58446,0.241845 -0.373621,0 -0.586011,-0.241845 -0.21084,-0.243396 -0.21084,-0.669727 0,-0.427881 0.21084,-0.669726 0.21239,-0.241846 0.586011,-0.241846 z"
         style="font-weight:normal;font-size:3.175px;stroke-width:0.264583"
         id="path1938" />
      <path
         d="m 34.320401,50.014617 q -0.04806,-0.02791 -0.10542,-0.04031 -0.05581,-0.01395 -0.124023,-0.01395 -0.241846,0 -0.372071,0.15813 -0.128674,0.156579 -0.128674,0.451135 v 0.914673 h -0.286804 v -1.736328 h 0.286804 v 0.269751 q 0.08992,-0.15813 0.234094,-0.234094 0.144177,-0.07752 0.350366,-0.07752 0.02946,0 0.06511,0.0047 0.03566,0.0031 0.07906,0.01085 z"
         style="font-weight:normal;font-size:3.175px;stroke-width:0.264583"
         id="path1940" />
    </g>
    <path
       inkscape:original-d="m 69.57153,27.836127 c 2.65e-4,15.180892 2.65e-4,30.361523 0,45.541887 2.65e-4,1.358143 2.65e-4,2.715966 0,4.073553"
       inkscape:path-effect="#path-effect390"
       id="path388"
       d="m 69.57153,27.836127 c 0,15.180892 0,30.361523 0,38.630776 0,8.269254 0,9.627077 0,10.984664"
       style="fill:#a11035;stroke:#a11035;stroke-width:0.264583px;stroke-linecap:butt;stroke-linejoin:miter;stroke-opacity:1;fill-opacity:1" />
    <path
       style="fill:none;stroke:#006165;stroke-width:0.280849;stroke-linecap:butt;stroke-linejoin:miter;stroke-miterlimit:4;stroke-dasharray:0.561696, 0.280849;stroke-dashoffset:0;stroke-opacity:1"
       d="m 107.85913,36.563186 h 4.929"
       id="path965" />
    <path
       id="path129"
       d="M 70.687295,72.490427 83.314503,60.736851"
       style="fill:none;stroke:#000000;stroke-width:0.123825;stroke-linecap:butt;stroke-linejoin:miter;stroke-opacity:1;stroke-miterlimit:4;stroke-dasharray:none" />
    <g
       style="font-size:3.51285px;line-height:1.25;font-family:sans-serif;-inkscape-font-specification:sans-serif;stroke-width:0.131732"
       id="text182"
       aria-label="Capacity">
      <path
         id="path184"
         style="stroke-width:0.131732"
         d="m 80.9391,80.394949 v 0.36535 q -0.174956,-0.16295 -0.373926,-0.243567 -0.197255,-0.08062 -0.420239,-0.08062 -0.439106,0 -0.672381,0.269296 -0.233275,0.26758 -0.233275,0.775297 0,0.506001 0.233275,0.775297 0.233275,0.26758 0.672381,0.26758 0.222984,0 0.420239,-0.08062 0.19897,-0.08062 0.373926,-0.243567 v 0.36192 q -0.181817,0.123498 -0.385933,0.185248 -0.202401,0.06175 -0.428815,0.06175 -0.581472,0 -0.915948,-0.355059 -0.334475,-0.356773 -0.334475,-0.972551 0,-0.617494 0.334475,-0.972552 0.334476,-0.356774 0.915948,-0.356774 0.229845,0 0.432246,0.06175 0.204115,0.06003 0.382502,0.181818 z" />
      <path
         id="path186"
         style="stroke-width:0.131732"
         d="m 82.337036,81.792885 q -0.382502,0 -0.530015,0.08748 -0.147512,0.08748 -0.147512,0.298455 0,0.168095 0.109777,0.26758 0.111491,0.09777 0.301885,0.09777 0.262435,0 0.420239,-0.185248 0.159519,-0.186963 0.159519,-0.49571 v -0.07032 z m 0.6295,-0.13036 v 1.09605 h -0.315607 v -0.291594 q -0.108062,0.174957 -0.269296,0.259005 -0.161234,0.08233 -0.39451,0.08233 -0.295024,0 -0.46998,-0.164665 -0.173242,-0.16638 -0.173242,-0.444252 0,-0.324184 0.216123,-0.488849 0.217838,-0.164665 0.648368,-0.164665 h 0.442537 v -0.03087 q 0,-0.217838 -0.144082,-0.336191 -0.142367,-0.120068 -0.401371,-0.120068 -0.164665,0 -0.320753,0.03945 -0.156089,0.03945 -0.30017,0.118353 v -0.291594 q 0.173241,-0.0669 0.33619,-0.09949 0.16295,-0.03431 0.317323,-0.03431 0.416808,0 0.622639,0.216122 0.205831,0.216123 0.205831,0.655229 z" />
      <path
         id="path188"
         style="stroke-width:0.131732"
         d="m 83.923651,82.470412 v 1.018864 h -0.317323 v -2.65179 h 0.317323 v 0.291594 q 0.09948,-0.171526 0.250427,-0.253859 0.152658,-0.08405 0.363635,-0.08405 0.349913,0 0.567751,0.277872 0.219553,0.277871 0.219553,0.7307 0,0.452828 -0.219553,0.7307 -0.217838,0.277872 -0.567751,0.277872 -0.210977,0 -0.363635,-0.08233 -0.150942,-0.08405 -0.250427,-0.255574 z m 1.073752,-0.670666 q 0,-0.348198 -0.144082,-0.545453 -0.142367,-0.19897 -0.392794,-0.19897 -0.250428,0 -0.39451,0.19897 -0.142366,0.197255 -0.142366,0.545453 0,0.348197 0.142366,0.547167 0.144082,0.197255 0.39451,0.197255 0.250427,0 0.392794,-0.197255 0.144082,-0.19897 0.144082,-0.547167 z" />
      <path
         id="path190"
         style="stroke-width:0.131732"
         d="m 86.721238,81.792885 q -0.382503,0 -0.530015,0.08748 -0.147512,0.08748 -0.147512,0.298455 0,0.168095 0.109776,0.26758 0.111492,0.09777 0.301886,0.09777 0.262434,0 0.420238,-0.185248 0.159519,-0.186963 0.159519,-0.49571 v -0.07032 z m 0.6295,-0.13036 v 1.09605 H 87.03513 v -0.291594 q -0.108061,0.174957 -0.269296,0.259005 -0.161234,0.08233 -0.394509,0.08233 -0.295025,0 -0.469981,-0.164665 -0.173241,-0.16638 -0.173241,-0.444252 0,-0.324184 0.216123,-0.488849 0.217837,-0.164665 0.648367,-0.164665 h 0.442537 v -0.03087 q 0,-0.217838 -0.144082,-0.336191 -0.142366,-0.120068 -0.40137,-0.120068 -0.164665,0 -0.320754,0.03945 -0.156088,0.03945 -0.30017,0.118353 v -0.291594 q 0.173241,-0.0669 0.336191,-0.09949 0.162949,-0.03431 0.317323,-0.03431 0.416808,0 0.622639,0.216122 0.205831,0.216123 0.205831,0.655229 z" />
      <path
         id="path192"
         style="stroke-width:0.131732"
         d="m 89.385035,80.911242 v 0.295024 q -0.13379,-0.07376 -0.269295,-0.109776 -0.133791,-0.03774 -0.271011,-0.03774 -0.307032,0 -0.476842,0.195539 -0.169811,0.193825 -0.169811,0.545453 0,0.351628 0.169811,0.547167 0.16981,0.193825 0.476842,0.193825 0.13722,0 0.271011,-0.03602 0.135505,-0.03774 0.269295,-0.111492 v 0.291594 q -0.132075,0.06175 -0.274441,0.09262 -0.140651,0.03087 -0.300171,0.03087 -0.43396,0 -0.689534,-0.272726 -0.255573,-0.272726 -0.255573,-0.735846 0,-0.469981 0.257289,-0.739277 0.259004,-0.269295 0.708402,-0.269295 0.145797,0 0.284733,0.03087 0.138936,0.02916 0.269295,0.08919 z" />
      <path
         id="path194"
         style="stroke-width:0.131732"
         d="m 89.937348,80.837486 h 0.315608 v 1.921089 h -0.315608 z m 0,-0.747853 h 0.315608 v 0.399655 h -0.315608 z" />
      <path
         id="path196"
         style="stroke-width:0.131732"
         d="m 91.223792,80.292033 v 0.545453 h 0.650083 v 0.245282 h -0.650083 v 1.042877 q 0,0.23499 0.06346,0.301885 0.06518,0.0669 0.262434,0.0669 h 0.324184 v 0.264149 h -0.324184 q -0.36535,0 -0.504286,-0.135505 -0.138936,-0.137221 -0.138936,-0.497425 v -1.042877 h -0.23156 v -0.245282 h 0.23156 v -0.545453 z" />
      <path
         id="path198"
         style="stroke-width:0.131732"
         d="m 93.089994,82.936962 q -0.13379,0.343052 -0.260719,0.447683 -0.126929,0.104631 -0.339621,0.104631 h -0.252143 v -0.26415 h 0.185247 q 0.13036,0 0.202401,-0.06175 0.07204,-0.06175 0.159519,-0.291594 l 0.0566,-0.144082 -0.777013,-1.890215 h 0.334476 l 0.60034,1.502566 0.600341,-1.502566 h 0.334475 z" />
    </g>
  </g>
</svg>
