<?xml version="1.0" encoding="UTF-8" standalone="no"?>
<svg
   xmlns:dc="http://purl.org/dc/elements/1.1/"
   xmlns:cc="http://creativecommons.org/ns#"
   xmlns:rdf="http://www.w3.org/1999/02/22-rdf-syntax-ns#"
   xmlns:svg="http://www.w3.org/2000/svg"
   xmlns="http://www.w3.org/2000/svg"
   xmlns:sodipodi="http://sodipodi.sourceforge.net/DTD/sodipodi-0.dtd"
   xmlns:inkscape="http://www.inkscape.org/namespaces/inkscape"
   sodipodi:docname="overfitting.svg"
   inkscape:version="1.0 (1.0+r73+1)"
   id="svg8"
   version="1.1"
   viewBox="0 0 210 297"
   height="297mm"
   width="210mm">
  <defs
     id="defs2">
    <marker
       inkscape:stockid="Arrow1Mend"
       orient="auto"
       refY="0.0"
       refX="0.0"
       id="Arrow1Mend"
       style="overflow:visible;"
       inkscape:isstock="true">
      <path
         id="path4940"
         d="M 0.0,0.0 L 5.0,-5.0 L -12.5,0.0 L 5.0,5.0 L 0.0,0.0 z "
         style="fill-rule:evenodd;stroke:#000000;stroke-width:1pt;stroke-opacity:1;fill:#000000;fill-opacity:1"
         transform="scale(0.4) rotate(180) translate(10,0)" />
    </marker>
    <marker
       inkscape:stockid="Arrow1Mstart"
       orient="auto"
       refY="0.0"
       refX="0.0"
       id="Arrow1Mstart"
       style="overflow:visible"
       inkscape:isstock="true">
      <path
         id="path4937"
         d="M 0.0,0.0 L 5.0,-5.0 L -12.5,0.0 L 5.0,5.0 L 0.0,0.0 z "
         style="fill-rule:evenodd;stroke:#000000;stroke-width:1pt;stroke-opacity:1;fill:#000000;fill-opacity:1"
         transform="scale(0.4) translate(10,0)" />
    </marker>
    <inkscape:path-effect
       effect="bspline"
       id="path-effect390"
       is_visible="true"
       lpeversion="1"
       weight="33.333333"
       steps="2"
       helper_size="0"
       apply_no_weight="true"
       apply_with_weight="true"
       only_selected="false" />
  </defs>
  <sodipodi:namedview
     inkscape:window-maximized="1"
     inkscape:window-y="0"
     inkscape:window-x="0"
     inkscape:window-height="850"
     inkscape:window-width="1600"
     inkscape:object-nodes="false"
     inkscape:snap-intersection-paths="false"
     inkscape:object-paths="false"
     inkscape:snap-smooth-nodes="true"
     inkscape:snap-global="false"
     showgrid="true"
     inkscape:document-rotation="0"
     inkscape:current-layer="layer1"
     inkscape:document-units="mm"
     inkscape:cy="143.00882"
     inkscape:cx="418.31381"
     inkscape:zoom="8.0000004"
     inkscape:pageshadow="2"
     inkscape:pageopacity="0.0"
     borderopacity="1.0"
     bordercolor="#666666"
     pagecolor="#ffffff"
     id="base">
    <inkscape:grid
       type="xygrid"
       id="grid386" />
  </sodipodi:namedview>
  <metadata
     id="metadata5">
    <rdf:RDF>
      <cc:Work
         rdf:about="">
        <dc:format>image/svg+xml</dc:format>
        <dc:type
           rdf:resource="http://purl.org/dc/dcmitype/StillImage" />
        <dc:title></dc:title>
      </cc:Work>
    </rdf:RDF>
  </metadata>
  <g
     id="layer1"
     inkscape:groupmode="layer"
     inkscape:label="Layer 1">
    <text
       id="text852"
       y="35.289616"
       x="73.539742"
       style="font-weight:bold;font-size:3.52777px;line-height:1.25;font-family:sans-serif;-inkscape-font-specification:'sans-serif Bold';stroke-width:0.264583"
       xml:space="preserve"><tspan
         style="stroke-width:0.264583"
         y="35.289616"
         x="73.539742"
         id="tspan850"
         sodipodi:role="line" /></text>
    <rect
       y="27.705719"
       x="35.951572"
       height="49.94857"
       width="104.3011"
       id="rect10"
       style="opacity:0.940252;fill:none;fill-rule:evenodd;stroke:#000000;stroke-width:0.5;stroke-miterlimit:4;stroke-dasharray:none;stroke-opacity:0.938464" />
    <path
       sodipodi:nodetypes="czc"
       id="path835"
       d="m 37.922932,27.873853 c -0.338521,1.179337 -2.763084,45.824298 11.770507,46.125737 14.533591,0.301439 87.006811,2.515995 87.507791,1.639285"
       style="fill:none;stroke:#006165;stroke-width:0.264583;stroke-linecap:butt;stroke-linejoin:miter;stroke-miterlimit:4;stroke-dasharray:1.05833, 0.264583;stroke-dashoffset:0;stroke-opacity:1" />
    <path
       sodipodi:nodetypes="csscc"
       id="path837"
       d="m 38.840128,28.008092 c -1.337856,0.225918 -2.20454,44.000893 10.88003,44.3316 5.644115,0.142652 16.182863,1.253702 21.96083,0.951839 12.055642,-0.629831 26.180749,-2.376848 30.134932,-2.196447 22.04153,-0.20399 19.58369,-7.384408 36.50364,-10.718517"
       style="fill:none;stroke:#f6a800;stroke-width:0.4;stroke-linecap:butt;stroke-linejoin:miter;stroke-miterlimit:4;stroke-dasharray:none;stroke-opacity:1" />
    <g
       transform="matrix(1.05468,0,0,1.6508448,-2.2792916,-20.948066)"
       style="font-weight:bold;font-size:3.52777px;line-height:1.25;font-family:sans-serif;-inkscape-font-specification:'sans-serif Bold';stroke-width:0.264583"
       id="text848"
       aria-label="Underfitting zone">
      <path
         id="path1901"
         style="font-weight:normal;font-size:2.82222px;stroke-width:0.264583"
         d="m 41.684221,32.272779 h 0.279742 v 1.24988 q 0,0.330729 0.119889,0.476801 0.119889,0.144694 0.388606,0.144694 0.26734,0 0.387229,-0.144694 0.119889,-0.146072 0.119889,-0.476801 v -1.24988 h 0.279742 v 1.284331 q 0,0.402387 -0.199816,0.607714 -0.198437,0.205328 -0.587044,0.205328 -0.389984,0 -0.5898,-0.205328 -0.198437,-0.205327 -0.198437,-0.607714 z" />
      <path
         id="path1903"
         style="font-weight:normal;font-size:2.82222px;stroke-width:0.264583"
         d="m 45.0549,33.398636 v 0.931553 h -0.253559 v -0.923285 q 0,-0.219108 -0.08544,-0.327973 -0.08544,-0.108865 -0.256315,-0.108865 -0.205328,0 -0.323839,0.130914 -0.118511,0.130913 -0.118511,0.356911 v 0.872298 h -0.254937 v -1.543402 h 0.254937 v 0.239779 q 0.09095,-0.139182 0.213596,-0.208084 0.124023,-0.0689 0.285253,-0.0689 0.265962,0 0.402387,0.165365 0.136426,0.163986 0.136426,0.483691 z" />
      <path
         id="path1905"
         style="font-weight:normal;font-size:2.82222px;stroke-width:0.264583"
         d="m 46.579009,33.021053 v -0.83509 h 0.253559 v 2.144226 h -0.253559 v -0.23151 q -0.07993,0.137803 -0.202571,0.205327 -0.121268,0.06615 -0.292144,0.06615 -0.279742,0 -0.456131,-0.223242 -0.17501,-0.223242 -0.17501,-0.587044 0,-0.363802 0.17501,-0.587044 0.176389,-0.223242 0.456131,-0.223242 0.170876,0 0.292144,0.06752 0.122645,0.06615 0.202571,0.203949 z m -0.864029,0.538813 q 0,0.279742 0.114377,0.439594 0.115755,0.158474 0.316948,0.158474 0.201194,0 0.316949,-0.158474 0.115755,-0.159852 0.115755,-0.439594 0,-0.279742 -0.115755,-0.438216 -0.115755,-0.159852 -0.316949,-0.159852 -0.201193,0 -0.316948,0.159852 -0.114377,0.158474 -0.114377,0.438216 z" />
      <path
         id="path1907"
         style="font-weight:normal;font-size:2.82222px;stroke-width:0.264583"
         d="m 48.675004,33.495098 v 0.124024 h -1.16582 q 0.01654,0.261827 0.157096,0.39963 0.141938,0.136426 0.394119,0.136426 0.146072,0 0.282498,-0.03583 0.137803,-0.03583 0.272851,-0.107487 v 0.239779 q -0.136426,0.05788 -0.279741,0.08819 -0.143316,0.03032 -0.290766,0.03032 -0.369314,0 -0.585666,-0.214974 -0.214974,-0.214974 -0.214974,-0.581532 0,-0.37896 0.20395,-0.600824 0.205327,-0.223242 0.552593,-0.223242 0.311436,0 0.491959,0.201194 0.181901,0.199815 0.181901,0.544324 z m -0.253559,-0.07441 q -0.0028,-0.208083 -0.117133,-0.332107 -0.112999,-0.124023 -0.300412,-0.124023 -0.212218,0 -0.340376,0.119889 -0.126779,0.119889 -0.146072,0.337619 z" />
      <path
         id="path1909"
         style="font-weight:normal;font-size:2.82222px;stroke-width:0.264583"
         d="m 49.985517,33.02381 q -0.04272,-0.02481 -0.09371,-0.03583 -0.04961,-0.0124 -0.110243,-0.0124 -0.214973,0 -0.330729,0.14056 -0.114377,0.139182 -0.114377,0.401009 v 0.813042 h -0.254936 v -1.543402 h 0.254936 v 0.239779 q 0.07993,-0.14056 0.208084,-0.208084 0.128157,-0.0689 0.311436,-0.0689 0.02618,0 0.05788,0.0041 0.03169,0.0028 0.07028,0.0096 z" />
      <path
         id="path1911"
         style="font-weight:normal;font-size:2.82222px;stroke-width:0.264583"
         d="m 51.501358,32.786787 v 1.543402 h -0.254936 v -1.346343 h -0.695909 v 1.346343 h -0.254937 v -1.346343 h -0.242535 v -0.197059 h 0.242535 V 32.6793 q 0,-0.252181 0.118511,-0.37207 0.119889,-0.121267 0.366558,-0.121267 h 0.254937 v 0.21084 h -0.242535 q -0.136425,0 -0.190169,0.05512 -0.05236,0.05512 -0.05236,0.198437 v 0.136426 z m -0.254936,-0.598068 h 0.254936 v 0.321083 h -0.254936 z" />
      <path
         id="path1913"
         style="font-weight:normal;font-size:2.82222px;stroke-width:0.264583"
         d="m 52.285461,32.348571 v 0.438216 h 0.522276 v 0.197059 h -0.522276 v 0.837847 q 0,0.188791 0.05099,0.242535 0.05237,0.05374 0.21084,0.05374 h 0.260449 v 0.212218 h -0.260449 q -0.293522,0 -0.405143,-0.108865 -0.111621,-0.110243 -0.111621,-0.399631 v -0.837847 h -0.186035 v -0.197059 h 0.186035 v -0.438216 z" />
      <path
         id="path1915"
         style="font-weight:normal;font-size:2.82222px;stroke-width:0.264583"
         d="m 53.393403,32.348571 v 0.438216 h 0.522276 v 0.197059 h -0.522276 v 0.837847 q 0,0.188791 0.05099,0.242535 0.05236,0.05374 0.210839,0.05374 h 0.260449 v 0.212218 H 53.65523 q -0.293522,0 -0.405143,-0.108865 -0.111621,-0.110243 -0.111621,-0.399631 v -0.837847 h -0.186035 v -0.197059 h 0.186035 v -0.438216 z" />
      <path
         id="path1917"
         style="font-weight:normal;font-size:2.82222px;stroke-width:0.264583"
         d="m 54.250542,32.786787 h 0.253559 v 1.543402 h -0.253559 z m 0,-0.600824 h 0.253559 v 0.321083 h -0.253559 z" />
      <path
         id="path1919"
         style="font-weight:normal;font-size:2.82222px;stroke-width:0.264583"
         d="m 56.31622,33.398636 v 0.931553 h -0.253559 v -0.923285 q 0,-0.219108 -0.08544,-0.327973 -0.08544,-0.108865 -0.256315,-0.108865 -0.205327,0 -0.323839,0.130914 -0.118511,0.130913 -0.118511,0.356911 v 0.872298 h -0.254937 v -1.543402 h 0.254937 v 0.239779 q 0.09095,-0.139182 0.213596,-0.208084 0.124023,-0.0689 0.285254,-0.0689 0.265961,0 0.402386,0.165365 0.136426,0.163986 0.136426,0.483691 z" />
      <path
         id="path1921"
         style="font-weight:normal;font-size:2.82222px;stroke-width:0.264583"
         d="m 57.840329,33.540573 q 0,-0.275607 -0.114378,-0.427191 -0.112999,-0.151584 -0.318326,-0.151584 -0.20395,0 -0.318327,0.151584 -0.112999,0.151584 -0.112999,0.427191 0,0.27423 0.112999,0.425814 0.114377,0.151584 0.318327,0.151584 0.205327,0 0.318326,-0.151584 0.114378,-0.151584 0.114378,-0.425814 z m 0.253558,0.598069 q 0,0.394118 -0.17501,0.585665 -0.175011,0.192926 -0.536057,0.192926 -0.133669,0 -0.252181,-0.02067 -0.118511,-0.01929 -0.230132,-0.06063 V 34.58926 q 0.111621,0.06063 0.220486,0.08957 0.108865,0.02894 0.221864,0.02894 0.249425,0 0.373448,-0.130914 0.124024,-0.129535 0.124024,-0.39274 v -0.125402 q -0.07855,0.136426 -0.201194,0.20395 -0.122645,0.06752 -0.293522,0.06752 -0.283875,0 -0.457508,-0.216352 -0.173633,-0.216352 -0.173633,-0.573264 0,-0.358289 0.173633,-0.574641 0.173633,-0.216352 0.457508,-0.216352 0.170877,0 0.293522,0.06752 0.122645,0.06752 0.201194,0.203949 v -0.234266 h 0.253558 z" />
      <path
         id="path1923"
         style="font-weight:normal;font-size:2.82222px;stroke-width:0.264583"
         d="m 59.4044,32.786787 h 1.204405 v 0.23151 l -0.953602,1.10932 h 0.953602 v 0.202572 h -1.238856 v -0.23151 l 0.953602,-1.10932 H 59.4044 Z" />
      <path
         id="path1925"
         style="font-weight:normal;font-size:2.82222px;stroke-width:0.264583"
         d="m 61.59548,32.964554 q -0.203949,0 -0.32246,0.159852 -0.118512,0.158475 -0.118512,0.43546 0,0.276985 0.117134,0.436838 0.118511,0.158474 0.323838,0.158474 0.202572,0 0.321083,-0.159852 0.118511,-0.159853 0.118511,-0.43546 0,-0.274229 -0.118511,-0.434082 -0.118511,-0.16123 -0.321083,-0.16123 z m 0,-0.214974 q 0.330729,0 0.51952,0.214974 0.188791,0.214974 0.188791,0.595312 0,0.37896 -0.188791,0.595312 -0.188791,0.214974 -0.51952,0.214974 -0.332107,0 -0.520898,-0.214974 -0.187413,-0.216352 -0.187413,-0.595312 0,-0.380338 0.187413,-0.595312 0.188791,-0.214974 0.520898,-0.214974 z" />
      <path
         id="path1927"
         style="font-weight:normal;font-size:2.82222px;stroke-width:0.264583"
         d="m 64.005667,33.398636 v 0.931553 h -0.253559 v -0.923285 q 0,-0.219108 -0.08544,-0.327973 -0.08544,-0.108865 -0.256315,-0.108865 -0.205327,0 -0.323838,0.130914 -0.118511,0.130913 -0.118511,0.356911 v 0.872298 h -0.254937 v -1.543402 h 0.254937 v 0.239779 q 0.09095,-0.139182 0.213595,-0.208084 0.124024,-0.0689 0.285254,-0.0689 0.265961,0 0.402387,0.165365 0.136426,0.163986 0.136426,0.483691 z" />
      <path
         id="path1929"
         style="font-weight:normal;font-size:2.82222px;stroke-width:0.264583"
         d="m 65.834322,33.495098 v 0.124024 h -1.165819 q 0.01654,0.261827 0.157096,0.39963 0.141938,0.136426 0.394119,0.136426 0.146072,0 0.282497,-0.03583 0.137804,-0.03583 0.272852,-0.107487 v 0.239779 q -0.136426,0.05788 -0.279742,0.08819 -0.143316,0.03032 -0.290766,0.03032 -0.369314,0 -0.585666,-0.214974 -0.214973,-0.214974 -0.214973,-0.581532 0,-0.37896 0.203949,-0.600824 0.205328,-0.223242 0.552593,-0.223242 0.311436,0 0.491959,0.201194 0.181901,0.199815 0.181901,0.544324 z m -0.253559,-0.07441 q -0.0028,-0.208083 -0.117133,-0.332107 -0.112999,-0.124023 -0.300412,-0.124023 -0.212218,0 -0.340375,0.119889 -0.12678,0.119889 -0.146072,0.337619 z" />
    </g>
    <g
       transform="matrix(1.0774672,0,0,1.5873849,-5.6513284,-19.045939)"
       style="font-weight:bold;font-size:3.52777px;line-height:1.25;font-family:sans-serif;-inkscape-font-specification:'sans-serif Bold';stroke-width:0.264583"
       id="text856"
       aria-label="Overfitting zone">
      <path
         id="path1872"
         style="font-weight:normal;font-size:2.82222px;stroke-width:0.264583"
         d="m 73.904816,32.700576 q -0.303168,0 -0.482313,0.225999 -0.177767,0.225998 -0.177767,0.615982 0,0.388607 0.177767,0.614605 0.179145,0.225998 0.482313,0.225998 0.303168,0 0.479557,-0.225998 0.177767,-0.225998 0.177767,-0.614605 0,-0.389984 -0.177767,-0.615982 -0.176389,-0.225999 -0.479557,-0.225999 z m 0,-0.225998 q 0.432704,0 0.691774,0.290766 0.259071,0.289388 0.259071,0.777213 0,0.486447 -0.259071,0.777213 -0.25907,0.289388 -0.691774,0.289388 -0.434082,0 -0.694531,-0.289388 -0.259071,-0.289388 -0.259071,-0.777213 0,-0.487825 0.259071,-0.777213 0.260449,-0.290766 0.694531,-0.290766 z" />
      <path
         id="path1874"
         style="font-weight:normal;font-size:2.82222px;stroke-width:0.264583"
         d="m 75.098196,33.025793 h 0.268717 l 0.482313,1.295355 0.482313,-1.295355 h 0.268718 l -0.578776,1.543402 h -0.344509 z" />
      <path
         id="path1876"
         style="font-weight:normal;font-size:2.82222px;stroke-width:0.264583"
         d="m 78.270438,33.734104 v 0.124024 h -1.16582 q 0.01654,0.261827 0.157096,0.39963 0.141938,0.136426 0.394119,0.136426 0.146072,0 0.282498,-0.03583 0.137803,-0.03583 0.272851,-0.107487 v 0.239779 q -0.136426,0.05788 -0.279742,0.08819 -0.143315,0.03032 -0.290765,0.03032 -0.369314,0 -0.585666,-0.214974 -0.214974,-0.214974 -0.214974,-0.581532 0,-0.37896 0.20395,-0.600824 0.205327,-0.223242 0.552592,-0.223242 0.311437,0 0.49196,0.201194 0.181901,0.199815 0.181901,0.544324 z m -0.253559,-0.07441 q -0.0028,-0.208083 -0.117133,-0.332107 -0.112999,-0.124023 -0.300412,-0.124023 -0.212218,0 -0.340376,0.119889 -0.126779,0.119889 -0.146072,0.337619 z" />
      <path
         id="path1878"
         style="font-weight:normal;font-size:2.82222px;stroke-width:0.264583"
         d="m 79.580951,33.262816 q -0.04272,-0.02481 -0.09371,-0.03583 -0.04961,-0.0124 -0.110243,-0.0124 -0.214974,0 -0.330729,0.14056 -0.114377,0.139182 -0.114377,0.401009 v 0.813042 h -0.254937 v -1.543402 h 0.254937 v 0.239779 q 0.07993,-0.14056 0.208083,-0.208084 0.128158,-0.0689 0.311437,-0.0689 0.02618,0 0.05788,0.0041 0.03169,0.0028 0.07028,0.0096 z" />
      <path
         id="path1880"
         style="font-weight:normal;font-size:2.82222px;stroke-width:0.264583"
         d="m 81.096792,33.025793 v 1.543402 h -0.254937 v -1.346343 h -0.695909 v 1.346343 h -0.254937 v -1.346343 h -0.242534 v -0.197059 h 0.242534 v -0.107487 q 0,-0.252181 0.118511,-0.37207 0.11989,-0.121267 0.366558,-0.121267 h 0.254937 v 0.21084 h -0.242534 q -0.136426,0 -0.19017,0.05512 -0.05237,0.05512 -0.05237,0.198438 v 0.136425 z m -0.254937,-0.598068 h 0.254937 v 0.321083 h -0.254937 z" />
      <path
         id="path1882"
         style="font-weight:normal;font-size:2.82222px;stroke-width:0.264583"
         d="m 81.880895,32.587577 v 0.438216 h 0.522276 v 0.197059 h -0.522276 v 0.837847 q 0,0.188791 0.05099,0.242535 0.05237,0.05374 0.21084,0.05374 h 0.260449 v 0.212218 h -0.260449 q -0.293522,0 -0.405143,-0.108865 -0.111621,-0.110243 -0.111621,-0.399631 V 33.222849 H 81.439926 V 33.02579 h 0.186035 v -0.438216 z" />
      <path
         id="path1884"
         style="font-weight:normal;font-size:2.82222px;stroke-width:0.264583"
         d="m 82.988837,32.587577 v 0.438216 h 0.522276 v 0.197059 h -0.522276 v 0.837847 q 0,0.188791 0.05099,0.242535 0.05237,0.05374 0.21084,0.05374 h 0.260449 v 0.212218 h -0.260449 q -0.293522,0 -0.405143,-0.108865 Q 82.7339,34.350087 82.7339,34.060699 V 33.222852 H 82.547865 V 33.025793 H 82.7339 v -0.438216 z" />
      <path
         id="path1886"
         style="font-weight:normal;font-size:2.82222px;stroke-width:0.264583"
         d="m 83.845976,33.025793 h 0.253559 v 1.543402 h -0.253559 z m 0,-0.600824 h 0.253559 v 0.321083 h -0.253559 z" />
      <path
         id="path1888"
         style="font-weight:normal;font-size:2.82222px;stroke-width:0.264583"
         d="m 85.911653,33.637642 v 0.931553 H 85.658094 V 33.64591 q 0,-0.219108 -0.08544,-0.327973 -0.08544,-0.108865 -0.256315,-0.108865 -0.205327,0 -0.323838,0.130914 -0.118512,0.130913 -0.118512,0.356911 v 0.872298 h -0.254937 v -1.543402 h 0.254937 v 0.239779 q 0.09095,-0.139182 0.213596,-0.208084 0.124023,-0.0689 0.285254,-0.0689 0.265961,0 0.402387,0.165365 0.136425,0.163986 0.136425,0.483691 z" />
      <path
         id="path1890"
         style="font-weight:normal;font-size:2.82222px;stroke-width:0.264583"
         d="m 87.435763,33.77958 q 0,-0.275608 -0.114377,-0.427192 -0.112999,-0.151584 -0.318327,-0.151584 -0.203949,0 -0.318327,0.151584 -0.112999,0.151584 -0.112999,0.427192 0,0.274229 0.112999,0.425813 0.114378,0.151584 0.318327,0.151584 0.205328,0 0.318327,-0.151584 0.114377,-0.151584 0.114377,-0.425813 z m 0.253559,0.598068 q 0,0.394118 -0.175011,0.585665 -0.175011,0.192926 -0.536057,0.192926 -0.133669,0 -0.25218,-0.02067 -0.118512,-0.01929 -0.230133,-0.06063 v -0.246668 q 0.111621,0.06063 0.220486,0.08957 0.108865,0.02894 0.221864,0.02894 0.249425,0 0.373448,-0.130914 0.124024,-0.129535 0.124024,-0.39274 v -0.125402 q -0.07855,0.136426 -0.201194,0.20395 -0.122645,0.06752 -0.293522,0.06752 -0.283875,0 -0.457508,-0.216352 -0.173633,-0.216352 -0.173633,-0.573263 0,-0.35829 0.173633,-0.574642 0.173633,-0.216352 0.457508,-0.216352 0.170877,0 0.293522,0.06752 0.122646,0.06752 0.201194,0.203949 v -0.234266 h 0.253559 z" />
      <path
         id="path1892"
         style="font-weight:normal;font-size:2.82222px;stroke-width:0.264583"
         d="m 88.999834,33.025793 h 1.204405 v 0.23151 l -0.953602,1.10932 h 0.953602 v 0.202572 h -1.238856 v -0.23151 l 0.953602,-1.10932 h -0.919151 z" />
      <path
         id="path1894"
         style="font-weight:normal;font-size:2.82222px;stroke-width:0.264583"
         d="m 91.190915,33.20356 q -0.20395,0 -0.322461,0.159852 -0.118511,0.158475 -0.118511,0.43546 0,0.276985 0.117133,0.436838 0.118511,0.158474 0.323839,0.158474 0.202571,0 0.321082,-0.159852 0.118511,-0.159853 0.118511,-0.43546 0,-0.274229 -0.118511,-0.434082 -0.118511,-0.16123 -0.321082,-0.16123 z m 0,-0.214974 q 0.330728,0 0.51952,0.214974 0.188791,0.214974 0.188791,0.595312 0,0.37896 -0.188791,0.595312 -0.188792,0.214974 -0.51952,0.214974 -0.332107,0 -0.520899,-0.214974 -0.187413,-0.216352 -0.187413,-0.595312 0,-0.380338 0.187413,-0.595312 0.188792,-0.214974 0.520899,-0.214974 z" />
      <path
         id="path1896"
         style="font-weight:normal;font-size:2.82222px;stroke-width:0.264583"
         d="m 93.601101,33.637642 v 0.931553 H 93.347542 V 33.64591 q 0,-0.219108 -0.08544,-0.327973 -0.08544,-0.108865 -0.256315,-0.108865 -0.205328,0 -0.323839,0.130914 -0.118511,0.130913 -0.118511,0.356911 v 0.872298 H 92.3085 v -1.543402 h 0.254937 v 0.239779 q 0.09095,-0.139182 0.213596,-0.208084 0.124023,-0.0689 0.285253,-0.0689 0.265961,0 0.402387,0.165365 0.136426,0.163986 0.136426,0.483691 z" />
      <path
         id="path1898"
         style="font-weight:normal;font-size:2.82222px;stroke-width:0.264583"
         d="m 95.429756,33.734104 v 0.124024 h -1.165819 q 0.01654,0.261827 0.157096,0.39963 0.141938,0.136426 0.394119,0.136426 0.146072,0 0.282497,-0.03583 0.137804,-0.03583 0.272852,-0.107487 v 0.239779 q -0.136426,0.05788 -0.279742,0.08819 -0.143316,0.03032 -0.290766,0.03032 -0.369314,0 -0.585665,-0.214974 -0.214974,-0.214974 -0.214974,-0.581532 0,-0.37896 0.203949,-0.600824 0.205328,-0.223242 0.552593,-0.223242 0.311437,0 0.491959,0.201194 0.181901,0.199815 0.181901,0.544324 z m -0.253559,-0.07441 q -0.0028,-0.208083 -0.117133,-0.332107 -0.112999,-0.124023 -0.300412,-0.124023 -0.212217,0 -0.340375,0.119889 -0.126779,0.119889 -0.146072,0.337619 z" />
    </g>
    <rect
       y="29.416172"
       x="105.35576"
       height="9.4141464"
       width="32.789932"
       id="rect858"
       style="opacity:0.940252;fill:none;fill-rule:evenodd;stroke:#000000;stroke-width:0.414509;stroke-linejoin:miter;stroke-miterlimit:4;stroke-dasharray:none;stroke-dashoffset:0;stroke-opacity:0.938464" />
    <path
       id="path868"
       d="m 106.82798,31.964831 4.3601,-0.01342"
       style="fill:none;stroke:#f6a800;stroke-width:0.27418px;stroke-linecap:butt;stroke-linejoin:miter;stroke-opacity:1" />
    <g
       style="font-weight:bold;font-size:2.19345px;line-height:1.25;font-family:sans-serif;-inkscape-font-specification:'sans-serif Bold';stroke-width:0.27418"
       id="text872"
       transform="matrix(1.2809104,0,0,1.327223,-30.078295,-13.344132)"
       aria-label="Training error">
      <path
         id="path1814"
         style="font-weight:normal;font-size:2.19345px;stroke-width:0.27418"
         d="m 110.84012,36.618812 h 1.3527 v 0.182074 h -0.56764 v 1.41696 h -0.21742 v -1.41696 h -0.56764 z" />
      <path
         id="path1816"
         style="font-weight:normal;font-size:2.19345px;stroke-width:0.27418"
         d="m 112.76796,37.202518 q -0.0332,-0.01928 -0.0728,-0.02785 -0.0386,-0.0096 -0.0857,-0.0096 -0.16708,0 -0.25705,0.109244 -0.0889,0.108173 -0.0889,0.311667 v 0.631902 h -0.19814 v -1.199543 h 0.19814 v 0.186358 q 0.0621,-0.109245 0.16172,-0.161725 0.0996,-0.05355 0.24205,-0.05355 0.0203,0 0.045,0.0032 0.0246,0.0021 0.0546,0.0075 z" />
      <path
         id="path1818"
         style="font-weight:normal;font-size:2.19345px;stroke-width:0.27418"
         d="m 113.52196,37.614861 q -0.23884,0 -0.33095,0.05462 -0.0921,0.05462 -0.0921,0.186358 0,0.10496 0.0685,0.167079 0.0696,0.06105 0.1885,0.06105 0.16387,0 0.2624,-0.11567 0.0996,-0.116741 0.0996,-0.309525 v -0.04391 z m 0.39306,-0.0814 v 0.684382 h -0.19706 v -0.182074 q -0.0675,0.109245 -0.16815,0.161725 -0.10068,0.05141 -0.24634,0.05141 -0.18421,0 -0.29346,-0.102818 -0.10817,-0.103889 -0.10817,-0.277395 0,-0.202423 0.13495,-0.305241 0.13602,-0.102818 0.40484,-0.102818 h 0.27633 v -0.01928 q 0,-0.13602 -0.09,-0.20992 -0.0889,-0.07497 -0.25062,-0.07497 -0.10282,0 -0.20028,0.02463 -0.0975,0.02463 -0.18743,0.0739 v -0.182073 q 0.10818,-0.04177 0.20992,-0.06212 0.10175,-0.02142 0.19814,-0.02142 0.26026,0 0.38878,0.134949 0.12852,0.134949 0.12852,0.40913 z" />
      <path
         id="path1820"
         style="font-weight:normal;font-size:2.19345px;stroke-width:0.27418"
         d="m 114.32201,37.018303 h 0.19707 v 1.199543 h -0.19707 z m 0,-0.466965 h 0.19707 v 0.249548 h -0.19707 z" />
      <path
         id="path1822"
         style="font-weight:normal;font-size:2.19345px;stroke-width:0.27418"
         d="m 115.92747,37.493836 v 0.72401 h -0.19707 v -0.717584 q 0,-0.170292 -0.0664,-0.254903 -0.0664,-0.08461 -0.19921,-0.08461 -0.15958,0 -0.25169,0.101747 -0.0921,0.101747 -0.0921,0.277394 v 0.677956 h -0.19814 v -1.199543 h 0.19814 v 0.186358 q 0.0707,-0.108174 0.16601,-0.161725 0.0964,-0.05355 0.2217,-0.05355 0.20671,0 0.31274,0.128523 0.10603,0.127451 0.10603,0.375928 z" />
      <path
         id="path1824"
         style="font-weight:normal;font-size:2.19345px;stroke-width:0.27418"
         d="m 116.32268,37.018303 h 0.19707 v 1.199543 h -0.19707 z m 0,-0.466965 h 0.19707 v 0.249548 h -0.19707 z" />
      <path
         id="path1826"
         style="font-weight:normal;font-size:2.19345px;stroke-width:0.27418"
         d="m 117.92814,37.493836 v 0.72401 h -0.19707 v -0.717584 q 0,-0.170292 -0.0664,-0.254903 -0.0664,-0.08461 -0.19921,-0.08461 -0.15959,0 -0.25169,0.101747 -0.0921,0.101747 -0.0921,0.277394 v 0.677956 h -0.19814 v -1.199543 h 0.19814 v 0.186358 q 0.0707,-0.108174 0.16601,-0.161725 0.0964,-0.05355 0.2217,-0.05355 0.20671,0 0.31274,0.128523 0.10603,0.127451 0.10603,0.375928 z" />
      <path
         id="path1828"
         style="font-weight:normal;font-size:2.19345px;stroke-width:0.27418"
         d="m 119.11269,37.604151 q 0,-0.214204 -0.0889,-0.332016 -0.0878,-0.117812 -0.2474,-0.117812 -0.15852,0 -0.24741,0.117812 -0.0878,0.117812 -0.0878,0.332016 0,0.213133 0.0878,0.330946 0.0889,0.117812 0.24741,0.117812 0.15958,0 0.2474,-0.117812 0.0889,-0.117813 0.0889,-0.330946 z m 0.19706,0.464823 q 0,0.306312 -0.13602,0.455184 -0.13602,0.149943 -0.41662,0.149943 -0.10389,0 -0.196,-0.01607 -0.0921,-0.01499 -0.17886,-0.04713 v -0.191712 q 0.0867,0.04713 0.17136,0.06962 0.0846,0.02249 0.17244,0.02249 0.19385,0 0.29024,-0.101747 0.0964,-0.100676 0.0964,-0.305241 v -0.09746 q -0.061,0.106031 -0.15637,0.158511 -0.0953,0.05248 -0.22813,0.05248 -0.22063,0 -0.35558,-0.16815 -0.13495,-0.168151 -0.13495,-0.445545 0,-0.278465 0.13495,-0.446615 0.13495,-0.168151 0.35558,-0.168151 0.13281,0 0.22813,0.05248 0.0953,0.05248 0.15637,0.158511 v -0.182073 h 0.19706 z" />
      <path
         id="path1830"
         style="font-weight:normal;font-size:2.19345px;stroke-width:0.27418"
         d="m 121.44001,37.568807 v 0.09639 h -0.90608 q 0.0129,0.203494 0.1221,0.310596 0.11031,0.106031 0.30631,0.106031 0.11353,0 0.21956,-0.02785 0.1071,-0.02785 0.21206,-0.08354 v 0.186358 q -0.10603,0.04498 -0.21742,0.06855 -0.11138,0.02356 -0.22598,0.02356 -0.28704,0 -0.45519,-0.16708 -0.16708,-0.167079 -0.16708,-0.45197 0,-0.294531 0.15852,-0.466965 0.15958,-0.173506 0.42947,-0.173506 0.24205,0 0.38236,0.156369 0.14137,0.155298 0.14137,0.423053 z m -0.19706,-0.05783 q -0.002,-0.161724 -0.091,-0.258116 -0.0878,-0.09639 -0.23348,-0.09639 -0.16494,0 -0.26455,0.09318 -0.0985,0.09318 -0.11352,0.2624 z" />
      <path
         id="path1832"
         style="font-weight:normal;font-size:2.19345px;stroke-width:0.27418"
         d="m 122.45855,37.202518 q -0.0332,-0.01928 -0.0728,-0.02785 -0.0386,-0.0096 -0.0857,-0.0096 -0.16708,0 -0.25704,0.109244 -0.0889,0.108173 -0.0889,0.311667 v 0.631902 h -0.19814 v -1.199543 h 0.19814 v 0.186358 q 0.0621,-0.109245 0.16173,-0.161725 0.0996,-0.05355 0.24205,-0.05355 0.0204,0 0.045,0.0032 0.0246,0.0021 0.0546,0.0075 z" />
      <path
         id="path1834"
         style="font-weight:normal;font-size:2.19345px;stroke-width:0.27418"
         d="m 123.32394,37.202518 q -0.0332,-0.01928 -0.0728,-0.02785 -0.0386,-0.0096 -0.0857,-0.0096 -0.16708,0 -0.25705,0.109244 -0.0889,0.108173 -0.0889,0.311667 v 0.631902 h -0.19814 v -1.199543 h 0.19814 v 0.186358 q 0.0621,-0.109245 0.16172,-0.161725 0.0996,-0.05355 0.24205,-0.05355 0.0204,0 0.045,0.0032 0.0246,0.0021 0.0546,0.0075 z" />
      <path
         id="path1836"
         style="font-weight:normal;font-size:2.19345px;stroke-width:0.27418"
         d="m 123.95049,37.156465 q -0.15852,0 -0.25062,0.124238 -0.0921,0.123167 -0.0921,0.338442 0,0.215276 0.091,0.339514 0.0921,0.123167 0.25169,0.123167 0.15744,0 0.24954,-0.124238 0.0921,-0.124238 0.0921,-0.338443 0,-0.213133 -0.0921,-0.337371 -0.0921,-0.125309 -0.24954,-0.125309 z m 0,-0.16708 q 0.25704,0 0.40377,0.16708 0.14673,0.167079 0.14673,0.46268 0,0.294531 -0.14673,0.462681 -0.14673,0.16708 -0.40377,0.16708 -0.25812,0 -0.40485,-0.16708 -0.14566,-0.16815 -0.14566,-0.462681 0,-0.295601 0.14566,-0.46268 0.14673,-0.16708 0.40485,-0.16708 z" />
      <path
         id="path1838"
         style="font-weight:normal;font-size:2.19345px;stroke-width:0.27418"
         d="m 125.52167,37.202518 q -0.0332,-0.01928 -0.0728,-0.02785 -0.0386,-0.0096 -0.0857,-0.0096 -0.16708,0 -0.25704,0.109244 -0.0889,0.108173 -0.0889,0.311667 v 0.631902 h -0.19814 v -1.199543 h 0.19814 v 0.186358 q 0.0621,-0.109245 0.16173,-0.161725 0.0996,-0.05355 0.24205,-0.05355 0.0203,0 0.045,0.0032 0.0246,0.0021 0.0546,0.0075 z" />
    </g>
    <g
       style="font-weight:bold;font-size:2.19345px;line-height:1.25;font-family:sans-serif;-inkscape-font-specification:'sans-serif Bold';stroke-width:0.27418"
       id="text876"
       transform="matrix(1.1819353,0,0,1.8096287,-18.343856,-27.613445)"
       aria-label="Validation error">
      <path
         id="path1841"
         style="font-weight:normal;font-size:2.19345px;stroke-width:0.27418"
         d="m 110.80419,33.800735 -0.61049,-1.599033 h 0.22599 l 0.50659,1.346273 0.50767,-1.346273 h 0.22491 l -0.60941,1.599033 z" />
      <path
         id="path1843"
         style="font-weight:normal;font-size:2.19345px;stroke-width:0.27418"
         d="m 112.25649,33.197751 q -0.23884,0 -0.33095,0.05462 -0.0921,0.05462 -0.0921,0.186358 0,0.10496 0.0685,0.167079 0.0696,0.06105 0.1885,0.06105 0.16387,0 0.2624,-0.11567 0.0996,-0.116742 0.0996,-0.309525 v -0.04391 z m 0.39306,-0.0814 v 0.684382 h -0.19706 V 33.61866 q -0.0675,0.109244 -0.16815,0.161724 -0.10068,0.05141 -0.24634,0.05141 -0.18421,0 -0.29346,-0.102818 -0.10817,-0.103889 -0.10817,-0.277394 0,-0.202423 0.13495,-0.305241 0.13602,-0.102818 0.40484,-0.102818 h 0.27633 v -0.01928 q 0,-0.13602 -0.09,-0.20992 -0.0889,-0.07497 -0.25062,-0.07497 -0.10282,0 -0.20028,0.02463 -0.0975,0.02463 -0.18743,0.0739 V 32.65581 q 0.10817,-0.04177 0.20992,-0.06212 0.10175,-0.02142 0.19814,-0.02142 0.26026,0 0.38878,0.134949 0.12852,0.134948 0.12852,0.409129 z" />
      <path
         id="path1845"
         style="font-weight:normal;font-size:2.19345px;stroke-width:0.27418"
         d="m 113.05654,32.134228 h 0.19707 v 1.666507 h -0.19707 z" />
      <path
         id="path1847"
         style="font-weight:normal;font-size:2.19345px;stroke-width:0.27418"
         d="m 113.66488,32.601193 h 0.19707 v 1.199542 h -0.19707 z m 0,-0.466965 h 0.19707 v 0.249547 h -0.19707 z" />
      <path
         id="path1849"
         style="font-weight:normal;font-size:2.19345px;stroke-width:0.27418"
         d="m 115.06256,32.783266 v -0.649038 h 0.19707 v 1.666507 h -0.19707 v -0.179931 q -0.0621,0.107102 -0.15744,0.159582 -0.0943,0.05141 -0.22705,0.05141 -0.21742,0 -0.35451,-0.173505 -0.13602,-0.173506 -0.13602,-0.456255 0,-0.282749 0.13602,-0.456255 0.13709,-0.173505 0.35451,-0.173505 0.1328,0 0.22705,0.05248 0.0953,0.05141 0.15744,0.158511 z m -0.67153,0.418769 q 0,0.217417 0.0889,0.341656 0.09,0.123167 0.24633,0.123167 0.15637,0 0.24634,-0.123167 0.09,-0.124239 0.09,-0.341656 0,-0.217417 -0.09,-0.340585 -0.09,-0.124238 -0.24634,-0.124238 -0.15637,0 -0.24633,0.124238 -0.0889,0.123168 -0.0889,0.340585 z" />
      <path
         id="path1851"
         style="font-weight:normal;font-size:2.19345px;stroke-width:0.27418"
         d="m 116.2107,33.197751 q -0.23884,0 -0.33095,0.05462 -0.0921,0.05462 -0.0921,0.186358 0,0.10496 0.0686,0.167079 0.0696,0.06105 0.1885,0.06105 0.16386,0 0.2624,-0.11567 0.0996,-0.116742 0.0996,-0.309525 v -0.04391 z m 0.39306,-0.0814 v 0.684382 h -0.19707 V 33.61866 q -0.0675,0.109244 -0.16815,0.161724 -0.10067,0.05141 -0.24633,0.05141 -0.18422,0 -0.29346,-0.102818 -0.10817,-0.103889 -0.10817,-0.277394 0,-0.202423 0.13494,-0.305241 0.13602,-0.102818 0.40485,-0.102818 h 0.27632 v -0.01928 q 0,-0.13602 -0.09,-0.20992 -0.0889,-0.07497 -0.25062,-0.07497 -0.10282,0 -0.20028,0.02463 -0.0975,0.02463 -0.18743,0.0739 V 32.65581 q 0.10817,-0.04177 0.20992,-0.06212 0.10175,-0.02142 0.19814,-0.02142 0.26026,0 0.38878,0.134949 0.12852,0.134948 0.12852,0.409129 z" />
      <path
         id="path1853"
         style="font-weight:normal;font-size:2.19345px;stroke-width:0.27418"
         d="m 117.20567,32.260608 v 0.340585 h 0.40592 v 0.153155 h -0.40592 v 0.651181 q 0,0.14673 0.0396,0.1885 0.0407,0.04177 0.16387,0.04177 h 0.20242 v 0.164937 h -0.20242 q -0.22813,0 -0.31488,-0.08461 -0.0867,-0.08568 -0.0867,-0.310596 v -0.651181 h -0.14459 v -0.153155 h 0.14459 v -0.340585 z" />
      <path
         id="path1855"
         style="font-weight:normal;font-size:2.19345px;stroke-width:0.27418"
         d="m 117.87185,32.601193 h 0.19707 v 1.199542 h -0.19707 z m 0,-0.466965 h 0.19707 v 0.249547 h -0.19707 z" />
      <path
         id="path1857"
         style="font-weight:normal;font-size:2.19345px;stroke-width:0.27418"
         d="m 118.94501,32.739354 q -0.15851,0 -0.25062,0.124239 -0.0921,0.123167 -0.0921,0.338442 0,0.215275 0.091,0.339514 0.0921,0.123167 0.25169,0.123167 0.15744,0 0.24955,-0.124239 0.0921,-0.124238 0.0921,-0.338442 0,-0.213133 -0.0921,-0.337371 -0.0921,-0.12531 -0.24955,-0.12531 z m 0,-0.167079 q 0.25705,0 0.40378,0.167079 0.14673,0.167079 0.14673,0.462681 0,0.294531 -0.14673,0.462681 -0.14673,0.167079 -0.40378,0.167079 -0.25811,0 -0.40484,-0.167079 -0.14566,-0.16815 -0.14566,-0.462681 0,-0.295602 0.14566,-0.462681 0.14673,-0.167079 0.40484,-0.167079 z" />
      <path
         id="path1859"
         style="font-weight:normal;font-size:2.19345px;stroke-width:0.27418"
         d="m 120.81823,33.076726 v 0.724009 h -0.19707 v -0.717583 q 0,-0.170293 -0.0664,-0.254903 -0.0664,-0.08461 -0.19921,-0.08461 -0.15959,0 -0.25169,0.101747 -0.0921,0.101747 -0.0921,0.277395 v 0.677955 h -0.19814 v -1.199542 h 0.19814 v 0.186357 q 0.0707,-0.108173 0.16601,-0.161724 0.0964,-0.05355 0.2217,-0.05355 0.2067,0 0.31274,0.128522 0.10603,0.127452 0.10603,0.375929 z" />
      <path
         id="path1861"
         style="font-weight:normal;font-size:2.19345px;stroke-width:0.27418"
         d="m 122.93778,33.151697 v 0.09639 h -0.90609 q 0.0129,0.203494 0.1221,0.310596 0.11031,0.106031 0.30631,0.106031 0.11353,0 0.21956,-0.02785 0.1071,-0.02785 0.21206,-0.08354 v 0.186357 q -0.10603,0.04498 -0.21742,0.06855 -0.11138,0.02356 -0.22598,0.02356 -0.28703,0 -0.45518,-0.167079 -0.16708,-0.167079 -0.16708,-0.451971 0,-0.29453 0.15851,-0.466965 0.15958,-0.173505 0.42948,-0.173505 0.24205,0 0.38235,0.156369 0.14138,0.155298 0.14138,0.423053 z m -0.19707,-0.05783 q -0.002,-0.161724 -0.091,-0.258116 -0.0878,-0.09639 -0.23348,-0.09639 -0.16494,0 -0.26454,0.09318 -0.0985,0.09318 -0.11353,0.2624 z" />
      <path
         id="path1863"
         style="font-weight:normal;font-size:2.19345px;stroke-width:0.27418"
         d="m 123.95632,32.785408 q -0.0332,-0.01928 -0.0728,-0.02785 -0.0386,-0.0096 -0.0857,-0.0096 -0.16708,0 -0.25705,0.109244 -0.0889,0.108173 -0.0889,0.311667 v 0.631902 h -0.19814 v -1.199542 h 0.19814 v 0.186357 q 0.0621,-0.109244 0.16172,-0.161724 0.0996,-0.05355 0.24205,-0.05355 0.0204,0 0.045,0.0032 0.0246,0.0021 0.0546,0.0075 z" />
      <path
         id="path1865"
         style="font-weight:normal;font-size:2.19345px;stroke-width:0.27418"
         d="m 124.8217,32.785408 q -0.0332,-0.01928 -0.0728,-0.02785 -0.0386,-0.0096 -0.0857,-0.0096 -0.16708,0 -0.25704,0.109244 -0.0889,0.108173 -0.0889,0.311667 v 0.631902 h -0.19814 v -1.199542 h 0.19814 v 0.186357 q 0.0621,-0.109244 0.16172,-0.161724 0.0996,-0.05355 0.24206,-0.05355 0.0203,0 0.045,0.0032 0.0246,0.0021 0.0546,0.0075 z" />
      <path
         id="path1867"
         style="font-weight:normal;font-size:2.19345px;stroke-width:0.27418"
         d="m 125.44825,32.739354 q -0.15851,0 -0.25062,0.124239 -0.0921,0.123167 -0.0921,0.338442 0,0.215275 0.091,0.339514 0.0921,0.123167 0.25169,0.123167 0.15744,0 0.24955,-0.124239 0.0921,-0.124238 0.0921,-0.338442 0,-0.213133 -0.0921,-0.337371 -0.0921,-0.12531 -0.24955,-0.12531 z m 0,-0.167079 q 0.25704,0 0.40377,0.167079 0.14673,0.167079 0.14673,0.462681 0,0.294531 -0.14673,0.462681 -0.14673,0.167079 -0.40377,0.167079 -0.25812,0 -0.40485,-0.167079 -0.14566,-0.16815 -0.14566,-0.462681 0,-0.295602 0.14566,-0.462681 0.14673,-0.167079 0.40485,-0.167079 z" />
      <path
         id="path1869"
         style="font-weight:normal;font-size:2.19345px;stroke-width:0.27418"
         d="m 127.01944,32.785408 q -0.0332,-0.01928 -0.0728,-0.02785 -0.0386,-0.0096 -0.0857,-0.0096 -0.16707,0 -0.25704,0.109244 -0.0889,0.108173 -0.0889,0.311667 v 0.631902 h -0.19814 v -1.199542 h 0.19814 v 0.186357 q 0.0621,-0.109244 0.16172,-0.161724 0.0996,-0.05355 0.24205,-0.05355 0.0203,0 0.045,0.0032 0.0246,0.0021 0.0546,0.0075 z" />
    </g>
    <path
       id="path4929"
       d="m 112.58018,70.956719 v 3.965078"
       style="fill:none;stroke:#000000;stroke-width:0.202995;stroke-linecap:butt;stroke-linejoin:miter;stroke-miterlimit:4;stroke-dasharray:none;stroke-opacity:1;marker-start:url(#Arrow1Mstart);marker-end:url(#Arrow1Mend)" />
    <g
       aria-label="Validation gap"
       transform="matrix(1.9687106,0,0,4.0288392,-172.78998,-168.06219)"
       id="text5295"
       style="font-weight:bold;font-size:1.63628px;line-height:1.25;font-family:sans-serif;-inkscape-font-specification:'sans-serif Bold';stroke-width:0.122721">
      <path
         d="m 146.8872,60.288273 -0.45541,-1.192855 h 0.16858 l 0.37791,1.004299 0.37871,-1.004299 h 0.16778 l -0.45461,1.192855 z"
         style="font-weight:normal;stroke-width:0.122721"
         id="path1716" />
      <path
         d="m 147.9706,59.838456 q -0.17817,0 -0.24688,0.04075 -0.0687,0.04075 -0.0687,0.13902 0,0.0783 0.0511,0.124638 0.0519,0.04554 0.14062,0.04554 0.12224,0 0.19574,-0.08629 0.0743,-0.08709 0.0743,-0.230901 v -0.03276 z m 0.29322,-0.06072 v 0.510539 h -0.14701 v -0.135824 q -0.0503,0.08149 -0.12544,0.120644 -0.0751,0.03835 -0.18376,0.03835 -0.13742,0 -0.21892,-0.0767 -0.0807,-0.0775 -0.0807,-0.206932 0,-0.151004 0.10066,-0.227705 0.10147,-0.0767 0.30201,-0.0767 h 0.20614 v -0.01438 q 0,-0.101468 -0.0671,-0.156597 -0.0663,-0.05593 -0.18695,-0.05593 -0.0767,0 -0.14941,0.01838 -0.0727,0.01838 -0.13982,0.05513 v -0.135824 q 0.0807,-0.03116 0.1566,-0.04634 0.0759,-0.01598 0.14781,-0.01598 0.19414,0 0.29002,0.10067 0.0959,0.100669 0.0959,0.305204 z"
         style="font-weight:normal;stroke-width:0.122721"
         id="path1718" />
      <path
         d="m 148.56742,59.045084 h 0.14701 v 1.243189 h -0.14701 z"
         style="font-weight:normal;stroke-width:0.122721"
         id="path1720" />
      <path
         d="m 149.02123,59.393432 h 0.14701 v 0.894841 h -0.14701 z m 0,-0.348348 h 0.14701 v 0.186158 h -0.14701 z"
         style="font-weight:normal;stroke-width:0.122721"
         id="path1722" />
      <path
         d="m 150.06388,59.529256 v -0.484172 h 0.14701 v 1.243189 h -0.14701 v -0.134226 q -0.0463,0.0799 -0.11744,0.119046 -0.0703,0.03835 -0.16938,0.03835 -0.16219,0 -0.26446,-0.129432 -0.10147,-0.129433 -0.10147,-0.340359 0,-0.210927 0.10147,-0.340359 0.10227,-0.129433 0.26446,-0.129433 0.0991,0 0.16938,0.03915 0.0711,0.03835 0.11744,0.118246 z m -0.50095,0.312396 q 0,0.162189 0.0663,0.254869 0.0671,0.09188 0.18376,0.09188 0.11665,0 0.18376,-0.09188 0.0671,-0.09268 0.0671,-0.254869 0,-0.16219 -0.0671,-0.254071 -0.0671,-0.09268 -0.18376,-0.09268 -0.11665,0 -0.18376,0.09268 -0.0663,0.09188 -0.0663,0.254071 z"
         style="font-weight:normal;stroke-width:0.122721"
         id="path1724" />
      <path
         d="m 150.92037,59.838456 q -0.17816,0 -0.24688,0.04075 -0.0687,0.04075 -0.0687,0.13902 0,0.0783 0.0511,0.124638 0.0519,0.04554 0.14061,0.04554 0.12225,0 0.19575,-0.08629 0.0743,-0.08709 0.0743,-0.230901 v -0.03276 z m 0.29322,-0.06072 v 0.510539 h -0.14701 v -0.135824 q -0.0503,0.08149 -0.12543,0.120644 -0.0751,0.03835 -0.18376,0.03835 -0.13743,0 -0.21892,-0.0767 -0.0807,-0.0775 -0.0807,-0.206932 0,-0.151004 0.10067,-0.227705 0.10147,-0.0767 0.30201,-0.0767 h 0.20613 v -0.01438 q 0,-0.101468 -0.0671,-0.156597 -0.0663,-0.05593 -0.18696,-0.05593 -0.0767,0 -0.1494,0.01838 -0.0727,0.01838 -0.13982,0.05513 v -0.135824 q 0.0807,-0.03116 0.1566,-0.04634 0.0759,-0.01598 0.1478,-0.01598 0.19415,0 0.29003,0.10067 0.0959,0.100669 0.0959,0.305204 z"
         style="font-weight:normal;stroke-width:0.122721"
         id="path1726" />
      <path
         d="m 151.66261,59.139361 v 0.254071 h 0.30281 v 0.114252 h -0.30281 v 0.485771 q 0,0.109458 0.0296,0.140618 0.0304,0.03116 0.12225,0.03116 h 0.151 v 0.123041 h -0.151 q -0.17018,0 -0.2349,-0.06312 -0.0647,-0.06392 -0.0647,-0.2317 V 59.507683 H 151.407 v -0.114252 h 0.10786 V 59.13936 Z"
         style="font-weight:normal;stroke-width:0.122721"
         id="path1728" />
      <path
         d="m 152.15957,59.393432 h 0.14701 v 0.894841 h -0.14701 z m 0,-0.348348 h 0.14701 v 0.186158 h -0.14701 z"
         style="font-weight:normal;stroke-width:0.122721"
         id="path1730" />
      <path
         d="m 152.96013,59.496499 q -0.11825,0 -0.18696,0.09268 -0.0687,0.09188 -0.0687,0.252473 0,0.160591 0.0679,0.253271 0.0687,0.09188 0.18776,0.09188 0.11745,0 0.18616,-0.09268 0.0687,-0.09268 0.0687,-0.252472 0,-0.158994 -0.0687,-0.251674 -0.0687,-0.09348 -0.18616,-0.09348 z m 0,-0.124639 q 0.19175,0 0.30121,0.124639 0.10946,0.124638 0.10946,0.345153 0,0.219715 -0.10946,0.345152 -0.10946,0.124639 -0.30121,0.124639 -0.19255,0 -0.30201,-0.124639 -0.10866,-0.125437 -0.10866,-0.345152 0,-0.220515 0.10866,-0.345153 0.10946,-0.124639 0.30201,-0.124639 z"
         style="font-weight:normal;stroke-width:0.122721"
         id="path1732" />
      <path
         d="m 154.35752,59.748173 v 0.5401 h -0.14701 v -0.535307 q 0,-0.127035 -0.0495,-0.190153 -0.0495,-0.06312 -0.14861,-0.06312 -0.11905,0 -0.18776,0.0759 -0.0687,0.0759 -0.0687,0.206932 v 0.505745 h -0.14781 v -0.894841 h 0.14781 v 0.13902 q 0.0527,-0.08069 0.12384,-0.120644 0.0719,-0.03995 0.16539,-0.03995 0.1542,0 0.23329,0.09588 0.0791,0.09508 0.0791,0.280437 z"
         style="font-weight:normal;stroke-width:0.122721"
         id="path1734" />
      <path
         d="m 155.7621,59.830466 q 0,-0.159793 -0.0663,-0.247679 -0.0655,-0.08789 -0.18456,-0.08789 -0.11825,0 -0.18456,0.08789 -0.0655,0.08789 -0.0655,0.247679 0,0.158994 0.0655,0.24688 0.0663,0.08789 0.18456,0.08789 0.11904,0 0.18456,-0.08789 0.0663,-0.08789 0.0663,-0.24688 z m 0.14701,0.346751 q 0,0.228504 -0.10147,0.33956 -0.10147,0.111855 -0.3108,0.111855 -0.0775,0 -0.14621,-0.01199 -0.0687,-0.01118 -0.13342,-0.03515 v -0.143015 q 0.0647,0.03515 0.12783,0.05193 0.0631,0.01678 0.12863,0.01678 0.14462,0 0.21652,-0.0759 0.0719,-0.0751 0.0719,-0.227705 v -0.07271 q -0.0455,0.0791 -0.11665,0.118247 -0.0711,0.03915 -0.17018,0.03915 -0.16458,0 -0.26525,-0.125438 -0.10067,-0.125437 -0.10067,-0.332369 0,-0.207731 0.10067,-0.333168 0.10067,-0.125438 0.26525,-0.125438 0.0991,0 0.17018,0.03915 0.0711,0.03915 0.11665,0.118247 v -0.135824 h 0.14701 z"
         style="font-weight:normal;stroke-width:0.122721"
         id="path1736" />
      <path
         d="m 156.61859,59.838456 q -0.17817,0 -0.24688,0.04075 -0.0687,0.04075 -0.0687,0.13902 0,0.0783 0.0511,0.124638 0.0519,0.04554 0.14062,0.04554 0.12224,0 0.19575,-0.08629 0.0743,-0.08709 0.0743,-0.230901 v -0.03276 z m 0.29322,-0.06072 v 0.510539 h -0.14701 v -0.135824 q -0.0503,0.08149 -0.12544,0.120644 -0.0751,0.03835 -0.18376,0.03835 -0.13742,0 -0.21891,-0.0767 -0.0807,-0.0775 -0.0807,-0.206932 0,-0.151004 0.10067,-0.227705 0.10147,-0.0767 0.30201,-0.0767 h 0.20613 v -0.01438 q 0,-0.101468 -0.0671,-0.156597 -0.0663,-0.05593 -0.18696,-0.05593 -0.0767,0 -0.14941,0.01838 -0.0727,0.01838 -0.13981,0.05513 v -0.135824 q 0.0807,-0.03116 0.15659,-0.04634 0.0759,-0.01598 0.14781,-0.01598 0.19415,0 0.29003,0.10067 0.0959,0.100669 0.0959,0.305204 z"
         style="font-weight:normal;stroke-width:0.122721"
         id="path1738" />
      <path
         d="m 157.35763,60.154047 v 0.474585 h -0.14781 v -1.2352 h 0.14781 v 0.135824 q 0.0463,-0.0799 0.11665,-0.118247 0.0711,-0.03915 0.16938,-0.03915 0.16299,0 0.26446,0.129433 0.10227,0.129432 0.10227,0.340359 0,0.210926 -0.10227,0.340359 -0.10147,0.129432 -0.26446,0.129432 -0.0983,0 -0.16938,-0.03835 -0.0703,-0.03915 -0.11665,-0.119045 z m 0.50016,-0.312395 q 0,-0.16219 -0.0671,-0.254071 -0.0663,-0.09268 -0.18296,-0.09268 -0.11665,0 -0.18376,0.09268 -0.0663,0.09188 -0.0663,0.254071 0,0.162189 0.0663,0.254869 0.0671,0.09188 0.18376,0.09188 0.11665,0 0.18296,-0.09188 0.0671,-0.09268 0.0671,-0.254869 z"
         style="font-weight:normal;stroke-width:0.122721"
         id="path1740" />
    </g>
    <g
       transform="matrix(1.2635546,0,0,1.7154945,-21.211373,-58.007861)"
       style="font-weight:bold;font-size:3.52777px;line-height:1.25;font-family:sans-serif;-inkscape-font-specification:'sans-serif Bold';stroke-width:0.264583"
       id="text880"
       aria-label="Optimal capacity">
      <path
         id="path1760"
         style="font-weight:normal;font-size:2.82222px;stroke-width:0.264583"
         d="m 61.867668,79.904071 q -0.303168,0 -0.482313,0.225999 -0.177766,0.225998 -0.177766,0.615982 0,0.388607 0.177766,0.614605 0.179145,0.225998 0.482313,0.225998 0.303169,0 0.479557,-0.225998 0.177767,-0.225998 0.177767,-0.614605 0,-0.389984 -0.177767,-0.615982 -0.176388,-0.225999 -0.479557,-0.225999 z m 0,-0.225998 q 0.432704,0 0.691775,0.290766 0.259071,0.289388 0.259071,0.777213 0,0.486447 -0.259071,0.777213 -0.259071,0.289388 -0.691775,0.289388 -0.434081,0 -0.69453,-0.289388 -0.259071,-0.289388 -0.259071,-0.777213 0,-0.487825 0.259071,-0.777213 0.260449,-0.290766 0.69453,-0.290766 z" />
      <path
         id="path1762"
         style="font-weight:normal;font-size:2.82222px;stroke-width:0.264583"
         d="m 63.48824,81.54118 v 0.818554 h -0.254937 v -2.130446 h 0.254937 v 0.234267 q 0.07993,-0.137804 0.201194,-0.20395 0.122645,-0.06752 0.292143,-0.06752 0.28112,0 0.456131,0.223242 0.176388,0.223242 0.176388,0.587044 0,0.363802 -0.176388,0.587044 -0.175011,0.223242 -0.456131,0.223242 -0.169498,0 -0.292143,-0.06615 -0.121268,-0.06752 -0.201194,-0.205327 z m 0.862651,-0.538813 q 0,-0.279741 -0.115755,-0.438216 -0.114377,-0.159852 -0.31557,-0.159852 -0.201194,0 -0.316949,0.159852 -0.114377,0.158475 -0.114377,0.438216 0,0.279742 0.114377,0.439594 0.115755,0.158474 0.316949,0.158474 0.201193,0 0.31557,-0.158474 0.115755,-0.159852 0.115755,-0.439594 z" />
      <path
         id="path1764"
         style="font-weight:normal;font-size:2.82222px;stroke-width:0.264583"
         d="m 65.2852,79.791072 v 0.438216 h 0.522276 v 0.19706 H 65.2852 v 0.837846 q 0,0.188791 0.05099,0.242535 0.05236,0.05374 0.210839,0.05374 h 0.260449 v 0.212218 h -0.260449 q -0.293521,0 -0.405142,-0.108865 -0.111622,-0.110243 -0.111622,-0.399631 V 80.426345 H 64.84423 v -0.19706 h 0.186035 v -0.438216 z" />
      <path
         id="path1766"
         style="font-weight:normal;font-size:2.82222px;stroke-width:0.264583"
         d="m 66.14234,80.229288 h 0.253559 V 81.77269 H 66.14234 Z m 0,-0.600824 h 0.253559 v 0.321083 H 66.14234 Z" />
      <path
         id="path1768"
         style="font-weight:normal;font-size:2.82222px;stroke-width:0.264583"
         d="m 68.126713,80.525566 q 0.09509,-0.170876 0.227376,-0.252181 0.132292,-0.0813 0.311436,-0.0813 0.241157,0 0.372071,0.169499 0.130913,0.16812 0.130913,0.479557 v 0.931553 h -0.254937 v -0.923285 q 0,-0.221864 -0.07855,-0.329351 -0.07855,-0.107487 -0.239778,-0.107487 -0.19706,0 -0.311437,0.130914 -0.114377,0.130913 -0.114377,0.356911 v 0.872298 h -0.254937 v -0.923285 q 0,-0.223242 -0.07855,-0.329351 -0.07855,-0.107487 -0.242534,-0.107487 -0.194304,0 -0.308681,0.132292 -0.114377,0.130913 -0.114377,0.355533 v 0.872298 h -0.254937 v -1.543402 h 0.254937 v 0.239779 q 0.08682,-0.141938 0.208084,-0.209462 0.121267,-0.06752 0.28801,-0.06752 0.16812,0 0.285253,0.08544 0.118511,0.08544 0.175011,0.248046 z" />
      <path
         id="path1770"
         style="font-weight:normal;font-size:2.82222px;stroke-width:0.264583"
         d="m 70.377048,80.996855 q -0.307302,0 -0.425813,0.07028 -0.118512,0.07028 -0.118512,0.239778 0,0.135048 0.08819,0.214974 0.08957,0.07855 0.242534,0.07855 0.21084,0 0.337619,-0.148828 0.128158,-0.150206 0.128158,-0.398253 v -0.0565 z m 0.50574,-0.104731 v 0.880566 h -0.253559 v -0.234266 q -0.08682,0.140559 -0.216352,0.208083 -0.129535,0.06615 -0.316948,0.06615 -0.237023,0 -0.377583,-0.132292 -0.139181,-0.133669 -0.139181,-0.356911 0,-0.260449 0.173632,-0.392741 0.175011,-0.132291 0.520898,-0.132291 h 0.355534 v -0.02481 q 0,-0.175011 -0.115755,-0.270095 -0.114377,-0.09646 -0.322461,-0.09646 -0.132291,0 -0.257693,0.03169 -0.125401,0.03169 -0.241156,0.09508 v -0.234266 q 0.139181,-0.05374 0.270095,-0.07993 0.130913,-0.02756 0.254937,-0.02756 0.334863,0 0.500227,0.173633 0.165365,0.173633 0.165365,0.52641 z" />
      <path
         id="path1772"
         style="font-weight:normal;font-size:2.82222px;stroke-width:0.264583"
         d="M 71.406441,79.628464 H 71.66 v 2.144226 h -0.253559 z" />
      <path
         id="path1774"
         style="font-weight:normal;font-size:2.82222px;stroke-width:0.264583"
         d="m 74.198345,80.288544 v 0.237022 q -0.107487,-0.05925 -0.216352,-0.08819 -0.107487,-0.03032 -0.21773,-0.03032 -0.246668,0 -0.383094,0.157096 -0.136426,0.155718 -0.136426,0.438216 0,0.282498 0.136426,0.439594 0.136426,0.155718 0.383094,0.155718 0.110243,0 0.21773,-0.02894 0.108865,-0.03032 0.216352,-0.08957 v 0.234266 q -0.106109,0.04961 -0.220486,0.07441 -0.112999,0.02481 -0.241157,0.02481 -0.348643,0 -0.55397,-0.219108 -0.205328,-0.219108 -0.205328,-0.591178 0,-0.377582 0.206706,-0.593934 0.208083,-0.216352 0.569129,-0.216352 0.117133,0 0.228754,0.02481 0.111621,0.02343 0.216352,0.07166 z" />
      <path
         id="path1776"
         style="font-weight:normal;font-size:2.82222px;stroke-width:0.264583"
         d="m 75.343494,80.996855 q -0.307302,0 -0.425813,0.07028 -0.118512,0.07028 -0.118512,0.239778 0,0.135048 0.08819,0.214974 0.08957,0.07855 0.242534,0.07855 0.21084,0 0.337619,-0.148828 0.128158,-0.150206 0.128158,-0.398253 v -0.0565 z m 0.50574,-0.104731 v 0.880566 h -0.253559 v -0.234266 q -0.08682,0.140559 -0.216352,0.208083 -0.129535,0.06615 -0.316949,0.06615 -0.237022,0 -0.377582,-0.132292 -0.139181,-0.133669 -0.139181,-0.356911 0,-0.260449 0.173632,-0.392741 0.175011,-0.132291 0.520898,-0.132291 h 0.355534 v -0.02481 q 0,-0.175011 -0.115755,-0.270095 -0.114377,-0.09646 -0.322461,-0.09646 -0.132292,0 -0.257693,0.03169 -0.125401,0.03169 -0.241156,0.09508 v -0.234266 q 0.139181,-0.05374 0.270095,-0.07993 0.130913,-0.02756 0.254937,-0.02756 0.334863,0 0.500227,0.173633 0.165365,0.173633 0.165365,0.52641 z" />
      <path
         id="path1778"
         style="font-weight:normal;font-size:2.82222px;stroke-width:0.264583"
         d="m 76.618179,81.54118 v 0.818554 h -0.254937 v -2.130446 h 0.254937 v 0.234267 q 0.07993,-0.137804 0.201193,-0.20395 0.122645,-0.06752 0.292144,-0.06752 0.28112,0 0.45613,0.223242 0.176389,0.223242 0.176389,0.587044 0,0.363802 -0.176389,0.587044 -0.17501,0.223242 -0.45613,0.223242 -0.169499,0 -0.292144,-0.06615 -0.121267,-0.06752 -0.201193,-0.205327 z m 0.862651,-0.538813 q 0,-0.279741 -0.115755,-0.438216 -0.114377,-0.159852 -0.315571,-0.159852 -0.201193,0 -0.316948,0.159852 -0.114377,0.158475 -0.114377,0.438216 0,0.279742 0.114377,0.439594 0.115755,0.158474 0.316948,0.158474 0.201194,0 0.315571,-0.158474 0.115755,-0.159852 0.115755,-0.439594 z" />
      <path
         id="path1780"
         style="font-weight:normal;font-size:2.82222px;stroke-width:0.264583"
         d="m 78.865757,80.996855 q -0.307303,0 -0.425814,0.07028 -0.118511,0.07028 -0.118511,0.239778 0,0.135048 0.08819,0.214974 0.08957,0.07855 0.242535,0.07855 0.21084,0 0.337619,-0.148828 0.128157,-0.150206 0.128157,-0.398253 v -0.0565 z m 0.505739,-0.104731 v 0.880566 h -0.253559 v -0.234266 q -0.08682,0.140559 -0.216351,0.208083 -0.129536,0.06615 -0.316949,0.06615 -0.237022,0 -0.377582,-0.132292 -0.139182,-0.133669 -0.139182,-0.356911 0,-0.260449 0.173633,-0.392741 0.175011,-0.132291 0.520898,-0.132291 h 0.355533 v -0.02481 q 0,-0.175011 -0.115755,-0.270095 -0.114377,-0.09646 -0.32246,-0.09646 -0.132292,0 -0.257693,0.03169 -0.125402,0.03169 -0.241157,0.09508 v -0.234266 q 0.139182,-0.05374 0.270095,-0.07993 0.130914,-0.02756 0.254937,-0.02756 0.334863,0 0.500228,0.173633 0.165364,0.173633 0.165364,0.52641 z" />
      <path
         id="path1782"
         style="font-weight:normal;font-size:2.82222px;stroke-width:0.264583"
         d="m 81.00585,80.288544 v 0.237022 q -0.107487,-0.05925 -0.216352,-0.08819 -0.107487,-0.03032 -0.21773,-0.03032 -0.246669,0 -0.383094,0.157096 -0.136426,0.155718 -0.136426,0.438216 0,0.282498 0.136426,0.439594 0.136425,0.155718 0.383094,0.155718 0.110243,0 0.21773,-0.02894 0.108865,-0.03032 0.216352,-0.08957 v 0.234266 q -0.106109,0.04961 -0.220486,0.07441 -0.112999,0.02481 -0.241157,0.02481 -0.348643,0 -0.553971,-0.219108 -0.205327,-0.219108 -0.205327,-0.591178 0,-0.377582 0.206705,-0.593934 0.208084,-0.216352 0.56913,-0.216352 0.117133,0 0.228754,0.02481 0.111621,0.02343 0.216352,0.07166 z" />
      <path
         id="path1784"
         style="font-weight:normal;font-size:2.82222px;stroke-width:0.264583"
         d="m 81.449576,80.229288 h 0.253559 v 1.543402 h -0.253559 z m 0,-0.600824 h 0.253559 v 0.321083 h -0.253559 z" />
      <path
         id="path1786"
         style="font-weight:normal;font-size:2.82222px;stroke-width:0.264583"
         d="m 82.483105,79.791072 v 0.438216 h 0.522276 v 0.19706 h -0.522276 v 0.837846 q 0,0.188791 0.05099,0.242535 0.05237,0.05374 0.21084,0.05374 h 0.260449 v 0.212218 h -0.260449 q -0.293522,0 -0.405143,-0.108865 -0.111621,-0.110243 -0.111621,-0.399631 v -0.837846 h -0.186035 v -0.19706 h 0.186035 v -0.438216 z" />
      <path
         id="path1788"
         style="font-weight:normal;font-size:2.82222px;stroke-width:0.264583"
         d="m 83.982408,81.916006 q -0.107487,0.275607 -0.209461,0.359667 -0.101975,0.08406 -0.272852,0.08406 h -0.202571 v -0.212218 h 0.148828 q 0.104731,0 0.162608,-0.04961 0.05788,-0.04961 0.128158,-0.234267 l 0.04548,-0.115755 -0.624251,-1.518597 h 0.268717 l 0.482313,1.207161 0.482313,-1.207161 h 0.268717 z" />
    </g>
    <g
       transform="matrix(1.4067074,0,0,1.936276,-38.369483,-74.013136)"
       style="font-weight:bold;font-size:3.52777px;line-height:1.25;font-family:sans-serif;-inkscape-font-specification:'sans-serif Bold';stroke-width:0.264583"
       id="text884"
       aria-label="capacity">
      <path
         id="path1743"
         style="font-weight:normal;font-size:3.175px;stroke-width:0.264583"
         d="m 99.670973,79.94724 v 0.26665 q -0.120923,-0.06666 -0.243396,-0.09922 -0.120923,-0.03411 -0.244946,-0.03411 -0.277503,0 -0.430982,0.176733 -0.153479,0.175183 -0.153479,0.492993 0,0.317811 0.153479,0.494544 0.153479,0.175183 0.430982,0.175183 0.124023,0 0.244946,-0.03256 0.122473,-0.03411 0.243396,-0.100769 v 0.26355 q -0.119372,0.05581 -0.248047,0.08372 -0.127124,0.02791 -0.271301,0.02791 -0.392224,0 -0.623218,-0.246497 -0.230993,-0.246496 -0.230993,-0.665076 0,-0.42478 0.232544,-0.668176 0.234094,-0.243396 0.640271,-0.243396 0.131774,0 0.257348,0.02791 0.125574,0.02635 0.243396,0.08062 z" />
      <path
         id="path1745"
         style="font-weight:normal;font-size:3.175px;stroke-width:0.264583"
         d="m 100.95927,80.74409 q -0.34572,0 -0.47904,0.07906 -0.13333,0.07906 -0.13333,0.269751 0,0.151929 0.0992,0.241846 0.10077,0.08837 0.27285,0.08837 0.2372,0 0.37982,-0.167432 0.14418,-0.168982 0.14418,-0.448035 v -0.06356 z m 0.56895,-0.117822 v 0.990637 h -0.28525 v -0.26355 q -0.0977,0.15813 -0.2434,0.234095 -0.14572,0.07441 -0.35656,0.07441 -0.26665,0 -0.42478,-0.148828 -0.15658,-0.150379 -0.15658,-0.401526 0,-0.293006 0.19533,-0.441834 0.19689,-0.148828 0.58601,-0.148828 h 0.39998 v -0.02791 q 0,-0.196887 -0.13022,-0.303858 -0.12868,-0.10852 -0.36277,-0.10852 -0.14883,0 -0.28991,0.03566 -0.14107,0.03566 -0.2713,0.10697 v -0.26355 q 0.15658,-0.06046 0.30386,-0.08992 0.14728,-0.03101 0.2868,-0.03101 0.37672,0 0.56276,0.195337 0.18603,0.195337 0.18603,0.592212 z" />
      <path
         id="path1747"
         style="font-weight:normal;font-size:3.175px;stroke-width:0.264583"
         d="m 102.39329,81.356456 v 0.920874 h -0.28681 v -2.396753 h 0.28681 v 0.26355 q 0.0899,-0.155029 0.22634,-0.229443 0.13798,-0.07596 0.32866,-0.07596 0.31626,0 0.51315,0.251148 0.19844,0.251147 0.19844,0.660424 0,0.409278 -0.19844,0.660425 -0.19689,0.251148 -0.51315,0.251148 -0.19068,0 -0.32866,-0.07441 -0.13643,-0.07597 -0.22634,-0.230994 z m 0.97048,-0.606165 q 0,-0.314709 -0.13022,-0.492993 -0.12868,-0.179834 -0.35502,-0.179834 -0.22634,0 -0.35657,0.179834 -0.12867,0.178284 -0.12867,0.492993 0,0.31471 0.12867,0.494544 0.13023,0.178284 0.35657,0.178284 0.22634,0 0.35502,-0.178284 0.13022,-0.179834 0.13022,-0.494544 z" />
      <path
         id="path1749"
         style="font-weight:normal;font-size:3.175px;stroke-width:0.264583"
         d="m 104.92182,80.74409 q -0.34572,0 -0.47904,0.07906 -0.13333,0.07906 -0.13333,0.269751 0,0.151929 0.0992,0.241846 0.10077,0.08837 0.27285,0.08837 0.23719,0 0.37982,-0.167432 0.14418,-0.168982 0.14418,-0.448035 v -0.06356 z m 0.56895,-0.117822 v 0.990637 h -0.28525 v -0.26355 q -0.0977,0.15813 -0.2434,0.234095 -0.14572,0.07441 -0.35656,0.07441 -0.26665,0 -0.42478,-0.148828 -0.15658,-0.150379 -0.15658,-0.401526 0,-0.293006 0.19533,-0.441834 0.19689,-0.148828 0.58601,-0.148828 h 0.39998 v -0.02791 q 0,-0.196887 -0.13023,-0.303858 -0.12867,-0.10852 -0.36276,-0.10852 -0.14883,0 -0.28991,0.03566 -0.14108,0.03566 -0.2713,0.10697 v -0.26355 q 0.15658,-0.06046 0.30386,-0.08992 0.14728,-0.03101 0.2868,-0.03101 0.37672,0 0.56276,0.195337 0.18603,0.195337 0.18603,0.592212 z" />
      <path
         id="path1751"
         style="font-weight:normal;font-size:3.175px;stroke-width:0.264583"
         d="m 107.32942,79.94724 v 0.26665 q -0.12092,-0.06666 -0.2434,-0.09922 -0.12092,-0.03411 -0.24494,-0.03411 -0.2775,0 -0.43098,0.176733 -0.15348,0.175183 -0.15348,0.492993 0,0.317811 0.15348,0.494544 0.15348,0.175183 0.43098,0.175183 0.12402,0 0.24494,-0.03256 0.12248,-0.03411 0.2434,-0.100769 v 0.26355 q -0.11937,0.05581 -0.24805,0.08372 -0.12712,0.02791 -0.2713,0.02791 -0.39222,0 -0.62322,-0.246497 -0.23099,-0.246496 -0.23099,-0.665076 0,-0.42478 0.23254,-0.668176 0.2341,-0.243396 0.64028,-0.243396 0.13177,0 0.25734,0.02791 0.12558,0.02635 0.2434,0.08062 z" />
      <path
         id="path1753"
         style="font-weight:normal;font-size:3.175px;stroke-width:0.264583"
         d="m 107.82861,79.880577 h 0.28526 v 1.736328 h -0.28526 z m 0,-0.675928 h 0.28526 v 0.361219 h -0.28526 z" />
      <path
         id="path1755"
         style="font-weight:normal;font-size:3.175px;stroke-width:0.264583"
         d="m 108.99133,79.387584 v 0.492993 h 0.58757 v 0.221692 h -0.58757 v 0.942578 q 0,0.21239 0.0574,0.272852 0.0589,0.06046 0.23719,0.06046 h 0.29301 v 0.238745 h -0.29301 q -0.33021,0 -0.45579,-0.122473 -0.12557,-0.124023 -0.12557,-0.449585 v -0.942578 h -0.20929 v -0.221692 h 0.20929 v -0.492993 z" />
      <path
         id="path1757"
         style="font-weight:normal;font-size:3.175px;stroke-width:0.264583"
         d="m 110.67805,81.778136 q -0.12092,0.310058 -0.23564,0.404626 -0.11472,0.09457 -0.30696,0.09457 h -0.22789 v -0.238745 h 0.16743 q 0.11782,0 0.18293,-0.05581 0.0651,-0.05581 0.14418,-0.263549 l 0.0512,-0.130225 -0.70228,-1.708423 h 0.30231 l 0.5426,1.358057 0.5426,-1.358057 h 0.30231 z" />
    </g>
    <g
       transform="matrix(1.2472946,0,0,1.2770205,-8.4872494,-13.621015)"
       style="font-weight:bold;font-size:3.52777px;line-height:1.25;font-family:sans-serif;-inkscape-font-specification:'sans-serif Bold';stroke-width:0.264583"
       id="text888"
       aria-label="Error">
      <path
         id="path1932"
         style="font-weight:normal;font-size:3.175px;stroke-width:0.264583"
         d="m 26.883646,49.169708 h 1.463476 v 0.263549 h -1.150317 v 0.68523 h 1.102258 v 0.26355 h -1.102258 v 0.838708 h 1.178222 v 0.26355 h -1.491381 z" />
      <path
         id="path1934"
         style="font-weight:normal;font-size:3.175px;stroke-width:0.264583"
         d="m 29.886563,50.014617 q -0.04806,-0.02791 -0.10542,-0.04031 -0.05581,-0.01395 -0.124023,-0.01395 -0.241846,0 -0.372071,0.15813 -0.128674,0.156579 -0.128674,0.451135 v 0.914673 h -0.286804 v -1.736328 h 0.286804 v 0.269751 q 0.08992,-0.15813 0.234094,-0.234094 0.144177,-0.07752 0.350366,-0.07752 0.02946,0 0.06511,0.0047 0.03566,0.0031 0.07906,0.01085 z" />
      <path
         id="path1936"
         style="font-weight:normal;font-size:3.175px;stroke-width:0.264583"
         d="m 31.1392,50.014617 q -0.04806,-0.02791 -0.10542,-0.04031 -0.05581,-0.01395 -0.124024,-0.01395 -0.241845,0 -0.37207,0.15813 -0.128674,0.156579 -0.128674,0.451135 v 0.914673 h -0.286805 v -1.736328 h 0.286805 v 0.269751 q 0.08992,-0.15813 0.234094,-0.234094 0.144177,-0.07752 0.350366,-0.07752 0.02946,0 0.06511,0.0047 0.03566,0.0031 0.07906,0.01085 z" />
      <path
         id="path1938"
         style="font-weight:normal;font-size:3.175px;stroke-width:0.264583"
         d="m 32.046121,49.947955 q -0.229444,0 -0.362769,0.179834 -0.133325,0.178283 -0.133325,0.489892 0,0.311609 0.131775,0.491443 0.133325,0.178284 0.364319,0.178284 0.227893,0 0.361218,-0.179834 0.133325,-0.179834 0.133325,-0.489893 0,-0.308508 -0.133325,-0.488342 -0.133325,-0.181384 -0.361218,-0.181384 z m 0,-0.241846 q 0.37207,0 0.58446,0.241846 0.21239,0.241845 0.21239,0.669726 0,0.426331 -0.21239,0.669727 -0.21239,0.241845 -0.58446,0.241845 -0.373621,0 -0.586011,-0.241845 -0.21084,-0.243396 -0.21084,-0.669727 0,-0.427881 0.21084,-0.669726 0.21239,-0.241846 0.586011,-0.241846 z" />
      <path
         id="path1940"
         style="font-weight:normal;font-size:3.175px;stroke-width:0.264583"
         d="m 34.320401,50.014617 q -0.04806,-0.02791 -0.10542,-0.04031 -0.05581,-0.01395 -0.124023,-0.01395 -0.241846,0 -0.372071,0.15813 -0.128674,0.156579 -0.128674,0.451135 v 0.914673 h -0.286804 v -1.736328 h 0.286804 v 0.269751 q 0.08992,-0.15813 0.234094,-0.234094 0.144177,-0.07752 0.350366,-0.07752 0.02946,0 0.06511,0.0047 0.03566,0.0031 0.07906,0.01085 z" />
    </g>
    <path
       style="fill:#a11035;stroke:#a11035;stroke-width:0.264583px;stroke-linecap:butt;stroke-linejoin:miter;stroke-opacity:1;fill-opacity:1"
       d="m 69.57153,27.836127 c 0,15.180892 0,30.361523 0,38.630776 0,8.269254 0,9.627077 0,10.984664"
       id="path388"
       inkscape:path-effect="#path-effect390"
       inkscape:original-d="m 69.57153,27.836127 c 2.65e-4,15.180892 2.65e-4,30.361523 0,45.541887 2.65e-4,1.358143 2.65e-4,2.715966 0,4.073553" />
    <path
       id="path965"
       d="m 106.86097,36.436506 h 4.38837"
       style="fill:none;stroke:#006165;stroke-width:0.26499999;stroke-linecap:butt;stroke-linejoin:miter;stroke-opacity:1;stroke-miterlimit:4;stroke-dasharray:0.52999997, 0.26499999000000002;stroke-dashoffset:0" />
  </g>
</svg>
