<?xml version="1.0" encoding="UTF-8" standalone="no"?>
<svg
   xmlns:dc="http://purl.org/dc/elements/1.1/"
   xmlns:cc="http://creativecommons.org/ns#"
   xmlns:rdf="http://www.w3.org/1999/02/22-rdf-syntax-ns#"
   xmlns:svg="http://www.w3.org/2000/svg"
   xmlns="http://www.w3.org/2000/svg"
   xmlns:sodipodi="http://sodipodi.sourceforge.net/DTD/sodipodi-0.dtd"
   xmlns:inkscape="http://www.inkscape.org/namespaces/inkscape"
   width="210mm"
   height="297mm"
   viewBox="0 0 210 297"
   version="1.1"
   id="svg8"
   inkscape:version="1.0 (1.0+r73+1)"
   sodipodi:docname="rosgraph.svg">
  <defs
     id="defs2">
    <marker
       inkscape:stockid="Arrow1Mend"
       orient="auto"
       refY="0.0"
       refX="0.0"
       id="marker1387"
       style="overflow:visible;"
       inkscape:isstock="true">
      <path
         id="path1385"
         d="M 0.0,0.0 L 5.0,-5.0 L -12.5,0.0 L 5.0,5.0 L 0.0,0.0 z "
         style="fill-rule:evenodd;stroke:#000000;stroke-width:1pt;stroke-opacity:1;fill:#000000;fill-opacity:1"
         transform="scale(0.4) rotate(180) translate(10,0)" />
    </marker>
    <marker
       inkscape:isstock="true"
       style="overflow:visible;"
       id="marker1311"
       refX="0.0"
       refY="0.0"
       orient="auto"
       inkscape:stockid="Arrow1Mend"
       inkscape:collect="always">
      <path
         transform="scale(0.4) rotate(180) translate(10,0)"
         style="fill-rule:evenodd;stroke:#000000;stroke-width:1pt;stroke-opacity:1;fill:#000000;fill-opacity:1"
         d="M 0.0,0.0 L 5.0,-5.0 L -12.5,0.0 L 5.0,5.0 L 0.0,0.0 z "
         id="path1309" />
    </marker>
    <marker
       inkscape:isstock="true"
       style="overflow:visible;"
       id="marker1301"
       refX="0.0"
       refY="0.0"
       orient="auto"
       inkscape:stockid="Arrow1Mend">
      <path
         transform="scale(0.4) rotate(180) translate(10,0)"
         style="fill-rule:evenodd;stroke:#000000;stroke-width:1pt;stroke-opacity:1;fill:#000000;fill-opacity:1"
         d="M 0.0,0.0 L 5.0,-5.0 L -12.5,0.0 L 5.0,5.0 L 0.0,0.0 z "
         id="path1299" />
    </marker>
    <marker
       inkscape:isstock="true"
       style="overflow:visible;"
       id="marker1291"
       refX="0.0"
       refY="0.0"
       orient="auto"
       inkscape:stockid="Arrow1Mend">
      <path
         transform="scale(0.4) rotate(180) translate(10,0)"
         style="fill-rule:evenodd;stroke:#000000;stroke-width:1pt;stroke-opacity:1;fill:#000000;fill-opacity:1"
         d="M 0.0,0.0 L 5.0,-5.0 L -12.5,0.0 L 5.0,5.0 L 0.0,0.0 z "
         id="path1289" />
    </marker>
  </defs>
  <sodipodi:namedview
     id="base"
     pagecolor="#ffffff"
     bordercolor="#666666"
     borderopacity="1.0"
     inkscape:pageopacity="0.0"
     inkscape:pageshadow="2"
     inkscape:zoom="0.49497475"
     inkscape:cx="385.24272"
     inkscape:cy="419.78686"
     inkscape:document-units="mm"
     inkscape:current-layer="layer1"
     inkscape:document-rotation="0"
     showgrid="true"
     inkscape:snap-global="false"
     inkscape:window-width="1516"
     inkscape:window-height="850"
     inkscape:window-x="0"
     inkscape:window-y="0"
     inkscape:window-maximized="0">
    <inkscape:grid
       id="grid17276"
       type="xygrid" />
  </sodipodi:namedview>
  <metadata
     id="metadata5">
    <rdf:RDF>
      <cc:Work
         rdf:about="">
        <dc:format>image/svg+xml</dc:format>
        <dc:type
           rdf:resource="http://purl.org/dc/dcmitype/StillImage" />
        <dc:title />
      </cc:Work>
    </rdf:RDF>
  </metadata>
  <g
     inkscape:label="Layer 1"
     inkscape:groupmode="layer"
     id="layer1">
    <path
       style="fill:#b8d698;fill-opacity:1;fill-rule:evenodd;stroke:#407fb7;stroke-width:0.25;stroke-miterlimit:10;stroke-opacity:1"
       id="path868"
       sodipodi:type="arc"
       sodipodi:cx="172.39989"
       sodipodi:cy="91.40519"
       sodipodi:rx="34.125755"
       sodipodi:ry="32.918903"
       sodipodi:start="6.1812057"
       sodipodi:end="6.1715715"
       sodipodi:open="true"
       sodipodi:arc-type="arc"
       d="M 206.34834,88.053948 A 34.125755,32.918903 0 0 1 175.95575,124.1449 34.125755,32.918903 0 0 1 138.46856,94.914141 34.125755,32.918903 0 0 1 168.68058,58.682383 34.125755,32.918903 0 0 1 206.3133,87.738609" />
    <path
       style="fill:#b8d698;fill-opacity:1;fill-rule:evenodd;stroke:#407fb7;stroke-width:0.25;stroke-miterlimit:10;stroke-opacity:1"
       id="path870"
       sodipodi:type="arc"
       sodipodi:cx="109.29594"
       sodipodi:cy="36.267761"
       sodipodi:rx="33.415157"
       sodipodi:ry="30.526976"
       sodipodi:start="6.1812057"
       sodipodi:end="6.1715715"
       sodipodi:open="true"
       sodipodi:arc-type="arc"
       d="M 142.53749,33.160025 A 33.415157,30.526976 0 0 1 112.77775,66.628563 33.415157,30.526976 0 0 1 76.071157,39.521748 33.415157,30.526976 0 0 1 105.65407,5.9226339 33.415157,30.526976 0 0 1 142.50317,32.867599" />
    <path
       style="fill:#b8d698;fill-opacity:1;fill-rule:evenodd;stroke:#407fb7;stroke-width:0.25;stroke-miterlimit:10;stroke-opacity:1"
       id="path872"
       sodipodi:type="arc"
       sodipodi:cx="112.11591"
       sodipodi:cy="175.19031"
       sodipodi:rx="35.455349"
       sodipodi:ry="30.396469"
       sodipodi:start="6.1812057"
       sodipodi:end="6.1715715"
       sodipodi:open="true"
       sodipodi:arc-type="arc"
       d="m 147.38706,172.09586 a 35.455349,30.396469 0 0 1 -31.57675,33.32545 35.455349,30.396469 0 0 1 -38.947744,-26.99093 35.455349,30.396469 0 0 1 31.389124,-33.45547 35.455349,30.396469 0 0 1 39.09896,26.82977" />
    <rect
       style="fill:#d85c41;fill-opacity:1;fill-rule:evenodd;stroke:#000000;stroke-width:0.25;stroke-miterlimit:10"
       id="rect874"
       width="26.651842"
       height="17.477062"
       x="103.00166"
       y="100.33012" />
    <path
       style="fill:#7da4a7;fill-opacity:1;fill-rule:evenodd;stroke:#000000;stroke-width:0.25;stroke-miterlimit:10"
       id="path876"
       sodipodi:type="arc"
       sodipodi:cx="108.20224"
       sodipodi:cy="195.19887"
       sodipodi:rx="23.061508"
       sodipodi:ry="4.7765632"
       sodipodi:start="6.1812057"
       sodipodi:end="6.1715715"
       sodipodi:open="true"
       sodipodi:arc-type="arc"
       d="m 131.14393,194.7126 a 23.061508,4.7765632 0 0 1 -20.53871,5.23683 23.061508,4.7765632 0 0 1 -25.333099,-4.24141 23.061508,4.7765632 0 0 1 20.416679,-5.25726 23.061508,4.7765632 0 0 1 25.43145,4.21608" />
    <path
       style="fill:#7da4a7;fill-opacity:1;fill-rule:evenodd;stroke:#000000;stroke-width:0.207802;stroke-miterlimit:10"
       id="path878"
       sodipodi:type="arc"
       sodipodi:cx="171.19586"
       sodipodi:cy="114.74523"
       sodipodi:rx="21.252811"
       sodipodi:ry="5.5554538"
       sodipodi:start="6.1812057"
       sodipodi:end="6.1715715"
       sodipodi:open="true"
       sodipodi:arc-type="arc"
       d="m 192.33826,114.17967 a 21.252811,5.5554538 0 0 1 -18.92788,6.09077 21.252811,5.5554538 0 0 1 -23.34624,-4.93303 21.252811,5.5554538 0 0 1 18.81541,-6.11454 21.252811,5.5554538 0 0 1 23.43688,4.90358" />
    <path
       style="fill:#7da4a7;fill-opacity:1;fill-rule:evenodd;stroke:#000000;stroke-width:0.25;stroke-miterlimit:10"
       id="path882"
       sodipodi:type="arc"
       sodipodi:cx="108.71127"
       sodipodi:cy="57.676357"
       sodipodi:rx="22.818281"
       sodipodi:ry="4.535068"
       sodipodi:start="6.1812057"
       sodipodi:end="6.1715715"
       sodipodi:open="true"
       sodipodi:arc-type="arc"
       d="m 131.411,57.214674 a 22.818281,4.535068 0 0 1 -20.32209,4.972065 22.818281,4.535068 0 0 1 -25.065914,-4.026972 22.818281,4.535068 0 0 1 20.201354,-4.991462 22.818281,4.535068 0 0 1 25.16322,4.002926" />
    <path
       style="fill:none;stroke:#000000;stroke-width:0.3073px;stroke-linecap:butt;stroke-linejoin:miter;stroke-opacity:1;marker-end:url(#marker1291)"
       d="m 86.634705,59.221041 c 0,0 7.544054,18.398821 12.921542,25.642767 4.813243,6.483861 16.791553,15.247572 16.791553,15.247572"
       id="path888"
       sodipodi:nodetypes="cac" />
    <path
       style="fill:none;stroke:#000000;stroke-width:0.331135;stroke-linecap:butt;stroke-linejoin:miter;stroke-miterlimit:4;stroke-dasharray:none;stroke-opacity:1;marker-end:url(#marker1387)"
       d="m 102.25446,109.19633 c -7.399689,-9.586987 -13.060457,5.6291 -16.720012,13.77735 -3.659556,8.14826 -5.3179,9.22867 -18.641068,9.44713"
       id="path890"
       sodipodi:nodetypes="csc" />
    <path
       style="fill:none;stroke:#000000;stroke-width:0.264583px;stroke-linecap:butt;stroke-linejoin:miter;stroke-opacity:1;marker-end:url(#marker1301)"
       d="M 116.57967,118.02943 C 84.104983,145.99224 31.20725,211.87434 85.567626,195.81492"
       id="path898"
       sodipodi:nodetypes="cc" />
    <path
       style="color:#000000;font-style:normal;font-variant:normal;font-weight:normal;font-stretch:normal;font-size:medium;line-height:normal;font-family:sans-serif;font-variant-ligatures:normal;font-variant-position:normal;font-variant-caps:normal;font-variant-numeric:normal;font-variant-alternates:normal;font-variant-east-asian:normal;font-feature-settings:normal;font-variation-settings:normal;text-indent:0;text-align:start;text-decoration:none;text-decoration-line:none;text-decoration-style:solid;text-decoration-color:#000000;letter-spacing:normal;word-spacing:normal;text-transform:none;writing-mode:lr-tb;direction:ltr;text-orientation:mixed;dominant-baseline:auto;baseline-shift:baseline;text-anchor:start;white-space:normal;shape-padding:0;shape-margin:0;inline-size:0;clip-rule:nonzero;display:inline;overflow:visible;visibility:visible;opacity:1;isolation:auto;mix-blend-mode:normal;color-interpolation:sRGB;color-interpolation-filters:linearRGB;solid-color:#000000;solid-opacity:1;vector-effect:none;fill:none;fill-opacity:1;fill-rule:nonzero;stroke:none;stroke-width:0.264583px;stroke-linecap:butt;stroke-linejoin:miter;stroke-miterlimit:4;stroke-dasharray:none;stroke-dashoffset:0;stroke-opacity:1;color-rendering:auto;image-rendering:auto;shape-rendering:auto;text-rendering:auto;enable-background:accumulate;stop-color:#000000;stop-opacity:1"
       d="m 129.78068,109.2373 -0.21289,0.15821 15.91406,21.49218 0.21289,-0.1582 c -9.50974,-3.23507 -17.72827,-7.67658 -15.91406,-21.49219 z"
       id="path904"
       sodipodi:nodetypes="ccccc" />
    <path
       sodipodi:nodetypes="cc"
       id="path890-6"
       d="m 129.41504,108.46971 c 16.87718,-11.737637 4.75984,34.88427 20.33699,7.77267"
       style="fill:none;stroke:#000000;stroke-width:0.397608;stroke-linecap:butt;stroke-linejoin:miter;stroke-miterlimit:4;stroke-dasharray:none;stroke-opacity:1;marker-end:url(#marker1311)" />
    <text
       id="text941-7"
       y="33.968876"
       x="104.52701"
       style="font-weight:bold;font-size:3.52777px;line-height:1.25;font-family:sans-serif;-inkscape-font-specification:'sans-serif Bold';stroke-width:0.264583"
       xml:space="preserve"><tspan
         style="font-weight:normal;stroke-width:0.264583"
         y="33.968876"
         x="104.52701"
         id="tspan939-5"
         sodipodi:role="line">Node</tspan></text>
    <text
       id="text941-3"
       y="89.435081"
       x="169.93677"
       style="font-weight:bold;font-size:3.52777px;line-height:1.25;font-family:sans-serif;-inkscape-font-specification:'sans-serif Bold';stroke-width:0.264583"
       xml:space="preserve"><tspan
         style="font-weight:normal;stroke-width:0.264583"
         y="89.435081"
         x="169.93677"
         id="tspan939-56"
         sodipodi:role="line">Node</tspan></text>
    <text
       id="text941-2"
       y="172.55174"
       x="108.73058"
       style="font-weight:bold;font-size:3.52777px;line-height:1.25;font-family:sans-serif;-inkscape-font-specification:'sans-serif Bold';stroke-width:0.264583"
       xml:space="preserve"><tspan
         style="font-weight:normal;stroke-width:0.264583"
         y="172.55174"
         x="108.73058"
         id="tspan939-9"
         sodipodi:role="line">Node</tspan></text>
    <path
       d="M 75.98866,104.64267 A 36.922581,36.030918 0 0 1 43.105192,144.14551 36.922581,36.030918 0 0 1 2.545688,112.1514 36.922581,36.030918 0 0 1 35.233778,72.494439 36.922581,36.030918 0 0 1 75.950743,104.29752"
       style="fill:#b8d698;fill-opacity:1;fill-rule:evenodd;stroke:#407fb7;stroke-width:0.25;stroke-miterlimit:10;stroke-opacity:1"
       id="path866"
       sodipodi:type="arc"
       sodipodi:cx="39.257908"
       sodipodi:cy="108.31072"
       sodipodi:rx="36.922581"
       sodipodi:ry="36.030918"
       sodipodi:start="6.1812057"
       sodipodi:end="6.1715715"
       sodipodi:open="true"
       sodipodi:arc-type="arc" />
    <path
       d="m 66.604801,131.07583 a 18.425785,4.4695039 0 0 1 -16.410113,4.90018 18.425785,4.4695039 0 0 1 -20.240749,-3.96875 18.425785,4.4695039 0 0 1 16.312611,-4.9193 18.425785,4.4695039 0 0 1 20.319329,3.94505"
       style="fill:#7da4a7;fill-opacity:1;fill-rule:evenodd;stroke:#000000;stroke-width:0.25;stroke-miterlimit:10"
       id="path880"
       sodipodi:type="arc"
       sodipodi:cx="48.274746"
       sodipodi:cy="131.53084"
       sodipodi:rx="18.425785"
       sodipodi:ry="4.4695039"
       sodipodi:start="6.1812057"
       sodipodi:end="6.1715715"
       sodipodi:open="true"
       sodipodi:arc-type="arc" />
    <text
       xml:space="preserve"
       style="font-weight:bold;font-size:3.52777px;line-height:1.25;font-family:sans-serif;-inkscape-font-specification:'sans-serif Bold';stroke-width:0.264583"
       x="34.737484"
       y="105.80811"
       id="text941"><tspan
         sodipodi:role="line"
         id="tspan939"
         x="34.737484"
         y="105.80811"
         style="font-weight:normal;stroke-width:0.264583">Node</tspan></text>
    <text
       xml:space="preserve"
       style="font-weight:bold;font-size:3.52777px;line-height:1.25;font-family:sans-serif;-inkscape-font-specification:'sans-serif Bold';stroke-width:0.264583"
       x="36.707447"
       y="132.84386"
       id="text979"><tspan
         sodipodi:role="line"
         id="tspan977"
         x="36.707447"
         y="132.84386"
         style="stroke-width:0.264583">Subscriber</tspan></text>
    <text
       id="text979-1"
       y="196.4305"
       x="97.263268"
       style="font-weight:bold;font-size:3.52777px;line-height:1.25;font-family:sans-serif;-inkscape-font-specification:'sans-serif Bold';stroke-width:0.264583"
       xml:space="preserve"><tspan
         style="stroke-width:0.264583"
         y="196.4305"
         x="97.263268"
         id="tspan977-2"
         sodipodi:role="line">Subscriber</tspan></text>
    <text
       id="text979-7"
       y="116.06839"
       x="158.95528"
       style="font-weight:bold;font-size:3.52777px;line-height:1.25;font-family:sans-serif;-inkscape-font-specification:'sans-serif Bold';stroke-width:0.264583"
       xml:space="preserve"><tspan
         style="stroke-width:0.264583"
         y="116.06839"
         x="158.95528"
         id="tspan977-0"
         sodipodi:role="line">Subscriber</tspan></text>
    <text
       id="text979-9"
       y="59.735081"
       x="96.82032"
       style="font-weight:bold;font-size:3.52777px;line-height:1.25;font-family:sans-serif;-inkscape-font-specification:'sans-serif Bold';stroke-width:0.264583"
       xml:space="preserve"><tspan
         style="stroke-width:0.264583"
         y="59.735081"
         x="96.82032"
         id="tspan977-3"
         sodipodi:role="line">Publisher</tspan></text>
    <text
       xml:space="preserve"
       style="font-weight:bold;font-size:3.52777px;line-height:1.25;font-family:sans-serif;-inkscape-font-specification:'sans-serif Bold';stroke-width:0.264583"
       x="110.64153"
       y="110.39997"
       id="text1017"><tspan
         sodipodi:role="line"
         id="tspan1015"
         x="110.64153"
         y="110.39997"
         style="font-weight:normal;stroke-width:0.264583">Topic</tspan></text>
    <path
       d="m 124.23745,72.495781 a 15.635774,4.5686626 0 0 1 -13.92532,5.008896 15.635774,4.5686626 0 0 1 -17.175914,-4.056802 15.635774,4.5686626 0 0 1 13.842574,-5.028438 15.635774,4.5686626 0 0 1 17.2426,4.032579"
       style="fill:#9c9e9f;fill-opacity:1;fill-rule:evenodd;stroke:#000000;stroke-width:0.264999;stroke-linejoin:miter;stroke-miterlimit:4;stroke-dasharray:none;stroke-opacity:1"
       id="path1491"
       sodipodi:type="arc"
       sodipodi:cx="108.68291"
       sodipodi:cy="72.960884"
       sodipodi:rx="15.635774"
       sodipodi:ry="4.5686626"
       sodipodi:start="6.1812057"
       sodipodi:end="6.1715715"
       sodipodi:open="true"
       sodipodi:arc-type="arc" />
    <text
       xml:space="preserve"
       style="font-weight:bold;font-size:3.52777px;line-height:1.25;font-family:sans-serif;-inkscape-font-specification:'sans-serif Bold';stroke-width:0.264583"
       x="97.802612"
       y="74.780952"
       id="text1495"><tspan
         sodipodi:role="line"
         id="tspan1493"
         x="97.802612"
         y="74.780952"
         style="font-weight:normal;stroke-width:0.264583">message 1</tspan><tspan
         id="tspan1603"
         sodipodi:role="line"
         x="97.802612"
         y="79.190666"
         style="font-weight:normal;stroke-width:0.264583" /></text>
    <g
       id="g1720"
       transform="translate(2.3444565,-6.6342597)">
      <path
         style="fill:#9c9e9f;fill-opacity:1;fill-rule:evenodd;stroke:#000000;stroke-width:0.264999;stroke-linejoin:miter;stroke-miterlimit:4;stroke-dasharray:none;stroke-opacity:1"
         id="path1491-6"
         sodipodi:type="arc"
         sodipodi:cx="50.558601"
         sodipodi:cy="183.02972"
         sodipodi:rx="15.635774"
         sodipodi:ry="4.5686626"
         sodipodi:start="6.1812057"
         sodipodi:end="6.1715715"
         sodipodi:open="true"
         sodipodi:arc-type="arc"
         d="m 66.113141,182.56462 a 15.635774,4.5686626 0 0 1 -13.925313,5.0089 15.635774,4.5686626 0 0 1 -17.175918,-4.0568 15.635774,4.5686626 0 0 1 13.842575,-5.02844 15.635774,4.5686626 0 0 1 17.242599,4.03258" />
      <text
         xml:space="preserve"
         style="font-weight:bold;font-size:3.52777px;line-height:1.25;font-family:sans-serif;-inkscape-font-specification:'sans-serif Bold';stroke-width:0.264583"
         x="39.679043"
         y="184.77365"
         id="text1495-2"><tspan
           sodipodi:role="line"
           id="tspan1493-6"
           x="39.679043"
           y="184.77365"
           style="font-weight:normal;stroke-width:0.264583">message 1</tspan></text>
    </g>
    <path
       d="m 104.72899,122.13416 a 15.635774,4.5686626 0 0 1 -13.925317,5.00889 15.635774,4.5686626 0 0 1 -17.175918,-4.0568 15.635774,4.5686626 0 0 1 13.842574,-5.02844 15.635774,4.5686626 0 0 1 17.242601,4.03258"
       sodipodi:arc-type="arc"
       sodipodi:open="true"
       sodipodi:end="6.1715715"
       sodipodi:start="6.1812057"
       sodipodi:ry="4.5686626"
       sodipodi:rx="15.635774"
       sodipodi:cy="122.59926"
       sodipodi:cx="89.174446"
       sodipodi:type="arc"
       id="path1491-8"
       style="fill:#9c9e9f;fill-opacity:1;fill-rule:evenodd;stroke:#000000;stroke-width:0.264999;stroke-linejoin:miter;stroke-miterlimit:4;stroke-dasharray:none;stroke-opacity:1" />
    <text
       id="text1495-7"
       y="124.35893"
       x="78.244408"
       style="font-weight:bold;font-size:3.52777px;line-height:1.25;font-family:sans-serif;-inkscape-font-specification:'sans-serif Bold';stroke-width:0.264583"
       xml:space="preserve"><tspan
         style="font-weight:normal;stroke-width:0.264583"
         y="124.35893"
         x="78.244408"
         id="tspan1493-9"
         sodipodi:role="line">message 1</tspan></text>
    <path
       d="m 152.42246,124.49635 a 15.635774,4.5686626 0 0 1 -13.92531,5.0089 15.635774,4.5686626 0 0 1 -17.17592,-4.0568 15.635774,4.5686626 0 0 1 13.84257,-5.02844 15.635774,4.5686626 0 0 1 17.2426,4.03258"
       sodipodi:arc-type="arc"
       sodipodi:open="true"
       sodipodi:end="6.1715715"
       sodipodi:start="6.1812057"
       sodipodi:ry="4.5686626"
       sodipodi:rx="15.635774"
       sodipodi:cy="124.96146"
       sodipodi:cx="136.86792"
       sodipodi:type="arc"
       id="path1491-0"
       style="fill:#9c9e9f;fill-opacity:1;fill-rule:evenodd;stroke:#000000;stroke-width:0.264999;stroke-linejoin:miter;stroke-miterlimit:4;stroke-dasharray:none;stroke-opacity:1" />
    <text
       id="text1495-23"
       y="126.38138"
       x="126.78653"
       style="font-weight:bold;font-size:3.52777px;line-height:1.25;font-family:sans-serif;-inkscape-font-specification:'sans-serif Bold';stroke-width:0.264583"
       xml:space="preserve"><tspan
         style="font-weight:normal;stroke-width:0.264583"
         y="126.38138"
         x="126.78653"
         id="tspan1493-7"
         sodipodi:role="line">message 2</tspan><tspan
         id="tspan1636"
         style="font-weight:normal;stroke-width:0.264583"
         y="130.79109"
         x="126.78653"
         sodipodi:role="line" /></text>
    <path
       d="m 132.26831,85.208237 a 15.635774,4.5686626 0 0 1 -13.92532,5.008896 15.635774,4.5686626 0 0 1 -17.17591,-4.056802 15.635774,4.5686626 0 0 1 13.84257,-5.028438 15.635774,4.5686626 0 0 1 17.2426,4.032579"
       sodipodi:arc-type="arc"
       sodipodi:open="true"
       sodipodi:end="6.1715715"
       sodipodi:start="6.1812057"
       sodipodi:ry="4.5686626"
       sodipodi:rx="15.635774"
       sodipodi:cy="85.67334"
       sodipodi:cx="116.71377"
       sodipodi:type="arc"
       id="path1491-9"
       style="fill:#9c9e9f;fill-opacity:1;fill-rule:evenodd;stroke:#000000;stroke-width:0.264999;stroke-linejoin:miter;stroke-miterlimit:4;stroke-dasharray:none;stroke-opacity:1" />
    <text
       id="text1495-22"
       y="87.308289"
       x="105.89409"
       style="font-weight:bold;font-size:3.52777px;line-height:1.25;font-family:sans-serif;-inkscape-font-specification:'sans-serif Bold';stroke-width:0.264583"
       xml:space="preserve"><tspan
         id="tspan1632"
         style="font-weight:normal;stroke-width:0.264583"
         y="87.308289"
         x="105.89409"
         sodipodi:role="line">message 2</tspan><tspan
         style="font-weight:normal;stroke-width:0.264583"
         y="91.718002"
         x="105.89409"
         sodipodi:role="line"
         id="tspan1603-9" /></text>
    <path
       d="m 65.44225,187.45583 a 15.635774,4.5686626 0 0 1 -13.925313,5.00889 15.635774,4.5686626 0 0 1 -17.175918,-4.0568 15.635774,4.5686626 0 0 1 13.842575,-5.02844 15.635774,4.5686626 0 0 1 17.242599,4.03258"
       style="fill:#9c9e9f;fill-opacity:1;fill-rule:evenodd;stroke:#000000;stroke-width:0.264999;stroke-linejoin:miter;stroke-miterlimit:4;stroke-dasharray:none;stroke-opacity:1"
       id="path1491-9-3"
       sodipodi:type="arc"
       sodipodi:cx="49.887711"
       sodipodi:cy="187.92093"
       sodipodi:rx="15.635774"
       sodipodi:ry="4.5686626"
       sodipodi:start="6.1812057"
       sodipodi:end="6.1715715"
       sodipodi:open="true"
       sodipodi:arc-type="arc" />
    <text
       xml:space="preserve"
       style="font-weight:bold;font-size:3.52777px;line-height:1.25;font-family:sans-serif;-inkscape-font-specification:'sans-serif Bold';stroke-width:0.264583"
       x="39.38213"
       y="189.86349"
       id="text1495-22-6"><tspan
         sodipodi:role="line"
         x="39.38213"
         y="189.86349"
         style="font-weight:normal;stroke-width:0.264583"
         id="tspan1632-1">message 2</tspan><tspan
         id="tspan1603-9-2"
         sodipodi:role="line"
         x="39.38213"
         y="194.27321"
         style="font-weight:normal;stroke-width:0.264583" /></text>
  </g>
</svg>
