<?xml version="1.0" encoding="UTF-8" standalone="no"?>
<svg
   xmlns:dc="http://purl.org/dc/elements/1.1/"
   xmlns:cc="http://creativecommons.org/ns#"
   xmlns:rdf="http://www.w3.org/1999/02/22-rdf-syntax-ns#"
   xmlns:svg="http://www.w3.org/2000/svg"
   xmlns="http://www.w3.org/2000/svg"
   xmlns:sodipodi="http://sodipodi.sourceforge.net/DTD/sodipodi-0.dtd"
   xmlns:inkscape="http://www.inkscape.org/namespaces/inkscape"
   inkscape:version="1.0 (1.0+r73+1)"
   sodipodi:docname="signature.svg"
   id="svg8"
   version="1.1"
   viewBox="0 0 210 297"
   height="297mm"
   width="210mm">
  <defs
     id="defs2">
    <inkscape:path-effect
       only_selected="false"
       apply_with_weight="true"
       apply_no_weight="true"
       helper_size="0"
       steps="2"
       weight="33.333333"
       lpeversion="1"
       is_visible="true"
       id="path-effect957"
       effect="bspline" />
    <inkscape:path-effect
       only_selected="false"
       apply_with_weight="true"
       apply_no_weight="true"
       helper_size="0"
       steps="2"
       weight="33.333333"
       lpeversion="1"
       is_visible="true"
       id="path-effect949"
       effect="bspline" />
    <inkscape:path-effect
       only_selected="false"
       apply_with_weight="true"
       apply_no_weight="true"
       helper_size="0"
       steps="2"
       weight="33.333333"
       lpeversion="1"
       is_visible="true"
       id="path-effect895"
       effect="bspline" />
    <inkscape:path-effect
       only_selected="false"
       apply_with_weight="true"
       apply_no_weight="true"
       helper_size="0"
       steps="2"
       weight="33.333333"
       lpeversion="1"
       is_visible="true"
       id="path-effect887"
       effect="bspline" />
    <inkscape:path-effect
       only_selected="false"
       apply_with_weight="true"
       apply_no_weight="true"
       helper_size="0"
       steps="2"
       weight="33.333333"
       lpeversion="1"
       is_visible="true"
       id="path-effect883"
       effect="bspline" />
    <inkscape:path-effect
       only_selected="false"
       apply_with_weight="true"
       apply_no_weight="true"
       helper_size="0"
       steps="2"
       weight="33.333333"
       lpeversion="1"
       is_visible="true"
       id="path-effect879"
       effect="bspline" />
    <inkscape:path-effect
       only_selected="false"
       apply_with_weight="true"
       apply_no_weight="true"
       helper_size="0"
       steps="2"
       weight="33.333333"
       lpeversion="1"
       is_visible="true"
       id="path-effect875"
       effect="bspline" />
    <inkscape:path-effect
       only_selected="false"
       apply_with_weight="true"
       apply_no_weight="true"
       helper_size="0"
       steps="2"
       weight="33.333333"
       lpeversion="1"
       is_visible="true"
       id="path-effect871"
       effect="bspline" />
    <inkscape:path-effect
       only_selected="false"
       apply_with_weight="true"
       apply_no_weight="true"
       helper_size="0"
       steps="2"
       weight="33.333333"
       lpeversion="1"
       is_visible="true"
       id="path-effect867"
       effect="bspline" />
    <inkscape:path-effect
       only_selected="false"
       apply_with_weight="true"
       apply_no_weight="true"
       helper_size="0"
       steps="2"
       weight="33.333333"
       lpeversion="1"
       is_visible="true"
       id="path-effect863"
       effect="bspline" />
    <inkscape:path-effect
       only_selected="false"
       apply_with_weight="true"
       apply_no_weight="true"
       helper_size="0"
       steps="2"
       weight="33.333333"
       lpeversion="1"
       is_visible="true"
       id="path-effect859"
       effect="bspline" />
    <inkscape:path-effect
       only_selected="false"
       apply_with_weight="true"
       apply_no_weight="true"
       helper_size="0"
       steps="2"
       weight="33.333333"
       lpeversion="1"
       is_visible="true"
       id="path-effect855"
       effect="bspline" />
    <inkscape:path-effect
       only_selected="false"
       apply_with_weight="true"
       apply_no_weight="true"
       helper_size="0"
       steps="2"
       weight="33.333333"
       lpeversion="1"
       is_visible="true"
       id="path-effect851"
       effect="bspline" />
    <inkscape:path-effect
       only_selected="false"
       apply_with_weight="true"
       apply_no_weight="true"
       helper_size="0"
       steps="2"
       weight="33.333333"
       lpeversion="1"
       is_visible="true"
       id="path-effect847"
       effect="bspline" />
    <inkscape:path-effect
       only_selected="false"
       apply_with_weight="true"
       apply_no_weight="true"
       helper_size="0"
       steps="2"
       weight="33.333333"
       lpeversion="1"
       is_visible="true"
       id="path-effect843"
       effect="bspline" />
    <inkscape:path-effect
       only_selected="false"
       apply_with_weight="true"
       apply_no_weight="true"
       helper_size="0"
       steps="2"
       weight="33.333333"
       lpeversion="1"
       is_visible="true"
       id="path-effect839"
       effect="bspline" />
    <inkscape:path-effect
       only_selected="false"
       apply_with_weight="true"
       apply_no_weight="true"
       helper_size="0"
       steps="2"
       weight="33.333333"
       lpeversion="1"
       is_visible="true"
       id="path-effect835"
       effect="bspline" />
  </defs>
  <sodipodi:namedview
     inkscape:snap-global="false"
     inkscape:window-maximized="0"
     inkscape:window-y="0"
     inkscape:window-x="0"
     inkscape:window-height="850"
     inkscape:window-width="1516"
     showgrid="false"
     inkscape:document-rotation="0"
     inkscape:current-layer="layer1"
     inkscape:document-units="mm"
     inkscape:cy="560"
     inkscape:cx="400"
     inkscape:zoom="0.35"
     inkscape:pageshadow="2"
     inkscape:pageopacity="0.0"
     borderopacity="1.0"
     bordercolor="#666666"
     pagecolor="#ffffff"
     id="base" />
  <metadata
     id="metadata5">
    <rdf:RDF>
      <cc:Work
         rdf:about="">
        <dc:format>image/svg+xml</dc:format>
        <dc:type
           rdf:resource="http://purl.org/dc/dcmitype/StillImage" />
      </cc:Work>
    </rdf:RDF>
  </metadata>
  <g
     id="layer1"
     inkscape:groupmode="layer"
     inkscape:label="Layer 1">
    <path
       inkscape:original-d="M 56.194036,58.237839 -34.011375,149.41029"
       inkscape:path-effect="#path-effect855"
       id="path853"
       d="m 56.194036,58.237839 c 0,0 -90.205411,91.172451 -90.205411,91.172451"
       style="fill:none;stroke:#000000;stroke-width:0.264583px;stroke-linecap:butt;stroke-linejoin:miter;stroke-opacity:1" />
    <path
       inkscape:path-effect="#path-effect859"
       inkscape:original-d="M -34.011375,149.41029 32.539334,106.76706"
       id="path857"
       d="m -34.011375,149.41029 c 0,0 66.550709,-42.64323 66.550709,-42.64323"
       style="fill:none;stroke:#000000;stroke-width:0.264583px;stroke-linecap:butt;stroke-linejoin:miter;stroke-opacity:1" />
    <path
       inkscape:original-d="m 117.14895,108.58626 c -6.48935,7.37562 -12.98135,14.7486 -19.475995,22.11894 -2.850623,3.67022 -5.703893,7.33779 -8.55981,11.00272 -2.015504,2.02079 -4.033653,4.03894 -6.054448,6.05445 0.0026,0.3812 0.0026,0.75976 0,1.13568 -0.09053,-1.16314 -0.18371,-2.32892 -0.279537,-3.49734 0.0026,0.21731 0.0026,0.43197 0,0.64399 0.461052,0.003 0.919456,0.003 1.375217,0 0.792665,-0.26349 1.582684,-0.52962 2.370055,-0.7984 2.01852,2.01852 4.034393,4.03439 6.047621,6.04762 4.086921,-2.06999 8.171197,-4.14262 12.252827,-6.2179 0.80146,-0.25823 1.60028,-0.51912 2.39645,-0.78264 0.003,-0.24955 0.003,-0.50174 0,-0.75658 2.52249,0.25463 5.04233,0.50662 7.55952,0.75595 2.77447,-2.51719 5.5463,-5.03703 8.31548,-7.55952 2.01852,-1.76124 4.03439,-3.52513 6.04762,-5.29167 0.003,0.23573 0.003,0.46881 0,0.69925 0.25649,0.99728 0.51033,1.99191 0.76153,2.9839 0.003,2.766 0.003,5.52935 0,8.29005 -0.34308,8.79717 -0.6888,17.59169 -1.03717,26.38357 -0.0552,-0.32779 -0.11313,-0.65823 -0.17367,-0.99131 1.27949,-6.8418 2.55634,-13.68625 3.83054,-20.53333 1.04948,-3.14826 2.09631,-6.29916 3.14049,-9.45271 1.07071,-2.13348 2.13878,-4.26961 3.2042,-6.40838 1.02694,-1.38289 2.05123,-2.76841 3.07288,-4.15659 0.003,-0.31398 0.003,-0.63062 0,-0.9499 1.80841,1.21217 3.61418,2.42169 5.4173,3.62857 1.72476,-2.06077 3.44688,-4.12418 5.16635,-6.19024 4.5393,-7.14867 9.07595,-14.29998 13.60996,-21.45393 2.42962,-4.460588 4.8566,-8.923817 7.28093,-13.38969 0.35458,-0.349285 0.70651,-0.701215 1.05579,-1.055791 -4.82748,12.456781 -9.65761,24.910911 -14.49039,37.362401 -1.37748,4.61877 -2.7576,9.23489 -4.14037,13.84836 -1.7918,4.0426 -3.58625,8.08255 -5.38334,12.11986 0.003,0.8689 0.003,1.73516 0,2.59877 -0.40366,0.81524 -0.80996,1.62784 -1.2189,2.43779"
       inkscape:path-effect="#path-effect871"
       id="path869"
       d="m 117.14895,108.58626 c -6.49215,7.37315 -12.98415,14.74613 -17.65685,20.26651 -4.6727,5.52037 -7.525968,9.18794 -9.961535,12.03062 -2.435567,2.84268 -4.453716,4.86083 -5.462792,6.0605 -1.009076,1.19968 -1.009076,1.57824 -1.055552,1.18473 -0.04648,-0.39352 -0.139656,-1.5593 -0.186358,-2.03495 -0.0467,-0.47565 -0.0467,-0.26099 0.183823,-0.15498 0.230526,0.10601 0.68893,0.10601 1.312608,-0.0273 0.623679,-0.13333 1.413696,-0.39947 2.817177,0.47699 1.403481,0.87646 3.419353,2.89233 6.468624,2.86237 3.049271,-0.03 7.133545,-2.1026 9.575375,-3.26936 2.44183,-1.16675 3.24066,-1.42764 3.63926,-1.68259 0.3986,-0.25495 0.3986,-0.50714 1.65996,-0.50842 1.26137,-0.001 3.78121,0.2507 6.42566,-0.88344 2.64445,-1.13413 5.41628,-3.65397 7.81016,-5.79586 2.39388,-2.14188 4.40975,-3.90577 5.4176,-4.66977 1.00784,-0.764 1.00784,-0.53092 1.13516,0.0832 0.12732,0.61409 0.38116,1.60872 0.50769,3.48748 0.12652,1.87876 0.12652,4.64211 -0.0464,10.42099 -0.17291,5.77888 -0.51864,14.5734 -0.72013,18.80569 -0.20149,4.23229 -0.25938,3.90184 0.34964,0.31393 0.60902,-3.58791 1.88587,-10.43236 3.04763,-15.43027 1.16177,-4.99792 2.2086,-8.14882 3.26605,-10.7926 1.05745,-2.64378 2.12552,-4.77991 3.1718,-6.54104 1.04628,-1.76114 2.07056,-3.14666 2.58288,-3.99664 0.51231,-0.84998 0.51231,-1.16662 1.41672,-0.72048 0.90441,0.44615 2.71017,1.65567 4.47248,1.22783 1.76231,-0.42784 3.48443,-2.49125 6.6137,-7.0984 3.12928,-4.60714 7.66593,-11.75845 11.14771,-17.5656 3.48178,-5.80715 5.90876,-10.270381 7.29847,-12.678427 1.3897,-2.408046 1.74163,-2.759976 -0.49774,3.291831 -2.23938,6.051806 -7.0695,18.505936 -10.17461,27.041216 -3.10511,8.53528 -4.48524,13.1514 -6.07254,17.47919 -1.5873,4.3278 -3.38175,8.36775 -4.2787,10.82157 -0.89695,2.45381 -0.89695,3.32007 -1.10036,4.1587 -0.20342,0.83864 -0.60972,1.65123 -1.01549,2.46277"
       style="fill:none;stroke:#000000;stroke-width:0.264583px;stroke-linecap:butt;stroke-linejoin:miter;stroke-opacity:1" />
    <path
       inkscape:original-d="m 82.63956,150.53991 c -11.28763,7.1545 -22.5779,14.30635 -33.87083,21.45555 -2.72136,2.36378 -5.44537,4.72492 -8.17203,7.08341 -2.5519,0.83582 -5.10646,1.66899 -7.66366,2.49952 -1.15735,-0.65569 -2.31734,-1.31402 -3.47999,-1.97501"
       inkscape:path-effect="#path-effect875"
       id="path873"
       d="m 82.63956,150.53991 c -11.289586,7.15141 -22.579858,14.30326 -29.587246,19.05988 -7.007389,4.75663 -9.731401,7.11777 -12.369975,8.71475 -2.638574,1.59698 -5.193133,2.43015 -7.049645,2.51872 -1.856513,0.0886 -3.016501,-0.56976 -4.179644,-1.22988"
       style="fill:none;stroke:#000000;stroke-width:0.264583px;stroke-linecap:butt;stroke-linejoin:miter;stroke-opacity:1" />
    <path
       inkscape:original-d="m 117.36899,203.67763 c -3.38037,7.87804 -6.76338,15.75343 -10.14905,23.62618 0.003,0.49525 0.003,0.98785 0,1.47781 -1.38897,2.7616 -2.78059,5.52055 -4.17485,8.27686 0.003,0.50661 0.003,1.01058 0,1.5119 -0.24934,0.003 -0.50132,0.003 -0.75595,0 -0.24934,1.01058 -0.50133,2.01852 -0.75596,3.02381 -0.24465,0.24044 -0.49195,0.47823 -0.7419,0.71337 -0.24934,0.25458 -0.50132,0.50652 -0.75595,0.75581 0.003,0.50662 0.003,1.01058 0,1.51191 -0.247764,0.003 -0.498171,0.003 -0.751224,0 -0.498208,1.22891 -0.999061,2.45518 -1.502561,3.67881 -1.153324,-0.88563 -2.309291,-1.77389 -3.467904,-2.6648 -0.618448,-0.50031 -1.239544,-1.00326 -1.863283,-1.50886 0.0026,-0.90534 0.0026,-1.81332 0,-2.72395 0.0026,-0.80857 0.0026,-1.61978 0,-2.43363 0.845688,0.19884 1.688729,0.39504 2.529123,0.5886 1.010584,0.7586 2.018519,1.51455 3.023812,2.26786 0.758597,0.003 1.514549,0.003 2.267857,0 0.25407,0.49897 0.50549,0.99529 0.75427,1.48897 0.48385,0.003 0.96505,0.003 1.44362,0 0.57471,0.7565 1.14678,1.51037 1.71621,2.26158 0.80829,0.54609 1.61393,1.08954 2.41693,1.63035 1.98335,-2.29536 3.96406,-4.59336 5.94212,-6.89401 0.9778,1.02698 1.95296,2.05131 2.92546,3.073 0.89254,0.003 1.78242,0.003 2.66967,0 0.60572,0.24615 1.2088,0.48966 1.80923,0.73052 1.21972,-0.71045 2.4368,-1.42356 3.65124,-2.13931 1.68909,-3.54097 3.37555,-7.08459 5.05935,-10.63085 0.003,0.8759 0.003,1.74915 0,2.61976 -0.50132,1.51455 -1.00529,3.02646 -1.51191,4.53571 -0.50132,2.98887 -1.00528,5.97509 -1.5119,8.95867 -0.24934,2.85004 -0.50132,5.69745 -0.75595,8.5422 0.003,2.70193 0.003,5.40121 0,8.09784 -0.38188,1.90749 -0.76641,3.81233 -1.15359,5.71452 0.003,-0.29247 0.003,-0.58758 0,-0.88537 0.003,-1.00187 0.003,-2.00639 0,-3.01355 0.003,-1.75022 0.003,-3.50308 0,-5.25859 0.25463,-1.50926 0.50662,-3.02116 0.75596,-4.53571 1.79563,-4.95471 3.58862,-9.91206 5.37896,-14.87207 0.3105,0.26665 0.61836,0.53064 0.92358,0.79199 -0.10562,0.32781 -0.21389,0.65297 -0.3248,0.97549 0.94778,-0.57904 1.89292,-1.16072 2.83542,-1.74505 0.17119,-0.21498 0.33973,-0.43261 0.50562,-0.65288 -0.20975,0.10217 -0.42215,0.20169 -0.63719,0.29857 -0.13924,0.40705 -0.28113,0.81144 -0.42566,1.2132 0.15866,1.60578 0.31467,3.20892 0.46804,4.80941 0.4398,-0.80472 0.87696,-1.61209 1.31148,-2.4221 0.46916,-0.75331 0.93568,-1.50926 1.39955,-2.26786 0.003,-0.54741 0.003,-1.09747 0,-1.65018 0.41662,0.85526 0.83061,1.70787 1.24194,2.55784 0.003,-0.36442 0.003,-0.7315 0,-1.10121 0.15528,-0.31907 0.30792,-0.64079 0.45791,-0.96515 0.18704,-1.42193 0.37143,-2.84651 0.55317,-4.27374 0.25463,-2.2652 0.50662,-4.53306 0.75596,-6.80357 0.50661,-2.26521 1.01058,-4.53306 1.5119,-6.80357 0.003,0.18801 0.003,0.37337 0,0.55608 0.003,-0.18271 0.003,-0.36807 0,-0.55608 -0.24934,2.42214 -0.50132,4.84162 -0.75595,7.25846 -0.24934,5.51054 -0.50132,11.01844 -0.75595,16.52368 0.003,-0.85497 0.003,-1.71258 0,-2.57284 1.26256,-2.51719 2.52248,-5.03703 3.77976,-7.55952 0.72557,1.19106 1.44851,2.37948 2.16879,3.56526 -0.50132,0.50661 -1.00529,1.01058 -1.5119,1.5119 1.99204,0.72549 3.98144,1.44833 5.96819,2.16852"
       inkscape:path-effect="#path-effect887"
       id="path885"
       d="m 117.36899,203.67763 c -3.38356,7.87667 -6.76658,15.75206 -8.45781,19.93674 -1.69124,4.18469 -1.69124,4.67729 -2.38731,6.30227 -0.69607,1.62498 -2.08769,4.38393 -2.78324,6.01619 -0.69554,1.63226 -0.69554,2.13623 -0.82021,2.38689 -0.12467,0.25066 -0.37665,0.25066 -0.63019,0.75556 -0.25354,0.5049 -0.50553,1.51284 -0.75491,2.13475 -0.24939,0.6219 -0.49669,0.85969 -0.74636,1.10458 -0.24966,0.24489 -0.50165,0.49682 -0.62764,0.8761 -0.12599,0.37928 -0.12599,0.88324 -0.249872,1.1339 -0.123882,0.25067 -0.374289,0.25067 -0.751515,0.86447 -0.377227,0.61381 -0.87808,1.84008 -1.70475,2.00954 -0.82667,0.16946 -1.982634,-0.7188 -2.87119,-1.41437 -0.888555,-0.69557 -1.509649,-1.19853 -1.821642,-1.90384 -0.311993,-0.70532 -0.311993,-1.6133 -0.311993,-2.4729 0,-0.8596 0,-1.67081 0.423067,-1.97927 0.423068,-0.30847 1.266109,-0.11227 2.191533,0.36456 0.925425,0.47683 1.933359,1.23278 2.815145,1.60964 0.881787,0.37687 1.637739,0.37687 2.140907,0.62662 0.50317,0.24975 0.75459,0.74607 1.12143,0.99264 0.36683,0.24658 0.84803,0.24658 1.37447,0.62498 0.52644,0.37841 1.09851,1.13227 1.78777,1.78048 0.68926,0.6482 1.4949,1.19165 2.88646,0.31345 1.39157,-0.87819 3.37227,-3.1762 4.85158,-3.81178 1.47931,-0.63559 2.45447,0.38875 3.38702,0.89956 0.93256,0.51081 1.82244,0.51081 2.5692,0.63321 0.74676,0.12239 1.34984,0.3659 2.25872,0.13022 0.90889,-0.23568 2.12597,-0.94878 3.57706,-3.07634 1.45109,-2.12755 3.13754,-5.67118 3.98104,-7.0056 0.84349,-1.33442 0.84349,-0.46117 0.59124,0.73088 -0.25225,1.19205 -0.75622,2.70396 -1.2601,4.9533 -0.50389,2.24933 -1.00785,5.23555 -1.38575,8.15249 -0.3779,2.91694 -0.62989,5.76435 -0.75577,8.53781 -0.12589,2.77347 -0.12589,5.47275 -0.31836,7.7745 -0.19247,2.30175 -0.577,4.20659 -0.76906,5.01176 -0.19206,0.80517 -0.19206,0.51006 -0.19206,-0.13977 0,-0.64983 0,-1.65435 0,-3.03304 0,-1.37869 0,-3.13155 0.12581,-4.76419 0.12582,-1.63263 0.37781,-3.14453 1.4002,-6.37949 1.0224,-3.23495 2.81538,-8.1923 3.86749,-10.53852 1.05211,-2.34621 1.35997,-2.08222 1.45809,-1.78806 0.0981,0.29416 -0.0102,0.61932 0.40892,0.49004 0.41906,-0.12928 1.3642,-0.71096 1.92053,-1.1102 0.55633,-0.39925 0.72487,-0.61687 0.70367,-0.67638 -0.0212,-0.0595 -0.23361,0.04 -0.4116,0.29301 -0.17798,0.253 -0.31987,0.65739 -0.3124,1.66184 0.007,1.00444 0.16349,2.60758 0.45968,3.0045 0.29619,0.39691 0.73335,-0.41045 1.18522,-1.19222 0.45186,-0.78176 0.91838,-1.53771 1.15187,-2.18976 0.23348,-0.65205 0.23348,-1.20211 0.44124,-1.05057 0.20776,0.15154 0.62174,1.00416 0.82796,1.24666 0.20622,0.24251 0.20622,-0.12457 0.28227,-0.46971 0.0761,-0.34515 0.22869,-0.66687 0.39732,-1.53945 0.16864,-0.87258 0.35303,-2.29716 0.57123,-4.14335 0.21821,-1.84618 0.47019,-4.11404 0.84808,-6.38208 0.37789,-2.26804 0.88186,-4.5359 1.13406,-5.5768 0.2522,-1.04091 0.2522,-0.85555 0.2522,-0.85555 0,0 0,-0.18536 -0.12611,0.93155 -0.12612,1.11692 -0.3781,3.5364 -0.63002,7.50018 -0.25192,3.96377 -0.5039,9.47167 -0.62984,11.79687 -0.12593,2.3252 -0.12593,1.46759 0.50376,-0.22193 0.6297,-1.68952 1.88962,-4.20936 2.88225,-4.87405 0.99264,-0.66469 1.71557,0.52373 1.82411,1.36837 0.10853,0.84464 -0.39544,1.34861 0.34887,1.9626 0.74431,0.61398 2.73371,1.33682 4.71992,2.0585"
       style="fill:none;stroke:#000000;stroke-width:0.264583px;stroke-linecap:butt;stroke-linejoin:miter;stroke-opacity:1" />
    <path
       inkscape:original-d="m 165.70242,221.11413 c -1.34841,2.74025 -2.69946,5.47786 -4.05317,8.21282 -1.2368,3.7824 -2.47625,7.56217 -3.71835,11.33928 0.003,1.84241 0.003,3.68216 0,5.51928 0.0775,-1.77234 0.15228,-3.54731 0.22445,-5.32494 0.50662,-1.50926 1.01058,-3.02116 1.51191,-4.53571 1.41958,-2.65254 2.83652,-5.30773 4.25082,-7.96556 0.59089,-0.55901 1.17913,-1.12066 1.76473,-1.68497 -0.40258,3.3185 -0.8078,6.63436 -1.21567,9.94758 4.24417,-0.36825 8.48569,-0.73913 12.72456,-1.11266"
       inkscape:path-effect="#path-effect895"
       id="path893"
       d="m 165.70242,221.11413 c -1.35159,2.73868 -2.70264,5.47629 -3.99789,8.73523 -1.29525,3.25895 -2.53471,7.03872 -3.15417,9.849 -0.61946,2.81028 -0.61946,4.65003 -0.5821,4.68236 0.0374,0.0323 0.11217,-1.74264 0.40135,-3.38655 0.28918,-1.64392 0.79315,-3.15582 1.75361,-5.23967 0.96047,-2.08386 2.37741,-4.73905 3.38029,-6.34798 1.00288,-1.60894 1.59111,-2.17059 1.68246,-0.79232 0.0913,1.37827 -0.31389,4.69413 1.6056,6.16537 1.91949,1.47124 6.16101,1.10036 10.40013,0.72968"
       style="fill:none;stroke:#000000;stroke-width:0.264583px;stroke-linecap:butt;stroke-linejoin:miter;stroke-opacity:1" />
    <path
       inkscape:original-d="m 120.09056,12.859703 c -2.75244,4.707877 -5.50752,9.413109 -8.26525,14.115695 -0.50133,0.506613 -1.00529,1.010581 -1.51191,1.511903 -0.24934,1.262568 -0.50132,2.522487 -0.75595,3.779763 -2.26521,2.522487 -4.53307,5.042329 -6.80357,7.559524 -1.45983,-0.34771 -2.922303,-0.698063 -4.387423,-1.051062 0.138158,-0.132858 0.273669,-0.268364 0.406538,-0.406514 -0.132869,0.391226 -0.26838,0.779806 -0.406538,1.165741 0.270417,-0.385935 0.538189,-0.774515 0.803315,-1.165741 0.35819,-0.117224 0.713734,-0.237096 1.066638,-0.359611 2.72772,0.0026 5.4528,0.0026 8.17523,0 4.24666,0.681167 8.49068,1.359688 12.73206,2.035566 1.51455,-1.257276 3.02645,-2.517195 4.53571,-3.779763 0.87733,0.209606 1.75202,0.416565 2.62406,0.620879 0.27224,-0.828077 0.54183,-1.658797 0.80878,-2.492166 1.70161,-0.489931 3.40057,-0.982511 5.09689,-1.477737 -0.6793,5.724689 -1.36124,11.446729 -2.04583,17.166126 -0.24967,4.627047 -0.50198,9.25145 -0.75693,13.873208 -0.62589,2.966281 -1.25443,5.929915 -1.88561,8.890907 0.34978,-2.097426 0.69691,-4.197495 1.0414,-6.30021 1.26256,-6.296959 2.52248,-12.596561 3.77976,-18.898812 0.75019,-3.448685 1.49774,-6.900016 2.24264,-10.353995 0.50641,1.238544 1.01018,2.474442 1.5113,3.707691 0.60793,-7.130016 1.21322,-14.262679 1.81585,-21.397987 0.003,-1.257275 0.003,-2.517195 0,-3.779761 0.9514,-1.500032 1.90014,-3.002708 2.84625,-4.508031 0.24821,0.855461 0.49378,1.708276 0.73671,2.558445 0.003,5.535623 0.003,11.0686 0,16.598931 -0.24824,3.540281 -0.49913,7.077919 -0.75266,10.612908 0.15899,-0.748469 0.31532,-1.499584 0.46901,-2.253345 1.47387,-1.080492 2.9451,-2.163627 4.41368,-3.249409 1.92881,1.199955 3.85497,2.397263 5.77848,3.591925"
       inkscape:path-effect="#path-effect949"
       id="path947"
       d="m 120.09056,12.859703 c -2.75556,4.706049 -5.51064,9.411279 -7.13993,12.015472 -1.62929,2.604193 -2.13326,3.108156 -2.51144,3.99112 -0.37818,0.882964 -0.63016,2.142882 -1.88995,4.031819 -1.25978,1.888937 -3.52764,4.40878 -5.39119,5.493821 -1.86354,1.085042 -3.326017,0.734688 -3.991049,0.491387 -0.665032,-0.2433 -0.529519,-0.378805 -0.529787,-0.251499 -2.68e-4,0.127306 -0.13578,0.515886 -0.06958,0.515396 0.0662,-4.89e-4 0.333977,-0.389069 0.646615,-0.643838 0.312637,-0.25477 0.668182,-0.37464 2.209026,-0.43431 1.54085,-0.05967 4.26593,-0.05967 7.75065,0.27983 3.48472,0.339499 7.72874,1.018021 10.60534,0.726974 2.87659,-0.291047 4.38849,-1.550965 5.58321,-2.076972 1.19471,-0.526007 2.0694,-0.319046 2.63973,-0.630486 0.57033,-0.31144 0.83992,-1.142159 1.82533,-1.80487 0.98541,-0.662712 2.68437,-1.15529 3.19187,1.460842 0.50751,2.616132 -0.17443,8.338172 -0.64149,13.511492 -0.46706,5.173321 -0.71937,9.797724 -1.15993,13.591493 -0.44057,3.79377 -1.06911,6.757405 -1.20977,7.189265 -0.14067,0.43186 0.20646,-1.668209 1.00996,-5.868103 0.8035,-4.199893 2.06342,-10.499495 3.06715,-15.374991 1.00372,-4.875496 1.75126,-8.326828 2.37779,-9.433939 0.62652,-1.107111 1.13029,0.128788 1.68406,-2.819991 0.55377,-2.948778 1.15905,-10.081441 1.4618,-14.277612 0.30274,-4.19617 0.30274,-5.45609 0.7769,-6.838364 0.47415,-1.382274 1.4229,-2.884946 2.02073,-3.208654 0.59784,-0.323709 0.84341,0.529106 0.96574,3.721753 0.12233,3.192646 0.12233,8.725623 -0.003,13.260829 -0.12553,4.535206 -0.37642,8.072844 -0.42381,9.465885 -0.0474,1.39304 0.10894,0.641926 0.92315,-0.27637 0.81422,-0.918296 2.28545,-2.001433 3.98546,-1.943218 1.70002,0.05822 3.62618,1.255524 5.54924,2.450907"
       style="fill:none;stroke:#000000;stroke-width:0.264583px;stroke-linecap:butt;stroke-linejoin:miter;stroke-opacity:1" />
    <path
       inkscape:original-d="m 166.25215,17.755676 c -0.70539,1.87464 -1.41343,3.746634 -2.12411,5.615982 -1.0817,1.603747 -2.16604,3.204846 -3.25303,4.803302 -1.00529,3.530423 -2.01323,7.0582 -3.02381,10.583333 -0.24934,1.262566 -0.50132,2.522488 -0.75596,3.779761 0.003,0.25463 0.003,0.506614 0,0.755952 0.86727,-3.074255 1.73189,-6.151155 2.59386,-9.230701 1.06188,-3.48633 2.12112,-6.975303 3.17771,-10.466924 1.13109,-1.944256 2.25954,-3.891158 3.38534,-5.840705 0.006,1.769534 0.0103,3.536422 0.0114,5.300664 -2.5172,4.53836 -5.03704,9.074075 -7.55953,13.607141 1.10687,0.22737 2.21109,0.452094 3.31267,0.674172 2.39034,-1.480222 4.77804,-2.96309 7.16309,-4.448604"
       inkscape:path-effect="#path-effect957"
       id="path955"
       d="m 166.25215,17.755676 c -0.70858,1.873433 -1.41662,3.745428 -2.31273,5.481549 -0.89612,1.736121 -1.98046,3.337219 -3.02665,5.902239 -1.0462,2.56502 -2.05413,6.092798 -2.68405,8.486791 -0.62991,2.393993 -0.8819,3.653914 -1.00769,4.410171 -0.12579,0.756258 -0.12579,1.008242 0.30627,-0.404658 0.43206,-1.412901 1.29668,-4.489801 2.2586,-7.772776 0.96192,-3.282975 2.02116,-6.771949 3.11502,-9.490314 1.09385,-2.718365 2.2223,-4.665268 2.78867,-4.754366 0.56637,-0.0891 0.57017,1.677792 -0.68811,4.828217 -1.25827,3.150425 -3.77812,7.686138 -4.48415,10.066218 -0.70603,2.38008 0.39819,2.604804 2.14299,1.975197 1.74479,-0.629607 4.13249,-2.112477 6.51946,-3.594895"
       style="fill:none;stroke:#000000;stroke-width:0.264583px;stroke-linecap:butt;stroke-linejoin:miter;stroke-opacity:1" />
  </g>
</svg>
