<?xml version="1.0" encoding="UTF-8" standalone="no"?>
<svg
   xmlns:dc="http://purl.org/dc/elements/1.1/"
   xmlns:cc="http://creativecommons.org/ns#"
   xmlns:rdf="http://www.w3.org/1999/02/22-rdf-syntax-ns#"
   xmlns:svg="http://www.w3.org/2000/svg"
   xmlns="http://www.w3.org/2000/svg"
   xmlns:sodipodi="http://sodipodi.sourceforge.net/DTD/sodipodi-0.dtd"
   xmlns:inkscape="http://www.inkscape.org/namespaces/inkscape"
   sodipodi:docname="splitdata.svg"
   inkscape:version="1.0 (1.0+r73+1)"
   id="svg22044"
   version="1.1"
   viewBox="0 0 210 297"
   height="297mm"
   width="210mm">
  <defs
     id="defs22038">
    <marker
       inkscape:isstock="true"
       style="overflow:visible"
       id="marker6773"
       refX="0"
       refY="0"
       orient="auto"
       inkscape:stockid="Arrow1Lend"
       inkscape:collect="always">
      <path
         transform="matrix(-0.8,0,0,-0.8,-10,0)"
         style="fill:#000000;fill-opacity:1;fill-rule:evenodd;stroke:#000000;stroke-width:1pt;stroke-opacity:1"
         d="M 0,0 5,-5 -12.5,0 5,5 Z"
         id="path6771" />
    </marker>
    <marker
       inkscape:isstock="true"
       style="overflow:visible"
       id="marker20052"
       refX="0"
       refY="0"
       orient="auto"
       inkscape:stockid="Arrow1Lend"
       inkscape:collect="always">
      <path
         transform="matrix(-0.8,0,0,-0.8,-10,0)"
         style="fill:#000000;fill-opacity:1;fill-rule:evenodd;stroke:#000000;stroke-width:1pt;stroke-opacity:1"
         d="M 0,0 5,-5 -12.5,0 5,5 Z"
         id="path20050" />
    </marker>
    <marker
       inkscape:isstock="true"
       style="overflow:visible"
       id="marker20042"
       refX="0"
       refY="0"
       orient="auto"
       inkscape:stockid="Arrow1Lend">
      <path
         transform="matrix(-0.8,0,0,-0.8,-10,0)"
         style="fill:#000000;fill-opacity:1;fill-rule:evenodd;stroke:#000000;stroke-width:1pt;stroke-opacity:1"
         d="M 0,0 5,-5 -12.5,0 5,5 Z"
         id="path20040" />
    </marker>
    <marker
       inkscape:isstock="true"
       style="overflow:visible"
       id="marker20032"
       refX="0"
       refY="0"
       orient="auto"
       inkscape:stockid="Arrow1Lend">
      <path
         transform="matrix(-0.8,0,0,-0.8,-10,0)"
         style="fill:#000000;fill-opacity:1;fill-rule:evenodd;stroke:#000000;stroke-width:1pt;stroke-opacity:1"
         d="M 0,0 5,-5 -12.5,0 5,5 Z"
         id="path20030" />
    </marker>
    <marker
       inkscape:isstock="true"
       style="overflow:visible"
       id="marker20022"
       refX="0"
       refY="0"
       orient="auto"
       inkscape:stockid="Arrow1Lend">
      <path
         transform="matrix(-0.8,0,0,-0.8,-10,0)"
         style="fill:#000000;fill-opacity:1;fill-rule:evenodd;stroke:#000000;stroke-width:1pt;stroke-opacity:1"
         d="M 0,0 5,-5 -12.5,0 5,5 Z"
         id="path20020" />
    </marker>
  </defs>
  <sodipodi:namedview
     inkscape:window-maximized="0"
     inkscape:window-y="0"
     inkscape:window-x="0"
     inkscape:window-height="850"
     inkscape:window-width="1516"
     showgrid="false"
     inkscape:document-rotation="0"
     inkscape:current-layer="layer1"
     inkscape:document-units="mm"
     inkscape:cy="560"
     inkscape:cx="400"
     inkscape:zoom="0.35"
     inkscape:pageshadow="2"
     inkscape:pageopacity="0.0"
     borderopacity="1.0"
     bordercolor="#666666"
     pagecolor="#ffffff"
     id="base" />
  <metadata
     id="metadata22041">
    <rdf:RDF>
      <cc:Work
         rdf:about="">
        <dc:format>image/svg+xml</dc:format>
        <dc:type
           rdf:resource="http://purl.org/dc/dcmitype/StillImage" />
        <dc:title></dc:title>
      </cc:Work>
    </rdf:RDF>
  </metadata>
  <g
     id="layer1"
     inkscape:groupmode="layer"
     inkscape:label="Layer 1">
    <g
       id="g2165"
       transform="matrix(0.34175528,0,0,0.34175528,88.677144,50.372434)">
      <g
         transform="matrix(1.2308049,0,0,1.2308049,-153.11125,-34.949824)"
         id="XMLID_2_-3-6">
        <path
           id="XMLID_8_-5-7"
           class="st0"
           d="m 48,43.7 c 5.3,0 10.2,-0.5 14.8,-1.4 4.6,-1 8.2,-2.4 10.9,-4.3 v 5.7 c 0,1.5 -1.1,3 -3.4,4.3 -2.3,1.3 -5.4,2.4 -9.4,3.1 -4,0.7 -8.2,1.2 -12.9,1.2 -4.7,0 -8.9,-0.4 -12.9,-1.2 C 31.1,50.3 28,49.3 25.7,48 23.4,46.7 22.3,45.3 22.3,43.7 V 38 c 2.7,1.9 6.3,3.3 10.9,4.3 4.6,0.9 9.5,1.4 14.8,1.4 z m 0,25.7 c 5.3,0 10.2,-0.5 14.8,-1.4 4.6,-1 8.2,-2.4 10.9,-4.3 v 5.7 c 0,1.5 -1.1,3 -3.4,4.3 C 68,75 64.9,76.1 60.9,76.8 56.9,77.5 52.6,78 48,78 43.4,78 39.1,77.6 35.1,76.8 31.1,76 28,75 25.7,73.7 23.4,72.4 22.3,71 22.3,69.4 v -5.7 c 2.7,1.9 6.3,3.3 10.9,4.3 4.6,0.9 9.5,1.4 14.8,1.4 z m 0,-12.8 c 5.3,0 10.2,-0.5 14.8,-1.4 4.6,-0.9 8.2,-2.4 10.9,-4.3 v 5.7 c 0,1.5 -1.1,3 -3.4,4.3 -2.3,1.3 -5.4,2.4 -9.4,3.1 -4,0.8 -8.2,1.2 -12.9,1.2 -4.7,0 -8.9,-0.4 -12.9,-1.2 -4,-0.8 -7.1,-1.8 -9.4,-3.1 -2.3,-1.3 -3.4,-2.7 -3.4,-4.3 v -5.7 c 2.7,1.9 6.3,3.3 10.9,4.3 4.6,1 9.5,1.4 14.8,1.4 z M 48,18 c 4.6,0 8.9,0.4 12.9,1.2 4,0.8 7.1,1.8 9.4,3.1 2.3,1.3 3.4,2.7 3.4,4.3 v 4.3 c 0,1.5 -1.1,3 -3.4,4.3 -2.3,1.3 -5.4,2.4 -9.4,3.1 -4,0.7 -8.2,1.2 -12.9,1.2 -4.7,0 -8.9,-0.4 -12.9,-1.2 -4,-0.8 -7.1,-1.8 -9.4,-3.1 -2.3,-1.3 -3.4,-2.7 -3.4,-4.3 v -4.3 c 0,-1.5 1.1,-3 3.4,-4.3 C 28,21 31.1,19.9 35.1,19.2 39.1,18.4 43.4,18 48,18 Z" />
      </g>
      <g
         aria-label="Storage - HDF5"
         id="text3754"
         style="font-size:7.05556px;line-height:1.25;font-family:sans-serif;-inkscape-font-specification:sans-serif;stroke-width:0.264583"
         transform="matrix(3.7795276,0,0,3.7795276,-457.59624,-427.11697)">
        <path
           d="m 73.170351,131.97799 v 0.67869 q -0.396187,-0.18948 -0.747586,-0.2825 -0.3514,-0.093 -0.678685,-0.093 -0.568441,0 -0.8785,0.22049 -0.306613,0.22048 -0.306613,0.627 0,0.34107 0.20326,0.51677 0.206706,0.17225 0.778592,0.27905 l 0.420302,0.0861 q 0.778592,0.14814 1.147218,0.52365 0.372071,0.37207 0.372071,0.99908 0,0.74759 -0.502985,1.13344 -0.499539,0.38585 -1.467611,0.38585 -0.365181,0 -0.778592,-0.0827 -0.409967,-0.0827 -0.85094,-0.2446 v -0.71658 q 0.423747,0.23771 0.830269,0.35829 0.406521,0.12057 0.799263,0.12057 0.596002,0 0.919841,-0.23426 0.323839,-0.23427 0.323839,-0.66835 0,-0.37896 -0.234267,-0.59256 -0.230821,-0.21359 -0.761366,-0.32039 l -0.423747,-0.0827 q -0.778592,-0.15503 -1.126547,-0.48576 -0.347955,-0.33073 -0.347955,-0.91984 0,-0.68213 0.478868,-1.07487 0.482314,-0.39275 1.326363,-0.39275 0.361735,0 0.737251,0.0655 0.375516,0.0655 0.768257,0.19637 z"
           style="stroke-width:0.264583"
           id="path3756" />
        <path
           d="m 75.165062,131.99866 v 1.09554 h 1.305692 v 0.49265 h -1.305692 v 2.09462 q 0,0.47198 0.127469,0.60634 0.130914,0.13436 0.5271,0.13436 h 0.651123 v 0.53054 h -0.651123 q -0.733806,0 -1.012859,-0.27216 -0.279053,-0.27561 -0.279053,-0.99908 v -2.09462 h -0.465088 v -0.49265 h 0.465088 v -1.09554 z"
           style="stroke-width:0.264583"
           id="path3758" />
        <path
           d="m 78.803085,133.53862 q -0.509874,0 -0.806152,0.39963 -0.296279,0.39619 -0.296279,1.08865 0,0.69247 0.292833,1.0921 0.296279,0.39619 0.809598,0.39619 0.50643,0 0.802708,-0.39964 0.296279,-0.39963 0.296279,-1.08865 0,-0.68557 -0.296279,-1.0852 -0.296278,-0.40308 -0.802708,-0.40308 z m 0,-0.53743 q 0.826824,0 1.298802,0.53743 0.471979,0.53744 0.471979,1.48828 0,0.94741 -0.471979,1.48829 -0.471978,0.53743 -1.298802,0.53743 -0.830268,0 -1.302246,-0.53743 -0.468534,-0.54088 -0.468534,-1.48829 0,-0.95084 0.468534,-1.48828 0.471978,-0.53743 1.302246,-0.53743 z"
           style="stroke-width:0.264583"
           id="path3760" />
        <path
           d="m 83.857044,133.68676 q -0.106798,-0.062 -0.234266,-0.0896 -0.124024,-0.031 -0.275608,-0.031 -0.537435,0 -0.826824,0.3514 -0.285943,0.34796 -0.285943,1.00253 v 2.0326 H 81.59706 v -3.85851 h 0.637343 v 0.59945 q 0.199816,-0.3514 0.52021,-0.52021 0.320394,-0.17225 0.778592,-0.17225 0.06546,0 0.144694,0.0103 0.07924,0.007 0.1757,0.0241 z"
           style="stroke-width:0.264583"
           id="path3762" />
        <path
           d="m 86.282393,135.01312 q -0.768257,0 -1.064535,0.1757 -0.296278,0.1757 -0.296278,0.59945 0,0.33762 0.220486,0.53744 0.223931,0.19637 0.606337,0.19637 0.5271,0 0.844049,-0.37207 0.320394,-0.37552 0.320394,-0.99564 v -0.14125 z m 1.264351,-0.26182 v 2.20141 h -0.633898 v -0.58566 q -0.217041,0.3514 -0.54088,0.52021 -0.32384,0.16536 -0.792373,0.16536 -0.592557,0 -0.943957,-0.33073 -0.347954,-0.33417 -0.347954,-0.89228 0,-0.65112 0.434082,-0.98185 0.437527,-0.33073 1.302247,-0.33073 h 0.888835 v -0.062 q 0,-0.43753 -0.289388,-0.67524 -0.285943,-0.24116 -0.806153,-0.24116 -0.330729,0 -0.644233,0.0792 -0.313504,0.0792 -0.602892,0.23771 v -0.58567 q 0.347954,-0.13436 0.675239,-0.19981 0.327284,-0.0689 0.637343,-0.0689 0.837159,0 1.25057,0.43408 0.413412,0.43408 0.413412,1.31603 z"
           style="stroke-width:0.264583"
           id="path3764" />
        <path
           d="m 91.394918,134.97867 q 0,-0.68902 -0.285943,-1.06798 -0.282498,-0.37896 -0.795818,-0.37896 -0.509874,0 -0.795817,0.37896 -0.282498,0.37896 -0.282498,1.06798 0,0.68558 0.282498,1.06454 0.285943,0.37896 0.795817,0.37896 0.51332,0 0.795818,-0.37896 0.285943,-0.37896 0.285943,-1.06454 z m 0.633898,1.49517 q 0,0.9853 -0.437527,1.46417 -0.437528,0.48231 -1.340143,0.48231 -0.334175,0 -0.630453,-0.0517 -0.296279,-0.0482 -0.575332,-0.15159 v -0.61667 q 0.279053,0.15159 0.551216,0.22393 0.272163,0.0724 0.554661,0.0724 0.623562,0 0.933621,-0.32728 0.310059,-0.32384 0.310059,-0.98186 v -0.3135 q -0.196371,0.34106 -0.502984,0.50987 -0.306614,0.16881 -0.733806,0.16881 -0.70969,0 -1.143773,-0.54088 -0.434082,-0.54088 -0.434082,-1.43316 0,-0.89572 0.434082,-1.4366 0.434083,-0.54088 1.143773,-0.54088 0.427192,0 0.733806,0.16881 0.306613,0.16881 0.502984,0.50987 v -0.58567 h 0.633898 z"
           style="stroke-width:0.264583"
           id="path3766" />
        <path
           d="m 96.634911,134.86498 v 0.31006 h -2.914553 q 0.04134,0.65457 0.392741,0.99908 0.354845,0.34107 0.985298,0.34107 0.365181,0 0.706245,-0.0896 0.34451,-0.0896 0.68213,-0.26871 v 0.59944 q -0.341065,0.1447 -0.699355,0.22049 -0.35829,0.0758 -0.726916,0.0758 -0.923286,0 -1.464166,-0.53743 -0.537436,-0.53744 -0.537436,-1.45384 0,-0.9474 0.509875,-1.50206 0.513319,-0.5581 1.381484,-0.5581 0.778592,0 1.2299,0.50298 0.454753,0.49954 0.454753,1.36081 z m -0.633898,-0.18603 q -0.0069,-0.52021 -0.292833,-0.83027 -0.282498,-0.31006 -0.751032,-0.31006 -0.530545,0 -0.850939,0.29972 -0.316949,0.29973 -0.36518,0.84405 z"
           style="stroke-width:0.264583"
           id="path3768" />
        <path
           d="m 99.60114,134.73752 h 1.85691 v 0.56499 h -1.85691 z"
           style="stroke-width:0.264583"
           id="path3770" />
        <path
           d="m 104.74467,131.80918 h 0.69591 v 2.1084 h 2.5287 v -2.1084 h 0.69591 v 5.14353 h -0.69591 v -2.44946 h -2.5287 v 2.44946 h -0.69591 z"
           style="stroke-width:0.264583"
           id="path3772" />
        <path
           d="m 110.74603,132.38107 v 3.99976 h 0.84061 q 1.06453,0 1.55718,-0.48232 0.49609,-0.48231 0.49609,-1.52273 0,-1.03353 -0.49609,-1.5124 -0.49265,-0.48231 -1.55718,-0.48231 z m -0.69591,-0.57189 h 1.42972 q 1.49517,0 2.19453,0.62356 0.69935,0.62012 0.69935,1.94304 0,1.32981 -0.7028,1.95337 -0.7028,0.62356 -2.19108,0.62356 h -1.42972 z"
           style="stroke-width:0.264583"
           id="path3774" />
        <path
           d="m 115.4796,131.80918 h 2.95589 v 0.58567 h -2.25998 v 1.51584 h 2.03949 v 0.58567 h -2.03949 v 2.45635 h -0.69591 z"
           style="stroke-width:0.264583"
           id="path3776" />
        <path
           d="m 119.61371,131.80918 h 2.73196 v 0.58567 h -2.09462 v 1.2609 q 0.15159,-0.0517 0.30317,-0.0758 0.15159,-0.0276 0.30317,-0.0276 0.86128,0 1.36426,0.47198 0.50298,0.47198 0.50298,1.27813 0,0.83027 -0.51676,1.29191 -0.51676,0.4582 -1.45728,0.4582 -0.32384,0 -0.66146,-0.0551 -0.33417,-0.0551 -0.69246,-0.16537 v -0.69935 q 0.31006,0.16881 0.64079,0.25149 0.33073,0.0827 0.69935,0.0827 0.596,0 0.94396,-0.3135 0.34795,-0.3135 0.34795,-0.85094 0,-0.53743 -0.34795,-0.85094 -0.34796,-0.3135 -0.94396,-0.3135 -0.27905,0 -0.5581,0.062 -0.27561,0.062 -0.565,0.19293 z"
           style="stroke-width:0.264583"
           id="path3778" />
      </g>
    </g>
    <g
       transform="matrix(0.11242467,0,0,0.11242467,91.132114,48.503196)"
       id="g852">
      <g
         id="g3"
         transform="translate(-120.60861,-220.26017)">
        <path
           d="m 333.32,347.348 c 33.869,-33.867 39.498,-83.146 12.572,-110.07 -26.922,-26.921 -76.199,-21.293 -110.066,12.572 -33.867,33.866 -24.07,98.568 -12.57,110.07 9.293,9.293 76.199,21.293 110.064,-12.572 z"
           id="path5"
           inkscape:connector-curvature="0"
           style="fill:#f89939" />
        <path
           d="m 194.35,298.411 c -19.648,-19.648 -48.242,-22.919 -63.867,-7.295 -15.621,15.622 -12.355,44.22 7.297,63.865 19.652,19.654 57.195,13.969 63.863,7.295 5.396,-5.387 12.361,-44.215 -7.293,-63.865 z"
           id="path7"
           inkscape:connector-curvature="0"
           style="fill:#3499cd" />
      </g>
      <g
         id="g9"
         transform="translate(-120.60861,-220.26017)">
        <g
           id="g11">
          <path
             d="m 262.143,339.047 c -3.471,3.195 -6.516,5.553 -9.133,7.068 -2.617,1.52 -5.113,2.279 -7.488,2.279 -2.732,0 -4.936,-1.059 -6.607,-3.178 -1.674,-2.121 -2.508,-4.965 -2.508,-8.543 0,-5.361 1.162,-11.797 3.486,-19.301 2.32,-7.51 5.145,-14.43 8.463,-20.761 l 9.729,-3.602 c 0.305,-0.102 0.537,-0.154 0.691,-0.154 0.738,0 1.348,0.544 1.816,1.627 0.473,1.088 0.711,2.55 0.711,4.388 0,5.209 -1.199,10.252 -3.602,15.129 -2.402,4.879 -6.154,10.086 -11.26,15.627 -0.205,2.656 -0.307,4.48 -0.307,5.477 0,2.223 0.408,3.982 1.225,5.285 0.818,1.305 1.902,1.953 3.256,1.953 1.381,0 2.848,-0.494 4.406,-1.49 1.555,-0.998 3.93,-3.064 7.121,-6.207 v 4.403 z m -14.668,-14.973 c 3.242,-3.605 5.875,-7.648 7.891,-12.121 2.016,-4.475 3.023,-8.324 3.023,-11.549 0,-0.94 -0.139,-1.704 -0.418,-2.278 -0.281,-0.575 -0.641,-0.864 -1.074,-0.864 -0.941,0 -2.316,2.352 -4.117,7.057 -1.801,4.704 -3.569,11.29 -5.305,19.755 z"
             id="path13"
             inkscape:connector-curvature="0"
             style="fill:#010101" />
          <path
             d="m 290.795,339.047 c -3.242,3.195 -6.152,5.553 -8.732,7.068 -2.58,1.52 -5.424,2.279 -8.541,2.279 -3.473,0 -6.275,-1.111 -8.41,-3.33 -2.131,-2.225 -3.195,-5.146 -3.195,-8.773 0,-5.412 1.875,-10.309 5.633,-14.688 3.75,-4.381 7.914,-6.57 12.484,-6.57 2.375,0 4.275,0.615 5.707,1.84 1.43,1.227 2.145,2.834 2.145,4.826 0,5.287 -5.617,9.574 -16.852,12.869 1.02,4.977 3.688,7.469 8.004,7.469 1.686,0 3.293,-0.453 4.824,-1.357 1.535,-0.908 3.844,-2.922 6.934,-6.035 v 4.402 z m -20.07,-7.084 c 6.535,-1.84 9.805,-5.234 9.805,-10.188 0,-2.451 -0.895,-3.676 -2.68,-3.676 -1.686,0 -3.293,1.281 -4.824,3.85 -1.536,2.565 -2.301,5.901 -2.301,10.014 z"
             id="path15"
             inkscape:connector-curvature="0"
             style="fill:#010101" />
          <path
             d="m 331.701,339.047 c -4.086,3.881 -7.01,6.412 -8.77,7.588 -1.762,1.174 -3.447,1.76 -5.057,1.76 -4.035,0 -5.936,-3.561 -5.707,-10.686 -2.553,3.65 -4.91,6.344 -7.068,8.084 -2.156,1.736 -4.383,2.602 -6.684,2.602 -2.244,0 -4.152,-1.051 -5.725,-3.158 -1.573,-2.107 -2.354,-4.691 -2.354,-7.758 0,-3.828 1.051,-7.48 3.156,-10.955 2.109,-3.473 4.809,-6.279 8.102,-8.424 3.293,-2.145 6.207,-3.219 8.732,-3.219 3.193,0 5.428,1.469 6.705,4.404 l 7.828,-4.326 h 2.148 l -3.381,11.221 c -1.736,5.645 -2.607,9.514 -2.607,11.607 0,2.195 0.777,3.293 2.336,3.293 0.992,0 2.09,-0.529 3.291,-1.59 1.201,-1.061 2.883,-2.676 5.053,-4.846 v 4.403 z m -28.037,2.109 c 2.553,0 4.959,-2.176 7.223,-6.529 2.26,-4.355 3.389,-8.373 3.389,-12.049 0,-1.428 -0.322,-2.547 -0.957,-3.35 -0.641,-0.807 -1.496,-1.207 -2.566,-1.207 -2.555,0 -4.977,2.17 -7.258,6.512 -2.285,4.342 -3.43,8.338 -3.43,11.986 0,1.381 0.34,2.498 1.016,3.354 0.676,0.856 1.534,1.283 2.583,1.283 z"
             id="path17"
             inkscape:connector-curvature="0"
             style="fill:#010101" />
          <path
             d="m 360.314,339.047 c -6.41,6.281 -11.352,9.424 -14.824,9.424 -1.559,0 -2.875,-0.658 -3.945,-1.969 -1.07,-1.316 -1.609,-2.945 -1.609,-4.887 0,-3.6 1.93,-8.424 5.785,-14.477 -1.891,0.971 -3.957,1.645 -6.205,2.029 -1.66,3.064 -4.266,6.359 -7.814,9.879 h -0.879 v -3.443 c 1.99,-2.068 3.791,-4.291 5.4,-6.666 -2.199,-0.971 -3.295,-2.414 -3.295,-4.326 0,-1.969 0.668,-4.068 2.012,-6.305 1.34,-2.232 3.184,-3.348 5.535,-3.348 1.992,0 2.986,1.018 2.986,3.062 0,1.609 -0.574,3.906 -1.725,6.895 4.238,-0.461 7.941,-3.701 11.109,-9.729 l 3.484,-0.154 -3.562,9.805 c -1.48,4.137 -2.438,6.955 -2.871,8.447 -0.433,1.492 -0.652,2.816 -0.652,3.963 0,1.074 0.25,1.932 0.746,2.566 0.498,0.643 1.17,0.959 2.012,0.959 0.918,0 1.801,-0.314 2.643,-0.936 0.842,-0.631 2.732,-2.359 5.67,-5.193 v 4.404 z"
             id="path19"
             inkscape:connector-curvature="0"
             style="fill:#010101" />
          <path
             d="m 397.928,339.047 c -5.898,6.234 -10.957,9.348 -15.168,9.348 -1.711,0 -3.09,-0.6 -4.137,-1.801 -1.049,-1.199 -1.572,-2.807 -1.572,-4.824 0,-2.732 1.125,-6.908 3.373,-12.523 1.199,-3.014 1.801,-4.932 1.801,-5.746 0,-0.818 -0.322,-1.227 -0.957,-1.227 -0.357,0 -0.832,0.18 -1.418,0.535 -0.539,0.357 -1.164,0.859 -1.879,1.496 -0.637,0.586 -1.354,1.301 -2.145,2.141 -0.691,0.721 -1.432,1.537 -2.219,2.453 l -2.148,2.492 c -0.943,1.148 -1.531,2.359 -1.76,3.637 -0.385,2.17 -0.639,4.164 -0.768,5.979 -0.078,1.35 -0.115,3.174 -0.115,5.477 l -8.465,1.988 c -0.279,-3.447 -0.422,-6.014 -0.422,-7.697 0,-4.111 0.479,-8.006 1.438,-11.682 0.957,-3.68 2.494,-7.814 4.615,-12.412 l 9.344,-1.799 c -1.965,5.287 -3.254,9.447 -3.867,12.484 4.188,-4.672 7.508,-7.906 9.969,-9.709 2.457,-1.801 4.645,-2.697 6.557,-2.697 1.299,0 2.385,0.49 3.25,1.471 0.869,0.982 1.301,2.215 1.301,3.689 0,2.449 -1.098,6.484 -3.291,12.104 -1.508,3.854 -2.262,6.355 -2.262,7.51 0,1.537 0.627,2.305 1.881,2.305 1.867,0 4.891,-2.465 9.064,-7.393 z"
             id="path21"
             inkscape:connector-curvature="0"
             style="fill:#010101" />
        </g>
      </g>
      <text
         font-size="23.0795"
         id="text25"
         style="font-size:23.0795px;line-height:0%;font-family:Helvetica;fill:#ffffff"
         x="153.33279"
         y="81.945938">scikit</text>
    </g>
    <g
       aria-label="X_train"
       id="text2169"
       style="font-size:26.6667px;line-height:1.25;font-family:sans-serif;-inkscape-font-specification:sans-serif"
       transform="matrix(0.34175528,0,0,0.34175528,192.74653,-7.5454805)">
      <path
         d="m -158.33478,118.78907 h 2.82553 l 4.83073,7.22658 4.85678,-7.22658 h 2.82553 l -6.25001,9.33595 6.66667,10.10418 h -2.82552 l -5.46876,-8.26824 -5.50782,8.26824 h -2.83854 l 6.94011,-10.37762 z"
         id="path2560" />
      <path
         d="m -128.13943,142.65629 v 1.86198 h -13.85418 v -1.86198 z"
         id="path2562" />
      <path
         d="m -123.51702,119.50522 v 4.14063 h 4.9349 v 1.86198 h -4.9349 v 7.91668 q 0,1.78386 0.48177,2.29167 0.49479,0.50781 1.99219,0.50781 h 2.46094 v 2.00521 h -2.46094 q -2.77344,0 -3.82813,-1.02864 -1.05469,-1.04167 -1.05469,-3.77605 v -7.91668 h -1.75781 v -1.86198 h 1.75781 v -4.14063 z"
         id="path2564" />
      <path
         d="m -106.96752,125.88544 q -0.40365,-0.23438 -0.88542,-0.33855 -0.46875,-0.11718 -1.04167,-0.11718 -2.03125,0 -3.125,1.32812 -1.08073,1.31511 -1.08073,3.78907 v 7.6823 h -2.40886 v -14.58335 h 2.40886 v 2.26563 q 0.7552,-1.32813 1.96614,-1.96615 1.21094,-0.65104 2.94272,-0.65104 0.24739,0 0.54687,0.0391 0.29948,0.026 0.66406,0.0911 z"
         id="path2566" />
      <path
         d="m -97.800846,130.89846 q -2.903654,0 -4.023444,0.66407 -1.11979,0.66406 -1.11979,2.26563 0,1.27604 0.83333,2.03125 0.84636,0.74219 2.291672,0.74219 1.99219,0 3.190108,-1.40626 1.21094,-1.41927 1.21094,-3.76302 v -0.53386 z m 4.778652,-0.98958 v 8.32032 h -2.395836 v -2.21354 q -0.820314,1.32812 -2.044274,1.96615 -1.22396,0.625 -2.994796,0.625 -2.23959,0 -3.56771,-1.25 -1.31511,-1.26303 -1.31511,-3.3724 0,-2.46095 1.64063,-3.71095 1.65365,-1.25 4.92188,-1.25 h 3.35938 v -0.23437 q 0,-1.65365 -1.093752,-2.55209 -1.08073,-0.91146 -3.046879,-0.91146 -1.249999,0 -2.434899,0.29948 -1.1849,0.29948 -2.27865,0.89844 v -2.21355 q 1.31511,-0.50781 2.55209,-0.75521 1.23698,-0.26041 2.408855,-0.26041 3.164067,0 4.726569,1.64062 1.562502,1.64063 1.562502,4.97397 z"
         id="path2568" />
      <path
         d="m -88.074272,123.64585 h 2.395837 v 14.58335 h -2.395837 z m 0,-5.67709 h 2.395837 v 3.03386 h -2.395837 z"
         id="path2570" />
      <path
         d="m -68.556017,129.42711 v 8.80209 h -2.395836 v -8.72397 q 0,-2.07031 -0.807293,-3.09896 -0.807293,-1.02865 -2.421878,-1.02865 -1.940107,0 -3.0599,1.23698 -1.119793,1.23698 -1.119793,3.3724 v 8.2422 h -2.408857 v -14.58335 h 2.408857 v 2.26563 q 0.859376,-1.31511 2.018232,-1.96615 1.171876,-0.65104 2.695316,-0.65104 2.513024,0 3.802088,1.5625 1.289064,1.54948 1.289064,4.57032 z"
         id="path2572" />
    </g>
    <g
       aria-label="X_test"
       id="text2173"
       style="font-size:26.6667px;line-height:1.25;font-family:sans-serif;-inkscape-font-specification:sans-serif"
       transform="matrix(0.34175528,0,0,0.34175528,192.74653,-4.6422845)">
      <path
         d="m -158.33478,158.17823 h 2.82553 l 4.83073,7.22658 4.85678,-7.22658 h 2.82553 l -6.25001,9.33595 6.66667,10.10418 h -2.82552 l -5.46876,-8.26824 -5.50782,8.26824 h -2.83854 l 6.94011,-10.37761 z"
         id="path2575" />
      <path
         d="m -128.13943,182.04545 v 1.86198 h -13.85418 v -1.86198 z"
         id="path2577" />
      <path
         d="m -123.51702,158.89438 v 4.14063 h 4.9349 v 1.86198 h -4.9349 v 7.91668 q 0,1.78386 0.48177,2.29167 0.49479,0.50781 1.99219,0.50781 h 2.46094 v 2.00521 h -2.46094 q -2.77344,0 -3.82813,-1.02864 -1.05469,-1.04167 -1.05469,-3.77605 v -7.91668 h -1.75781 v -1.86198 h 1.75781 v -4.14063 z"
         id="path2579" />
      <path
         d="m -102.94408,169.72773 v 1.17187 h -11.01564 q 0.15625,2.47397 1.48438,3.77605 1.34114,1.28906 3.72396,1.28906 1.38021,0 2.66927,-0.33854 1.30209,-0.33854 2.57813,-1.01562 v 2.26562 q -1.28906,0.54688 -2.64323,0.83334 -1.35417,0.28646 -2.7474,0.28646 -3.48959,0 -5.53386,-2.03126 -2.03125,-2.03125 -2.03125,-5.49479 0,-3.58074 1.92708,-5.67709 1.94011,-2.10938 5.22136,-2.10938 2.94271,0 4.64845,1.90104 1.71875,1.88803 1.71875,5.14324 z m -2.39584,-0.70313 q -0.026,-1.96615 -1.10677,-3.13802 -1.06771,-1.17188 -2.83855,-1.17188 -2.00521,0 -3.21615,1.13281 -1.19791,1.13282 -1.38021,3.19011 z"
         id="path2581" />
      <path
         d="m -89.714896,163.4647 v 2.26563 q -1.015627,-0.52084 -2.109378,-0.78125 -1.093751,-0.26042 -2.265628,-0.26042 -1.783856,0 -2.682295,0.54687 -0.885418,0.54688 -0.885418,1.64063 0,0.83334 0.638022,1.31511 0.638022,0.46875 2.565107,0.89844 l 0.820314,0.18229 q 2.552087,0.54687 3.619796,1.54948 1.080731,0.98958 1.080731,2.77344 0,2.03125 -1.614586,3.21615 -1.601564,1.1849 -4.414068,1.1849 -1.171876,0 -2.447919,-0.23438 -1.263023,-0.22135 -2.669272,-0.67708 v -2.47396 q 1.328124,0.6901 2.617188,1.04166 1.289064,0.33855 2.552087,0.33855 1.69271,0 2.60417,-0.57292 0.911459,-0.58594 0.911459,-1.64063 0,-0.97656 -0.664063,-1.4974 -0.651043,-0.52083 -2.877608,-1.0026 l -0.833334,-0.19531 q -2.226566,-0.46875 -3.21615,-1.4323 -0.989585,-0.97656 -0.989585,-2.66927 0,-2.0573 1.458335,-3.17709 1.458336,-1.11979 4.140631,-1.11979 1.328126,0 2.500003,0.19531 1.171876,0.19531 2.161461,0.58594 z"
         id="path2583" />
      <path
         d="m -82.735719,158.89438 v 4.14063 h 4.934902 v 1.86198 h -4.934902 v 7.91668 q 0,1.78386 0.481771,2.29167 0.494793,0.50781 1.99219,0.50781 h 2.460941 v 2.00521 h -2.460941 q -2.773441,0 -3.82813,-1.02864 -1.054688,-1.04167 -1.054688,-3.77605 v -7.91668 h -1.757815 v -1.86198 h 1.757815 v -4.14063 z"
         id="path2585" />
    </g>
    <g
       aria-label="Y_train"
       id="text2177"
       style="font-size:26.6667px;line-height:1.25;font-family:sans-serif;-inkscape-font-specification:sans-serif"
       transform="matrix(0.34175528,0,0,0.34175528,192.74653,-1.7390885)">
      <path
         d="m -159.22019,198.38771 h 2.82552 l 5.39064,7.9948 5.35157,-7.9948 h 2.82552 l -6.87501,10.1823 v 9.25783 h -2.64323 v -9.25783 z"
         id="path2588" />
      <path
         d="m -129.27224,222.25492 v 1.86199 h -13.85418 v -1.86199 z"
         id="path2590" />
      <path
         d="m -124.64984,199.10385 v 4.14063 h 4.93491 v 1.86198 h -4.93491 v 7.91668 q 0,1.78386 0.48178,2.29167 0.49479,0.50781 1.99219,0.50781 h 2.46094 v 2.00522 h -2.46094 q -2.77344,0 -3.82813,-1.02865 -1.05469,-1.04167 -1.05469,-3.77605 v -7.91668 h -1.75782 v -1.86198 h 1.75782 v -4.14063 z"
         id="path2592" />
      <path
         d="m -108.10033,205.48407 q -0.40365,-0.23438 -0.88542,-0.33854 -0.46875,-0.11719 -1.04167,-0.11719 -2.03125,0 -3.125,1.32813 -1.08073,1.3151 -1.08073,3.78906 v 7.68231 h -2.40886 v -14.58336 h 2.40886 v 2.26563 q 0.75521,-1.32813 1.96615,-1.96615 1.21093,-0.65104 2.94271,-0.65104 0.24739,0 0.54687,0.0391 0.29948,0.026 0.66407,0.0911 z"
         id="path2594" />
      <path
         d="m -98.933655,210.4971 q -2.903645,0 -4.023445,0.66406 -1.11979,0.66406 -1.11979,2.26563 0,1.27604 0.83333,2.03125 0.84636,0.74219 2.29167,0.74219 1.992194,0 3.190112,-1.40625 1.210939,-1.41928 1.210939,-3.76303 v -0.53385 z m 4.778652,-0.98959 v 8.32033 h -2.395836 v -2.21355 q -0.820314,1.32813 -2.044274,1.96615 -1.223959,0.625 -2.994797,0.625 -2.23958,0 -3.56771,-1.25 -1.31511,-1.26302 -1.31511,-3.3724 0,-2.46094 1.64063,-3.71094 1.65365,-1.25001 4.921882,-1.25001 h 3.359379 v -0.23437 q 0,-1.65365 -1.093752,-2.55209 -1.08073,-0.91146 -3.046879,-0.91146 -1.25,0 -2.4349,0.29948 -1.1849,0.29948 -2.27865,0.89844 v -2.21354 q 1.31511,-0.50782 2.55209,-0.75521 1.23698,-0.26042 2.40886,-0.26042 3.164063,0 4.726565,1.64063 1.562502,1.64062 1.562502,4.97396 z"
         id="path2596" />
      <path
         d="m -89.207084,203.24448 h 2.395836 v 14.58336 h -2.395836 z m 0,-5.67709 h 2.395836 v 3.03386 h -2.395836 z"
         id="path2598" />
      <path
         d="m -69.688829,209.02574 v 8.8021 h -2.395837 v -8.72397 q 0,-2.07032 -0.807292,-3.09897 -0.807293,-1.02864 -2.421878,-1.02864 -1.940107,0 -3.0599,1.23698 -1.119793,1.23698 -1.119793,3.3724 v 8.2422 h -2.408857 v -14.58336 h 2.408857 v 2.26563 q 0.859376,-1.3151 2.018231,-1.96615 1.171877,-0.65104 2.695316,-0.65104 2.513024,0 3.802089,1.5625 1.289064,1.54948 1.289064,4.57032 z"
         id="path2600" />
    </g>
    <g
       aria-label="Y_test"
       id="text2181"
       style="font-size:26.6667px;line-height:1.25;font-family:sans-serif;-inkscape-font-specification:sans-serif"
       transform="matrix(0.34175528,0,0,0.34175528,192.74653,1.1641135)">
      <path
         d="m -159.22019,237.77685 h 2.82552 l 5.39064,7.9948 5.35157,-7.9948 h 2.82552 l -6.87501,10.18231 v 9.25782 h -2.64323 v -9.25782 z"
         id="path2603" />
      <path
         d="m -129.27224,261.64407 v 1.86198 h -13.85418 v -1.86198 z"
         id="path2605" />
      <path
         d="m -124.64984,238.493 v 4.14063 h 4.93491 v 1.86198 h -4.93491 v 7.91668 q 0,1.78385 0.48178,2.29167 0.49479,0.50781 1.99219,0.50781 h 2.46094 v 2.00521 h -2.46094 q -2.77344,0 -3.82813,-1.02865 -1.05469,-1.04167 -1.05469,-3.77604 v -7.91668 h -1.75782 v -1.86198 h 1.75782 V 238.493 Z"
         id="path2607" />
      <path
         d="m -104.07689,249.32635 v 1.17187 h -11.01564 q 0.15625,2.47396 1.48438,3.77605 1.34115,1.28906 3.72396,1.28906 1.38021,0 2.66927,-0.33854 1.30209,-0.33854 2.57813,-1.01563 v 2.26563 q -1.28906,0.54688 -2.64323,0.83334 -1.35417,0.28645 -2.7474,0.28645 -3.48959,0 -5.53386,-2.03125 -2.03125,-2.03125 -2.03125,-5.4948 0,-3.58073 1.92708,-5.67709 1.94011,-2.10937 5.22136,-2.10937 2.94272,0 4.64845,1.90104 1.71875,1.88802 1.71875,5.14324 z m -2.39584,-0.70313 q -0.026,-1.96615 -1.10677,-3.13803 -1.06771,-1.17187 -2.83854,-1.17187 -2.00522,0 -3.21615,1.13281 -1.19792,1.13282 -1.38021,3.19011 z"
         id="path2609" />
      <path
         d="m -90.847709,243.06332 v 2.26562 q -1.015626,-0.52083 -2.109377,-0.78125 -1.093752,-0.26041 -2.265628,-0.26041 -1.783857,0 -2.682295,0.54687 -0.885418,0.54688 -0.885418,1.64063 0,0.83333 0.638022,1.3151 0.638021,0.46876 2.565107,0.89844 l 0.820313,0.1823 q 2.552087,0.54687 3.619797,1.54948 1.08073,0.98958 1.08073,2.77344 0,2.03125 -1.614585,3.21615 -1.601565,1.18489 -4.414068,1.18489 -1.171877,0 -2.44792,-0.23437 -1.263022,-0.22136 -2.669279,-0.67708 v -2.47397 q 1.328132,0.69011 2.617196,1.04167 1.289064,0.33854 2.552086,0.33854 1.692711,0 2.60417,-0.57291 0.91146,-0.58594 0.91146,-1.64063 0,-0.97656 -0.664064,-1.4974 -0.651042,-0.52083 -2.877607,-1.0026 l -0.833335,-0.19532 q -2.226565,-0.46875 -3.216146,-1.43229 -0.98959,-0.97656 -0.98959,-2.66927 0,-2.0573 1.458337,-3.17709 1.458335,-1.11979 4.14063,-1.11979 1.328127,0 2.500003,0.19531 1.171877,0.19531 2.161461,0.58594 z"
         id="path2611" />
      <path
         d="m -83.868532,238.493 v 4.14063 h 4.934902 v 1.86198 h -4.934902 v 7.91668 q 0,1.78385 0.481772,2.29167 0.494792,0.50781 1.99219,0.50781 h 2.46094 v 2.00521 h -2.46094 q -2.773441,0 -3.82813,-1.02865 -1.054689,-1.04167 -1.054689,-3.77604 v -7.91668 h -1.757815 v -1.86198 h 1.757815 V 238.493 Z"
         id="path2613" />
    </g>
    <path
       style="fill:none;stroke:#000000;stroke-width:0.341842;stroke-linecap:butt;stroke-linejoin:miter;stroke-miterlimit:4;stroke-dasharray:none;stroke-opacity:1;marker-end:url(#marker6773)"
       d="M 68.939655,58.244577 H 88.774384"
       id="path2546" />
    <path
       style="fill:none;stroke:#000000;stroke-width:0.511527;stroke-linecap:butt;stroke-linejoin:miter;stroke-miterlimit:4;stroke-dasharray:none;stroke-opacity:1;marker-end:url(#marker20052)"
       d="M 116.97866,50.620741 134.65329,36.595239"
       id="path20012" />
    <path
       style="fill:none;stroke:#000000;stroke-width:0.511527;stroke-linecap:butt;stroke-linejoin:miter;stroke-miterlimit:4;stroke-dasharray:none;stroke-opacity:1;marker-end:url(#marker20042)"
       d="m 120.9863,56.117142 15.17339,-3.371824"
       id="path20014" />
    <path
       style="fill:none;stroke:#000000;stroke-width:0.511527;stroke-linecap:butt;stroke-linejoin:miter;stroke-miterlimit:4;stroke-dasharray:none;stroke-opacity:1;marker-end:url(#marker20032)"
       d="m 119.52592,65.450422 17.98732,5.980449"
       id="path20016" />
    <path
       style="fill:none;stroke:#000000;stroke-width:0.511527;stroke-linecap:butt;stroke-linejoin:miter;stroke-miterlimit:4;stroke-dasharray:none;stroke-opacity:1;marker-end:url(#marker20022)"
       d="m 113.27343,66.994838 21.46225,16.930106"
       id="path20018" />
  </g>
</svg>
