<?xml version="1.0" encoding="UTF-8" standalone="no"?>
<svg
   xmlns:dc="http://purl.org/dc/elements/1.1/"
   xmlns:cc="http://creativecommons.org/ns#"
   xmlns:rdf="http://www.w3.org/1999/02/22-rdf-syntax-ns#"
   xmlns:svg="http://www.w3.org/2000/svg"
   xmlns="http://www.w3.org/2000/svg"
   xmlns:sodipodi="http://sodipodi.sourceforge.net/DTD/sodipodi-0.dtd"
   xmlns:inkscape="http://www.inkscape.org/namespaces/inkscape"
   sodipodi:docname="steeringdensesplit.svg"
   inkscape:version="1.0 (1.0+r73+1)"
   id="svg2504"
   version="1.1"
   viewBox="0 0 210 297"
   height="297mm"
   width="210mm">
  <defs
     id="defs2498">
    <marker
       inkscape:stockid="Arrow1Mend"
       orient="auto"
       refY="0"
       refX="0"
       id="marker1261"
       style="overflow:visible"
       inkscape:isstock="true">
      <path
         id="path1259"
         d="M 0,0 5,-5 -12.5,0 5,5 Z"
         style="fill:#000000;fill-opacity:1;fill-rule:evenodd;stroke:#000000;stroke-width:1pt;stroke-opacity:1"
         transform="matrix(-0.4,0,0,-0.4,-4,0)" />
    </marker>
    <marker
       inkscape:stockid="Arrow1Mend"
       orient="auto"
       refY="0"
       refX="0"
       id="marker1251"
       style="overflow:visible"
       inkscape:isstock="true">
      <path
         id="path1249"
         d="M 0,0 5,-5 -12.5,0 5,5 Z"
         style="fill:#000000;fill-opacity:1;fill-rule:evenodd;stroke:#000000;stroke-width:1pt;stroke-opacity:1"
         transform="matrix(-0.4,0,0,-0.4,-4,0)" />
    </marker>
    <marker
       inkscape:stockid="Arrow1Mend"
       orient="auto"
       refY="0"
       refX="0"
       id="marker1241"
       style="overflow:visible"
       inkscape:isstock="true">
      <path
         id="path1239"
         d="M 0,0 5,-5 -12.5,0 5,5 Z"
         style="fill:#000000;fill-opacity:1;fill-rule:evenodd;stroke:#000000;stroke-width:1pt;stroke-opacity:1"
         transform="matrix(-0.4,0,0,-0.4,-4,0)" />
    </marker>
    <marker
       inkscape:stockid="Arrow1Mend"
       orient="auto"
       refY="0"
       refX="0"
       id="marker1231"
       style="overflow:visible"
       inkscape:isstock="true">
      <path
         id="path1229"
         d="M 0,0 5,-5 -12.5,0 5,5 Z"
         style="fill:#000000;fill-opacity:1;fill-rule:evenodd;stroke:#000000;stroke-width:1pt;stroke-opacity:1"
         transform="matrix(-0.4,0,0,-0.4,-4,0)" />
    </marker>
    <marker
       inkscape:isstock="true"
       style="overflow:visible"
       id="marker3951"
       refX="0"
       refY="0"
       orient="auto"
       inkscape:stockid="Arrow1Mend">
      <path
         transform="matrix(-0.4,0,0,-0.4,-4,0)"
         style="fill:#000000;fill-opacity:1;fill-rule:evenodd;stroke:#000000;stroke-width:1pt;stroke-opacity:1"
         d="M 0,0 5,-5 -12.5,0 5,5 Z"
         id="path3949" />
    </marker>
    <marker
       inkscape:collect="always"
       inkscape:isstock="true"
       style="overflow:visible"
       id="marker1539"
       refX="0"
       refY="0"
       orient="auto"
       inkscape:stockid="Arrow1Mend">
      <path
         transform="matrix(-0.4,0,0,-0.4,-4,0)"
         style="fill:#000000;fill-opacity:1;fill-rule:evenodd;stroke:#000000;stroke-width:1pt;stroke-opacity:1"
         d="M 0,0 5,-5 -12.5,0 5,5 Z"
         id="path1537" />
    </marker>
    <marker
       inkscape:isstock="true"
       style="overflow:visible"
       id="marker1549"
       refX="0"
       refY="0"
       orient="auto"
       inkscape:stockid="Arrow1Mend">
      <path
         transform="matrix(-0.4,0,0,-0.4,-4,0)"
         style="fill:#000000;fill-opacity:1;fill-rule:evenodd;stroke:#000000;stroke-width:1pt;stroke-opacity:1"
         d="M 0,0 5,-5 -12.5,0 5,5 Z"
         id="path1547" />
    </marker>
    <marker
       inkscape:isstock="true"
       style="overflow:visible"
       id="marker1559"
       refX="0"
       refY="0"
       orient="auto"
       inkscape:stockid="Arrow1Mend">
      <path
         transform="matrix(-0.4,0,0,-0.4,-4,0)"
         style="fill:#000000;fill-opacity:1;fill-rule:evenodd;stroke:#000000;stroke-width:1pt;stroke-opacity:1"
         d="M 0,0 5,-5 -12.5,0 5,5 Z"
         id="path1557" />
    </marker>
    <marker
       inkscape:isstock="true"
       style="overflow:visible"
       id="marker1569"
       refX="0"
       refY="0"
       orient="auto"
       inkscape:stockid="Arrow1Mend">
      <path
         transform="matrix(-0.4,0,0,-0.4,-4,0)"
         style="fill:#000000;fill-opacity:1;fill-rule:evenodd;stroke:#000000;stroke-width:1pt;stroke-opacity:1"
         d="M 0,0 5,-5 -12.5,0 5,5 Z"
         id="path1567" />
    </marker>
    <marker
       inkscape:isstock="true"
       style="overflow:visible"
       id="marker1529"
       refX="0"
       refY="0"
       orient="auto"
       inkscape:stockid="Arrow1Mend">
      <path
         transform="matrix(-0.4,0,0,-0.4,-4,0)"
         style="fill:#000000;fill-opacity:1;fill-rule:evenodd;stroke:#000000;stroke-width:1pt;stroke-opacity:1"
         d="M 0,0 5,-5 -12.5,0 5,5 Z"
         id="path1527" />
    </marker>
    <marker
       inkscape:stockid="Arrow1Mstart"
       orient="auto"
       refY="0"
       refX="0"
       id="Arrow1Mstart"
       style="overflow:visible"
       inkscape:isstock="true">
      <path
         id="path1101"
         d="M 0,0 5,-5 -12.5,0 5,5 Z"
         style="fill:#000000;fill-opacity:1;fill-rule:evenodd;stroke:#000000;stroke-width:1pt;stroke-opacity:1"
         transform="matrix(0.4,0,0,0.4,4,0)" />
    </marker>
    <marker
       inkscape:isstock="true"
       style="overflow:visible"
       id="marker1589"
       refX="0"
       refY="0"
       orient="auto"
       inkscape:stockid="Arrow1Mend">
      <path
         transform="matrix(-0.4,0,0,-0.4,-4,0)"
         style="fill:#000000;fill-opacity:1;fill-rule:evenodd;stroke:#000000;stroke-width:1pt;stroke-opacity:1"
         d="M 0,0 5,-5 -12.5,0 5,5 Z"
         id="path1587" />
    </marker>
  </defs>
  <sodipodi:namedview
     inkscape:window-maximized="1"
     inkscape:window-y="0"
     inkscape:window-x="0"
     inkscape:window-height="850"
     inkscape:window-width="1600"
     inkscape:snap-midpoints="true"
     inkscape:snap-smooth-nodes="false"
     showgrid="false"
     inkscape:document-rotation="0"
     inkscape:current-layer="g4454"
     inkscape:document-units="mm"
     inkscape:cy="82.504416"
     inkscape:cx="386.01864"
     inkscape:zoom="0.45254834"
     inkscape:pageshadow="2"
     inkscape:pageopacity="0.0"
     borderopacity="1.0"
     bordercolor="#666666"
     pagecolor="#ffffff"
     id="base"
     inkscape:snap-global="false" />
  <metadata
     id="metadata2501">
    <rdf:RDF>
      <cc:Work
         rdf:about="">
        <dc:format>image/svg+xml</dc:format>
        <dc:type
           rdf:resource="http://purl.org/dc/dcmitype/StillImage" />
        <dc:title></dc:title>
      </cc:Work>
    </rdf:RDF>
  </metadata>
  <g
     id="layer1"
     inkscape:groupmode="layer"
     inkscape:label="Layer 1">
    <g
       id="g4454">
      <path
         d="m 67.668759,23.695242 h 25.840245 c 0.457778,0 0.826313,0.336361 0.826313,0.754171 v 9.322115 c 0,0.417811 -0.368535,0.754171 -0.826313,0.754171 H 67.668759 c -0.457777,0 -0.826311,-0.33636 -0.826311,-0.754171 v -9.322115 c 0,-0.41781 0.368534,-0.754171 0.826311,-0.754171 z"
         style="opacity:0.707;fill:#fabe50;stroke:#000000;stroke-width:0.205094;stop-color:#000000"
         id="rect857-40-0" />
      <g
         transform="translate(-9.7374726,-27.866795)"
         id="g1077">
        <path
           id="rect857-40-9"
           style="opacity:0.707;fill:#fabe50;stroke:#000000;stroke-width:0.1961;stop-color:#000000"
           d="m 78.600592,67.503288 h 23.603888 c 0.41816,0 0.7548,0.33664 0.7548,0.754797 v 9.329857 c 0,0.418158 -0.33664,0.754797 -0.7548,0.754797 H 78.600592 c -0.418158,0 -0.754797,-0.336639 -0.754797,-0.754797 v -9.329857 c 0,-0.418157 0.336639,-0.754797 0.754797,-0.754797 z" />
        <g
           aria-label="Flatten"
           id="text839"
           style="font-size:4.93889px;line-height:1.25;font-family:sans-serif;-inkscape-font-specification:sans-serif;stroke-width:0.264583">
          <path
             d="m 82.209235,71.163774 h 2.069125 v 0.409966 h -1.581988 v 1.06109 h 1.427648 v 0.409967 h -1.427648 v 1.719447 h -0.487137 z"
             style="font-size:4.93889px;stroke-width:0.264583"
             id="path5526" />
          <path
             d="m 85.035592,71.011845 h 0.443729 v 3.752399 h -0.443729 z"
             style="font-size:4.93889px;stroke-width:0.264583"
             id="path5528" />
          <path
             d="m 87.63285,73.406532 q -0.537779,0 -0.745174,0.12299 -0.207395,0.12299 -0.207395,0.419612 0,0.236334 0.15434,0.376205 0.156752,0.137459 0.424436,0.137459 0.36897,0 0.590834,-0.260449 0.224276,-0.262861 0.224276,-0.696943 v -0.09887 z m 0.885045,-0.183279 v 1.540991 h -0.443728 v -0.409966 q -0.151929,0.245979 -0.378616,0.364146 -0.226687,0.115756 -0.55466,0.115756 -0.41479,0 -0.66077,-0.231511 -0.243568,-0.233922 -0.243568,-0.624596 0,-0.455786 0.303857,-0.687297 0.306269,-0.23151 0.911573,-0.23151 h 0.622184 v -0.04341 q 0,-0.306269 -0.202572,-0.472667 -0.20016,-0.16881 -0.564306,-0.16881 -0.231511,0 -0.450963,0.05547 -0.219453,0.05547 -0.422025,0.166398 v -0.409966 q 0.243569,-0.09405 0.472667,-0.139871 0.229099,-0.04823 0.44614,-0.04823 0.586011,0 0.875399,0.303858 0.289388,0.303857 0.289388,0.921219 z"
             style="font-size:4.93889px;stroke-width:0.264583"
             id="path5530" />
          <path
             d="m 89.873196,71.29641 v 0.766879 h 0.913985 v 0.344854 h -0.913985 v 1.466233 q 0,0.330384 0.08923,0.424436 0.09164,0.09405 0.36897,0.09405 h 0.455787 v 0.371381 h -0.455787 q -0.513664,0 -0.709001,-0.190514 -0.195336,-0.192925 -0.195336,-0.699354 v -1.466233 h -0.325562 v -0.344854 h 0.325562 V 71.29641 Z"
             style="font-size:4.93889px;stroke-width:0.264583"
             id="path5532" />
          <path
             d="m 91.812096,71.29641 v 0.766879 h 0.913985 v 0.344854 h -0.913985 v 1.466233 q 0,0.330384 0.08923,0.424436 0.09164,0.09405 0.36897,0.09405 h 0.455787 v 0.371381 h -0.455787 q -0.513664,0 -0.709001,-0.190514 -0.195336,-0.192925 -0.195336,-0.699354 v -1.466233 h -0.325562 v -0.344854 h 0.325562 V 71.29641 Z"
             style="font-size:4.93889px;stroke-width:0.264583"
             id="path5534" />
          <path
             d="m 95.622373,73.302834 v 0.217041 h -2.040186 q 0.02894,0.458198 0.274918,0.699355 0.248392,0.238745 0.689709,0.238745 0.255626,0 0.494371,-0.0627 0.241157,-0.0627 0.47749,-0.188102 v 0.419613 q -0.238745,0.101286 -0.489548,0.15434 -0.250803,0.05306 -0.508841,0.05306 -0.6463,0 -1.024916,-0.376205 -0.376204,-0.376204 -0.376204,-1.017681 0,-0.663181 0.356912,-1.051444 0.359323,-0.390674 0.967038,-0.390674 0.545015,0 0.86093,0.352089 0.318327,0.349677 0.318327,0.952569 z M 95.178644,73.17261 q -0.0048,-0.364147 -0.204983,-0.581188 -0.197748,-0.217041 -0.525722,-0.217041 -0.371381,0 -0.595657,0.209806 -0.221864,0.209807 -0.255626,0.590834 z"
             style="font-size:4.93889px;stroke-width:0.264583"
             id="path5536" />
          <path
             d="m 98.595836,73.134025 v 1.630219 h -0.443729 v -1.61575 q 0,-0.383439 -0.149517,-0.573953 -0.149517,-0.190514 -0.448551,-0.190514 -0.359324,0 -0.566719,0.229099 -0.207395,0.229099 -0.207395,0.624596 v 1.526522 h -0.44614 v -2.700955 h 0.44614 v 0.419612 q 0.159164,-0.243568 0.373793,-0.364146 0.217041,-0.120579 0.499195,-0.120579 0.465432,0 0.704177,0.289388 0.238746,0.286977 0.238746,0.846461 z"
             style="font-size:4.93889px;stroke-width:0.264583"
             id="path5538" />
        </g>
      </g>
      <g
         transform="translate(-13.456634,-53.392829)"
         id="g983">
        <path
           id="rect857"
           style="opacity:0.707;fill:#fabe50;stroke:#000000;stroke-width:0.1961;stop-color:#000000"
           d="m 82.319754,124.92082 h 23.603886 c 0.41816,0 0.7548,0.33664 0.7548,0.7548 v 9.32986 c 0,0.41815 -0.33664,0.75479 -0.7548,0.75479 H 82.319754 c -0.418158,0 -0.754797,-0.33664 -0.754797,-0.75479 v -9.32986 c 0,-0.41816 0.336639,-0.7548 0.754797,-0.7548 z" />
        <g
           aria-label="Dense 1"
           id="text843"
           style="font-size:4.93889px;line-height:1.25;font-family:sans-serif;-inkscape-font-specification:sans-serif;stroke-width:0.205901">
          <path
             d="m 84.927596,128.90567 v 2.79983 h 0.588422 q 0.745175,0 1.090029,-0.33762 0.347265,-0.33762 0.347265,-1.06591 0,-0.72347 -0.347265,-1.05868 -0.344854,-0.33762 -1.090029,-0.33762 z m -0.487137,-0.40032 h 1.000801 q 1.04662,0 1.536168,0.43649 0.489548,0.43409 0.489548,1.36013 0,0.93086 -0.491959,1.36736 -0.49196,0.43649 -1.533757,0.43649 h -1.000801 z"
             style="font-size:4.93889px;stroke-width:0.205901"
             id="path5542" />
          <path
             d="m 90.532078,130.64441 v 0.21704 h -2.040186 q 0.02894,0.4582 0.274919,0.69936 0.248392,0.23874 0.689708,0.23874 0.255626,0 0.494372,-0.0627 0.241156,-0.0627 0.47749,-0.1881 v 0.41961 q -0.238745,0.10129 -0.489548,0.15434 -0.250803,0.0531 -0.508841,0.0531 -0.6463,0 -1.024916,-0.37621 -0.376205,-0.3762 -0.376205,-1.01768 0,-0.66318 0.356912,-1.05144 0.359324,-0.39068 0.967039,-0.39068 0.545014,0 0.860929,0.35209 0.318327,0.34968 0.318327,0.95257 z m -0.443728,-0.13022 q -0.0048,-0.36415 -0.204983,-0.58119 -0.197749,-0.21704 -0.525722,-0.21704 -0.371381,0 -0.595657,0.2098 -0.221864,0.20981 -0.255626,0.59084 z"
             style="font-size:4.93889px;stroke-width:0.205901"
             id="path5544" />
          <path
             d="m 93.505541,130.4756 v 1.63022 h -0.443729 v -1.61575 q 0,-0.38344 -0.149517,-0.57395 -0.149517,-0.19052 -0.448551,-0.19052 -0.359324,0 -0.566719,0.2291 -0.207394,0.2291 -0.207394,0.6246 v 1.52652 h -0.44614 v -2.70096 h 0.44614 v 0.41962 q 0.159163,-0.24357 0.373792,-0.36415 0.217042,-0.12058 0.499195,-0.12058 0.465432,0 0.704178,0.28939 0.238745,0.28698 0.238745,0.84646 z"
             style="font-size:4.93889px;stroke-width:0.205901"
             id="path5546" />
          <path
             d="m 96.117269,129.48445 v 0.41961 q -0.188102,-0.0965 -0.390674,-0.1447 -0.202572,-0.0482 -0.419613,-0.0482 -0.330384,0 -0.496782,0.10129 -0.163987,0.10128 -0.163987,0.30386 0,0.15434 0.118167,0.24356 0.118167,0.0868 0.475079,0.1664 l 0.151928,0.0338 q 0.472667,0.10128 0.670416,0.28697 0.20016,0.18328 0.20016,0.51367 0,0.3762 -0.299034,0.59565 -0.296623,0.21946 -0.817522,0.21946 -0.217041,0 -0.453374,-0.0434 -0.233922,-0.041 -0.494372,-0.1254 v -0.4582 q 0.24598,0.12781 0.484725,0.19292 0.238746,0.0627 0.472668,0.0627 0.313503,0 0.482313,-0.10611 0.16881,-0.10852 0.16881,-0.30385 0,-0.18087 -0.12299,-0.27733 -0.120578,-0.0965 -0.532956,-0.18569 l -0.154341,-0.0362 q -0.412378,-0.0868 -0.595657,-0.26527 -0.183279,-0.18087 -0.183279,-0.49437 0,-0.38103 0.270095,-0.58842 0.270096,-0.2074 0.766879,-0.2074 0.24598,0 0.463021,0.0362 0.217041,0.0362 0.40032,0.10852 z"
             style="font-size:4.93889px;stroke-width:0.205901"
             id="path5548" />
          <path
             d="m 99.281245,130.64441 v 0.21704 h -2.040186 q 0.02894,0.4582 0.274919,0.69936 0.248391,0.23874 0.689708,0.23874 0.255626,0 0.494372,-0.0627 0.241156,-0.0627 0.47749,-0.1881 v 0.41961 q -0.238745,0.10129 -0.489548,0.15434 -0.250803,0.0531 -0.508841,0.0531 -0.6463,0 -1.024916,-0.37621 -0.376205,-0.3762 -0.376205,-1.01768 0,-0.66318 0.356912,-1.05144 0.359324,-0.39068 0.967039,-0.39068 0.545014,0 0.860929,0.35209 0.318327,0.34968 0.318327,0.95257 z m -0.443728,-0.13022 q -0.0048,-0.36415 -0.204983,-0.58119 -0.197749,-0.21704 -0.525722,-0.21704 -0.371381,0 -0.595657,0.2098 -0.221864,0.20981 -0.255626,0.59084 z"
             style="font-size:4.93889px;stroke-width:0.205901"
             id="path5550" />
          <path
             d="m 101.72899,131.69585 h 0.79581 v -2.74677 l -0.86575,0.17363 v -0.44373 l 0.86093,-0.17363 h 0.48714 v 3.1905 h 0.79581 v 0.40997 h -2.07394 z"
             style="font-size:4.93889px;stroke-width:0.205901"
             id="path5552" />
        </g>
      </g>
      <g
         transform="translate(-11.928192,-69.634989)"
         id="g973">
        <path
           id="rect857-4"
           style="opacity:0.707;fill:#fabe50;stroke:#000000;stroke-width:0.1961;stop-color:#000000"
           d="M 80.791311,157.10873 H 104.3952 c 0.41816,0 0.7548,0.33664 0.7548,0.7548 v 9.32986 c 0,0.41816 -0.33664,0.75479 -0.7548,0.75479 H 80.791311 c -0.418157,0 -0.754797,-0.33663 -0.754797,-0.75479 v -9.32986 c 0,-0.41816 0.33664,-0.7548 0.754797,-0.7548 z" />
        <g
           aria-label="Dense2"
           id="text847"
           style="font-size:4.93889px;line-height:1.25;font-family:sans-serif;-inkscape-font-specification:sans-serif;stroke-width:0.264583">
          <path
             d="m 84.204619,161.12613 v 2.79983 h 0.588423 q 0.745174,0 1.090028,-0.33762 0.347266,-0.33762 0.347266,-1.06591 0,-0.72347 -0.347266,-1.05868 -0.344854,-0.33762 -1.090028,-0.33762 z m -0.487136,-0.40032 h 1.0008 q 1.04662,0 1.536168,0.43649 0.489549,0.43408 0.489549,1.36013 0,0.93086 -0.49196,1.36735 -0.49196,0.4365 -1.533757,0.4365 h -1.0008 z"
             style="font-size:4.93889px;stroke-width:0.264583"
             id="path5556" />
          <path
             d="m 89.809102,162.86487 v 0.21704 h -2.040186 q 0.02894,0.4582 0.274918,0.69935 0.248392,0.23875 0.689709,0.23875 0.255626,0 0.494371,-0.0627 0.241157,-0.0627 0.47749,-0.1881 v 0.41961 q -0.238745,0.10129 -0.489548,0.15434 -0.250803,0.053 -0.508841,0.053 -0.6463,0 -1.024916,-0.3762 -0.376204,-0.3762 -0.376204,-1.01768 0,-0.66318 0.356912,-1.05145 0.359323,-0.39067 0.967038,-0.39067 0.545014,0 0.86093,0.35209 0.318327,0.34968 0.318327,0.95257 z m -0.443729,-0.13023 q -0.0048,-0.36414 -0.204983,-0.58118 -0.197748,-0.21704 -0.525722,-0.21704 -0.371381,0 -0.595657,0.2098 -0.221864,0.20981 -0.255626,0.59084 z"
             style="font-size:4.93889px;stroke-width:0.264583"
             id="path5558" />
          <path
             d="m 92.782564,162.69606 v 1.63022 h -0.443728 v -1.61575 q 0,-0.38344 -0.149517,-0.57395 -0.149518,-0.19052 -0.448552,-0.19052 -0.359324,0 -0.566718,0.2291 -0.207395,0.2291 -0.207395,0.6246 v 1.52652 h -0.44614 v -2.70096 h 0.44614 v 0.41962 q 0.159163,-0.24357 0.373793,-0.36415 0.217041,-0.12058 0.499194,-0.12058 0.465433,0 0.704178,0.28939 0.238745,0.28698 0.238745,0.84646 z"
             style="font-size:4.93889px;stroke-width:0.264583"
             id="path5560" />
          <path
             d="m 95.394292,161.7049 v 0.41962 q -0.188102,-0.0965 -0.390674,-0.1447 -0.202571,-0.0482 -0.419612,-0.0482 -0.330385,0 -0.496783,0.10129 -0.163987,0.10128 -0.163987,0.30386 0,0.15434 0.118167,0.24356 0.118167,0.0868 0.475079,0.1664 l 0.151929,0.0338 q 0.472667,0.10129 0.670415,0.28698 0.20016,0.18328 0.20016,0.51366 0,0.37621 -0.299034,0.59566 -0.296623,0.21945 -0.817521,0.21945 -0.217041,0 -0.453375,-0.0434 -0.233922,-0.041 -0.494371,-0.12541 v -0.45819 q 0.24598,0.12781 0.484725,0.19292 0.238745,0.0627 0.472667,0.0627 0.313504,0 0.482313,-0.10611 0.16881,-0.10852 0.16881,-0.30385 0,-0.18087 -0.12299,-0.27733 -0.120578,-0.0965 -0.532956,-0.18569 l -0.15434,-0.0362 q -0.412379,-0.0868 -0.595658,-0.26527 -0.183279,-0.18087 -0.183279,-0.49437 0,-0.38103 0.270096,-0.58842 0.270095,-0.2074 0.766878,-0.2074 0.24598,0 0.463021,0.0362 0.217041,0.0362 0.40032,0.10852 z"
             style="font-size:4.93889px;stroke-width:0.264583"
             id="path5562" />
          <path
             d="m 98.558269,162.86487 v 0.21704 h -2.040186 q 0.02894,0.4582 0.274918,0.69935 0.248392,0.23875 0.689709,0.23875 0.255626,0 0.494371,-0.0627 0.241157,-0.0627 0.47749,-0.1881 v 0.41961 q -0.238745,0.10129 -0.489548,0.15434 -0.250803,0.053 -0.508841,0.053 -0.6463,0 -1.024916,-0.3762 -0.376204,-0.3762 -0.376204,-1.01768 0,-0.66318 0.356912,-1.05145 0.359323,-0.39067 0.967038,-0.39067 0.545014,0 0.86093,0.35209 0.318327,0.34968 0.318327,0.95257 z m -0.443729,-0.13023 q -0.0048,-0.36414 -0.204983,-0.58118 -0.197748,-0.21704 -0.525722,-0.21704 -0.371381,0 -0.595657,0.2098 -0.221864,0.20981 -0.255626,0.59084 z"
             style="font-size:4.93889px;stroke-width:0.264583"
             id="path5564" />
          <path
             d="m 99.768875,163.91631 h 1.700155 v 0.40997 h -2.286166 v -0.40997 q 0.27733,-0.28697 0.754821,-0.76929 0.479905,-0.48472 0.602895,-0.62459 0.23392,-0.26286 0.32556,-0.44373 0.094,-0.18328 0.094,-0.35933 0,-0.28697 -0.20257,-0.46784 -0.20016,-0.18087 -0.52331,-0.18087 -0.2291,0 -0.484728,0.0796 -0.253214,0.0796 -0.542602,0.24116 v -0.49196 q 0.294211,-0.11817 0.549837,-0.17845 0.255623,-0.0603 0.467843,-0.0603 0.55948,0 0.89228,0.27974 0.3328,0.27974 0.3328,0.74758 0,0.22187 -0.0844,0.42203 -0.082,0.19775 -0.30144,0.46784 -0.0603,0.0699 -0.38344,0.40515 -0.32315,0.33279 -0.911575,0.93327 z"
             style="font-size:4.93889px;stroke-width:0.264583"
             id="path5566" />
        </g>
      </g>
      <g
         transform="translate(-9.7374716,-39.789153)"
         id="g1072">
        <path
           id="rect857-40"
           style="opacity:0.707;fill:#fabe50;stroke:#000000;stroke-width:0.1961;stop-color:#000000"
           d="m 78.600592,95.371399 h 23.603888 c 0.41816,0 0.7548,0.336639 0.7548,0.754797 v 9.329854 c 0,0.41816 -0.33664,0.7548 -0.7548,0.7548 H 78.600592 c -0.418158,0 -0.754797,-0.33664 -0.754797,-0.7548 v -9.329854 c 0,-0.418158 0.336639,-0.754797 0.754797,-0.754797 z" />
        <g
           aria-label="LSTM"
           id="text867"
           style="font-size:4.93889px;line-height:1.25;font-family:sans-serif;-inkscape-font-specification:sans-serif;stroke-width:0.198741">
          <path
             d="m 84.30368,98.988481 h 0.487136 v 3.190499 h 1.75321 v 0.40997 H 84.30368 Z"
             style="font-size:4.93889px;stroke-width:0.198741"
             id="path5584" />
          <path
             d="m 89.211219,99.106648 v 0.475079 q -0.27733,-0.132637 -0.52331,-0.197749 -0.24598,-0.06511 -0.475079,-0.06511 -0.397908,0 -0.61495,0.15434 -0.214629,0.15434 -0.214629,0.438905 0,0.238747 0.142282,0.361737 0.144695,0.12057 0.545015,0.19533 l 0.294211,0.0603 q 0.545014,0.1037 0.803052,0.36656 0.260449,0.26045 0.260449,0.69936 0,0.52331 -0.352089,0.7934 -0.349677,0.2701 -1.027327,0.2701 -0.255627,0 -0.545015,-0.0579 -0.286976,-0.0579 -0.595657,-0.17122 v -0.50161 q 0.296623,0.1664 0.581188,0.2508 0.284565,0.0844 0.559484,0.0844 0.417201,0 0.643888,-0.16399 0.226687,-0.16398 0.226687,-0.46784 0,-0.26527 -0.163986,-0.41479 -0.161575,-0.14952 -0.532957,-0.22428 l -0.296622,-0.0579 q -0.545015,-0.10852 -0.788583,-0.34004 -0.243568,-0.23151 -0.243568,-0.643882 0,-0.47749 0.335208,-0.752409 0.337619,-0.274918 0.928453,-0.274918 0.253215,0 0.516076,0.04582 0.26286,0.04582 0.537779,0.13746 z"
             style="font-size:4.93889px;stroke-width:0.198741"
             id="path5586" />
          <path
             d="m 89.688709,98.988481 h 3.04581 v 0.409966 h -1.278131 v 3.190503 H 90.96684 v -3.190503 h -1.278131 z"
             style="font-size:4.93889px;stroke-width:0.198741"
             id="path5588" />
          <path
             d="m 93.207187,98.988481 h 0.725882 l 0.918807,2.450149 0.92363,-2.450149 h 0.725882 v 3.600469 h -0.475079 v -3.161564 l -0.928453,2.469444 h -0.489549 l -0.928453,-2.469444 v 3.161564 h -0.472667 z"
             style="font-size:4.93889px;stroke-width:0.198741"
             id="path5590" />
        </g>
      </g>
      <path
         id="path1061"
         d="m 80.665065,50.475944 v 5.106302"
         style="fill:none;fill-rule:evenodd;stroke:#000000;stroke-width:0.265;stroke-linecap:butt;stroke-linejoin:miter;stroke-miterlimit:4;stroke-dasharray:none;stroke-opacity:1;marker-end:url(#marker1539)" />
      <path
         id="path1063"
         d="m 80.665065,66.421697 v 5.106296"
         style="fill:none;fill-rule:evenodd;stroke:#000000;stroke-width:0.265;stroke-linecap:butt;stroke-linejoin:miter;stroke-miterlimit:4;stroke-dasharray:none;stroke-opacity:1;marker-end:url(#marker1549)" />
      <path
         id="path1065"
         d="m 80.665065,82.367444 v 5.106301"
         style="fill:none;fill-rule:evenodd;stroke:#000000;stroke-width:0.265;stroke-linecap:butt;stroke-linejoin:miter;stroke-miterlimit:4;stroke-dasharray:none;stroke-opacity:1;marker-end:url(#marker1559)" />
      <path
         id="path1079"
         d="m 80.665065,34.530196 v 5.106297"
         style="fill:none;fill-rule:evenodd;stroke:#000000;stroke-width:0.265;stroke-linecap:butt;stroke-linejoin:miter;stroke-miterlimit:4;stroke-dasharray:none;stroke-opacity:1;marker-end:url(#marker1529)" />
      <g
         transform="translate(-27.233955,-78.269364)"
         id="g978">
        <path
           id="rect857-4-7"
           style="opacity:0.707;fill:#fabe50;stroke:#000000;stroke-width:0.1961;stop-color:#000000"
           d="m 80.545401,184.68887 h 23.603889 c 0.41816,0 0.7548,0.33664 0.7548,0.7548 v 9.32986 c 0,0.41815 -0.33664,0.75479 -0.7548,0.75479 H 80.545401 c -0.418158,0 -0.754797,-0.33664 -0.754797,-0.75479 v -9.32986 c 0,-0.41816 0.336639,-0.7548 0.754797,-0.7548 z" />
        <g
           aria-label="Dense 3"
           id="text851"
           style="font-size:4.93889px;line-height:1.25;font-family:sans-serif;-inkscape-font-specification:sans-serif;stroke-width:0.217734">
          <path
             d="m 83.123099,188.70627 v 2.79983 h 0.588423 q 0.745174,0 1.090028,-0.33762 0.347266,-0.33762 0.347266,-1.06591 0,-0.72347 -0.347266,-1.05868 -0.344854,-0.33762 -1.090028,-0.33762 z m -0.487136,-0.40032 h 1.0008 q 1.04662,0 1.536168,0.43649 0.489549,0.43408 0.489549,1.36013 0,0.93086 -0.49196,1.36735 -0.49196,0.4365 -1.533757,0.4365 h -1.0008 z"
             style="font-size:4.93889px;stroke-width:0.217734"
             id="path5570" />
          <path
             d="m 88.727582,190.44501 v 0.21704 h -2.040186 q 0.02894,0.4582 0.274918,0.69935 0.248392,0.23875 0.689709,0.23875 0.255626,0 0.494371,-0.0627 0.241157,-0.0627 0.47749,-0.1881 v 0.41961 q -0.238745,0.10128 -0.489548,0.15434 -0.250803,0.053 -0.508841,0.053 -0.6463,0 -1.024916,-0.3762 -0.376204,-0.37621 -0.376204,-1.01768 0,-0.66318 0.356912,-1.05145 0.359323,-0.39067 0.967038,-0.39067 0.545014,0 0.86093,0.35209 0.318327,0.34968 0.318327,0.95257 z m -0.443729,-0.13023 q -0.0048,-0.36414 -0.204983,-0.58118 -0.197749,-0.21705 -0.525722,-0.21705 -0.371381,0 -0.595657,0.20981 -0.221864,0.20981 -0.255626,0.59083 z"
             style="font-size:4.93889px;stroke-width:0.217734"
             id="path5572" />
          <path
             d="m 91.701044,190.2762 v 1.63022 h -0.443728 v -1.61575 q 0,-0.38344 -0.149518,-0.57396 -0.149517,-0.19051 -0.448551,-0.19051 -0.359324,0 -0.566718,0.2291 -0.207395,0.2291 -0.207395,0.6246 v 1.52652 h -0.44614 v -2.70096 h 0.44614 v 0.41962 q 0.159163,-0.24357 0.373793,-0.36415 0.217041,-0.12058 0.499194,-0.12058 0.465433,0 0.704178,0.28939 0.238745,0.28697 0.238745,0.84646 z"
             style="font-size:4.93889px;stroke-width:0.217734"
             id="path5574" />
          <path
             d="m 94.312772,189.28504 v 0.41962 q -0.188102,-0.0965 -0.390674,-0.1447 -0.202571,-0.0482 -0.419612,-0.0482 -0.330385,0 -0.496783,0.10129 -0.163987,0.10128 -0.163987,0.30385 0,0.15435 0.118167,0.24357 0.118167,0.0868 0.475079,0.1664 l 0.151928,0.0338 q 0.472668,0.10129 0.670416,0.28698 0.20016,0.18328 0.20016,0.51366 0,0.37621 -0.299034,0.59566 -0.296623,0.21945 -0.817521,0.21945 -0.217041,0 -0.453375,-0.0434 -0.233922,-0.041 -0.494371,-0.12541 v -0.45819 q 0.24598,0.12781 0.484725,0.19292 0.238745,0.0627 0.472667,0.0627 0.313504,0 0.482313,-0.10611 0.16881,-0.10852 0.16881,-0.30385 0,-0.18087 -0.12299,-0.27733 -0.120578,-0.0965 -0.532956,-0.1857 l -0.154341,-0.0362 q -0.412378,-0.0868 -0.595657,-0.26527 -0.183279,-0.18087 -0.183279,-0.49437 0,-0.38103 0.270096,-0.58843 0.270095,-0.20739 0.766878,-0.20739 0.24598,0 0.463021,0.0362 0.217041,0.0362 0.40032,0.10852 z"
             style="font-size:4.93889px;stroke-width:0.217734"
             id="path5576" />
          <path
             d="m 97.476749,190.44501 v 0.21704 h -2.040186 q 0.02894,0.4582 0.274918,0.69935 0.248392,0.23875 0.689709,0.23875 0.255626,0 0.494371,-0.0627 0.241157,-0.0627 0.47749,-0.1881 v 0.41961 q -0.238745,0.10128 -0.489548,0.15434 -0.250803,0.053 -0.508841,0.053 -0.6463,0 -1.024916,-0.3762 -0.376204,-0.37621 -0.376204,-1.01768 0,-0.66318 0.356912,-1.05145 0.359323,-0.39067 0.967038,-0.39067 0.545014,0 0.86093,0.35209 0.318327,0.34968 0.318327,0.95257 z m -0.443729,-0.13023 q -0.0048,-0.36414 -0.204983,-0.58118 -0.197749,-0.21705 -0.525722,-0.21705 -0.371381,0 -0.595657,0.20981 -0.221864,0.20981 -0.255626,0.59083 z"
             style="font-size:4.93889px;stroke-width:0.217734"
             id="path5578" />
          <path
             d="m 101.31596,189.96511 q 0.34968,0.0747 0.54502,0.31109 0.19775,0.23633 0.19775,0.5836 0,0.53295 -0.36656,0.82475 -0.36656,0.2918 -1.0418,0.2918 -0.22669,0 -0.46784,-0.0458 -0.238749,-0.0434 -0.494375,-0.13263 v -0.47026 q 0.202572,0.11817 0.443725,0.17846 0.24116,0.0603 0.50402,0.0603 0.4582,0 0.69694,-0.18087 0.24116,-0.18087 0.24116,-0.52572 0,-0.31833 -0.22427,-0.49679 -0.22187,-0.18086 -0.61978,-0.18086 h -0.41961 v -0.40032 h 0.4389 q 0.35933,0 0.54984,-0.14229 0.19052,-0.14469 0.19052,-0.41479 0,-0.27733 -0.19775,-0.42443 -0.19534,-0.14952 -0.5619,-0.14952 -0.20016,0 -0.42926,0.0434 -0.2291,0.0434 -0.504014,0.13505 v -0.43408 q 0.277334,-0.0772 0.518484,-0.11576 0.24357,-0.0386 0.4582,-0.0386 0.55466,0 0.87781,0.25321 0.32315,0.2508 0.32315,0.68006 0,0.29904 -0.17122,0.50643 -0.17122,0.20498 -0.48714,0.28457 z"
             style="font-size:4.93889px;stroke-width:0.217734"
             id="path5580" />
        </g>
      </g>
      <g
         transform="translate(-11.885649,1.979636)"
         id="g1067">
        <path
           id="rect3226"
           style="opacity:0.707;fill:#fabe50;stroke:#000000;stroke-width:0.1961;stop-color:#000000"
           d="m 96.300444,104.43987 h 23.603886 c 0.41816,0 0.7548,0.33664 0.7548,0.7548 v 9.32986 c 0,0.41815 -0.33664,0.75479 -0.7548,0.75479 H 96.300444 c -0.418158,0 -0.754797,-0.33664 -0.754797,-0.75479 v -9.32986 c 0,-0.41816 0.336639,-0.7548 0.754797,-0.7548 z" />
        <g
           aria-label="Dense 4"
           id="text3230"
           style="font-size:4.93889px;line-height:1.25;font-family:sans-serif;-inkscape-font-specification:sans-serif;stroke-width:0.217734"
           transform="translate(15.755043,-80.249003)">
          <path
             d="m 83.123099,188.70627 v 2.79983 h 0.588423 q 0.745174,0 1.090028,-0.33762 0.347266,-0.33762 0.347266,-1.06591 0,-0.72347 -0.347266,-1.05868 -0.344854,-0.33762 -1.090028,-0.33762 z m -0.487136,-0.40032 h 1.0008 q 1.04662,0 1.536168,0.43649 0.489549,0.43408 0.489549,1.36013 0,0.93086 -0.49196,1.36735 -0.49196,0.4365 -1.533757,0.4365 h -1.0008 z"
             style="font-size:4.93889px;stroke-width:0.217734"
             id="path5664" />
          <path
             d="m 88.727582,190.44501 v 0.21704 h -2.040186 q 0.02894,0.4582 0.274918,0.69935 0.248392,0.23875 0.689709,0.23875 0.255626,0 0.494371,-0.0627 0.241157,-0.0627 0.47749,-0.1881 v 0.41961 q -0.238745,0.10128 -0.489548,0.15434 -0.250803,0.053 -0.508841,0.053 -0.6463,0 -1.024916,-0.3762 -0.376204,-0.37621 -0.376204,-1.01768 0,-0.66318 0.356912,-1.05145 0.359323,-0.39067 0.967038,-0.39067 0.545014,0 0.86093,0.35209 0.318327,0.34968 0.318327,0.95257 z m -0.443729,-0.13023 q -0.0048,-0.36414 -0.204983,-0.58118 -0.197749,-0.21705 -0.525722,-0.21705 -0.371381,0 -0.595657,0.20981 -0.221864,0.20981 -0.255626,0.59083 z"
             style="font-size:4.93889px;stroke-width:0.217734"
             id="path5666" />
          <path
             d="m 91.701044,190.2762 v 1.63022 h -0.443728 v -1.61575 q 0,-0.38344 -0.149518,-0.57396 -0.149517,-0.19051 -0.448551,-0.19051 -0.359324,0 -0.566718,0.2291 -0.207395,0.2291 -0.207395,0.6246 v 1.52652 h -0.44614 v -2.70096 h 0.44614 v 0.41962 q 0.159163,-0.24357 0.373793,-0.36415 0.217041,-0.12058 0.499194,-0.12058 0.465433,0 0.704178,0.28939 0.238745,0.28697 0.238745,0.84646 z"
             style="font-size:4.93889px;stroke-width:0.217734"
             id="path5668" />
          <path
             d="m 94.312772,189.28504 v 0.41962 q -0.188102,-0.0965 -0.390674,-0.1447 -0.202571,-0.0482 -0.419612,-0.0482 -0.330385,0 -0.496783,0.10129 -0.163987,0.10128 -0.163987,0.30385 0,0.15435 0.118167,0.24357 0.118167,0.0868 0.475079,0.1664 l 0.151928,0.0338 q 0.472668,0.10129 0.670416,0.28698 0.20016,0.18328 0.20016,0.51366 0,0.37621 -0.299034,0.59566 -0.296623,0.21945 -0.817521,0.21945 -0.217041,0 -0.453375,-0.0434 -0.233922,-0.041 -0.494371,-0.12541 v -0.45819 q 0.24598,0.12781 0.484725,0.19292 0.238745,0.0627 0.472667,0.0627 0.313504,0 0.482313,-0.10611 0.16881,-0.10852 0.16881,-0.30385 0,-0.18087 -0.12299,-0.27733 -0.120578,-0.0965 -0.532956,-0.1857 l -0.154341,-0.0362 q -0.412378,-0.0868 -0.595657,-0.26527 -0.183279,-0.18087 -0.183279,-0.49437 0,-0.38103 0.270096,-0.58843 0.270095,-0.20739 0.766878,-0.20739 0.24598,0 0.463021,0.0362 0.217041,0.0362 0.40032,0.10852 z"
             style="font-size:4.93889px;stroke-width:0.217734"
             id="path5670" />
          <path
             d="m 97.476749,190.44501 v 0.21704 h -2.040186 q 0.02894,0.4582 0.274918,0.69935 0.248392,0.23875 0.689709,0.23875 0.255626,0 0.494371,-0.0627 0.241157,-0.0627 0.47749,-0.1881 v 0.41961 q -0.238745,0.10128 -0.489548,0.15434 -0.250803,0.053 -0.508841,0.053 -0.6463,0 -1.024916,-0.3762 -0.376204,-0.37621 -0.376204,-1.01768 0,-0.66318 0.356912,-1.05145 0.359323,-0.39067 0.967038,-0.39067 0.545014,0 0.86093,0.35209 0.318327,0.34968 0.318327,0.95257 z m -0.443729,-0.13023 q -0.0048,-0.36414 -0.204983,-0.58118 -0.197749,-0.21705 -0.525722,-0.21705 -0.371381,0 -0.595657,0.20981 -0.221864,0.20981 -0.255626,0.59083 z"
             style="font-size:4.93889px;stroke-width:0.217734"
             id="path5672" />
          <path
             d="m 101.1785,188.73038 -1.229896,1.92202 h 1.229896 z m -0.12781,-0.42443 h 0.61254 v 2.34645 h 0.51366 v 0.40515 h -0.51366 v 0.84887 h -0.48473 v -0.84887 h -1.625393 v -0.47026 z"
             style="font-size:4.93889px;stroke-width:0.217734"
             id="path5674" />
        </g>
      </g>
      <g
         aria-label="Conv layers"
         id="text134"
         style="font-size:4.58611px;line-height:1.25;font-family:sans-serif;-inkscape-font-specification:sans-serif;stroke-width:0.264583">
        <path
           d="m 70.02829,27.28991 v 0.476973 q -0.228409,-0.212735 -0.48817,-0.317982 -0.25752,-0.105248 -0.548631,-0.105248 -0.573264,0 -0.87781,0.351572 -0.304546,0.349333 -0.304546,1.012169 0,0.660597 0.304546,1.012169 0.304546,0.349332 0.87781,0.349332 0.291111,0 0.548631,-0.105247 0.259761,-0.105248 0.48817,-0.317983 v 0.472495 q -0.237367,0.161231 -0.503845,0.241846 -0.264239,0.08062 -0.559828,0.08062 -0.759126,0 -1.195792,-0.463538 -0.436666,-0.465776 -0.436666,-1.269689 0,-0.806152 0.436666,-1.26969 0.436666,-0.465777 1.195792,-0.465777 0.300068,0 0.564307,0.08062 0.266478,0.07838 0.499366,0.237367 z"
           style="font-size:4.58611px;stroke-width:0.264583"
           id="path244" />
        <path
           d="m 71.685381,28.156523 q -0.331418,0 -0.523999,0.25976 -0.192581,0.257521 -0.192581,0.707623 0,0.450101 0.190342,0.709862 0.19258,0.25752 0.526238,0.25752 0.329179,0 0.521759,-0.25976 0.192581,-0.25976 0.192581,-0.707622 0,-0.445623 -0.192581,-0.705383 -0.19258,-0.262 -0.521759,-0.262 z m 0,-0.349332 q 0.537435,0 0.84422,0.349332 0.306786,0.349333 0.306786,0.967383 0,0.61581 -0.306786,0.967382 -0.306785,0.349333 -0.84422,0.349333 -0.539674,0 -0.84646,-0.349333 -0.304546,-0.351572 -0.304546,-0.967382 0,-0.61805 0.304546,-0.967383 0.306786,-0.349332 0.84646,-0.349332 z"
           style="font-size:4.58611px;stroke-width:0.264583"
           id="path246" />
        <path
           d="m 75.601937,28.861906 v 1.513775 h -0.412034 v -1.500339 q 0,-0.35605 -0.138837,-0.532956 -0.138837,-0.176906 -0.416512,-0.176906 -0.333657,0 -0.526238,0.212735 -0.192581,0.212735 -0.192581,0.579982 v 1.417484 h -0.414273 v -2.508029 h 0.414273 v 0.38964 q 0.147795,-0.22617 0.347093,-0.338136 0.201538,-0.111965 0.463538,-0.111965 0.432187,0 0.653879,0.268717 0.221692,0.266478 0.221692,0.785998 z"
           style="font-size:4.58611px;stroke-width:0.264583"
           id="path248" />
        <path
           d="m 76.132654,27.867652 h 0.436665 l 0.783759,2.104953 0.783759,-2.104953 h 0.436666 l -0.940511,2.508029 h -0.559828 z"
           style="font-size:4.58611px;stroke-width:0.264583"
           id="path250" />
        <path
           d="m 80.60232,26.891312 h 0.412033 v 3.484369 H 80.60232 Z"
           style="font-size:4.58611px;stroke-width:0.264583"
           id="path252" />
        <path
           d="m 83.014058,29.114949 q -0.499366,0 -0.691947,0.114204 -0.192581,0.114205 -0.192581,0.389641 0,0.219452 0.143316,0.349332 0.145555,0.127641 0.394119,0.127641 0.342615,0 0.548631,-0.241846 0.208256,-0.244085 0.208256,-0.647161 v -0.09181 z m 0.821828,-0.170188 v 1.43092 h -0.412034 v -0.380683 q -0.141076,0.22841 -0.351572,0.338136 -0.210495,0.107487 -0.515041,0.107487 -0.385162,0 -0.613572,-0.214974 -0.22617,-0.217213 -0.22617,-0.579982 0,-0.42323 0.282153,-0.638203 0.284393,-0.214974 0.84646,-0.214974 h 0.577742 v -0.04031 q 0,-0.284393 -0.188102,-0.438905 -0.185863,-0.156752 -0.523999,-0.156752 -0.214974,0 -0.418751,0.0515 -0.203778,0.0515 -0.39188,0.154513 v -0.380683 q 0.226171,-0.08733 0.438905,-0.12988 0.212735,-0.04479 0.414273,-0.04479 0.544153,0 0.81287,0.282153 0.268718,0.282153 0.268718,0.855417 z"
           style="font-size:4.58611px;stroke-width:0.264583"
           id="path254" />
        <path
           d="m 85.730343,30.608569 q -0.174666,0.447863 -0.340375,0.584461 -0.165709,0.136598 -0.443384,0.136598 h -0.329179 v -0.344854 h 0.241846 q 0.170188,0 0.264239,-0.08062 0.09405,-0.08061 0.208256,-0.380683 l 0.0739,-0.188102 -1.014408,-2.467721 h 0.436666 l 0.783759,1.961637 0.783759,-1.961637 h 0.436665 z"
           style="font-size:4.58611px;stroke-width:0.264583"
           id="path256" />
        <path
           d="m 89.546131,29.018658 v 0.201538 h -1.894458 q 0.02687,0.425469 0.255282,0.649401 0.230649,0.221691 0.640443,0.221691 0.237367,0 0.459059,-0.05822 0.223931,-0.05822 0.443383,-0.174666 v 0.38964 q -0.221691,0.09405 -0.45458,0.143316 -0.232888,0.04927 -0.472495,0.04927 -0.600135,0 -0.951707,-0.349333 -0.349333,-0.349332 -0.349333,-0.944989 0,-0.615811 0.331419,-0.97634 0.333657,-0.362768 0.897964,-0.362768 0.506084,0 0.799434,0.326939 0.295589,0.3247 0.295589,0.884528 z m -0.412033,-0.120923 q -0.0045,-0.338136 -0.190342,-0.539674 -0.183623,-0.201538 -0.48817,-0.201538 -0.344854,0 -0.55311,0.19482 -0.206016,0.19482 -0.237367,0.548632 z"
           style="font-size:4.58611px;stroke-width:0.264583"
           id="path258" />
        <path
           d="m 91.675715,28.252814 q -0.06942,-0.04031 -0.152273,-0.05822 -0.08062,-0.02015 -0.179145,-0.02015 -0.349333,0 -0.537435,0.228409 -0.185863,0.226171 -0.185863,0.65164 v 1.321194 h -0.414273 v -2.508029 h 0.414273 v 0.38964 q 0.12988,-0.22841 0.338136,-0.338136 0.208256,-0.111965 0.506085,-0.111965 0.04255,0 0.09405,0.0067 0.0515,0.0045 0.114205,0.01568 z"
           style="font-size:4.58611px;stroke-width:0.264583"
           id="path260" />
        <path
           d="m 93.71125,27.941549 v 0.38964 q -0.174666,-0.08957 -0.362768,-0.134358 -0.188102,-0.04479 -0.38964,-0.04479 -0.306786,0 -0.461298,0.09405 -0.152274,0.09405 -0.152274,0.282153 0,0.143316 0.109727,0.22617 0.109726,0.08062 0.441144,0.154513 l 0.141077,0.03135 q 0.438905,0.09405 0.622528,0.266478 0.185863,0.170188 0.185863,0.476974 0,0.349332 -0.277674,0.55311 -0.275436,0.203777 -0.759127,0.203777 -0.201538,0 -0.420991,-0.04031 -0.217213,-0.03807 -0.459059,-0.116444 V 29.8584 q 0.22841,0.118683 0.450102,0.179145 0.221692,0.05822 0.438905,0.05822 0.291111,0 0.447862,-0.09853 0.156752,-0.100769 0.156752,-0.282153 0,-0.167948 -0.114205,-0.257521 -0.111965,-0.08957 -0.494887,-0.172427 l -0.143316,-0.03359 q -0.382923,-0.08062 -0.55311,-0.246325 -0.170188,-0.167948 -0.170188,-0.459059 0,-0.353811 0.250803,-0.546392 0.250803,-0.19258 0.712101,-0.19258 0.22841,0 0.429948,0.03359 0.201538,0.03359 0.371725,0.100769 z"
           style="font-size:4.58611px;stroke-width:0.264583"
           id="path262" />
      </g>
      <g
         style="font-size:4.23333px;line-height:1.25;font-family:sans-serif;-inkscape-font-specification:sans-serif;stroke-width:0.0361151"
         id="text3423-0"
         aria-label="Acceleration">
        <path
           id="path1484"
           style="font-size:4.23333px;stroke-width:0.0361151"
           d="m 53.699323,127.94265 -0.566373,1.53582 h 1.134813 z m -0.235644,-0.41135 h 0.473355 l 1.176155,3.08612 h -0.434082 l -0.281119,-0.79169 h -1.391129 l -0.281119,0.79169 h -0.440283 z" />
        <path
           id="path1486"
           style="font-size:4.23333px;stroke-width:0.0361151"
           d="m 57.136836,128.3912 v 0.35553 q -0.16123,-0.0889 -0.324527,-0.13229 -0.161231,-0.0455 -0.326595,-0.0455 -0.370003,0 -0.574642,0.23565 -0.204638,0.23358 -0.204638,0.65732 0,0.42375 0.204638,0.65939 0.204639,0.23358 0.574642,0.23358 0.165364,0 0.326595,-0.0434 0.163297,-0.0455 0.324527,-0.13436 v 0.3514 q -0.159163,0.0744 -0.330728,0.11162 -0.169499,0.0372 -0.361735,0.0372 -0.522965,0 -0.830957,-0.32866 -0.307991,-0.32866 -0.307991,-0.88677 0,-0.56637 0.310059,-0.8909 0.312125,-0.32453 0.853693,-0.32453 0.1757,0 0.343132,0.0372 0.167431,0.0351 0.324527,0.10749 z" />
        <path
           id="path1488"
           style="font-size:4.23333px;stroke-width:0.0361151"
           d="m 59.468475,128.3912 v 0.35553 q -0.161231,-0.0889 -0.324528,-0.13229 -0.16123,-0.0455 -0.326595,-0.0455 -0.370003,0 -0.574641,0.23565 -0.204639,0.23358 -0.204639,0.65732 0,0.42375 0.204639,0.65939 0.204638,0.23358 0.574641,0.23358 0.165365,0 0.326595,-0.0434 0.163297,-0.0455 0.324528,-0.13436 v 0.3514 q -0.159164,0.0744 -0.330729,0.11162 -0.169499,0.0372 -0.361735,0.0372 -0.522965,0 -0.830956,-0.32866 -0.307991,-0.32866 -0.307991,-0.88677 0,-0.56637 0.310058,-0.8909 0.312125,-0.32453 0.853694,-0.32453 0.1757,0 0.343131,0.0372 0.167432,0.0351 0.324528,0.10749 z" />
        <path
           id="path1490"
           style="font-size:4.23333px;stroke-width:0.0361151"
           d="m 62.114306,129.36478 v 0.18604 h -1.748729 q 0.02481,0.39274 0.235644,0.59944 0.212907,0.20464 0.591178,0.20464 0.219108,0 0.423747,-0.0537 0.206705,-0.0538 0.409277,-0.16123 v 0.35966 q -0.204639,0.0868 -0.419613,0.1323 -0.214973,0.0455 -0.436148,0.0455 -0.553971,0 -0.878499,-0.32246 -0.322461,-0.32246 -0.322461,-0.8723 0,-0.56844 0.305925,-0.90123 0.307991,-0.33487 0.828889,-0.33487 0.467154,0 0.737939,0.30179 0.272851,0.29973 0.272851,0.81649 z m -0.380338,-0.11162 q -0.0041,-0.31213 -0.1757,-0.49816 -0.169498,-0.18604 -0.450618,-0.18604 -0.318327,0 -0.510563,0.17984 -0.190169,0.17983 -0.219108,0.50643 z" />
        <path
           id="path1492"
           style="font-size:4.23333px;stroke-width:0.0361151"
           d="m 62.738557,127.40108 h 0.380338 v 3.21634 h -0.380338 z" />
        <path
           id="path1494"
           style="font-size:4.23333px;stroke-width:0.0361151"
           d="m 65.892883,129.36478 v 0.18604 h -1.748729 q 0.02481,0.39274 0.235645,0.59944 0.212906,0.20464 0.591178,0.20464 0.219107,0 0.423746,-0.0537 0.206706,-0.0538 0.409277,-0.16123 v 0.35966 q -0.204639,0.0868 -0.419612,0.1323 -0.214974,0.0455 -0.436149,0.0455 -0.553971,0 -0.878499,-0.32246 -0.32246,-0.32246 -0.32246,-0.8723 0,-0.56844 0.305924,-0.90123 0.307991,-0.33487 0.828889,-0.33487 0.467155,0 0.737939,0.30179 0.272851,0.29973 0.272851,0.81649 z m -0.380338,-0.11162 q -0.0041,-0.31213 -0.1757,-0.49816 -0.169498,-0.18604 -0.450618,-0.18604 -0.318326,0 -0.510562,0.17984 -0.19017,0.17983 -0.219108,0.50643 z" />
        <path
           id="path1496"
           style="font-size:4.23333px;stroke-width:0.0361151"
           d="m 67.858653,128.65785 q -0.06408,-0.0372 -0.140559,-0.0538 -0.07441,-0.0186 -0.165365,-0.0186 -0.32246,0 -0.496093,0.21084 -0.171566,0.20877 -0.171566,0.60151 v 1.21957 h -0.382405 v -2.31511 h 0.382405 v 0.35967 q 0.11989,-0.21084 0.312126,-0.31212 0.192236,-0.10336 0.467154,-0.10336 0.03927,0 0.08682,0.006 0.04754,0.004 0.105419,0.0145 z" />
        <path
           id="path1498"
           style="font-size:4.23333px;stroke-width:0.0361151"
           d="m 69.31386,129.45366 q -0.460953,0 -0.63872,0.10542 -0.177767,0.10542 -0.177767,0.35967 0,0.20257 0.132292,0.32246 0.134358,0.11782 0.363802,0.11782 0.316259,0 0.506428,-0.22324 0.192236,-0.22531 0.192236,-0.59738 v -0.0847 z m 0.75861,-0.15709 v 1.32085 h -0.380339 v -0.3514 q -0.130224,0.21084 -0.324527,0.31212 -0.194304,0.0992 -0.475423,0.0992 -0.355534,0 -0.566373,-0.19844 -0.208773,-0.2005 -0.208773,-0.53536 0,-0.39068 0.260449,-0.58911 0.262516,-0.19844 0.781347,-0.19844 h 0.5333 v -0.0372 q 0,-0.26251 -0.173632,-0.40514 -0.171566,-0.1447 -0.483691,-0.1447 -0.198438,0 -0.38654,0.0476 -0.188102,0.0475 -0.361734,0.14262 v -0.3514 q 0.208772,-0.0806 0.405143,-0.11989 0.19637,-0.0413 0.382405,-0.0413 0.502294,0 0.750341,0.26045 0.248047,0.26045 0.248047,0.78962 z" />
        <path
           id="path1500"
           style="font-size:4.23333px;stroke-width:0.0361151"
           d="m 71.234155,127.64499 v 0.65732 h 0.783414 v 0.29559 h -0.783414 v 1.25677 q 0,0.28319 0.07648,0.3638 0.07855,0.0806 0.31626,0.0806 h 0.390673 v 0.31833 h -0.390673 q -0.440283,0 -0.607715,-0.1633 -0.167431,-0.16537 -0.167431,-0.59945 v -1.25677 h -0.279053 v -0.29559 h 0.279053 v -0.65732 z" />
        <path
           id="path1502"
           style="font-size:4.23333px;stroke-width:0.0361151"
           d="m 72.519864,128.30231 h 0.380338 v 2.31511 h -0.380338 z m 0,-0.90123 h 0.380338 v 0.48162 h -0.380338 z" />
        <path
           id="path1504"
           style="font-size:4.23333px;stroke-width:0.0361151"
           d="m 74.591053,128.56896 q -0.305924,0 -0.483691,0.23978 -0.177766,0.23771 -0.177766,0.65319 0,0.41548 0.175699,0.65526 0.177767,0.23771 0.485758,0.23771 0.303858,0 0.481624,-0.23978 0.177767,-0.23978 0.177767,-0.65319 0,-0.41134 -0.177767,-0.65112 -0.177766,-0.24185 -0.481624,-0.24185 z m 0,-0.32246 q 0.496094,0 0.77928,0.32246 0.283187,0.32246 0.283187,0.89297 0,0.56844 -0.283187,0.89297 -0.283186,0.32246 -0.77928,0.32246 -0.49816,0 -0.781347,-0.32246 -0.281119,-0.32453 -0.281119,-0.89297 0,-0.57051 0.281119,-0.89297 0.283187,-0.32246 0.781347,-0.32246 z" />
        <path
           id="path1506"
           style="font-size:4.23333px;stroke-width:0.0361151"
           d="m 78.206334,129.22009 v 1.39733 h -0.380339 v -1.38493 q 0,-0.32866 -0.128157,-0.49196 -0.128157,-0.1633 -0.384472,-0.1633 -0.307992,0 -0.485758,0.19637 -0.177767,0.19637 -0.177767,0.53537 v 1.30845 h -0.382405 v -2.31511 h 0.382405 v 0.35967 q 0.136425,-0.20877 0.320393,-0.31212 0.186035,-0.10336 0.427881,-0.10336 0.398942,0 0.60358,0.24805 0.204639,0.24598 0.204639,0.72554 z" />
      </g>
      <g
         style="font-size:4.23333px;line-height:1.25;font-family:sans-serif;-inkscape-font-specification:sans-serif;stroke-width:0.136499"
         id="text3451-4"
         aria-label="Steering">
        <path
           id="path1467"
           style="font-size:4.23333px;stroke-width:0.136499"
           d="m 88.538221,127.6316 v 0.40721 q -0.237712,-0.11369 -0.448551,-0.1695 -0.21084,-0.0558 -0.40721,-0.0558 -0.341064,0 -0.527099,0.13229 -0.183968,0.13229 -0.183968,0.3762 0,0.20464 0.121956,0.31006 0.124023,0.10335 0.467155,0.16743 l 0.25218,0.0517 q 0.467155,0.0889 0.68833,0.31419 0.223242,0.22324 0.223242,0.59945 0,0.44855 -0.30179,0.68006 -0.299723,0.23151 -0.880566,0.23151 -0.219108,0 -0.467154,-0.0496 -0.24598,-0.0496 -0.510563,-0.14676 v -0.42995 q 0.254248,0.14263 0.49816,0.21498 0.243913,0.0723 0.479557,0.0723 0.357601,0 0.551904,-0.14056 0.194303,-0.14056 0.194303,-0.40101 0,-0.22737 -0.14056,-0.35553 -0.138492,-0.12816 -0.456819,-0.19224 l -0.254248,-0.0496 q -0.467154,-0.093 -0.675927,-0.29145 -0.208773,-0.19844 -0.208773,-0.5519 0,-0.40928 0.287321,-0.64493 0.289388,-0.23564 0.795817,-0.23564 0.21704,0 0.442349,0.0393 0.22531,0.0393 0.460954,0.11783 z" />
        <path
           id="path1469"
           style="font-size:4.23333px;stroke-width:0.136499"
           d="m 89.735046,127.644 v 0.65732 h 0.783414 v 0.29559 h -0.783414 v 1.25677 q 0,0.28319 0.07648,0.3638 0.07855,0.0806 0.31626,0.0806 h 0.390673 v 0.31832 h -0.390673 q -0.440283,0 -0.607715,-0.16329 -0.167431,-0.16537 -0.167431,-0.59945 v -1.25677 h -0.279053 v -0.29559 h 0.279053 V 127.644 Z" />
        <path
           id="path1471"
           style="font-size:4.23333px;stroke-width:0.136499"
           d="m 93.000994,129.36379 v 0.18603 h -1.748729 q 0.0248,0.39274 0.235644,0.59945 0.212907,0.20464 0.591178,0.20464 0.219108,0 0.423746,-0.0537 0.206706,-0.0538 0.409277,-0.16124 v 0.35967 q -0.204638,0.0868 -0.419612,0.13229 -0.214974,0.0455 -0.436149,0.0455 -0.553971,0 -0.878498,-0.32246 -0.322461,-0.32246 -0.322461,-0.8723 0,-0.56844 0.305924,-0.90124 0.307992,-0.33486 0.82889,-0.33486 0.467154,0 0.737938,0.30179 0.272852,0.29973 0.272852,0.81649 z m -0.380338,-0.11162 q -0.0041,-0.31213 -0.1757,-0.49816 -0.169499,-0.18604 -0.450618,-0.18604 -0.318327,0 -0.510563,0.17984 -0.190169,0.17983 -0.219108,0.50642 z" />
        <path
           id="path1473"
           style="font-size:4.23333px;stroke-width:0.136499"
           d="m 95.605484,129.36379 v 0.18603 h -1.748729 q 0.0248,0.39274 0.235644,0.59945 0.212907,0.20464 0.591178,0.20464 0.219108,0 0.423747,-0.0537 0.206705,-0.0538 0.409277,-0.16124 v 0.35967 q -0.204639,0.0868 -0.419613,0.13229 -0.214973,0.0455 -0.436148,0.0455 -0.553971,0 -0.878499,-0.32246 -0.322461,-0.32246 -0.322461,-0.8723 0,-0.56844 0.305925,-0.90124 0.307991,-0.33486 0.828889,-0.33486 0.467154,0 0.737939,0.30179 0.272851,0.29973 0.272851,0.81649 z m -0.380338,-0.11162 q -0.0041,-0.31213 -0.1757,-0.49816 -0.169498,-0.18604 -0.450618,-0.18604 -0.318327,0 -0.510563,0.17984 -0.190169,0.17983 -0.219108,0.50642 z" />
        <path
           id="path1475"
           style="font-size:4.23333px;stroke-width:0.136499"
           d="m 97.571254,128.65686 q -0.06408,-0.0372 -0.14056,-0.0538 -0.07441,-0.0186 -0.165364,-0.0186 -0.322461,0 -0.496093,0.21084 -0.171566,0.20877 -0.171566,0.60151 v 1.21956 h -0.382405 v -2.3151 h 0.382405 v 0.35967 q 0.119889,-0.21084 0.312125,-0.31213 0.192237,-0.10335 0.467155,-0.10335 0.03927,0 0.08682,0.006 0.04754,0.004 0.10542,0.0145 z" />
        <path
           id="path1477"
           style="font-size:4.23333px;stroke-width:0.136499"
           d="m 97.97433,128.30132 h 0.380338 v 2.3151 H 97.97433 Z m 0,-0.90123 h 0.380338 v 0.48162 H 97.97433 Z" />
        <path
           id="path1479"
           style="font-size:4.23333px;stroke-width:0.136499"
           d="m 101.07285,129.2191 v 1.39732 h -0.38034 v -1.38492 q 0,-0.32866 -0.12816,-0.49196 -0.12816,-0.1633 -0.38447,-0.1633 -0.307993,0 -0.48576,0.19637 -0.177767,0.19637 -0.177767,0.53537 v 1.30844 h -0.382405 v -2.3151 h 0.382405 v 0.35967 q 0.136426,-0.20877 0.320394,-0.31213 0.186033,-0.10335 0.427883,-0.10335 0.39894,0 0.60358,0.24805 0.20464,0.24598 0.20464,0.72554 z" />
        <path
           id="path1481"
           style="font-size:4.23333px;stroke-width:0.136499"
           d="m 103.35901,129.432 q 0,-0.41341 -0.17157,-0.64079 -0.1695,-0.22737 -0.47749,-0.22737 -0.30592,0 -0.47749,0.22737 -0.16949,0.22738 -0.16949,0.64079 0,0.41135 0.16949,0.63872 0.17157,0.22738 0.47749,0.22738 0.30799,0 0.47749,-0.22738 0.17157,-0.22737 0.17157,-0.63872 z m 0.38034,0.8971 q 0,0.59118 -0.26252,0.8785 -0.26251,0.28939 -0.80408,0.28939 -0.20051,0 -0.37827,-0.031 -0.17777,-0.0289 -0.3452,-0.0909 v -0.37 q 0.16743,0.0909 0.33073,0.13436 0.16329,0.0434 0.33279,0.0434 0.37414,0 0.56017,-0.19637 0.18604,-0.19431 0.18604,-0.58911 v -0.18811 q -0.11782,0.20464 -0.30179,0.30593 -0.18397,0.10128 -0.44028,0.10128 -0.42582,0 -0.68627,-0.32452 -0.26045,-0.32453 -0.26045,-0.8599 0,-0.53743 0.26045,-0.86196 0.26045,-0.32453 0.68627,-0.32453 0.25631,0 0.44028,0.10129 0.18397,0.10128 0.30179,0.30592 v -0.3514 h 0.38034 z" />
      </g>
      <path
         id="path1215"
         d="m 72.950889,98.546249 v 7.431591"
         style="fill:none;stroke:#000000;stroke-width:0.264583px;stroke-linecap:butt;stroke-linejoin:miter;stroke-opacity:1;marker-end:url(#marker1251)" />
      <path
         id="path1217"
         d="m 88.832371,98.569583 v 7.165457"
         style="fill:none;stroke:#000000;stroke-width:0.264583px;stroke-linecap:butt;stroke-linejoin:miter;stroke-opacity:1;marker-end:url(#marker1241)" />
      <path
         id="path1219"
         d="m 66.065158,117.51472 v 9.29886"
         style="fill:none;stroke:#000000;stroke-width:0.264583px;stroke-linecap:butt;stroke-linejoin:miter;stroke-opacity:1;marker-end:url(#marker1261)" />
      <path
         id="path1221"
         d="m 95.603469,117.22677 v 8.87557"
         style="fill:none;stroke:#000000;stroke-width:0.264583px;stroke-linecap:butt;stroke-linejoin:miter;stroke-opacity:1;marker-end:url(#marker1231)" />
    </g>
  </g>
</svg>
