<?xml version="1.0" encoding="UTF-8" standalone="no"?>
<svg
   xmlns:dc="http://purl.org/dc/elements/1.1/"
   xmlns:cc="http://creativecommons.org/ns#"
   xmlns:rdf="http://www.w3.org/1999/02/22-rdf-syntax-ns#"
   xmlns:svg="http://www.w3.org/2000/svg"
   xmlns="http://www.w3.org/2000/svg"
   xmlns:sodipodi="http://sodipodi.sourceforge.net/DTD/sodipodi-0.dtd"
   xmlns:inkscape="http://www.inkscape.org/namespaces/inkscape"
   inkscape:version="1.0 (1.0+r73+1)"
   sodipodi:docname="steeringbasicmodel.svg"
   id="svg8"
   version="1.1"
   viewBox="0 0 210 297"
   height="297mm"
   width="210mm">
  <defs
     id="defs2">
    <marker
       inkscape:isstock="true"
       style="overflow:visible;"
       id="marker1092"
       refX="0.0"
       refY="0.0"
       orient="auto"
       inkscape:stockid="Arrow1Mend">
      <path
         transform="scale(0.4) rotate(180) translate(10,0)"
         style="fill-rule:evenodd;stroke:#000000;stroke-width:1pt;stroke-opacity:1;fill:#000000;fill-opacity:1"
         d="M 0.0,0.0 L 5.0,-5.0 L -12.5,0.0 L 5.0,5.0 L 0.0,0.0 z "
         id="path1090" />
    </marker>
    <marker
       inkscape:isstock="true"
       style="overflow:visible;"
       id="marker1082"
       refX="0.0"
       refY="0.0"
       orient="auto"
       inkscape:stockid="Arrow1Mend">
      <path
         transform="scale(0.4) rotate(180) translate(10,0)"
         style="fill-rule:evenodd;stroke:#000000;stroke-width:1pt;stroke-opacity:1;fill:#000000;fill-opacity:1"
         d="M 0.0,0.0 L 5.0,-5.0 L -12.5,0.0 L 5.0,5.0 L 0.0,0.0 z "
         id="path1080" />
    </marker>
    <marker
       inkscape:isstock="true"
       style="overflow:visible"
       id="Arrow1Mstart"
       refX="0.0"
       refY="0.0"
       orient="auto"
       inkscape:stockid="Arrow1Mstart">
      <path
         transform="scale(0.4) translate(10,0)"
         style="fill-rule:evenodd;stroke:#000000;stroke-width:1pt;stroke-opacity:1;fill:#000000;fill-opacity:1"
         d="M 0.0,0.0 L 5.0,-5.0 L -12.5,0.0 L 5.0,5.0 L 0.0,0.0 z "
         id="path1101" />
    </marker>
    <marker
       inkscape:stockid="Arrow1Mend"
       orient="auto"
       refY="0.0"
       refX="0.0"
       id="marker1579"
       style="overflow:visible;"
       inkscape:isstock="true">
      <path
         id="path1577"
         d="M 0.0,0.0 L 5.0,-5.0 L -12.5,0.0 L 5.0,5.0 L 0.0,0.0 z "
         style="fill-rule:evenodd;stroke:#000000;stroke-width:1pt;stroke-opacity:1;fill:#000000;fill-opacity:1"
         transform="scale(0.4) rotate(180) translate(10,0)" />
    </marker>
    <marker
       inkscape:stockid="Arrow1Mend"
       orient="auto"
       refY="0.0"
       refX="0.0"
       id="marker1569"
       style="overflow:visible;"
       inkscape:isstock="true">
      <path
         id="path1567"
         d="M 0.0,0.0 L 5.0,-5.0 L -12.5,0.0 L 5.0,5.0 L 0.0,0.0 z "
         style="fill-rule:evenodd;stroke:#000000;stroke-width:1pt;stroke-opacity:1;fill:#000000;fill-opacity:1"
         transform="scale(0.4) rotate(180) translate(10,0)" />
    </marker>
    <marker
       inkscape:stockid="Arrow1Mend"
       orient="auto"
       refY="0.0"
       refX="0.0"
       id="marker1559"
       style="overflow:visible;"
       inkscape:isstock="true">
      <path
         id="path1557"
         d="M 0.0,0.0 L 5.0,-5.0 L -12.5,0.0 L 5.0,5.0 L 0.0,0.0 z "
         style="fill-rule:evenodd;stroke:#000000;stroke-width:1pt;stroke-opacity:1;fill:#000000;fill-opacity:1"
         transform="scale(0.4) rotate(180) translate(10,0)" />
    </marker>
    <marker
       inkscape:stockid="Arrow1Mend"
       orient="auto"
       refY="0.0"
       refX="0.0"
       id="marker1549"
       style="overflow:visible;"
       inkscape:isstock="true">
      <path
         id="path1547"
         d="M 0.0,0.0 L 5.0,-5.0 L -12.5,0.0 L 5.0,5.0 L 0.0,0.0 z "
         style="fill-rule:evenodd;stroke:#000000;stroke-width:1pt;stroke-opacity:1;fill:#000000;fill-opacity:1"
         transform="scale(0.4) rotate(180) translate(10,0)" />
    </marker>
    <marker
       inkscape:stockid="Arrow1Mend"
       orient="auto"
       refY="0.0"
       refX="0.0"
       id="marker1539"
       style="overflow:visible;"
       inkscape:isstock="true">
      <path
         id="path1537"
         d="M 0.0,0.0 L 5.0,-5.0 L -12.5,0.0 L 5.0,5.0 L 0.0,0.0 z "
         style="fill-rule:evenodd;stroke:#000000;stroke-width:1pt;stroke-opacity:1;fill:#000000;fill-opacity:1"
         transform="scale(0.4) rotate(180) translate(10,0)" />
    </marker>
    <marker
       inkscape:stockid="Arrow1Mend"
       orient="auto"
       refY="0.0"
       refX="0.0"
       id="marker1529"
       style="overflow:visible;"
       inkscape:isstock="true">
      <path
         id="path1527"
         d="M 0.0,0.0 L 5.0,-5.0 L -12.5,0.0 L 5.0,5.0 L 0.0,0.0 z "
         style="fill-rule:evenodd;stroke:#000000;stroke-width:1pt;stroke-opacity:1;fill:#000000;fill-opacity:1"
         transform="scale(0.4) rotate(180) translate(10,0)" />
    </marker>
    <marker
       inkscape:stockid="Arrow1Lend"
       orient="auto"
       refY="0.0"
       refX="0.0"
       id="marker1427"
       style="overflow:visible;"
       inkscape:isstock="true">
      <path
         id="path1425"
         d="M 0.0,0.0 L 5.0,-5.0 L -12.5,0.0 L 5.0,5.0 L 0.0,0.0 z "
         style="fill-rule:evenodd;stroke:#000000;stroke-width:1pt;stroke-opacity:1;fill:#000000;fill-opacity:1"
         transform="scale(0.8) rotate(180) translate(12.5,0)" />
    </marker>
    <marker
       inkscape:stockid="Arrow1Lend"
       orient="auto"
       refY="0.0"
       refX="0.0"
       id="marker1417"
       style="overflow:visible;"
       inkscape:isstock="true">
      <path
         id="path1415"
         d="M 0.0,0.0 L 5.0,-5.0 L -12.5,0.0 L 5.0,5.0 L 0.0,0.0 z "
         style="fill-rule:evenodd;stroke:#000000;stroke-width:1pt;stroke-opacity:1;fill:#000000;fill-opacity:1"
         transform="scale(0.8) rotate(180) translate(12.5,0)" />
    </marker>
    <marker
       inkscape:stockid="Arrow1Lend"
       orient="auto"
       refY="0.0"
       refX="0.0"
       id="marker1407"
       style="overflow:visible;"
       inkscape:isstock="true">
      <path
         id="path1405"
         d="M 0.0,0.0 L 5.0,-5.0 L -12.5,0.0 L 5.0,5.0 L 0.0,0.0 z "
         style="fill-rule:evenodd;stroke:#000000;stroke-width:1pt;stroke-opacity:1;fill:#000000;fill-opacity:1"
         transform="scale(0.8) rotate(180) translate(12.5,0)" />
    </marker>
    <marker
       inkscape:stockid="Arrow1Lend"
       orient="auto"
       refY="0.0"
       refX="0.0"
       id="marker1397"
       style="overflow:visible;"
       inkscape:isstock="true">
      <path
         id="path1395"
         d="M 0.0,0.0 L 5.0,-5.0 L -12.5,0.0 L 5.0,5.0 L 0.0,0.0 z "
         style="fill-rule:evenodd;stroke:#000000;stroke-width:1pt;stroke-opacity:1;fill:#000000;fill-opacity:1"
         transform="scale(0.8) rotate(180) translate(12.5,0)" />
    </marker>
    <marker
       inkscape:stockid="Arrow1Lend"
       orient="auto"
       refY="0.0"
       refX="0.0"
       id="marker1387"
       style="overflow:visible;"
       inkscape:isstock="true">
      <path
         id="path1385"
         d="M 0.0,0.0 L 5.0,-5.0 L -12.5,0.0 L 5.0,5.0 L 0.0,0.0 z "
         style="fill-rule:evenodd;stroke:#000000;stroke-width:1pt;stroke-opacity:1;fill:#000000;fill-opacity:1"
         transform="scale(0.8) rotate(180) translate(12.5,0)" />
    </marker>
    <marker
       inkscape:stockid="Arrow1Lend"
       orient="auto"
       refY="0.0"
       refX="0.0"
       id="marker1377"
       style="overflow:visible;"
       inkscape:isstock="true">
      <path
         id="path1375"
         d="M 0.0,0.0 L 5.0,-5.0 L -12.5,0.0 L 5.0,5.0 L 0.0,0.0 z "
         style="fill-rule:evenodd;stroke:#000000;stroke-width:1pt;stroke-opacity:1;fill:#000000;fill-opacity:1"
         transform="scale(0.8) rotate(180) translate(12.5,0)" />
    </marker>
    <marker
       inkscape:stockid="Arrow1Lend"
       orient="auto"
       refY="0.0"
       refX="0.0"
       id="marker1367"
       style="overflow:visible;"
       inkscape:isstock="true">
      <path
         id="path1365"
         d="M 0.0,0.0 L 5.0,-5.0 L -12.5,0.0 L 5.0,5.0 L 0.0,0.0 z "
         style="fill-rule:evenodd;stroke:#000000;stroke-width:1pt;stroke-opacity:1;fill:#000000;fill-opacity:1"
         transform="scale(0.8) rotate(180) translate(12.5,0)" />
    </marker>
  </defs>
  <sodipodi:namedview
     inkscape:snap-smooth-nodes="true"
     inkscape:object-nodes="false"
     inkscape:snap-intersection-paths="true"
     inkscape:object-paths="false"
     inkscape:window-maximized="1"
     inkscape:window-y="0"
     inkscape:window-x="0"
     inkscape:window-height="850"
     inkscape:window-width="1600"
     showgrid="false"
     inkscape:document-rotation="0"
     inkscape:current-layer="layer1"
     inkscape:document-units="mm"
     inkscape:cy="383.66829"
     inkscape:cx="196.68755"
     inkscape:zoom="0.70710678"
     inkscape:pageshadow="2"
     inkscape:pageopacity="0.0"
     borderopacity="1.0"
     bordercolor="#666666"
     pagecolor="#ffffff"
     id="base" />
  <metadata
     id="metadata5">
    <rdf:RDF>
      <cc:Work
         rdf:about="">
        <dc:format>image/svg+xml</dc:format>
        <dc:type
           rdf:resource="http://purl.org/dc/dcmitype/StillImage" />
        <dc:title></dc:title>
      </cc:Work>
    </rdf:RDF>
  </metadata>
  <g
     id="layer1"
     inkscape:groupmode="layer"
     inkscape:label="Layer 1">
    <path
       d="m 85.436225,33.683439 h 19.449695 c 0.34456,0 0.62196,0.277392 0.62196,0.621955 v 7.687838 c 0,0.344564 -0.2774,0.621956 -0.62196,0.621956 H 85.436225 c -0.344563,0 -0.621955,-0.277392 -0.621955,-0.621956 v -7.687838 c 0,-0.344563 0.277392,-0.621955 0.621955,-0.621955 z"
       style="opacity:0.707;fill:#fabe50;stroke:#000000;stroke-width:0.161587;stop-color:#000000"
       id="rect857-40-0" />
    <g
       transform="matrix(0.82400385,0,0,0.82400385,20.669035,-8.8001724)"
       id="g1077">
      <path
         id="rect857-40-9"
         style="opacity:0.707;fill:#fabe50;stroke:#000000;stroke-width:0.1961;stop-color:#000000"
         d="m 78.600592,67.503288 h 23.603888 c 0.41816,0 0.7548,0.33664 0.7548,0.754797 v 9.329857 c 0,0.418158 -0.33664,0.754797 -0.7548,0.754797 H 78.600592 c -0.418158,0 -0.754797,-0.336639 -0.754797,-0.754797 v -9.329857 c 0,-0.418157 0.336639,-0.754797 0.754797,-0.754797 z" />
      <g
         aria-label="Flatten"
         id="text839"
         style="font-size:4.93889px;line-height:1.25;font-family:sans-serif;-inkscape-font-specification:sans-serif;stroke-width:0.264583">
        <path
           d="m 82.209235,71.163774 h 2.069125 v 0.409966 h -1.581988 v 1.06109 h 1.427648 v 0.409967 h -1.427648 v 1.719447 h -0.487137 z"
           style="font-size:4.93889px;stroke-width:0.264583"
           id="path2924" />
        <path
           d="m 85.035592,71.011845 h 0.443729 v 3.752399 h -0.443729 z"
           style="font-size:4.93889px;stroke-width:0.264583"
           id="path2926" />
        <path
           d="m 87.63285,73.406532 q -0.537779,0 -0.745174,0.12299 -0.207395,0.12299 -0.207395,0.419612 0,0.236334 0.15434,0.376205 0.156752,0.137459 0.424436,0.137459 0.36897,0 0.590834,-0.260449 0.224276,-0.262861 0.224276,-0.696943 v -0.09887 z m 0.885045,-0.183279 v 1.540991 h -0.443728 v -0.409966 q -0.151929,0.245979 -0.378616,0.364146 -0.226687,0.115756 -0.55466,0.115756 -0.41479,0 -0.66077,-0.231511 -0.243568,-0.233922 -0.243568,-0.624596 0,-0.455786 0.303857,-0.687297 0.306269,-0.23151 0.911573,-0.23151 h 0.622184 v -0.04341 q 0,-0.306269 -0.202572,-0.472667 -0.20016,-0.16881 -0.564306,-0.16881 -0.231511,0 -0.450963,0.05547 -0.219453,0.05547 -0.422025,0.166398 v -0.409966 q 0.243569,-0.09405 0.472667,-0.139871 0.229099,-0.04823 0.44614,-0.04823 0.586011,0 0.875399,0.303858 0.289388,0.303857 0.289388,0.921219 z"
           style="font-size:4.93889px;stroke-width:0.264583"
           id="path2928" />
        <path
           d="m 89.873196,71.29641 v 0.766879 h 0.913985 v 0.344854 h -0.913985 v 1.466233 q 0,0.330384 0.08923,0.424436 0.09164,0.09405 0.36897,0.09405 h 0.455787 v 0.371381 h -0.455787 q -0.513664,0 -0.709001,-0.190514 -0.195336,-0.192925 -0.195336,-0.699354 v -1.466233 h -0.325562 v -0.344854 h 0.325562 V 71.29641 Z"
           style="font-size:4.93889px;stroke-width:0.264583"
           id="path2930" />
        <path
           d="m 91.812096,71.29641 v 0.766879 h 0.913985 v 0.344854 h -0.913985 v 1.466233 q 0,0.330384 0.08923,0.424436 0.09164,0.09405 0.36897,0.09405 h 0.455787 v 0.371381 h -0.455787 q -0.513664,0 -0.709001,-0.190514 -0.195336,-0.192925 -0.195336,-0.699354 v -1.466233 h -0.325562 v -0.344854 h 0.325562 V 71.29641 Z"
           style="font-size:4.93889px;stroke-width:0.264583"
           id="path2932" />
        <path
           d="m 95.622373,73.302834 v 0.217041 h -2.040186 q 0.02894,0.458198 0.274918,0.699355 0.248392,0.238745 0.689709,0.238745 0.255626,0 0.494371,-0.0627 0.241157,-0.0627 0.47749,-0.188102 v 0.419613 q -0.238745,0.101286 -0.489548,0.15434 -0.250803,0.05306 -0.508841,0.05306 -0.6463,0 -1.024916,-0.376205 -0.376204,-0.376204 -0.376204,-1.017681 0,-0.663181 0.356912,-1.051444 0.359323,-0.390674 0.967038,-0.390674 0.545015,0 0.86093,0.352089 0.318327,0.349677 0.318327,0.952569 z M 95.178644,73.17261 q -0.0048,-0.364147 -0.204983,-0.581188 -0.197748,-0.217041 -0.525722,-0.217041 -0.371381,0 -0.595657,0.209806 -0.221864,0.209807 -0.255626,0.590834 z"
           style="font-size:4.93889px;stroke-width:0.264583"
           id="path2934" />
        <path
           d="m 98.595836,73.134025 v 1.630219 h -0.443729 v -1.61575 q 0,-0.383439 -0.149517,-0.573953 -0.149517,-0.190514 -0.448551,-0.190514 -0.359324,0 -0.566719,0.229099 -0.207395,0.229099 -0.207395,0.624596 v 1.526522 h -0.44614 v -2.700955 h 0.44614 v 0.419612 q 0.159164,-0.243568 0.373793,-0.364146 0.217041,-0.120579 0.499195,-0.120579 0.465432,0 0.704177,0.289388 0.238746,0.286977 0.238746,0.846461 z"
           style="font-size:4.93889px;stroke-width:0.264583"
           id="path2936" />
      </g>
    </g>
    <g
       transform="matrix(0.82400385,0,0,0.82400385,17.604432,-29.833723)"
       id="g983">
      <path
         id="rect857"
         style="opacity:0.707;fill:#fabe50;stroke:#000000;stroke-width:0.1961;stop-color:#000000"
         d="m 82.319754,124.92082 h 23.603886 c 0.41816,0 0.7548,0.33664 0.7548,0.7548 v 9.32986 c 0,0.41815 -0.33664,0.75479 -0.7548,0.75479 H 82.319754 c -0.418158,0 -0.754797,-0.33664 -0.754797,-0.75479 v -9.32986 c 0,-0.41816 0.336639,-0.7548 0.754797,-0.7548 z" />
      <g
         aria-label="Dense 1"
         id="text843"
         style="font-size:4.93889px;line-height:1.25;font-family:sans-serif;-inkscape-font-specification:sans-serif;stroke-width:0.205901">
        <path
           d="m 84.927596,128.90567 v 2.79983 h 0.588422 q 0.745175,0 1.090029,-0.33762 0.347265,-0.33762 0.347265,-1.06591 0,-0.72347 -0.347265,-1.05868 -0.344854,-0.33762 -1.090029,-0.33762 z m -0.487137,-0.40032 h 1.000801 q 1.04662,0 1.536168,0.43649 0.489548,0.43409 0.489548,1.36013 0,0.93086 -0.491959,1.36736 -0.49196,0.43649 -1.533757,0.43649 h -1.000801 z"
           style="font-size:4.93889px;stroke-width:0.205901"
           id="path2940" />
        <path
           d="m 90.532078,130.64441 v 0.21704 h -2.040186 q 0.02894,0.4582 0.274919,0.69936 0.248392,0.23874 0.689708,0.23874 0.255626,0 0.494372,-0.0627 0.241156,-0.0627 0.47749,-0.1881 v 0.41961 q -0.238745,0.10129 -0.489548,0.15434 -0.250803,0.0531 -0.508841,0.0531 -0.6463,0 -1.024916,-0.37621 -0.376205,-0.3762 -0.376205,-1.01768 0,-0.66318 0.356912,-1.05144 0.359324,-0.39068 0.967039,-0.39068 0.545014,0 0.860929,0.35209 0.318327,0.34968 0.318327,0.95257 z m -0.443728,-0.13022 q -0.0048,-0.36415 -0.204983,-0.58119 -0.197749,-0.21704 -0.525722,-0.21704 -0.371381,0 -0.595657,0.2098 -0.221864,0.20981 -0.255626,0.59084 z"
           style="font-size:4.93889px;stroke-width:0.205901"
           id="path2942" />
        <path
           d="m 93.505541,130.4756 v 1.63022 h -0.443729 v -1.61575 q 0,-0.38344 -0.149517,-0.57395 -0.149517,-0.19052 -0.448551,-0.19052 -0.359324,0 -0.566719,0.2291 -0.207394,0.2291 -0.207394,0.6246 v 1.52652 h -0.44614 v -2.70096 h 0.44614 v 0.41962 q 0.159163,-0.24357 0.373792,-0.36415 0.217042,-0.12058 0.499195,-0.12058 0.465432,0 0.704178,0.28939 0.238745,0.28698 0.238745,0.84646 z"
           style="font-size:4.93889px;stroke-width:0.205901"
           id="path2944" />
        <path
           d="m 96.117269,129.48445 v 0.41961 q -0.188102,-0.0965 -0.390674,-0.1447 -0.202572,-0.0482 -0.419613,-0.0482 -0.330384,0 -0.496782,0.10129 -0.163987,0.10128 -0.163987,0.30386 0,0.15434 0.118167,0.24356 0.118167,0.0868 0.475079,0.1664 l 0.151928,0.0338 q 0.472667,0.10128 0.670416,0.28697 0.20016,0.18328 0.20016,0.51367 0,0.3762 -0.299034,0.59565 -0.296623,0.21946 -0.817522,0.21946 -0.217041,0 -0.453374,-0.0434 -0.233922,-0.041 -0.494372,-0.1254 v -0.4582 q 0.24598,0.12781 0.484725,0.19292 0.238746,0.0627 0.472668,0.0627 0.313503,0 0.482313,-0.10611 0.16881,-0.10852 0.16881,-0.30385 0,-0.18087 -0.12299,-0.27733 -0.120578,-0.0965 -0.532956,-0.18569 l -0.154341,-0.0362 q -0.412378,-0.0868 -0.595657,-0.26527 -0.183279,-0.18087 -0.183279,-0.49437 0,-0.38103 0.270095,-0.58842 0.270096,-0.2074 0.766879,-0.2074 0.24598,0 0.463021,0.0362 0.217041,0.0362 0.40032,0.10852 z"
           style="font-size:4.93889px;stroke-width:0.205901"
           id="path2946" />
        <path
           d="m 99.281245,130.64441 v 0.21704 h -2.040186 q 0.02894,0.4582 0.274919,0.69936 0.248391,0.23874 0.689708,0.23874 0.255626,0 0.494372,-0.0627 0.241156,-0.0627 0.47749,-0.1881 v 0.41961 q -0.238745,0.10129 -0.489548,0.15434 -0.250803,0.0531 -0.508841,0.0531 -0.6463,0 -1.024916,-0.37621 -0.376205,-0.3762 -0.376205,-1.01768 0,-0.66318 0.356912,-1.05144 0.359324,-0.39068 0.967039,-0.39068 0.545014,0 0.860929,0.35209 0.318327,0.34968 0.318327,0.95257 z m -0.443728,-0.13022 q -0.0048,-0.36415 -0.204983,-0.58119 -0.197749,-0.21704 -0.525722,-0.21704 -0.371381,0 -0.595657,0.2098 -0.221864,0.20981 -0.255626,0.59084 z"
           style="font-size:4.93889px;stroke-width:0.205901"
           id="path2948" />
        <path
           d="m 101.72899,131.69585 h 0.79581 v -2.74677 l -0.86575,0.17363 v -0.44373 l 0.86093,-0.17363 h 0.48714 v 3.1905 h 0.79581 v 0.40997 h -2.07394 z"
           style="font-size:4.93889px;stroke-width:0.205901"
           id="path2950" />
      </g>
    </g>
    <g
       transform="matrix(0.82400385,0,0,0.82400385,18.863874,-43.217326)"
       id="g973">
      <path
         id="rect857-4"
         style="opacity:0.707;fill:#fabe50;stroke:#000000;stroke-width:0.1961;stop-color:#000000"
         d="M 80.791311,157.10873 H 104.3952 c 0.41816,0 0.7548,0.33664 0.7548,0.7548 v 9.32986 c 0,0.41816 -0.33664,0.75479 -0.7548,0.75479 H 80.791311 c -0.418157,0 -0.754797,-0.33663 -0.754797,-0.75479 v -9.32986 c 0,-0.41816 0.33664,-0.7548 0.754797,-0.7548 z" />
      <g
         aria-label="Dense2"
         id="text847"
         style="font-size:4.93889px;line-height:1.25;font-family:sans-serif;-inkscape-font-specification:sans-serif;stroke-width:0.264583">
        <path
           d="m 84.204619,161.12613 v 2.79983 h 0.588423 q 0.745174,0 1.090028,-0.33762 0.347266,-0.33762 0.347266,-1.06591 0,-0.72347 -0.347266,-1.05868 -0.344854,-0.33762 -1.090028,-0.33762 z m -0.487136,-0.40032 h 1.0008 q 1.04662,0 1.536168,0.43649 0.489549,0.43408 0.489549,1.36013 0,0.93086 -0.49196,1.36735 -0.49196,0.4365 -1.533757,0.4365 h -1.0008 z"
           style="font-size:4.93889px;stroke-width:0.264583"
           id="path2954" />
        <path
           d="m 89.809102,162.86487 v 0.21704 h -2.040186 q 0.02894,0.4582 0.274918,0.69935 0.248392,0.23875 0.689709,0.23875 0.255626,0 0.494371,-0.0627 0.241157,-0.0627 0.47749,-0.1881 v 0.41961 q -0.238745,0.10129 -0.489548,0.15434 -0.250803,0.053 -0.508841,0.053 -0.6463,0 -1.024916,-0.3762 -0.376204,-0.3762 -0.376204,-1.01768 0,-0.66318 0.356912,-1.05145 0.359323,-0.39067 0.967038,-0.39067 0.545014,0 0.86093,0.35209 0.318327,0.34968 0.318327,0.95257 z m -0.443729,-0.13023 q -0.0048,-0.36414 -0.204983,-0.58118 -0.197748,-0.21704 -0.525722,-0.21704 -0.371381,0 -0.595657,0.2098 -0.221864,0.20981 -0.255626,0.59084 z"
           style="font-size:4.93889px;stroke-width:0.264583"
           id="path2956" />
        <path
           d="m 92.782564,162.69606 v 1.63022 h -0.443728 v -1.61575 q 0,-0.38344 -0.149517,-0.57395 -0.149518,-0.19052 -0.448552,-0.19052 -0.359324,0 -0.566718,0.2291 -0.207395,0.2291 -0.207395,0.6246 v 1.52652 h -0.44614 v -2.70096 h 0.44614 v 0.41962 q 0.159163,-0.24357 0.373793,-0.36415 0.217041,-0.12058 0.499194,-0.12058 0.465433,0 0.704178,0.28939 0.238745,0.28698 0.238745,0.84646 z"
           style="font-size:4.93889px;stroke-width:0.264583"
           id="path2958" />
        <path
           d="m 95.394292,161.7049 v 0.41962 q -0.188102,-0.0965 -0.390674,-0.1447 -0.202571,-0.0482 -0.419612,-0.0482 -0.330385,0 -0.496783,0.10129 -0.163987,0.10128 -0.163987,0.30386 0,0.15434 0.118167,0.24356 0.118167,0.0868 0.475079,0.1664 l 0.151929,0.0338 q 0.472667,0.10129 0.670415,0.28698 0.20016,0.18328 0.20016,0.51366 0,0.37621 -0.299034,0.59566 -0.296623,0.21945 -0.817521,0.21945 -0.217041,0 -0.453375,-0.0434 -0.233922,-0.041 -0.494371,-0.12541 v -0.45819 q 0.24598,0.12781 0.484725,0.19292 0.238745,0.0627 0.472667,0.0627 0.313504,0 0.482313,-0.10611 0.16881,-0.10852 0.16881,-0.30385 0,-0.18087 -0.12299,-0.27733 -0.120578,-0.0965 -0.532956,-0.18569 l -0.15434,-0.0362 q -0.412379,-0.0868 -0.595658,-0.26527 -0.183279,-0.18087 -0.183279,-0.49437 0,-0.38103 0.270096,-0.58842 0.270095,-0.2074 0.766878,-0.2074 0.24598,0 0.463021,0.0362 0.217041,0.0362 0.40032,0.10852 z"
           style="font-size:4.93889px;stroke-width:0.264583"
           id="path2960" />
        <path
           d="m 98.558269,162.86487 v 0.21704 h -2.040186 q 0.02894,0.4582 0.274918,0.69935 0.248392,0.23875 0.689709,0.23875 0.255626,0 0.494371,-0.0627 0.241157,-0.0627 0.47749,-0.1881 v 0.41961 q -0.238745,0.10129 -0.489548,0.15434 -0.250803,0.053 -0.508841,0.053 -0.6463,0 -1.024916,-0.3762 -0.376204,-0.3762 -0.376204,-1.01768 0,-0.66318 0.356912,-1.05145 0.359323,-0.39067 0.967038,-0.39067 0.545014,0 0.86093,0.35209 0.318327,0.34968 0.318327,0.95257 z m -0.443729,-0.13023 q -0.0048,-0.36414 -0.204983,-0.58118 -0.197748,-0.21704 -0.525722,-0.21704 -0.371381,0 -0.595657,0.2098 -0.221864,0.20981 -0.255626,0.59084 z"
           style="font-size:4.93889px;stroke-width:0.264583"
           id="path2962" />
        <path
           d="m 99.768875,163.91631 h 1.700155 v 0.40997 h -2.286166 v -0.40997 q 0.27733,-0.28697 0.754821,-0.76929 0.479905,-0.48472 0.602895,-0.62459 0.23392,-0.26286 0.32556,-0.44373 0.094,-0.18328 0.094,-0.35933 0,-0.28697 -0.20257,-0.46784 -0.20016,-0.18087 -0.52331,-0.18087 -0.2291,0 -0.484728,0.0796 -0.253214,0.0796 -0.542602,0.24116 v -0.49196 q 0.294211,-0.11817 0.549837,-0.17845 0.255623,-0.0603 0.467843,-0.0603 0.55948,0 0.89228,0.27974 0.3328,0.27974 0.3328,0.74758 0,0.22187 -0.0844,0.42203 -0.082,0.19775 -0.30144,0.46784 -0.0603,0.0699 -0.38344,0.40515 -0.32315,0.33279 -0.911575,0.93327 z"
           style="font-size:4.93889px;stroke-width:0.264583"
           id="path2964" />
      </g>
    </g>
    <g
       transform="matrix(0.82400385,0,0,0.82400385,19.066504,-52.804102)"
       id="g978">
      <path
         id="rect857-4-7"
         style="opacity:0.707;fill:#fabe50;stroke:#000000;stroke-width:0.1961;stop-color:#000000"
         d="m 80.545401,184.68887 h 23.603889 c 0.41816,0 0.7548,0.33664 0.7548,0.7548 v 9.32986 c 0,0.41815 -0.33664,0.75479 -0.7548,0.75479 H 80.545401 c -0.418158,0 -0.754797,-0.33664 -0.754797,-0.75479 v -9.32986 c 0,-0.41816 0.336639,-0.7548 0.754797,-0.7548 z" />
      <g
         aria-label="Dense 3"
         id="text851"
         style="font-size:4.93889px;line-height:1.25;font-family:sans-serif;-inkscape-font-specification:sans-serif;stroke-width:0.217734">
        <path
           d="m 83.123099,188.70627 v 2.79983 h 0.588423 q 0.745174,0 1.090028,-0.33762 0.347266,-0.33762 0.347266,-1.06591 0,-0.72347 -0.347266,-1.05868 -0.344854,-0.33762 -1.090028,-0.33762 z m -0.487136,-0.40032 h 1.0008 q 1.04662,0 1.536168,0.43649 0.489549,0.43408 0.489549,1.36013 0,0.93086 -0.49196,1.36735 -0.49196,0.4365 -1.533757,0.4365 h -1.0008 z"
           style="font-size:4.93889px;stroke-width:0.217734"
           id="path2968" />
        <path
           d="m 88.727582,190.44501 v 0.21704 h -2.040186 q 0.02894,0.4582 0.274918,0.69935 0.248392,0.23875 0.689709,0.23875 0.255626,0 0.494371,-0.0627 0.241157,-0.0627 0.47749,-0.1881 v 0.41961 q -0.238745,0.10128 -0.489548,0.15434 -0.250803,0.053 -0.508841,0.053 -0.6463,0 -1.024916,-0.3762 -0.376204,-0.37621 -0.376204,-1.01768 0,-0.66318 0.356912,-1.05145 0.359323,-0.39067 0.967038,-0.39067 0.545014,0 0.86093,0.35209 0.318327,0.34968 0.318327,0.95257 z m -0.443729,-0.13023 q -0.0048,-0.36414 -0.204983,-0.58118 -0.197749,-0.21705 -0.525722,-0.21705 -0.371381,0 -0.595657,0.20981 -0.221864,0.20981 -0.255626,0.59083 z"
           style="font-size:4.93889px;stroke-width:0.217734"
           id="path2970" />
        <path
           d="m 91.701044,190.2762 v 1.63022 h -0.443728 v -1.61575 q 0,-0.38344 -0.149518,-0.57396 -0.149517,-0.19051 -0.448551,-0.19051 -0.359324,0 -0.566718,0.2291 -0.207395,0.2291 -0.207395,0.6246 v 1.52652 h -0.44614 v -2.70096 h 0.44614 v 0.41962 q 0.159163,-0.24357 0.373793,-0.36415 0.217041,-0.12058 0.499194,-0.12058 0.465433,0 0.704178,0.28939 0.238745,0.28697 0.238745,0.84646 z"
           style="font-size:4.93889px;stroke-width:0.217734"
           id="path2972" />
        <path
           d="m 94.312772,189.28504 v 0.41962 q -0.188102,-0.0965 -0.390674,-0.1447 -0.202571,-0.0482 -0.419612,-0.0482 -0.330385,0 -0.496783,0.10129 -0.163987,0.10128 -0.163987,0.30385 0,0.15435 0.118167,0.24357 0.118167,0.0868 0.475079,0.1664 l 0.151928,0.0338 q 0.472668,0.10129 0.670416,0.28698 0.20016,0.18328 0.20016,0.51366 0,0.37621 -0.299034,0.59566 -0.296623,0.21945 -0.817521,0.21945 -0.217041,0 -0.453375,-0.0434 -0.233922,-0.041 -0.494371,-0.12541 v -0.45819 q 0.24598,0.12781 0.484725,0.19292 0.238745,0.0627 0.472667,0.0627 0.313504,0 0.482313,-0.10611 0.16881,-0.10852 0.16881,-0.30385 0,-0.18087 -0.12299,-0.27733 -0.120578,-0.0965 -0.532956,-0.1857 l -0.154341,-0.0362 q -0.412378,-0.0868 -0.595657,-0.26527 -0.183279,-0.18087 -0.183279,-0.49437 0,-0.38103 0.270096,-0.58843 0.270095,-0.20739 0.766878,-0.20739 0.24598,0 0.463021,0.0362 0.217041,0.0362 0.40032,0.10852 z"
           style="font-size:4.93889px;stroke-width:0.217734"
           id="path2974" />
        <path
           d="m 97.476749,190.44501 v 0.21704 h -2.040186 q 0.02894,0.4582 0.274918,0.69935 0.248392,0.23875 0.689709,0.23875 0.255626,0 0.494371,-0.0627 0.241157,-0.0627 0.47749,-0.1881 v 0.41961 q -0.238745,0.10128 -0.489548,0.15434 -0.250803,0.053 -0.508841,0.053 -0.6463,0 -1.024916,-0.3762 -0.376204,-0.37621 -0.376204,-1.01768 0,-0.66318 0.356912,-1.05145 0.359323,-0.39067 0.967038,-0.39067 0.545014,0 0.86093,0.35209 0.318327,0.34968 0.318327,0.95257 z m -0.443729,-0.13023 q -0.0048,-0.36414 -0.204983,-0.58118 -0.197749,-0.21705 -0.525722,-0.21705 -0.371381,0 -0.595657,0.20981 -0.221864,0.20981 -0.255626,0.59083 z"
           style="font-size:4.93889px;stroke-width:0.217734"
           id="path2976" />
        <path
           d="m 101.31596,189.96511 q 0.34968,0.0747 0.54502,0.31109 0.19775,0.23633 0.19775,0.5836 0,0.53295 -0.36656,0.82475 -0.36656,0.2918 -1.0418,0.2918 -0.22669,0 -0.46784,-0.0458 -0.238749,-0.0434 -0.494375,-0.13263 v -0.47026 q 0.202572,0.11817 0.443725,0.17846 0.24116,0.0603 0.50402,0.0603 0.4582,0 0.69694,-0.18087 0.24116,-0.18087 0.24116,-0.52572 0,-0.31833 -0.22427,-0.49679 -0.22187,-0.18086 -0.61978,-0.18086 h -0.41961 v -0.40032 h 0.4389 q 0.35933,0 0.54984,-0.14229 0.19052,-0.14469 0.19052,-0.41479 0,-0.27733 -0.19775,-0.42443 -0.19534,-0.14952 -0.5619,-0.14952 -0.20016,0 -0.42926,0.0434 -0.2291,0.0434 -0.504014,0.13505 v -0.43408 q 0.277334,-0.0772 0.518484,-0.11576 0.24357,-0.0386 0.4582,-0.0386 0.55466,0 0.87781,0.25321 0.32315,0.2508 0.32315,0.68006 0,0.29904 -0.17122,0.50643 -0.17122,0.20498 -0.48714,0.28457 z"
           style="font-size:4.93889px;stroke-width:0.217734"
           id="path2978" />
      </g>
    </g>
    <g
       transform="matrix(0.82400385,0,0,0.82400385,20.669036,-18.624241)"
       id="g1072">
      <path
         id="rect857-40"
         style="opacity:0.707;fill:#fabe50;stroke:#000000;stroke-width:0.1961;stop-color:#000000"
         d="m 78.600592,95.371399 h 23.603888 c 0.41816,0 0.7548,0.336639 0.7548,0.754797 v 9.329854 c 0,0.41816 -0.33664,0.7548 -0.7548,0.7548 H 78.600592 c -0.418158,0 -0.754797,-0.33664 -0.754797,-0.7548 v -9.329854 c 0,-0.418158 0.336639,-0.754797 0.754797,-0.754797 z" />
      <g
         aria-label="LSTM"
         id="text867"
         style="font-size:4.93889px;line-height:1.25;font-family:sans-serif;-inkscape-font-specification:sans-serif;stroke-width:0.198741">
        <path
           d="m 84.30368,98.988481 h 0.487136 v 3.190499 h 1.75321 v 0.40997 H 84.30368 Z"
           style="font-size:4.93889px;stroke-width:0.198741"
           id="path2982" />
        <path
           d="m 89.211219,99.106648 v 0.475079 q -0.27733,-0.132637 -0.52331,-0.197749 -0.24598,-0.06511 -0.475079,-0.06511 -0.397908,0 -0.61495,0.15434 -0.214629,0.15434 -0.214629,0.438905 0,0.238747 0.142282,0.361737 0.144695,0.12057 0.545015,0.19533 l 0.294211,0.0603 q 0.545014,0.1037 0.803052,0.36656 0.260449,0.26045 0.260449,0.69936 0,0.52331 -0.352089,0.7934 -0.349677,0.2701 -1.027327,0.2701 -0.255627,0 -0.545015,-0.0579 -0.286976,-0.0579 -0.595657,-0.17122 v -0.50161 q 0.296623,0.1664 0.581188,0.2508 0.284565,0.0844 0.559484,0.0844 0.417201,0 0.643888,-0.16399 0.226687,-0.16398 0.226687,-0.46784 0,-0.26527 -0.163986,-0.41479 -0.161575,-0.14952 -0.532957,-0.22428 l -0.296622,-0.0579 q -0.545015,-0.10852 -0.788583,-0.34004 -0.243568,-0.23151 -0.243568,-0.643882 0,-0.47749 0.335208,-0.752409 0.337619,-0.274918 0.928453,-0.274918 0.253215,0 0.516076,0.04582 0.26286,0.04582 0.537779,0.13746 z"
           style="font-size:4.93889px;stroke-width:0.198741"
           id="path2984" />
        <path
           d="m 89.688709,98.988481 h 3.04581 v 0.409966 h -1.278131 v 3.190503 H 90.96684 v -3.190503 h -1.278131 z"
           style="font-size:4.93889px;stroke-width:0.198741"
           id="path2986" />
        <path
           d="m 93.207187,98.988481 h 0.725882 l 0.918807,2.450149 0.92363,-2.450149 h 0.725882 v 3.600469 h -0.475079 v -3.161564 l -0.928453,2.469444 h -0.489549 l -0.928453,-2.469444 v 3.161564 h -0.472667 z"
           style="font-size:4.93889px;stroke-width:0.198741"
           id="path2988" />
      </g>
    </g>
    <path
       id="path1061"
       d="m 95.161074,55.754546 v 4.207612"
       style="fill:none;fill-rule:evenodd;stroke:#000000;stroke-width:0.218361;stroke-linecap:butt;stroke-linejoin:miter;stroke-miterlimit:4;stroke-dasharray:none;stroke-opacity:1;marker-end:url(#marker1539)" />
    <path
       id="path1063"
       d="m 95.161074,68.893908 v 4.2076"
       style="fill:none;fill-rule:evenodd;stroke:#000000;stroke-width:0.218361;stroke-linecap:butt;stroke-linejoin:miter;stroke-miterlimit:4;stroke-dasharray:none;stroke-opacity:1;marker-end:url(#marker1549)" />
    <path
       id="path1065"
       d="m 95.161074,82.033258 v 4.20762"
       style="fill:none;fill-rule:evenodd;stroke:#000000;stroke-width:0.218361;stroke-linecap:butt;stroke-linejoin:miter;stroke-miterlimit:4;stroke-dasharray:none;stroke-opacity:1;marker-end:url(#marker1559)" />
    <path
       id="path1067"
       d="m 95.161074,95.172628 v 4.20761"
       style="fill:none;fill-rule:evenodd;stroke:#000000;stroke-width:0.218;stroke-linecap:butt;stroke-linejoin:miter;stroke-miterlimit:4;stroke-dasharray:none;stroke-opacity:1;marker-end:url(#marker1569)" />
    <path
       id="path1079"
       d="m 95.161074,42.615188 v 4.207608"
       style="fill:none;fill-rule:evenodd;stroke:#000000;stroke-width:0.218361;stroke-linecap:butt;stroke-linejoin:miter;stroke-miterlimit:4;stroke-dasharray:none;stroke-opacity:1;marker-end:url(#marker1529)" />
    <g
       aria-label="Conv layers"
       id="text231"
       style="font-size:4.23333px;line-height:1.25;font-family:sans-serif;-inkscape-font-specification:sans-serif;stroke-width:0.264583"
       transform="matrix(0.82400385,0,0,0.82400385,20.562678,-14.003342)">
      <path
         d="m 80.783377,61.611246 v 0.440282 q -0.21084,-0.19637 -0.450618,-0.293521 -0.237712,-0.09715 -0.506429,-0.09715 -0.529166,0 -0.810286,0.324528 -0.281119,0.32246 -0.281119,0.934309 0,0.609781 0.281119,0.934309 0.28112,0.322461 0.810286,0.322461 0.268717,0 0.506429,-0.09715 0.239778,-0.09715 0.450618,-0.293522 v 0.436149 q -0.219108,0.148828 -0.465088,0.223242 -0.243912,0.07441 -0.516764,0.07441 -0.700731,0 -1.103807,-0.427881 -0.403076,-0.429947 -0.403076,-1.17202 0,-0.74414 0.403076,-1.172021 0.403076,-0.429947 1.103807,-0.429947 0.276986,0 0.520898,0.07441 0.24598,0.07235 0.460954,0.219108 z"
         style="font-size:4.23333px;stroke-width:0.264583"
         id="path233" />
      <path
         d="m 82.312998,62.411196 q -0.305924,0 -0.483691,0.239779 -0.177767,0.237711 -0.177767,0.653189 0,0.415478 0.1757,0.655257 0.177767,0.237711 0.485758,0.237711 0.303857,0 0.481624,-0.239778 0.177767,-0.239779 0.177767,-0.65319 0,-0.411344 -0.177767,-0.651122 -0.177767,-0.241846 -0.481624,-0.241846 z m 0,-0.322461 q 0.496093,0 0.77928,0.322461 0.283187,0.322461 0.283187,0.892968 0,0.56844 -0.283187,0.892968 -0.283187,0.322461 -0.77928,0.322461 -0.49816,0 -0.781347,-0.322461 -0.28112,-0.324528 -0.28112,-0.892968 0,-0.570507 0.28112,-0.892968 0.283187,-0.322461 0.781347,-0.322461 z"
         style="font-size:4.23333px;stroke-width:0.264583"
         id="path235" />
      <path
         d="m 85.928278,63.062319 v 1.397329 H 85.54794 v -1.384927 q 0,-0.328662 -0.128157,-0.491959 -0.128158,-0.163298 -0.384473,-0.163298 -0.307991,0 -0.485758,0.196371 -0.177766,0.19637 -0.177766,0.535367 v 1.308446 H 83.98938 v -2.315102 h 0.382406 v 0.359668 q 0.136425,-0.208773 0.320393,-0.312126 0.186035,-0.103353 0.427881,-0.103353 0.398941,0 0.60358,0.248047 0.204638,0.24598 0.204638,0.725537 z"
         style="font-size:4.23333px;stroke-width:0.264583"
         id="path237" />
      <path
         d="m 86.41817,62.144546 h 0.403076 l 0.72347,1.943032 0.723469,-1.943032 h 0.403076 l -0.868163,2.315102 h -0.516764 z"
         style="font-size:4.23333px;stroke-width:0.264583"
         id="path239" />
      <path
         d="m 90.544014,61.24331 h 0.380338 v 3.216338 h -0.380338 z"
         style="font-size:4.23333px;stroke-width:0.264583"
         id="path241" />
      <path
         d="m 92.770233,63.295896 q -0.460954,0 -0.638721,0.10542 -0.177766,0.10542 -0.177766,0.359667 0,0.202572 0.132291,0.322461 0.134359,0.117822 0.363802,0.117822 0.316259,0 0.506429,-0.223242 0.192236,-0.225309 0.192236,-0.597379 v -0.08475 z M 93.528842,63.1388 v 1.320848 h -0.380338 v -0.351399 q -0.130225,0.210839 -0.324528,0.312125 -0.194303,0.09922 -0.475423,0.09922 -0.355533,0 -0.566373,-0.198438 -0.208773,-0.200504 -0.208773,-0.535367 0,-0.390673 0.260449,-0.589111 0.262516,-0.198437 0.781347,-0.198437 h 0.533301 v -0.03721 q 0,-0.262516 -0.173633,-0.405143 -0.171566,-0.144694 -0.483691,-0.144694 -0.198437,0 -0.386539,0.04754 -0.188102,0.04754 -0.361735,0.142627 v -0.351399 q 0.208773,-0.08062 0.405143,-0.119889 0.19637,-0.04134 0.382405,-0.04134 0.502295,0 0.750341,0.260449 0.248047,0.260449 0.248047,0.789616 z"
         style="font-size:4.23333px;stroke-width:0.264583"
         id="path243" />
      <path
         d="m 95.27757,64.674622 q -0.16123,0.413411 -0.314192,0.539501 -0.152962,0.126091 -0.409277,0.126091 h -0.303858 v -0.318327 h 0.223242 q 0.157097,0 0.243913,-0.07441 0.08682,-0.07441 0.192236,-0.351399 l 0.06821,-0.173633 -0.936376,-2.277895 h 0.403076 l 0.723469,1.810741 0.72347,-1.810741 h 0.403075 z"
         style="font-size:4.23333px;stroke-width:0.264583"
         id="path245" />
      <path
         d="m 98.799833,63.207012 v 0.186035 h -1.748729 q 0.02481,0.392741 0.235645,0.599447 0.212906,0.204638 0.591178,0.204638 0.219107,0 0.423746,-0.05374 0.206705,-0.05374 0.409277,-0.161231 v 0.359668 q -0.204639,0.08682 -0.419612,0.132292 -0.214974,0.04547 -0.436149,0.04547 -0.553971,0 -0.878499,-0.322461 -0.32246,-0.322461 -0.32246,-0.872297 0,-0.568441 0.305924,-0.901237 0.307991,-0.334863 0.828889,-0.334863 0.467155,0 0.737939,0.301791 0.272851,0.299723 0.272851,0.816486 z m -0.380338,-0.111621 q -0.0041,-0.312125 -0.1757,-0.49816 -0.169498,-0.186035 -0.450618,-0.186035 -0.318326,0 -0.510562,0.179834 -0.19017,0.179834 -0.219108,0.506429 z"
         style="font-size:4.23333px;stroke-width:0.264583"
         id="path247" />
      <path
         d="m 100.7656,62.500079 q -0.0641,-0.03721 -0.14056,-0.05374 -0.0744,-0.0186 -0.16536,-0.0186 -0.32246,0 -0.496094,0.210839 -0.171566,0.208773 -0.171566,0.601513 v 1.219563 h -0.382405 v -2.315102 h 0.382405 v 0.359668 q 0.11989,-0.21084 0.31213,-0.312126 0.19223,-0.103353 0.46715,-0.103353 0.0393,0 0.0868,0.0062 0.0475,0.0041 0.10542,0.01447 z"
         style="font-size:4.23333px;stroke-width:0.264583"
         id="path249" />
      <path
         d="m 102.64456,62.212759 v 0.359667 q -0.16123,-0.08268 -0.33487,-0.124023 -0.17363,-0.04134 -0.35966,-0.04134 -0.28319,0 -0.42582,0.08682 -0.14056,0.08682 -0.14056,0.260449 0,0.132292 0.10129,0.208773 0.10128,0.07441 0.40721,0.142627 l 0.13022,0.02894 q 0.40515,0.08682 0.57464,0.245979 0.17157,0.157096 0.17157,0.440283 0,0.322461 -0.25631,0.510563 -0.25425,0.188102 -0.70074,0.188102 -0.18603,0 -0.3886,-0.03721 -0.20051,-0.03514 -0.42375,-0.107487 v -0.392741 q 0.21084,0.109554 0.41548,0.165365 0.20464,0.05374 0.40514,0.05374 0.26872,0 0.41341,-0.09095 0.1447,-0.09302 0.1447,-0.260449 0,-0.155029 -0.10542,-0.237712 -0.10336,-0.08268 -0.45682,-0.159163 l -0.13229,-0.03101 q -0.35347,-0.07441 -0.51057,-0.227376 -0.15709,-0.155029 -0.15709,-0.423746 0,-0.326595 0.23151,-0.504362 0.23151,-0.177767 0.65732,-0.177767 0.21084,0 0.39688,0.03101 0.18603,0.03101 0.34313,0.09302 z"
         style="font-size:4.23333px;stroke-width:0.264583"
         id="path251" />
    </g>
    <g
       style="font-size:4.23333px;line-height:1.25;font-family:sans-serif;-inkscape-font-specification:sans-serif;stroke-width:0.0361151"
       id="text3423-0"
       aria-label="Acceleration">
      <path
         id="path1315"
         style="font-size:4.23333px;stroke-width:0.0361151"
         d="m 70.259889,116.27074 -0.566373,1.53582 h 1.134813 z M 70.024245,115.8594 H 70.4976 l 1.176155,3.08611 h -0.434082 l -0.281119,-0.79168 h -1.391129 l -0.281119,0.79168 h -0.440283 z" />
      <path
         id="path1317"
         style="font-size:4.23333px;stroke-width:0.0361151"
         d="m 73.697402,116.71929 v 0.35554 q -0.16123,-0.0889 -0.324527,-0.1323 -0.161231,-0.0455 -0.326595,-0.0455 -0.370003,0 -0.574642,0.23564 -0.204638,0.23358 -0.204638,0.65733 0,0.42374 0.204638,0.65939 0.204639,0.23357 0.574642,0.23357 0.165364,0 0.326595,-0.0434 0.163297,-0.0455 0.324527,-0.13436 v 0.3514 q -0.159163,0.0744 -0.330729,0.11162 -0.169498,0.0372 -0.361734,0.0372 -0.522965,0 -0.830957,-0.32867 -0.307991,-0.32866 -0.307991,-0.88676 0,-0.56638 0.310058,-0.8909 0.312126,-0.32453 0.853694,-0.32453 0.1757,0 0.343132,0.0372 0.167431,0.0351 0.324527,0.10748 z" />
      <path
         id="path1319"
         style="font-size:4.23333px;stroke-width:0.0361151"
         d="m 76.029041,116.71929 v 0.35554 q -0.161231,-0.0889 -0.324528,-0.1323 -0.16123,-0.0455 -0.326595,-0.0455 -0.370003,0 -0.574641,0.23564 -0.204639,0.23358 -0.204639,0.65733 0,0.42374 0.204639,0.65939 0.204638,0.23357 0.574641,0.23357 0.165365,0 0.326595,-0.0434 0.163297,-0.0455 0.324528,-0.13436 v 0.3514 q -0.159164,0.0744 -0.330729,0.11162 -0.169499,0.0372 -0.361735,0.0372 -0.522965,0 -0.830956,-0.32867 -0.307992,-0.32866 -0.307992,-0.88676 0,-0.56638 0.310059,-0.8909 0.312125,-0.32453 0.853694,-0.32453 0.175699,0 0.343131,0.0372 0.167431,0.0351 0.324528,0.10748 z" />
      <path
         id="path1321"
         style="font-size:4.23333px;stroke-width:0.0361151"
         d="m 78.674872,117.69288 v 0.18603 h -1.748729 q 0.02481,0.39274 0.235644,0.59945 0.212907,0.20463 0.591178,0.20463 0.219108,0 0.423747,-0.0537 0.206705,-0.0537 0.409277,-0.16123 v 0.35967 q -0.204639,0.0868 -0.419613,0.13229 -0.214973,0.0455 -0.436148,0.0455 -0.553971,0 -0.878499,-0.32247 -0.322461,-0.32246 -0.322461,-0.87229 0,-0.56844 0.305925,-0.90124 0.307991,-0.33486 0.828889,-0.33486 0.467154,0 0.737939,0.30179 0.272851,0.29972 0.272851,0.81649 z m -0.380338,-0.11163 q -0.0041,-0.31212 -0.1757,-0.49816 -0.169499,-0.18603 -0.450618,-0.18603 -0.318327,0 -0.510563,0.17983 -0.190169,0.17984 -0.219108,0.50643 z" />
      <path
         id="path1323"
         style="font-size:4.23333px;stroke-width:0.0361151"
         d="m 79.299123,115.72917 h 0.380338 v 3.21634 h -0.380338 z" />
      <path
         id="path1325"
         style="font-size:4.23333px;stroke-width:0.0361151"
         d="m 82.453449,117.69288 v 0.18603 H 80.70472 q 0.02481,0.39274 0.235645,0.59945 0.212906,0.20463 0.591178,0.20463 0.219107,0 0.423746,-0.0537 0.206705,-0.0537 0.409277,-0.16123 v 0.35967 q -0.204639,0.0868 -0.419612,0.13229 -0.214974,0.0455 -0.436149,0.0455 -0.553971,0 -0.878499,-0.32247 -0.32246,-0.32246 -0.32246,-0.87229 0,-0.56844 0.305924,-0.90124 0.307991,-0.33486 0.828889,-0.33486 0.467155,0 0.737939,0.30179 0.272851,0.29972 0.272851,0.81649 z m -0.380338,-0.11163 q -0.0041,-0.31212 -0.1757,-0.49816 -0.169498,-0.18603 -0.450618,-0.18603 -0.318326,0 -0.510562,0.17983 -0.19017,0.17984 -0.219108,0.50643 z" />
      <path
         id="path1327"
         style="font-size:4.23333px;stroke-width:0.0361151"
         d="m 84.419219,116.98594 q -0.06408,-0.0372 -0.140559,-0.0537 -0.07441,-0.0186 -0.165365,-0.0186 -0.32246,0 -0.496093,0.21083 -0.171566,0.20878 -0.171566,0.60152 v 1.21956 h -0.382405 v -2.3151 h 0.382405 v 0.35967 q 0.119889,-0.21084 0.312126,-0.31213 0.192236,-0.10335 0.467154,-0.10335 0.03927,0 0.08682,0.006 0.04754,0.004 0.105419,0.0145 z" />
      <path
         id="path1329"
         style="font-size:4.23333px;stroke-width:0.0361151"
         d="m 85.874426,117.78176 q -0.460953,0 -0.63872,0.10542 -0.177767,0.10542 -0.177767,0.35967 0,0.20257 0.132292,0.32246 0.134358,0.11782 0.363802,0.11782 0.316259,0 0.506428,-0.22324 0.192236,-0.22531 0.192236,-0.59738 v -0.0847 z m 0.75861,-0.1571 v 1.32085 h -0.380339 v -0.3514 q -0.130224,0.21084 -0.324527,0.31213 -0.194304,0.0992 -0.475423,0.0992 -0.355534,0 -0.566373,-0.19844 -0.208773,-0.20051 -0.208773,-0.53537 0,-0.39067 0.260449,-0.58911 0.262516,-0.19844 0.781347,-0.19844 h 0.5333 v -0.0372 q 0,-0.26252 -0.173632,-0.40515 -0.171566,-0.14469 -0.483691,-0.14469 -0.198438,0 -0.38654,0.0475 -0.188102,0.0475 -0.361734,0.14263 v -0.3514 q 0.208772,-0.0806 0.405142,-0.11989 0.196371,-0.0413 0.382406,-0.0413 0.502294,0 0.750341,0.26045 0.248047,0.26045 0.248047,0.78961 z" />
      <path
         id="path1331"
         style="font-size:4.23333px;stroke-width:0.0361151"
         d="m 87.794721,115.97308 v 0.65733 h 0.783414 v 0.29559 h -0.783414 v 1.25677 q 0,0.28318 0.07648,0.3638 0.07855,0.0806 0.31626,0.0806 h 0.390673 v 0.31833 h -0.390673 q -0.440283,0 -0.607715,-0.1633 -0.167431,-0.16536 -0.167431,-0.59944 V 116.926 h -0.279053 v -0.29559 h 0.279053 v -0.65733 z" />
      <path
         id="path1333"
         style="font-size:4.23333px;stroke-width:0.0361151"
         d="m 89.08043,116.63041 h 0.380338 v 2.3151 H 89.08043 Z m 0,-0.90124 h 0.380338 v 0.48163 H 89.08043 Z" />
      <path
         id="path1335"
         style="font-size:4.23333px;stroke-width:0.0361151"
         d="m 91.151619,116.89706 q -0.305924,0 -0.483691,0.23978 -0.177766,0.23771 -0.177766,0.65319 0,0.41547 0.175699,0.65525 0.177767,0.23771 0.485758,0.23771 0.303858,0 0.481624,-0.23977 0.177767,-0.23978 0.177767,-0.65319 0,-0.41135 -0.177767,-0.65113 -0.177766,-0.24184 -0.481624,-0.24184 z m 0,-0.32246 q 0.496094,0 0.77928,0.32246 0.283187,0.32246 0.283187,0.89297 0,0.56844 -0.283187,0.89296 -0.283186,0.32247 -0.77928,0.32247 -0.49816,0 -0.781347,-0.32247 -0.281119,-0.32452 -0.281119,-0.89296 0,-0.57051 0.281119,-0.89297 0.283187,-0.32246 0.781347,-0.32246 z" />
      <path
         id="path1337"
         style="font-size:4.23333px;stroke-width:0.0361151"
         d="m 94.7669,117.54818 v 1.39733 h -0.380339 v -1.38493 q 0,-0.32866 -0.128157,-0.49196 -0.128158,-0.16329 -0.384472,-0.16329 -0.307992,0 -0.485758,0.19637 -0.177767,0.19637 -0.177767,0.53536 v 1.30845 h -0.382406 v -2.3151 h 0.382406 v 0.35967 q 0.136425,-0.20878 0.320393,-0.31213 0.186035,-0.10335 0.427881,-0.10335 0.398942,0 0.60358,0.24804 0.204639,0.24598 0.204639,0.72554 z" />
    </g>
    <g
       style="font-size:4.23333px;line-height:1.25;font-family:sans-serif;-inkscape-font-specification:sans-serif;stroke-width:0.136499"
       id="text3451-4"
       aria-label="Steering">
      <path
         id="path1298"
         style="font-size:4.23333px;stroke-width:0.136499"
         d="m 101.90428,115.55037 v 0.40721 q -0.23771,-0.11368 -0.44855,-0.16949 -0.21084,-0.0558 -0.40721,-0.0558 -0.34107,0 -0.5271,0.1323 -0.18397,0.13229 -0.18397,0.3762 0,0.20464 0.12196,0.31006 0.12402,0.10335 0.46715,0.16743 l 0.25218,0.0517 q 0.46716,0.0889 0.68833,0.31419 0.22324,0.22324 0.22324,0.59945 0,0.44855 -0.30179,0.68006 -0.29972,0.23151 -0.88056,0.23151 -0.21911,0 -0.46716,-0.0496 -0.24598,-0.0496 -0.510559,-0.14676 v -0.42995 q 0.254249,0.14263 0.498159,0.21497 0.24391,0.0724 0.47956,0.0724 0.3576,0 0.5519,-0.14056 0.19431,-0.14056 0.19431,-0.40101 0,-0.22738 -0.14056,-0.35553 -0.1385,-0.12816 -0.45682,-0.19224 l -0.25425,-0.0496 q -0.46716,-0.093 -0.67593,-0.29145 -0.208771,-0.19844 -0.208771,-0.55191 0,-0.40927 0.287321,-0.64492 0.28939,-0.23564 0.79582,-0.23564 0.21704,0 0.44235,0.0393 0.2253,0.0393 0.46095,0.11782 z" />
      <path
         id="path1300"
         style="font-size:4.23333px;stroke-width:0.136499"
         d="m 103.1011,115.56278 v 0.65732 h 0.78342 v 0.29559 h -0.78342 v 1.25677 q 0,0.28319 0.0765,0.3638 0.0785,0.0806 0.31625,0.0806 h 0.39068 v 0.31832 h -0.39068 q -0.44028,0 -0.60771,-0.1633 -0.16743,-0.16536 -0.16743,-0.59944 v -1.25677 h -0.27905 v -0.29559 h 0.27905 v -0.65732 z" />
      <path
         id="path1302"
         style="font-size:4.23333px;stroke-width:0.136499"
         d="m 106.36705,117.28257 v 0.18603 h -1.74873 q 0.0248,0.39274 0.23565,0.59945 0.2129,0.20464 0.59118,0.20464 0.2191,0 0.42374,-0.0537 0.20671,-0.0537 0.40928,-0.16123 v 0.35967 q -0.20464,0.0868 -0.41961,0.13229 -0.21498,0.0455 -0.43615,0.0455 -0.55397,0 -0.8785,-0.32246 -0.32246,-0.32246 -0.32246,-0.8723 0,-0.56844 0.30592,-0.90124 0.30799,-0.33486 0.82889,-0.33486 0.46716,0 0.73794,0.30179 0.27285,0.29972 0.27285,0.81649 z m -0.38034,-0.11162 q -0.004,-0.31213 -0.1757,-0.49817 -0.16949,-0.18603 -0.45061,-0.18603 -0.31833,0 -0.51057,0.17983 -0.19017,0.17984 -0.2191,0.50643 z" />
      <path
         id="path1304"
         style="font-size:4.23333px;stroke-width:0.136499"
         d="m 108.97154,117.28257 v 0.18603 h -1.74873 q 0.0248,0.39274 0.23565,0.59945 0.2129,0.20464 0.59118,0.20464 0.2191,0 0.42374,-0.0537 0.20671,-0.0537 0.40928,-0.16123 v 0.35967 q -0.20464,0.0868 -0.41961,0.13229 -0.21498,0.0455 -0.43615,0.0455 -0.55397,0 -0.8785,-0.32246 -0.32246,-0.32246 -0.32246,-0.8723 0,-0.56844 0.30592,-0.90124 0.30799,-0.33486 0.82889,-0.33486 0.46716,0 0.73794,0.30179 0.27285,0.29972 0.27285,0.81649 z m -0.38034,-0.11162 q -0.004,-0.31213 -0.1757,-0.49817 -0.16949,-0.18603 -0.45061,-0.18603 -0.31833,0 -0.51057,0.17983 -0.19017,0.17984 -0.2191,0.50643 z" />
      <path
         id="path1306"
         style="font-size:4.23333px;stroke-width:0.136499"
         d="m 110.93731,116.57563 q -0.0641,-0.0372 -0.14056,-0.0537 -0.0744,-0.0186 -0.16536,-0.0186 -0.32246,0 -0.4961,0.21084 -0.17156,0.20877 -0.17156,0.60151 v 1.21956 h -0.38241 v -2.3151 h 0.38241 v 0.35967 q 0.11989,-0.21084 0.31212,-0.31213 0.19224,-0.10335 0.46716,-0.10335 0.0393,0 0.0868,0.006 0.0475,0.004 0.10542,0.0145 z" />
      <path
         id="path1308"
         style="font-size:4.23333px;stroke-width:0.136499"
         d="m 111.34039,116.2201 h 0.38034 v 2.3151 h -0.38034 z m 0,-0.90124 h 0.38034 v 0.48163 h -0.38034 z" />
      <path
         id="path1310"
         style="font-size:4.23333px;stroke-width:0.136499"
         d="m 114.4389,117.13787 v 1.39733 h -0.38033 v -1.38493 q 0,-0.32866 -0.12816,-0.49195 -0.12816,-0.1633 -0.38447,-0.1633 -0.308,0 -0.48576,0.19637 -0.17777,0.19637 -0.17777,0.53537 v 1.30844 h -0.3824 v -2.3151 h 0.3824 v 0.35967 q 0.13643,-0.20878 0.3204,-0.31213 0.18603,-0.10335 0.42788,-0.10335 0.39894,0 0.60358,0.24805 0.20463,0.24598 0.20463,0.72553 z" />
      <path
         id="path1312"
         style="font-size:4.23333px;stroke-width:0.136499"
         d="m 116.72507,117.35078 q 0,-0.41341 -0.17157,-0.64079 -0.1695,-0.22737 -0.47749,-0.22737 -0.30592,0 -0.47749,0.22737 -0.1695,0.22738 -0.1695,0.64079 0,0.41134 0.1695,0.63872 0.17157,0.22738 0.47749,0.22738 0.30799,0 0.47749,-0.22738 0.17157,-0.22738 0.17157,-0.63872 z m 0.38034,0.8971 q 0,0.59118 -0.26252,0.8785 -0.26252,0.28939 -0.80409,0.28939 -0.2005,0 -0.37827,-0.031 -0.17776,-0.0289 -0.34519,-0.091 v -0.37 q 0.16743,0.0909 0.33072,0.13436 0.1633,0.0434 0.3328,0.0434 0.37414,0 0.56017,-0.19638 0.18604,-0.1943 0.18604,-0.58911 v -0.1881 q -0.11782,0.20464 -0.30179,0.30593 -0.18397,0.10128 -0.44029,0.10128 -0.42581,0 -0.68626,-0.32453 -0.26045,-0.32452 -0.26045,-0.85989 0,-0.53744 0.26045,-0.86196 0.26045,-0.32453 0.68626,-0.32453 0.25632,0 0.44029,0.10129 0.18397,0.10128 0.30179,0.30592 v -0.3514 h 0.38034 z" />
    </g>
    <path
       id="path150"
       d="m 88.054208,108.2527 v 6.61341"
       style="fill:none;stroke:#000000;stroke-width:0.218;stroke-linecap:butt;stroke-linejoin:miter;stroke-opacity:1;stroke-miterlimit:4;stroke-dasharray:none;marker-end:url(#marker1082)" />
    <path
       id="path152"
       d="m 102.10667,108.44465 v 5.67063"
       style="fill:none;stroke:#000000;stroke-width:0.218;stroke-linecap:butt;stroke-linejoin:miter;stroke-opacity:1;stroke-miterlimit:4;stroke-dasharray:none;marker-end:url(#marker1092)" />
  </g>
</svg>
