<?xml version="1.0" encoding="UTF-8" standalone="no"?>
<svg
   xmlns:dc="http://purl.org/dc/elements/1.1/"
   xmlns:cc="http://creativecommons.org/ns#"
   xmlns:rdf="http://www.w3.org/1999/02/22-rdf-syntax-ns#"
   xmlns:svg="http://www.w3.org/2000/svg"
   xmlns="http://www.w3.org/2000/svg"
   xmlns:sodipodi="http://sodipodi.sourceforge.net/DTD/sodipodi-0.dtd"
   xmlns:inkscape="http://www.inkscape.org/namespaces/inkscape"
   sodipodi:docname="steeringlstmsplitConvChange1.svg"
   inkscape:version="1.0 (1.0+r73+1)"
   id="svg5349"
   version="1.1"
   viewBox="0 0 210 297"
   height="297mm"
   width="210mm">
  <defs
     id="defs5343">
    <marker
       inkscape:stockid="Arrow1Mend"
       orient="auto"
       refY="0"
       refX="0"
       id="marker1237"
       style="overflow:visible"
       inkscape:isstock="true">
      <path
         id="path1235"
         d="M 0,0 5,-5 -12.5,0 5,5 Z"
         style="fill:#000000;fill-opacity:1;fill-rule:evenodd;stroke:#000000;stroke-width:1pt;stroke-opacity:1"
         transform="matrix(-0.4,0,0,-0.4,-4,0)" />
    </marker>
    <marker
       inkscape:stockid="Arrow1Mend"
       orient="auto"
       refY="0"
       refX="0"
       id="marker1227"
       style="overflow:visible"
       inkscape:isstock="true">
      <path
         id="path1225"
         d="M 0,0 5,-5 -12.5,0 5,5 Z"
         style="fill:#000000;fill-opacity:1;fill-rule:evenodd;stroke:#000000;stroke-width:1pt;stroke-opacity:1"
         transform="matrix(-0.4,0,0,-0.4,-4,0)" />
    </marker>
    <marker
       inkscape:stockid="Arrow1Mend"
       orient="auto"
       refY="0"
       refX="0"
       id="marker1217"
       style="overflow:visible"
       inkscape:isstock="true">
      <path
         id="path1215"
         d="M 0,0 5,-5 -12.5,0 5,5 Z"
         style="fill:#000000;fill-opacity:1;fill-rule:evenodd;stroke:#000000;stroke-width:1pt;stroke-opacity:1"
         transform="matrix(-0.4,0,0,-0.4,-4,0)" />
    </marker>
    <marker
       inkscape:collect="always"
       inkscape:isstock="true"
       style="overflow:visible"
       id="marker6797"
       refX="0"
       refY="0"
       orient="auto"
       inkscape:stockid="Arrow1Mend">
      <path
         transform="matrix(-0.4,0,0,-0.4,-4,0)"
         style="fill:#000000;fill-opacity:1;fill-rule:evenodd;stroke:#000000;stroke-width:1pt;stroke-opacity:1"
         d="M 0,0 5,-5 -12.5,0 5,5 Z"
         id="path6795" />
    </marker>
    <marker
       inkscape:isstock="true"
       style="overflow:visible"
       id="marker6787"
       refX="0"
       refY="0"
       orient="auto"
       inkscape:stockid="Arrow1Mend">
      <path
         transform="matrix(-0.4,0,0,-0.4,-4,0)"
         style="fill:#000000;fill-opacity:1;fill-rule:evenodd;stroke:#000000;stroke-width:1pt;stroke-opacity:1"
         d="M 0,0 5,-5 -12.5,0 5,5 Z"
         id="path6785" />
    </marker>
    <marker
       inkscape:isstock="true"
       style="overflow:visible"
       id="marker6777"
       refX="0"
       refY="0"
       orient="auto"
       inkscape:stockid="Arrow1Mend">
      <path
         transform="matrix(-0.4,0,0,-0.4,-4,0)"
         style="fill:#000000;fill-opacity:1;fill-rule:evenodd;stroke:#000000;stroke-width:1pt;stroke-opacity:1"
         d="M 0,0 5,-5 -12.5,0 5,5 Z"
         id="path6775" />
    </marker>
    <marker
       inkscape:isstock="true"
       style="overflow:visible"
       id="marker6755"
       refX="0"
       refY="0"
       orient="auto"
       inkscape:stockid="Arrow1Mend">
      <path
         transform="matrix(-0.4,0,0,-0.4,-4,0)"
         style="fill:#000000;fill-opacity:1;fill-rule:evenodd;stroke:#000000;stroke-width:1pt;stroke-opacity:1"
         d="M 0,0 5,-5 -12.5,0 5,5 Z"
         id="path6753" />
    </marker>
    <marker
       inkscape:isstock="true"
       style="overflow:visible"
       id="marker6745"
       refX="0"
       refY="0"
       orient="auto"
       inkscape:stockid="Arrow1Mend">
      <path
         transform="matrix(-0.4,0,0,-0.4,-4,0)"
         style="fill:#000000;fill-opacity:1;fill-rule:evenodd;stroke:#000000;stroke-width:1pt;stroke-opacity:1"
         d="M 0,0 5,-5 -12.5,0 5,5 Z"
         id="path6743" />
    </marker>
    <marker
       inkscape:isstock="true"
       style="overflow:visible"
       id="marker6735"
       refX="0"
       refY="0"
       orient="auto"
       inkscape:stockid="Arrow1Mend">
      <path
         transform="matrix(-0.4,0,0,-0.4,-4,0)"
         style="fill:#000000;fill-opacity:1;fill-rule:evenodd;stroke:#000000;stroke-width:1pt;stroke-opacity:1"
         d="M 0,0 5,-5 -12.5,0 5,5 Z"
         id="path6733" />
    </marker>
    <marker
       inkscape:stockid="Arrow1Mend"
       orient="auto"
       refY="0"
       refX="0"
       id="marker6641"
       style="overflow:visible"
       inkscape:isstock="true">
      <path
         id="path6639"
         d="M 0,0 5,-5 -12.5,0 5,5 Z"
         style="fill:#000000;fill-opacity:1;fill-rule:evenodd;stroke:#000000;stroke-width:1pt;stroke-opacity:1"
         transform="matrix(-0.4,0,0,-0.4,-4,0)" />
    </marker>
    <marker
       inkscape:stockid="Arrow1Mend"
       orient="auto"
       refY="0"
       refX="0"
       id="marker6631"
       style="overflow:visible"
       inkscape:isstock="true">
      <path
         id="path6629"
         d="M 0,0 5,-5 -12.5,0 5,5 Z"
         style="fill:#000000;fill-opacity:1;fill-rule:evenodd;stroke:#000000;stroke-width:1pt;stroke-opacity:1"
         transform="matrix(-0.4,0,0,-0.4,-4,0)" />
    </marker>
    <marker
       inkscape:stockid="Arrow1Mend"
       orient="auto"
       refY="0"
       refX="0"
       id="marker1529"
       style="overflow:visible"
       inkscape:isstock="true">
      <path
         id="path1527"
         d="M 0,0 5,-5 -12.5,0 5,5 Z"
         style="fill:#000000;fill-opacity:1;fill-rule:evenodd;stroke:#000000;stroke-width:1pt;stroke-opacity:1"
         transform="matrix(-0.4,0,0,-0.4,-4,0)" />
    </marker>
    <marker
       inkscape:stockid="Arrow1Mend"
       orient="auto"
       refY="0"
       refX="0"
       id="marker3951"
       style="overflow:visible"
       inkscape:isstock="true">
      <path
         id="path3949"
         d="M 0,0 5,-5 -12.5,0 5,5 Z"
         style="fill:#000000;fill-opacity:1;fill-rule:evenodd;stroke:#000000;stroke-width:1pt;stroke-opacity:1"
         transform="matrix(-0.4,0,0,-0.4,-4,0)" />
    </marker>
    <marker
       inkscape:stockid="Arrow1Mend"
       orient="auto"
       refY="0"
       refX="0"
       id="marker3961"
       style="overflow:visible"
       inkscape:isstock="true">
      <path
         id="path3959"
         d="M 0,0 5,-5 -12.5,0 5,5 Z"
         style="fill:#000000;fill-opacity:1;fill-rule:evenodd;stroke:#000000;stroke-width:1pt;stroke-opacity:1"
         transform="matrix(-0.4,0,0,-0.4,-4,0)" />
    </marker>
  </defs>
  <sodipodi:namedview
     inkscape:snap-smooth-nodes="true"
     inkscape:object-nodes="false"
     inkscape:snap-intersection-paths="false"
     inkscape:window-maximized="1"
     inkscape:window-y="0"
     inkscape:window-x="0"
     inkscape:window-height="850"
     inkscape:window-width="1600"
     inkscape:snap-midpoints="true"
     showgrid="false"
     inkscape:document-rotation="0"
     inkscape:current-layer="layer1"
     inkscape:document-units="mm"
     inkscape:cy="266.54077"
     inkscape:cx="149.61357"
     inkscape:zoom="1.4"
     inkscape:pageshadow="2"
     inkscape:pageopacity="0.0"
     borderopacity="1.0"
     bordercolor="#666666"
     pagecolor="#ffffff"
     id="base"
     showguides="false"
     inkscape:snap-global="false" />
  <metadata
     id="metadata5346">
    <rdf:RDF>
      <cc:Work
         rdf:about="">
        <dc:format>image/svg+xml</dc:format>
        <dc:type
           rdf:resource="http://purl.org/dc/dcmitype/StillImage" />
        <dc:title></dc:title>
      </cc:Work>
    </rdf:RDF>
  </metadata>
  <g
     id="layer1"
     inkscape:groupmode="layer"
     inkscape:label="Layer 1">
    <g
       transform="matrix(0.67050533,0,0,0.67050533,4.6959826,-26.908201)"
       id="g5912">
      <path
         id="rect5906"
         style="opacity:0.707;fill:#fabe50;stroke:#000000;stroke-width:0.1961;stop-color:#000000"
         d="m 82.319754,124.92082 h 23.603886 c 0.41816,0 0.7548,0.33664 0.7548,0.7548 v 9.32986 c 0,0.41815 -0.33664,0.75479 -0.7548,0.75479 H 82.319754 c -0.418158,0 -0.754797,-0.33664 -0.754797,-0.75479 v -9.32986 c 0,-0.41816 0.336639,-0.7548 0.754797,-0.7548 z" />
      <g
         aria-label="Dense 1"
         id="text5910"
         style="font-size:4.93889px;line-height:1.25;font-family:sans-serif;-inkscape-font-specification:sans-serif;stroke-width:0.205901">
        <path
           d="m 84.927596,128.90567 v 2.79983 h 0.588422 q 0.745175,0 1.090029,-0.33762 0.347265,-0.33762 0.347265,-1.06591 0,-0.72347 -0.347265,-1.05868 -0.344854,-0.33762 -1.090029,-0.33762 z m -0.487137,-0.40032 h 1.000801 q 1.04662,0 1.536168,0.43649 0.489548,0.43409 0.489548,1.36013 0,0.93086 -0.491959,1.36736 -0.49196,0.43649 -1.533757,0.43649 h -1.000801 z"
           style="font-size:4.93889px;stroke-width:0.205901"
           id="path8423" />
        <path
           d="m 90.532078,130.64441 v 0.21704 h -2.040186 q 0.02894,0.4582 0.274919,0.69936 0.248392,0.23874 0.689708,0.23874 0.255626,0 0.494372,-0.0627 0.241156,-0.0627 0.47749,-0.1881 v 0.41961 q -0.238745,0.10129 -0.489548,0.15434 -0.250803,0.0531 -0.508841,0.0531 -0.6463,0 -1.024916,-0.37621 -0.376205,-0.3762 -0.376205,-1.01768 0,-0.66318 0.356912,-1.05144 0.359324,-0.39068 0.967039,-0.39068 0.545014,0 0.860929,0.35209 0.318327,0.34968 0.318327,0.95257 z m -0.443728,-0.13022 q -0.0048,-0.36415 -0.204983,-0.58119 -0.197749,-0.21704 -0.525722,-0.21704 -0.371381,0 -0.595657,0.2098 -0.221864,0.20981 -0.255626,0.59084 z"
           style="font-size:4.93889px;stroke-width:0.205901"
           id="path8425" />
        <path
           d="m 93.505541,130.4756 v 1.63022 h -0.443729 v -1.61575 q 0,-0.38344 -0.149517,-0.57395 -0.149517,-0.19052 -0.448551,-0.19052 -0.359324,0 -0.566719,0.2291 -0.207394,0.2291 -0.207394,0.6246 v 1.52652 h -0.44614 v -2.70096 h 0.44614 v 0.41962 q 0.159163,-0.24357 0.373792,-0.36415 0.217042,-0.12058 0.499195,-0.12058 0.465432,0 0.704178,0.28939 0.238745,0.28698 0.238745,0.84646 z"
           style="font-size:4.93889px;stroke-width:0.205901"
           id="path8427" />
        <path
           d="m 96.117269,129.48445 v 0.41961 q -0.188102,-0.0965 -0.390674,-0.1447 -0.202572,-0.0482 -0.419613,-0.0482 -0.330384,0 -0.496782,0.10129 -0.163987,0.10128 -0.163987,0.30386 0,0.15434 0.118167,0.24356 0.118167,0.0868 0.475079,0.1664 l 0.151928,0.0338 q 0.472667,0.10128 0.670416,0.28697 0.20016,0.18328 0.20016,0.51367 0,0.3762 -0.299034,0.59565 -0.296623,0.21946 -0.817522,0.21946 -0.217041,0 -0.453374,-0.0434 -0.233922,-0.041 -0.494372,-0.1254 v -0.4582 q 0.24598,0.12781 0.484725,0.19292 0.238746,0.0627 0.472668,0.0627 0.313503,0 0.482313,-0.10611 0.16881,-0.10852 0.16881,-0.30385 0,-0.18087 -0.12299,-0.27733 -0.120578,-0.0965 -0.532956,-0.18569 l -0.154341,-0.0362 q -0.412378,-0.0868 -0.595657,-0.26527 -0.183279,-0.18087 -0.183279,-0.49437 0,-0.38103 0.270095,-0.58842 0.270096,-0.2074 0.766879,-0.2074 0.24598,0 0.463021,0.0362 0.217041,0.0362 0.40032,0.10852 z"
           style="font-size:4.93889px;stroke-width:0.205901"
           id="path8429" />
        <path
           d="m 99.281245,130.64441 v 0.21704 h -2.040186 q 0.02894,0.4582 0.274919,0.69936 0.248391,0.23874 0.689708,0.23874 0.255626,0 0.494372,-0.0627 0.241156,-0.0627 0.47749,-0.1881 v 0.41961 q -0.238745,0.10129 -0.489548,0.15434 -0.250803,0.0531 -0.508841,0.0531 -0.6463,0 -1.024916,-0.37621 -0.376205,-0.3762 -0.376205,-1.01768 0,-0.66318 0.356912,-1.05144 0.359324,-0.39068 0.967039,-0.39068 0.545014,0 0.860929,0.35209 0.318327,0.34968 0.318327,0.95257 z m -0.443728,-0.13022 q -0.0048,-0.36415 -0.204983,-0.58119 -0.197749,-0.21704 -0.525722,-0.21704 -0.371381,0 -0.595657,0.2098 -0.221864,0.20981 -0.255626,0.59084 z"
           style="font-size:4.93889px;stroke-width:0.205901"
           id="path8431" />
        <path
           d="m 101.72899,131.69585 h 0.79581 v -2.74677 l -0.86575,0.17363 v -0.44373 l 0.86093,-0.17363 h 0.48714 v 3.1905 h 0.79581 v 0.40997 h -2.07394 z"
           style="font-size:4.93889px;stroke-width:0.205901"
           id="path8433" />
      </g>
    </g>
    <g
       transform="matrix(0.67050533,0,0,0.67050533,5.7208111,-38.436747)"
       id="g5920">
      <path
         id="rect5914"
         style="opacity:0.707;fill:#fabe50;stroke:#000000;stroke-width:0.1961;stop-color:#000000"
         d="M 80.791311,157.10873 H 104.3952 c 0.41816,0 0.7548,0.33664 0.7548,0.7548 v 9.32986 c 0,0.41816 -0.33664,0.75479 -0.7548,0.75479 H 80.791311 c -0.418157,0 -0.754797,-0.33663 -0.754797,-0.75479 v -9.32986 c 0,-0.41816 0.33664,-0.7548 0.754797,-0.7548 z" />
      <g
         aria-label="Dense 2"
         id="text5918"
         style="font-size:4.93889px;line-height:1.25;font-family:sans-serif;-inkscape-font-specification:sans-serif;stroke-width:0.264583">
        <path
           d="m 84.204619,161.12613 v 2.79983 h 0.588423 q 0.745174,0 1.090028,-0.33762 0.347266,-0.33762 0.347266,-1.06591 0,-0.72347 -0.347266,-1.05868 -0.344854,-0.33762 -1.090028,-0.33762 z m -0.487136,-0.40032 h 1.0008 q 1.04662,0 1.536168,0.43649 0.489549,0.43408 0.489549,1.36013 0,0.93086 -0.49196,1.36735 -0.49196,0.4365 -1.533757,0.4365 h -1.0008 z"
           style="font-size:4.93889px;stroke-width:0.264583"
           id="path8437" />
        <path
           d="m 89.809102,162.86487 v 0.21704 h -2.040186 q 0.02894,0.4582 0.274918,0.69935 0.248392,0.23875 0.689709,0.23875 0.255626,0 0.494371,-0.0627 0.241157,-0.0627 0.47749,-0.1881 v 0.41961 q -0.238745,0.10129 -0.489548,0.15434 -0.250803,0.053 -0.508841,0.053 -0.6463,0 -1.024916,-0.3762 -0.376204,-0.3762 -0.376204,-1.01768 0,-0.66318 0.356912,-1.05145 0.359323,-0.39067 0.967038,-0.39067 0.545014,0 0.86093,0.35209 0.318327,0.34968 0.318327,0.95257 z m -0.443729,-0.13023 q -0.0048,-0.36414 -0.204983,-0.58118 -0.197748,-0.21704 -0.525722,-0.21704 -0.371381,0 -0.595657,0.2098 -0.221864,0.20981 -0.255626,0.59084 z"
           style="font-size:4.93889px;stroke-width:0.264583"
           id="path8439" />
        <path
           d="m 92.782564,162.69606 v 1.63022 h -0.443728 v -1.61575 q 0,-0.38344 -0.149517,-0.57395 -0.149518,-0.19052 -0.448552,-0.19052 -0.359324,0 -0.566718,0.2291 -0.207395,0.2291 -0.207395,0.6246 v 1.52652 h -0.44614 v -2.70096 h 0.44614 v 0.41962 q 0.159163,-0.24357 0.373793,-0.36415 0.217041,-0.12058 0.499194,-0.12058 0.465433,0 0.704178,0.28939 0.238745,0.28698 0.238745,0.84646 z"
           style="font-size:4.93889px;stroke-width:0.264583"
           id="path8441" />
        <path
           d="m 95.394292,161.7049 v 0.41962 q -0.188102,-0.0965 -0.390674,-0.1447 -0.202571,-0.0482 -0.419612,-0.0482 -0.330385,0 -0.496783,0.10129 -0.163987,0.10128 -0.163987,0.30386 0,0.15434 0.118167,0.24356 0.118167,0.0868 0.475079,0.1664 l 0.151929,0.0338 q 0.472667,0.10129 0.670415,0.28698 0.20016,0.18328 0.20016,0.51366 0,0.37621 -0.299034,0.59566 -0.296623,0.21945 -0.817521,0.21945 -0.217041,0 -0.453375,-0.0434 -0.233922,-0.041 -0.494371,-0.12541 v -0.45819 q 0.24598,0.12781 0.484725,0.19292 0.238745,0.0627 0.472667,0.0627 0.313504,0 0.482313,-0.10611 0.16881,-0.10852 0.16881,-0.30385 0,-0.18087 -0.12299,-0.27733 -0.120578,-0.0965 -0.532956,-0.18569 l -0.15434,-0.0362 q -0.412379,-0.0868 -0.595658,-0.26527 -0.183279,-0.18087 -0.183279,-0.49437 0,-0.38103 0.270096,-0.58842 0.270095,-0.2074 0.766878,-0.2074 0.24598,0 0.463021,0.0362 0.217041,0.0362 0.40032,0.10852 z"
           style="font-size:4.93889px;stroke-width:0.264583"
           id="path8443" />
        <path
           d="m 98.558269,162.86487 v 0.21704 h -2.040186 q 0.02894,0.4582 0.274918,0.69935 0.248392,0.23875 0.689709,0.23875 0.255626,0 0.494371,-0.0627 0.241157,-0.0627 0.47749,-0.1881 v 0.41961 q -0.238745,0.10129 -0.489548,0.15434 -0.250803,0.053 -0.508841,0.053 -0.6463,0 -1.024916,-0.3762 -0.376204,-0.3762 -0.376204,-1.01768 0,-0.66318 0.356912,-1.05145 0.359323,-0.39067 0.967038,-0.39067 0.545014,0 0.86093,0.35209 0.318327,0.34968 0.318327,0.95257 z m -0.443729,-0.13023 q -0.0048,-0.36414 -0.204983,-0.58118 -0.197748,-0.21704 -0.525722,-0.21704 -0.371381,0 -0.595657,0.2098 -0.221864,0.20981 -0.255626,0.59084 z"
           style="font-size:4.93889px;stroke-width:0.264583"
           id="path8445" />
        <path
           d="m 101.34122,163.91631 h 1.70015 v 0.40997 h -2.28616 v -0.40997 q 0.27733,-0.28697 0.75482,-0.76929 0.4799,-0.48472 0.60289,-0.62459 0.23392,-0.26286 0.32556,-0.44373 0.094,-0.18328 0.094,-0.35933 0,-0.28697 -0.20257,-0.46784 -0.20016,-0.18087 -0.52331,-0.18087 -0.2291,0 -0.48473,0.0796 -0.25321,0.0796 -0.5426,0.24116 v -0.49196 q 0.29421,-0.11817 0.54984,-0.17845 0.25563,-0.0603 0.46784,-0.0603 0.55949,0 0.89228,0.27974 0.3328,0.27974 0.3328,0.74758 0,0.22187 -0.0844,0.42203 -0.082,0.19775 -0.30144,0.46784 -0.0603,0.0699 -0.38344,0.40515 -0.32315,0.33279 -0.91157,0.93327 z"
           style="font-size:4.93889px;stroke-width:0.264583"
           id="path8447" />
      </g>
    </g>
    <g
       transform="matrix(0.67050533,0,0,0.67050533,5.8856944,-46.875757)"
       id="g5928">
      <path
         id="rect5922"
         style="opacity:0.707;fill:#fabe50;stroke:#000000;stroke-width:0.1961;stop-color:#000000"
         d="m 80.545401,184.68887 h 23.603889 c 0.41816,0 0.7548,0.33664 0.7548,0.7548 v 9.32986 c 0,0.41815 -0.33664,0.75479 -0.7548,0.75479 H 80.545401 c -0.418158,0 -0.754797,-0.33664 -0.754797,-0.75479 v -9.32986 c 0,-0.41816 0.336639,-0.7548 0.754797,-0.7548 z" />
      <g
         aria-label="Dense 3"
         id="text5926"
         style="font-size:4.93889px;line-height:1.25;font-family:sans-serif;-inkscape-font-specification:sans-serif;stroke-width:0.217734">
        <path
           d="m 83.123099,188.70627 v 2.79983 h 0.588423 q 0.745174,0 1.090028,-0.33762 0.347266,-0.33762 0.347266,-1.06591 0,-0.72347 -0.347266,-1.05868 -0.344854,-0.33762 -1.090028,-0.33762 z m -0.487136,-0.40032 h 1.0008 q 1.04662,0 1.536168,0.43649 0.489549,0.43408 0.489549,1.36013 0,0.93086 -0.49196,1.36735 -0.49196,0.4365 -1.533757,0.4365 h -1.0008 z"
           style="font-size:4.93889px;stroke-width:0.217734"
           id="path8451" />
        <path
           d="m 88.727582,190.44501 v 0.21704 h -2.040186 q 0.02894,0.4582 0.274918,0.69935 0.248392,0.23875 0.689709,0.23875 0.255626,0 0.494371,-0.0627 0.241157,-0.0627 0.47749,-0.1881 v 0.41961 q -0.238745,0.10128 -0.489548,0.15434 -0.250803,0.053 -0.508841,0.053 -0.6463,0 -1.024916,-0.3762 -0.376204,-0.37621 -0.376204,-1.01768 0,-0.66318 0.356912,-1.05145 0.359323,-0.39067 0.967038,-0.39067 0.545014,0 0.86093,0.35209 0.318327,0.34968 0.318327,0.95257 z m -0.443729,-0.13023 q -0.0048,-0.36414 -0.204983,-0.58118 -0.197749,-0.21705 -0.525722,-0.21705 -0.371381,0 -0.595657,0.20981 -0.221864,0.20981 -0.255626,0.59083 z"
           style="font-size:4.93889px;stroke-width:0.217734"
           id="path8453" />
        <path
           d="m 91.701044,190.2762 v 1.63022 h -0.443728 v -1.61575 q 0,-0.38344 -0.149518,-0.57396 -0.149517,-0.19051 -0.448551,-0.19051 -0.359324,0 -0.566718,0.2291 -0.207395,0.2291 -0.207395,0.6246 v 1.52652 h -0.44614 v -2.70096 h 0.44614 v 0.41962 q 0.159163,-0.24357 0.373793,-0.36415 0.217041,-0.12058 0.499194,-0.12058 0.465433,0 0.704178,0.28939 0.238745,0.28697 0.238745,0.84646 z"
           style="font-size:4.93889px;stroke-width:0.217734"
           id="path8455" />
        <path
           d="m 94.312772,189.28504 v 0.41962 q -0.188102,-0.0965 -0.390674,-0.1447 -0.202571,-0.0482 -0.419612,-0.0482 -0.330385,0 -0.496783,0.10129 -0.163987,0.10128 -0.163987,0.30385 0,0.15435 0.118167,0.24357 0.118167,0.0868 0.475079,0.1664 l 0.151928,0.0338 q 0.472668,0.10129 0.670416,0.28698 0.20016,0.18328 0.20016,0.51366 0,0.37621 -0.299034,0.59566 -0.296623,0.21945 -0.817521,0.21945 -0.217041,0 -0.453375,-0.0434 -0.233922,-0.041 -0.494371,-0.12541 v -0.45819 q 0.24598,0.12781 0.484725,0.19292 0.238745,0.0627 0.472667,0.0627 0.313504,0 0.482313,-0.10611 0.16881,-0.10852 0.16881,-0.30385 0,-0.18087 -0.12299,-0.27733 -0.120578,-0.0965 -0.532956,-0.1857 l -0.154341,-0.0362 q -0.412378,-0.0868 -0.595657,-0.26527 -0.183279,-0.18087 -0.183279,-0.49437 0,-0.38103 0.270096,-0.58843 0.270095,-0.20739 0.766878,-0.20739 0.24598,0 0.463021,0.0362 0.217041,0.0362 0.40032,0.10852 z"
           style="font-size:4.93889px;stroke-width:0.217734"
           id="path8457" />
        <path
           d="m 97.476749,190.44501 v 0.21704 h -2.040186 q 0.02894,0.4582 0.274918,0.69935 0.248392,0.23875 0.689709,0.23875 0.255626,0 0.494371,-0.0627 0.241157,-0.0627 0.47749,-0.1881 v 0.41961 q -0.238745,0.10128 -0.489548,0.15434 -0.250803,0.053 -0.508841,0.053 -0.6463,0 -1.024916,-0.3762 -0.376204,-0.37621 -0.376204,-1.01768 0,-0.66318 0.356912,-1.05145 0.359323,-0.39067 0.967038,-0.39067 0.545014,0 0.86093,0.35209 0.318327,0.34968 0.318327,0.95257 z m -0.443729,-0.13023 q -0.0048,-0.36414 -0.204983,-0.58118 -0.197749,-0.21705 -0.525722,-0.21705 -0.371381,0 -0.595657,0.20981 -0.221864,0.20981 -0.255626,0.59083 z"
           style="font-size:4.93889px;stroke-width:0.217734"
           id="path8459" />
        <path
           d="m 101.31596,189.96511 q 0.34968,0.0747 0.54502,0.31109 0.19775,0.23633 0.19775,0.5836 0,0.53295 -0.36656,0.82475 -0.36656,0.2918 -1.0418,0.2918 -0.22669,0 -0.46784,-0.0458 -0.238749,-0.0434 -0.494375,-0.13263 v -0.47026 q 0.202572,0.11817 0.443725,0.17846 0.24116,0.0603 0.50402,0.0603 0.4582,0 0.69694,-0.18087 0.24116,-0.18087 0.24116,-0.52572 0,-0.31833 -0.22427,-0.49679 -0.22187,-0.18086 -0.61978,-0.18086 h -0.41961 v -0.40032 h 0.4389 q 0.35933,0 0.54984,-0.14229 0.19052,-0.14469 0.19052,-0.41479 0,-0.27733 -0.19775,-0.42443 -0.19534,-0.14952 -0.5619,-0.14952 -0.20016,0 -0.42926,0.0434 -0.2291,0.0434 -0.504014,0.13505 v -0.43408 q 0.277334,-0.0772 0.518484,-0.11576 0.24357,-0.0386 0.4582,-0.0386 0.55466,0 0.87781,0.25321 0.32315,0.2508 0.32315,0.68006 0,0.29904 -0.17122,0.50643 -0.17122,0.20498 -0.48714,0.28457 z"
           style="font-size:4.93889px;stroke-width:0.217734"
           id="path8461" />
      </g>
    </g>
    <g
       transform="matrix(0.67050533,0,0,0.67050533,30.366923,-17.148778)"
       id="g5938">
      <g
         id="g5936">
        <path
           id="rect5930"
           style="opacity:0.707;fill:#fabe50;stroke:#000000;stroke-width:0.1961;stop-color:#000000"
           d="m 44.033792,95.371399 h 23.60389 c 0.418158,0 0.754797,0.336639 0.754797,0.754797 v 9.329854 c 0,0.41816 -0.336639,0.7548 -0.754797,0.7548 h -23.60389 c -0.418157,0 -0.754796,-0.33664 -0.754796,-0.7548 v -9.329854 c 0,-0.418158 0.336639,-0.754797 0.754796,-0.754797 z" />
        <g
           aria-label="LSTM 2"
           id="text5934"
           style="font-size:4.93889px;line-height:1.25;font-family:sans-serif;-inkscape-font-specification:sans-serif;stroke-width:0.198741">
          <path
             d="m 47.365108,98.988481 h 0.487136 v 3.190499 h 1.75321 v 0.40997 h -2.240346 z"
             style="font-size:4.93889px;stroke-width:0.198741"
             id="path8465" />
          <path
             d="m 52.272647,99.106648 v 0.475079 q -0.27733,-0.132637 -0.52331,-0.197749 -0.24598,-0.06511 -0.475079,-0.06511 -0.397908,0 -0.614949,0.15434 -0.21463,0.15434 -0.21463,0.438905 0,0.238747 0.142283,0.361737 0.144694,0.12057 0.545014,0.19533 l 0.294211,0.0603 q 0.545014,0.1037 0.803052,0.36656 0.260449,0.26045 0.260449,0.69936 0,0.52331 -0.352089,0.7934 -0.349677,0.2701 -1.027327,0.2701 -0.255626,0 -0.545015,-0.0579 -0.286976,-0.0579 -0.595657,-0.17122 v -0.50161 q 0.296623,0.1664 0.581188,0.2508 0.284565,0.0844 0.559484,0.0844 0.417201,0 0.643888,-0.16399 0.226687,-0.16398 0.226687,-0.46784 0,-0.26527 -0.163986,-0.41479 -0.161575,-0.14952 -0.532956,-0.22428 l -0.296623,-0.0579 q -0.545015,-0.10852 -0.788583,-0.34004 -0.243568,-0.23151 -0.243568,-0.643882 0,-0.47749 0.335208,-0.752409 0.337619,-0.274918 0.928453,-0.274918 0.253215,0 0.516076,0.04582 0.26286,0.04582 0.537779,0.13746 z"
             style="font-size:4.93889px;stroke-width:0.198741"
             id="path8467" />
          <path
             d="m 52.750138,98.988481 h 3.045809 v 0.409966 h -1.278131 v 3.190503 h -0.489548 v -3.190503 h -1.27813 z"
             style="font-size:4.93889px;stroke-width:0.198741"
             id="path8469" />
          <path
             d="m 56.268615,98.988481 h 0.725882 l 0.918807,2.450149 0.92363,-2.450149 h 0.725882 v 3.600469 h -0.475079 v -3.161564 l -0.928453,2.469444 h -0.489549 l -0.928453,-2.469444 v 3.161564 h -0.472667 z"
             style="font-size:4.93889px;stroke-width:0.198741"
             id="path8471" />
          <path
             d="m 62.567629,102.17898 h 1.700155 v 0.40997 h -2.286166 v -0.40997 q 0.27733,-0.28697 0.75482,-0.76929 0.479902,-0.48472 0.602892,-0.62459 0.233922,-0.26286 0.325562,-0.44373 0.09405,-0.18328 0.09405,-0.359323 0,-0.286977 -0.202572,-0.467844 -0.20016,-0.180868 -0.52331,-0.180868 -0.229099,0 -0.484725,0.07958 -0.253215,0.07958 -0.542603,0.241157 v -0.49196 q 0.294212,-0.118167 0.549838,-0.178456 0.255626,-0.06029 0.467844,-0.06029 0.559483,0 0.89228,0.279742 0.332796,0.279741 0.332796,0.747585 0,0.221867 -0.08441,0.422027 -0.08199,0.19775 -0.301446,0.46784 -0.06029,0.0699 -0.383439,0.40515 -0.32315,0.33279 -0.911572,0.93327 z"
             style="font-size:4.93889px;stroke-width:0.198741"
             id="path8473" />
        </g>
      </g>
    </g>
    <path
       id="path5940"
       d="m 67.805083,54.066163 v 2.785713"
       style="fill:none;fill-rule:evenodd;stroke:#000000;stroke-width:0.177684;stroke-linecap:butt;stroke-linejoin:miter;stroke-miterlimit:4;stroke-dasharray:none;stroke-opacity:1;marker-end:url(#marker6755)" />
    <path
       id="path5942"
       d="m 67.805083,64.119786 v 2.78571"
       style="fill:none;fill-rule:evenodd;stroke:#000000;stroke-width:0.177684;stroke-linecap:butt;stroke-linejoin:miter;stroke-miterlimit:4;stroke-dasharray:none;stroke-opacity:1;marker-end:url(#marker6745)" />
    <path
       id="path5944"
       d="m 67.805083,74.173406 v 2.785711"
       style="fill:none;fill-rule:evenodd;stroke:#000000;stroke-width:0.177684;stroke-linecap:butt;stroke-linejoin:miter;stroke-miterlimit:4;stroke-dasharray:none;stroke-opacity:1;marker-end:url(#marker6735)" />
    <path
       id="path6627"
       d="m 67.805076,84.227025 v 5.540036"
       style="fill:none;stroke:#000000;stroke-width:0.177404px;stroke-linecap:butt;stroke-linejoin:miter;stroke-opacity:1;marker-end:url(#marker6641)" />
    <g
       id="g1077"
       transform="matrix(0.67050533,0,0,0.67050533,-7.5814374,-9.9757564)">
      <path
         id="rect857-40-9"
         style="opacity:0.707;fill:#fabe50;stroke:#000000;stroke-width:0.1961;stop-color:#000000"
         d="m 78.600592,67.503288 h 23.603888 c 0.41816,0 0.7548,0.33664 0.7548,0.754797 v 9.329857 c 0,0.418158 -0.33664,0.754797 -0.7548,0.754797 H 78.600592 c -0.418158,0 -0.754797,-0.336639 -0.754797,-0.754797 v -9.329857 c 0,-0.418157 0.336639,-0.754797 0.754797,-0.754797 z" />
      <g
         aria-label="Flatten"
         id="text839"
         style="font-size:4.93889px;line-height:1.25;font-family:sans-serif;-inkscape-font-specification:sans-serif;stroke-width:0.264583">
        <path
           d="m 82.209235,71.163774 h 2.069125 v 0.409966 h -1.581988 v 1.06109 h 1.427648 v 0.409967 h -1.427648 v 1.719447 h -0.487137 z"
           style="font-size:4.93889px;stroke-width:0.264583"
           id="path8283" />
        <path
           d="m 85.035592,71.011845 h 0.443729 v 3.752399 h -0.443729 z"
           style="font-size:4.93889px;stroke-width:0.264583"
           id="path8285" />
        <path
           d="m 87.63285,73.406532 q -0.537779,0 -0.745174,0.12299 -0.207395,0.12299 -0.207395,0.419612 0,0.236334 0.15434,0.376205 0.156752,0.137459 0.424436,0.137459 0.36897,0 0.590834,-0.260449 0.224276,-0.262861 0.224276,-0.696943 v -0.09887 z m 0.885045,-0.183279 v 1.540991 h -0.443728 v -0.409966 q -0.151929,0.245979 -0.378616,0.364146 -0.226687,0.115756 -0.55466,0.115756 -0.41479,0 -0.66077,-0.231511 -0.243568,-0.233922 -0.243568,-0.624596 0,-0.455786 0.303857,-0.687297 0.306269,-0.23151 0.911573,-0.23151 h 0.622184 v -0.04341 q 0,-0.306269 -0.202572,-0.472667 -0.20016,-0.16881 -0.564306,-0.16881 -0.231511,0 -0.450963,0.05547 -0.219453,0.05547 -0.422025,0.166398 v -0.409966 q 0.243569,-0.09405 0.472667,-0.139871 0.229099,-0.04823 0.44614,-0.04823 0.586011,0 0.875399,0.303858 0.289388,0.303857 0.289388,0.921219 z"
           style="font-size:4.93889px;stroke-width:0.264583"
           id="path8287" />
        <path
           d="m 89.873196,71.29641 v 0.766879 h 0.913985 v 0.344854 h -0.913985 v 1.466233 q 0,0.330384 0.08923,0.424436 0.09164,0.09405 0.36897,0.09405 h 0.455787 v 0.371381 h -0.455787 q -0.513664,0 -0.709001,-0.190514 -0.195336,-0.192925 -0.195336,-0.699354 v -1.466233 h -0.325562 v -0.344854 h 0.325562 V 71.29641 Z"
           style="font-size:4.93889px;stroke-width:0.264583"
           id="path8289" />
        <path
           d="m 91.812096,71.29641 v 0.766879 h 0.913985 v 0.344854 h -0.913985 v 1.466233 q 0,0.330384 0.08923,0.424436 0.09164,0.09405 0.36897,0.09405 h 0.455787 v 0.371381 h -0.455787 q -0.513664,0 -0.709001,-0.190514 -0.195336,-0.192925 -0.195336,-0.699354 v -1.466233 h -0.325562 v -0.344854 h 0.325562 V 71.29641 Z"
           style="font-size:4.93889px;stroke-width:0.264583"
           id="path8291" />
        <path
           d="m 95.622373,73.302834 v 0.217041 h -2.040186 q 0.02894,0.458198 0.274918,0.699355 0.248392,0.238745 0.689709,0.238745 0.255626,0 0.494371,-0.0627 0.241157,-0.0627 0.47749,-0.188102 v 0.419613 q -0.238745,0.101286 -0.489548,0.15434 -0.250803,0.05306 -0.508841,0.05306 -0.6463,0 -1.024916,-0.376205 -0.376204,-0.376204 -0.376204,-1.017681 0,-0.663181 0.356912,-1.051444 0.359323,-0.390674 0.967038,-0.390674 0.545015,0 0.86093,0.352089 0.318327,0.349677 0.318327,0.952569 z M 95.178644,73.17261 q -0.0048,-0.364147 -0.204983,-0.581188 -0.197748,-0.217041 -0.525722,-0.217041 -0.371381,0 -0.595657,0.209806 -0.221864,0.209807 -0.255626,0.590834 z"
           style="font-size:4.93889px;stroke-width:0.264583"
           id="path8293" />
        <path
           d="m 98.595836,73.134025 v 1.630219 h -0.443729 v -1.61575 q 0,-0.383439 -0.149517,-0.573953 -0.149517,-0.190514 -0.448551,-0.190514 -0.359324,0 -0.566719,0.229099 -0.207395,0.229099 -0.207395,0.624596 v 1.526522 h -0.44614 v -2.700955 h 0.44614 v 0.419612 q 0.159164,-0.243568 0.373793,-0.364146 0.217041,-0.120579 0.499195,-0.120579 0.465432,0 0.704177,0.289388 0.238746,0.286977 0.238746,0.846461 z"
           style="font-size:4.93889px;stroke-width:0.264583"
           id="path8295" />
      </g>
    </g>
    <g
       id="g983"
       transform="matrix(0.67050533,0,0,0.67050533,-24.568084,-26.9082)">
      <path
         id="rect857"
         style="opacity:0.707;fill:#fabe50;stroke:#000000;stroke-width:0.1961;stop-color:#000000"
         d="m 82.319754,124.92082 h 23.603886 c 0.41816,0 0.7548,0.33664 0.7548,0.7548 v 9.32986 c 0,0.41815 -0.33664,0.75479 -0.7548,0.75479 H 82.319754 c -0.418158,0 -0.754797,-0.33664 -0.754797,-0.75479 v -9.32986 c 0,-0.41816 0.336639,-0.7548 0.754797,-0.7548 z" />
      <g
         aria-label="Dense 1"
         id="text843"
         style="font-size:4.93889px;line-height:1.25;font-family:sans-serif;-inkscape-font-specification:sans-serif;stroke-width:0.205901">
        <path
           d="m 84.927596,128.90567 v 2.79983 h 0.588422 q 0.745175,0 1.090029,-0.33762 0.347265,-0.33762 0.347265,-1.06591 0,-0.72347 -0.347265,-1.05868 -0.344854,-0.33762 -1.090029,-0.33762 z m -0.487137,-0.40032 h 1.000801 q 1.04662,0 1.536168,0.43649 0.489548,0.43409 0.489548,1.36013 0,0.93086 -0.491959,1.36736 -0.49196,0.43649 -1.533757,0.43649 h -1.000801 z"
           style="font-size:4.93889px;stroke-width:0.205901"
           id="path8299" />
        <path
           d="m 90.532078,130.64441 v 0.21704 h -2.040186 q 0.02894,0.4582 0.274919,0.69936 0.248392,0.23874 0.689708,0.23874 0.255626,0 0.494372,-0.0627 0.241156,-0.0627 0.47749,-0.1881 v 0.41961 q -0.238745,0.10129 -0.489548,0.15434 -0.250803,0.0531 -0.508841,0.0531 -0.6463,0 -1.024916,-0.37621 -0.376205,-0.3762 -0.376205,-1.01768 0,-0.66318 0.356912,-1.05144 0.359324,-0.39068 0.967039,-0.39068 0.545014,0 0.860929,0.35209 0.318327,0.34968 0.318327,0.95257 z m -0.443728,-0.13022 q -0.0048,-0.36415 -0.204983,-0.58119 -0.197749,-0.21704 -0.525722,-0.21704 -0.371381,0 -0.595657,0.2098 -0.221864,0.20981 -0.255626,0.59084 z"
           style="font-size:4.93889px;stroke-width:0.205901"
           id="path8301" />
        <path
           d="m 93.505541,130.4756 v 1.63022 h -0.443729 v -1.61575 q 0,-0.38344 -0.149517,-0.57395 -0.149517,-0.19052 -0.448551,-0.19052 -0.359324,0 -0.566719,0.2291 -0.207394,0.2291 -0.207394,0.6246 v 1.52652 h -0.44614 v -2.70096 h 0.44614 v 0.41962 q 0.159163,-0.24357 0.373792,-0.36415 0.217042,-0.12058 0.499195,-0.12058 0.465432,0 0.704178,0.28939 0.238745,0.28698 0.238745,0.84646 z"
           style="font-size:4.93889px;stroke-width:0.205901"
           id="path8303" />
        <path
           d="m 96.117269,129.48445 v 0.41961 q -0.188102,-0.0965 -0.390674,-0.1447 -0.202572,-0.0482 -0.419613,-0.0482 -0.330384,0 -0.496782,0.10129 -0.163987,0.10128 -0.163987,0.30386 0,0.15434 0.118167,0.24356 0.118167,0.0868 0.475079,0.1664 l 0.151928,0.0338 q 0.472667,0.10128 0.670416,0.28697 0.20016,0.18328 0.20016,0.51367 0,0.3762 -0.299034,0.59565 -0.296623,0.21946 -0.817522,0.21946 -0.217041,0 -0.453374,-0.0434 -0.233922,-0.041 -0.494372,-0.1254 v -0.4582 q 0.24598,0.12781 0.484725,0.19292 0.238746,0.0627 0.472668,0.0627 0.313503,0 0.482313,-0.10611 0.16881,-0.10852 0.16881,-0.30385 0,-0.18087 -0.12299,-0.27733 -0.120578,-0.0965 -0.532956,-0.18569 l -0.154341,-0.0362 q -0.412378,-0.0868 -0.595657,-0.26527 -0.183279,-0.18087 -0.183279,-0.49437 0,-0.38103 0.270095,-0.58842 0.270096,-0.2074 0.766879,-0.2074 0.24598,0 0.463021,0.0362 0.217041,0.0362 0.40032,0.10852 z"
           style="font-size:4.93889px;stroke-width:0.205901"
           id="path8305" />
        <path
           d="m 99.281245,130.64441 v 0.21704 h -2.040186 q 0.02894,0.4582 0.274919,0.69936 0.248391,0.23874 0.689708,0.23874 0.255626,0 0.494372,-0.0627 0.241156,-0.0627 0.47749,-0.1881 v 0.41961 q -0.238745,0.10129 -0.489548,0.15434 -0.250803,0.0531 -0.508841,0.0531 -0.6463,0 -1.024916,-0.37621 -0.376205,-0.3762 -0.376205,-1.01768 0,-0.66318 0.356912,-1.05144 0.359324,-0.39068 0.967039,-0.39068 0.545014,0 0.860929,0.35209 0.318327,0.34968 0.318327,0.95257 z m -0.443728,-0.13022 q -0.0048,-0.36415 -0.204983,-0.58119 -0.197749,-0.21704 -0.525722,-0.21704 -0.371381,0 -0.595657,0.2098 -0.221864,0.20981 -0.255626,0.59084 z"
           style="font-size:4.93889px;stroke-width:0.205901"
           id="path8307" />
        <path
           d="m 101.72899,131.69585 h 0.79581 v -2.74677 l -0.86575,0.17363 v -0.44373 l 0.86093,-0.17363 h 0.48714 v 3.1905 h 0.79581 v 0.40997 h -2.07394 z"
           style="font-size:4.93889px;stroke-width:0.205901"
           id="path8309" />
      </g>
    </g>
    <g
       id="g973"
       transform="matrix(0.67050533,0,0,0.67050533,-23.543255,-38.436746)">
      <path
         id="rect857-4"
         style="opacity:0.707;fill:#fabe50;stroke:#000000;stroke-width:0.1961;stop-color:#000000"
         d="M 80.791311,157.10873 H 104.3952 c 0.41816,0 0.7548,0.33664 0.7548,0.7548 v 9.32986 c 0,0.41816 -0.33664,0.75479 -0.7548,0.75479 H 80.791311 c -0.418157,0 -0.754797,-0.33663 -0.754797,-0.75479 v -9.32986 c 0,-0.41816 0.33664,-0.7548 0.754797,-0.7548 z" />
      <g
         aria-label="Dense 2"
         id="text847"
         style="font-size:4.93889px;line-height:1.25;font-family:sans-serif;-inkscape-font-specification:sans-serif;stroke-width:0.264583">
        <path
           d="m 84.204619,161.12613 v 2.79983 h 0.588423 q 0.745174,0 1.090028,-0.33762 0.347266,-0.33762 0.347266,-1.06591 0,-0.72347 -0.347266,-1.05868 -0.344854,-0.33762 -1.090028,-0.33762 z m -0.487136,-0.40032 h 1.0008 q 1.04662,0 1.536168,0.43649 0.489549,0.43408 0.489549,1.36013 0,0.93086 -0.49196,1.36735 -0.49196,0.4365 -1.533757,0.4365 h -1.0008 z"
           style="font-size:4.93889px;stroke-width:0.264583"
           id="path8313" />
        <path
           d="m 89.809102,162.86487 v 0.21704 h -2.040186 q 0.02894,0.4582 0.274918,0.69935 0.248392,0.23875 0.689709,0.23875 0.255626,0 0.494371,-0.0627 0.241157,-0.0627 0.47749,-0.1881 v 0.41961 q -0.238745,0.10129 -0.489548,0.15434 -0.250803,0.053 -0.508841,0.053 -0.6463,0 -1.024916,-0.3762 -0.376204,-0.3762 -0.376204,-1.01768 0,-0.66318 0.356912,-1.05145 0.359323,-0.39067 0.967038,-0.39067 0.545014,0 0.86093,0.35209 0.318327,0.34968 0.318327,0.95257 z m -0.443729,-0.13023 q -0.0048,-0.36414 -0.204983,-0.58118 -0.197748,-0.21704 -0.525722,-0.21704 -0.371381,0 -0.595657,0.2098 -0.221864,0.20981 -0.255626,0.59084 z"
           style="font-size:4.93889px;stroke-width:0.264583"
           id="path8315" />
        <path
           d="m 92.782564,162.69606 v 1.63022 h -0.443728 v -1.61575 q 0,-0.38344 -0.149517,-0.57395 -0.149518,-0.19052 -0.448552,-0.19052 -0.359324,0 -0.566718,0.2291 -0.207395,0.2291 -0.207395,0.6246 v 1.52652 h -0.44614 v -2.70096 h 0.44614 v 0.41962 q 0.159163,-0.24357 0.373793,-0.36415 0.217041,-0.12058 0.499194,-0.12058 0.465433,0 0.704178,0.28939 0.238745,0.28698 0.238745,0.84646 z"
           style="font-size:4.93889px;stroke-width:0.264583"
           id="path8317" />
        <path
           d="m 95.394292,161.7049 v 0.41962 q -0.188102,-0.0965 -0.390674,-0.1447 -0.202571,-0.0482 -0.419612,-0.0482 -0.330385,0 -0.496783,0.10129 -0.163987,0.10128 -0.163987,0.30386 0,0.15434 0.118167,0.24356 0.118167,0.0868 0.475079,0.1664 l 0.151929,0.0338 q 0.472667,0.10129 0.670415,0.28698 0.20016,0.18328 0.20016,0.51366 0,0.37621 -0.299034,0.59566 -0.296623,0.21945 -0.817521,0.21945 -0.217041,0 -0.453375,-0.0434 -0.233922,-0.041 -0.494371,-0.12541 v -0.45819 q 0.24598,0.12781 0.484725,0.19292 0.238745,0.0627 0.472667,0.0627 0.313504,0 0.482313,-0.10611 0.16881,-0.10852 0.16881,-0.30385 0,-0.18087 -0.12299,-0.27733 -0.120578,-0.0965 -0.532956,-0.18569 l -0.15434,-0.0362 q -0.412379,-0.0868 -0.595658,-0.26527 -0.183279,-0.18087 -0.183279,-0.49437 0,-0.38103 0.270096,-0.58842 0.270095,-0.2074 0.766878,-0.2074 0.24598,0 0.463021,0.0362 0.217041,0.0362 0.40032,0.10852 z"
           style="font-size:4.93889px;stroke-width:0.264583"
           id="path8319" />
        <path
           d="m 98.558269,162.86487 v 0.21704 h -2.040186 q 0.02894,0.4582 0.274918,0.69935 0.248392,0.23875 0.689709,0.23875 0.255626,0 0.494371,-0.0627 0.241157,-0.0627 0.47749,-0.1881 v 0.41961 q -0.238745,0.10129 -0.489548,0.15434 -0.250803,0.053 -0.508841,0.053 -0.6463,0 -1.024916,-0.3762 -0.376204,-0.3762 -0.376204,-1.01768 0,-0.66318 0.356912,-1.05145 0.359323,-0.39067 0.967038,-0.39067 0.545014,0 0.86093,0.35209 0.318327,0.34968 0.318327,0.95257 z m -0.443729,-0.13023 q -0.0048,-0.36414 -0.204983,-0.58118 -0.197748,-0.21704 -0.525722,-0.21704 -0.371381,0 -0.595657,0.2098 -0.221864,0.20981 -0.255626,0.59084 z"
           style="font-size:4.93889px;stroke-width:0.264583"
           id="path8321" />
        <path
           d="m 101.34122,163.91631 h 1.70015 v 0.40997 h -2.28616 v -0.40997 q 0.27733,-0.28697 0.75482,-0.76929 0.4799,-0.48472 0.60289,-0.62459 0.23392,-0.26286 0.32556,-0.44373 0.094,-0.18328 0.094,-0.35933 0,-0.28697 -0.20257,-0.46784 -0.20016,-0.18087 -0.52331,-0.18087 -0.2291,0 -0.48473,0.0796 -0.25321,0.0796 -0.5426,0.24116 v -0.49196 q 0.29421,-0.11817 0.54984,-0.17845 0.25563,-0.0603 0.46784,-0.0603 0.55949,0 0.89228,0.27974 0.3328,0.27974 0.3328,0.74758 0,0.22187 -0.0844,0.42203 -0.082,0.19775 -0.30144,0.46784 -0.0603,0.0699 -0.38344,0.40515 -0.32315,0.33279 -0.91157,0.93327 z"
           style="font-size:4.93889px;stroke-width:0.264583"
           id="path8323" />
      </g>
    </g>
    <g
       id="g978"
       transform="matrix(0.67050533,0,0,0.67050533,-23.378372,-46.875756)">
      <path
         id="rect857-4-7"
         style="opacity:0.707;fill:#fabe50;stroke:#000000;stroke-width:0.1961;stop-color:#000000"
         d="m 80.545401,184.68887 h 23.603889 c 0.41816,0 0.7548,0.33664 0.7548,0.7548 v 9.32986 c 0,0.41815 -0.33664,0.75479 -0.7548,0.75479 H 80.545401 c -0.418158,0 -0.754797,-0.33664 -0.754797,-0.75479 v -9.32986 c 0,-0.41816 0.336639,-0.7548 0.754797,-0.7548 z" />
      <g
         aria-label="Dense 3"
         id="text851"
         style="font-size:4.93889px;line-height:1.25;font-family:sans-serif;-inkscape-font-specification:sans-serif;stroke-width:0.217734">
        <path
           d="m 83.123099,188.70627 v 2.79983 h 0.588423 q 0.745174,0 1.090028,-0.33762 0.347266,-0.33762 0.347266,-1.06591 0,-0.72347 -0.347266,-1.05868 -0.344854,-0.33762 -1.090028,-0.33762 z m -0.487136,-0.40032 h 1.0008 q 1.04662,0 1.536168,0.43649 0.489549,0.43408 0.489549,1.36013 0,0.93086 -0.49196,1.36735 -0.49196,0.4365 -1.533757,0.4365 h -1.0008 z"
           style="font-size:4.93889px;stroke-width:0.217734"
           id="path8327" />
        <path
           d="m 88.727582,190.44501 v 0.21704 h -2.040186 q 0.02894,0.4582 0.274918,0.69935 0.248392,0.23875 0.689709,0.23875 0.255626,0 0.494371,-0.0627 0.241157,-0.0627 0.47749,-0.1881 v 0.41961 q -0.238745,0.10128 -0.489548,0.15434 -0.250803,0.053 -0.508841,0.053 -0.6463,0 -1.024916,-0.3762 -0.376204,-0.37621 -0.376204,-1.01768 0,-0.66318 0.356912,-1.05145 0.359323,-0.39067 0.967038,-0.39067 0.545014,0 0.86093,0.35209 0.318327,0.34968 0.318327,0.95257 z m -0.443729,-0.13023 q -0.0048,-0.36414 -0.204983,-0.58118 -0.197749,-0.21705 -0.525722,-0.21705 -0.371381,0 -0.595657,0.20981 -0.221864,0.20981 -0.255626,0.59083 z"
           style="font-size:4.93889px;stroke-width:0.217734"
           id="path8329" />
        <path
           d="m 91.701044,190.2762 v 1.63022 h -0.443728 v -1.61575 q 0,-0.38344 -0.149518,-0.57396 -0.149517,-0.19051 -0.448551,-0.19051 -0.359324,0 -0.566718,0.2291 -0.207395,0.2291 -0.207395,0.6246 v 1.52652 h -0.44614 v -2.70096 h 0.44614 v 0.41962 q 0.159163,-0.24357 0.373793,-0.36415 0.217041,-0.12058 0.499194,-0.12058 0.465433,0 0.704178,0.28939 0.238745,0.28697 0.238745,0.84646 z"
           style="font-size:4.93889px;stroke-width:0.217734"
           id="path8331" />
        <path
           d="m 94.312772,189.28504 v 0.41962 q -0.188102,-0.0965 -0.390674,-0.1447 -0.202571,-0.0482 -0.419612,-0.0482 -0.330385,0 -0.496783,0.10129 -0.163987,0.10128 -0.163987,0.30385 0,0.15435 0.118167,0.24357 0.118167,0.0868 0.475079,0.1664 l 0.151928,0.0338 q 0.472668,0.10129 0.670416,0.28698 0.20016,0.18328 0.20016,0.51366 0,0.37621 -0.299034,0.59566 -0.296623,0.21945 -0.817521,0.21945 -0.217041,0 -0.453375,-0.0434 -0.233922,-0.041 -0.494371,-0.12541 v -0.45819 q 0.24598,0.12781 0.484725,0.19292 0.238745,0.0627 0.472667,0.0627 0.313504,0 0.482313,-0.10611 0.16881,-0.10852 0.16881,-0.30385 0,-0.18087 -0.12299,-0.27733 -0.120578,-0.0965 -0.532956,-0.1857 l -0.154341,-0.0362 q -0.412378,-0.0868 -0.595657,-0.26527 -0.183279,-0.18087 -0.183279,-0.49437 0,-0.38103 0.270096,-0.58843 0.270095,-0.20739 0.766878,-0.20739 0.24598,0 0.463021,0.0362 0.217041,0.0362 0.40032,0.10852 z"
           style="font-size:4.93889px;stroke-width:0.217734"
           id="path8333" />
        <path
           d="m 97.476749,190.44501 v 0.21704 h -2.040186 q 0.02894,0.4582 0.274918,0.69935 0.248392,0.23875 0.689709,0.23875 0.255626,0 0.494371,-0.0627 0.241157,-0.0627 0.47749,-0.1881 v 0.41961 q -0.238745,0.10128 -0.489548,0.15434 -0.250803,0.053 -0.508841,0.053 -0.6463,0 -1.024916,-0.3762 -0.376204,-0.37621 -0.376204,-1.01768 0,-0.66318 0.356912,-1.05145 0.359323,-0.39067 0.967038,-0.39067 0.545014,0 0.86093,0.35209 0.318327,0.34968 0.318327,0.95257 z m -0.443729,-0.13023 q -0.0048,-0.36414 -0.204983,-0.58118 -0.197749,-0.21705 -0.525722,-0.21705 -0.371381,0 -0.595657,0.20981 -0.221864,0.20981 -0.255626,0.59083 z"
           style="font-size:4.93889px;stroke-width:0.217734"
           id="path8335" />
        <path
           d="m 101.31596,189.96511 q 0.34968,0.0747 0.54502,0.31109 0.19775,0.23633 0.19775,0.5836 0,0.53295 -0.36656,0.82475 -0.36656,0.2918 -1.0418,0.2918 -0.22669,0 -0.46784,-0.0458 -0.238749,-0.0434 -0.494375,-0.13263 v -0.47026 q 0.202572,0.11817 0.443725,0.17846 0.24116,0.0603 0.50402,0.0603 0.4582,0 0.69694,-0.18087 0.24116,-0.18087 0.24116,-0.52572 0,-0.31833 -0.22427,-0.49679 -0.22187,-0.18086 -0.61978,-0.18086 h -0.41961 v -0.40032 h 0.4389 q 0.35933,0 0.54984,-0.14229 0.19052,-0.14469 0.19052,-0.41479 0,-0.27733 -0.19775,-0.42443 -0.19534,-0.14952 -0.5619,-0.14952 -0.20016,0 -0.42926,0.0434 -0.2291,0.0434 -0.504014,0.13505 v -0.43408 q 0.277334,-0.0772 0.518484,-0.11576 0.24357,-0.0386 0.4582,-0.0386 0.55466,0 0.87781,0.25321 0.32315,0.2508 0.32315,0.68006 0,0.29904 -0.17122,0.50643 -0.17122,0.20498 -0.48714,0.28457 z"
           style="font-size:4.93889px;stroke-width:0.217734"
           id="path8337" />
      </g>
    </g>
    <g
       id="g1072"
       transform="matrix(0.67050533,0,0,0.67050533,1.1028565,-17.148777)">
      <g
         id="g5862">
        <path
           id="rect857-40"
           style="opacity:0.707;fill:#fabe50;stroke:#000000;stroke-width:0.1961;stop-color:#000000"
           d="m 44.033792,95.371399 h 23.60389 c 0.418158,0 0.754797,0.336639 0.754797,0.754797 v 9.329854 c 0,0.41816 -0.336639,0.7548 -0.754797,0.7548 h -23.60389 c -0.418157,0 -0.754796,-0.33664 -0.754796,-0.7548 v -9.329854 c 0,-0.418158 0.336639,-0.754797 0.754796,-0.754797 z" />
        <g
           aria-label="LSTM 1"
           id="text867"
           style="font-size:4.93889px;line-height:1.25;font-family:sans-serif;-inkscape-font-specification:sans-serif;stroke-width:0.198741">
          <path
             d="m 47.365108,98.988481 h 0.487136 v 3.190499 h 1.75321 v 0.40997 h -2.240346 z"
             style="font-size:4.93889px;stroke-width:0.198741"
             id="path8341" />
          <path
             d="m 52.272647,99.106648 v 0.475079 q -0.27733,-0.132637 -0.52331,-0.197749 -0.24598,-0.06511 -0.475079,-0.06511 -0.397908,0 -0.614949,0.15434 -0.21463,0.15434 -0.21463,0.438905 0,0.238747 0.142283,0.361737 0.144694,0.12057 0.545014,0.19533 l 0.294211,0.0603 q 0.545014,0.1037 0.803052,0.36656 0.260449,0.26045 0.260449,0.69936 0,0.52331 -0.352089,0.7934 -0.349677,0.2701 -1.027327,0.2701 -0.255626,0 -0.545015,-0.0579 -0.286976,-0.0579 -0.595657,-0.17122 v -0.50161 q 0.296623,0.1664 0.581188,0.2508 0.284565,0.0844 0.559484,0.0844 0.417201,0 0.643888,-0.16399 0.226687,-0.16398 0.226687,-0.46784 0,-0.26527 -0.163986,-0.41479 -0.161575,-0.14952 -0.532956,-0.22428 l -0.296623,-0.0579 q -0.545015,-0.10852 -0.788583,-0.34004 -0.243568,-0.23151 -0.243568,-0.643882 0,-0.47749 0.335208,-0.752409 0.337619,-0.274918 0.928453,-0.274918 0.253215,0 0.516076,0.04582 0.26286,0.04582 0.537779,0.13746 z"
             style="font-size:4.93889px;stroke-width:0.198741"
             id="path8343" />
          <path
             d="m 52.750138,98.988481 h 3.045809 v 0.409966 h -1.278131 v 3.190503 h -0.489548 v -3.190503 h -1.27813 z"
             style="font-size:4.93889px;stroke-width:0.198741"
             id="path8345" />
          <path
             d="m 56.268615,98.988481 h 0.725882 l 0.918807,2.450149 0.92363,-2.450149 h 0.725882 v 3.600469 h -0.475079 v -3.161564 l -0.928453,2.469444 h -0.489549 l -0.928453,-2.469444 v 3.161564 h -0.472667 z"
             style="font-size:4.93889px;stroke-width:0.198741"
             id="path8347" />
          <path
             d="m 62.232421,102.17898 h 0.795817 v -2.746771 l -0.865753,0.173633 v -0.443728 l 0.86093,-0.173633 h 0.487136 v 3.190499 h 0.795818 v 0.40997 h -2.073948 z"
             style="font-size:4.93889px;stroke-width:0.198741"
             id="path8349" />
        </g>
      </g>
    </g>
    <path
       style="fill:none;fill-rule:evenodd;stroke:#000000;stroke-width:0.177684;stroke-linecap:butt;stroke-linejoin:miter;stroke-miterlimit:4;stroke-dasharray:none;stroke-opacity:1;marker-end:url(#marker6797)"
       d="m 38.541016,54.066164 v 2.785713"
       id="path1063" />
    <path
       style="fill:none;fill-rule:evenodd;stroke:#000000;stroke-width:0.177684;stroke-linecap:butt;stroke-linejoin:miter;stroke-miterlimit:4;stroke-dasharray:none;stroke-opacity:1;marker-end:url(#marker6787)"
       d="m 38.541017,64.119787 v 2.78571"
       id="path1065" />
    <path
       style="fill:none;fill-rule:evenodd;stroke:#000000;stroke-width:0.177684;stroke-linecap:butt;stroke-linejoin:miter;stroke-miterlimit:4;stroke-dasharray:none;stroke-opacity:1;marker-end:url(#marker6777)"
       d="m 38.541017,74.173407 v 2.785711"
       id="path1067" />
    <path
       id="path5864"
       d="m 38.541016,84.227023 v 4.780308"
       style="fill:none;stroke:#000000;stroke-width:0.177404px;stroke-linecap:butt;stroke-linejoin:miter;stroke-opacity:1;marker-end:url(#marker6631)" />
    <path
       d="m 39.58952,17.058618 h 26.080333 c 0.46203,0 0.83399,0.336331 0.83399,0.754105 v 9.321305 c 0,0.417775 -0.37196,0.754105 -0.83399,0.754105 H 39.58952 c -0.46203,0 -0.833989,-0.33633 -0.833989,-0.754105 v -9.321305 c 0,-0.417774 0.371959,-0.754105 0.833989,-0.754105 z"
       style="opacity:0.707;fill:#fabe50;stroke:#000000;stroke-width:0.206036;stop-color:#000000"
       id="rect857-40-0" />
    <g
       transform="translate(-36.601097,4.0216527)"
       aria-label="Conv layers"
       id="text171"
       style="font-size:7.05556px;line-height:1.25;font-family:sans-serif;-inkscape-font-specification:sans-serif;stroke-width:0.264583">
      <path
         d="m 78.670189,16.631163 v 0.476973 q -0.228409,-0.212734 -0.488169,-0.317982 -0.257521,-0.105248 -0.548632,-0.105248 -0.573264,0 -0.87781,0.351572 -0.304546,0.349333 -0.304546,1.012169 0,0.660597 0.304546,1.012169 0.304546,0.349333 0.87781,0.349333 0.291111,0 0.548632,-0.105248 0.25976,-0.105248 0.488169,-0.317982 v 0.472494 q -0.237367,0.161231 -0.503845,0.241846 -0.264238,0.08061 -0.559828,0.08061 -0.759126,0 -1.195792,-0.463537 -0.436666,-0.465777 -0.436666,-1.26969 0,-0.806152 0.436666,-1.26969 0.436666,-0.465776 1.195792,-0.465776 0.300068,0 0.564307,0.08061 0.266478,0.07838 0.499366,0.237367 z"
         style="font-size:4.58611px;stroke-width:0.264583"
         id="path313" />
      <path
         d="m 80.32728,17.497776 q -0.331418,0 -0.523999,0.259761 -0.192581,0.25752 -0.192581,0.707622 0,0.450102 0.190342,0.709862 0.192581,0.257521 0.526238,0.257521 0.329179,0 0.52176,-0.259761 0.19258,-0.25976 0.19258,-0.707622 0,-0.445623 -0.19258,-0.705383 -0.192581,-0.262 -0.52176,-0.262 z m 0,-0.349332 q 0.537435,0 0.84422,0.349332 0.306786,0.349333 0.306786,0.967383 0,0.615811 -0.306786,0.967383 -0.306785,0.349332 -0.84422,0.349332 -0.539674,0 -0.84646,-0.349332 -0.304546,-0.351572 -0.304546,-0.967383 0,-0.61805 0.304546,-0.967383 0.306786,-0.349332 0.84646,-0.349332 z"
         style="font-size:4.58611px;stroke-width:0.264583"
         id="path315" />
      <path
         d="m 84.243836,18.20316 v 1.513774 h -0.412034 v -1.500339 q 0,-0.35605 -0.138837,-0.532956 -0.138837,-0.176905 -0.416512,-0.176905 -0.333657,0 -0.526238,0.212734 -0.192581,0.212735 -0.192581,0.579982 v 1.417484 h -0.414272 v -2.508029 h 0.414272 v 0.38964 q 0.147795,-0.22617 0.347093,-0.338136 0.201538,-0.111965 0.463538,-0.111965 0.432187,0 0.653879,0.268717 0.221692,0.266478 0.221692,0.785999 z"
         style="font-size:4.58611px;stroke-width:0.264583"
         id="path317" />
      <path
         d="m 84.774553,17.208905 h 0.436665 l 0.78376,2.104953 0.783759,-2.104953 h 0.436665 l -0.940511,2.508029 h -0.559827 z"
         style="font-size:4.58611px;stroke-width:0.264583"
         id="path319" />
      <path
         d="m 89.244219,16.232565 h 0.412033 v 3.484369 h -0.412033 z"
         style="font-size:4.58611px;stroke-width:0.264583"
         id="path321" />
      <path
         d="m 91.655957,18.456202 q -0.499366,0 -0.691947,0.114205 -0.192581,0.114205 -0.192581,0.38964 0,0.219452 0.143316,0.349332 0.145555,0.127641 0.394119,0.127641 0.342615,0 0.548631,-0.241845 0.208256,-0.244085 0.208256,-0.647161 v -0.09181 z m 0.821828,-0.170188 v 1.43092 h -0.412034 v -0.380683 q -0.141076,0.22841 -0.351572,0.338136 -0.210495,0.107487 -0.515041,0.107487 -0.385162,0 -0.613572,-0.214974 -0.22617,-0.217213 -0.22617,-0.579981 0,-0.42323 0.282153,-0.638204 0.284393,-0.214974 0.84646,-0.214974 h 0.577742 v -0.04031 q 0,-0.284392 -0.188102,-0.438905 -0.185863,-0.156752 -0.523999,-0.156752 -0.214974,0 -0.418751,0.0515 -0.203777,0.0515 -0.39188,0.154512 V 17.32311 q 0.226171,-0.08733 0.438905,-0.12988 0.212735,-0.04479 0.414273,-0.04479 0.544153,0 0.81287,0.282153 0.268718,0.282153 0.268718,0.855417 z"
         style="font-size:4.58611px;stroke-width:0.264583"
         id="path323" />
      <path
         d="m 94.372242,19.949823 q -0.174666,0.447862 -0.340375,0.58446 -0.165709,0.136598 -0.443384,0.136598 h -0.329179 v -0.344854 h 0.241846 q 0.170188,0 0.264239,-0.08061 0.09405,-0.08062 0.208256,-0.380683 l 0.0739,-0.188102 -1.014408,-2.467722 H 93.4698 l 0.783759,1.961637 0.783759,-1.961637 h 0.436666 z"
         style="font-size:4.58611px;stroke-width:0.264583"
         id="path325" />
      <path
         d="m 98.18803,18.359911 v 0.201538 h -1.894458 q 0.02687,0.42547 0.255282,0.649401 0.230649,0.221692 0.640443,0.221692 0.237367,0 0.459059,-0.05822 0.223931,-0.05822 0.443384,-0.174667 v 0.38964 q -0.221692,0.09405 -0.454581,0.143316 -0.232888,0.04926 -0.472494,0.04926 -0.600136,0 -0.951708,-0.349332 -0.349332,-0.349333 -0.349332,-0.94499 0,-0.615811 0.331418,-0.97634 0.333657,-0.362768 0.897964,-0.362768 0.506084,0 0.799434,0.326939 0.295589,0.3247 0.295589,0.884528 z m -0.412033,-0.120922 q -0.0045,-0.338136 -0.190342,-0.539675 -0.183623,-0.201538 -0.48817,-0.201538 -0.344854,0 -0.55311,0.194821 -0.206016,0.19482 -0.237367,0.548631 z"
         style="font-size:4.58611px;stroke-width:0.264583"
         id="path327" />
      <path
         d="m 100.31761,17.594067 q -0.0694,-0.04031 -0.15227,-0.05822 -0.0806,-0.02015 -0.179144,-0.02015 -0.349333,0 -0.537435,0.22841 -0.185863,0.22617 -0.185863,0.651639 v 1.321194 h -0.414272 v -2.508029 h 0.414272 v 0.38964 q 0.12988,-0.228409 0.338136,-0.338136 0.208256,-0.111965 0.506086,-0.111965 0.0426,0 0.0941,0.0067 0.0515,0.0045 0.1142,0.01567 z"
         style="font-size:4.58611px;stroke-width:0.264583"
         id="path329" />
      <path
         d="m 102.35315,17.282803 v 0.38964 q -0.17467,-0.08957 -0.36277,-0.134359 -0.1881,-0.04479 -0.38964,-0.04479 -0.30678,0 -0.4613,0.09405 -0.15227,0.09405 -0.15227,0.282153 0,0.143316 0.10973,0.226171 0.10972,0.08061 0.44114,0.154512 l 0.14108,0.03135 q 0.4389,0.09405 0.62253,0.266479 0.18586,0.170187 0.18586,0.476973 0,0.349333 -0.27768,0.55311 -0.27543,0.203777 -0.75912,0.203777 -0.20154,0 -0.42099,-0.04031 -0.21722,-0.03807 -0.45906,-0.116445 v -0.425469 q 0.22841,0.118684 0.4501,0.179145 0.22169,0.05822 0.4389,0.05822 0.29111,0 0.44787,-0.09853 0.15675,-0.100769 0.15675,-0.282154 0,-0.167948 -0.11421,-0.257521 -0.11196,-0.08957 -0.49488,-0.172427 l -0.14332,-0.03359 q -0.38292,-0.08062 -0.55311,-0.246324 -0.17019,-0.167949 -0.17019,-0.459059 0,-0.353812 0.2508,-0.546392 0.25081,-0.192581 0.71211,-0.192581 0.22841,0 0.42994,0.03359 0.20154,0.03359 0.37173,0.10077 z"
         style="font-size:4.58611px;stroke-width:0.264583"
         id="path331" />
    </g>
    <path
       id="path294"
       d="m 45.120678,42.553467 -6.579663,4.244786"
       style="fill:none;stroke:#000000;stroke-width:0.177404px;stroke-linecap:butt;stroke-linejoin:miter;stroke-opacity:1;marker-end:url(#marker1227)" />
    <path
       id="path296"
       d="m 60.947208,42.553467 6.857873,4.244786"
       style="fill:none;stroke:#000000;stroke-width:0.177404px;stroke-linecap:butt;stroke-linejoin:miter;stroke-opacity:1;marker-end:url(#marker1237)" />
    <path
       id="path324"
       d="m 52.762786,27.888133 0.181834,7.397425"
       style="fill:none;fill-rule:evenodd;stroke:#000000;stroke-width:0.264583px;stroke-linecap:butt;stroke-linejoin:miter;stroke-opacity:1;marker-end:url(#marker1217)" />
    <g
       transform="translate(0,-2.2015294)"
       id="g1526">
      <g
         id="g1504">
        <path
           id="path1428"
           style="opacity:0.707;fill:#8dc060;fill-opacity:1;stroke:#000000;stroke-width:0.0671271;stop-color:#000000"
           d="m 81.817014,9.2455772 h 6.50945 c 0.11532,0 0.20816,0.1430362 0.20816,0.3207078 v 3.964192 c 0,0.177673 -0.0928,0.320708 -0.20816,0.320708 h -6.50945 c -0.11532,0 -0.20816,-0.143035 -0.20816,-0.320708 V 9.566285 c 0,-0.1776716 0.0928,-0.3207078 0.20816,-0.3207078 z" />
        <g
           aria-label="24"
           id="text1432"
           style="font-size:4.23333px;line-height:1.25;font-family:sans-serif;-inkscape-font-specification:sans-serif;stroke-width:0.264583">
          <path
             d="m 83.153509,12.767944 h 1.457274 v 0.3514 h -1.959569 v -0.3514 q 0.237712,-0.245979 0.646989,-0.65939 0.411344,-0.415479 0.516764,-0.535368 0.200504,-0.225309 0.279052,-0.380338 0.08061,-0.157096 0.08061,-0.307991 0,-0.24598 -0.173632,-0.401009 -0.171566,-0.155029 -0.448551,-0.155029 -0.196371,0 -0.415479,0.06821 -0.21704,0.06821 -0.465087,0.206705 v -0.421679 q 0.252181,-0.101286 0.471289,-0.152962 0.219107,-0.051677 0.401008,-0.051677 0.479557,0 0.764811,0.239779 0.285254,0.239778 0.285254,0.640787 0,0.190169 -0.07235,0.361735 -0.07028,0.169498 -0.258382,0.401008 -0.05168,0.05995 -0.328662,0.347266 -0.276986,0.285253 -0.781347,0.79995 z"
             style="font-size:4.23333px;stroke-width:0.264583"
             id="path2748" />
          <path
             d="m 86.636498,10.397032 -1.054199,1.647443 h 1.054199 z M 86.526944,10.03323 h 0.525032 v 2.011245 h 0.440283 v 0.347265 h -0.440283 v 0.727604 H 86.636498 V 12.39174 h -1.393196 v -0.403076 z"
             style="font-size:4.23333px;stroke-width:0.264583"
             id="path2750" />
        </g>
      </g>
      <g
         id="g1499"
         transform="translate(0,0.03718692)">
        <path
           d="m 81.817014,16.033573 h 6.50945 c 0.11532,0 0.20816,0.143036 0.20816,0.320708 v 3.964191 c 0,0.177673 -0.0928,0.320709 -0.20816,0.320709 h -6.50945 c -0.11532,0 -0.20816,-0.143036 -0.20816,-0.320709 v -3.964191 c 0,-0.177672 0.0928,-0.320708 0.20816,-0.320708 z"
           style="opacity:0.707;fill:#8dc060;fill-opacity:1;stroke:#000000;stroke-width:0.0671271;stop-color:#000000"
           id="path1465" />
        <g
           aria-label="36"
           id="text1436"
           style="font-size:4.23333px;line-height:1.25;font-family:sans-serif;-inkscape-font-specification:sans-serif;stroke-width:0.264583">
          <path
             d="m 84.067149,18.213387 q 0.299723,0.06408 0.467155,0.26665 0.169499,0.202572 0.169499,0.500228 0,0.456819 -0.314193,0.706933 -0.314192,0.250114 -0.892968,0.250114 -0.194303,0 -0.401009,-0.03927 -0.204638,-0.03721 -0.423746,-0.113688 v -0.403076 q 0.173633,0.101285 0.380338,0.152962 0.206706,0.05168 0.432015,0.05168 0.39274,0 0.597379,-0.155029 0.206705,-0.155029 0.206705,-0.450618 0,-0.272851 -0.192236,-0.425814 -0.190169,-0.155029 -0.531233,-0.155029 h -0.359668 v -0.343131 h 0.376204 q 0.307992,0 0.471289,-0.121956 0.163297,-0.124024 0.163297,-0.355534 0,-0.237711 -0.169498,-0.363802 -0.167432,-0.128157 -0.481624,-0.128157 -0.171566,0 -0.367936,0.03721 -0.19637,0.03721 -0.432015,0.115755 v -0.37207 q 0.237712,-0.06615 0.444417,-0.09922 0.208773,-0.03307 0.392741,-0.03307 0.475423,0 0.752408,0.21704 0.276986,0.214974 0.276986,0.58291 0,0.256315 -0.146761,0.434082 -0.146761,0.175699 -0.417546,0.243912 z"
             style="font-size:4.23333px;stroke-width:0.264583"
             id="path2753" />
          <path
             d="m 86.442196,18.167912 q -0.281119,0 -0.446484,0.192236 -0.163297,0.192236 -0.163297,0.527099 0,0.332796 0.163297,0.5271 0.165365,0.192236 0.446484,0.192236 0.28112,0 0.444417,-0.192236 0.165365,-0.194304 0.165365,-0.5271 0,-0.334863 -0.165365,-0.527099 -0.163297,-0.192236 -0.444417,-0.192236 z m 0.82889,-1.308446 v 0.380338 q -0.157097,-0.07441 -0.318327,-0.113688 -0.159163,-0.03927 -0.316259,-0.03927 -0.413412,0 -0.632519,0.279053 -0.217041,0.279052 -0.248047,0.843358 0.121956,-0.179834 0.305924,-0.274918 0.183968,-0.09715 0.405143,-0.09715 0.465088,0 0.733805,0.283187 0.270784,0.281119 0.270784,0.766877 0,0.475423 -0.28112,0.762744 -0.281119,0.287321 -0.748274,0.287321 -0.535367,0 -0.818554,-0.409277 -0.283186,-0.411344 -0.283186,-1.190624 0,-0.731738 0.347265,-1.16582 0.347265,-0.436148 0.932242,-0.436148 0.157096,0 0.31626,0.03101 0.16123,0.03101 0.334863,0.09302 z"
             style="font-size:4.23333px;stroke-width:0.264583"
             id="path2755" />
        </g>
      </g>
      <g
         id="g1494"
         transform="translate(0,0.1470199)">
        <path
           id="path1467"
           style="opacity:0.707;fill:#8dc060;fill-opacity:1;stroke:#000000;stroke-width:0.0671271;stop-color:#000000"
           d="m 81.817014,22.748924 h 6.50945 c 0.11532,0 0.20816,0.143036 0.20816,0.320708 v 3.964191 c 0,0.177673 -0.0928,0.320709 -0.20816,0.320709 h -6.50945 c -0.11532,0 -0.20816,-0.143036 -0.20816,-0.320709 v -3.964191 c 0,-0.177672 0.0928,-0.320708 0.20816,-0.320708 z" />
        <g
           aria-label="48"
           id="text1440"
           style="font-size:4.23333px;line-height:1.25;font-family:sans-serif;-inkscape-font-specification:sans-serif;stroke-width:0.264583">
          <path
             d="m 84.018572,23.870406 -1.054199,1.647443 h 1.054199 z m -0.109554,-0.363802 h 0.525032 v 2.011245 h 0.440283 v 0.347266 H 84.43405 v 0.727603 h -0.415478 v -0.727603 h -1.393196 v -0.403076 z"
             style="font-size:4.23333px;stroke-width:0.264583"
             id="path2758" />
          <path
             d="m 86.459764,25.127176 q -0.297656,0 -0.469221,0.159163 -0.169499,0.159163 -0.169499,0.438216 0,0.279052 0.169499,0.438216 0.171565,0.159163 0.469221,0.159163 0.297656,0 0.469222,-0.159163 0.171566,-0.161231 0.171566,-0.438216 0,-0.279053 -0.171566,-0.438216 -0.169499,-0.159163 -0.469222,-0.159163 z m -0.417545,-0.177767 q -0.268717,-0.06615 -0.419612,-0.250114 -0.148828,-0.183968 -0.148828,-0.448551 0,-0.370003 0.262516,-0.584977 0.264583,-0.214973 0.723469,-0.214973 0.460954,0 0.72347,0.214973 0.262516,0.214974 0.262516,0.584977 0,0.264583 -0.150895,0.448551 -0.148828,0.183968 -0.415478,0.250114 0.30179,0.07028 0.469221,0.274918 0.169499,0.204639 0.169499,0.500228 0,0.448551 -0.274919,0.688329 -0.272851,0.239779 -0.783414,0.239779 -0.510562,0 -0.785481,-0.239779 -0.272851,-0.239778 -0.272851,-0.688329 0,-0.295589 0.169498,-0.500228 0.169499,-0.204638 0.471289,-0.274918 z m -0.152962,-0.659391 q 0,0.239779 0.148828,0.374137 0.150895,0.134359 0.421679,0.134359 0.268718,0 0.419613,-0.134359 0.152962,-0.134358 0.152962,-0.374137 0,-0.239778 -0.152962,-0.374137 -0.150895,-0.134358 -0.419613,-0.134358 -0.270784,0 -0.421679,0.134358 -0.148828,0.134359 -0.148828,0.374137 z"
             style="font-size:4.23333px;stroke-width:0.264583"
             id="path2760" />
        </g>
      </g>
      <g
         id="g1489"
         transform="translate(0,0.60292486)">
        <path
           d="m 81.817014,29.118202 h 6.50945 c 0.11532,0 0.20816,0.143036 0.20816,0.320708 v 3.964191 c 0,0.177673 -0.0928,0.320709 -0.20816,0.320709 h -6.50945 c -0.11532,0 -0.20816,-0.143036 -0.20816,-0.320709 V 29.43891 c 0,-0.177672 0.0928,-0.320708 0.20816,-0.320708 z"
           style="opacity:0.707;fill:#8dc060;fill-opacity:1;stroke:#000000;stroke-width:0.0671271;stop-color:#000000"
           id="path1469" />
        <g
           aria-label="64"
           id="text1444"
           style="font-size:4.23333px;line-height:1.25;font-family:sans-serif;-inkscape-font-specification:sans-serif;stroke-width:0.264583">
          <path
             d="m 83.745726,31.252539 q -0.28112,0 -0.446484,0.192236 -0.163298,0.192237 -0.163298,0.5271 0,0.332796 0.163298,0.527099 0.165364,0.192236 0.446484,0.192236 0.281119,0 0.444417,-0.192236 0.165364,-0.194303 0.165364,-0.527099 0,-0.334863 -0.165364,-0.5271 -0.163298,-0.192236 -0.444417,-0.192236 z m 0.828889,-1.308446 v 0.380338 q -0.157096,-0.07441 -0.318326,-0.113688 -0.159164,-0.03927 -0.31626,-0.03927 -0.413411,0 -0.632519,0.279053 -0.217041,0.279052 -0.248047,0.843358 0.121957,-0.179833 0.305925,-0.274918 0.183968,-0.09715 0.405143,-0.09715 0.465087,0 0.733804,0.283187 0.270785,0.28112 0.270785,0.766878 0,0.475422 -0.28112,0.762743 -0.28112,0.287321 -0.748274,0.287321 -0.535368,0 -0.818554,-0.409277 -0.283187,-0.411344 -0.283187,-1.190624 0,-0.731738 0.347266,-1.16582 0.347265,-0.436148 0.932242,-0.436148 0.157096,0 0.316259,0.03101 0.16123,0.03101 0.334863,0.09302 z"
             style="font-size:4.23333px;stroke-width:0.264583"
             id="path2763" />
          <path
             d="m 86.643738,30.239682 -1.054199,1.647443 h 1.054199 z M 86.534184,29.87588 h 0.525032 v 2.011245 h 0.440283 v 0.347266 h -0.440283 v 0.727603 h -0.415478 v -0.727603 h -1.393196 v -0.403076 z"
             style="font-size:4.23333px;stroke-width:0.264583"
             id="path2765" />
        </g>
      </g>
      <g
         id="g1484">
        <path
           id="path1471"
           style="opacity:0.707;fill:#8dc060;fill-opacity:1;stroke:#000000;stroke-width:0.0671271;stop-color:#000000"
           d="m 81.817014,36.54631 h 6.50945 c 0.11532,0 0.20816,0.143036 0.20816,0.320708 v 3.964191 c 0,0.177673 -0.0928,0.320709 -0.20816,0.320709 h -6.50945 c -0.11532,0 -0.20816,-0.143036 -0.20816,-0.320709 v -3.964191 c 0,-0.177672 0.0928,-0.320708 0.20816,-0.320708 z" />
        <g
           aria-label="80"
           id="text1448"
           style="font-size:4.23333px;line-height:1.25;font-family:sans-serif;-inkscape-font-specification:sans-serif;stroke-width:0.264583">
          <path
             d="m 83.719883,38.92456 q -0.297656,0 -0.469222,0.159163 -0.169499,0.159164 -0.169499,0.438216 0,0.279053 0.169499,0.438216 0.171566,0.159163 0.469222,0.159163 0.297656,0 0.469221,-0.159163 0.171566,-0.161231 0.171566,-0.438216 0,-0.279052 -0.171566,-0.438216 -0.169498,-0.159163 -0.469221,-0.159163 z m -0.417546,-0.177767 q -0.268717,-0.06615 -0.419612,-0.250114 -0.148828,-0.183967 -0.148828,-0.448551 0,-0.370002 0.262516,-0.584976 0.264583,-0.214974 0.72347,-0.214974 0.460953,0 0.723469,0.214974 0.262516,0.214974 0.262516,0.584976 0,0.264584 -0.150895,0.448551 -0.148828,0.183968 -0.415478,0.250114 0.30179,0.07028 0.469221,0.274919 0.169499,0.204638 0.169499,0.500227 0,0.448551 -0.274918,0.68833 -0.272852,0.239778 -0.783414,0.239778 -0.510563,0 -0.785482,-0.239778 -0.272851,-0.239779 -0.272851,-0.68833 0,-0.295589 0.169499,-0.500227 0.169498,-0.204639 0.471288,-0.274919 z m -0.152962,-0.65939 q 0,0.239778 0.148828,0.374137 0.150895,0.134358 0.42168,0.134358 0.268717,0 0.419612,-0.134358 0.152962,-0.134359 0.152962,-0.374137 0,-0.239779 -0.152962,-0.374138 -0.150895,-0.134358 -0.419612,-0.134358 -0.270785,0 -0.42168,0.134358 -0.148828,0.134359 -0.148828,0.374138 z"
             style="font-size:4.23333px;stroke-width:0.264583"
             id="path2768" />
          <path
             d="m 86.415323,37.578907 q -0.322461,0 -0.485758,0.318326 -0.16123,0.31626 -0.16123,0.952913 0,0.634586 0.16123,0.952913 0.163297,0.316259 0.485758,0.316259 0.324528,0 0.485758,-0.316259 0.163298,-0.318327 0.163298,-0.952913 0,-0.636653 -0.163298,-0.952913 -0.16123,-0.318326 -0.485758,-0.318326 z m 0,-0.330729 q 0.518831,0 0.791682,0.411344 0.274919,0.409277 0.274919,1.190624 0,0.77928 -0.274919,1.190624 -0.272851,0.409277 -0.791682,0.409277 -0.518831,0 -0.793749,-0.409277 -0.272852,-0.411344 -0.272852,-1.190624 0,-0.781347 0.272852,-1.190624 0.274918,-0.411344 0.793749,-0.411344 z"
             style="font-size:4.23333px;stroke-width:0.264583"
             id="path2770" />
        </g>
      </g>
    </g>
    <path
       id="path1477"
       d="M 66.162738,17.103621 81.73745,5.0856844"
       style="fill:none;stroke:#000000;stroke-width:0.301452;stroke-linecap:butt;stroke-linejoin:miter;stroke-miterlimit:4;stroke-dasharray:0.904356, 0.904356;stroke-dashoffset:0;stroke-opacity:1" />
    <path
       id="path1479"
       d="M 66.327794,27.717233 82.77594,40.919499"
       style="fill:none;stroke:#000000;stroke-width:0.24839;stroke-linecap:butt;stroke-linejoin:miter;stroke-miterlimit:4;stroke-dasharray:0.74517, 0.74517;stroke-dashoffset:0;stroke-opacity:1" />
    <path
       d="m 17.15533,7.0440478 h 6.50945 c 0.11532,0 0.20816,0.1430362 0.20816,0.3207078 v 3.9641924 c 0,0.177673 -0.0928,0.320708 -0.20816,0.320708 h -6.50945 c -0.11532,0 -0.20816,-0.143035 -0.20816,-0.320708 V 7.3647556 c 0,-0.1776716 0.0928,-0.3207078 0.20816,-0.3207078 z"
       style="opacity:0.707;fill:#e69679;fill-opacity:1;stroke:#000000;stroke-width:0.0671271;stop-color:#000000"
       id="path1557" />
    <g
       aria-label="24"
       id="text1561"
       style="font-size:4.23333px;line-height:1.25;font-family:sans-serif;-inkscape-font-specification:sans-serif;stroke-width:0.264583">
      <path
         d="m 18.491825,10.566415 h 1.457274 v 0.351399 H 17.98953 v -0.351399 q 0.237712,-0.24598 0.646989,-0.6593909 0.411344,-0.4154782 0.516764,-0.5353674 0.200504,-0.2253091 0.279052,-0.3803382 0.08062,-0.1570962 0.08062,-0.3079913 0,-0.2459796 -0.173632,-0.4010088 -0.171566,-0.1550291 -0.448551,-0.1550291 -0.196371,0 -0.415479,0.068213 -0.21704,0.068213 -0.465087,0.2067055 V 7.9805283 q 0.252181,-0.1012857 0.471289,-0.1529621 0.219107,-0.051676 0.401008,-0.051676 0.479557,0 0.764811,0.2397785 0.285254,0.2397784 0.285254,0.6407872 0,0.1901691 -0.07235,0.3617347 -0.07028,0.1694986 -0.258382,0.4010088 -0.05168,0.059945 -0.328662,0.3472653 -0.276986,0.2852533 -0.781347,0.7999503 z"
         style="font-size:4.23333px;stroke-width:0.264583"
         id="path2796" />
      <path
         d="m 21.974813,8.1955021 -1.054198,1.6474433 h 1.054198 z M 21.86526,7.8317003 h 0.525032 v 2.0112451 h 0.440282 v 0.3472656 h -0.440282 v 0.727603 H 21.974813 V 10.190211 H 20.581618 V 9.7871349 Z"
         style="font-size:4.23333px;stroke-width:0.264583"
         id="path2798" />
    </g>
    <path
       id="path1565"
       style="opacity:0.707;fill:#e69679;fill-opacity:1;stroke:#000000;stroke-width:0.0671271;stop-color:#000000"
       d="m 17.15533,13.869231 h 6.50945 c 0.11532,0 0.20816,0.143035 0.20816,0.320708 v 3.96419 c 0,0.177673 -0.0928,0.320709 -0.20816,0.320709 h -6.50945 c -0.11532,0 -0.20816,-0.143035 -0.20816,-0.320709 v -3.96419 c 0,-0.177673 0.0928,-0.320708 0.20816,-0.320708 z" />
    <g
       aria-label="36"
       id="text1569"
       style="font-size:4.23333px;line-height:1.25;font-family:sans-serif;-inkscape-font-specification:sans-serif;stroke-width:0.264583">
      <path
         d="m 19.405465,16.049044 q 0.299723,0.06408 0.467155,0.266651 0.169499,0.202571 0.169499,0.500227 0,0.456819 -0.314193,0.706933 -0.314192,0.250114 -0.892968,0.250114 -0.194303,0 -0.401009,-0.03927 -0.204638,-0.03721 -0.423746,-0.113688 v -0.403076 q 0.173633,0.101286 0.380338,0.152962 0.206706,0.05168 0.432015,0.05168 0.39274,0 0.597379,-0.155029 0.206705,-0.155029 0.206705,-0.450618 0,-0.272851 -0.192236,-0.425813 -0.190169,-0.15503 -0.531233,-0.15503 h -0.359668 v -0.343131 h 0.376204 q 0.307992,0 0.471289,-0.121956 0.163297,-0.124023 0.163297,-0.355534 0,-0.237711 -0.169498,-0.363801 -0.167432,-0.128158 -0.481624,-0.128158 -0.171566,0 -0.367936,0.03721 -0.19637,0.03721 -0.432015,0.115755 v -0.37207 q 0.237712,-0.06615 0.444417,-0.09922 0.208773,-0.03307 0.392741,-0.03307 0.475423,0 0.752408,0.217041 0.276986,0.214973 0.276986,0.582909 0,0.256315 -0.146761,0.434082 -0.146761,0.1757 -0.417546,0.243912 z"
         style="font-size:4.23333px;stroke-width:0.264583"
         id="path2801" />
      <path
         d="m 21.780512,16.003569 q -0.281119,0 -0.446484,0.192236 -0.163297,0.192237 -0.163297,0.5271 0,0.332795 0.163297,0.527099 0.165365,0.192236 0.446484,0.192236 0.28112,0 0.444417,-0.192236 0.165365,-0.194304 0.165365,-0.527099 0,-0.334863 -0.165365,-0.5271 -0.163297,-0.192236 -0.444417,-0.192236 z m 0.82889,-1.308446 v 0.380338 q -0.157097,-0.07441 -0.318327,-0.113688 -0.159163,-0.03927 -0.316259,-0.03927 -0.413412,0 -0.632519,0.279053 -0.217041,0.279052 -0.248047,0.843358 0.121956,-0.179834 0.305924,-0.274918 0.183968,-0.09715 0.405143,-0.09715 0.465087,0 0.733805,0.283187 0.270784,0.281119 0.270784,0.766878 0,0.475422 -0.28112,0.762743 -0.281119,0.287321 -0.748274,0.287321 -0.535367,0 -0.818554,-0.409277 -0.283186,-0.411344 -0.283186,-1.190624 0,-0.731738 0.347265,-1.16582 0.347265,-0.436148 0.932242,-0.436148 0.157096,0 0.31626,0.03101 0.16123,0.03101 0.334863,0.09302 z"
         style="font-size:4.23333px;stroke-width:0.264583"
         id="path2803" />
    </g>
    <path
       d="m 17.15533,20.694414 h 6.50945 c 0.11532,0 0.20816,0.143036 0.20816,0.320708 v 3.964191 c 0,0.177673 -0.0928,0.320709 -0.20816,0.320709 h -6.50945 c -0.11532,0 -0.20816,-0.143035 -0.20816,-0.320709 v -3.964191 c 0,-0.177672 0.0928,-0.320708 0.20816,-0.320708 z"
       style="opacity:0.707;fill:#e69679;fill-opacity:1;stroke:#000000;stroke-width:0.0671271;stop-color:#000000"
       id="path1573" />
    <g
       aria-label="48"
       id="text1577"
       style="font-size:4.23333px;line-height:1.25;font-family:sans-serif;-inkscape-font-specification:sans-serif;stroke-width:0.264583">
      <path
         d="m 19.356888,21.815896 -1.054199,1.647443 h 1.054199 z m -0.109554,-0.363802 h 0.525032 v 2.011245 h 0.440283 v 0.347265 h -0.440283 v 0.727604 h -0.415478 v -0.727604 h -1.393196 v -0.403075 z"
         style="font-size:4.23333px;stroke-width:0.264583"
         id="path2806" />
      <path
         d="m 21.79808,23.072666 q -0.297656,0 -0.469221,0.159163 -0.169499,0.159163 -0.169499,0.438216 0,0.279052 0.169499,0.438215 0.171565,0.159164 0.469221,0.159164 0.297656,0 0.469222,-0.159164 0.171566,-0.16123 0.171566,-0.438215 0,-0.279053 -0.171566,-0.438216 -0.169499,-0.159163 -0.469222,-0.159163 z m -0.417545,-0.177767 q -0.268717,-0.06615 -0.419612,-0.250114 -0.148828,-0.183968 -0.148828,-0.448551 0,-0.370003 0.262516,-0.584977 0.264583,-0.214973 0.723469,-0.214973 0.460954,0 0.72347,0.214973 0.262516,0.214974 0.262516,0.584977 0,0.264583 -0.150895,0.448551 -0.148828,0.183968 -0.415478,0.250114 0.30179,0.07028 0.469221,0.274918 0.169499,0.204639 0.169499,0.500228 0,0.448551 -0.274919,0.688329 -0.272851,0.239779 -0.783414,0.239779 -0.510562,0 -0.785481,-0.239779 -0.272851,-0.239778 -0.272851,-0.688329 0,-0.295589 0.169498,-0.500228 0.169499,-0.204638 0.471289,-0.274918 z m -0.152962,-0.659391 q 0,0.239779 0.148828,0.374137 0.150895,0.134359 0.421679,0.134359 0.268718,0 0.419613,-0.134359 0.152962,-0.134358 0.152962,-0.374137 0,-0.239778 -0.152962,-0.374137 -0.150895,-0.134359 -0.419613,-0.134359 -0.270784,0 -0.421679,0.134359 -0.148828,0.134359 -0.148828,0.374137 z"
         style="font-size:4.23333px;stroke-width:0.264583"
         id="path2808" />
    </g>
    <path
       id="path1581"
       style="opacity:0.707;fill:#e69679;fill-opacity:1;stroke:#000000;stroke-width:0.0671271;stop-color:#000000"
       d="m 17.15533,27.519597 h 6.50945 c 0.11532,0 0.20816,0.143036 0.20816,0.320708 v 3.964191 c 0,0.177673 -0.0928,0.320709 -0.20816,0.320709 h -6.50945 c -0.11532,0 -0.20816,-0.143036 -0.20816,-0.320709 v -3.964191 c 0,-0.177672 0.0928,-0.320708 0.20816,-0.320708 z" />
    <g
       aria-label="64"
       id="text1585"
       style="font-size:4.23333px;line-height:1.25;font-family:sans-serif;-inkscape-font-specification:sans-serif;stroke-width:0.264583">
      <path
         d="m 19.084042,29.653935 q -0.28112,0 -0.446484,0.192236 -0.163298,0.192236 -0.163298,0.527099 0,0.332796 0.163298,0.5271 0.165364,0.192236 0.446484,0.192236 0.281119,0 0.444417,-0.192236 0.165364,-0.194304 0.165364,-0.5271 0,-0.334863 -0.165364,-0.527099 -0.163298,-0.192236 -0.444417,-0.192236 z m 0.828889,-1.308446 v 0.380338 q -0.157096,-0.07441 -0.318326,-0.113688 -0.159164,-0.03927 -0.31626,-0.03927 -0.413411,0 -0.632519,0.279052 -0.217041,0.279053 -0.248047,0.843359 0.121957,-0.179834 0.305925,-0.274918 0.183968,-0.09715 0.405142,-0.09715 0.465088,0 0.733805,0.283187 0.270784,0.281119 0.270784,0.766877 0,0.475423 -0.281119,0.762744 -0.28112,0.287321 -0.748274,0.287321 -0.535368,0 -0.818554,-0.409277 -0.283187,-0.411344 -0.283187,-1.190624 0,-0.731738 0.347266,-1.16582 0.347265,-0.436148 0.932242,-0.436148 0.157096,0 0.316259,0.03101 0.16123,0.03101 0.334863,0.09302 z"
         style="font-size:4.23333px;stroke-width:0.264583"
         id="path2811" />
      <path
         d="m 21.982054,28.641078 -1.054199,1.647443 h 1.054199 z M 21.8725,28.277276 h 0.525032 v 2.011245 h 0.440283 v 0.347265 h -0.440283 v 0.727604 h -0.415478 v -0.727604 h -1.393196 v -0.403075 z"
         style="font-size:4.23333px;stroke-width:0.264583"
         id="path2813" />
    </g>
    <path
       d="m 17.15533,34.344781 h 6.50945 c 0.11532,0 0.20816,0.143036 0.20816,0.320708 v 3.964191 c 0,0.177673 -0.0928,0.320709 -0.20816,0.320709 h -6.50945 c -0.11532,0 -0.20816,-0.143036 -0.20816,-0.320709 v -3.964191 c 0,-0.177672 0.0928,-0.320708 0.20816,-0.320708 z"
       style="opacity:0.707;fill:#e69679;fill-opacity:1;stroke:#000000;stroke-width:0.0671271;stop-color:#000000"
       id="path1589" />
    <g
       aria-label="64"
       id="text1593"
       style="font-size:4.23333px;line-height:1.25;font-family:sans-serif;-inkscape-font-specification:sans-serif;stroke-width:0.264583">
      <path
         d="m 19.109875,36.479117 q -0.28112,0 -0.446484,0.192236 -0.163297,0.192236 -0.163297,0.527099 0,0.332796 0.163297,0.527099 0.165364,0.192237 0.446484,0.192237 0.28112,0 0.444417,-0.192237 0.165364,-0.194303 0.165364,-0.527099 0,-0.334863 -0.165364,-0.527099 -0.163297,-0.192236 -0.444417,-0.192236 z m 0.828889,-1.308446 v 0.380338 q -0.157096,-0.07441 -0.318326,-0.113688 -0.159164,-0.03927 -0.31626,-0.03927 -0.413411,0 -0.632519,0.279052 -0.217041,0.279053 -0.248046,0.843359 0.121956,-0.179834 0.305924,-0.274918 0.183968,-0.09715 0.405143,-0.09715 0.465087,0 0.733804,0.283187 0.270785,0.281119 0.270785,0.766877 0,0.475423 -0.28112,0.762744 -0.281119,0.287321 -0.748274,0.287321 -0.535367,0 -0.818554,-0.409277 -0.283187,-0.411345 -0.283187,-1.190624 0,-0.731738 0.347266,-1.16582 0.347265,-0.436149 0.932242,-0.436149 0.157096,0 0.316259,0.03101 0.161231,0.03101 0.334863,0.09302 z"
         style="font-size:4.23333px;stroke-width:0.264583"
         id="path2816" />
      <path
         d="m 22.007887,35.46626 -1.054198,1.647443 h 1.054198 z m -0.109554,-0.363802 h 0.525032 v 2.011245 h 0.440283 v 0.347265 h -0.440283 v 0.727604 h -0.415478 v -0.727604 h -1.393196 v -0.403075 z"
         style="font-size:4.23333px;stroke-width:0.264583"
         id="path2818" />
    </g>
    <path
       id="path1599"
       d="M 38.566426,17.055039 22.693774,4.9513577"
       style="fill:none;stroke:#000000;stroke-width:0.265;stroke-linecap:butt;stroke-linejoin:miter;stroke-miterlimit:4;stroke-dasharray:0.795, 0.795;stroke-dashoffset:0;stroke-opacity:1" />
    <path
       id="path1601"
       d="m 38.852805,28.12375 -16.1628,12.897371"
       style="fill:none;stroke:#000000;stroke-width:0.265;stroke-linecap:butt;stroke-linejoin:miter;stroke-miterlimit:4;stroke-dasharray:0.795, 0.795;stroke-dashoffset:0;stroke-opacity:1" />
    <g
       style="font-size:4.93889px;line-height:1.25;font-family:sans-serif;-inkscape-font-specification:sans-serif;stroke-width:0.264583"
       id="text1085"
       aria-label="Classification outputs"
       transform="matrix(0.67050534,0,0,0.67050534,23.488459,0.84455533)">
      <g
         style="font-size:6.83978px;line-height:1.25;font-family:sans-serif;-inkscape-font-specification:sans-serif;stroke-width:0.104405"
         id="text3423"
         aria-label="Acceleration">
        <path
           id="path3592"
           style="font-size:6.83978px;stroke-width:0.104405"
           d="m 6.1174661,134.23345 -0.9150878,2.48142 h 1.8335152 z m -0.38073,-0.66461 h 0.7647996 l 1.90031,4.98623 H 7.7005011 L 7.2462969,137.27595 H 4.9986544 l -0.4542041,1.27912 H 3.8330865 Z" />
        <path
           id="path3594"
           style="font-size:6.83978px;stroke-width:0.104405"
           d="m 11.671448,134.95817 v 0.57444 q -0.2605,-0.14361 -0.524339,-0.21375 -0.260499,-0.0735 -0.527678,-0.0735 -0.597813,0 -0.928447,0.38073 -0.3306339,0.37739 -0.3306339,1.06204 0,0.68464 0.3306339,1.06537 0.330634,0.37739 0.928447,0.37739 0.267179,0 0.527678,-0.0701 0.263839,-0.0735 0.524339,-0.21708 v 0.56775 q -0.25716,0.12023 -0.534358,0.18035 -0.273859,0.0601 -0.584454,0.0601 -0.8449533,0 -1.342574,-0.53102 -0.4976207,-0.53101 -0.4976207,-1.43274 0,-0.91509 0.5009604,-1.43943 0.5043002,-0.52434 1.3793113,-0.52434 0.283877,0 0.554396,0.0601 0.270519,0.0568 0.524339,0.17366 z" />
        <path
           id="path3596"
           style="font-size:6.83978px;stroke-width:0.104405"
           d="m 15.43867,134.95817 v 0.57444 q -0.2605,-0.14361 -0.524339,-0.21375 -0.2605,-0.0735 -0.527678,-0.0735 -0.597813,0 -0.928447,0.38073 -0.330634,0.37739 -0.330634,1.06204 0,0.68464 0.330634,1.06537 0.330634,0.37739 0.928447,0.37739 0.267178,0 0.527678,-0.0701 0.263839,-0.0735 0.524339,-0.21708 v 0.56775 q -0.25716,0.12023 -0.534358,0.18035 -0.273859,0.0601 -0.584454,0.0601 -0.844953,0 -1.342574,-0.53102 -0.497621,-0.53101 -0.497621,-1.43274 0,-0.91509 0.500961,-1.43943 0.5043,-0.52434 1.379311,-0.52434 0.283877,0 0.554396,0.0601 0.270519,0.0568 0.524339,0.17366 z" />
        <path
           id="path3598"
           style="font-size:6.83978px;stroke-width:0.104405"
           d="m 19.713533,136.53119 v 0.30058 h -2.825417 q 0.04008,0.63454 0.38073,0.96852 0.343993,0.33063 0.955164,0.33063 0.354012,0 0.684646,-0.0868 0.333974,-0.0868 0.661268,-0.2605 v 0.58111 q -0.330634,0.14027 -0.677966,0.21375 -0.347333,0.0735 -0.704685,0.0735 -0.895049,0 -1.419388,-0.521 -0.520998,-0.521 -0.520998,-1.40937 0,-0.91842 0.494281,-1.45612 0.49762,-0.54104 1.339234,-0.54104 0.75478,0 1.192286,0.4876 0.440845,0.48426 0.440845,1.3192 z m -0.614512,-0.18035 q -0.0067,-0.5043 -0.283877,-0.80487 -0.273859,-0.30058 -0.728063,-0.30058 -0.514319,0 -0.824915,0.29056 -0.307255,0.29055 -0.354012,0.81823 z" />
        <path
           id="path3600"
           style="font-size:6.83978px;stroke-width:0.104405"
           d="m 20.722132,133.35844 h 0.614512 v 5.19663 h -0.614512 z" />
        <path
           id="path3602"
           style="font-size:6.83978px;stroke-width:0.104405"
           d="m 25.81857,136.53119 v 0.30058 h -2.825416 q 0.04008,0.63454 0.38073,0.96852 0.343992,0.33063 0.955164,0.33063 0.354012,0 0.684646,-0.0868 0.333974,-0.0868 0.661268,-0.2605 v 0.58111 q -0.330634,0.14027 -0.677967,0.21375 -0.347332,0.0735 -0.704684,0.0735 -0.895049,0 -1.419388,-0.521 -0.520999,-0.521 -0.520999,-1.40937 0,-0.91842 0.494281,-1.45612 0.497621,-0.54104 1.339234,-0.54104 0.754781,0 1.192286,0.4876 0.440845,0.48426 0.440845,1.3192 z m -0.614511,-0.18035 q -0.0067,-0.5043 -0.283878,-0.80487 -0.273858,-0.30058 -0.728062,-0.30058 -0.514319,0 -0.824915,0.29056 -0.307256,0.29055 -0.354012,0.81823 z" />
        <path
           id="path3604"
           style="font-size:6.83978px;stroke-width:0.104405"
           d="m 28.994659,135.389 q -0.103532,-0.0601 -0.227102,-0.0868 -0.120231,-0.0301 -0.267179,-0.0301 -0.520999,0 -0.801537,0.34065 -0.277198,0.33731 -0.277198,0.97186 v 1.97045 h -0.617851 v -3.74051 h 0.617851 v 0.58112 q 0.193705,-0.34065 0.5043,-0.5043 0.310596,-0.16699 0.754781,-0.16699 0.06345,0 0.140269,0.01 0.07681,0.007 0.170326,0.0234 z" />
        <path
           id="path3606"
           style="font-size:6.83978px;stroke-width:0.104405"
           d="m 31.345835,136.6748 q -0.744761,0 -1.031979,0.17032 -0.287217,0.17033 -0.287217,0.58112 0,0.32729 0.213743,0.521 0.217083,0.19036 0.587794,0.19036 0.510979,0 0.818235,-0.36069 0.310595,-0.36403 0.310595,-0.96518 v -0.13693 z m 1.225683,-0.25382 v 2.13409 h -0.614512 v -0.56776 q -0.210403,0.34066 -0.524338,0.5043 -0.313935,0.16031 -0.768139,0.16031 -0.574435,0 -0.915088,-0.32061 -0.337314,-0.32396 -0.337314,-0.865 0,-0.63121 0.420807,-0.95182 0.424147,-0.32061 1.262421,-0.32061 h 0.861651 v -0.0601 q 0,-0.42415 -0.280537,-0.65459 -0.277198,-0.23378 -0.781499,-0.23378 -0.320614,0 -0.62453,0.0768 -0.303916,0.0768 -0.584454,0.23045 v -0.56776 q 0.337313,-0.13025 0.654588,-0.1937 0.317275,-0.0668 0.617851,-0.0668 0.811556,0 1.212325,0.42081 0.400768,0.42081 0.400768,1.27578 z" />
        <path
           id="path3608"
           style="font-size:6.83978px;stroke-width:0.104405"
           d="m 34.448449,133.75253 v 1.06203 h 1.26576 v 0.47759 h -1.26576 v 2.03056 q 0,0.45754 0.12357,0.58779 0.12691,0.13025 0.51098,0.13025 h 0.63121 v 0.51432 h -0.63121 q -0.711364,0 -0.981883,-0.26384 -0.270518,-0.26718 -0.270518,-0.96852 v -2.03056 h -0.450865 v -0.47759 h 0.450865 v -1.06203 z" />
        <path
           id="path3610"
           style="font-size:6.83978px;stroke-width:0.104405"
           d="m 36.525767,134.81456 h 0.614511 v 3.74051 h -0.614511 z m 0,-1.45612 h 0.614511 v 0.77816 h -0.614511 z" />
        <path
           id="path3612"
           style="font-size:6.83978px;stroke-width:0.104405"
           d="m 39.872181,135.24539 q -0.494281,0 -0.781498,0.38741 -0.287217,0.38407 -0.287217,1.05536 0,0.67128 0.283877,1.05869 0.287218,0.38407 0.784838,0.38407 0.490942,0 0.778159,-0.38741 0.287217,-0.38741 0.287217,-1.05535 0,-0.66461 -0.287217,-1.05202 -0.287217,-0.39075 -0.778159,-0.39075 z m 0,-0.521 q 0.801537,0 1.259081,0.521 0.457544,0.521 0.457544,1.44277 0,0.91842 -0.457544,1.44276 -0.457544,0.521 -1.259081,0.521 -0.804876,0 -1.26242,-0.521 -0.454204,-0.52434 -0.454204,-1.44276 0,-0.92177 0.454204,-1.44277 0.457544,-0.521 1.26242,-0.521 z" />
        <path
           id="path3614"
           style="font-size:6.83978px;stroke-width:0.104405"
           d="m 45.713381,136.29741 v 2.25766 H 45.09887 v -2.23762 q 0,-0.53102 -0.207064,-0.79486 -0.207064,-0.26384 -0.621191,-0.26384 -0.497621,0 -0.784838,0.31727 -0.287217,0.31728 -0.287217,0.865 v 2.11405 h -0.617852 v -3.74051 h 0.617852 v 0.58112 q 0.220422,-0.33731 0.517659,-0.5043 0.300576,-0.16699 0.691325,-0.16699 0.644569,0 0.975203,0.40077 0.330634,0.39743 0.330634,1.17225 z" />
      </g>
    </g>
    <g
       style="font-size:4.58611px;line-height:1.25;font-family:sans-serif;-inkscape-font-specification:sans-serif;stroke-width:0.264583"
       id="text3451"
       aria-label="Steering">
      <path
         id="path3617"
         style="font-size:4.58611px;stroke-width:0.264583"
         d="m 61.31659,90.438301 v 0.441145 q -0.257521,-0.123162 -0.48593,-0.183624 -0.22841,-0.06046 -0.441145,-0.06046 -0.369486,0 -0.571024,0.143316 -0.199299,0.143316 -0.199299,0.407555 0,0.221691 0.132119,0.335896 0.134359,0.111966 0.506085,0.181384 l 0.273196,0.05598 q 0.506084,0.09629 0.745691,0.340376 0.241845,0.241845 0.241845,0.6494 0,0.485931 -0.326939,0.736734 -0.3247,0.250802 -0.953947,0.250802 -0.237367,0 -0.506084,-0.05374 -0.266478,-0.05374 -0.55311,-0.158991 v -0.465777 q 0.275435,0.154512 0.539674,0.232888 0.264238,0.07838 0.51952,0.07838 0.387401,0 0.597896,-0.152273 0.210495,-0.152273 0.210495,-0.434426 0,-0.246325 -0.152273,-0.385162 -0.150034,-0.138837 -0.494888,-0.208256 L 60.123037,92.1357 q -0.506084,-0.100769 -0.732255,-0.315743 -0.22617,-0.214974 -0.22617,-0.597896 0,-0.443384 0.311264,-0.698666 0.313504,-0.255281 0.862135,-0.255281 0.235128,0 0.479213,0.04255 0.244085,0.04255 0.499366,0.12764 z" />
      <path
         id="path3619"
         style="font-size:4.58611px;stroke-width:0.264583"
         d="m 62.613152,90.451737 v 0.712101 h 0.848699 v 0.320222 h -0.848699 v 1.361501 q 0,0.306786 0.08285,0.394119 0.08509,0.08733 0.342615,0.08733 h 0.42323 v 0.344854 h -0.42323 q -0.476973,0 -0.658358,-0.176905 -0.181384,-0.179145 -0.181384,-0.649401 V 91.48406 h -0.302307 v -0.320222 h 0.302307 v -0.712101 z" />
      <path
         id="path3621"
         style="font-size:4.58611px;stroke-width:0.264583"
         d="m 66.151264,92.314845 v 0.201538 h -1.894458 q 0.02687,0.425469 0.255282,0.6494 0.230649,0.221692 0.640443,0.221692 0.237367,0 0.459059,-0.05822 0.223931,-0.05822 0.443384,-0.174667 v 0.389641 q -0.221692,0.09405 -0.454581,0.143316 -0.232888,0.04926 -0.472494,0.04926 -0.600136,0 -0.951708,-0.349332 -0.349332,-0.349333 -0.349332,-0.94499 0,-0.61581 0.331418,-0.97634 0.333657,-0.362768 0.897964,-0.362768 0.506084,0 0.799434,0.326939 0.295589,0.324701 0.295589,0.884529 z m -0.412033,-0.120923 q -0.0045,-0.338136 -0.190342,-0.539674 -0.183623,-0.201538 -0.48817,-0.201538 -0.344854,0 -0.55311,0.19482 -0.206016,0.19482 -0.237367,0.548631 z" />
      <path
         id="path3623"
         style="font-size:4.58611px;stroke-width:0.264583"
         d="m 68.972796,92.314845 v 0.201538 h -1.894457 q 0.02687,0.425469 0.255281,0.6494 0.230649,0.221692 0.640443,0.221692 0.237367,0 0.459059,-0.05822 0.223931,-0.05822 0.443384,-0.174667 v 0.389641 q -0.221692,0.09405 -0.45458,0.143316 -0.232889,0.04926 -0.472495,0.04926 -0.600136,0 -0.951708,-0.349332 -0.349332,-0.349333 -0.349332,-0.94499 0,-0.61581 0.331418,-0.97634 0.333657,-0.362768 0.897964,-0.362768 0.506084,0 0.799434,0.326939 0.295589,0.324701 0.295589,0.884529 z m -0.412033,-0.120923 q -0.0045,-0.338136 -0.190342,-0.539674 -0.183623,-0.201538 -0.48817,-0.201538 -0.344854,0 -0.55311,0.19482 -0.206016,0.19482 -0.237367,0.548631 z" />
      <path
         id="path3625"
         style="font-size:4.58611px;stroke-width:0.264583"
         d="m 71.102381,91.549 q -0.06942,-0.04031 -0.152273,-0.05822 -0.08061,-0.02015 -0.179145,-0.02015 -0.349333,0 -0.537435,0.22841 -0.185863,0.22617 -0.185863,0.65164 v 1.321193 h -0.414272 v -2.508029 h 0.414272 v 0.389641 q 0.12988,-0.22841 0.338136,-0.338136 0.208256,-0.111966 0.506085,-0.111966 0.04255,0 0.09405,0.0067 0.0515,0.0045 0.114205,0.01568 z" />
      <path
         id="path3627"
         style="font-size:4.58611px;stroke-width:0.264583"
         d="m 71.539047,91.163838 h 0.412034 v 2.508029 h -0.412034 z m 0,-0.976339 h 0.412034 v 0.521759 h -0.412034 z" />
      <path
         id="path3629"
         style="font-size:4.58611px;stroke-width:0.264583"
         d="m 74.895775,92.158093 v 1.513774 h -0.412033 v -1.500338 q 0,-0.356051 -0.138837,-0.532957 -0.138838,-0.176905 -0.416512,-0.176905 -0.333658,0 -0.526239,0.212734 -0.19258,0.212735 -0.19258,0.579982 v 1.417484 h -0.414273 v -2.508029 h 0.414273 v 0.389641 q 0.147794,-0.226171 0.347093,-0.338136 0.201538,-0.111966 0.463537,-0.111966 0.432187,0 0.653879,0.268717 0.221692,0.266478 0.221692,0.785999 z" />
      <path
         id="path3631"
         style="font-size:4.58611px;stroke-width:0.264583"
         d="m 77.372454,92.388742 q 0,-0.447862 -0.185863,-0.694187 -0.183624,-0.246324 -0.517281,-0.246324 -0.331418,0 -0.517281,0.246324 -0.183623,0.246325 -0.183623,0.694187 0,0.445623 0.183623,0.691947 0.185863,0.246324 0.517281,0.246324 0.333657,0 0.517281,-0.246324 0.185863,-0.246324 0.185863,-0.691947 z m 0.412033,0.971861 q 0,0.640443 -0.284392,0.951707 -0.284393,0.313504 -0.871093,0.313504 -0.217213,0 -0.409794,-0.03359 -0.19258,-0.03135 -0.373965,-0.09853 v -0.400837 q 0.181385,0.09853 0.35829,0.145555 0.176906,0.04703 0.360529,0.04703 0.405316,0 0.606854,-0.212735 0.201538,-0.210495 0.201538,-0.638204 v -0.203777 q -0.127641,0.221692 -0.32694,0.331418 -0.199298,0.109726 -0.476973,0.109726 -0.461298,0 -0.743451,-0.351572 -0.282154,-0.351571 -0.282154,-0.931553 0,-0.582221 0.282154,-0.933793 0.282153,-0.351572 0.743451,-0.351572 0.277675,0 0.476973,0.109726 0.199299,0.109727 0.32694,0.331418 v -0.380683 h 0.412033 z" />
    </g>
  </g>
</svg>
