<?xml version="1.0" encoding="UTF-8" standalone="no"?>
<svg
   xmlns:dc="http://purl.org/dc/elements/1.1/"
   xmlns:cc="http://creativecommons.org/ns#"
   xmlns:rdf="http://www.w3.org/1999/02/22-rdf-syntax-ns#"
   xmlns:svg="http://www.w3.org/2000/svg"
   xmlns="http://www.w3.org/2000/svg"
   xmlns:sodipodi="http://sodipodi.sourceforge.net/DTD/sodipodi-0.dtd"
   xmlns:inkscape="http://www.inkscape.org/namespaces/inkscape"
   sodipodi:docname="steeringlstmsplit.svg"
   inkscape:version="1.0 (1.0+r73+1)"
   id="svg5349"
   version="1.1"
   viewBox="0 0 210 297"
   height="297mm"
   width="210mm">
  <defs
     id="defs5343">
    <marker
       inkscape:isstock="true"
       style="overflow:visible"
       id="marker1721"
       refX="0"
       refY="0"
       orient="auto"
       inkscape:stockid="Arrow1Mend">
      <path
         transform="matrix(-0.4,0,0,-0.4,-4,0)"
         style="fill:#000000;fill-opacity:1;fill-rule:evenodd;stroke:#000000;stroke-width:1pt;stroke-opacity:1"
         d="M 0,0 5,-5 -12.5,0 5,5 Z"
         id="path1719" />
    </marker>
    <marker
       inkscape:isstock="true"
       style="overflow:visible"
       id="marker1711"
       refX="0"
       refY="0"
       orient="auto"
       inkscape:stockid="Arrow1Mend">
      <path
         transform="matrix(-0.4,0,0,-0.4,-4,0)"
         style="fill:#000000;fill-opacity:1;fill-rule:evenodd;stroke:#000000;stroke-width:1pt;stroke-opacity:1"
         d="M 0,0 5,-5 -12.5,0 5,5 Z"
         id="path1709" />
    </marker>
    <marker
       inkscape:collect="always"
       inkscape:stockid="Arrow1Mend"
       orient="auto"
       refY="0"
       refX="0"
       id="marker1611"
       style="overflow:visible"
       inkscape:isstock="true">
      <path
         id="path1609"
         d="M 0,0 5,-5 -12.5,0 5,5 Z"
         style="fill:#000000;fill-opacity:1;fill-rule:evenodd;stroke:#000000;stroke-width:1pt;stroke-opacity:1"
         transform="matrix(-0.4,0,0,-0.4,-4,0)" />
    </marker>
    <marker
       inkscape:stockid="Arrow1Mend"
       orient="auto"
       refY="0"
       refX="0"
       id="marker1601"
       style="overflow:visible"
       inkscape:isstock="true">
      <path
         id="path1599"
         d="M 0,0 5,-5 -12.5,0 5,5 Z"
         style="fill:#000000;fill-opacity:1;fill-rule:evenodd;stroke:#000000;stroke-width:1pt;stroke-opacity:1"
         transform="matrix(-0.4,0,0,-0.4,-4,0)" />
    </marker>
    <marker
       inkscape:collect="always"
       inkscape:isstock="true"
       style="overflow:visible"
       id="marker6797"
       refX="0"
       refY="0"
       orient="auto"
       inkscape:stockid="Arrow1Mend">
      <path
         transform="matrix(-0.4,0,0,-0.4,-4,0)"
         style="fill:#000000;fill-opacity:1;fill-rule:evenodd;stroke:#000000;stroke-width:1pt;stroke-opacity:1"
         d="M 0,0 5,-5 -12.5,0 5,5 Z"
         id="path6795" />
    </marker>
    <marker
       inkscape:isstock="true"
       style="overflow:visible"
       id="marker6787"
       refX="0"
       refY="0"
       orient="auto"
       inkscape:stockid="Arrow1Mend">
      <path
         transform="matrix(-0.4,0,0,-0.4,-4,0)"
         style="fill:#000000;fill-opacity:1;fill-rule:evenodd;stroke:#000000;stroke-width:1pt;stroke-opacity:1"
         d="M 0,0 5,-5 -12.5,0 5,5 Z"
         id="path6785" />
    </marker>
    <marker
       inkscape:isstock="true"
       style="overflow:visible"
       id="marker6777"
       refX="0"
       refY="0"
       orient="auto"
       inkscape:stockid="Arrow1Mend">
      <path
         transform="matrix(-0.4,0,0,-0.4,-4,0)"
         style="fill:#000000;fill-opacity:1;fill-rule:evenodd;stroke:#000000;stroke-width:1pt;stroke-opacity:1"
         d="M 0,0 5,-5 -12.5,0 5,5 Z"
         id="path6775" />
    </marker>
    <marker
       inkscape:isstock="true"
       style="overflow:visible"
       id="marker6755"
       refX="0"
       refY="0"
       orient="auto"
       inkscape:stockid="Arrow1Mend">
      <path
         transform="matrix(-0.4,0,0,-0.4,-4,0)"
         style="fill:#000000;fill-opacity:1;fill-rule:evenodd;stroke:#000000;stroke-width:1pt;stroke-opacity:1"
         d="M 0,0 5,-5 -12.5,0 5,5 Z"
         id="path6753" />
    </marker>
    <marker
       inkscape:isstock="true"
       style="overflow:visible"
       id="marker6745"
       refX="0"
       refY="0"
       orient="auto"
       inkscape:stockid="Arrow1Mend">
      <path
         transform="matrix(-0.4,0,0,-0.4,-4,0)"
         style="fill:#000000;fill-opacity:1;fill-rule:evenodd;stroke:#000000;stroke-width:1pt;stroke-opacity:1"
         d="M 0,0 5,-5 -12.5,0 5,5 Z"
         id="path6743" />
    </marker>
    <marker
       inkscape:isstock="true"
       style="overflow:visible"
       id="marker6735"
       refX="0"
       refY="0"
       orient="auto"
       inkscape:stockid="Arrow1Mend">
      <path
         transform="matrix(-0.4,0,0,-0.4,-4,0)"
         style="fill:#000000;fill-opacity:1;fill-rule:evenodd;stroke:#000000;stroke-width:1pt;stroke-opacity:1"
         d="M 0,0 5,-5 -12.5,0 5,5 Z"
         id="path6733" />
    </marker>
    <marker
       inkscape:stockid="Arrow1Mend"
       orient="auto"
       refY="0"
       refX="0"
       id="marker6641"
       style="overflow:visible"
       inkscape:isstock="true">
      <path
         id="path6639"
         d="M 0,0 5,-5 -12.5,0 5,5 Z"
         style="fill:#000000;fill-opacity:1;fill-rule:evenodd;stroke:#000000;stroke-width:1pt;stroke-opacity:1"
         transform="matrix(-0.4,0,0,-0.4,-4,0)" />
    </marker>
    <marker
       inkscape:stockid="Arrow1Mend"
       orient="auto"
       refY="0"
       refX="0"
       id="marker6631"
       style="overflow:visible"
       inkscape:isstock="true">
      <path
         id="path6629"
         d="M 0,0 5,-5 -12.5,0 5,5 Z"
         style="fill:#000000;fill-opacity:1;fill-rule:evenodd;stroke:#000000;stroke-width:1pt;stroke-opacity:1"
         transform="matrix(-0.4,0,0,-0.4,-4,0)" />
    </marker>
    <marker
       inkscape:stockid="Arrow1Mend"
       orient="auto"
       refY="0"
       refX="0"
       id="marker1529"
       style="overflow:visible"
       inkscape:isstock="true">
      <path
         id="path1527"
         d="M 0,0 5,-5 -12.5,0 5,5 Z"
         style="fill:#000000;fill-opacity:1;fill-rule:evenodd;stroke:#000000;stroke-width:1pt;stroke-opacity:1"
         transform="matrix(-0.4,0,0,-0.4,-4,0)" />
    </marker>
    <marker
       inkscape:stockid="Arrow1Mend"
       orient="auto"
       refY="0"
       refX="0"
       id="marker3951"
       style="overflow:visible"
       inkscape:isstock="true">
      <path
         id="path3949"
         d="M 0,0 5,-5 -12.5,0 5,5 Z"
         style="fill:#000000;fill-opacity:1;fill-rule:evenodd;stroke:#000000;stroke-width:1pt;stroke-opacity:1"
         transform="matrix(-0.4,0,0,-0.4,-4,0)" />
    </marker>
    <marker
       inkscape:stockid="Arrow1Mend"
       orient="auto"
       refY="0"
       refX="0"
       id="marker3961"
       style="overflow:visible"
       inkscape:isstock="true">
      <path
         id="path3959"
         d="M 0,0 5,-5 -12.5,0 5,5 Z"
         style="fill:#000000;fill-opacity:1;fill-rule:evenodd;stroke:#000000;stroke-width:1pt;stroke-opacity:1"
         transform="matrix(-0.4,0,0,-0.4,-4,0)" />
    </marker>
  </defs>
  <sodipodi:namedview
     inkscape:window-maximized="1"
     inkscape:window-y="0"
     inkscape:window-x="0"
     inkscape:window-height="850"
     inkscape:window-width="1600"
     inkscape:snap-midpoints="true"
     showgrid="false"
     inkscape:document-rotation="0"
     inkscape:current-layer="layer1"
     inkscape:document-units="mm"
     inkscape:cy="337.54232"
     inkscape:cx="207.86543"
     inkscape:zoom="0.7"
     inkscape:pageshadow="2"
     inkscape:pageopacity="0.0"
     borderopacity="1.0"
     bordercolor="#666666"
     pagecolor="#ffffff"
     id="base"
     showguides="false"
     inkscape:snap-global="true" />
  <metadata
     id="metadata5346">
    <rdf:RDF>
      <cc:Work
         rdf:about="">
        <dc:format>image/svg+xml</dc:format>
        <dc:type
           rdf:resource="http://purl.org/dc/dcmitype/StillImage" />
        <dc:title></dc:title>
      </cc:Work>
    </rdf:RDF>
  </metadata>
  <g
     id="layer1"
     inkscape:groupmode="layer"
     inkscape:label="Layer 1">
    <g
       transform="translate(-2.541503,1.3233723)"
       id="g1445">
      <g
         transform="translate(-19.377155,-65.003224)"
         id="g983">
        <path
           d="m 82.319754,124.92082 h 23.603886 c 0.41816,0 0.7548,0.33664 0.7548,0.7548 v 9.32986 c 0,0.41815 -0.33664,0.75479 -0.7548,0.75479 H 82.319754 c -0.418158,0 -0.754797,-0.33664 -0.754797,-0.75479 v -9.32986 c 0,-0.41816 0.336639,-0.7548 0.754797,-0.7548 z"
           style="opacity:0.707;fill:#fabe50;stroke:#000000;stroke-width:0.1961;stop-color:#000000"
           id="rect857" />
        <g
           style="font-size:4.93889px;line-height:1.25;font-family:sans-serif;-inkscape-font-specification:sans-serif;stroke-width:0.205901"
           id="text843"
           aria-label="Dense 1">
          <path
             id="path8299"
             style="font-size:4.93889px;stroke-width:0.205901"
             d="m 84.927596,128.90567 v 2.79983 h 0.588422 q 0.745175,0 1.090029,-0.33762 0.347265,-0.33762 0.347265,-1.06591 0,-0.72347 -0.347265,-1.05868 -0.344854,-0.33762 -1.090029,-0.33762 z m -0.487137,-0.40032 h 1.000801 q 1.04662,0 1.536168,0.43649 0.489548,0.43409 0.489548,1.36013 0,0.93086 -0.491959,1.36736 -0.49196,0.43649 -1.533757,0.43649 h -1.000801 z" />
          <path
             id="path8301"
             style="font-size:4.93889px;stroke-width:0.205901"
             d="m 90.532078,130.64441 v 0.21704 h -2.040186 q 0.02894,0.4582 0.274919,0.69936 0.248392,0.23874 0.689708,0.23874 0.255626,0 0.494372,-0.0627 0.241156,-0.0627 0.47749,-0.1881 v 0.41961 q -0.238745,0.10129 -0.489548,0.15434 -0.250803,0.0531 -0.508841,0.0531 -0.6463,0 -1.024916,-0.37621 -0.376205,-0.3762 -0.376205,-1.01768 0,-0.66318 0.356912,-1.05144 0.359324,-0.39068 0.967039,-0.39068 0.545014,0 0.860929,0.35209 0.318327,0.34968 0.318327,0.95257 z m -0.443728,-0.13022 q -0.0048,-0.36415 -0.204983,-0.58119 -0.197749,-0.21704 -0.525722,-0.21704 -0.371381,0 -0.595657,0.2098 -0.221864,0.20981 -0.255626,0.59084 z" />
          <path
             id="path8303"
             style="font-size:4.93889px;stroke-width:0.205901"
             d="m 93.505541,130.4756 v 1.63022 h -0.443729 v -1.61575 q 0,-0.38344 -0.149517,-0.57395 -0.149517,-0.19052 -0.448551,-0.19052 -0.359324,0 -0.566719,0.2291 -0.207394,0.2291 -0.207394,0.6246 v 1.52652 h -0.44614 v -2.70096 h 0.44614 v 0.41962 q 0.159163,-0.24357 0.373792,-0.36415 0.217042,-0.12058 0.499195,-0.12058 0.465432,0 0.704178,0.28939 0.238745,0.28698 0.238745,0.84646 z" />
          <path
             id="path8305"
             style="font-size:4.93889px;stroke-width:0.205901"
             d="m 96.117269,129.48445 v 0.41961 q -0.188102,-0.0965 -0.390674,-0.1447 -0.202572,-0.0482 -0.419613,-0.0482 -0.330384,0 -0.496782,0.10129 -0.163987,0.10128 -0.163987,0.30386 0,0.15434 0.118167,0.24356 0.118167,0.0868 0.475079,0.1664 l 0.151928,0.0338 q 0.472667,0.10128 0.670416,0.28697 0.20016,0.18328 0.20016,0.51367 0,0.3762 -0.299034,0.59565 -0.296623,0.21946 -0.817522,0.21946 -0.217041,0 -0.453374,-0.0434 -0.233922,-0.041 -0.494372,-0.1254 v -0.4582 q 0.24598,0.12781 0.484725,0.19292 0.238746,0.0627 0.472668,0.0627 0.313503,0 0.482313,-0.10611 0.16881,-0.10852 0.16881,-0.30385 0,-0.18087 -0.12299,-0.27733 -0.120578,-0.0965 -0.532956,-0.18569 l -0.154341,-0.0362 q -0.412378,-0.0868 -0.595657,-0.26527 -0.183279,-0.18087 -0.183279,-0.49437 0,-0.38103 0.270095,-0.58842 0.270096,-0.2074 0.766879,-0.2074 0.24598,0 0.463021,0.0362 0.217041,0.0362 0.40032,0.10852 z" />
          <path
             id="path8307"
             style="font-size:4.93889px;stroke-width:0.205901"
             d="m 99.281245,130.64441 v 0.21704 h -2.040186 q 0.02894,0.4582 0.274919,0.69936 0.248391,0.23874 0.689708,0.23874 0.255626,0 0.494372,-0.0627 0.241156,-0.0627 0.47749,-0.1881 v 0.41961 q -0.238745,0.10129 -0.489548,0.15434 -0.250803,0.0531 -0.508841,0.0531 -0.6463,0 -1.024916,-0.37621 -0.376205,-0.3762 -0.376205,-1.01768 0,-0.66318 0.356912,-1.05144 0.359324,-0.39068 0.967039,-0.39068 0.545014,0 0.860929,0.35209 0.318327,0.34968 0.318327,0.95257 z m -0.443728,-0.13022 q -0.0048,-0.36415 -0.204983,-0.58119 -0.197749,-0.21704 -0.525722,-0.21704 -0.371381,0 -0.595657,0.2098 -0.221864,0.20981 -0.255626,0.59084 z" />
          <path
             id="path8309"
             style="font-size:4.93889px;stroke-width:0.205901"
             d="m 101.72899,131.69585 h 0.79581 v -2.74677 l -0.86575,0.17363 v -0.44373 l 0.86093,-0.17363 h 0.48714 v 3.1905 h 0.79581 v 0.40997 h -2.07394 z" />
        </g>
      </g>
      <g
         transform="translate(-17.848713,-82.197042)"
         id="g973">
        <path
           d="M 80.791311,157.10873 H 104.3952 c 0.41816,0 0.7548,0.33664 0.7548,0.7548 v 9.32986 c 0,0.41816 -0.33664,0.75479 -0.7548,0.75479 H 80.791311 c -0.418157,0 -0.754797,-0.33663 -0.754797,-0.75479 v -9.32986 c 0,-0.41816 0.33664,-0.7548 0.754797,-0.7548 z"
           style="opacity:0.707;fill:#fabe50;stroke:#000000;stroke-width:0.1961;stop-color:#000000"
           id="rect857-4" />
        <g
           style="font-size:4.93889px;line-height:1.25;font-family:sans-serif;-inkscape-font-specification:sans-serif;stroke-width:0.264583"
           id="text847"
           aria-label="Dense 2">
          <path
             id="path8313"
             style="font-size:4.93889px;stroke-width:0.264583"
             d="m 84.204619,161.12613 v 2.79983 h 0.588423 q 0.745174,0 1.090028,-0.33762 0.347266,-0.33762 0.347266,-1.06591 0,-0.72347 -0.347266,-1.05868 -0.344854,-0.33762 -1.090028,-0.33762 z m -0.487136,-0.40032 h 1.0008 q 1.04662,0 1.536168,0.43649 0.489549,0.43408 0.489549,1.36013 0,0.93086 -0.49196,1.36735 -0.49196,0.4365 -1.533757,0.4365 h -1.0008 z" />
          <path
             id="path8315"
             style="font-size:4.93889px;stroke-width:0.264583"
             d="m 89.809102,162.86487 v 0.21704 h -2.040186 q 0.02894,0.4582 0.274918,0.69935 0.248392,0.23875 0.689709,0.23875 0.255626,0 0.494371,-0.0627 0.241157,-0.0627 0.47749,-0.1881 v 0.41961 q -0.238745,0.10129 -0.489548,0.15434 -0.250803,0.053 -0.508841,0.053 -0.6463,0 -1.024916,-0.3762 -0.376204,-0.3762 -0.376204,-1.01768 0,-0.66318 0.356912,-1.05145 0.359323,-0.39067 0.967038,-0.39067 0.545014,0 0.86093,0.35209 0.318327,0.34968 0.318327,0.95257 z m -0.443729,-0.13023 q -0.0048,-0.36414 -0.204983,-0.58118 -0.197748,-0.21704 -0.525722,-0.21704 -0.371381,0 -0.595657,0.2098 -0.221864,0.20981 -0.255626,0.59084 z" />
          <path
             id="path8317"
             style="font-size:4.93889px;stroke-width:0.264583"
             d="m 92.782564,162.69606 v 1.63022 h -0.443728 v -1.61575 q 0,-0.38344 -0.149517,-0.57395 -0.149518,-0.19052 -0.448552,-0.19052 -0.359324,0 -0.566718,0.2291 -0.207395,0.2291 -0.207395,0.6246 v 1.52652 h -0.44614 v -2.70096 h 0.44614 v 0.41962 q 0.159163,-0.24357 0.373793,-0.36415 0.217041,-0.12058 0.499194,-0.12058 0.465433,0 0.704178,0.28939 0.238745,0.28698 0.238745,0.84646 z" />
          <path
             id="path8319"
             style="font-size:4.93889px;stroke-width:0.264583"
             d="m 95.394292,161.7049 v 0.41962 q -0.188102,-0.0965 -0.390674,-0.1447 -0.202571,-0.0482 -0.419612,-0.0482 -0.330385,0 -0.496783,0.10129 -0.163987,0.10128 -0.163987,0.30386 0,0.15434 0.118167,0.24356 0.118167,0.0868 0.475079,0.1664 l 0.151929,0.0338 q 0.472667,0.10129 0.670415,0.28698 0.20016,0.18328 0.20016,0.51366 0,0.37621 -0.299034,0.59566 -0.296623,0.21945 -0.817521,0.21945 -0.217041,0 -0.453375,-0.0434 -0.233922,-0.041 -0.494371,-0.12541 v -0.45819 q 0.24598,0.12781 0.484725,0.19292 0.238745,0.0627 0.472667,0.0627 0.313504,0 0.482313,-0.10611 0.16881,-0.10852 0.16881,-0.30385 0,-0.18087 -0.12299,-0.27733 -0.120578,-0.0965 -0.532956,-0.18569 l -0.15434,-0.0362 q -0.412379,-0.0868 -0.595658,-0.26527 -0.183279,-0.18087 -0.183279,-0.49437 0,-0.38103 0.270096,-0.58842 0.270095,-0.2074 0.766878,-0.2074 0.24598,0 0.463021,0.0362 0.217041,0.0362 0.40032,0.10852 z" />
          <path
             id="path8321"
             style="font-size:4.93889px;stroke-width:0.264583"
             d="m 98.558269,162.86487 v 0.21704 h -2.040186 q 0.02894,0.4582 0.274918,0.69935 0.248392,0.23875 0.689709,0.23875 0.255626,0 0.494371,-0.0627 0.241157,-0.0627 0.47749,-0.1881 v 0.41961 q -0.238745,0.10129 -0.489548,0.15434 -0.250803,0.053 -0.508841,0.053 -0.6463,0 -1.024916,-0.3762 -0.376204,-0.3762 -0.376204,-1.01768 0,-0.66318 0.356912,-1.05145 0.359323,-0.39067 0.967038,-0.39067 0.545014,0 0.86093,0.35209 0.318327,0.34968 0.318327,0.95257 z m -0.443729,-0.13023 q -0.0048,-0.36414 -0.204983,-0.58118 -0.197748,-0.21704 -0.525722,-0.21704 -0.371381,0 -0.595657,0.2098 -0.221864,0.20981 -0.255626,0.59084 z" />
          <path
             id="path8323"
             style="font-size:4.93889px;stroke-width:0.264583"
             d="m 101.34122,163.91631 h 1.70015 v 0.40997 h -2.28616 v -0.40997 q 0.27733,-0.28697 0.75482,-0.76929 0.4799,-0.48472 0.60289,-0.62459 0.23392,-0.26286 0.32556,-0.44373 0.094,-0.18328 0.094,-0.35933 0,-0.28697 -0.20257,-0.46784 -0.20016,-0.18087 -0.52331,-0.18087 -0.2291,0 -0.48473,0.0796 -0.25321,0.0796 -0.5426,0.24116 v -0.49196 q 0.29421,-0.11817 0.54984,-0.17845 0.25563,-0.0603 0.46784,-0.0603 0.55949,0 0.89228,0.27974 0.3328,0.27974 0.3328,0.74758 0,0.22187 -0.0844,0.42203 -0.082,0.19775 -0.30144,0.46784 -0.0603,0.0699 -0.38344,0.40515 -0.32315,0.33279 -0.91157,0.93327 z" />
        </g>
      </g>
      <g
         transform="translate(-17.602804,-94.783086)"
         id="g978">
        <path
           d="m 80.545401,184.68887 h 23.603889 c 0.41816,0 0.7548,0.33664 0.7548,0.7548 v 9.32986 c 0,0.41815 -0.33664,0.75479 -0.7548,0.75479 H 80.545401 c -0.418158,0 -0.754797,-0.33664 -0.754797,-0.75479 v -9.32986 c 0,-0.41816 0.336639,-0.7548 0.754797,-0.7548 z"
           style="opacity:0.707;fill:#fabe50;stroke:#000000;stroke-width:0.1961;stop-color:#000000"
           id="rect857-4-7" />
        <g
           style="font-size:4.93889px;line-height:1.25;font-family:sans-serif;-inkscape-font-specification:sans-serif;stroke-width:0.217734"
           id="text851"
           aria-label="Dense 3">
          <path
             id="path8327"
             style="font-size:4.93889px;stroke-width:0.217734"
             d="m 83.123099,188.70627 v 2.79983 h 0.588423 q 0.745174,0 1.090028,-0.33762 0.347266,-0.33762 0.347266,-1.06591 0,-0.72347 -0.347266,-1.05868 -0.344854,-0.33762 -1.090028,-0.33762 z m -0.487136,-0.40032 h 1.0008 q 1.04662,0 1.536168,0.43649 0.489549,0.43408 0.489549,1.36013 0,0.93086 -0.49196,1.36735 -0.49196,0.4365 -1.533757,0.4365 h -1.0008 z" />
          <path
             id="path8329"
             style="font-size:4.93889px;stroke-width:0.217734"
             d="m 88.727582,190.44501 v 0.21704 h -2.040186 q 0.02894,0.4582 0.274918,0.69935 0.248392,0.23875 0.689709,0.23875 0.255626,0 0.494371,-0.0627 0.241157,-0.0627 0.47749,-0.1881 v 0.41961 q -0.238745,0.10128 -0.489548,0.15434 -0.250803,0.053 -0.508841,0.053 -0.6463,0 -1.024916,-0.3762 -0.376204,-0.37621 -0.376204,-1.01768 0,-0.66318 0.356912,-1.05145 0.359323,-0.39067 0.967038,-0.39067 0.545014,0 0.86093,0.35209 0.318327,0.34968 0.318327,0.95257 z m -0.443729,-0.13023 q -0.0048,-0.36414 -0.204983,-0.58118 -0.197749,-0.21705 -0.525722,-0.21705 -0.371381,0 -0.595657,0.20981 -0.221864,0.20981 -0.255626,0.59083 z" />
          <path
             id="path8331"
             style="font-size:4.93889px;stroke-width:0.217734"
             d="m 91.701044,190.2762 v 1.63022 h -0.443728 v -1.61575 q 0,-0.38344 -0.149518,-0.57396 -0.149517,-0.19051 -0.448551,-0.19051 -0.359324,0 -0.566718,0.2291 -0.207395,0.2291 -0.207395,0.6246 v 1.52652 h -0.44614 v -2.70096 h 0.44614 v 0.41962 q 0.159163,-0.24357 0.373793,-0.36415 0.217041,-0.12058 0.499194,-0.12058 0.465433,0 0.704178,0.28939 0.238745,0.28697 0.238745,0.84646 z" />
          <path
             id="path8333"
             style="font-size:4.93889px;stroke-width:0.217734"
             d="m 94.312772,189.28504 v 0.41962 q -0.188102,-0.0965 -0.390674,-0.1447 -0.202571,-0.0482 -0.419612,-0.0482 -0.330385,0 -0.496783,0.10129 -0.163987,0.10128 -0.163987,0.30385 0,0.15435 0.118167,0.24357 0.118167,0.0868 0.475079,0.1664 l 0.151928,0.0338 q 0.472668,0.10129 0.670416,0.28698 0.20016,0.18328 0.20016,0.51366 0,0.37621 -0.299034,0.59566 -0.296623,0.21945 -0.817521,0.21945 -0.217041,0 -0.453375,-0.0434 -0.233922,-0.041 -0.494371,-0.12541 v -0.45819 q 0.24598,0.12781 0.484725,0.19292 0.238745,0.0627 0.472667,0.0627 0.313504,0 0.482313,-0.10611 0.16881,-0.10852 0.16881,-0.30385 0,-0.18087 -0.12299,-0.27733 -0.120578,-0.0965 -0.532956,-0.1857 l -0.154341,-0.0362 q -0.412378,-0.0868 -0.595657,-0.26527 -0.183279,-0.18087 -0.183279,-0.49437 0,-0.38103 0.270096,-0.58843 0.270095,-0.20739 0.766878,-0.20739 0.24598,0 0.463021,0.0362 0.217041,0.0362 0.40032,0.10852 z" />
          <path
             id="path8335"
             style="font-size:4.93889px;stroke-width:0.217734"
             d="m 97.476749,190.44501 v 0.21704 h -2.040186 q 0.02894,0.4582 0.274918,0.69935 0.248392,0.23875 0.689709,0.23875 0.255626,0 0.494371,-0.0627 0.241157,-0.0627 0.47749,-0.1881 v 0.41961 q -0.238745,0.10128 -0.489548,0.15434 -0.250803,0.053 -0.508841,0.053 -0.6463,0 -1.024916,-0.3762 -0.376204,-0.37621 -0.376204,-1.01768 0,-0.66318 0.356912,-1.05145 0.359323,-0.39067 0.967038,-0.39067 0.545014,0 0.86093,0.35209 0.318327,0.34968 0.318327,0.95257 z m -0.443729,-0.13023 q -0.0048,-0.36414 -0.204983,-0.58118 -0.197749,-0.21705 -0.525722,-0.21705 -0.371381,0 -0.595657,0.20981 -0.221864,0.20981 -0.255626,0.59083 z" />
          <path
             id="path8337"
             style="font-size:4.93889px;stroke-width:0.217734"
             d="m 101.31596,189.96511 q 0.34968,0.0747 0.54502,0.31109 0.19775,0.23633 0.19775,0.5836 0,0.53295 -0.36656,0.82475 -0.36656,0.2918 -1.0418,0.2918 -0.22669,0 -0.46784,-0.0458 -0.238749,-0.0434 -0.494375,-0.13263 v -0.47026 q 0.202572,0.11817 0.443725,0.17846 0.24116,0.0603 0.50402,0.0603 0.4582,0 0.69694,-0.18087 0.24116,-0.18087 0.24116,-0.52572 0,-0.31833 -0.22427,-0.49679 -0.22187,-0.18086 -0.61978,-0.18086 h -0.41961 v -0.40032 h 0.4389 q 0.35933,0 0.54984,-0.14229 0.19052,-0.14469 0.19052,-0.41479 0,-0.27733 -0.19775,-0.42443 -0.19534,-0.14952 -0.5619,-0.14952 -0.20016,0 -0.42926,0.0434 -0.2291,0.0434 -0.504014,0.13505 v -0.43408 q 0.277334,-0.0772 0.518484,-0.11576 0.24357,-0.0386 0.4582,-0.0386 0.55466,0 0.87781,0.25321 0.32315,0.2508 0.32315,0.68006 0,0.29904 -0.17122,0.50643 -0.17122,0.20498 -0.48714,0.28457 z" />
        </g>
      </g>
      <g
         transform="translate(18.908805,-50.447899)"
         id="g1072">
        <g
           id="g5862">
          <path
             d="m 44.033792,95.371399 h 23.60389 c 0.418158,0 0.754797,0.336639 0.754797,0.754797 v 9.329854 c 0,0.41816 -0.336639,0.7548 -0.754797,0.7548 h -23.60389 c -0.418157,0 -0.754796,-0.33664 -0.754796,-0.7548 v -9.329854 c 0,-0.418158 0.336639,-0.754797 0.754796,-0.754797 z"
             style="opacity:0.707;fill:#fabe50;stroke:#000000;stroke-width:0.1961;stop-color:#000000"
             id="rect857-40" />
          <g
             style="font-size:4.93889px;line-height:1.25;font-family:sans-serif;-inkscape-font-specification:sans-serif;stroke-width:0.198741"
             id="text867"
             aria-label="LSTM 1">
            <path
               id="path8341"
               style="font-size:4.93889px;stroke-width:0.198741"
               d="m 47.365108,98.988481 h 0.487136 v 3.190499 h 1.75321 v 0.40997 h -2.240346 z" />
            <path
               id="path8343"
               style="font-size:4.93889px;stroke-width:0.198741"
               d="m 52.272647,99.106648 v 0.475079 q -0.27733,-0.132637 -0.52331,-0.197749 -0.24598,-0.06511 -0.475079,-0.06511 -0.397908,0 -0.614949,0.15434 -0.21463,0.15434 -0.21463,0.438905 0,0.238747 0.142283,0.361737 0.144694,0.12057 0.545014,0.19533 l 0.294211,0.0603 q 0.545014,0.1037 0.803052,0.36656 0.260449,0.26045 0.260449,0.69936 0,0.52331 -0.352089,0.7934 -0.349677,0.2701 -1.027327,0.2701 -0.255626,0 -0.545015,-0.0579 -0.286976,-0.0579 -0.595657,-0.17122 v -0.50161 q 0.296623,0.1664 0.581188,0.2508 0.284565,0.0844 0.559484,0.0844 0.417201,0 0.643888,-0.16399 0.226687,-0.16398 0.226687,-0.46784 0,-0.26527 -0.163986,-0.41479 -0.161575,-0.14952 -0.532956,-0.22428 l -0.296623,-0.0579 q -0.545015,-0.10852 -0.788583,-0.34004 -0.243568,-0.23151 -0.243568,-0.643882 0,-0.47749 0.335208,-0.752409 0.337619,-0.274918 0.928453,-0.274918 0.253215,0 0.516076,0.04582 0.26286,0.04582 0.537779,0.13746 z" />
            <path
               id="path8345"
               style="font-size:4.93889px;stroke-width:0.198741"
               d="m 52.750138,98.988481 h 3.045809 v 0.409966 h -1.278131 v 3.190503 h -0.489548 v -3.190503 h -1.27813 z" />
            <path
               id="path8347"
               style="font-size:4.93889px;stroke-width:0.198741"
               d="m 56.268615,98.988481 h 0.725882 l 0.918807,2.450149 0.92363,-2.450149 h 0.725882 v 3.600469 h -0.475079 v -3.161564 l -0.928453,2.469444 h -0.489549 l -0.928453,-2.469444 v 3.161564 h -0.472667 z" />
            <path
               id="path8349"
               style="font-size:4.93889px;stroke-width:0.198741"
               d="m 62.232421,102.17898 h 0.795817 v -2.746771 l -0.865753,0.173633 v -0.443728 l 0.86093,-0.173633 h 0.487136 v 3.190499 h 0.795818 v 0.40997 h -2.073948 z" />
          </g>
        </g>
      </g>
      <path
         id="path1063"
         d="m 74.744542,55.762951 10e-7,4.154647"
         style="fill:none;fill-rule:evenodd;stroke:#000000;stroke-width:0.265;stroke-linecap:butt;stroke-linejoin:miter;stroke-miterlimit:4;stroke-dasharray:none;stroke-opacity:1;marker-end:url(#marker6797)" />
      <path
         id="path1065"
         d="m 74.744544,70.757049 v 4.154643"
         style="fill:none;fill-rule:evenodd;stroke:#000000;stroke-width:0.265;stroke-linecap:butt;stroke-linejoin:miter;stroke-miterlimit:4;stroke-dasharray:none;stroke-opacity:1;marker-end:url(#marker6787)" />
      <path
         id="path1067"
         d="m 74.744544,85.751143 v 4.154644"
         style="fill:none;fill-rule:evenodd;stroke:#000000;stroke-width:0.265;stroke-linecap:butt;stroke-linejoin:miter;stroke-miterlimit:4;stroke-dasharray:none;stroke-opacity:1;marker-end:url(#marker6777)" />
      <g
         id="g5912"
         transform="translate(13.45343,-65.003224)">
        <path
           d="m 82.319754,124.92082 h 23.603886 c 0.41816,0 0.7548,0.33664 0.7548,0.7548 v 9.32986 c 0,0.41815 -0.33664,0.75479 -0.7548,0.75479 H 82.319754 c -0.418158,0 -0.754797,-0.33664 -0.754797,-0.75479 v -9.32986 c 0,-0.41816 0.336639,-0.7548 0.754797,-0.7548 z"
           style="opacity:0.707;fill:#fabe50;stroke:#000000;stroke-width:0.1961;stop-color:#000000"
           id="rect5906" />
        <g
           style="font-size:4.93889px;line-height:1.25;font-family:sans-serif;-inkscape-font-specification:sans-serif;stroke-width:0.205901"
           id="text5910"
           aria-label="Dense 1">
          <path
             id="path8423"
             style="font-size:4.93889px;stroke-width:0.205901"
             d="m 84.927596,128.90567 v 2.79983 h 0.588422 q 0.745175,0 1.090029,-0.33762 0.347265,-0.33762 0.347265,-1.06591 0,-0.72347 -0.347265,-1.05868 -0.344854,-0.33762 -1.090029,-0.33762 z m -0.487137,-0.40032 h 1.000801 q 1.04662,0 1.536168,0.43649 0.489548,0.43409 0.489548,1.36013 0,0.93086 -0.491959,1.36736 -0.49196,0.43649 -1.533757,0.43649 h -1.000801 z" />
          <path
             id="path8425"
             style="font-size:4.93889px;stroke-width:0.205901"
             d="m 90.532078,130.64441 v 0.21704 h -2.040186 q 0.02894,0.4582 0.274919,0.69936 0.248392,0.23874 0.689708,0.23874 0.255626,0 0.494372,-0.0627 0.241156,-0.0627 0.47749,-0.1881 v 0.41961 q -0.238745,0.10129 -0.489548,0.15434 -0.250803,0.0531 -0.508841,0.0531 -0.6463,0 -1.024916,-0.37621 -0.376205,-0.3762 -0.376205,-1.01768 0,-0.66318 0.356912,-1.05144 0.359324,-0.39068 0.967039,-0.39068 0.545014,0 0.860929,0.35209 0.318327,0.34968 0.318327,0.95257 z m -0.443728,-0.13022 q -0.0048,-0.36415 -0.204983,-0.58119 -0.197749,-0.21704 -0.525722,-0.21704 -0.371381,0 -0.595657,0.2098 -0.221864,0.20981 -0.255626,0.59084 z" />
          <path
             id="path8427"
             style="font-size:4.93889px;stroke-width:0.205901"
             d="m 93.505541,130.4756 v 1.63022 h -0.443729 v -1.61575 q 0,-0.38344 -0.149517,-0.57395 -0.149517,-0.19052 -0.448551,-0.19052 -0.359324,0 -0.566719,0.2291 -0.207394,0.2291 -0.207394,0.6246 v 1.52652 h -0.44614 v -2.70096 h 0.44614 v 0.41962 q 0.159163,-0.24357 0.373792,-0.36415 0.217042,-0.12058 0.499195,-0.12058 0.465432,0 0.704178,0.28939 0.238745,0.28698 0.238745,0.84646 z" />
          <path
             id="path8429"
             style="font-size:4.93889px;stroke-width:0.205901"
             d="m 96.117269,129.48445 v 0.41961 q -0.188102,-0.0965 -0.390674,-0.1447 -0.202572,-0.0482 -0.419613,-0.0482 -0.330384,0 -0.496782,0.10129 -0.163987,0.10128 -0.163987,0.30386 0,0.15434 0.118167,0.24356 0.118167,0.0868 0.475079,0.1664 l 0.151928,0.0338 q 0.472667,0.10128 0.670416,0.28697 0.20016,0.18328 0.20016,0.51367 0,0.3762 -0.299034,0.59565 -0.296623,0.21946 -0.817522,0.21946 -0.217041,0 -0.453374,-0.0434 -0.233922,-0.041 -0.494372,-0.1254 v -0.4582 q 0.24598,0.12781 0.484725,0.19292 0.238746,0.0627 0.472668,0.0627 0.313503,0 0.482313,-0.10611 0.16881,-0.10852 0.16881,-0.30385 0,-0.18087 -0.12299,-0.27733 -0.120578,-0.0965 -0.532956,-0.18569 l -0.154341,-0.0362 q -0.412378,-0.0868 -0.595657,-0.26527 -0.183279,-0.18087 -0.183279,-0.49437 0,-0.38103 0.270095,-0.58842 0.270096,-0.2074 0.766879,-0.2074 0.24598,0 0.463021,0.0362 0.217041,0.0362 0.40032,0.10852 z" />
          <path
             id="path8431"
             style="font-size:4.93889px;stroke-width:0.205901"
             d="m 99.281245,130.64441 v 0.21704 h -2.040186 q 0.02894,0.4582 0.274919,0.69936 0.248391,0.23874 0.689708,0.23874 0.255626,0 0.494372,-0.0627 0.241156,-0.0627 0.47749,-0.1881 v 0.41961 q -0.238745,0.10129 -0.489548,0.15434 -0.250803,0.0531 -0.508841,0.0531 -0.6463,0 -1.024916,-0.37621 -0.376205,-0.3762 -0.376205,-1.01768 0,-0.66318 0.356912,-1.05144 0.359324,-0.39068 0.967039,-0.39068 0.545014,0 0.860929,0.35209 0.318327,0.34968 0.318327,0.95257 z m -0.443728,-0.13022 q -0.0048,-0.36415 -0.204983,-0.58119 -0.197749,-0.21704 -0.525722,-0.21704 -0.371381,0 -0.595657,0.2098 -0.221864,0.20981 -0.255626,0.59084 z" />
          <path
             id="path8433"
             style="font-size:4.93889px;stroke-width:0.205901"
             d="m 101.72899,131.69585 h 0.79581 v -2.74677 l -0.86575,0.17363 v -0.44373 l 0.86093,-0.17363 h 0.48714 v 3.1905 h 0.79581 v 0.40997 h -2.07394 z" />
        </g>
      </g>
      <g
         id="g5920"
         transform="translate(14.981872,-82.197042)">
        <path
           d="M 80.791311,157.10873 H 104.3952 c 0.41816,0 0.7548,0.33664 0.7548,0.7548 v 9.32986 c 0,0.41816 -0.33664,0.75479 -0.7548,0.75479 H 80.791311 c -0.418157,0 -0.754797,-0.33663 -0.754797,-0.75479 v -9.32986 c 0,-0.41816 0.33664,-0.7548 0.754797,-0.7548 z"
           style="opacity:0.707;fill:#fabe50;stroke:#000000;stroke-width:0.1961;stop-color:#000000"
           id="rect5914" />
        <g
           style="font-size:4.93889px;line-height:1.25;font-family:sans-serif;-inkscape-font-specification:sans-serif;stroke-width:0.264583"
           id="text5918"
           aria-label="Dense 2">
          <path
             id="path8437"
             style="font-size:4.93889px;stroke-width:0.264583"
             d="m 84.204619,161.12613 v 2.79983 h 0.588423 q 0.745174,0 1.090028,-0.33762 0.347266,-0.33762 0.347266,-1.06591 0,-0.72347 -0.347266,-1.05868 -0.344854,-0.33762 -1.090028,-0.33762 z m -0.487136,-0.40032 h 1.0008 q 1.04662,0 1.536168,0.43649 0.489549,0.43408 0.489549,1.36013 0,0.93086 -0.49196,1.36735 -0.49196,0.4365 -1.533757,0.4365 h -1.0008 z" />
          <path
             id="path8439"
             style="font-size:4.93889px;stroke-width:0.264583"
             d="m 89.809102,162.86487 v 0.21704 h -2.040186 q 0.02894,0.4582 0.274918,0.69935 0.248392,0.23875 0.689709,0.23875 0.255626,0 0.494371,-0.0627 0.241157,-0.0627 0.47749,-0.1881 v 0.41961 q -0.238745,0.10129 -0.489548,0.15434 -0.250803,0.053 -0.508841,0.053 -0.6463,0 -1.024916,-0.3762 -0.376204,-0.3762 -0.376204,-1.01768 0,-0.66318 0.356912,-1.05145 0.359323,-0.39067 0.967038,-0.39067 0.545014,0 0.86093,0.35209 0.318327,0.34968 0.318327,0.95257 z m -0.443729,-0.13023 q -0.0048,-0.36414 -0.204983,-0.58118 -0.197748,-0.21704 -0.525722,-0.21704 -0.371381,0 -0.595657,0.2098 -0.221864,0.20981 -0.255626,0.59084 z" />
          <path
             id="path8441"
             style="font-size:4.93889px;stroke-width:0.264583"
             d="m 92.782564,162.69606 v 1.63022 h -0.443728 v -1.61575 q 0,-0.38344 -0.149517,-0.57395 -0.149518,-0.19052 -0.448552,-0.19052 -0.359324,0 -0.566718,0.2291 -0.207395,0.2291 -0.207395,0.6246 v 1.52652 h -0.44614 v -2.70096 h 0.44614 v 0.41962 q 0.159163,-0.24357 0.373793,-0.36415 0.217041,-0.12058 0.499194,-0.12058 0.465433,0 0.704178,0.28939 0.238745,0.28698 0.238745,0.84646 z" />
          <path
             id="path8443"
             style="font-size:4.93889px;stroke-width:0.264583"
             d="m 95.394292,161.7049 v 0.41962 q -0.188102,-0.0965 -0.390674,-0.1447 -0.202571,-0.0482 -0.419612,-0.0482 -0.330385,0 -0.496783,0.10129 -0.163987,0.10128 -0.163987,0.30386 0,0.15434 0.118167,0.24356 0.118167,0.0868 0.475079,0.1664 l 0.151929,0.0338 q 0.472667,0.10129 0.670415,0.28698 0.20016,0.18328 0.20016,0.51366 0,0.37621 -0.299034,0.59566 -0.296623,0.21945 -0.817521,0.21945 -0.217041,0 -0.453375,-0.0434 -0.233922,-0.041 -0.494371,-0.12541 v -0.45819 q 0.24598,0.12781 0.484725,0.19292 0.238745,0.0627 0.472667,0.0627 0.313504,0 0.482313,-0.10611 0.16881,-0.10852 0.16881,-0.30385 0,-0.18087 -0.12299,-0.27733 -0.120578,-0.0965 -0.532956,-0.18569 l -0.15434,-0.0362 q -0.412379,-0.0868 -0.595658,-0.26527 -0.183279,-0.18087 -0.183279,-0.49437 0,-0.38103 0.270096,-0.58842 0.270095,-0.2074 0.766878,-0.2074 0.24598,0 0.463021,0.0362 0.217041,0.0362 0.40032,0.10852 z" />
          <path
             id="path8445"
             style="font-size:4.93889px;stroke-width:0.264583"
             d="m 98.558269,162.86487 v 0.21704 h -2.040186 q 0.02894,0.4582 0.274918,0.69935 0.248392,0.23875 0.689709,0.23875 0.255626,0 0.494371,-0.0627 0.241157,-0.0627 0.47749,-0.1881 v 0.41961 q -0.238745,0.10129 -0.489548,0.15434 -0.250803,0.053 -0.508841,0.053 -0.6463,0 -1.024916,-0.3762 -0.376204,-0.3762 -0.376204,-1.01768 0,-0.66318 0.356912,-1.05145 0.359323,-0.39067 0.967038,-0.39067 0.545014,0 0.86093,0.35209 0.318327,0.34968 0.318327,0.95257 z m -0.443729,-0.13023 q -0.0048,-0.36414 -0.204983,-0.58118 -0.197748,-0.21704 -0.525722,-0.21704 -0.371381,0 -0.595657,0.2098 -0.221864,0.20981 -0.255626,0.59084 z" />
          <path
             id="path8447"
             style="font-size:4.93889px;stroke-width:0.264583"
             d="m 101.34122,163.91631 h 1.70015 v 0.40997 h -2.28616 v -0.40997 q 0.27733,-0.28697 0.75482,-0.76929 0.4799,-0.48472 0.60289,-0.62459 0.23392,-0.26286 0.32556,-0.44373 0.094,-0.18328 0.094,-0.35933 0,-0.28697 -0.20257,-0.46784 -0.20016,-0.18087 -0.52331,-0.18087 -0.2291,0 -0.48473,0.0796 -0.25321,0.0796 -0.5426,0.24116 v -0.49196 q 0.29421,-0.11817 0.54984,-0.17845 0.25563,-0.0603 0.46784,-0.0603 0.55949,0 0.89228,0.27974 0.3328,0.27974 0.3328,0.74758 0,0.22187 -0.0844,0.42203 -0.082,0.19775 -0.30144,0.46784 -0.0603,0.0699 -0.38344,0.40515 -0.32315,0.33279 -0.91157,0.93327 z" />
        </g>
      </g>
      <g
         id="g5928"
         transform="translate(15.227781,-94.783086)">
        <path
           d="m 80.545401,184.68887 h 23.603889 c 0.41816,0 0.7548,0.33664 0.7548,0.7548 v 9.32986 c 0,0.41815 -0.33664,0.75479 -0.7548,0.75479 H 80.545401 c -0.418158,0 -0.754797,-0.33664 -0.754797,-0.75479 v -9.32986 c 0,-0.41816 0.336639,-0.7548 0.754797,-0.7548 z"
           style="opacity:0.707;fill:#fabe50;stroke:#000000;stroke-width:0.1961;stop-color:#000000"
           id="rect5922" />
        <g
           style="font-size:4.93889px;line-height:1.25;font-family:sans-serif;-inkscape-font-specification:sans-serif;stroke-width:0.217734"
           id="text5926"
           aria-label="Dense 3">
          <path
             id="path8451"
             style="font-size:4.93889px;stroke-width:0.217734"
             d="m 83.123099,188.70627 v 2.79983 h 0.588423 q 0.745174,0 1.090028,-0.33762 0.347266,-0.33762 0.347266,-1.06591 0,-0.72347 -0.347266,-1.05868 -0.344854,-0.33762 -1.090028,-0.33762 z m -0.487136,-0.40032 h 1.0008 q 1.04662,0 1.536168,0.43649 0.489549,0.43408 0.489549,1.36013 0,0.93086 -0.49196,1.36735 -0.49196,0.4365 -1.533757,0.4365 h -1.0008 z" />
          <path
             id="path8453"
             style="font-size:4.93889px;stroke-width:0.217734"
             d="m 88.727582,190.44501 v 0.21704 h -2.040186 q 0.02894,0.4582 0.274918,0.69935 0.248392,0.23875 0.689709,0.23875 0.255626,0 0.494371,-0.0627 0.241157,-0.0627 0.47749,-0.1881 v 0.41961 q -0.238745,0.10128 -0.489548,0.15434 -0.250803,0.053 -0.508841,0.053 -0.6463,0 -1.024916,-0.3762 -0.376204,-0.37621 -0.376204,-1.01768 0,-0.66318 0.356912,-1.05145 0.359323,-0.39067 0.967038,-0.39067 0.545014,0 0.86093,0.35209 0.318327,0.34968 0.318327,0.95257 z m -0.443729,-0.13023 q -0.0048,-0.36414 -0.204983,-0.58118 -0.197749,-0.21705 -0.525722,-0.21705 -0.371381,0 -0.595657,0.20981 -0.221864,0.20981 -0.255626,0.59083 z" />
          <path
             id="path8455"
             style="font-size:4.93889px;stroke-width:0.217734"
             d="m 91.701044,190.2762 v 1.63022 h -0.443728 v -1.61575 q 0,-0.38344 -0.149518,-0.57396 -0.149517,-0.19051 -0.448551,-0.19051 -0.359324,0 -0.566718,0.2291 -0.207395,0.2291 -0.207395,0.6246 v 1.52652 h -0.44614 v -2.70096 h 0.44614 v 0.41962 q 0.159163,-0.24357 0.373793,-0.36415 0.217041,-0.12058 0.499194,-0.12058 0.465433,0 0.704178,0.28939 0.238745,0.28697 0.238745,0.84646 z" />
          <path
             id="path8457"
             style="font-size:4.93889px;stroke-width:0.217734"
             d="m 94.312772,189.28504 v 0.41962 q -0.188102,-0.0965 -0.390674,-0.1447 -0.202571,-0.0482 -0.419612,-0.0482 -0.330385,0 -0.496783,0.10129 -0.163987,0.10128 -0.163987,0.30385 0,0.15435 0.118167,0.24357 0.118167,0.0868 0.475079,0.1664 l 0.151928,0.0338 q 0.472668,0.10129 0.670416,0.28698 0.20016,0.18328 0.20016,0.51366 0,0.37621 -0.299034,0.59566 -0.296623,0.21945 -0.817521,0.21945 -0.217041,0 -0.453375,-0.0434 -0.233922,-0.041 -0.494371,-0.12541 v -0.45819 q 0.24598,0.12781 0.484725,0.19292 0.238745,0.0627 0.472667,0.0627 0.313504,0 0.482313,-0.10611 0.16881,-0.10852 0.16881,-0.30385 0,-0.18087 -0.12299,-0.27733 -0.120578,-0.0965 -0.532956,-0.1857 l -0.154341,-0.0362 q -0.412378,-0.0868 -0.595657,-0.26527 -0.183279,-0.18087 -0.183279,-0.49437 0,-0.38103 0.270096,-0.58843 0.270095,-0.20739 0.766878,-0.20739 0.24598,0 0.463021,0.0362 0.217041,0.0362 0.40032,0.10852 z" />
          <path
             id="path8459"
             style="font-size:4.93889px;stroke-width:0.217734"
             d="m 97.476749,190.44501 v 0.21704 h -2.040186 q 0.02894,0.4582 0.274918,0.69935 0.248392,0.23875 0.689709,0.23875 0.255626,0 0.494371,-0.0627 0.241157,-0.0627 0.47749,-0.1881 v 0.41961 q -0.238745,0.10128 -0.489548,0.15434 -0.250803,0.053 -0.508841,0.053 -0.6463,0 -1.024916,-0.3762 -0.376204,-0.37621 -0.376204,-1.01768 0,-0.66318 0.356912,-1.05145 0.359323,-0.39067 0.967038,-0.39067 0.545014,0 0.86093,0.35209 0.318327,0.34968 0.318327,0.95257 z m -0.443729,-0.13023 q -0.0048,-0.36414 -0.204983,-0.58118 -0.197749,-0.21705 -0.525722,-0.21705 -0.371381,0 -0.595657,0.20981 -0.221864,0.20981 -0.255626,0.59083 z" />
          <path
             id="path8461"
             style="font-size:4.93889px;stroke-width:0.217734"
             d="m 101.31596,189.96511 q 0.34968,0.0747 0.54502,0.31109 0.19775,0.23633 0.19775,0.5836 0,0.53295 -0.36656,0.82475 -0.36656,0.2918 -1.0418,0.2918 -0.22669,0 -0.46784,-0.0458 -0.238749,-0.0434 -0.494375,-0.13263 v -0.47026 q 0.202572,0.11817 0.443725,0.17846 0.24116,0.0603 0.50402,0.0603 0.4582,0 0.69694,-0.18087 0.24116,-0.18087 0.24116,-0.52572 0,-0.31833 -0.22427,-0.49679 -0.22187,-0.18086 -0.61978,-0.18086 h -0.41961 v -0.40032 h 0.4389 q 0.35933,0 0.54984,-0.14229 0.19052,-0.14469 0.19052,-0.41479 0,-0.27733 -0.19775,-0.42443 -0.19534,-0.14952 -0.5619,-0.14952 -0.20016,0 -0.42926,0.0434 -0.2291,0.0434 -0.504014,0.13505 v -0.43408 q 0.277334,-0.0772 0.518484,-0.11576 0.24357,-0.0386 0.4582,-0.0386 0.55466,0 0.87781,0.25321 0.32315,0.2508 0.32315,0.68006 0,0.29904 -0.17122,0.50643 -0.17122,0.20498 -0.48714,0.28457 z" />
        </g>
      </g>
      <g
         id="g5938"
         transform="translate(51.73939,-50.447899)">
        <g
           id="g5936">
          <path
             d="m 44.033792,95.371399 h 23.60389 c 0.418158,0 0.754797,0.336639 0.754797,0.754797 v 9.329854 c 0,0.41816 -0.336639,0.7548 -0.754797,0.7548 h -23.60389 c -0.418157,0 -0.754796,-0.33664 -0.754796,-0.7548 v -9.329854 c 0,-0.418158 0.336639,-0.754797 0.754796,-0.754797 z"
             style="opacity:0.707;fill:#fabe50;stroke:#000000;stroke-width:0.1961;stop-color:#000000"
             id="rect5930" />
          <g
             style="font-size:4.93889px;line-height:1.25;font-family:sans-serif;-inkscape-font-specification:sans-serif;stroke-width:0.198741"
             id="text5934"
             aria-label="LSTM 2">
            <path
               id="path8465"
               style="font-size:4.93889px;stroke-width:0.198741"
               d="m 47.365108,98.988481 h 0.487136 v 3.190499 h 1.75321 v 0.40997 h -2.240346 z" />
            <path
               id="path8467"
               style="font-size:4.93889px;stroke-width:0.198741"
               d="m 52.272647,99.106648 v 0.475079 q -0.27733,-0.132637 -0.52331,-0.197749 -0.24598,-0.06511 -0.475079,-0.06511 -0.397908,0 -0.614949,0.15434 -0.21463,0.15434 -0.21463,0.438905 0,0.238747 0.142283,0.361737 0.144694,0.12057 0.545014,0.19533 l 0.294211,0.0603 q 0.545014,0.1037 0.803052,0.36656 0.260449,0.26045 0.260449,0.69936 0,0.52331 -0.352089,0.7934 -0.349677,0.2701 -1.027327,0.2701 -0.255626,0 -0.545015,-0.0579 -0.286976,-0.0579 -0.595657,-0.17122 v -0.50161 q 0.296623,0.1664 0.581188,0.2508 0.284565,0.0844 0.559484,0.0844 0.417201,0 0.643888,-0.16399 0.226687,-0.16398 0.226687,-0.46784 0,-0.26527 -0.163986,-0.41479 -0.161575,-0.14952 -0.532956,-0.22428 l -0.296623,-0.0579 q -0.545015,-0.10852 -0.788583,-0.34004 -0.243568,-0.23151 -0.243568,-0.643882 0,-0.47749 0.335208,-0.752409 0.337619,-0.274918 0.928453,-0.274918 0.253215,0 0.516076,0.04582 0.26286,0.04582 0.537779,0.13746 z" />
            <path
               id="path8469"
               style="font-size:4.93889px;stroke-width:0.198741"
               d="m 52.750138,98.988481 h 3.045809 v 0.409966 h -1.278131 v 3.190503 h -0.489548 v -3.190503 h -1.27813 z" />
            <path
               id="path8471"
               style="font-size:4.93889px;stroke-width:0.198741"
               d="m 56.268615,98.988481 h 0.725882 l 0.918807,2.450149 0.92363,-2.450149 h 0.725882 v 3.600469 h -0.475079 v -3.161564 l -0.928453,2.469444 h -0.489549 l -0.928453,-2.469444 v 3.161564 h -0.472667 z" />
            <path
               id="path8473"
               style="font-size:4.93889px;stroke-width:0.198741"
               d="m 62.567629,102.17898 h 1.700155 v 0.40997 h -2.286166 v -0.40997 q 0.27733,-0.28697 0.75482,-0.76929 0.479902,-0.48472 0.602892,-0.62459 0.233922,-0.26286 0.325562,-0.44373 0.09405,-0.18328 0.09405,-0.359323 0,-0.286977 -0.202572,-0.467844 -0.20016,-0.180868 -0.52331,-0.180868 -0.229099,0 -0.484725,0.07958 -0.253215,0.07958 -0.542603,0.241157 v -0.49196 q 0.294212,-0.118167 0.549838,-0.178456 0.255626,-0.06029 0.467844,-0.06029 0.559483,0 0.89228,0.279742 0.332796,0.279741 0.332796,0.747585 0,0.221867 -0.08441,0.422027 -0.08199,0.19775 -0.301446,0.46784 -0.06029,0.0699 -0.383439,0.40515 -0.32315,0.33279 -0.911572,0.93327 z" />
          </g>
        </g>
      </g>
      <path
         style="fill:none;fill-rule:evenodd;stroke:#000000;stroke-width:0.265;stroke-linecap:butt;stroke-linejoin:miter;stroke-miterlimit:4;stroke-dasharray:none;stroke-opacity:1;marker-end:url(#marker6755)"
         d="m 107.57513,55.762951 v 4.154647"
         id="path5940" />
      <path
         style="fill:none;fill-rule:evenodd;stroke:#000000;stroke-width:0.265;stroke-linecap:butt;stroke-linejoin:miter;stroke-miterlimit:4;stroke-dasharray:none;stroke-opacity:1;marker-end:url(#marker6745)"
         d="m 107.57513,70.757049 v 4.154643"
         id="path5942" />
      <path
         style="fill:none;fill-rule:evenodd;stroke:#000000;stroke-width:0.265;stroke-linecap:butt;stroke-linejoin:miter;stroke-miterlimit:4;stroke-dasharray:none;stroke-opacity:1;marker-end:url(#marker6735)"
         d="m 107.57513,85.751143 v 4.154644"
         id="path5944" />
    </g>
    <path
       d="m 76.190617,13.036966 h 26.080333 c 0.46203,0 0.83399,0.336331 0.83399,0.754105 v 9.321305 c 0,0.417775 -0.37196,0.754105 -0.83399,0.754105 H 76.190617 c -0.46203,0 -0.833989,-0.33633 -0.833989,-0.754105 v -9.321305 c 0,-0.417774 0.371959,-0.754105 0.833989,-0.754105 z"
       style="opacity:0.707;fill:#fabe50;stroke:#000000;stroke-width:0.206036;stop-color:#000000"
       id="rect857-40-0" />
    <g
       id="g1077"
       transform="translate(-1.7842045,-38.525542)">
      <path
         id="rect857-40-9"
         style="opacity:0.707;fill:#fabe50;stroke:#000000;stroke-width:0.1961;stop-color:#000000"
         d="m 78.600592,67.503288 h 23.603888 c 0.41816,0 0.7548,0.33664 0.7548,0.754797 v 9.329857 c 0,0.418158 -0.33664,0.754797 -0.7548,0.754797 H 78.600592 c -0.418158,0 -0.754797,-0.336639 -0.754797,-0.754797 v -9.329857 c 0,-0.418157 0.336639,-0.754797 0.754797,-0.754797 z" />
      <g
         aria-label="Flatten"
         id="text839"
         style="font-size:4.93889px;line-height:1.25;font-family:sans-serif;-inkscape-font-specification:sans-serif;stroke-width:0.264583">
        <path
           d="m 82.209235,71.163774 h 2.069125 v 0.409966 h -1.581988 v 1.06109 h 1.427648 v 0.409967 h -1.427648 v 1.719447 h -0.487137 z"
           style="font-size:4.93889px;stroke-width:0.264583"
           id="path8283" />
        <path
           d="m 85.035592,71.011845 h 0.443729 v 3.752399 h -0.443729 z"
           style="font-size:4.93889px;stroke-width:0.264583"
           id="path8285" />
        <path
           d="m 87.63285,73.406532 q -0.537779,0 -0.745174,0.12299 -0.207395,0.12299 -0.207395,0.419612 0,0.236334 0.15434,0.376205 0.156752,0.137459 0.424436,0.137459 0.36897,0 0.590834,-0.260449 0.224276,-0.262861 0.224276,-0.696943 v -0.09887 z m 0.885045,-0.183279 v 1.540991 h -0.443728 v -0.409966 q -0.151929,0.245979 -0.378616,0.364146 -0.226687,0.115756 -0.55466,0.115756 -0.41479,0 -0.66077,-0.231511 -0.243568,-0.233922 -0.243568,-0.624596 0,-0.455786 0.303857,-0.687297 0.306269,-0.23151 0.911573,-0.23151 h 0.622184 v -0.04341 q 0,-0.306269 -0.202572,-0.472667 -0.20016,-0.16881 -0.564306,-0.16881 -0.231511,0 -0.450963,0.05547 -0.219453,0.05547 -0.422025,0.166398 v -0.409966 q 0.243569,-0.09405 0.472667,-0.139871 0.229099,-0.04823 0.44614,-0.04823 0.586011,0 0.875399,0.303858 0.289388,0.303857 0.289388,0.921219 z"
           style="font-size:4.93889px;stroke-width:0.264583"
           id="path8287" />
        <path
           d="m 89.873196,71.29641 v 0.766879 h 0.913985 v 0.344854 h -0.913985 v 1.466233 q 0,0.330384 0.08923,0.424436 0.09164,0.09405 0.36897,0.09405 h 0.455787 v 0.371381 h -0.455787 q -0.513664,0 -0.709001,-0.190514 -0.195336,-0.192925 -0.195336,-0.699354 v -1.466233 h -0.325562 v -0.344854 h 0.325562 V 71.29641 Z"
           style="font-size:4.93889px;stroke-width:0.264583"
           id="path8289" />
        <path
           d="m 91.812096,71.29641 v 0.766879 h 0.913985 v 0.344854 h -0.913985 v 1.466233 q 0,0.330384 0.08923,0.424436 0.09164,0.09405 0.36897,0.09405 h 0.455787 v 0.371381 h -0.455787 q -0.513664,0 -0.709001,-0.190514 -0.195336,-0.192925 -0.195336,-0.699354 v -1.466233 h -0.325562 v -0.344854 h 0.325562 V 71.29641 Z"
           style="font-size:4.93889px;stroke-width:0.264583"
           id="path8291" />
        <path
           d="m 95.622373,73.302834 v 0.217041 h -2.040186 q 0.02894,0.458198 0.274918,0.699355 0.248392,0.238745 0.689709,0.238745 0.255626,0 0.494371,-0.0627 0.241157,-0.0627 0.47749,-0.188102 v 0.419613 q -0.238745,0.101286 -0.489548,0.15434 -0.250803,0.05306 -0.508841,0.05306 -0.6463,0 -1.024916,-0.376205 -0.376204,-0.376204 -0.376204,-1.017681 0,-0.663181 0.356912,-1.051444 0.359323,-0.390674 0.967038,-0.390674 0.545015,0 0.86093,0.352089 0.318327,0.349677 0.318327,0.952569 z M 95.178644,73.17261 q -0.0048,-0.364147 -0.204983,-0.581188 -0.197748,-0.217041 -0.525722,-0.217041 -0.371381,0 -0.595657,0.209806 -0.221864,0.209807 -0.255626,0.590834 z"
           style="font-size:4.93889px;stroke-width:0.264583"
           id="path8293" />
        <path
           d="m 98.595836,73.134025 v 1.630219 h -0.443729 v -1.61575 q 0,-0.383439 -0.149517,-0.573953 -0.149517,-0.190514 -0.448551,-0.190514 -0.359324,0 -0.566719,0.229099 -0.207395,0.229099 -0.207395,0.624596 v 1.526522 h -0.44614 v -2.700955 h 0.44614 v 0.419612 q 0.159164,-0.243568 0.373793,-0.364146 0.217041,-0.120579 0.499195,-0.120579 0.465432,0 0.704177,0.289388 0.238746,0.286977 0.238746,0.846461 z"
           style="font-size:4.93889px;stroke-width:0.264583"
           id="path8295" />
      </g>
    </g>
    <path
       style="fill:none;fill-rule:evenodd;stroke:#000000;stroke-width:0.265;stroke-linecap:butt;stroke-linejoin:miter;stroke-miterlimit:4;stroke-dasharray:none;stroke-opacity:1;marker-end:url(#marker1529)"
       d="m 88.618333,23.871449 v 5.106297"
       id="path1079" />
    <g
       aria-label="Conv layers"
       id="text171"
       style="font-size:7.05556px;line-height:1.25;font-family:sans-serif;-inkscape-font-specification:sans-serif;stroke-width:0.264583">
      <path
         d="m 78.670189,16.631163 v 0.476973 q -0.228409,-0.212734 -0.488169,-0.317982 -0.257521,-0.105248 -0.548632,-0.105248 -0.573264,0 -0.87781,0.351572 -0.304546,0.349333 -0.304546,1.012169 0,0.660597 0.304546,1.012169 0.304546,0.349333 0.87781,0.349333 0.291111,0 0.548632,-0.105248 0.25976,-0.105248 0.488169,-0.317982 v 0.472494 q -0.237367,0.161231 -0.503845,0.241846 -0.264238,0.08061 -0.559828,0.08061 -0.759126,0 -1.195792,-0.463537 -0.436666,-0.465777 -0.436666,-1.26969 0,-0.806152 0.436666,-1.26969 0.436666,-0.465776 1.195792,-0.465776 0.300068,0 0.564307,0.08061 0.266478,0.07838 0.499366,0.237367 z"
         style="font-size:4.58611px;stroke-width:0.264583"
         id="path313" />
      <path
         d="m 80.32728,17.497776 q -0.331418,0 -0.523999,0.259761 -0.192581,0.25752 -0.192581,0.707622 0,0.450102 0.190342,0.709862 0.192581,0.257521 0.526238,0.257521 0.329179,0 0.52176,-0.259761 0.19258,-0.25976 0.19258,-0.707622 0,-0.445623 -0.19258,-0.705383 -0.192581,-0.262 -0.52176,-0.262 z m 0,-0.349332 q 0.537435,0 0.84422,0.349332 0.306786,0.349333 0.306786,0.967383 0,0.615811 -0.306786,0.967383 -0.306785,0.349332 -0.84422,0.349332 -0.539674,0 -0.84646,-0.349332 -0.304546,-0.351572 -0.304546,-0.967383 0,-0.61805 0.304546,-0.967383 0.306786,-0.349332 0.84646,-0.349332 z"
         style="font-size:4.58611px;stroke-width:0.264583"
         id="path315" />
      <path
         d="m 84.243836,18.20316 v 1.513774 h -0.412034 v -1.500339 q 0,-0.35605 -0.138837,-0.532956 -0.138837,-0.176905 -0.416512,-0.176905 -0.333657,0 -0.526238,0.212734 -0.192581,0.212735 -0.192581,0.579982 v 1.417484 h -0.414272 v -2.508029 h 0.414272 v 0.38964 q 0.147795,-0.22617 0.347093,-0.338136 0.201538,-0.111965 0.463538,-0.111965 0.432187,0 0.653879,0.268717 0.221692,0.266478 0.221692,0.785999 z"
         style="font-size:4.58611px;stroke-width:0.264583"
         id="path317" />
      <path
         d="m 84.774553,17.208905 h 0.436665 l 0.78376,2.104953 0.783759,-2.104953 h 0.436665 l -0.940511,2.508029 h -0.559827 z"
         style="font-size:4.58611px;stroke-width:0.264583"
         id="path319" />
      <path
         d="m 89.244219,16.232565 h 0.412033 v 3.484369 h -0.412033 z"
         style="font-size:4.58611px;stroke-width:0.264583"
         id="path321" />
      <path
         d="m 91.655957,18.456202 q -0.499366,0 -0.691947,0.114205 -0.192581,0.114205 -0.192581,0.38964 0,0.219452 0.143316,0.349332 0.145555,0.127641 0.394119,0.127641 0.342615,0 0.548631,-0.241845 0.208256,-0.244085 0.208256,-0.647161 v -0.09181 z m 0.821828,-0.170188 v 1.43092 h -0.412034 v -0.380683 q -0.141076,0.22841 -0.351572,0.338136 -0.210495,0.107487 -0.515041,0.107487 -0.385162,0 -0.613572,-0.214974 -0.22617,-0.217213 -0.22617,-0.579981 0,-0.42323 0.282153,-0.638204 0.284393,-0.214974 0.84646,-0.214974 h 0.577742 v -0.04031 q 0,-0.284392 -0.188102,-0.438905 -0.185863,-0.156752 -0.523999,-0.156752 -0.214974,0 -0.418751,0.0515 -0.203777,0.0515 -0.39188,0.154512 V 17.32311 q 0.226171,-0.08733 0.438905,-0.12988 0.212735,-0.04479 0.414273,-0.04479 0.544153,0 0.81287,0.282153 0.268718,0.282153 0.268718,0.855417 z"
         style="font-size:4.58611px;stroke-width:0.264583"
         id="path323" />
      <path
         d="m 94.372242,19.949823 q -0.174666,0.447862 -0.340375,0.58446 -0.165709,0.136598 -0.443384,0.136598 h -0.329179 v -0.344854 h 0.241846 q 0.170188,0 0.264239,-0.08061 0.09405,-0.08062 0.208256,-0.380683 l 0.0739,-0.188102 -1.014408,-2.467722 H 93.4698 l 0.783759,1.961637 0.783759,-1.961637 h 0.436666 z"
         style="font-size:4.58611px;stroke-width:0.264583"
         id="path325" />
      <path
         d="m 98.18803,18.359911 v 0.201538 h -1.894458 q 0.02687,0.42547 0.255282,0.649401 0.230649,0.221692 0.640443,0.221692 0.237367,0 0.459059,-0.05822 0.223931,-0.05822 0.443384,-0.174667 v 0.38964 q -0.221692,0.09405 -0.454581,0.143316 -0.232888,0.04926 -0.472494,0.04926 -0.600136,0 -0.951708,-0.349332 -0.349332,-0.349333 -0.349332,-0.94499 0,-0.615811 0.331418,-0.97634 0.333657,-0.362768 0.897964,-0.362768 0.506084,0 0.799434,0.326939 0.295589,0.3247 0.295589,0.884528 z m -0.412033,-0.120922 q -0.0045,-0.338136 -0.190342,-0.539675 -0.183623,-0.201538 -0.48817,-0.201538 -0.344854,0 -0.55311,0.194821 -0.206016,0.19482 -0.237367,0.548631 z"
         style="font-size:4.58611px;stroke-width:0.264583"
         id="path327" />
      <path
         d="m 100.31761,17.594067 q -0.0694,-0.04031 -0.15227,-0.05822 -0.0806,-0.02015 -0.179144,-0.02015 -0.349333,0 -0.537435,0.22841 -0.185863,0.22617 -0.185863,0.651639 v 1.321194 h -0.414272 v -2.508029 h 0.414272 v 0.38964 q 0.12988,-0.228409 0.338136,-0.338136 0.208256,-0.111965 0.506086,-0.111965 0.0426,0 0.0941,0.0067 0.0515,0.0045 0.1142,0.01567 z"
         style="font-size:4.58611px;stroke-width:0.264583"
         id="path329" />
      <path
         d="m 102.35315,17.282803 v 0.38964 q -0.17467,-0.08957 -0.36277,-0.134359 -0.1881,-0.04479 -0.38964,-0.04479 -0.30678,0 -0.4613,0.09405 -0.15227,0.09405 -0.15227,0.282153 0,0.143316 0.10973,0.226171 0.10972,0.08061 0.44114,0.154512 l 0.14108,0.03135 q 0.4389,0.09405 0.62253,0.266479 0.18586,0.170187 0.18586,0.476973 0,0.349333 -0.27768,0.55311 -0.27543,0.203777 -0.75912,0.203777 -0.20154,0 -0.42099,-0.04031 -0.21722,-0.03807 -0.45906,-0.116445 v -0.425469 q 0.22841,0.118684 0.4501,0.179145 0.22169,0.05822 0.4389,0.05822 0.29111,0 0.44787,-0.09853 0.15675,-0.100769 0.15675,-0.282154 0,-0.167948 -0.11421,-0.257521 -0.11196,-0.08957 -0.49488,-0.172427 l -0.14332,-0.03359 q -0.38292,-0.08062 -0.55311,-0.246324 -0.17019,-0.167949 -0.17019,-0.459059 0,-0.353812 0.2508,-0.546392 0.25081,-0.192581 0.71211,-0.192581 0.22841,0 0.42994,0.03359 0.20154,0.03359 0.37173,0.10077 z"
         style="font-size:4.58611px;stroke-width:0.264583"
         id="path331" />
    </g>
    <g
       style="font-size:4.23333px;line-height:1.25;font-family:sans-serif;-inkscape-font-specification:sans-serif;stroke-width:0.0361151"
       id="text3423-0"
       aria-label="Acceleration">
      <path
         id="path1992"
         style="font-size:4.23333px;stroke-width:0.0361151"
         d="m 60.003293,110.97789 -0.566373,1.53582 h 1.134814 z m -0.235644,-0.41135 h 0.473356 l 1.176154,3.08612 h -0.434081 l -0.28112,-0.79169 H 59.31083 l -0.28112,0.79169 h -0.440283 z" />
      <path
         id="path1994"
         style="font-size:4.23333px;stroke-width:0.0361151"
         d="m 63.440807,111.42644 v 0.35553 q -0.161231,-0.0889 -0.324528,-0.13229 -0.16123,-0.0455 -0.326595,-0.0455 -0.370003,0 -0.574641,0.23565 -0.204639,0.23358 -0.204639,0.65732 0,0.42375 0.204639,0.65939 0.204638,0.23358 0.574641,0.23358 0.165365,0 0.326595,-0.0434 0.163297,-0.0455 0.324528,-0.13436 v 0.3514 q -0.159164,0.0744 -0.330729,0.11162 -0.169499,0.0372 -0.361735,0.0372 -0.522965,0 -0.830956,-0.32866 -0.307991,-0.32866 -0.307991,-0.88677 0,-0.56637 0.310058,-0.8909 0.312125,-0.32453 0.853694,-0.32453 0.1757,0 0.343131,0.0372 0.167432,0.0351 0.324528,0.10749 z" />
      <path
         id="path1996"
         style="font-size:4.23333px;stroke-width:0.0361151"
         d="m 65.772445,111.42644 v 0.35553 q -0.16123,-0.0889 -0.324528,-0.13229 -0.16123,-0.0455 -0.326594,-0.0455 -0.370003,0 -0.574642,0.23565 -0.204638,0.23358 -0.204638,0.65732 0,0.42375 0.204638,0.65939 0.204639,0.23358 0.574642,0.23358 0.165364,0 0.326594,-0.0434 0.163298,-0.0455 0.324528,-0.13436 v 0.3514 q -0.159163,0.0744 -0.330729,0.11162 -0.169498,0.0372 -0.361735,0.0372 -0.522965,0 -0.830956,-0.32866 -0.307991,-0.32866 -0.307991,-0.88677 0,-0.56637 0.310058,-0.8909 0.312126,-0.32453 0.853694,-0.32453 0.1757,0 0.343131,0.0372 0.167432,0.0351 0.324528,0.10749 z" />
      <path
         id="path1998"
         style="font-size:4.23333px;stroke-width:0.0361151"
         d="m 68.418276,112.40002 v 0.18604 h -1.748729 q 0.02481,0.39274 0.235645,0.59944 0.212906,0.20464 0.591178,0.20464 0.219107,0 0.423746,-0.0537 0.206706,-0.0537 0.409277,-0.16123 v 0.35966 q -0.204639,0.0868 -0.419612,0.1323 -0.214974,0.0455 -0.436149,0.0455 -0.553971,0 -0.878499,-0.32246 -0.32246,-0.32246 -0.32246,-0.8723 0,-0.56844 0.305924,-0.90123 0.307991,-0.33487 0.828889,-0.33487 0.467155,0 0.737939,0.30179 0.272851,0.29973 0.272851,0.81649 z m -0.380338,-0.11162 q -0.0041,-0.31213 -0.1757,-0.49816 -0.169498,-0.18604 -0.450618,-0.18604 -0.318326,0 -0.510562,0.17984 -0.19017,0.17983 -0.219108,0.50643 z" />
      <path
         id="path2000"
         style="font-size:4.23333px;stroke-width:0.0361151"
         d="m 69.042527,110.43632 h 0.380338 v 3.21634 h -0.380338 z" />
      <path
         id="path2002"
         style="font-size:4.23333px;stroke-width:0.0361151"
         d="m 72.196854,112.40002 v 0.18604 h -1.748729 q 0.0248,0.39274 0.235644,0.59944 0.212907,0.20464 0.591178,0.20464 0.219108,0 0.423746,-0.0537 0.206706,-0.0537 0.409277,-0.16123 v 0.35966 q -0.204638,0.0868 -0.419612,0.1323 -0.214974,0.0455 -0.436149,0.0455 -0.553971,0 -0.878498,-0.32246 -0.322461,-0.32246 -0.322461,-0.8723 0,-0.56844 0.305924,-0.90123 0.307992,-0.33487 0.82889,-0.33487 0.467154,0 0.737938,0.30179 0.272852,0.29973 0.272852,0.81649 z m -0.380339,-0.11162 q -0.0041,-0.31213 -0.175699,-0.49816 -0.169499,-0.18604 -0.450618,-0.18604 -0.318327,0 -0.510563,0.17984 -0.190169,0.17983 -0.219108,0.50643 z" />
      <path
         id="path2004"
         style="font-size:4.23333px;stroke-width:0.0361151"
         d="m 74.162624,111.69309 q -0.06408,-0.0372 -0.14056,-0.0537 -0.07441,-0.0186 -0.165364,-0.0186 -0.322461,0 -0.496094,0.21084 -0.171565,0.20877 -0.171565,0.60151 v 1.21957 h -0.382406 v -2.31511 h 0.382406 v 0.35967 q 0.119889,-0.21084 0.312125,-0.31212 0.192236,-0.10336 0.467155,-0.10336 0.03927,0 0.08682,0.006 0.04754,0.004 0.10542,0.0145 z" />
      <path
         id="path2006"
         style="font-size:4.23333px;stroke-width:0.0361151"
         d="m 75.617831,112.4889 q -0.460954,0 -0.638721,0.10542 -0.177766,0.10542 -0.177766,0.35967 0,0.20257 0.132291,0.32246 0.134359,0.11782 0.363802,0.11782 0.316259,0 0.506429,-0.22324 0.192236,-0.22531 0.192236,-0.59738 v -0.0847 z m 0.758609,-0.15709 v 1.32085 h -0.380338 v -0.3514 q -0.130225,0.21084 -0.324528,0.31212 -0.194303,0.0992 -0.475423,0.0992 -0.355533,0 -0.566373,-0.19844 -0.208773,-0.2005 -0.208773,-0.53536 0,-0.39068 0.260449,-0.58911 0.262516,-0.19844 0.781347,-0.19844 h 0.533301 v -0.0372 q 0,-0.26251 -0.173633,-0.40514 -0.171566,-0.1447 -0.483691,-0.1447 -0.198437,0 -0.386539,0.0476 -0.188102,0.0475 -0.361735,0.14262 v -0.3514 q 0.208773,-0.0806 0.405143,-0.11989 0.19637,-0.0413 0.382405,-0.0413 0.502295,0 0.750341,0.26045 0.248047,0.26045 0.248047,0.78962 z" />
      <path
         id="path2008"
         style="font-size:4.23333px;stroke-width:0.0361151"
         d="m 77.538125,110.68023 v 0.65732 h 0.783414 v 0.29559 h -0.783414 v 1.25677 q 0,0.28319 0.07648,0.3638 0.07855,0.0806 0.31626,0.0806 h 0.390673 v 0.31833 h -0.390673 q -0.440283,0 -0.607714,-0.1633 -0.167432,-0.16537 -0.167432,-0.59945 v -1.25677 h -0.279052 v -0.29559 h 0.279052 v -0.65732 z" />
      <path
         id="path2010"
         style="font-size:4.23333px;stroke-width:0.0361151"
         d="m 78.823834,111.33755 h 0.380338 v 2.31511 h -0.380338 z m 0,-0.90123 h 0.380338 v 0.48162 h -0.380338 z" />
      <path
         id="path2012"
         style="font-size:4.23333px;stroke-width:0.0361151"
         d="m 80.895024,111.6042 q -0.305924,0 -0.483691,0.23978 -0.177767,0.23771 -0.177767,0.65319 0,0.41548 0.1757,0.65526 0.177767,0.23771 0.485758,0.23771 0.303857,0 0.481624,-0.23978 0.177767,-0.23978 0.177767,-0.65319 0,-0.41134 -0.177767,-0.65112 -0.177767,-0.24185 -0.481624,-0.24185 z m 0,-0.32246 q 0.496093,0 0.77928,0.32246 0.283186,0.32247 0.283186,0.89297 0,0.56844 -0.283186,0.89297 -0.283187,0.32246 -0.77928,0.32246 -0.498161,0 -0.781347,-0.32246 -0.28112,-0.32453 -0.28112,-0.89297 0,-0.5705 0.28112,-0.89297 0.283186,-0.32246 0.781347,-0.32246 z" />
      <path
         id="path2014"
         style="font-size:4.23333px;stroke-width:0.0361151"
         d="m 84.510304,112.25533 v 1.39733 h -0.380338 v -1.38493 q 0,-0.32866 -0.128158,-0.49196 -0.128157,-0.1633 -0.384472,-0.1633 -0.307991,0 -0.485758,0.19637 -0.177767,0.19637 -0.177767,0.53537 v 1.30845 h -0.382405 v -2.31511 h 0.382405 v 0.35967 q 0.136426,-0.20877 0.320394,-0.31212 0.186035,-0.10336 0.42788,-0.10336 0.398942,0 0.60358,0.24805 0.204639,0.24598 0.204639,0.72554 z" />
    </g>
    <g
       style="font-size:4.23333px;line-height:1.25;font-family:sans-serif;-inkscape-font-specification:sans-serif;stroke-width:0.136499"
       id="text3451-4"
       aria-label="Steering">
      <path
         id="path1975"
         style="font-size:4.23333px;stroke-width:0.136499"
         d="m 99.61437,110.25752 v 0.40721 q -0.237712,-0.11369 -0.448551,-0.1695 -0.21084,-0.0558 -0.40721,-0.0558 -0.341064,0 -0.527099,0.13229 -0.183968,0.13229 -0.183968,0.37621 0,0.20463 0.121956,0.31005 0.124023,0.10336 0.467155,0.16744 l 0.25218,0.0517 q 0.467155,0.0889 0.68833,0.31419 0.223242,0.22325 0.223242,0.59945 0,0.44855 -0.30179,0.68006 -0.299723,0.23151 -0.880566,0.23151 -0.219108,0 -0.467154,-0.0496 -0.24598,-0.0496 -0.510563,-0.14676 v -0.42995 q 0.254248,0.14263 0.49816,0.21498 0.243913,0.0724 0.479557,0.0724 0.357601,0 0.551904,-0.14056 0.194303,-0.14056 0.194303,-0.40101 0,-0.22738 -0.14056,-0.35554 -0.138492,-0.12815 -0.456819,-0.19223 l -0.254248,-0.0496 q -0.467154,-0.093 -0.675927,-0.29146 -0.208773,-0.19843 -0.208773,-0.5519 0,-0.40928 0.287321,-0.64492 0.289388,-0.23565 0.795817,-0.23565 0.21704,0 0.442349,0.0393 0.22531,0.0393 0.460954,0.11782 z" />
      <path
         id="path1977"
         style="font-size:4.23333px;stroke-width:0.136499"
         d="m 100.81119,110.26992 v 0.65733 h 0.78342 v 0.29558 h -0.78342 v 1.25677 q 0,0.28319 0.0765,0.36381 0.0785,0.0806 0.31626,0.0806 h 0.39067 v 0.31833 h -0.39067 q -0.44029,0 -0.60772,-0.1633 -0.16743,-0.16536 -0.16743,-0.59945 v -1.25677 h -0.27905 v -0.29558 h 0.27905 v -0.65733 z" />
      <path
         id="path1979"
         style="font-size:4.23333px;stroke-width:0.136499"
         d="m 104.07714,111.98971 v 0.18604 h -1.74873 q 0.0248,0.39274 0.23565,0.59944 0.2129,0.20464 0.59118,0.20464 0.2191,0 0.42374,-0.0537 0.20671,-0.0538 0.40928,-0.16123 v 0.35967 q -0.20464,0.0868 -0.41961,0.13229 -0.21498,0.0455 -0.43615,0.0455 -0.55397,0 -0.8785,-0.32246 -0.32246,-0.32246 -0.32246,-0.8723 0,-0.56844 0.30592,-0.90123 0.30799,-0.33487 0.82889,-0.33487 0.46716,0 0.73794,0.3018 0.27285,0.29972 0.27285,0.81648 z m -0.38034,-0.11162 q -0.004,-0.31212 -0.1757,-0.49816 -0.16949,-0.18603 -0.45061,-0.18603 -0.31833,0 -0.51057,0.17983 -0.19017,0.17983 -0.2191,0.50643 z" />
      <path
         id="path1981"
         style="font-size:4.23333px;stroke-width:0.136499"
         d="m 106.68163,111.98971 v 0.18604 h -1.74873 q 0.0248,0.39274 0.23565,0.59944 0.21291,0.20464 0.59118,0.20464 0.2191,0 0.42374,-0.0537 0.20671,-0.0538 0.40928,-0.16123 v 0.35967 q -0.20464,0.0868 -0.41961,0.13229 -0.21498,0.0455 -0.43615,0.0455 -0.55397,0 -0.8785,-0.32246 -0.32246,-0.32246 -0.32246,-0.8723 0,-0.56844 0.30592,-0.90123 0.30799,-0.33487 0.82889,-0.33487 0.46716,0 0.73794,0.3018 0.27285,0.29972 0.27285,0.81648 z m -0.38034,-0.11162 q -0.004,-0.31212 -0.17569,-0.49816 -0.1695,-0.18603 -0.45062,-0.18603 -0.31833,0 -0.51057,0.17983 -0.19016,0.17983 -0.2191,0.50643 z" />
      <path
         id="path1983"
         style="font-size:4.23333px;stroke-width:0.136499"
         d="m 108.6474,111.28278 q -0.0641,-0.0372 -0.14056,-0.0537 -0.0744,-0.0186 -0.16536,-0.0186 -0.32246,0 -0.49609,0.21084 -0.17157,0.20877 -0.17157,0.60151 v 1.21957 h -0.38241 v -2.3151 h 0.38241 v 0.35966 q 0.11989,-0.21084 0.31213,-0.31212 0.19223,-0.10336 0.46715,-0.10336 0.0393,0 0.0868,0.006 0.0475,0.004 0.10542,0.0145 z" />
      <path
         id="path1985"
         style="font-size:4.23333px;stroke-width:0.136499"
         d="m 109.05048,110.92725 h 0.38034 v 2.3151 h -0.38034 z m 0,-0.90124 h 0.38034 v 0.48162 h -0.38034 z" />
      <path
         id="path1987"
         style="font-size:4.23333px;stroke-width:0.136499"
         d="m 112.14899,111.84502 v 1.39733 h -0.38033 v -1.38493 q 0,-0.32866 -0.12816,-0.49196 -0.12816,-0.1633 -0.38447,-0.1633 -0.30799,0 -0.48576,0.19637 -0.17777,0.19637 -0.17777,0.53537 v 1.30845 h -0.3824 v -2.3151 h 0.3824 v 0.35966 q 0.13643,-0.20877 0.3204,-0.31212 0.18603,-0.10336 0.42788,-0.10336 0.39894,0 0.60358,0.24805 0.20463,0.24598 0.20463,0.72554 z" />
      <path
         id="path1989"
         style="font-size:4.23333px;stroke-width:0.136499"
         d="m 114.43516,112.05792 q 0,-0.41341 -0.17157,-0.64078 -0.1695,-0.22738 -0.47749,-0.22738 -0.30592,0 -0.47749,0.22738 -0.1695,0.22737 -0.1695,0.64078 0,0.41135 0.1695,0.63873 0.17157,0.22737 0.47749,0.22737 0.30799,0 0.47749,-0.22737 0.17157,-0.22738 0.17157,-0.63873 z m 0.38034,0.89711 q 0,0.59117 -0.26252,0.8785 -0.26252,0.28938 -0.80408,0.28938 -0.20051,0 -0.37828,-0.031 -0.17776,-0.0289 -0.34519,-0.0909 v -0.37001 q 0.16743,0.091 0.33073,0.13436 0.16329,0.0434 0.33279,0.0434 0.37414,0 0.56017,-0.19637 0.18604,-0.1943 0.18604,-0.58911 v -0.1881 q -0.11782,0.20464 -0.30179,0.30592 -0.18397,0.10129 -0.44028,0.10129 -0.42582,0 -0.68627,-0.32453 -0.26045,-0.32453 -0.26045,-0.8599 0,-0.53743 0.26045,-0.86196 0.26045,-0.32453 0.68627,-0.32453 0.25631,0 0.44028,0.10129 0.18397,0.10129 0.30179,0.30592 v -0.35139 h 0.38034 z" />
    </g>
    <path
       id="path1591"
       d="m 80.003408,39.799469 v 5.852427"
       style="fill:none;stroke:#000000;stroke-width:0.264583px;stroke-linecap:butt;stroke-linejoin:miter;stroke-opacity:1;marker-end:url(#marker1721)" />
    <path
       id="path1593"
       d="m 98.107538,39.968257 v 5.575026"
       style="fill:none;stroke:#000000;stroke-width:0.273567px;stroke-linecap:butt;stroke-linejoin:miter;stroke-opacity:1;marker-end:url(#marker1711)" />
    <path
       id="path1595"
       d="m 72.203037,102.0686 v 7.76649"
       style="fill:none;stroke:#000000;stroke-width:0.265;stroke-linecap:butt;stroke-linejoin:miter;stroke-opacity:1;stroke-miterlimit:4;stroke-dasharray:none;marker-end:url(#marker1601)" />
    <path
       id="path1597"
       d="m 105.03362,102.0686 v 7.64235"
       style="fill:none;stroke:#000000;stroke-width:0.265;stroke-linecap:butt;stroke-linejoin:miter;stroke-opacity:1;stroke-miterlimit:4;stroke-dasharray:none;marker-end:url(#marker1611)" />
  </g>
</svg>
