<?xml version="1.0" encoding="UTF-8" standalone="no"?>
<svg
   xmlns:dc="http://purl.org/dc/elements/1.1/"
   xmlns:cc="http://creativecommons.org/ns#"
   xmlns:rdf="http://www.w3.org/1999/02/22-rdf-syntax-ns#"
   xmlns:svg="http://www.w3.org/2000/svg"
   xmlns="http://www.w3.org/2000/svg"
   xmlns:sodipodi="http://sodipodi.sourceforge.net/DTD/sodipodi-0.dtd"
   xmlns:inkscape="http://www.inkscape.org/namespaces/inkscape"
   width="210mm"
   height="297mm"
   viewBox="0 0 210 297"
   version="1.1"
   id="svg5349"
   inkscape:version="1.0 (1.0+r73+1)"
   sodipodi:docname="steeringlstmsplit.svg">
  <defs
     id="defs5343">
    <marker
       inkscape:stockid="Arrow1Mend"
       orient="auto"
       refY="0"
       refX="0"
       id="marker6797"
       style="overflow:visible"
       inkscape:isstock="true">
      <path
         id="path6795"
         d="M 0,0 5,-5 -12.5,0 5,5 Z"
         style="fill:#000000;fill-opacity:1;fill-rule:evenodd;stroke:#000000;stroke-width:1pt;stroke-opacity:1"
         transform="matrix(-0.4,0,0,-0.4,-4,0)" />
    </marker>
    <marker
       inkscape:stockid="Arrow1Mend"
       orient="auto"
       refY="0"
       refX="0"
       id="marker6787"
       style="overflow:visible"
       inkscape:isstock="true">
      <path
         id="path6785"
         d="M 0,0 5,-5 -12.5,0 5,5 Z"
         style="fill:#000000;fill-opacity:1;fill-rule:evenodd;stroke:#000000;stroke-width:1pt;stroke-opacity:1"
         transform="matrix(-0.4,0,0,-0.4,-4,0)" />
    </marker>
    <marker
       inkscape:stockid="Arrow1Mend"
       orient="auto"
       refY="0"
       refX="0"
       id="marker6777"
       style="overflow:visible"
       inkscape:isstock="true">
      <path
         id="path6775"
         d="M 0,0 5,-5 -12.5,0 5,5 Z"
         style="fill:#000000;fill-opacity:1;fill-rule:evenodd;stroke:#000000;stroke-width:1pt;stroke-opacity:1"
         transform="matrix(-0.4,0,0,-0.4,-4,0)" />
    </marker>
    <marker
       inkscape:stockid="Arrow1Mend"
       orient="auto"
       refY="0"
       refX="0"
       id="marker6755"
       style="overflow:visible"
       inkscape:isstock="true">
      <path
         id="path6753"
         d="M 0,0 5,-5 -12.5,0 5,5 Z"
         style="fill:#000000;fill-opacity:1;fill-rule:evenodd;stroke:#000000;stroke-width:1pt;stroke-opacity:1"
         transform="matrix(-0.4,0,0,-0.4,-4,0)" />
    </marker>
    <marker
       inkscape:stockid="Arrow1Mend"
       orient="auto"
       refY="0"
       refX="0"
       id="marker6745"
       style="overflow:visible"
       inkscape:isstock="true">
      <path
         id="path6743"
         d="M 0,0 5,-5 -12.5,0 5,5 Z"
         style="fill:#000000;fill-opacity:1;fill-rule:evenodd;stroke:#000000;stroke-width:1pt;stroke-opacity:1"
         transform="matrix(-0.4,0,0,-0.4,-4,0)" />
    </marker>
    <marker
       inkscape:stockid="Arrow1Mend"
       orient="auto"
       refY="0"
       refX="0"
       id="marker6735"
       style="overflow:visible"
       inkscape:isstock="true">
      <path
         id="path6733"
         d="M 0,0 5,-5 -12.5,0 5,5 Z"
         style="fill:#000000;fill-opacity:1;fill-rule:evenodd;stroke:#000000;stroke-width:1pt;stroke-opacity:1"
         transform="matrix(-0.4,0,0,-0.4,-4,0)" />
    </marker>
    <marker
       inkscape:isstock="true"
       style="overflow:visible"
       id="marker6641"
       refX="0"
       refY="0"
       orient="auto"
       inkscape:stockid="Arrow1Mend">
      <path
         transform="matrix(-0.4,0,0,-0.4,-4,0)"
         style="fill:#000000;fill-opacity:1;fill-rule:evenodd;stroke:#000000;stroke-width:1pt;stroke-opacity:1"
         d="M 0,0 5,-5 -12.5,0 5,5 Z"
         id="path6639" />
    </marker>
    <marker
       inkscape:isstock="true"
       style="overflow:visible"
       id="marker6631"
       refX="0"
       refY="0"
       orient="auto"
       inkscape:stockid="Arrow1Mend">
      <path
         transform="matrix(-0.4,0,0,-0.4,-4,0)"
         style="fill:#000000;fill-opacity:1;fill-rule:evenodd;stroke:#000000;stroke-width:1pt;stroke-opacity:1"
         d="M 0,0 5,-5 -12.5,0 5,5 Z"
         id="path6629" />
    </marker>
    <marker
       inkscape:stockid="Arrow1Mend"
       orient="auto"
       refY="0"
       refX="0"
       id="marker6553"
       style="overflow:visible"
       inkscape:isstock="true"
       inkscape:collect="always">
      <path
         id="path6551"
         d="M 0,0 5,-5 -12.5,0 5,5 Z"
         style="fill:#000000;fill-opacity:1;fill-rule:evenodd;stroke:#000000;stroke-width:1pt;stroke-opacity:1"
         transform="matrix(-0.4,0,0,-0.4,-4,0)" />
    </marker>
    <marker
       inkscape:isstock="true"
       style="overflow:visible"
       id="marker1539"
       refX="0"
       refY="0"
       orient="auto"
       inkscape:stockid="Arrow1Mend"
       inkscape:collect="always">
      <path
         transform="matrix(-0.4,0,0,-0.4,-4,0)"
         style="fill:#000000;fill-opacity:1;fill-rule:evenodd;stroke:#000000;stroke-width:1pt;stroke-opacity:1"
         d="M 0,0 5,-5 -12.5,0 5,5 Z"
         id="path1537" />
    </marker>
    <marker
       inkscape:isstock="true"
       style="overflow:visible"
       id="marker1529"
       refX="0"
       refY="0"
       orient="auto"
       inkscape:stockid="Arrow1Mend">
      <path
         transform="matrix(-0.4,0,0,-0.4,-4,0)"
         style="fill:#000000;fill-opacity:1;fill-rule:evenodd;stroke:#000000;stroke-width:1pt;stroke-opacity:1"
         d="M 0,0 5,-5 -12.5,0 5,5 Z"
         id="path1527" />
    </marker>
    <marker
       inkscape:isstock="true"
       style="overflow:visible"
       id="marker3951"
       refX="0"
       refY="0"
       orient="auto"
       inkscape:stockid="Arrow1Mend">
      <path
         transform="matrix(-0.4,0,0,-0.4,-4,0)"
         style="fill:#000000;fill-opacity:1;fill-rule:evenodd;stroke:#000000;stroke-width:1pt;stroke-opacity:1"
         d="M 0,0 5,-5 -12.5,0 5,5 Z"
         id="path3949" />
    </marker>
    <marker
       inkscape:isstock="true"
       style="overflow:visible"
       id="marker3961"
       refX="0"
       refY="0"
       orient="auto"
       inkscape:stockid="Arrow1Mend">
      <path
         transform="matrix(-0.4,0,0,-0.4,-4,0)"
         style="fill:#000000;fill-opacity:1;fill-rule:evenodd;stroke:#000000;stroke-width:1pt;stroke-opacity:1"
         d="M 0,0 5,-5 -12.5,0 5,5 Z"
         id="path3959" />
    </marker>
  </defs>
  <sodipodi:namedview
     inkscape:snap-global="false"
     showguides="false"
     id="base"
     pagecolor="#ffffff"
     bordercolor="#666666"
     borderopacity="1.0"
     inkscape:pageopacity="0.0"
     inkscape:pageshadow="2"
     inkscape:zoom="2.8"
     inkscape:cx="332.34511"
     inkscape:cy="132.55013"
     inkscape:document-units="mm"
     inkscape:current-layer="layer1"
     inkscape:document-rotation="0"
     showgrid="false"
     inkscape:snap-midpoints="true"
     inkscape:window-width="1600"
     inkscape:window-height="850"
     inkscape:window-x="0"
     inkscape:window-y="0"
     inkscape:window-maximized="1" />
  <metadata
     id="metadata5346">
    <rdf:RDF>
      <cc:Work
         rdf:about="">
        <dc:format>image/svg+xml</dc:format>
        <dc:type
           rdf:resource="http://purl.org/dc/dcmitype/StillImage" />
        <dc:title></dc:title>
      </cc:Work>
    </rdf:RDF>
  </metadata>
  <g
     inkscape:label="Layer 1"
     inkscape:groupmode="layer"
     id="layer1">
    <path
       id="rect857-40-0"
       style="opacity:0.707;fill:#fabe50;stroke:#000000;stroke-width:0.206036;stop-color:#000000"
       d="m 76.190617,13.036966 h 26.080333 c 0.46203,0 0.83399,0.336331 0.83399,0.754105 v 9.321305 c 0,0.417775 -0.37196,0.754105 -0.83399,0.754105 H 76.190617 c -0.46203,0 -0.833989,-0.33633 -0.833989,-0.754105 v -9.321305 c 0,-0.417774 0.371959,-0.754105 0.833989,-0.754105 z" />
    <g
       transform="translate(-1.7842045,-38.525542)"
       id="g1077">
      <path
         d="m 78.600592,67.503288 h 23.603888 c 0.41816,0 0.7548,0.33664 0.7548,0.754797 v 9.329857 c 0,0.418158 -0.33664,0.754797 -0.7548,0.754797 H 78.600592 c -0.418158,0 -0.754797,-0.336639 -0.754797,-0.754797 v -9.329857 c 0,-0.418157 0.336639,-0.754797 0.754797,-0.754797 z"
         style="opacity:0.707;fill:#fabe50;stroke:#000000;stroke-width:0.1961;stop-color:#000000"
         id="rect857-40-9" />
      <g
         style="font-size:4.93889px;line-height:1.25;font-family:sans-serif;-inkscape-font-specification:sans-serif;stroke-width:0.264583"
         id="text839"
         aria-label="Flatten">
        <path
           id="path8283"
           style="font-size:4.93889px;stroke-width:0.264583"
           d="m 82.209235,71.163774 h 2.069125 v 0.409966 h -1.581988 v 1.06109 h 1.427648 v 0.409967 h -1.427648 v 1.719447 h -0.487137 z" />
        <path
           id="path8285"
           style="font-size:4.93889px;stroke-width:0.264583"
           d="m 85.035592,71.011845 h 0.443729 v 3.752399 h -0.443729 z" />
        <path
           id="path8287"
           style="font-size:4.93889px;stroke-width:0.264583"
           d="m 87.63285,73.406532 q -0.537779,0 -0.745174,0.12299 -0.207395,0.12299 -0.207395,0.419612 0,0.236334 0.15434,0.376205 0.156752,0.137459 0.424436,0.137459 0.36897,0 0.590834,-0.260449 0.224276,-0.262861 0.224276,-0.696943 v -0.09887 z m 0.885045,-0.183279 v 1.540991 h -0.443728 v -0.409966 q -0.151929,0.245979 -0.378616,0.364146 -0.226687,0.115756 -0.55466,0.115756 -0.41479,0 -0.66077,-0.231511 -0.243568,-0.233922 -0.243568,-0.624596 0,-0.455786 0.303857,-0.687297 0.306269,-0.23151 0.911573,-0.23151 h 0.622184 v -0.04341 q 0,-0.306269 -0.202572,-0.472667 -0.20016,-0.16881 -0.564306,-0.16881 -0.231511,0 -0.450963,0.05547 -0.219453,0.05547 -0.422025,0.166398 v -0.409966 q 0.243569,-0.09405 0.472667,-0.139871 0.229099,-0.04823 0.44614,-0.04823 0.586011,0 0.875399,0.303858 0.289388,0.303857 0.289388,0.921219 z" />
        <path
           id="path8289"
           style="font-size:4.93889px;stroke-width:0.264583"
           d="m 89.873196,71.29641 v 0.766879 h 0.913985 v 0.344854 h -0.913985 v 1.466233 q 0,0.330384 0.08923,0.424436 0.09164,0.09405 0.36897,0.09405 h 0.455787 v 0.371381 h -0.455787 q -0.513664,0 -0.709001,-0.190514 -0.195336,-0.192925 -0.195336,-0.699354 v -1.466233 h -0.325562 v -0.344854 h 0.325562 V 71.29641 Z" />
        <path
           id="path8291"
           style="font-size:4.93889px;stroke-width:0.264583"
           d="m 91.812096,71.29641 v 0.766879 h 0.913985 v 0.344854 h -0.913985 v 1.466233 q 0,0.330384 0.08923,0.424436 0.09164,0.09405 0.36897,0.09405 h 0.455787 v 0.371381 h -0.455787 q -0.513664,0 -0.709001,-0.190514 -0.195336,-0.192925 -0.195336,-0.699354 v -1.466233 h -0.325562 v -0.344854 h 0.325562 V 71.29641 Z" />
        <path
           id="path8293"
           style="font-size:4.93889px;stroke-width:0.264583"
           d="m 95.622373,73.302834 v 0.217041 h -2.040186 q 0.02894,0.458198 0.274918,0.699355 0.248392,0.238745 0.689709,0.238745 0.255626,0 0.494371,-0.0627 0.241157,-0.0627 0.47749,-0.188102 v 0.419613 q -0.238745,0.101286 -0.489548,0.15434 -0.250803,0.05306 -0.508841,0.05306 -0.6463,0 -1.024916,-0.376205 -0.376204,-0.376204 -0.376204,-1.017681 0,-0.663181 0.356912,-1.051444 0.359323,-0.390674 0.967038,-0.390674 0.545015,0 0.86093,0.352089 0.318327,0.349677 0.318327,0.952569 z M 95.178644,73.17261 q -0.0048,-0.364147 -0.204983,-0.581188 -0.197748,-0.217041 -0.525722,-0.217041 -0.371381,0 -0.595657,0.209806 -0.221864,0.209807 -0.255626,0.590834 z" />
        <path
           id="path8295"
           style="font-size:4.93889px;stroke-width:0.264583"
           d="m 98.595836,73.134025 v 1.630219 h -0.443729 v -1.61575 q 0,-0.383439 -0.149517,-0.573953 -0.149517,-0.190514 -0.448551,-0.190514 -0.359324,0 -0.566719,0.229099 -0.207395,0.229099 -0.207395,0.624596 v 1.526522 h -0.44614 v -2.700955 h 0.44614 v 0.419612 q 0.159164,-0.243568 0.373793,-0.364146 0.217041,-0.120579 0.499195,-0.120579 0.465432,0 0.704177,0.289388 0.238746,0.286977 0.238746,0.846461 z" />
      </g>
    </g>
    <g
       transform="translate(-40.070163,-65.003224)"
       id="g983">
      <path
         d="m 82.319754,124.92082 h 23.603886 c 0.41816,0 0.7548,0.33664 0.7548,0.7548 v 9.32986 c 0,0.41815 -0.33664,0.75479 -0.7548,0.75479 H 82.319754 c -0.418158,0 -0.754797,-0.33664 -0.754797,-0.75479 v -9.32986 c 0,-0.41816 0.336639,-0.7548 0.754797,-0.7548 z"
         style="opacity:0.707;fill:#fabe50;stroke:#000000;stroke-width:0.1961;stop-color:#000000"
         id="rect857" />
      <g
         style="font-size:4.93889px;line-height:1.25;font-family:sans-serif;-inkscape-font-specification:sans-serif;stroke-width:0.205901"
         id="text843"
         aria-label="Dense 1">
        <path
           id="path8299"
           style="font-size:4.93889px;stroke-width:0.205901"
           d="m 84.927596,128.90567 v 2.79983 h 0.588422 q 0.745175,0 1.090029,-0.33762 0.347265,-0.33762 0.347265,-1.06591 0,-0.72347 -0.347265,-1.05868 -0.344854,-0.33762 -1.090029,-0.33762 z m -0.487137,-0.40032 h 1.000801 q 1.04662,0 1.536168,0.43649 0.489548,0.43409 0.489548,1.36013 0,0.93086 -0.491959,1.36736 -0.49196,0.43649 -1.533757,0.43649 h -1.000801 z" />
        <path
           id="path8301"
           style="font-size:4.93889px;stroke-width:0.205901"
           d="m 90.532078,130.64441 v 0.21704 h -2.040186 q 0.02894,0.4582 0.274919,0.69936 0.248392,0.23874 0.689708,0.23874 0.255626,0 0.494372,-0.0627 0.241156,-0.0627 0.47749,-0.1881 v 0.41961 q -0.238745,0.10129 -0.489548,0.15434 -0.250803,0.0531 -0.508841,0.0531 -0.6463,0 -1.024916,-0.37621 -0.376205,-0.3762 -0.376205,-1.01768 0,-0.66318 0.356912,-1.05144 0.359324,-0.39068 0.967039,-0.39068 0.545014,0 0.860929,0.35209 0.318327,0.34968 0.318327,0.95257 z m -0.443728,-0.13022 q -0.0048,-0.36415 -0.204983,-0.58119 -0.197749,-0.21704 -0.525722,-0.21704 -0.371381,0 -0.595657,0.2098 -0.221864,0.20981 -0.255626,0.59084 z" />
        <path
           id="path8303"
           style="font-size:4.93889px;stroke-width:0.205901"
           d="m 93.505541,130.4756 v 1.63022 h -0.443729 v -1.61575 q 0,-0.38344 -0.149517,-0.57395 -0.149517,-0.19052 -0.448551,-0.19052 -0.359324,0 -0.566719,0.2291 -0.207394,0.2291 -0.207394,0.6246 v 1.52652 h -0.44614 v -2.70096 h 0.44614 v 0.41962 q 0.159163,-0.24357 0.373792,-0.36415 0.217042,-0.12058 0.499195,-0.12058 0.465432,0 0.704178,0.28939 0.238745,0.28698 0.238745,0.84646 z" />
        <path
           id="path8305"
           style="font-size:4.93889px;stroke-width:0.205901"
           d="m 96.117269,129.48445 v 0.41961 q -0.188102,-0.0965 -0.390674,-0.1447 -0.202572,-0.0482 -0.419613,-0.0482 -0.330384,0 -0.496782,0.10129 -0.163987,0.10128 -0.163987,0.30386 0,0.15434 0.118167,0.24356 0.118167,0.0868 0.475079,0.1664 l 0.151928,0.0338 q 0.472667,0.10128 0.670416,0.28697 0.20016,0.18328 0.20016,0.51367 0,0.3762 -0.299034,0.59565 -0.296623,0.21946 -0.817522,0.21946 -0.217041,0 -0.453374,-0.0434 -0.233922,-0.041 -0.494372,-0.1254 v -0.4582 q 0.24598,0.12781 0.484725,0.19292 0.238746,0.0627 0.472668,0.0627 0.313503,0 0.482313,-0.10611 0.16881,-0.10852 0.16881,-0.30385 0,-0.18087 -0.12299,-0.27733 -0.120578,-0.0965 -0.532956,-0.18569 l -0.154341,-0.0362 q -0.412378,-0.0868 -0.595657,-0.26527 -0.183279,-0.18087 -0.183279,-0.49437 0,-0.38103 0.270095,-0.58842 0.270096,-0.2074 0.766879,-0.2074 0.24598,0 0.463021,0.0362 0.217041,0.0362 0.40032,0.10852 z" />
        <path
           id="path8307"
           style="font-size:4.93889px;stroke-width:0.205901"
           d="m 99.281245,130.64441 v 0.21704 h -2.040186 q 0.02894,0.4582 0.274919,0.69936 0.248391,0.23874 0.689708,0.23874 0.255626,0 0.494372,-0.0627 0.241156,-0.0627 0.47749,-0.1881 v 0.41961 q -0.238745,0.10129 -0.489548,0.15434 -0.250803,0.0531 -0.508841,0.0531 -0.6463,0 -1.024916,-0.37621 -0.376205,-0.3762 -0.376205,-1.01768 0,-0.66318 0.356912,-1.05144 0.359324,-0.39068 0.967039,-0.39068 0.545014,0 0.860929,0.35209 0.318327,0.34968 0.318327,0.95257 z m -0.443728,-0.13022 q -0.0048,-0.36415 -0.204983,-0.58119 -0.197749,-0.21704 -0.525722,-0.21704 -0.371381,0 -0.595657,0.2098 -0.221864,0.20981 -0.255626,0.59084 z" />
        <path
           id="path8309"
           style="font-size:4.93889px;stroke-width:0.205901"
           d="m 101.72899,131.69585 h 0.79581 v -2.74677 l -0.86575,0.17363 v -0.44373 l 0.86093,-0.17363 h 0.48714 v 3.1905 h 0.79581 v 0.40997 h -2.07394 z" />
      </g>
    </g>
    <g
       transform="translate(-38.541721,-82.197042)"
       id="g973">
      <path
         d="M 80.791311,157.10873 H 104.3952 c 0.41816,0 0.7548,0.33664 0.7548,0.7548 v 9.32986 c 0,0.41816 -0.33664,0.75479 -0.7548,0.75479 H 80.791311 c -0.418157,0 -0.754797,-0.33663 -0.754797,-0.75479 v -9.32986 c 0,-0.41816 0.33664,-0.7548 0.754797,-0.7548 z"
         style="opacity:0.707;fill:#fabe50;stroke:#000000;stroke-width:0.1961;stop-color:#000000"
         id="rect857-4" />
      <g
         style="font-size:4.93889px;line-height:1.25;font-family:sans-serif;-inkscape-font-specification:sans-serif;stroke-width:0.264583"
         id="text847"
         aria-label="Dense 2">
        <path
           id="path8313"
           style="font-size:4.93889px;stroke-width:0.264583"
           d="m 84.204619,161.12613 v 2.79983 h 0.588423 q 0.745174,0 1.090028,-0.33762 0.347266,-0.33762 0.347266,-1.06591 0,-0.72347 -0.347266,-1.05868 -0.344854,-0.33762 -1.090028,-0.33762 z m -0.487136,-0.40032 h 1.0008 q 1.04662,0 1.536168,0.43649 0.489549,0.43408 0.489549,1.36013 0,0.93086 -0.49196,1.36735 -0.49196,0.4365 -1.533757,0.4365 h -1.0008 z" />
        <path
           id="path8315"
           style="font-size:4.93889px;stroke-width:0.264583"
           d="m 89.809102,162.86487 v 0.21704 h -2.040186 q 0.02894,0.4582 0.274918,0.69935 0.248392,0.23875 0.689709,0.23875 0.255626,0 0.494371,-0.0627 0.241157,-0.0627 0.47749,-0.1881 v 0.41961 q -0.238745,0.10129 -0.489548,0.15434 -0.250803,0.053 -0.508841,0.053 -0.6463,0 -1.024916,-0.3762 -0.376204,-0.3762 -0.376204,-1.01768 0,-0.66318 0.356912,-1.05145 0.359323,-0.39067 0.967038,-0.39067 0.545014,0 0.86093,0.35209 0.318327,0.34968 0.318327,0.95257 z m -0.443729,-0.13023 q -0.0048,-0.36414 -0.204983,-0.58118 -0.197748,-0.21704 -0.525722,-0.21704 -0.371381,0 -0.595657,0.2098 -0.221864,0.20981 -0.255626,0.59084 z" />
        <path
           id="path8317"
           style="font-size:4.93889px;stroke-width:0.264583"
           d="m 92.782564,162.69606 v 1.63022 h -0.443728 v -1.61575 q 0,-0.38344 -0.149517,-0.57395 -0.149518,-0.19052 -0.448552,-0.19052 -0.359324,0 -0.566718,0.2291 -0.207395,0.2291 -0.207395,0.6246 v 1.52652 h -0.44614 v -2.70096 h 0.44614 v 0.41962 q 0.159163,-0.24357 0.373793,-0.36415 0.217041,-0.12058 0.499194,-0.12058 0.465433,0 0.704178,0.28939 0.238745,0.28698 0.238745,0.84646 z" />
        <path
           id="path8319"
           style="font-size:4.93889px;stroke-width:0.264583"
           d="m 95.394292,161.7049 v 0.41962 q -0.188102,-0.0965 -0.390674,-0.1447 -0.202571,-0.0482 -0.419612,-0.0482 -0.330385,0 -0.496783,0.10129 -0.163987,0.10128 -0.163987,0.30386 0,0.15434 0.118167,0.24356 0.118167,0.0868 0.475079,0.1664 l 0.151929,0.0338 q 0.472667,0.10129 0.670415,0.28698 0.20016,0.18328 0.20016,0.51366 0,0.37621 -0.299034,0.59566 -0.296623,0.21945 -0.817521,0.21945 -0.217041,0 -0.453375,-0.0434 -0.233922,-0.041 -0.494371,-0.12541 v -0.45819 q 0.24598,0.12781 0.484725,0.19292 0.238745,0.0627 0.472667,0.0627 0.313504,0 0.482313,-0.10611 0.16881,-0.10852 0.16881,-0.30385 0,-0.18087 -0.12299,-0.27733 -0.120578,-0.0965 -0.532956,-0.18569 l -0.15434,-0.0362 q -0.412379,-0.0868 -0.595658,-0.26527 -0.183279,-0.18087 -0.183279,-0.49437 0,-0.38103 0.270096,-0.58842 0.270095,-0.2074 0.766878,-0.2074 0.24598,0 0.463021,0.0362 0.217041,0.0362 0.40032,0.10852 z" />
        <path
           id="path8321"
           style="font-size:4.93889px;stroke-width:0.264583"
           d="m 98.558269,162.86487 v 0.21704 h -2.040186 q 0.02894,0.4582 0.274918,0.69935 0.248392,0.23875 0.689709,0.23875 0.255626,0 0.494371,-0.0627 0.241157,-0.0627 0.47749,-0.1881 v 0.41961 q -0.238745,0.10129 -0.489548,0.15434 -0.250803,0.053 -0.508841,0.053 -0.6463,0 -1.024916,-0.3762 -0.376204,-0.3762 -0.376204,-1.01768 0,-0.66318 0.356912,-1.05145 0.359323,-0.39067 0.967038,-0.39067 0.545014,0 0.86093,0.35209 0.318327,0.34968 0.318327,0.95257 z m -0.443729,-0.13023 q -0.0048,-0.36414 -0.204983,-0.58118 -0.197748,-0.21704 -0.525722,-0.21704 -0.371381,0 -0.595657,0.2098 -0.221864,0.20981 -0.255626,0.59084 z" />
        <path
           id="path8323"
           style="font-size:4.93889px;stroke-width:0.264583"
           d="m 101.34122,163.91631 h 1.70015 v 0.40997 h -2.28616 v -0.40997 q 0.27733,-0.28697 0.75482,-0.76929 0.4799,-0.48472 0.60289,-0.62459 0.23392,-0.26286 0.32556,-0.44373 0.094,-0.18328 0.094,-0.35933 0,-0.28697 -0.20257,-0.46784 -0.20016,-0.18087 -0.52331,-0.18087 -0.2291,0 -0.48473,0.0796 -0.25321,0.0796 -0.5426,0.24116 v -0.49196 q 0.29421,-0.11817 0.54984,-0.17845 0.25563,-0.0603 0.46784,-0.0603 0.55949,0 0.89228,0.27974 0.3328,0.27974 0.3328,0.74758 0,0.22187 -0.0844,0.42203 -0.082,0.19775 -0.30144,0.46784 -0.0603,0.0699 -0.38344,0.40515 -0.32315,0.33279 -0.91157,0.93327 z" />
      </g>
    </g>
    <g
       transform="translate(-38.295812,-94.783086)"
       id="g978">
      <path
         d="m 80.545401,184.68887 h 23.603889 c 0.41816,0 0.7548,0.33664 0.7548,0.7548 v 9.32986 c 0,0.41815 -0.33664,0.75479 -0.7548,0.75479 H 80.545401 c -0.418158,0 -0.754797,-0.33664 -0.754797,-0.75479 v -9.32986 c 0,-0.41816 0.336639,-0.7548 0.754797,-0.7548 z"
         style="opacity:0.707;fill:#fabe50;stroke:#000000;stroke-width:0.1961;stop-color:#000000"
         id="rect857-4-7" />
      <g
         style="font-size:4.93889px;line-height:1.25;font-family:sans-serif;-inkscape-font-specification:sans-serif;stroke-width:0.217734"
         id="text851"
         aria-label="Dense 3">
        <path
           id="path8327"
           style="font-size:4.93889px;stroke-width:0.217734"
           d="m 83.123099,188.70627 v 2.79983 h 0.588423 q 0.745174,0 1.090028,-0.33762 0.347266,-0.33762 0.347266,-1.06591 0,-0.72347 -0.347266,-1.05868 -0.344854,-0.33762 -1.090028,-0.33762 z m -0.487136,-0.40032 h 1.0008 q 1.04662,0 1.536168,0.43649 0.489549,0.43408 0.489549,1.36013 0,0.93086 -0.49196,1.36735 -0.49196,0.4365 -1.533757,0.4365 h -1.0008 z" />
        <path
           id="path8329"
           style="font-size:4.93889px;stroke-width:0.217734"
           d="m 88.727582,190.44501 v 0.21704 h -2.040186 q 0.02894,0.4582 0.274918,0.69935 0.248392,0.23875 0.689709,0.23875 0.255626,0 0.494371,-0.0627 0.241157,-0.0627 0.47749,-0.1881 v 0.41961 q -0.238745,0.10128 -0.489548,0.15434 -0.250803,0.053 -0.508841,0.053 -0.6463,0 -1.024916,-0.3762 -0.376204,-0.37621 -0.376204,-1.01768 0,-0.66318 0.356912,-1.05145 0.359323,-0.39067 0.967038,-0.39067 0.545014,0 0.86093,0.35209 0.318327,0.34968 0.318327,0.95257 z m -0.443729,-0.13023 q -0.0048,-0.36414 -0.204983,-0.58118 -0.197749,-0.21705 -0.525722,-0.21705 -0.371381,0 -0.595657,0.20981 -0.221864,0.20981 -0.255626,0.59083 z" />
        <path
           id="path8331"
           style="font-size:4.93889px;stroke-width:0.217734"
           d="m 91.701044,190.2762 v 1.63022 h -0.443728 v -1.61575 q 0,-0.38344 -0.149518,-0.57396 -0.149517,-0.19051 -0.448551,-0.19051 -0.359324,0 -0.566718,0.2291 -0.207395,0.2291 -0.207395,0.6246 v 1.52652 h -0.44614 v -2.70096 h 0.44614 v 0.41962 q 0.159163,-0.24357 0.373793,-0.36415 0.217041,-0.12058 0.499194,-0.12058 0.465433,0 0.704178,0.28939 0.238745,0.28697 0.238745,0.84646 z" />
        <path
           id="path8333"
           style="font-size:4.93889px;stroke-width:0.217734"
           d="m 94.312772,189.28504 v 0.41962 q -0.188102,-0.0965 -0.390674,-0.1447 -0.202571,-0.0482 -0.419612,-0.0482 -0.330385,0 -0.496783,0.10129 -0.163987,0.10128 -0.163987,0.30385 0,0.15435 0.118167,0.24357 0.118167,0.0868 0.475079,0.1664 l 0.151928,0.0338 q 0.472668,0.10129 0.670416,0.28698 0.20016,0.18328 0.20016,0.51366 0,0.37621 -0.299034,0.59566 -0.296623,0.21945 -0.817521,0.21945 -0.217041,0 -0.453375,-0.0434 -0.233922,-0.041 -0.494371,-0.12541 v -0.45819 q 0.24598,0.12781 0.484725,0.19292 0.238745,0.0627 0.472667,0.0627 0.313504,0 0.482313,-0.10611 0.16881,-0.10852 0.16881,-0.30385 0,-0.18087 -0.12299,-0.27733 -0.120578,-0.0965 -0.532956,-0.1857 l -0.154341,-0.0362 q -0.412378,-0.0868 -0.595657,-0.26527 -0.183279,-0.18087 -0.183279,-0.49437 0,-0.38103 0.270096,-0.58843 0.270095,-0.20739 0.766878,-0.20739 0.24598,0 0.463021,0.0362 0.217041,0.0362 0.40032,0.10852 z" />
        <path
           id="path8335"
           style="font-size:4.93889px;stroke-width:0.217734"
           d="m 97.476749,190.44501 v 0.21704 h -2.040186 q 0.02894,0.4582 0.274918,0.69935 0.248392,0.23875 0.689709,0.23875 0.255626,0 0.494371,-0.0627 0.241157,-0.0627 0.47749,-0.1881 v 0.41961 q -0.238745,0.10128 -0.489548,0.15434 -0.250803,0.053 -0.508841,0.053 -0.6463,0 -1.024916,-0.3762 -0.376204,-0.37621 -0.376204,-1.01768 0,-0.66318 0.356912,-1.05145 0.359323,-0.39067 0.967038,-0.39067 0.545014,0 0.86093,0.35209 0.318327,0.34968 0.318327,0.95257 z m -0.443729,-0.13023 q -0.0048,-0.36414 -0.204983,-0.58118 -0.197749,-0.21705 -0.525722,-0.21705 -0.371381,0 -0.595657,0.20981 -0.221864,0.20981 -0.255626,0.59083 z" />
        <path
           id="path8337"
           style="font-size:4.93889px;stroke-width:0.217734"
           d="m 101.31596,189.96511 q 0.34968,0.0747 0.54502,0.31109 0.19775,0.23633 0.19775,0.5836 0,0.53295 -0.36656,0.82475 -0.36656,0.2918 -1.0418,0.2918 -0.22669,0 -0.46784,-0.0458 -0.238749,-0.0434 -0.494375,-0.13263 v -0.47026 q 0.202572,0.11817 0.443725,0.17846 0.24116,0.0603 0.50402,0.0603 0.4582,0 0.69694,-0.18087 0.24116,-0.18087 0.24116,-0.52572 0,-0.31833 -0.22427,-0.49679 -0.22187,-0.18086 -0.61978,-0.18086 h -0.41961 v -0.40032 h 0.4389 q 0.35933,0 0.54984,-0.14229 0.19052,-0.14469 0.19052,-0.41479 0,-0.27733 -0.19775,-0.42443 -0.19534,-0.14952 -0.5619,-0.14952 -0.20016,0 -0.42926,0.0434 -0.2291,0.0434 -0.504014,0.13505 v -0.43408 q 0.277334,-0.0772 0.518484,-0.11576 0.24357,-0.0386 0.4582,-0.0386 0.55466,0 0.87781,0.25321 0.32315,0.2508 0.32315,0.68006 0,0.29904 -0.17122,0.50643 -0.17122,0.20498 -0.48714,0.28457 z" />
      </g>
    </g>
    <g
       transform="translate(-1.7842035,-50.447899)"
       id="g1072">
      <g
         id="g5862">
        <path
           d="m 44.033792,95.371399 h 23.60389 c 0.418158,0 0.754797,0.336639 0.754797,0.754797 v 9.329854 c 0,0.41816 -0.336639,0.7548 -0.754797,0.7548 h -23.60389 c -0.418157,0 -0.754796,-0.33664 -0.754796,-0.7548 v -9.329854 c 0,-0.418158 0.336639,-0.754797 0.754796,-0.754797 z"
           style="opacity:0.707;fill:#fabe50;stroke:#000000;stroke-width:0.1961;stop-color:#000000"
           id="rect857-40" />
        <g
           style="font-size:4.93889px;line-height:1.25;font-family:sans-serif;-inkscape-font-specification:sans-serif;stroke-width:0.198741"
           id="text867"
           aria-label="LSTM 1">
          <path
             id="path8341"
             style="font-size:4.93889px;stroke-width:0.198741"
             d="m 47.365108,98.988481 h 0.487136 v 3.190499 h 1.75321 v 0.40997 h -2.240346 z" />
          <path
             id="path8343"
             style="font-size:4.93889px;stroke-width:0.198741"
             d="m 52.272647,99.106648 v 0.475079 q -0.27733,-0.132637 -0.52331,-0.197749 -0.24598,-0.06511 -0.475079,-0.06511 -0.397908,0 -0.614949,0.15434 -0.21463,0.15434 -0.21463,0.438905 0,0.238747 0.142283,0.361737 0.144694,0.12057 0.545014,0.19533 l 0.294211,0.0603 q 0.545014,0.1037 0.803052,0.36656 0.260449,0.26045 0.260449,0.69936 0,0.52331 -0.352089,0.7934 -0.349677,0.2701 -1.027327,0.2701 -0.255626,0 -0.545015,-0.0579 -0.286976,-0.0579 -0.595657,-0.17122 v -0.50161 q 0.296623,0.1664 0.581188,0.2508 0.284565,0.0844 0.559484,0.0844 0.417201,0 0.643888,-0.16399 0.226687,-0.16398 0.226687,-0.46784 0,-0.26527 -0.163986,-0.41479 -0.161575,-0.14952 -0.532956,-0.22428 l -0.296623,-0.0579 q -0.545015,-0.10852 -0.788583,-0.34004 -0.243568,-0.23151 -0.243568,-0.643882 0,-0.47749 0.335208,-0.752409 0.337619,-0.274918 0.928453,-0.274918 0.253215,0 0.516076,0.04582 0.26286,0.04582 0.537779,0.13746 z" />
          <path
             id="path8345"
             style="font-size:4.93889px;stroke-width:0.198741"
             d="m 52.750138,98.988481 h 3.045809 v 0.409966 h -1.278131 v 3.190503 h -0.489548 v -3.190503 h -1.27813 z" />
          <path
             id="path8347"
             style="font-size:4.93889px;stroke-width:0.198741"
             d="m 56.268615,98.988481 h 0.725882 l 0.918807,2.450149 0.92363,-2.450149 h 0.725882 v 3.600469 h -0.475079 v -3.161564 l -0.928453,2.469444 h -0.489549 l -0.928453,-2.469444 v 3.161564 h -0.472667 z" />
          <path
             id="path8349"
             style="font-size:4.93889px;stroke-width:0.198741"
             d="m 62.232421,102.17898 h 0.795817 v -2.746771 l -0.865753,0.173633 v -0.443728 l 0.86093,-0.173633 h 0.487136 v 3.190499 h 0.795818 v 0.40997 h -2.073948 z" />
        </g>
      </g>
    </g>
    <path
       id="path1061"
       d="M 76.86959,39.817197 65.800277,44.9235"
       style="fill:none;fill-rule:evenodd;stroke:#000000;stroke-width:0.265;stroke-linecap:butt;stroke-linejoin:miter;stroke-miterlimit:4;stroke-dasharray:none;stroke-opacity:1;marker-end:url(#marker1539)" />
    <path
       id="path1063"
       d="m 54.051534,55.762951 1e-6,4.154647"
       style="fill:none;fill-rule:evenodd;stroke:#000000;stroke-width:0.265;stroke-linecap:butt;stroke-linejoin:miter;stroke-miterlimit:4;stroke-dasharray:none;stroke-opacity:1;marker-end:url(#marker6797)" />
    <path
       id="path1065"
       d="m 54.051536,70.757049 v 4.154643"
       style="fill:none;fill-rule:evenodd;stroke:#000000;stroke-width:0.265;stroke-linecap:butt;stroke-linejoin:miter;stroke-miterlimit:4;stroke-dasharray:none;stroke-opacity:1;marker-end:url(#marker6787)" />
    <path
       id="path1067"
       d="m 54.051536,85.751143 v 4.154644"
       style="fill:none;fill-rule:evenodd;stroke:#000000;stroke-width:0.265;stroke-linecap:butt;stroke-linejoin:miter;stroke-miterlimit:4;stroke-dasharray:none;stroke-opacity:1;marker-end:url(#marker6777)" />
    <path
       id="path1079"
       d="m 88.618333,23.871449 v 5.106297"
       style="fill:none;fill-rule:evenodd;stroke:#000000;stroke-width:0.265;stroke-linecap:butt;stroke-linejoin:miter;stroke-miterlimit:4;stroke-dasharray:none;stroke-opacity:1;marker-end:url(#marker1529)" />
    <g
       style="font-size:4.93889px;line-height:1.25;font-family:sans-serif;-inkscape-font-specification:sans-serif;stroke-width:0.264583"
       id="text1085"
       aria-label="Classification outputs">
      <path
         id="path8352"
         style="font-size:4.93889px;stroke-width:0.264583"
         d="m 30.64004,109.81268 v 0.51366 q -0.24598,-0.2291 -0.525722,-0.34244 -0.27733,-0.11334 -0.590834,-0.11334 -0.617361,0 -0.945334,0.37861 -0.327973,0.37621 -0.327973,1.09003 0,0.71141 0.327973,1.09003 0.327973,0.3762 0.945334,0.3762 0.313504,0 0.590834,-0.11334 0.279742,-0.11334 0.525722,-0.34244 v 0.50884 q -0.255626,0.17363 -0.542603,0.26045 -0.284565,0.0868 -0.602891,0.0868 -0.817522,0 -1.287777,-0.49919 -0.470256,-0.50161 -0.470256,-1.36736 0,-0.86816 0.470256,-1.36736 0.470255,-0.5016 1.287777,-0.5016 0.32315,0 0.607715,0.0868 0.286976,0.0844 0.537779,0.25563 z" />
      <path
         id="path8354"
         style="font-size:4.93889px;stroke-width:0.264583"
         d="m 31.37798,109.38342 h 0.443728 v 3.7524 H 31.37798 Z" />
      <path
         id="path8356"
         style="font-size:4.93889px;stroke-width:0.264583"
         d="m 33.975237,111.77811 q -0.537779,0 -0.745174,0.12299 -0.207395,0.12299 -0.207395,0.41961 0,0.23633 0.154341,0.3762 0.156752,0.13746 0.424436,0.13746 0.368969,0 0.590834,-0.26045 0.224275,-0.26286 0.224275,-0.69694 v -0.0989 z m 0.885046,-0.18328 v 1.54099 h -0.443729 v -0.40997 q -0.151928,0.24598 -0.378616,0.36415 -0.226687,0.11575 -0.55466,0.11575 -0.41479,0 -0.66077,-0.23151 -0.243568,-0.23392 -0.243568,-0.62459 0,-0.45579 0.303857,-0.6873 0.306269,-0.23151 0.911573,-0.23151 h 0.622184 v -0.0434 q 0,-0.30627 -0.202571,-0.47267 -0.20016,-0.1688 -0.564307,-0.1688 -0.231511,0 -0.450963,0.0555 -0.219453,0.0555 -0.422025,0.1664 v -0.40997 q 0.243569,-0.094 0.472668,-0.13987 0.229099,-0.0482 0.44614,-0.0482 0.586011,0 0.875399,0.30386 0.289388,0.30386 0.289388,0.92122 z" />
      <path
         id="path8358"
         style="font-size:4.93889px;stroke-width:0.264583"
         d="m 37.498538,110.51444 v 0.41962 q -0.188103,-0.0965 -0.390674,-0.1447 -0.202572,-0.0482 -0.419613,-0.0482 -0.330385,0 -0.496783,0.10129 -0.163987,0.10128 -0.163987,0.30386 0,0.15434 0.118167,0.24356 0.118167,0.0868 0.475079,0.1664 l 0.151929,0.0338 q 0.472667,0.10129 0.670415,0.28698 0.200161,0.18328 0.200161,0.51366 0,0.37621 -0.299035,0.59566 -0.296623,0.21945 -0.817521,0.21945 -0.217041,0 -0.453375,-0.0434 -0.233922,-0.041 -0.494371,-0.12541 v -0.45819 q 0.24598,0.12781 0.484725,0.19292 0.238745,0.0627 0.472667,0.0627 0.313504,0 0.482314,-0.10611 0.168809,-0.10852 0.168809,-0.30385 0,-0.18087 -0.12299,-0.27733 -0.120578,-0.0965 -0.532956,-0.18569 l -0.15434,-0.0362 q -0.412378,-0.0868 -0.595657,-0.26527 -0.18328,-0.18087 -0.18328,-0.49437 0,-0.38103 0.270096,-0.58842 0.270096,-0.2074 0.766878,-0.2074 0.24598,0 0.463021,0.0362 0.217041,0.0362 0.400321,0.10852 z" />
      <path
         id="path8360"
         style="font-size:4.93889px;stroke-width:0.264583"
         d="m 40.074091,110.51444 v 0.41962 q -0.188102,-0.0965 -0.390673,-0.1447 -0.202572,-0.0482 -0.419613,-0.0482 -0.330385,0 -0.496783,0.10129 -0.163987,0.10128 -0.163987,0.30386 0,0.15434 0.118167,0.24356 0.118167,0.0868 0.475079,0.1664 l 0.151929,0.0338 q 0.472667,0.10129 0.670415,0.28698 0.20016,0.18328 0.20016,0.51366 0,0.37621 -0.299034,0.59566 -0.296623,0.21945 -0.817521,0.21945 -0.217041,0 -0.453375,-0.0434 -0.233922,-0.041 -0.494371,-0.12541 v -0.45819 q 0.24598,0.12781 0.484725,0.19292 0.238745,0.0627 0.472667,0.0627 0.313504,0 0.482314,-0.10611 0.168809,-0.10852 0.168809,-0.30385 0,-0.18087 -0.12299,-0.27733 -0.120578,-0.0965 -0.532956,-0.18569 l -0.15434,-0.0362 q -0.412378,-0.0868 -0.595658,-0.26527 -0.183279,-0.18087 -0.183279,-0.49437 0,-0.38103 0.270096,-0.58842 0.270095,-0.2074 0.766878,-0.2074 0.24598,0 0.463021,0.0362 0.217041,0.0362 0.40032,0.10852 z" />
      <path
         id="path8362"
         style="font-size:4.93889px;stroke-width:0.264583"
         d="m 40.927786,110.43486 h 0.443729 v 2.70096 h -0.443729 z m 0,-1.05144 h 0.443729 v 0.56189 h -0.443729 z" />
      <path
         id="path8364"
         style="font-size:4.93889px;stroke-width:0.264583"
         d="m 44.480025,110.43486 v 2.70096 h -0.44614 v -2.3561 h -1.217842 v 2.3561 h -0.44614 v -2.3561 h -0.424436 v -0.34486 h 0.424436 v -0.1881 q 0,-0.44132 0.207395,-0.65112 0.209806,-0.21222 0.641477,-0.21222 h 0.44614 v 0.36897 h -0.424436 q -0.238745,0 -0.332796,0.0965 -0.09164,0.0965 -0.09164,0.34727 v 0.23874 z m -0.44614,-1.04662 h 0.44614 v 0.5619 h -0.44614 z" />
      <path
         id="path8366"
         style="font-size:4.93889px;stroke-width:0.264583"
         d="m 47.357024,110.53856 v 0.41479 q -0.188102,-0.1037 -0.378616,-0.15434 -0.188102,-0.053 -0.381028,-0.053 -0.43167,0 -0.670415,0.27491 -0.238745,0.27251 -0.238745,0.76688 0,0.49437 0.238745,0.76929 0.238745,0.27251 0.670415,0.27251 0.192926,0 0.381028,-0.0506 0.190514,-0.0531 0.378616,-0.15676 v 0.40997 q -0.185691,0.0868 -0.385851,0.13023 -0.197748,0.0434 -0.422024,0.0434 -0.610126,0 -0.96945,-0.38344 -0.359324,-0.38343 -0.359324,-1.03456 0,-0.66077 0.361736,-1.03938 0.364146,-0.37862 0.995977,-0.37862 0.204983,0 0.40032,0.0434 0.195337,0.041 0.378616,0.1254 z" />
      <path
         id="path8368"
         style="font-size:4.93889px;stroke-width:0.264583"
         d="m 49.361038,111.77811 q -0.53778,0 -0.745174,0.12299 -0.207395,0.12299 -0.207395,0.41961 0,0.23633 0.15434,0.3762 0.156752,0.13746 0.424436,0.13746 0.36897,0 0.590834,-0.26045 0.224276,-0.26286 0.224276,-0.69694 v -0.0989 z m 0.885045,-0.18328 v 1.54099 h -0.443728 v -0.40997 q -0.151929,0.24598 -0.378616,0.36415 -0.226688,0.11575 -0.554661,0.11575 -0.41479,0 -0.660769,-0.23151 -0.243569,-0.23392 -0.243569,-0.62459 0,-0.45579 0.303858,-0.6873 0.306269,-0.23151 0.911572,-0.23151 h 0.622185 v -0.0434 q 0,-0.30627 -0.202572,-0.47267 -0.20016,-0.1688 -0.564307,-0.1688 -0.23151,0 -0.450963,0.0555 -0.219453,0.0555 -0.422024,0.1664 v -0.40997 q 0.243568,-0.094 0.472667,-0.13987 0.229099,-0.0482 0.44614,-0.0482 0.586011,0 0.875399,0.30386 0.289388,0.30386 0.289388,0.92122 z" />
      <path
         id="path8370"
         style="font-size:4.93889px;stroke-width:0.264583"
         d="m 51.601384,109.66798 v 0.76688 h 0.913984 v 0.34486 h -0.913984 v 1.46623 q 0,0.33038 0.08923,0.42444 0.09164,0.094 0.36897,0.094 h 0.455786 v 0.37138 h -0.455786 q -0.513664,0 -0.709001,-0.19052 -0.195337,-0.19292 -0.195337,-0.69935 v -1.46623 h -0.325562 v -0.34486 h 0.325562 v -0.76688 z" />
      <path
         id="path8372"
         style="font-size:4.93889px;stroke-width:0.264583"
         d="m 53.101379,110.43486 h 0.443728 v 2.70096 h -0.443728 z m 0,-1.05144 h 0.443728 v 0.56189 h -0.443728 z" />
      <path
         id="path8374"
         style="font-size:4.93889px;stroke-width:0.264583"
         d="m 55.517769,110.74596 q -0.356912,0 -0.564307,0.27974 -0.207394,0.27733 -0.207394,0.76205 0,0.48473 0.204983,0.76447 0.207395,0.27733 0.566718,0.27733 0.3545,0 0.561895,-0.27974 0.207395,-0.27974 0.207395,-0.76206 0,-0.4799 -0.207395,-0.75964 -0.207395,-0.28215 -0.561895,-0.28215 z m 0,-0.37621 q 0.578776,0 0.909161,0.37621 0.330385,0.3762 0.330385,1.04179 0,0.66318 -0.330385,1.0418 -0.330385,0.3762 -0.909161,0.3762 -0.581188,0 -0.911572,-0.3762 -0.327974,-0.37862 -0.327974,-1.0418 0,-0.66559 0.327974,-1.04179 0.330384,-0.37621 0.911572,-0.37621 z" />
      <path
         id="path8376"
         style="font-size:4.93889px;stroke-width:0.264583"
         d="m 59.735599,111.5056 v 1.63022 h -0.443728 v -1.61575 q 0,-0.38344 -0.149517,-0.57395 -0.149517,-0.19052 -0.448552,-0.19052 -0.359323,0 -0.566718,0.2291 -0.207395,0.2291 -0.207395,0.6246 v 1.52652 h -0.44614 v -2.70096 h 0.44614 v 0.41962 q 0.159164,-0.24357 0.373793,-0.36415 0.217041,-0.12058 0.499195,-0.12058 0.465432,0 0.704177,0.28939 0.238745,0.28698 0.238745,0.84646 z" />
      <path
         id="path8378"
         style="font-size:4.93889px;stroke-width:0.264583"
         d="m 63.244429,110.74596 q -0.356912,0 -0.564307,0.27974 -0.207395,0.27733 -0.207395,0.76205 0,0.48473 0.204984,0.76447 0.207394,0.27733 0.566718,0.27733 0.3545,0 0.561895,-0.27974 0.207395,-0.27974 0.207395,-0.76206 0,-0.4799 -0.207395,-0.75964 -0.207395,-0.28215 -0.561895,-0.28215 z m 0,-0.37621 q 0.578776,0 0.909161,0.37621 0.330384,0.3762 0.330384,1.04179 0,0.66318 -0.330384,1.0418 -0.330385,0.3762 -0.909161,0.3762 -0.581188,0 -0.911573,-0.3762 -0.327973,-0.37862 -0.327973,-1.0418 0,-0.66559 0.327973,-1.04179 0.330385,-0.37621 0.911573,-0.37621 z" />
      <path
         id="path8380"
         style="font-size:4.93889px;stroke-width:0.264583"
         d="m 65.171272,112.06991 v -1.63505 h 0.443729 v 1.61816 q 0,0.38344 0.149517,0.57637 0.149517,0.19051 0.448551,0.19051 0.359324,0 0.566719,-0.2291 0.209806,-0.22909 0.209806,-0.62459 v -1.53135 h 0.443728 v 2.70096 h -0.443728 v -0.41479 q -0.161575,0.24598 -0.376205,0.36656 -0.212218,0.11816 -0.494371,0.11816 -0.465432,0 -0.706589,-0.28938 -0.241157,-0.28939 -0.241157,-0.84646 z m 1.116556,-1.70016 z" />
      <path
         id="path8382"
         style="font-size:4.93889px;stroke-width:0.264583"
         d="m 68.791037,109.66798 v 0.76688 h 0.913984 v 0.34486 h -0.913984 v 1.46623 q 0,0.33038 0.08923,0.42444 0.09164,0.094 0.36897,0.094 h 0.455786 v 0.37138 h -0.455786 q -0.513664,0 -0.709001,-0.19052 -0.195337,-0.19292 -0.195337,-0.69935 v -1.46623 h -0.325561 v -0.34486 h 0.325561 v -0.76688 z" />
      <path
         id="path8384"
         style="font-size:4.93889px;stroke-width:0.264583"
         d="m 70.720291,112.73068 v 1.43247 h -0.44614 v -3.72829 h 0.44614 v 0.40997 q 0.139871,-0.24116 0.352089,-0.35691 0.214629,-0.11817 0.511252,-0.11817 0.49196,0 0.798229,0.39067 0.308681,0.39068 0.308681,1.02733 0,0.63666 -0.308681,1.02733 -0.306269,0.39067 -0.798229,0.39067 -0.296623,0 -0.511252,-0.11575 -0.212218,-0.11817 -0.352089,-0.35932 z m 1.509641,-0.94293 q 0,-0.48955 -0.202571,-0.76688 -0.20016,-0.27974 -0.552249,-0.27974 -0.352089,0 -0.554661,0.27974 -0.20016,0.27733 -0.20016,0.76688 0,0.48955 0.20016,0.76929 0.202572,0.27733 0.554661,0.27733 0.352089,0 0.552249,-0.27733 0.202571,-0.27974 0.202571,-0.76929 z" />
      <path
         id="path8386"
         style="font-size:4.93889px;stroke-width:0.264583"
         d="m 73.380249,112.06991 v -1.63505 h 0.443728 v 1.61816 q 0,0.38344 0.149517,0.57637 0.149518,0.19051 0.448552,0.19051 0.359324,0 0.566718,-0.2291 0.209807,-0.22909 0.209807,-0.62459 v -1.53135 h 0.443728 v 2.70096 h -0.443728 v -0.41479 q -0.161575,0.24598 -0.376205,0.36656 -0.212218,0.11816 -0.494371,0.11816 -0.465433,0 -0.706589,-0.28938 -0.241157,-0.28939 -0.241157,-0.84646 z m 1.116556,-1.70016 z" />
      <path
         id="path8388"
         style="font-size:4.93889px;stroke-width:0.264583"
         d="m 77.00001,109.66798 v 0.76688 h 0.913984 v 0.34486 H 77.00001 v 1.46623 q 0,0.33038 0.08923,0.42444 0.09164,0.094 0.36897,0.094 h 0.455786 v 0.37138 H 77.45821 q -0.513664,0 -0.709001,-0.19052 -0.195337,-0.19292 -0.195337,-0.69935 v -1.46623 h -0.325561 v -0.34486 h 0.325561 v -0.76688 z" />
      <path
         id="path8390"
         style="font-size:4.93889px;stroke-width:0.264583"
         d="m 80.221864,110.51444 v 0.41962 q -0.188102,-0.0965 -0.390674,-0.1447 -0.202571,-0.0482 -0.419612,-0.0482 -0.330385,0 -0.496783,0.10129 -0.163987,0.10128 -0.163987,0.30386 0,0.15434 0.118167,0.24356 0.118167,0.0868 0.475079,0.1664 l 0.151928,0.0338 q 0.472668,0.10129 0.670416,0.28698 0.20016,0.18328 0.20016,0.51366 0,0.37621 -0.299034,0.59566 -0.296623,0.21945 -0.817521,0.21945 -0.217042,0 -0.453375,-0.0434 -0.233922,-0.041 -0.494371,-0.12541 v -0.45819 q 0.245979,0.12781 0.484725,0.19292 0.238745,0.0627 0.472667,0.0627 0.313504,0 0.482313,-0.10611 0.16881,-0.10852 0.16881,-0.30385 0,-0.18087 -0.12299,-0.27733 -0.120578,-0.0965 -0.532956,-0.18569 l -0.154341,-0.0362 q -0.412378,-0.0868 -0.595657,-0.26527 -0.183279,-0.18087 -0.183279,-0.49437 0,-0.38103 0.270096,-0.58842 0.270095,-0.2074 0.766878,-0.2074 0.24598,0 0.463021,0.0362 0.217041,0.0362 0.40032,0.10852 z" />
    </g>
    <g
       style="font-size:4.93889px;line-height:1.25;font-family:sans-serif;-inkscape-font-specification:sans-serif;stroke-width:0.264583"
       id="text1089"
       aria-label="Steering output">
      <path
         id="path8393"
         style="font-size:4.93889px;stroke-width:0.264583"
         d="m 112.98528,109.65352 v 0.47507 q -0.27733,-0.13263 -0.52331,-0.19774 -0.24598,-0.0651 -0.47508,-0.0651 -0.39791,0 -0.61495,0.15434 -0.21463,0.15434 -0.21463,0.43891 0,0.23874 0.14228,0.36173 0.1447,0.12058 0.54502,0.19534 l 0.29421,0.0603 q 0.54501,0.1037 0.80305,0.36656 0.26045,0.26045 0.26045,0.69935 0,0.52331 -0.35209,0.79341 -0.34968,0.27009 -1.02733,0.27009 -0.25562,0 -0.54501,-0.0579 -0.28698,-0.0579 -0.59566,-0.17122 v -0.50161 q 0.29663,0.1664 0.58119,0.2508 0.28456,0.0844 0.55948,0.0844 0.4172,0 0.64389,-0.16399 0.22669,-0.16399 0.22669,-0.46784 0,-0.26528 -0.16399,-0.41479 -0.16157,-0.14952 -0.53295,-0.22428 l -0.29663,-0.0579 q -0.54501,-0.10852 -0.78858,-0.34003 -0.24357,-0.23151 -0.24357,-0.64389 0,-0.47749 0.33521,-0.75241 0.33762,-0.27491 0.92845,-0.27491 0.25322,0 0.51608,0.0458 0.26286,0.0458 0.53778,0.13746 z" />
      <path
         id="path8395"
         style="font-size:4.93889px;stroke-width:0.264583"
         d="m 114.38158,109.66798 v 0.76688 h 0.91398 v 0.34486 h -0.91398 v 1.46623 q 0,0.33038 0.0892,0.42444 0.0916,0.094 0.36897,0.094 h 0.45579 v 0.37138 h -0.45579 q -0.51366,0 -0.709,-0.19052 -0.19533,-0.19292 -0.19533,-0.69935 v -1.46623 h -0.32556 v -0.34486 h 0.32556 v -0.76688 z" />
      <path
         id="path8397"
         style="font-size:4.93889px;stroke-width:0.264583"
         d="m 118.19185,111.67441 v 0.21704 h -2.04018 q 0.0289,0.4582 0.27492,0.69935 0.24839,0.23875 0.6897,0.23875 0.25563,0 0.49438,-0.0627 0.24115,-0.0627 0.47749,-0.1881 v 0.41961 q -0.23875,0.10128 -0.48955,0.15434 -0.25081,0.053 -0.50884,0.053 -0.6463,0 -1.02492,-0.3762 -0.3762,-0.37621 -0.3762,-1.01768 0,-0.66318 0.35691,-1.05145 0.35932,-0.39067 0.96704,-0.39067 0.54501,0 0.86093,0.35209 0.31832,0.34968 0.31832,0.95257 z m -0.44373,-0.13023 q -0.005,-0.36414 -0.20498,-0.58118 -0.19775,-0.21704 -0.52572,-0.21704 -0.37138,0 -0.59566,0.2098 -0.22186,0.20981 -0.25562,0.59084 z" />
      <path
         id="path8399"
         style="font-size:4.93889px;stroke-width:0.264583"
         d="m 121.23043,111.67441 v 0.21704 h -2.04019 q 0.0289,0.4582 0.27492,0.69935 0.24839,0.23875 0.68971,0.23875 0.25562,0 0.49437,-0.0627 0.24116,-0.0627 0.47749,-0.1881 v 0.41961 q -0.23874,0.10128 -0.48955,0.15434 -0.2508,0.053 -0.50884,0.053 -0.6463,0 -1.02491,-0.3762 -0.37621,-0.37621 -0.37621,-1.01768 0,-0.66318 0.35691,-1.05145 0.35933,-0.39067 0.96704,-0.39067 0.54502,0 0.86093,0.35209 0.31833,0.34968 0.31833,0.95257 z m -0.44373,-0.13023 q -0.005,-0.36414 -0.20498,-0.58118 -0.19775,-0.21704 -0.52573,-0.21704 -0.37138,0 -0.59565,0.2098 -0.22187,0.20981 -0.25563,0.59084 z" />
      <path
         id="path8401"
         style="font-size:4.93889px;stroke-width:0.264583"
         d="m 123.52383,110.84965 q -0.0748,-0.0434 -0.16399,-0.0627 -0.0868,-0.0217 -0.19292,-0.0217 -0.37621,0 -0.57878,0.24598 -0.20016,0.24357 -0.20016,0.70176 v 1.42283 h -0.44614 v -2.70096 h 0.44614 v 0.41962 q 0.13987,-0.24598 0.36415,-0.36415 0.22427,-0.12058 0.54501,-0.12058 0.0458,0 0.10129,0.007 0.0555,0.005 0.12299,0.0169 z" />
      <path
         id="path8403"
         style="font-size:4.93889px;stroke-width:0.264583"
         d="m 123.99408,110.43486 h 0.44373 v 2.70096 h -0.44373 z m 0,-1.05144 h 0.44373 v 0.56189 h -0.44373 z" />
      <path
         id="path8405"
         style="font-size:4.93889px;stroke-width:0.264583"
         d="m 127.60902,111.5056 v 1.63022 h -0.44372 v -1.61575 q 0,-0.38344 -0.14952,-0.57395 -0.14952,-0.19052 -0.44855,-0.19052 -0.35933,0 -0.56672,0.2291 -0.2074,0.2291 -0.2074,0.6246 v 1.52652 h -0.44614 v -2.70096 h 0.44614 v 0.41962 q 0.15917,-0.24357 0.3738,-0.36415 0.21704,-0.12058 0.49919,-0.12058 0.46543,0 0.70418,0.28939 0.23874,0.28698 0.23874,0.84646 z" />
      <path
         id="path8407"
         style="font-size:4.93889px;stroke-width:0.264583"
         d="m 130.27622,111.75399 q 0,-0.48231 -0.20016,-0.74759 -0.19775,-0.26527 -0.55707,-0.26527 -0.35692,0 -0.55708,0.26527 -0.19774,0.26528 -0.19774,0.74759 0,0.4799 0.19774,0.74517 0.20016,0.26528 0.55708,0.26528 0.35932,0 0.55707,-0.26528 0.20016,-0.26527 0.20016,-0.74517 z m 0.44373,1.04662 q 0,0.68971 -0.30627,1.02492 -0.30627,0.33762 -0.9381,0.33762 -0.23392,0 -0.44132,-0.0362 -0.20739,-0.0338 -0.40273,-0.10611 v -0.43167 q 0.19534,0.10611 0.38585,0.15676 0.19051,0.0506 0.38826,0.0506 0.4365,0 0.65354,-0.2291 0.21704,-0.22669 0.21704,-0.6873 v -0.21945 q -0.13746,0.23874 -0.35209,0.35691 -0.21463,0.11817 -0.51366,0.11817 -0.49679,0 -0.80064,-0.37862 -0.30386,-0.37861 -0.30386,-1.00321 0,-0.62701 0.30386,-1.00562 0.30385,-0.37862 0.80064,-0.37862 0.29903,0 0.51366,0.11817 0.21463,0.11816 0.35209,0.35691 v -0.40997 h 0.44373 z" />
      <path
         id="path8409"
         style="font-size:4.93889px;stroke-width:0.264583"
         d="m 134.25289,110.74596 q -0.35691,0 -0.56431,0.27974 -0.20739,0.27733 -0.20739,0.76205 0,0.48473 0.20498,0.76447 0.2074,0.27733 0.56672,0.27733 0.3545,0 0.5619,-0.27974 0.20739,-0.27974 0.20739,-0.76206 0,-0.4799 -0.20739,-0.75964 -0.2074,-0.28215 -0.5619,-0.28215 z m 0,-0.37621 q 0.57878,0 0.90916,0.37621 0.33039,0.3762 0.33039,1.04179 0,0.66318 -0.33039,1.0418 -0.33038,0.3762 -0.90916,0.3762 -0.58119,0 -0.91157,-0.3762 -0.32797,-0.37862 -0.32797,-1.0418 0,-0.66559 0.32797,-1.04179 0.33038,-0.37621 0.91157,-0.37621 z" />
      <path
         id="path8411"
         style="font-size:4.93889px;stroke-width:0.264583"
         d="m 136.17974,112.06991 v -1.63505 h 0.44372 v 1.61816 q 0,0.38344 0.14952,0.57637 0.14952,0.19051 0.44855,0.19051 0.35933,0 0.56672,-0.2291 0.20981,-0.22909 0.20981,-0.62459 v -1.53135 h 0.44373 v 2.70096 h -0.44373 v -0.41479 q -0.16158,0.24598 -0.37621,0.36656 -0.21222,0.11816 -0.49437,0.11816 -0.46543,0 -0.70659,-0.28938 -0.24115,-0.28939 -0.24115,-0.84646 z m 1.11655,-1.70016 z" />
      <path
         id="path8413"
         style="font-size:4.93889px;stroke-width:0.264583"
         d="m 139.7995,109.66798 v 0.76688 h 0.91398 v 0.34486 h -0.91398 v 1.46623 q 0,0.33038 0.0892,0.42444 0.0916,0.094 0.36897,0.094 h 0.45579 v 0.37138 h -0.45579 q -0.51366,0 -0.709,-0.19052 -0.19533,-0.19292 -0.19533,-0.69935 v -1.46623 h -0.32557 v -0.34486 h 0.32557 v -0.76688 z" />
      <path
         id="path8415"
         style="font-size:4.93889px;stroke-width:0.264583"
         d="m 141.72875,112.73068 v 1.43247 h -0.44614 v -3.72829 h 0.44614 v 0.40997 q 0.13987,-0.24116 0.35209,-0.35691 0.21463,-0.11817 0.51125,-0.11817 0.49196,0 0.79823,0.39067 0.30868,0.39068 0.30868,1.02733 0,0.63666 -0.30868,1.02733 -0.30627,0.39067 -0.79823,0.39067 -0.29662,0 -0.51125,-0.11575 -0.21222,-0.11817 -0.35209,-0.35932 z m 1.50964,-0.94293 q 0,-0.48955 -0.20257,-0.76688 -0.20016,-0.27974 -0.55225,-0.27974 -0.35209,0 -0.55466,0.27974 -0.20016,0.27733 -0.20016,0.76688 0,0.48955 0.20016,0.76929 0.20257,0.27733 0.55466,0.27733 0.35209,0 0.55225,-0.27733 0.20257,-0.27974 0.20257,-0.76929 z" />
      <path
         id="path8417"
         style="font-size:4.93889px;stroke-width:0.264583"
         d="m 144.38871,112.06991 v -1.63505 h 0.44373 v 1.61816 q 0,0.38344 0.14952,0.57637 0.14951,0.19051 0.44855,0.19051 0.35932,0 0.56672,-0.2291 0.2098,-0.22909 0.2098,-0.62459 v -1.53135 h 0.44373 v 2.70096 h -0.44373 v -0.41479 q -0.16157,0.24598 -0.3762,0.36656 -0.21222,0.11816 -0.49437,0.11816 -0.46544,0 -0.70659,-0.28938 -0.24116,-0.28939 -0.24116,-0.84646 z m 1.11656,-1.70016 z" />
      <path
         id="path8419"
         style="font-size:4.93889px;stroke-width:0.264583"
         d="m 148.00847,109.66798 v 0.76688 h 0.91399 v 0.34486 h -0.91399 v 1.46623 q 0,0.33038 0.0892,0.42444 0.0916,0.094 0.36897,0.094 h 0.45579 v 0.37138 h -0.45579 q -0.51366,0 -0.709,-0.19052 -0.19534,-0.19292 -0.19534,-0.69935 v -1.46623 h -0.32556 v -0.34486 h 0.32556 v -0.76688 z" />
    </g>
    <path
       style="fill:none;stroke:#000000;stroke-width:0.264583px;stroke-linecap:butt;stroke-linejoin:miter;stroke-opacity:1;marker-end:url(#marker6631)"
       d="m 54.051535,100.74523 v 7.12941"
       id="path5864" />
    <g
       id="g5912"
       transform="translate(31.473798,-65.003224)">
      <path
         d="m 82.319754,124.92082 h 23.603886 c 0.41816,0 0.7548,0.33664 0.7548,0.7548 v 9.32986 c 0,0.41815 -0.33664,0.75479 -0.7548,0.75479 H 82.319754 c -0.418158,0 -0.754797,-0.33664 -0.754797,-0.75479 v -9.32986 c 0,-0.41816 0.336639,-0.7548 0.754797,-0.7548 z"
         style="opacity:0.707;fill:#fabe50;stroke:#000000;stroke-width:0.1961;stop-color:#000000"
         id="rect5906" />
      <g
         style="font-size:4.93889px;line-height:1.25;font-family:sans-serif;-inkscape-font-specification:sans-serif;stroke-width:0.205901"
         id="text5910"
         aria-label="Dense 1">
        <path
           id="path8423"
           style="font-size:4.93889px;stroke-width:0.205901"
           d="m 84.927596,128.90567 v 2.79983 h 0.588422 q 0.745175,0 1.090029,-0.33762 0.347265,-0.33762 0.347265,-1.06591 0,-0.72347 -0.347265,-1.05868 -0.344854,-0.33762 -1.090029,-0.33762 z m -0.487137,-0.40032 h 1.000801 q 1.04662,0 1.536168,0.43649 0.489548,0.43409 0.489548,1.36013 0,0.93086 -0.491959,1.36736 -0.49196,0.43649 -1.533757,0.43649 h -1.000801 z" />
        <path
           id="path8425"
           style="font-size:4.93889px;stroke-width:0.205901"
           d="m 90.532078,130.64441 v 0.21704 h -2.040186 q 0.02894,0.4582 0.274919,0.69936 0.248392,0.23874 0.689708,0.23874 0.255626,0 0.494372,-0.0627 0.241156,-0.0627 0.47749,-0.1881 v 0.41961 q -0.238745,0.10129 -0.489548,0.15434 -0.250803,0.0531 -0.508841,0.0531 -0.6463,0 -1.024916,-0.37621 -0.376205,-0.3762 -0.376205,-1.01768 0,-0.66318 0.356912,-1.05144 0.359324,-0.39068 0.967039,-0.39068 0.545014,0 0.860929,0.35209 0.318327,0.34968 0.318327,0.95257 z m -0.443728,-0.13022 q -0.0048,-0.36415 -0.204983,-0.58119 -0.197749,-0.21704 -0.525722,-0.21704 -0.371381,0 -0.595657,0.2098 -0.221864,0.20981 -0.255626,0.59084 z" />
        <path
           id="path8427"
           style="font-size:4.93889px;stroke-width:0.205901"
           d="m 93.505541,130.4756 v 1.63022 h -0.443729 v -1.61575 q 0,-0.38344 -0.149517,-0.57395 -0.149517,-0.19052 -0.448551,-0.19052 -0.359324,0 -0.566719,0.2291 -0.207394,0.2291 -0.207394,0.6246 v 1.52652 h -0.44614 v -2.70096 h 0.44614 v 0.41962 q 0.159163,-0.24357 0.373792,-0.36415 0.217042,-0.12058 0.499195,-0.12058 0.465432,0 0.704178,0.28939 0.238745,0.28698 0.238745,0.84646 z" />
        <path
           id="path8429"
           style="font-size:4.93889px;stroke-width:0.205901"
           d="m 96.117269,129.48445 v 0.41961 q -0.188102,-0.0965 -0.390674,-0.1447 -0.202572,-0.0482 -0.419613,-0.0482 -0.330384,0 -0.496782,0.10129 -0.163987,0.10128 -0.163987,0.30386 0,0.15434 0.118167,0.24356 0.118167,0.0868 0.475079,0.1664 l 0.151928,0.0338 q 0.472667,0.10128 0.670416,0.28697 0.20016,0.18328 0.20016,0.51367 0,0.3762 -0.299034,0.59565 -0.296623,0.21946 -0.817522,0.21946 -0.217041,0 -0.453374,-0.0434 -0.233922,-0.041 -0.494372,-0.1254 v -0.4582 q 0.24598,0.12781 0.484725,0.19292 0.238746,0.0627 0.472668,0.0627 0.313503,0 0.482313,-0.10611 0.16881,-0.10852 0.16881,-0.30385 0,-0.18087 -0.12299,-0.27733 -0.120578,-0.0965 -0.532956,-0.18569 l -0.154341,-0.0362 q -0.412378,-0.0868 -0.595657,-0.26527 -0.183279,-0.18087 -0.183279,-0.49437 0,-0.38103 0.270095,-0.58842 0.270096,-0.2074 0.766879,-0.2074 0.24598,0 0.463021,0.0362 0.217041,0.0362 0.40032,0.10852 z" />
        <path
           id="path8431"
           style="font-size:4.93889px;stroke-width:0.205901"
           d="m 99.281245,130.64441 v 0.21704 h -2.040186 q 0.02894,0.4582 0.274919,0.69936 0.248391,0.23874 0.689708,0.23874 0.255626,0 0.494372,-0.0627 0.241156,-0.0627 0.47749,-0.1881 v 0.41961 q -0.238745,0.10129 -0.489548,0.15434 -0.250803,0.0531 -0.508841,0.0531 -0.6463,0 -1.024916,-0.37621 -0.376205,-0.3762 -0.376205,-1.01768 0,-0.66318 0.356912,-1.05144 0.359324,-0.39068 0.967039,-0.39068 0.545014,0 0.860929,0.35209 0.318327,0.34968 0.318327,0.95257 z m -0.443728,-0.13022 q -0.0048,-0.36415 -0.204983,-0.58119 -0.197749,-0.21704 -0.525722,-0.21704 -0.371381,0 -0.595657,0.2098 -0.221864,0.20981 -0.255626,0.59084 z" />
        <path
           id="path8433"
           style="font-size:4.93889px;stroke-width:0.205901"
           d="m 101.72899,131.69585 h 0.79581 v -2.74677 l -0.86575,0.17363 v -0.44373 l 0.86093,-0.17363 h 0.48714 v 3.1905 h 0.79581 v 0.40997 h -2.07394 z" />
      </g>
    </g>
    <g
       id="g5920"
       transform="translate(33.00224,-82.197042)">
      <path
         d="M 80.791311,157.10873 H 104.3952 c 0.41816,0 0.7548,0.33664 0.7548,0.7548 v 9.32986 c 0,0.41816 -0.33664,0.75479 -0.7548,0.75479 H 80.791311 c -0.418157,0 -0.754797,-0.33663 -0.754797,-0.75479 v -9.32986 c 0,-0.41816 0.33664,-0.7548 0.754797,-0.7548 z"
         style="opacity:0.707;fill:#fabe50;stroke:#000000;stroke-width:0.1961;stop-color:#000000"
         id="rect5914" />
      <g
         style="font-size:4.93889px;line-height:1.25;font-family:sans-serif;-inkscape-font-specification:sans-serif;stroke-width:0.264583"
         id="text5918"
         aria-label="Dense 2">
        <path
           id="path8437"
           style="font-size:4.93889px;stroke-width:0.264583"
           d="m 84.204619,161.12613 v 2.79983 h 0.588423 q 0.745174,0 1.090028,-0.33762 0.347266,-0.33762 0.347266,-1.06591 0,-0.72347 -0.347266,-1.05868 -0.344854,-0.33762 -1.090028,-0.33762 z m -0.487136,-0.40032 h 1.0008 q 1.04662,0 1.536168,0.43649 0.489549,0.43408 0.489549,1.36013 0,0.93086 -0.49196,1.36735 -0.49196,0.4365 -1.533757,0.4365 h -1.0008 z" />
        <path
           id="path8439"
           style="font-size:4.93889px;stroke-width:0.264583"
           d="m 89.809102,162.86487 v 0.21704 h -2.040186 q 0.02894,0.4582 0.274918,0.69935 0.248392,0.23875 0.689709,0.23875 0.255626,0 0.494371,-0.0627 0.241157,-0.0627 0.47749,-0.1881 v 0.41961 q -0.238745,0.10129 -0.489548,0.15434 -0.250803,0.053 -0.508841,0.053 -0.6463,0 -1.024916,-0.3762 -0.376204,-0.3762 -0.376204,-1.01768 0,-0.66318 0.356912,-1.05145 0.359323,-0.39067 0.967038,-0.39067 0.545014,0 0.86093,0.35209 0.318327,0.34968 0.318327,0.95257 z m -0.443729,-0.13023 q -0.0048,-0.36414 -0.204983,-0.58118 -0.197748,-0.21704 -0.525722,-0.21704 -0.371381,0 -0.595657,0.2098 -0.221864,0.20981 -0.255626,0.59084 z" />
        <path
           id="path8441"
           style="font-size:4.93889px;stroke-width:0.264583"
           d="m 92.782564,162.69606 v 1.63022 h -0.443728 v -1.61575 q 0,-0.38344 -0.149517,-0.57395 -0.149518,-0.19052 -0.448552,-0.19052 -0.359324,0 -0.566718,0.2291 -0.207395,0.2291 -0.207395,0.6246 v 1.52652 h -0.44614 v -2.70096 h 0.44614 v 0.41962 q 0.159163,-0.24357 0.373793,-0.36415 0.217041,-0.12058 0.499194,-0.12058 0.465433,0 0.704178,0.28939 0.238745,0.28698 0.238745,0.84646 z" />
        <path
           id="path8443"
           style="font-size:4.93889px;stroke-width:0.264583"
           d="m 95.394292,161.7049 v 0.41962 q -0.188102,-0.0965 -0.390674,-0.1447 -0.202571,-0.0482 -0.419612,-0.0482 -0.330385,0 -0.496783,0.10129 -0.163987,0.10128 -0.163987,0.30386 0,0.15434 0.118167,0.24356 0.118167,0.0868 0.475079,0.1664 l 0.151929,0.0338 q 0.472667,0.10129 0.670415,0.28698 0.20016,0.18328 0.20016,0.51366 0,0.37621 -0.299034,0.59566 -0.296623,0.21945 -0.817521,0.21945 -0.217041,0 -0.453375,-0.0434 -0.233922,-0.041 -0.494371,-0.12541 v -0.45819 q 0.24598,0.12781 0.484725,0.19292 0.238745,0.0627 0.472667,0.0627 0.313504,0 0.482313,-0.10611 0.16881,-0.10852 0.16881,-0.30385 0,-0.18087 -0.12299,-0.27733 -0.120578,-0.0965 -0.532956,-0.18569 l -0.15434,-0.0362 q -0.412379,-0.0868 -0.595658,-0.26527 -0.183279,-0.18087 -0.183279,-0.49437 0,-0.38103 0.270096,-0.58842 0.270095,-0.2074 0.766878,-0.2074 0.24598,0 0.463021,0.0362 0.217041,0.0362 0.40032,0.10852 z" />
        <path
           id="path8445"
           style="font-size:4.93889px;stroke-width:0.264583"
           d="m 98.558269,162.86487 v 0.21704 h -2.040186 q 0.02894,0.4582 0.274918,0.69935 0.248392,0.23875 0.689709,0.23875 0.255626,0 0.494371,-0.0627 0.241157,-0.0627 0.47749,-0.1881 v 0.41961 q -0.238745,0.10129 -0.489548,0.15434 -0.250803,0.053 -0.508841,0.053 -0.6463,0 -1.024916,-0.3762 -0.376204,-0.3762 -0.376204,-1.01768 0,-0.66318 0.356912,-1.05145 0.359323,-0.39067 0.967038,-0.39067 0.545014,0 0.86093,0.35209 0.318327,0.34968 0.318327,0.95257 z m -0.443729,-0.13023 q -0.0048,-0.36414 -0.204983,-0.58118 -0.197748,-0.21704 -0.525722,-0.21704 -0.371381,0 -0.595657,0.2098 -0.221864,0.20981 -0.255626,0.59084 z" />
        <path
           id="path8447"
           style="font-size:4.93889px;stroke-width:0.264583"
           d="m 101.34122,163.91631 h 1.70015 v 0.40997 h -2.28616 v -0.40997 q 0.27733,-0.28697 0.75482,-0.76929 0.4799,-0.48472 0.60289,-0.62459 0.23392,-0.26286 0.32556,-0.44373 0.094,-0.18328 0.094,-0.35933 0,-0.28697 -0.20257,-0.46784 -0.20016,-0.18087 -0.52331,-0.18087 -0.2291,0 -0.48473,0.0796 -0.25321,0.0796 -0.5426,0.24116 v -0.49196 q 0.29421,-0.11817 0.54984,-0.17845 0.25563,-0.0603 0.46784,-0.0603 0.55949,0 0.89228,0.27974 0.3328,0.27974 0.3328,0.74758 0,0.22187 -0.0844,0.42203 -0.082,0.19775 -0.30144,0.46784 -0.0603,0.0699 -0.38344,0.40515 -0.32315,0.33279 -0.91157,0.93327 z" />
      </g>
    </g>
    <g
       id="g5928"
       transform="translate(33.248149,-94.783086)">
      <path
         d="m 80.545401,184.68887 h 23.603889 c 0.41816,0 0.7548,0.33664 0.7548,0.7548 v 9.32986 c 0,0.41815 -0.33664,0.75479 -0.7548,0.75479 H 80.545401 c -0.418158,0 -0.754797,-0.33664 -0.754797,-0.75479 v -9.32986 c 0,-0.41816 0.336639,-0.7548 0.754797,-0.7548 z"
         style="opacity:0.707;fill:#fabe50;stroke:#000000;stroke-width:0.1961;stop-color:#000000"
         id="rect5922" />
      <g
         style="font-size:4.93889px;line-height:1.25;font-family:sans-serif;-inkscape-font-specification:sans-serif;stroke-width:0.217734"
         id="text5926"
         aria-label="Dense 3">
        <path
           id="path8451"
           style="font-size:4.93889px;stroke-width:0.217734"
           d="m 83.123099,188.70627 v 2.79983 h 0.588423 q 0.745174,0 1.090028,-0.33762 0.347266,-0.33762 0.347266,-1.06591 0,-0.72347 -0.347266,-1.05868 -0.344854,-0.33762 -1.090028,-0.33762 z m -0.487136,-0.40032 h 1.0008 q 1.04662,0 1.536168,0.43649 0.489549,0.43408 0.489549,1.36013 0,0.93086 -0.49196,1.36735 -0.49196,0.4365 -1.533757,0.4365 h -1.0008 z" />
        <path
           id="path8453"
           style="font-size:4.93889px;stroke-width:0.217734"
           d="m 88.727582,190.44501 v 0.21704 h -2.040186 q 0.02894,0.4582 0.274918,0.69935 0.248392,0.23875 0.689709,0.23875 0.255626,0 0.494371,-0.0627 0.241157,-0.0627 0.47749,-0.1881 v 0.41961 q -0.238745,0.10128 -0.489548,0.15434 -0.250803,0.053 -0.508841,0.053 -0.6463,0 -1.024916,-0.3762 -0.376204,-0.37621 -0.376204,-1.01768 0,-0.66318 0.356912,-1.05145 0.359323,-0.39067 0.967038,-0.39067 0.545014,0 0.86093,0.35209 0.318327,0.34968 0.318327,0.95257 z m -0.443729,-0.13023 q -0.0048,-0.36414 -0.204983,-0.58118 -0.197749,-0.21705 -0.525722,-0.21705 -0.371381,0 -0.595657,0.20981 -0.221864,0.20981 -0.255626,0.59083 z" />
        <path
           id="path8455"
           style="font-size:4.93889px;stroke-width:0.217734"
           d="m 91.701044,190.2762 v 1.63022 h -0.443728 v -1.61575 q 0,-0.38344 -0.149518,-0.57396 -0.149517,-0.19051 -0.448551,-0.19051 -0.359324,0 -0.566718,0.2291 -0.207395,0.2291 -0.207395,0.6246 v 1.52652 h -0.44614 v -2.70096 h 0.44614 v 0.41962 q 0.159163,-0.24357 0.373793,-0.36415 0.217041,-0.12058 0.499194,-0.12058 0.465433,0 0.704178,0.28939 0.238745,0.28697 0.238745,0.84646 z" />
        <path
           id="path8457"
           style="font-size:4.93889px;stroke-width:0.217734"
           d="m 94.312772,189.28504 v 0.41962 q -0.188102,-0.0965 -0.390674,-0.1447 -0.202571,-0.0482 -0.419612,-0.0482 -0.330385,0 -0.496783,0.10129 -0.163987,0.10128 -0.163987,0.30385 0,0.15435 0.118167,0.24357 0.118167,0.0868 0.475079,0.1664 l 0.151928,0.0338 q 0.472668,0.10129 0.670416,0.28698 0.20016,0.18328 0.20016,0.51366 0,0.37621 -0.299034,0.59566 -0.296623,0.21945 -0.817521,0.21945 -0.217041,0 -0.453375,-0.0434 -0.233922,-0.041 -0.494371,-0.12541 v -0.45819 q 0.24598,0.12781 0.484725,0.19292 0.238745,0.0627 0.472667,0.0627 0.313504,0 0.482313,-0.10611 0.16881,-0.10852 0.16881,-0.30385 0,-0.18087 -0.12299,-0.27733 -0.120578,-0.0965 -0.532956,-0.1857 l -0.154341,-0.0362 q -0.412378,-0.0868 -0.595657,-0.26527 -0.183279,-0.18087 -0.183279,-0.49437 0,-0.38103 0.270096,-0.58843 0.270095,-0.20739 0.766878,-0.20739 0.24598,0 0.463021,0.0362 0.217041,0.0362 0.40032,0.10852 z" />
        <path
           id="path8459"
           style="font-size:4.93889px;stroke-width:0.217734"
           d="m 97.476749,190.44501 v 0.21704 h -2.040186 q 0.02894,0.4582 0.274918,0.69935 0.248392,0.23875 0.689709,0.23875 0.255626,0 0.494371,-0.0627 0.241157,-0.0627 0.47749,-0.1881 v 0.41961 q -0.238745,0.10128 -0.489548,0.15434 -0.250803,0.053 -0.508841,0.053 -0.6463,0 -1.024916,-0.3762 -0.376204,-0.37621 -0.376204,-1.01768 0,-0.66318 0.356912,-1.05145 0.359323,-0.39067 0.967038,-0.39067 0.545014,0 0.86093,0.35209 0.318327,0.34968 0.318327,0.95257 z m -0.443729,-0.13023 q -0.0048,-0.36414 -0.204983,-0.58118 -0.197749,-0.21705 -0.525722,-0.21705 -0.371381,0 -0.595657,0.20981 -0.221864,0.20981 -0.255626,0.59083 z" />
        <path
           id="path8461"
           style="font-size:4.93889px;stroke-width:0.217734"
           d="m 101.31596,189.96511 q 0.34968,0.0747 0.54502,0.31109 0.19775,0.23633 0.19775,0.5836 0,0.53295 -0.36656,0.82475 -0.36656,0.2918 -1.0418,0.2918 -0.22669,0 -0.46784,-0.0458 -0.238749,-0.0434 -0.494375,-0.13263 v -0.47026 q 0.202572,0.11817 0.443725,0.17846 0.24116,0.0603 0.50402,0.0603 0.4582,0 0.69694,-0.18087 0.24116,-0.18087 0.24116,-0.52572 0,-0.31833 -0.22427,-0.49679 -0.22187,-0.18086 -0.61978,-0.18086 h -0.41961 v -0.40032 h 0.4389 q 0.35933,0 0.54984,-0.14229 0.19052,-0.14469 0.19052,-0.41479 0,-0.27733 -0.19775,-0.42443 -0.19534,-0.14952 -0.5619,-0.14952 -0.20016,0 -0.42926,0.0434 -0.2291,0.0434 -0.504014,0.13505 v -0.43408 q 0.277334,-0.0772 0.518484,-0.11576 0.24357,-0.0386 0.4582,-0.0386 0.55466,0 0.87781,0.25321 0.32315,0.2508 0.32315,0.68006 0,0.29904 -0.17122,0.50643 -0.17122,0.20498 -0.48714,0.28457 z" />
      </g>
    </g>
    <g
       id="g5938"
       transform="translate(69.759758,-50.447899)">
      <g
         id="g5936">
        <path
           d="m 44.033792,95.371399 h 23.60389 c 0.418158,0 0.754797,0.336639 0.754797,0.754797 v 9.329854 c 0,0.41816 -0.336639,0.7548 -0.754797,0.7548 h -23.60389 c -0.418157,0 -0.754796,-0.33664 -0.754796,-0.7548 v -9.329854 c 0,-0.418158 0.336639,-0.754797 0.754796,-0.754797 z"
           style="opacity:0.707;fill:#fabe50;stroke:#000000;stroke-width:0.1961;stop-color:#000000"
           id="rect5930" />
        <g
           style="font-size:4.93889px;line-height:1.25;font-family:sans-serif;-inkscape-font-specification:sans-serif;stroke-width:0.198741"
           id="text5934"
           aria-label="LSTM 2">
          <path
             id="path8465"
             style="font-size:4.93889px;stroke-width:0.198741"
             d="m 47.365108,98.988481 h 0.487136 v 3.190499 h 1.75321 v 0.40997 h -2.240346 z" />
          <path
             id="path8467"
             style="font-size:4.93889px;stroke-width:0.198741"
             d="m 52.272647,99.106648 v 0.475079 q -0.27733,-0.132637 -0.52331,-0.197749 -0.24598,-0.06511 -0.475079,-0.06511 -0.397908,0 -0.614949,0.15434 -0.21463,0.15434 -0.21463,0.438905 0,0.238747 0.142283,0.361737 0.144694,0.12057 0.545014,0.19533 l 0.294211,0.0603 q 0.545014,0.1037 0.803052,0.36656 0.260449,0.26045 0.260449,0.69936 0,0.52331 -0.352089,0.7934 -0.349677,0.2701 -1.027327,0.2701 -0.255626,0 -0.545015,-0.0579 -0.286976,-0.0579 -0.595657,-0.17122 v -0.50161 q 0.296623,0.1664 0.581188,0.2508 0.284565,0.0844 0.559484,0.0844 0.417201,0 0.643888,-0.16399 0.226687,-0.16398 0.226687,-0.46784 0,-0.26527 -0.163986,-0.41479 -0.161575,-0.14952 -0.532956,-0.22428 l -0.296623,-0.0579 q -0.545015,-0.10852 -0.788583,-0.34004 -0.243568,-0.23151 -0.243568,-0.643882 0,-0.47749 0.335208,-0.752409 0.337619,-0.274918 0.928453,-0.274918 0.253215,0 0.516076,0.04582 0.26286,0.04582 0.537779,0.13746 z" />
          <path
             id="path8469"
             style="font-size:4.93889px;stroke-width:0.198741"
             d="m 52.750138,98.988481 h 3.045809 v 0.409966 h -1.278131 v 3.190503 h -0.489548 v -3.190503 h -1.27813 z" />
          <path
             id="path8471"
             style="font-size:4.93889px;stroke-width:0.198741"
             d="m 56.268615,98.988481 h 0.725882 l 0.918807,2.450149 0.92363,-2.450149 h 0.725882 v 3.600469 h -0.475079 v -3.161564 l -0.928453,2.469444 h -0.489549 l -0.928453,-2.469444 v 3.161564 h -0.472667 z" />
          <path
             id="path8473"
             style="font-size:4.93889px;stroke-width:0.198741"
             d="m 62.567629,102.17898 h 1.700155 v 0.40997 h -2.286166 v -0.40997 q 0.27733,-0.28697 0.75482,-0.76929 0.479902,-0.48472 0.602892,-0.62459 0.233922,-0.26286 0.325562,-0.44373 0.09405,-0.18328 0.09405,-0.359323 0,-0.286977 -0.202572,-0.467844 -0.20016,-0.180868 -0.52331,-0.180868 -0.229099,0 -0.484725,0.07958 -0.253215,0.07958 -0.542603,0.241157 v -0.49196 q 0.294212,-0.118167 0.549838,-0.178456 0.255626,-0.06029 0.467844,-0.06029 0.559483,0 0.89228,0.279742 0.332796,0.279741 0.332796,0.747585 0,0.221867 -0.08441,0.422027 -0.08199,0.19775 -0.301446,0.46784 -0.06029,0.0699 -0.383439,0.40515 -0.32315,0.33279 -0.911572,0.93327 z" />
        </g>
      </g>
    </g>
    <path
       style="fill:none;fill-rule:evenodd;stroke:#000000;stroke-width:0.265;stroke-linecap:butt;stroke-linejoin:miter;stroke-miterlimit:4;stroke-dasharray:none;stroke-opacity:1;marker-end:url(#marker6755)"
       d="m 125.5955,55.762951 v 4.154647"
       id="path5940" />
    <path
       style="fill:none;fill-rule:evenodd;stroke:#000000;stroke-width:0.265;stroke-linecap:butt;stroke-linejoin:miter;stroke-miterlimit:4;stroke-dasharray:none;stroke-opacity:1;marker-end:url(#marker6745)"
       d="m 125.5955,70.757049 v 4.154643"
       id="path5942" />
    <path
       style="fill:none;fill-rule:evenodd;stroke:#000000;stroke-width:0.265;stroke-linecap:butt;stroke-linejoin:miter;stroke-miterlimit:4;stroke-dasharray:none;stroke-opacity:1;marker-end:url(#marker6735)"
       d="m 125.5955,85.751143 v 4.154644"
       id="path5944" />
    <path
       style="fill:none;fill-rule:evenodd;stroke:#000000;stroke-width:0.265;stroke-linecap:butt;stroke-linejoin:miter;stroke-miterlimit:4;stroke-dasharray:none;stroke-opacity:1;marker-end:url(#marker6553)"
       d="m 100.86022,39.676569 12.49339,5.387559"
       id="path5946" />
    <path
       style="fill:none;stroke:#000000;stroke-width:0.264583px;stroke-linecap:butt;stroke-linejoin:miter;stroke-opacity:1;marker-end:url(#marker6641)"
       d="m 125.59549,100.74523 v 8.26248"
       id="path6627" />
    <g
       style="font-size:7.05556px;line-height:1.25;font-family:sans-serif;-inkscape-font-specification:sans-serif;stroke-width:0.264583"
       id="text171"
       aria-label="Conv layers">
      <path
         id="path313"
         style="font-size:4.58611px;stroke-width:0.264583"
         d="m 78.670189,16.631163 v 0.476973 q -0.228409,-0.212734 -0.488169,-0.317982 -0.257521,-0.105248 -0.548632,-0.105248 -0.573264,0 -0.87781,0.351572 -0.304546,0.349333 -0.304546,1.012169 0,0.660597 0.304546,1.012169 0.304546,0.349333 0.87781,0.349333 0.291111,0 0.548632,-0.105248 0.25976,-0.105248 0.488169,-0.317982 v 0.472494 q -0.237367,0.161231 -0.503845,0.241846 -0.264238,0.08061 -0.559828,0.08061 -0.759126,0 -1.195792,-0.463537 -0.436666,-0.465777 -0.436666,-1.26969 0,-0.806152 0.436666,-1.26969 0.436666,-0.465776 1.195792,-0.465776 0.300068,0 0.564307,0.08061 0.266478,0.07838 0.499366,0.237367 z" />
      <path
         id="path315"
         style="font-size:4.58611px;stroke-width:0.264583"
         d="m 80.32728,17.497776 q -0.331418,0 -0.523999,0.259761 -0.192581,0.25752 -0.192581,0.707622 0,0.450102 0.190342,0.709862 0.192581,0.257521 0.526238,0.257521 0.329179,0 0.52176,-0.259761 0.19258,-0.25976 0.19258,-0.707622 0,-0.445623 -0.19258,-0.705383 -0.192581,-0.262 -0.52176,-0.262 z m 0,-0.349332 q 0.537435,0 0.84422,0.349332 0.306786,0.349333 0.306786,0.967383 0,0.615811 -0.306786,0.967383 -0.306785,0.349332 -0.84422,0.349332 -0.539674,0 -0.84646,-0.349332 -0.304546,-0.351572 -0.304546,-0.967383 0,-0.61805 0.304546,-0.967383 0.306786,-0.349332 0.84646,-0.349332 z" />
      <path
         id="path317"
         style="font-size:4.58611px;stroke-width:0.264583"
         d="m 84.243836,18.20316 v 1.513774 h -0.412034 v -1.500339 q 0,-0.35605 -0.138837,-0.532956 -0.138837,-0.176905 -0.416512,-0.176905 -0.333657,0 -0.526238,0.212734 -0.192581,0.212735 -0.192581,0.579982 v 1.417484 h -0.414272 v -2.508029 h 0.414272 v 0.38964 q 0.147795,-0.22617 0.347093,-0.338136 0.201538,-0.111965 0.463538,-0.111965 0.432187,0 0.653879,0.268717 0.221692,0.266478 0.221692,0.785999 z" />
      <path
         id="path319"
         style="font-size:4.58611px;stroke-width:0.264583"
         d="m 84.774553,17.208905 h 0.436665 l 0.78376,2.104953 0.783759,-2.104953 h 0.436665 l -0.940511,2.508029 h -0.559827 z" />
      <path
         id="path321"
         style="font-size:4.58611px;stroke-width:0.264583"
         d="m 89.244219,16.232565 h 0.412033 v 3.484369 h -0.412033 z" />
      <path
         id="path323"
         style="font-size:4.58611px;stroke-width:0.264583"
         d="m 91.655957,18.456202 q -0.499366,0 -0.691947,0.114205 -0.192581,0.114205 -0.192581,0.38964 0,0.219452 0.143316,0.349332 0.145555,0.127641 0.394119,0.127641 0.342615,0 0.548631,-0.241845 0.208256,-0.244085 0.208256,-0.647161 v -0.09181 z m 0.821828,-0.170188 v 1.43092 h -0.412034 v -0.380683 q -0.141076,0.22841 -0.351572,0.338136 -0.210495,0.107487 -0.515041,0.107487 -0.385162,0 -0.613572,-0.214974 -0.22617,-0.217213 -0.22617,-0.579981 0,-0.42323 0.282153,-0.638204 0.284393,-0.214974 0.84646,-0.214974 h 0.577742 v -0.04031 q 0,-0.284392 -0.188102,-0.438905 -0.185863,-0.156752 -0.523999,-0.156752 -0.214974,0 -0.418751,0.0515 -0.203777,0.0515 -0.39188,0.154512 V 17.32311 q 0.226171,-0.08733 0.438905,-0.12988 0.212735,-0.04479 0.414273,-0.04479 0.544153,0 0.81287,0.282153 0.268718,0.282153 0.268718,0.855417 z" />
      <path
         id="path325"
         style="font-size:4.58611px;stroke-width:0.264583"
         d="m 94.372242,19.949823 q -0.174666,0.447862 -0.340375,0.58446 -0.165709,0.136598 -0.443384,0.136598 h -0.329179 v -0.344854 h 0.241846 q 0.170188,0 0.264239,-0.08061 0.09405,-0.08062 0.208256,-0.380683 l 0.0739,-0.188102 -1.014408,-2.467722 H 93.4698 l 0.783759,1.961637 0.783759,-1.961637 h 0.436666 z" />
      <path
         id="path327"
         style="font-size:4.58611px;stroke-width:0.264583"
         d="m 98.18803,18.359911 v 0.201538 h -1.894458 q 0.02687,0.42547 0.255282,0.649401 0.230649,0.221692 0.640443,0.221692 0.237367,0 0.459059,-0.05822 0.223931,-0.05822 0.443384,-0.174667 v 0.38964 q -0.221692,0.09405 -0.454581,0.143316 -0.232888,0.04926 -0.472494,0.04926 -0.600136,0 -0.951708,-0.349332 -0.349332,-0.349333 -0.349332,-0.94499 0,-0.615811 0.331418,-0.97634 0.333657,-0.362768 0.897964,-0.362768 0.506084,0 0.799434,0.326939 0.295589,0.3247 0.295589,0.884528 z m -0.412033,-0.120922 q -0.0045,-0.338136 -0.190342,-0.539675 -0.183623,-0.201538 -0.48817,-0.201538 -0.344854,0 -0.55311,0.194821 -0.206016,0.19482 -0.237367,0.548631 z" />
      <path
         id="path329"
         style="font-size:4.58611px;stroke-width:0.264583"
         d="m 100.31761,17.594067 q -0.0694,-0.04031 -0.15227,-0.05822 -0.0806,-0.02015 -0.179144,-0.02015 -0.349333,0 -0.537435,0.22841 -0.185863,0.22617 -0.185863,0.651639 v 1.321194 h -0.414272 v -2.508029 h 0.414272 v 0.38964 q 0.12988,-0.228409 0.338136,-0.338136 0.208256,-0.111965 0.506086,-0.111965 0.0426,0 0.0941,0.0067 0.0515,0.0045 0.1142,0.01567 z" />
      <path
         id="path331"
         style="font-size:4.58611px;stroke-width:0.264583"
         d="m 102.35315,17.282803 v 0.38964 q -0.17467,-0.08957 -0.36277,-0.134359 -0.1881,-0.04479 -0.38964,-0.04479 -0.30678,0 -0.4613,0.09405 -0.15227,0.09405 -0.15227,0.282153 0,0.143316 0.10973,0.226171 0.10972,0.08061 0.44114,0.154512 l 0.14108,0.03135 q 0.4389,0.09405 0.62253,0.266479 0.18586,0.170187 0.18586,0.476973 0,0.349333 -0.27768,0.55311 -0.27543,0.203777 -0.75912,0.203777 -0.20154,0 -0.42099,-0.04031 -0.21722,-0.03807 -0.45906,-0.116445 v -0.425469 q 0.22841,0.118684 0.4501,0.179145 0.22169,0.05822 0.4389,0.05822 0.29111,0 0.44787,-0.09853 0.15675,-0.100769 0.15675,-0.282154 0,-0.167948 -0.11421,-0.257521 -0.11196,-0.08957 -0.49488,-0.172427 l -0.14332,-0.03359 q -0.38292,-0.08062 -0.55311,-0.246324 -0.17019,-0.167949 -0.17019,-0.459059 0,-0.353812 0.2508,-0.546392 0.25081,-0.192581 0.71211,-0.192581 0.22841,0 0.42994,0.03359 0.20154,0.03359 0.37173,0.10077 z" />
    </g>
  </g>
</svg>
