<?xml version="1.0" encoding="UTF-8"?>
<svg xmlns="http://www.w3.org/2000/svg" id="Layer_1" data-name="Layer 1" viewBox="0 0 774 168">
  <path d="M71.15,44.22V144H53.6V44.22H19.5V27h85.75V44.22Z" style="fill:#ef6639"></path>
  <path d="M163.33,80.49a49.24,49.24,0,0,1,1.43,13.29l-56.65,16.79c.44,4.24.31,2.52,1.65,5.53a23.66,23.66,0,0,0,5,7.43,19.88,19.88,0,0,0,6.69,4.35,21.05,21.05,0,0,0,7.69,1.42,26.87,26.87,0,0,0,10.11-1.84,37.07,37.07,0,0,0,8.94-5.18l10.2,11a43.29,43.29,0,0,1-13,8.53,44.57,44.57,0,0,1-17.21,3,36.46,36.46,0,0,1-14.63-3A34.31,34.31,0,0,1,101.4,133a43.05,43.05,0,0,1-8.19-14.38,57.92,57.92,0,0,1-3-19.39A62.49,62.49,0,0,1,93,79.49,41.6,41.6,0,0,1,100.9,65.2,32.73,32.73,0,0,1,113,56.42a39.74,39.74,0,0,1,15.63-3,35.62,35.62,0,0,1,16.29,3.51,33.16,33.16,0,0,1,11.54,9.53,41.23,41.23,0,0,1,6.85,14Zm-16.46,4c-.22-3-2.3-6.69-4-9a14.84,14.84,0,0,0-6.27-4.77,23.78,23.78,0,0,0-9.11-1.31c-5.75.26-12.15,2.24-15.38,6.68s-4.11,11.9-4,20l38.76-11.57ZM226.94,143V93.36q0-13.36-4.77-18.72t-13.29-5.35q-8.69,0-13.37,5.85t-4.68,16.55V143H173.61V55.25h17.22v8.36a21.86,21.86,0,0,1,9.28-7.52,30.8,30.8,0,0,1,12.79-2.68q15.38,0,23.31,9.87t7.94,29.42V143Zm87.93-23.07a24.84,24.84,0,0,1-2.76,12.28,22.72,22.72,0,0,1-7.27,7.95,31,31,0,0,1-10.45,4.34,56.63,56.63,0,0,1-12.45,1.34,53.3,53.3,0,0,1-18-3.18,61.26,61.26,0,0,1-15.63-8l7.85-13A48.81,48.81,0,0,0,269,128.13a40.79,40.79,0,0,0,12.79,2.17q16.05,0,16.05-9.69,0-5-5.44-8a125.65,125.65,0,0,0-15-6.68,93.56,93.56,0,0,1-11.95-5.43,34.74,34.74,0,0,1-8-5.94,18.8,18.8,0,0,1-4.43-7.1,28.32,28.32,0,0,1-1.34-9.11A23.62,23.62,0,0,1,253.85,68,20.34,20.34,0,0,1,260,60.43a28,28,0,0,1,9.53-4.51,45.71,45.71,0,0,1,12-1.51,49.31,49.31,0,0,1,16.13,2.68,49.93,49.93,0,0,1,13.63,7l-7.53,13.2A40.76,40.76,0,0,0,293,71.63a37.23,37.23,0,0,0-11.87-1.84c-4.23,0-7.3.75-9.19,2.26a7,7,0,0,0-2.85,5.76,7.28,7.28,0,0,0,.67,3.1,8.85,8.85,0,0,0,2.51,2.92,27.57,27.57,0,0,0,4.93,3.09c2.06,1.06,4.77,2.26,8.11,3.6q7.35,2.83,12.87,5.43a40.35,40.35,0,0,1,9.28,5.85,20.71,20.71,0,0,1,5.6,7.61,27.08,27.08,0,0,1,1.84,10.53Zm80.07-20.23a59,59,0,0,1-3,19.48,42.24,42.24,0,0,1-8.36,14.54,35.73,35.73,0,0,1-12.54,9,39.19,39.19,0,0,1-15.71,3.1,35.46,35.46,0,0,1-27.58-12.54,44.13,44.13,0,0,1-8.11-14.37,56.5,56.5,0,0,1-2.92-18.73,57.39,57.39,0,0,1,3-19.22A43.09,43.09,0,0,1,328,66.53a35.12,35.12,0,0,1,12.37-9,38.19,38.19,0,0,1,15.46-3.1,37.12,37.12,0,0,1,28,12.37A41.31,41.31,0,0,1,392,81.07a56.63,56.63,0,0,1,2.93,18.64Zm-17.39.5q0-13.53-5.93-21.48t-16.47-7.94a17.91,17.91,0,0,0-15.46,7.94q-5.6,8-5.6,21,0,14.55,6,22.15A19.27,19.27,0,0,0,356,129.47a17.28,17.28,0,0,0,8.86-2.34,22.21,22.21,0,0,0,6.85-6.27,28.94,28.94,0,0,0,4.35-9.28,41.87,41.87,0,0,0,1.5-11.37Zm72.88-25.74a29.29,29.29,0,0,0-5.85-2.34,28.14,28.14,0,0,0-7.35-.83Q429,71.3,424.52,77T420,93.86V144H402.79V56.25H420v8.36a24.48,24.48,0,0,1,20.06-10.2,34.79,34.79,0,0,1,8.77.92A19.57,19.57,0,0,1,455,58.09l-4.52,16.38Z" style="fill:#ef6639"></path>
  <path d="M479.35,44.22V74.81H513V92h-33.6v52H461.8V27h75.39V44.22ZM540,144V31.18l17.22-9V144Zm105.14-44.3a58.72,58.72,0,0,1-3,19.48,42.24,42.24,0,0,1-8.36,14.54,35.69,35.69,0,0,1-12.53,9,39.24,39.24,0,0,1-15.72,3.1A35.46,35.46,0,0,1,578,133.31a44.32,44.32,0,0,1-8.11-14.37A56.5,56.5,0,0,1,567,100.21,57.39,57.39,0,0,1,570,81a43.09,43.09,0,0,1,8.27-14.46,35.21,35.21,0,0,1,12.37-9,38.19,38.19,0,0,1,15.46-3.1,37.12,37.12,0,0,1,28,12.37,41.31,41.31,0,0,1,8.19,14.29,56.63,56.63,0,0,1,2.93,18.64Zm-17.39.5q0-13.53-5.93-21.48T605.4,70.79a17.91,17.91,0,0,0-15.47,7.94q-5.59,8-5.6,21,0,14.55,6,22.15a19.27,19.27,0,0,0,15.88,7.61,17.26,17.26,0,0,0,8.86-2.34,22.24,22.24,0,0,0,6.86-6.27,29.14,29.14,0,0,0,4.34-9.28,41.87,41.87,0,0,0,1.51-11.37ZM730.1,144H715.39l-11.87-44.3q-1.37-5.11-2.59-10.28T699,81q-.91,4.28-1.92,8.53-1.22,5.19-2.59,10.36L682.79,144H668.08L644,56.25h17l10.36,42.63c.93,3.48,1.76,7,2.51,10.53s1.39,6.57,1.84,8.69l2.17-8.69q1.34-5.35,2.68-10.53l11.7-42.63h13.87L718.06,99q1.35,5.22,2.59,10.45c.84,3.51,1.53,6.38,2.09,8.61.56-2.23,1.2-5.15,1.92-8.78s1.51-7,2.43-10.44l10.36-42.63h17L730.09,144Z" style="fill:#a6a7a9"></path>
</svg>
