<?xml version="1.0" encoding="UTF-8" standalone="no"?>
<svg
   xmlns:dc="http://purl.org/dc/elements/1.1/"
   xmlns:cc="http://creativecommons.org/ns#"
   xmlns:rdf="http://www.w3.org/1999/02/22-rdf-syntax-ns#"
   xmlns:svg="http://www.w3.org/2000/svg"
   xmlns="http://www.w3.org/2000/svg"
   xmlns:sodipodi="http://sodipodi.sourceforge.net/DTD/sodipodi-0.dtd"
   xmlns:inkscape="http://www.inkscape.org/namespaces/inkscape"
   sodipodi:docname="webui.svg"
   inkscape:version="1.0 (1.0+r73+1)"
   id="svg3639"
   version="1.1"
   viewBox="0 0 210 297"
   height="297mm"
   width="210mm">
  <defs
     id="defs3633">
    <marker
       inkscape:stockid="Arrow1Lend"
       orient="auto"
       refY="0"
       refX="0"
       id="marker20930"
       style="overflow:visible"
       inkscape:isstock="true">
      <path
         id="path20928"
         d="M 0,0 5,-5 -12.5,0 5,5 Z"
         style="fill:#000000;fill-opacity:1;fill-rule:evenodd;stroke:#000000;stroke-width:1pt;stroke-opacity:1"
         transform="matrix(-0.8,0,0,-0.8,-10,0)" />
    </marker>
    <marker
       inkscape:stockid="Arrow1Lend"
       orient="auto"
       refY="0"
       refX="0"
       id="marker21382"
       style="overflow:visible"
       inkscape:isstock="true">
      <path
         id="path21380"
         d="M 0,0 5,-5 -12.5,0 5,5 Z"
         style="fill:#000000;fill-opacity:1;fill-rule:evenodd;stroke:#000000;stroke-width:1pt;stroke-opacity:1"
         transform="matrix(-0.8,0,0,-0.8,-10,0)" />
    </marker>
    <marker
       inkscape:isstock="true"
       style="overflow:visible"
       id="marker20785-3"
       refX="0"
       refY="0"
       orient="auto"
       inkscape:stockid="Arrow1Lend">
      <path
         transform="matrix(-0.8,0,0,-0.8,-10,0)"
         style="fill:#000000;fill-opacity:1;fill-rule:evenodd;stroke:#000000;stroke-width:1pt;stroke-opacity:1"
         d="M 0,0 5,-5 -12.5,0 5,5 Z"
         id="path20783-7" />
    </marker>
    <marker
       inkscape:isstock="true"
       style="overflow:visible"
       id="marker21382-9"
       refX="0"
       refY="0"
       orient="auto"
       inkscape:stockid="Arrow1Lend">
      <path
         transform="matrix(-0.8,0,0,-0.8,-10,0)"
         style="fill:#000000;fill-opacity:1;fill-rule:evenodd;stroke:#000000;stroke-width:1pt;stroke-opacity:1"
         d="M 0,0 5,-5 -12.5,0 5,5 Z"
         id="path21380-2" />
    </marker>
    <marker
       inkscape:isstock="true"
       style="overflow:visible"
       id="marker20785"
       refX="0"
       refY="0"
       orient="auto"
       inkscape:stockid="Arrow1Lend">
      <path
         transform="matrix(-0.8,0,0,-0.8,-10,0)"
         style="fill:#000000;fill-opacity:1;fill-rule:evenodd;stroke:#000000;stroke-width:1pt;stroke-opacity:1"
         d="M 0,0 5,-5 -12.5,0 5,5 Z"
         id="path20783" />
    </marker>
  </defs>
  <sodipodi:namedview
     inkscape:window-maximized="0"
     inkscape:window-y="0"
     inkscape:window-x="0"
     inkscape:window-height="850"
     inkscape:window-width="1516"
     showgrid="false"
     inkscape:document-rotation="0"
     inkscape:current-layer="layer1"
     inkscape:document-units="mm"
     inkscape:cy="560"
     inkscape:cx="400"
     inkscape:zoom="0.35"
     inkscape:pageshadow="2"
     inkscape:pageopacity="0.0"
     borderopacity="1.0"
     bordercolor="#666666"
     pagecolor="#ffffff"
     id="base" />
  <metadata
     id="metadata3636">
    <rdf:RDF>
      <cc:Work
         rdf:about="">
        <dc:format>image/svg+xml</dc:format>
        <dc:type
           rdf:resource="http://purl.org/dc/dcmitype/StillImage" />
        <dc:title></dc:title>
      </cc:Work>
    </rdf:RDF>
  </metadata>
  <g
     id="layer1"
     inkscape:groupmode="layer"
     inkscape:label="Layer 1">
    <rect
       ry="2.269501"
       y="38.640678"
       x="53.907784"
       height="76.853325"
       width="118.21559"
       id="rect20690"
       style="fill:#2b0000;fill-opacity:0.219608;stroke:#000000;stroke-width:0.047625;stroke-miterlimit:4;stroke-dasharray:none;stop-color:#000000" />
    <path
       style="fill:#8ebae5;fill-opacity:1;stroke:#000000;stroke-width:0.0451948;stroke-linecap:butt;stroke-linejoin:miter;stroke-miterlimit:4;stroke-dasharray:none;stroke-opacity:1"
       d="m 42.334867,51.236202 h 11.82524 V 102.27703 H 42.334867 V 51.236202"
       id="path3420" />
    <g
       aria-label="WebSockets"
       transform="matrix(0,-1.1026393,1.1026393,0,-60.411423,3.7252621)"
       id="text3424"
       style="font-size:7.05556px;line-height:1.25;font-family:sans-serif;-inkscape-font-specification:sans-serif;stroke-width:0.264583">
      <path
         d="m -87.287935,96.031159 h 0.7028 l 1.081761,4.347711 1.078315,-4.347711 h 0.782037 l 1.081761,4.347711 1.078316,-4.347711 h 0.706245 l -1.291912,5.143531 h -0.875055 l -1.085205,-4.464846 -1.095542,4.464846 h -0.875054 z"
         style="stroke-width:0.264583"
         id="path4403" />
      <path
         d="m -76.997428,99.086961 v 0.310059 h -2.914553 q 0.04134,0.65457 0.392741,0.99908 0.354845,0.34106 0.985298,0.34106 0.365181,0 0.706245,-0.0896 0.34451,-0.0896 0.68213,-0.26872 v 0.59945 q -0.341065,0.14469 -0.699355,0.22049 -0.35829,0.0758 -0.726916,0.0758 -0.923286,0 -1.464166,-0.53744 -0.537436,-0.53743 -0.537436,-1.453828 0,-0.947402 0.509875,-1.502063 0.513319,-0.558106 1.381484,-0.558106 0.778592,0 1.2299,0.502984 0.454753,0.49954 0.454753,1.360814 z m -0.633898,-0.186035 q -0.0069,-0.52021 -0.292833,-0.830269 -0.282498,-0.310059 -0.751032,-0.310059 -0.530545,0 -0.850939,0.299724 -0.316949,0.299723 -0.36518,0.844049 z"
         style="stroke-width:0.264583"
         id="path4405" />
      <path
         d="m -73.18715,99.248881 q 0,-0.699355 -0.289388,-1.095541 -0.285943,-0.399632 -0.788927,-0.399632 -0.502984,0 -0.792373,0.399632 -0.285943,0.396186 -0.285943,1.095541 0,0.699354 0.285943,1.098989 0.289389,0.39618 0.792373,0.39618 0.502984,0 0.788927,-0.39618 0.289388,-0.399635 0.289388,-1.098989 z m -2.156631,-1.347034 q 0.199816,-0.344509 0.502985,-0.509874 0.306613,-0.16881 0.73036,-0.16881 0.7028,0 1.140328,0.558106 0.440972,0.558106 0.440972,1.467612 0,0.909509 -0.440972,1.467609 -0.437528,0.55811 -1.140328,0.55811 -0.423747,0 -0.73036,-0.16537 -0.303169,-0.16881 -0.502985,-0.51332 v 0.57878 h -0.637343 v -5.360572 h 0.637343 z"
         style="stroke-width:0.264583"
         id="path4407" />
      <path
         d="m -68.367459,96.199969 v 0.678684 q -0.396186,-0.18948 -0.747586,-0.282498 -0.3514,-0.09302 -0.678684,-0.09302 -0.568441,0 -0.8785,0.220486 -0.306614,0.220486 -0.306614,0.627008 0,0.341064 0.203261,0.516764 0.206706,0.172255 0.778592,0.279053 l 0.420302,0.08613 q 0.778592,0.148139 1.147218,0.523655 0.37207,0.37207 0.37207,0.999078 0,0.747591 -0.502984,1.133441 -0.499539,0.38585 -1.467612,0.38585 -0.36518,0 -0.778592,-0.0827 -0.409966,-0.0827 -0.850939,-0.24461 v -0.71658 q 0.423747,0.23772 0.830269,0.35829 0.406521,0.12058 0.799262,0.12058 0.596002,0 0.919841,-0.23426 0.32384,-0.23427 0.32384,-0.668355 0,-0.37896 -0.234267,-0.592556 -0.230822,-0.213596 -0.761367,-0.320394 l -0.423747,-0.08268 q -0.778592,-0.155029 -1.126547,-0.485759 -0.347955,-0.330729 -0.347955,-0.919841 0,-0.682129 0.478869,-1.07487 0.482314,-0.392741 1.326363,-0.392741 0.361735,0 0.737251,0.06546 0.375515,0.06546 0.768256,0.19637 z"
         style="stroke-width:0.264583"
         id="path4409" />
      <path
         d="m -65.504581,97.760598 q -0.509875,0 -0.806153,0.399632 -0.296279,0.396186 -0.296279,1.088651 0,0.692464 0.292834,1.092099 0.296278,0.39618 0.809598,0.39618 0.506429,0 0.802707,-0.39963 0.296279,-0.39963 0.296279,-1.088649 0,-0.685575 -0.296279,-1.085206 -0.296278,-0.403077 -0.802707,-0.403077 z m 0,-0.537435 q 0.826823,0 1.298802,0.537435 0.471978,0.537436 0.471978,1.488283 0,0.947399 -0.471978,1.488279 -0.471979,0.53744 -1.298802,0.53744 -0.830269,0 -1.302247,-0.53744 -0.468534,-0.54088 -0.468534,-1.488279 0,-0.950847 0.468534,-1.488283 0.471978,-0.537435 1.302247,-0.537435 z"
         style="stroke-width:0.264583"
         id="path4411" />
      <path
         d="m -59.909742,97.46432 v 0.592557 q -0.268718,-0.148139 -0.54088,-0.220486 -0.268718,-0.07579 -0.544326,-0.07579 -0.616672,0 -0.957737,0.392742 -0.341065,0.389296 -0.341065,1.095541 0,0.706245 0.341065,1.098986 0.341065,0.38929 0.957737,0.38929 0.275608,0 0.544326,-0.0723 0.272162,-0.0758 0.54088,-0.22394 v 0.58567 q -0.265273,0.12402 -0.551216,0.18604 -0.282498,0.062 -0.602892,0.062 -0.871609,0 -1.384929,-0.54777 -0.51332,-0.54777 -0.51332,-1.477946 0,-0.943957 0.516765,-1.484837 0.52021,-0.540881 1.422825,-0.540881 0.292834,0 0.571887,0.06201 0.279053,0.05857 0.54088,0.179145 z"
         style="stroke-width:0.264583"
         id="path4413" />
      <path
         d="m -58.824536,95.814118 h 0.637343 v 3.166045 l 1.891358,-1.663982 h 0.809598 l -2.046388,1.805231 2.132516,2.053278 h -0.826824 l -1.96026,-1.884468 v 1.884468 h -0.637343 z"
         style="stroke-width:0.264583"
         id="path4415" />
      <path
         d="m -51.655288,99.086961 v 0.310059 h -2.914553 q 0.04134,0.65457 0.392741,0.99908 0.354845,0.34106 0.985298,0.34106 0.36518,0 0.706245,-0.0896 0.34451,-0.0896 0.682129,-0.26872 v 0.59945 q -0.341064,0.14469 -0.699355,0.22049 -0.35829,0.0758 -0.726915,0.0758 -0.923286,0 -1.464167,-0.53744 -0.537435,-0.53743 -0.537435,-1.453828 0,-0.947402 0.509875,-1.502063 0.513319,-0.558106 1.381484,-0.558106 0.778592,0 1.2299,0.502984 0.454753,0.49954 0.454753,1.360814 z m -0.633898,-0.186035 q -0.0069,-0.52021 -0.292834,-0.830269 -0.282498,-0.310059 -0.751031,-0.310059 -0.530545,0 -0.850939,0.299724 -0.316949,0.299723 -0.365181,0.844049 z"
         style="stroke-width:0.264583"
         id="path4417" />
      <path
         d="m -49.987862,96.22064 v 1.095541 h 1.305692 v 0.492649 h -1.305692 v 2.094619 q 0,0.471981 0.127469,0.606341 0.130913,0.13436 0.527099,0.13436 h 0.651124 v 0.53054 h -0.651124 q -0.733805,0 -1.012858,-0.27216 -0.279053,-0.27561 -0.279053,-0.999081 V 97.80883 h -0.465088 v -0.492649 h 0.465088 V 96.22064 Z"
         style="stroke-width:0.264583"
         id="path4419" />
      <path
         d="m -45.385211,97.429869 v 0.599447 q -0.268717,-0.137804 -0.558106,-0.206706 -0.289388,-0.0689 -0.599447,-0.0689 -0.471978,0 -0.70969,0.144694 -0.234266,0.144694 -0.234266,0.434083 0,0.220486 0.168809,0.347955 0.16881,0.124023 0.678685,0.237711 l 0.217041,0.04823 q 0.675239,0.144694 0.957737,0.409966 0.285943,0.261828 0.285943,0.733811 0,0.53743 -0.427192,0.85093 -0.423747,0.31351 -1.167888,0.31351 -0.310059,0 -0.647679,-0.062 -0.334174,-0.0586 -0.706245,-0.17915 v -0.65457 q 0.3514,0.18259 0.692465,0.27561 0.341065,0.0896 0.675239,0.0896 0.447863,0 0.68902,-0.15158 0.241157,-0.15503 0.241157,-0.43408 0,-0.258386 -0.1757,-0.39619 -0.172255,-0.137804 -0.761367,-0.265272 l -0.220486,-0.05168 q -0.589112,-0.124023 -0.850939,-0.378961 -0.261828,-0.258382 -0.261828,-0.706245 0,-0.544325 0.385851,-0.840603 0.385851,-0.296279 1.095541,-0.296279 0.3514,0 0.661459,0.05168 0.310059,0.05168 0.571886,0.155029 z"
         style="stroke-width:0.264583"
         id="path4421" />
    </g>
    <g
       transform="translate(-51.685423,28.959072)"
       style="font-size:7.05556px;line-height:1.25;font-family:sans-serif;-inkscape-font-specification:sans-serif;stroke-width:0.264583"
       id="text20604"
       aria-label="Web UI">
      <path
         id="path21753"
         style="stroke-width:0.264583"
         d="m 153.08217,1.4310665 h 0.7028 l 1.08176,4.3477133 1.07831,-4.3477133 h 0.78204 l 1.08176,4.3477133 1.07832,-4.3477133 h 0.70624 l -1.29191,5.1435309 h -0.87505 l -1.08521,-4.4648467 -1.09554,4.4648467 h -0.87506 z" />
      <path
         id="path21755"
         style="stroke-width:0.264583"
         d="m 163.37267,4.4868681 v 0.3100588 h -2.91455 q 0.0413,0.6545686 0.39274,0.9990784 0.35485,0.3410646 0.9853,0.3410646 0.36518,0 0.70625,-0.089573 0.3445,-0.089573 0.68212,-0.2687176 v 0.599447 q -0.34106,0.1446941 -0.69935,0.2204862 -0.35829,0.075792 -0.72692,0.075792 -0.92328,0 -1.46416,-0.5374353 -0.53744,-0.5374352 -0.53744,-1.4538312 0,-0.9474019 0.50988,-1.5020626 0.51332,-0.5581058 1.38148,-0.5581058 0.77859,0 1.2299,0.5029843 0.45475,0.4995391 0.45475,1.3608142 z m -0.63389,-0.1860352 q -0.007,-0.5202098 -0.29284,-0.8302686 -0.2825,-0.3100588 -0.75103,-0.3100588 -0.53054,0 -0.85094,0.2997235 -0.31695,0.2997235 -0.36518,0.844049 z" />
      <path
         id="path21757"
         style="stroke-width:0.264583"
         d="m 167.18295,4.6487877 q 0,-0.6993548 -0.28939,-1.095541 -0.28594,-0.3996314 -0.78892,-0.3996314 -0.50299,0 -0.79238,0.3996314 -0.28594,0.3961862 -0.28594,1.095541 0,0.6993549 0.28594,1.0989862 0.28939,0.3961862 0.79238,0.3961862 0.50298,0 0.78892,-0.3961862 0.28939,-0.3996313 0.28939,-1.0989862 z m -2.15663,-1.3470332 q 0.19982,-0.3445097 0.50299,-0.5098744 0.30661,-0.1688098 0.73036,-0.1688098 0.7028,0 1.14032,0.5581058 0.44098,0.5581058 0.44098,1.4676116 0,0.9095058 -0.44098,1.4676117 -0.43752,0.5581058 -1.14032,0.5581058 -0.42375,0 -0.73036,-0.1653647 -0.30317,-0.1688098 -0.50299,-0.5133196 v 0.5787765 h -0.63734 V 1.2140253 h 0.63734 z" />
      <path
         id="path21759"
         style="stroke-width:0.264583"
         d="m 171.08625,1.4310665 h 0.69935 v 3.1247036 q 0,0.8268235 0.29973,1.1920038 0.29972,0.3617353 0.97151,0.3617353 0.66835,0 0.96808,-0.3617353 0.29972,-0.3651803 0.29972,-1.1920038 V 1.4310665 h 0.69935 v 3.210831 q 0,1.0059686 -0.49953,1.5192881 -0.4961,0.5133196 -1.46762,0.5133196 -0.97496,0 -1.4745,-0.5133196 -0.49609,-0.5133195 -0.49609,-1.5192881 z" />
      <path
         id="path21761"
         style="stroke-width:0.264583"
         d="m 176.33313,1.4310665 h 0.69591 v 5.1435309 h -0.69591 z" />
    </g>
    <g
       transform="translate(-54.701873,29.223392)"
       id="g5493"
       style="stroke-width:0.047625;stroke-miterlimit:4;stroke-dasharray:none">
      <rect
         ry="1.3830156"
         y="33.825893"
         x="113.31133"
         height="10.61592"
         width="24.50531"
         id="rect3410"
         style="opacity:0.652177;fill:#e69679;fill-opacity:1;fill-rule:evenodd;stroke:#000000;stroke-width:0.047625;stroke-miterlimit:4;stroke-dasharray:none;stop-color:#000000" />
      <g
         aria-label="Maps"
         id="text20612"
         style="font-size:7.05556px;line-height:1.25;font-family:sans-serif;-inkscape-font-specification:sans-serif;stroke-width:0.047625;stroke-miterlimit:4;stroke-dasharray:none">
        <path
           d="m 116.7962,35.828282 h 1.03698 l 1.31258,3.50022 1.31947,-3.50022 h 1.03697 v 5.143531 h -0.67868 V 36.45529 l -1.32636,3.52778 h -0.69936 l -1.32636,-3.52778 v 4.516523 h -0.67524 z"
           style="stroke-width:0.047625;stroke-miterlimit:4;stroke-dasharray:none"
           id="path21775" />
        <path
           d="m 124.61313,39.032223 q -0.76826,0 -1.06454,0.1757 -0.29628,0.1757 -0.29628,0.599447 0,0.33762 0.22049,0.537435 0.22393,0.196371 0.60634,0.196371 0.5271,0 0.84405,-0.372071 0.32039,-0.375515 0.32039,-0.995633 v -0.141249 z m 1.26435,-0.261827 v 2.201417 h -0.6339 v -0.585666 q -0.21704,0.3514 -0.54088,0.520209 -0.32384,0.165365 -0.79237,0.165365 -0.59256,0 -0.94396,-0.330729 -0.34795,-0.334175 -0.34795,-0.892281 0,-0.651123 0.43408,-0.981852 0.43753,-0.33073 1.30225,-0.33073 h 0.88883 v -0.06201 q 0,-0.437527 -0.28939,-0.675239 -0.28594,-0.241157 -0.80615,-0.241157 -0.33073,0 -0.64423,0.07924 -0.31351,0.07924 -0.6029,0.237711 v -0.585666 q 0.34796,-0.134359 0.67524,-0.199816 0.32729,-0.0689 0.63735,-0.0689 0.83716,0 1.25057,0.434082 0.41341,0.434083 0.41341,1.316028 z"
           style="stroke-width:0.047625;stroke-miterlimit:4;stroke-dasharray:none"
           id="path21777" />
        <path
           d="m 127.79984,40.393037 v 2.046388 h -0.63734 v -5.326121 h 0.63734 v 0.585666 q 0.19982,-0.344509 0.50299,-0.509874 0.30661,-0.16881 0.73036,-0.16881 0.7028,0 1.14033,0.558106 0.44097,0.558106 0.44097,1.467612 0,0.909505 -0.44097,1.467611 -0.43753,0.558106 -1.14033,0.558106 -0.42375,0 -0.73036,-0.165365 -0.30317,-0.168809 -0.50299,-0.513319 z m 2.15663,-1.347033 q 0,-0.699355 -0.28938,-1.095541 -0.28595,-0.399632 -0.78893,-0.399632 -0.50299,0 -0.79237,0.399632 -0.28595,0.396186 -0.28595,1.095541 0,0.699354 0.28595,1.098986 0.28938,0.396186 0.79237,0.396186 0.50298,0 0.78893,-0.396186 0.28938,-0.399632 0.28938,-1.098986 z"
           style="stroke-width:0.047625;stroke-miterlimit:4;stroke-dasharray:none"
           id="path21779" />
        <path
           d="m 134.12504,37.226992 v 0.599447 q -0.26871,-0.137804 -0.5581,-0.206706 -0.28939,-0.0689 -0.59945,-0.0689 -0.47198,0 -0.70969,0.144694 -0.23427,0.144694 -0.23427,0.434083 0,0.220486 0.16881,0.347954 0.16881,0.124024 0.67869,0.237712 l 0.21704,0.04823 q 0.67524,0.144694 0.95774,0.409966 0.28594,0.261828 0.28594,0.733806 0,0.537435 -0.42719,0.850939 -0.42375,0.313504 -1.16789,0.313504 -0.31006,0 -0.64768,-0.06201 -0.33417,-0.05857 -0.70624,-0.179145 v -0.654568 q 0.3514,0.18259 0.69246,0.275607 0.34106,0.08957 0.67524,0.08957 0.44786,0 0.68902,-0.151584 0.24116,-0.15503 0.24116,-0.434083 0,-0.258382 -0.1757,-0.396186 -0.17226,-0.137804 -0.76137,-0.265272 l -0.22049,-0.05168 q -0.58911,-0.124023 -0.85094,-0.378961 -0.26182,-0.258382 -0.26182,-0.706245 0,-0.544325 0.38585,-0.840603 0.38585,-0.296279 1.09554,-0.296279 0.3514,0 0.66146,0.05168 0.31006,0.05168 0.57188,0.15503 z"
           style="stroke-width:0.047625;stroke-miterlimit:4;stroke-dasharray:none"
           id="path21781" />
      </g>
    </g>
    <g
       transform="translate(-54.701873,29.223392)"
       id="g5485"
       style="stroke-width:0.047625;stroke-miterlimit:4;stroke-dasharray:none">
      <rect
         style="opacity:0.652177;fill:#e69679;fill-opacity:1;fill-rule:evenodd;stroke:#000000;stroke-width:0.047625;stroke-miterlimit:4;stroke-dasharray:none;stop-color:#000000"
         id="rect3410-7"
         width="40.500645"
         height="10.569373"
         x="183.93712"
         y="33.744392"
         ry="1.3769516" />
      <g
         aria-label="Simulations"
         id="text20620"
         style="font-size:6.68419px;line-height:1.25;font-family:sans-serif;-inkscape-font-specification:sans-serif;stroke-width:0.047625;stroke-miterlimit:4;stroke-dasharray:none">
        <path
           d="m 188.15909,36.80809 v 0.642961 q -0.37534,-0.179507 -0.70824,-0.267629 -0.3329,-0.08812 -0.64296,-0.08812 -0.53852,0 -0.83226,0.208881 -0.29048,0.208881 -0.29048,0.594005 0,0.323113 0.19257,0.489565 0.19582,0.163188 0.73761,0.264365 l 0.39818,0.08159 q 0.73761,0.140342 1.08683,0.496092 0.35249,0.352486 0.35249,0.946492 0,0.708236 -0.47651,1.073778 -0.47325,0.365542 -1.39037,0.365542 -0.34596,0 -0.73761,-0.07833 -0.38839,-0.07833 -0.80615,-0.231727 v -0.678863 q 0.40144,0.2252 0.78657,0.339432 0.38512,0.114231 0.75719,0.114231 0.56463,0 0.87143,-0.221936 0.30679,-0.221936 0.30679,-0.63317 0,-0.359014 -0.22193,-0.561367 -0.21868,-0.202354 -0.7213,-0.303531 l -0.40144,-0.07833 q -0.73761,-0.146869 -1.06725,-0.460191 -0.32964,-0.313321 -0.32964,-0.871425 0,-0.646225 0.45366,-1.018294 0.45693,-0.37207 1.25655,-0.37207 0.3427,0 0.69845,0.06201 0.35575,0.06201 0.72782,0.186035 z"
           style="stroke-width:0.047625;stroke-miterlimit:4;stroke-dasharray:none"
           id="path21801" />
        <path
           d="m 189.4548,37.865549 h 0.60053 v 3.655417 h -0.60053 z m 0,-1.423001 h 0.60053 v 0.760457 h -0.60053 z"
           style="stroke-width:0.047625;stroke-miterlimit:4;stroke-dasharray:none"
           id="path21803" />
        <path
           d="m 194.15462,38.567259 q 0.2252,-0.404707 0.53852,-0.597269 0.31332,-0.192562 0.73761,-0.192562 0.57116,0 0.88122,0.401443 0.31006,0.398179 0.31006,1.13579 v 2.206305 h -0.6038 v -2.186723 q 0,-0.525466 -0.18603,-0.780039 -0.18604,-0.254574 -0.5679,-0.254574 -0.46672,0 -0.73761,0.310058 -0.27089,0.310057 -0.27089,0.845315 v 2.065963 h -0.6038 v -2.186723 q 0,-0.52873 -0.18603,-0.780039 -0.18604,-0.254574 -0.57442,-0.254574 -0.4602,0 -0.73109,0.313321 -0.27089,0.310058 -0.27089,0.842052 v 2.065963 h -0.6038 v -3.655417 h 0.6038 v 0.567895 q 0.20562,-0.336167 0.49283,-0.496092 0.28721,-0.159924 0.68212,-0.159924 0.39818,0 0.6756,0.202353 0.28069,0.202353 0.4145,0.587478 z"
           style="stroke-width:0.047625;stroke-miterlimit:4;stroke-dasharray:none"
           id="path21805" />
        <path
           d="m 197.76108,40.078382 v -2.212833 h 0.60053 v 2.189986 q 0,0.518939 0.20236,0.78004 0.20235,0.257837 0.60706,0.257837 0.4863,0 0.76698,-0.310057 0.28395,-0.310058 0.28395,-0.845315 v -2.072491 h 0.60053 v 3.655417 h -0.60053 v -0.561368 q -0.21867,0.332904 -0.50915,0.496092 -0.28721,0.159925 -0.66907,0.159925 -0.62991,0 -0.95628,-0.391652 -0.32638,-0.391652 -0.32638,-1.145581 z m 1.51112,-2.300954 z"
           style="stroke-width:0.047625;stroke-miterlimit:4;stroke-dasharray:none"
           id="path21807" />
        <path
           d="m 202.06599,36.442548 h 0.60053 v 5.078418 h -0.60053 z"
           style="stroke-width:0.047625;stroke-miterlimit:4;stroke-dasharray:none"
           id="path21809" />
        <path
           d="m 205.58106,39.683466 q -0.72782,0 -1.0085,0.166452 -0.28069,0.166452 -0.28069,0.567895 0,0.319849 0.20888,0.509147 0.21215,0.186035 0.57443,0.186035 0.49935,0 0.79962,-0.352487 0.30353,-0.35575 0.30353,-0.943228 v -0.133814 z m 1.1978,-0.248046 v 2.085546 h -0.60053 v -0.55484 q -0.20562,0.332904 -0.51241,0.492828 -0.3068,0.156661 -0.75067,0.156661 -0.56136,0 -0.89427,-0.313322 -0.32964,-0.316585 -0.32964,-0.845315 0,-0.616851 0.41124,-0.930173 0.41449,-0.313321 1.2337,-0.313321 h 0.84205 v -0.05875 q 0,-0.414498 -0.27416,-0.639698 -0.27089,-0.228463 -0.76372,-0.228463 -0.31332,0 -0.61032,0.07507 -0.297,0.07507 -0.57116,0.2252 v -0.55484 q 0.32964,-0.127287 0.6397,-0.189298 0.31006,-0.06527 0.60379,-0.06527 0.7931,0 1.18475,0.411234 0.39165,0.411234 0.39165,1.246758 z"
           style="stroke-width:0.047625;stroke-miterlimit:4;stroke-dasharray:none"
           id="path21811" />
        <path
           d="m 208.6131,36.827672 v 1.037877 h 1.23697 v 0.466719 h -1.23697 v 1.984368 q 0,0.447136 0.12076,0.574423 0.12402,0.127287 0.49935,0.127287 h 0.61686 v 0.50262 h -0.61686 q -0.69518,0 -0.95954,-0.257838 -0.26437,-0.261101 -0.26437,-0.946492 v -1.984368 h -0.44061 v -0.466719 h 0.44061 v -1.037877 z"
           style="stroke-width:0.047625;stroke-miterlimit:4;stroke-dasharray:none"
           id="path21813" />
        <path
           d="m 210.64316,37.865549 h 0.60053 v 3.655417 h -0.60053 z m 0,-1.423001 h 0.60053 v 0.760457 h -0.60053 z"
           style="stroke-width:0.047625;stroke-miterlimit:4;stroke-dasharray:none"
           id="path21815" />
        <path
           d="m 213.91345,38.286575 q -0.48304,0 -0.76372,0.378597 -0.28068,0.375333 -0.28068,1.031349 0,0.656017 0.27742,1.034614 0.28068,0.375332 0.76698,0.375332 0.47977,0 0.76046,-0.378596 0.28068,-0.378597 0.28068,-1.03135 0,-0.649489 -0.28068,-1.028086 -0.28069,-0.38186 -0.76046,-0.38186 z m 0,-0.509147 q 0.78331,0 1.23044,0.509147 0.44714,0.509147 0.44714,1.409946 0,0.897535 -0.44714,1.409946 -0.44713,0.509148 -1.23044,0.509148 -0.78657,0 -1.2337,-0.509148 -0.44387,-0.512411 -0.44387,-1.409946 0,-0.900799 0.44387,-1.409946 0.44713,-0.509147 1.2337,-0.509147 z"
           style="stroke-width:0.047625;stroke-miterlimit:4;stroke-dasharray:none"
           id="path21817" />
        <path
           d="m 219.62178,39.314661 v 2.206305 h -0.60054 v -2.186723 q 0,-0.518938 -0.20235,-0.776776 -0.20235,-0.257837 -0.60706,-0.257837 -0.4863,0 -0.76699,0.310058 -0.28068,0.310057 -0.28068,0.845315 v 2.065963 h -0.6038 v -3.655417 h 0.6038 v 0.567895 q 0.21541,-0.32964 0.50588,-0.492828 0.29374,-0.163188 0.6756,-0.163188 0.62991,0 0.95302,0.391651 0.32312,0.388388 0.32312,1.145582 z"
           style="stroke-width:0.047625;stroke-miterlimit:4;stroke-dasharray:none"
           id="path21819" />
        <path
           d="m 223.15643,37.973254 v 0.567895 q -0.25457,-0.130551 -0.52873,-0.195826 -0.27415,-0.06528 -0.56789,-0.06528 -0.44714,0 -0.67234,0.137078 -0.22193,0.137079 -0.22193,0.411235 0,0.208881 0.15992,0.32964 0.15992,0.117496 0.64296,0.2252 l 0.20562,0.04569 q 0.6397,0.137078 0.90733,0.388387 0.27089,0.248047 0.27089,0.695182 0,0.509148 -0.40471,0.80615 -0.40144,0.297003 -1.10642,0.297003 -0.29373,0 -0.61358,-0.05875 -0.31659,-0.05548 -0.66907,-0.169716 v -0.620115 q 0.3329,0.172979 0.65601,0.261101 0.32311,0.08486 0.6397,0.08486 0.42429,0 0.65275,-0.143606 0.22847,-0.146869 0.22847,-0.411234 0,-0.244782 -0.16646,-0.375333 -0.16318,-0.13055 -0.72129,-0.25131 l -0.20888,-0.04896 q -0.5581,-0.117496 -0.80615,-0.359014 -0.24804,-0.244783 -0.24804,-0.669072 0,-0.515675 0.36554,-0.796359 0.36554,-0.280683 1.03787,-0.280683 0.33291,0 0.62665,0.04896 0.29374,0.04896 0.54178,0.14687 z"
           style="stroke-width:0.047625;stroke-miterlimit:4;stroke-dasharray:none"
           id="path21821" />
      </g>
    </g>
    <g
       transform="translate(-54.701873,29.223392)"
       id="g5470"
       style="stroke-width:0.047625;stroke-miterlimit:4;stroke-dasharray:none">
      <rect
         style="opacity:0.652177;fill:#e69679;fill-opacity:1;fill-rule:evenodd;stroke:#000000;stroke-width:0.047625;stroke-miterlimit:4;stroke-dasharray:none;stop-color:#000000"
         id="rect3410-8"
         width="32.263882"
         height="10.591865"
         x="145.44272"
         y="34.099232"
         ry="1.3798817" />
      <g
         aria-label="Vehicles"
         id="text20616"
         style="font-size:7.05556px;line-height:1.25;font-family:sans-serif;-inkscape-font-specification:sans-serif;stroke-width:0.047625;stroke-miterlimit:4;stroke-dasharray:none">
        <path
           d="m 149.28427,42.025497 -1.96371,-5.14353 h 0.72692 l 1.62953,4.330487 1.63298,-4.330487 h 0.72347 l -1.96026,5.14353 z"
           style="stroke-width:0.047625;stroke-miterlimit:4;stroke-dasharray:none"
           id="path21784" />
        <path
           d="m 155.50267,39.937768 v 0.310059 h -2.91455 q 0.0413,0.654569 0.39274,0.999078 0.35484,0.341065 0.9853,0.341065 0.36518,0 0.70624,-0.08957 0.34451,-0.08957 0.68213,-0.268717 v 0.599447 q -0.34106,0.144694 -0.69935,0.220486 -0.35829,0.07579 -0.72692,0.07579 -0.92329,0 -1.46417,-0.537435 -0.53743,-0.537435 -0.53743,-1.453831 0,-0.947402 0.50987,-1.502063 0.51332,-0.558106 1.38149,-0.558106 0.77859,0 1.2299,0.502985 0.45475,0.499539 0.45475,1.360812 z m -0.6339,-0.186035 q -0.007,-0.52021 -0.29283,-0.830269 -0.2825,-0.310058 -0.75103,-0.310058 -0.53055,0 -0.85094,0.299723 -0.31695,0.299724 -0.36518,0.844049 z"
           style="stroke-width:0.047625;stroke-miterlimit:4;stroke-dasharray:none"
           id="path21786" />
        <path
           d="m 159.75048,39.696611 v 2.328886 h -0.6339 v -2.308215 q 0,-0.547771 -0.2136,-0.819933 -0.21359,-0.272163 -0.64079,-0.272163 -0.51332,0 -0.80959,0.327284 -0.29628,0.327285 -0.29628,0.892281 v 2.180746 h -0.63735 v -5.360572 h 0.63735 v 2.10151 q 0.22737,-0.347955 0.53399,-0.52021 0.31006,-0.172255 0.71313,-0.172255 0.66491,0 1.00597,0.413412 0.34107,0.409967 0.34107,1.209229 z"
           style="stroke-width:0.047625;stroke-miterlimit:4;stroke-dasharray:none"
           id="path21788" />
        <path
           d="m 161.02172,38.166988 h 0.6339 v 3.858509 h -0.6339 z m 0,-1.502063 h 0.6339 v 0.802708 h -0.6339 z"
           style="stroke-width:0.047625;stroke-miterlimit:4;stroke-dasharray:none"
           id="path21790" />
        <path
           d="m 165.75528,38.315127 v 0.592557 q -0.26872,-0.148139 -0.54088,-0.220486 -0.26872,-0.07579 -0.54432,-0.07579 -0.61668,0 -0.95774,0.392741 -0.34107,0.389296 -0.34107,1.095541 0,0.706245 0.34107,1.098986 0.34106,0.389296 0.95774,0.389296 0.2756,0 0.54432,-0.07235 0.27216,-0.07579 0.54088,-0.223931 v 0.585666 q -0.26527,0.124024 -0.55121,0.186036 -0.2825,0.06201 -0.6029,0.06201 -0.87161,0 -1.38493,-0.54777 -0.51331,-0.547771 -0.51331,-1.477947 0,-0.943957 0.51676,-1.484837 0.52021,-0.540881 1.42283,-0.540881 0.29283,0 0.57188,0.06201 0.27905,0.05857 0.54088,0.179145 z"
           style="stroke-width:0.047625;stroke-miterlimit:4;stroke-dasharray:none"
           id="path21792" />
        <path
           d="m 166.8646,36.664925 h 0.6339 v 5.360572 h -0.6339 z"
           style="stroke-width:0.047625;stroke-miterlimit:4;stroke-dasharray:none"
           id="path21794" />
        <path
           d="m 172.12182,39.937768 v 0.310059 h -2.91455 q 0.0413,0.654569 0.39274,0.999078 0.35485,0.341065 0.9853,0.341065 0.36518,0 0.70624,-0.08957 0.34451,-0.08957 0.68213,-0.268717 v 0.599447 q -0.34106,0.144694 -0.69935,0.220486 -0.35829,0.07579 -0.72692,0.07579 -0.92328,0 -1.46416,-0.537435 -0.53744,-0.537435 -0.53744,-1.453831 0,-0.947402 0.50988,-1.502063 0.51332,-0.558106 1.38148,-0.558106 0.77859,0 1.2299,0.502985 0.45475,0.499539 0.45475,1.360812 z m -0.6339,-0.186035 q -0.007,-0.52021 -0.29283,-0.830269 -0.2825,-0.310058 -0.75103,-0.310058 -0.53055,0 -0.85094,0.299723 -0.31695,0.299724 -0.36518,0.844049 z"
           style="stroke-width:0.047625;stroke-miterlimit:4;stroke-dasharray:none"
           id="path21796" />
        <path
           d="m 175.62204,38.280676 v 0.599447 q -0.26872,-0.137804 -0.5581,-0.206706 -0.28939,-0.0689 -0.59945,-0.0689 -0.47198,0 -0.70969,0.144695 -0.23427,0.144694 -0.23427,0.434082 0,0.220486 0.16881,0.347955 0.16881,0.124023 0.67869,0.237711 l 0.21704,0.04823 q 0.67524,0.144694 0.95773,0.409966 0.28595,0.261828 0.28595,0.733806 0,0.537435 -0.4272,0.850939 -0.42374,0.313504 -1.16788,0.313504 -0.31006,0 -0.64768,-0.06201 -0.33418,-0.05857 -0.70625,-0.179146 V 41.22968 q 0.3514,0.18259 0.69247,0.275608 0.34106,0.08957 0.67524,0.08957 0.44786,0 0.68902,-0.151584 0.24115,-0.155029 0.24115,-0.434082 0,-0.258383 -0.1757,-0.396187 -0.17225,-0.137804 -0.76136,-0.265272 l -0.22049,-0.05168 q -0.58911,-0.124023 -0.85094,-0.37896 -0.26183,-0.258383 -0.26183,-0.706245 0,-0.544326 0.38585,-0.840604 0.38586,-0.296279 1.09555,-0.296279 0.3514,0 0.66145,0.05168 0.31006,0.05168 0.57189,0.155029 z"
           style="stroke-width:0.047625;stroke-miterlimit:4;stroke-dasharray:none"
           id="path21798" />
      </g>
    </g>
    <g
       transform="translate(-54.701873,29.223392)"
       id="g5447"
       style="stroke-width:0.047625;stroke-miterlimit:4;stroke-dasharray:none">
      <rect
         ry="1.3762506"
         y="59.357288"
         x="115.62579"
         height="10.563993"
         width="42.612572"
         id="rect3410-8-9"
         style="opacity:0.652177;fill:#e69679;fill-opacity:1;fill-rule:evenodd;stroke:#000000;stroke-width:0.047625;stroke-miterlimit:4;stroke-dasharray:none;stop-color:#000000" />
      <g
         aria-label="Bridge Type"
         id="text20624"
         style="font-size:7.05556px;line-height:1.25;font-family:sans-serif;-inkscape-font-specification:sans-serif;stroke-width:0.047625;stroke-miterlimit:4;stroke-dasharray:none">
        <path
           d="m 117.43627,64.129415 v 1.884468 h 1.11621 q 0.56155,0 0.83027,-0.230821 0.27216,-0.234267 0.27216,-0.713135 0,-0.482314 -0.27216,-0.70969 -0.26872,-0.230822 -0.83027,-0.230822 z m 0,-2.11529 v 1.550294 h 1.03009 q 0.50987,0 0.75792,-0.18948 0.25149,-0.192926 0.25149,-0.585667 0,-0.389296 -0.25149,-0.582222 -0.24805,-0.192925 -0.75792,-0.192925 z m -0.69591,-0.571886 h 1.77767 q 0.79582,0 1.22646,0.330729 0.43063,0.33073 0.43063,0.940512 0,0.471978 -0.22048,0.751031 -0.22049,0.279053 -0.64768,0.347955 0.51332,0.110243 0.79582,0.461643 0.28594,0.347955 0.28594,0.87161 0,0.689019 -0.46853,1.064535 -0.46854,0.375516 -1.33326,0.375516 h -1.84657 z"
           style="stroke-width:0.047625;stroke-miterlimit:4;stroke-dasharray:none"
           id="path21839" />
        <path
           d="m 123.78559,63.319817 q -0.1068,-0.06201 -0.23427,-0.08957 -0.12402,-0.03101 -0.27561,-0.03101 -0.53743,0 -0.82682,0.3514 -0.28594,0.347954 -0.28594,1.002523 v 2.032608 h -0.63735 v -3.85851 h 0.63735 v 0.599447 q 0.19981,-0.3514 0.52021,-0.52021 0.32039,-0.172254 0.77859,-0.172254 0.0654,0 0.14469,0.01034 0.0792,0.0069 0.1757,0.02412 z"
           style="stroke-width:0.047625;stroke-miterlimit:4;stroke-dasharray:none"
           id="path21841" />
        <path
           d="m 124.45738,62.72726 h 0.6339 v 3.85851 h -0.6339 z m 0,-1.502062 h 0.6339 v 0.802707 h -0.6339 z"
           style="stroke-width:0.047625;stroke-miterlimit:4;stroke-dasharray:none"
           id="path21843" />
        <path
           d="m 128.95323,63.312927 v -2.087729 h 0.6339 v 5.360572 h -0.6339 v -0.578777 q -0.19981,0.34451 -0.50643,0.51332 -0.30316,0.165364 -0.73036,0.165364 -0.69935,0 -1.14032,-0.558105 -0.43753,-0.558106 -0.43753,-1.467612 0,-0.909506 0.43753,-1.467612 0.44097,-0.558105 1.14032,-0.558105 0.4272,0 0.73036,0.168809 0.30662,0.165365 0.50643,0.509875 z m -2.16007,1.347033 q 0,0.699355 0.28594,1.098986 0.28939,0.396186 0.79237,0.396186 0.50299,0 0.79238,-0.396186 0.28938,-0.399631 0.28938,-1.098986 0,-0.699355 -0.28938,-1.095541 -0.28939,-0.399631 -0.79238,-0.399631 -0.50298,0 -0.79237,0.399631 -0.28594,0.396186 -0.28594,1.095541 z"
           style="stroke-width:0.047625;stroke-miterlimit:4;stroke-dasharray:none"
           id="path21845" />
        <path
           d="m 133.43186,64.611729 q 0,-0.68902 -0.28594,-1.067981 -0.2825,-0.37896 -0.79582,-0.37896 -0.50987,0 -0.79582,0.37896 -0.2825,0.378961 -0.2825,1.067981 0,0.685574 0.2825,1.064535 0.28595,0.378961 0.79582,0.378961 0.51332,0 0.79582,-0.378961 0.28594,-0.378961 0.28594,-1.064535 z m 0.6339,1.495172 q 0,0.985298 -0.43753,1.464167 -0.43753,0.482313 -1.34014,0.482313 -0.33418,0 -0.63045,-0.05168 -0.29628,-0.04823 -0.57534,-0.151584 v -0.616673 q 0.27906,0.151584 0.55122,0.223931 0.27216,0.07235 0.55466,0.07235 0.62356,0 0.93362,-0.327284 0.31006,-0.323839 0.31006,-0.981853 v -0.313504 q -0.19637,0.341065 -0.50298,0.509875 -0.30662,0.16881 -0.73381,0.16881 -0.70969,0 -1.14377,-0.540881 -0.43408,-0.54088 -0.43408,-1.43316 0,-0.895726 0.43408,-1.436606 0.43408,-0.54088 1.14377,-0.54088 0.42719,0 0.73381,0.168809 0.30661,0.16881 0.50298,0.509875 V 62.72726 h 0.6339 z"
           style="stroke-width:0.047625;stroke-miterlimit:4;stroke-dasharray:none"
           id="path21847" />
        <path
           d="m 138.67185,64.49804 v 0.310059 h -2.91455 q 0.0413,0.654569 0.39274,0.999079 0.35485,0.341064 0.9853,0.341064 0.36518,0 0.70625,-0.08957 0.34451,-0.08957 0.68213,-0.268718 v 0.599447 q -0.34107,0.144694 -0.69936,0.220486 -0.35829,0.07579 -0.72692,0.07579 -0.92328,0 -1.46416,-0.537435 -0.53744,-0.537435 -0.53744,-1.453831 0,-0.947402 0.50988,-1.502063 0.51332,-0.558105 1.38148,-0.558105 0.77859,0 1.2299,0.502984 0.45475,0.499539 0.45475,1.360813 z m -0.63389,-0.186035 q -0.007,-0.52021 -0.29284,-0.830268 -0.2825,-0.310059 -0.75103,-0.310059 -0.53054,0 -0.85094,0.299723 -0.31695,0.299724 -0.36518,0.844049 z"
           style="stroke-width:0.047625;stroke-miterlimit:4;stroke-dasharray:none"
           id="path21849" />
        <path
           d="m 141.2729,61.442239 h 4.35116 v 0.585666 h -1.8259 v 4.557865 h -0.69936 v -4.557865 h -1.8259 z"
           style="stroke-width:0.047625;stroke-miterlimit:4;stroke-dasharray:none"
           id="path21851" />
        <path
           d="m 146.77473,66.94406 q -0.26872,0.689019 -0.52366,0.89917 -0.25494,0.210151 -0.68213,0.210151 h -0.50643 v -0.530545 h 0.37207 q 0.26183,0 0.40652,-0.124023 0.1447,-0.124024 0.3204,-0.585667 l 0.11369,-0.289388 -1.56063,-3.796498 h 0.67179 l 1.20579,3.017906 1.20578,-3.017906 h 0.67179 z"
           style="stroke-width:0.047625;stroke-miterlimit:4;stroke-dasharray:none"
           id="path21853" />
        <path
           d="m 149.95799,66.006993 v 2.046388 h -0.63734 V 62.72726 h 0.63734 v 0.585667 q 0.19982,-0.34451 0.50299,-0.509875 0.30661,-0.168809 0.73036,-0.168809 0.7028,0 1.14033,0.558105 0.44097,0.558106 0.44097,1.467612 0,0.909506 -0.44097,1.467612 -0.43753,0.558105 -1.14033,0.558105 -0.42375,0 -0.73036,-0.165364 -0.30317,-0.16881 -0.50299,-0.51332 z m 2.15664,-1.347033 q 0,-0.699355 -0.28939,-1.095541 -0.28595,-0.399631 -0.78893,-0.399631 -0.50298,0 -0.79237,0.399631 -0.28595,0.396186 -0.28595,1.095541 0,0.699355 0.28595,1.098986 0.28939,0.396186 0.79237,0.396186 0.50298,0 0.78893,-0.396186 0.28939,-0.399631 0.28939,-1.098986 z"
           style="stroke-width:0.047625;stroke-miterlimit:4;stroke-dasharray:none"
           id="path21855" />
        <path
           d="m 157.1238,64.49804 v 0.310059 h -2.91456 q 0.0413,0.654569 0.39275,0.999079 0.35484,0.341064 0.98529,0.341064 0.36518,0 0.70625,-0.08957 0.34451,-0.08957 0.68213,-0.268718 v 0.599447 q -0.34107,0.144694 -0.69936,0.220486 -0.35829,0.07579 -0.72691,0.07579 -0.92329,0 -1.46417,-0.537435 -0.53743,-0.537435 -0.53743,-1.453831 0,-0.947402 0.50987,-1.502063 0.51332,-0.558105 1.38148,-0.558105 0.7786,0 1.2299,0.502984 0.45476,0.499539 0.45476,1.360813 z m -0.6339,-0.186035 q -0.007,-0.52021 -0.29283,-0.830268 -0.2825,-0.310059 -0.75104,-0.310059 -0.53054,0 -0.85094,0.299723 -0.31694,0.299724 -0.36518,0.844049 z"
           style="stroke-width:0.047625;stroke-miterlimit:4;stroke-dasharray:none"
           id="path21857" />
      </g>
    </g>
    <g
       transform="translate(-54.701873,29.223392)"
       id="g5458"
       style="stroke-width:0.047625;stroke-miterlimit:4;stroke-dasharray:none">
      <rect
         style="opacity:0.652177;fill:#e69679;fill-opacity:1;fill-rule:evenodd;stroke:#000000;stroke-width:0.047625;stroke-miterlimit:4;stroke-dasharray:none;stop-color:#000000"
         id="rect3410-20"
         width="29.455669"
         height="10.600191"
         x="171.26199"
         y="59.048462"
         ry="1.3809664" />
      <g
         aria-label="Sensors"
         id="text20628"
         style="font-size:7.05556px;line-height:1.25;font-family:sans-serif;-inkscape-font-specification:sans-serif;stroke-width:0.047625;stroke-miterlimit:4;stroke-dasharray:none">
        <path
           d="m 175.76823,61.942157 v 0.678684 q -0.39619,-0.18948 -0.74759,-0.282498 -0.3514,-0.09302 -0.67868,-0.09302 -0.56844,0 -0.8785,0.220487 -0.30662,0.220486 -0.30662,0.627007 0,0.341065 0.20326,0.516765 0.20671,0.172255 0.7786,0.279053 l 0.4203,0.08613 q 0.77859,0.14814 1.14722,0.523655 0.37207,0.372071 0.37207,0.999078 0,0.747587 -0.50299,1.133438 -0.49954,0.385851 -1.46761,0.385851 -0.36518,0 -0.77859,-0.08268 -0.40997,-0.08268 -0.85094,-0.244602 v -0.71658 q 0.42375,0.237712 0.83027,0.35829 0.40652,0.120579 0.79926,0.120579 0.596,0 0.91984,-0.234267 0.32384,-0.234267 0.32384,-0.668349 0,-0.378961 -0.23427,-0.592557 -0.23082,-0.213596 -0.76136,-0.320394 l -0.42375,-0.08268 q -0.77859,-0.15503 -1.12655,-0.485759 -0.34795,-0.330729 -0.34795,-0.919841 0,-0.682129 0.47887,-1.074871 0.48231,-0.392741 1.32636,-0.392741 0.36174,0 0.73725,0.06546 0.37552,0.06546 0.76826,0.196371 z"
           style="stroke-width:0.047625;stroke-miterlimit:4;stroke-dasharray:none"
           id="path21824" />
        <path
           d="m 180.43634,64.829149 v 0.310058 h -2.91456 q 0.0413,0.654569 0.39274,0.999079 0.35485,0.341064 0.9853,0.341064 0.36518,0 0.70625,-0.08957 0.34451,-0.08957 0.68213,-0.268718 v 0.599447 q -0.34107,0.144694 -0.69936,0.220486 -0.35829,0.07579 -0.72691,0.07579 -0.92329,0 -1.46417,-0.537436 -0.53744,-0.537435 -0.53744,-1.453831 0,-0.947402 0.50988,-1.502062 0.51332,-0.558106 1.38148,-0.558106 0.7786,0 1.2299,0.502984 0.45476,0.499539 0.45476,1.360814 z m -0.6339,-0.186036 q -0.007,-0.520209 -0.29284,-0.830268 -0.28249,-0.310059 -0.75103,-0.310059 -0.53054,0 -0.85094,0.299723 -0.31694,0.299724 -0.36518,0.844049 z"
           style="stroke-width:0.047625;stroke-miterlimit:4;stroke-dasharray:none"
           id="path21826" />
        <path
           d="m 184.68414,64.587992 v 2.328886 h -0.6339 v -2.308216 q 0,-0.54777 -0.21359,-0.819933 -0.2136,-0.272163 -0.64079,-0.272163 -0.51332,0 -0.8096,0.327285 -0.29628,0.327284 -0.29628,0.89228 v 2.180747 h -0.63734 v -3.85851 h 0.63734 v 0.599447 q 0.22738,-0.347955 0.53399,-0.520209 0.31006,-0.172255 0.71314,-0.172255 0.6649,0 1.00597,0.413411 0.34106,0.409967 0.34106,1.20923 z"
           style="stroke-width:0.047625;stroke-miterlimit:4;stroke-dasharray:none"
           id="path21828" />
        <path
           d="m 188.41518,63.172057 v 0.599447 q -0.26872,-0.137804 -0.5581,-0.206706 -0.28939,-0.0689 -0.59945,-0.0689 -0.47198,0 -0.70969,0.144694 -0.23427,0.144694 -0.23427,0.434082 0,0.220486 0.16881,0.347955 0.16881,0.124024 0.67869,0.237712 l 0.21704,0.04823 q 0.67524,0.144694 0.95774,0.409967 0.28594,0.261827 0.28594,0.733806 0,0.537435 -0.42719,0.850939 -0.42375,0.313504 -1.16789,0.313504 -0.31006,0 -0.64768,-0.06201 -0.33417,-0.05857 -0.70625,-0.179145 V 66.12106 q 0.3514,0.18259 0.69247,0.275608 0.34106,0.08957 0.67524,0.08957 0.44786,0 0.68902,-0.151585 0.24115,-0.155029 0.24115,-0.434082 0,-0.258382 -0.1757,-0.396186 -0.17225,-0.137804 -0.76136,-0.265273 l -0.22049,-0.05168 q -0.58911,-0.124024 -0.85094,-0.378961 -0.26182,-0.258382 -0.26182,-0.706245 0,-0.544326 0.38585,-0.840604 0.38585,-0.296278 1.09554,-0.296278 0.3514,0 0.66146,0.05168 0.31005,0.05168 0.57188,0.15503 z"
           style="stroke-width:0.047625;stroke-miterlimit:4;stroke-dasharray:none"
           id="path21830" />
        <path
           d="m 191.12992,63.502786 q -0.50988,0 -0.80615,0.399631 -0.29628,0.396186 -0.29628,1.088651 0,0.692465 0.29283,1.092096 0.29628,0.396186 0.8096,0.396186 0.50643,0 0.80271,-0.399631 0.29628,-0.399631 0.29628,-1.088651 0,-0.685574 -0.29628,-1.085206 -0.29628,-0.403076 -0.80271,-0.403076 z m 0,-0.537435 q 0.82682,0 1.2988,0.537435 0.47198,0.537435 0.47198,1.488282 0,0.947402 -0.47198,1.488282 -0.47198,0.537436 -1.2988,0.537436 -0.83027,0 -1.30225,-0.537436 -0.46853,-0.54088 -0.46853,-1.488282 0,-0.950847 0.46853,-1.488282 0.47198,-0.537435 1.30225,-0.537435 z"
           style="stroke-width:0.047625;stroke-miterlimit:4;stroke-dasharray:none"
           id="path21832" />
        <path
           d="m 196.18388,63.650925 q -0.1068,-0.06201 -0.23427,-0.08957 -0.12402,-0.03101 -0.27561,-0.03101 -0.53743,0 -0.82682,0.3514 -0.28594,0.347955 -0.28594,1.002523 v 2.032608 h -0.63735 v -3.85851 h 0.63735 v 0.599447 q 0.19981,-0.3514 0.52021,-0.520209 0.32039,-0.172255 0.77859,-0.172255 0.0655,0 0.14469,0.01034 0.0792,0.0069 0.1757,0.02412 z"
           style="stroke-width:0.047625;stroke-miterlimit:4;stroke-dasharray:none"
           id="path21834" />
        <path
           d="m 199.31547,63.172057 v 0.599447 q -0.26872,-0.137804 -0.5581,-0.206706 -0.28939,-0.0689 -0.59945,-0.0689 -0.47198,0 -0.70969,0.144694 -0.23427,0.144694 -0.23427,0.434082 0,0.220486 0.16881,0.347955 0.16881,0.124024 0.67869,0.237712 l 0.21704,0.04823 q 0.67524,0.144694 0.95773,0.409967 0.28595,0.261827 0.28595,0.733806 0,0.537435 -0.4272,0.850939 -0.42374,0.313504 -1.16788,0.313504 -0.31006,0 -0.64768,-0.06201 -0.33418,-0.05857 -0.70625,-0.179145 V 66.12106 q 0.3514,0.18259 0.69247,0.275608 0.34106,0.08957 0.67524,0.08957 0.44786,0 0.68902,-0.151585 0.24115,-0.155029 0.24115,-0.434082 0,-0.258382 -0.1757,-0.396186 -0.17225,-0.137804 -0.76136,-0.265273 l -0.22049,-0.05168 q -0.58911,-0.124024 -0.85094,-0.378961 -0.26183,-0.258382 -0.26183,-0.706245 0,-0.544326 0.38585,-0.840604 0.38586,-0.296278 1.09555,-0.296278 0.3514,0 0.66145,0.05168 0.31006,0.05168 0.57189,0.15503 z"
           style="stroke-width:0.047625;stroke-miterlimit:4;stroke-dasharray:none"
           id="path21836" />
      </g>
    </g>
    <g
       transform="translate(-54.701873,29.223392)"
       id="g5510"
       style="stroke-width:0.047625;stroke-miterlimit:4;stroke-dasharray:none">
      <rect
         style="opacity:0.652177;fill:#e69679;fill-opacity:1;fill-rule:evenodd;stroke:#000000;stroke-width:0.047625;stroke-miterlimit:4;stroke-dasharray:none;stop-color:#000000"
         id="rect3410-2"
         width="55.117767"
         height="10.735754"
         x="137.07515"
         y="13.446595"
         ry="1.398627" />
      <g
         aria-label="Configurations"
         id="text20608"
         style="font-size:7.05556px;line-height:1.25;font-family:sans-serif;-inkscape-font-specification:sans-serif;stroke-width:0.047625;stroke-miterlimit:4;stroke-dasharray:none">
        <path
           d="m 143.54147,16.324408 v 0.733806 q -0.3514,-0.327285 -0.75103,-0.489204 -0.39618,-0.16192 -0.84405,-0.16192 -0.88194,0 -1.35047,0.540881 -0.46854,0.537435 -0.46854,1.557184 0,1.016304 0.46854,1.557184 0.46853,0.537435 1.35047,0.537435 0.44787,0 0.84405,-0.161919 0.39963,-0.16192 0.75103,-0.489204 v 0.726915 q -0.36518,0.248047 -0.77514,0.372071 -0.40652,0.124023 -0.86128,0.124023 -1.16788,0 -1.83968,-0.713135 -0.67179,-0.71658 -0.67179,-1.95337 0,-1.240235 0.67179,-1.953371 0.6718,-0.71658 1.83968,-0.71658 0.46165,0 0.86817,0.124024 0.40996,0.120578 0.76825,0.36518 z"
           style="stroke-width:0.047625;stroke-miterlimit:4;stroke-dasharray:none"
           id="path21866" />
        <path
           d="m 146.09085,17.657661 q -0.50988,0 -0.80616,0.399631 -0.29627,0.396186 -0.29627,1.088651 0,0.692465 0.29283,1.092096 0.29628,0.396186 0.8096,0.396186 0.50643,0 0.8027,-0.399631 0.29628,-0.399632 0.29628,-1.088651 0,-0.685575 -0.29628,-1.085206 -0.29627,-0.403076 -0.8027,-0.403076 z m 0,-0.537436 q 0.82682,0 1.2988,0.537436 0.47198,0.537435 0.47198,1.488282 0,0.947402 -0.47198,1.488282 -0.47198,0.537435 -1.2988,0.537435 -0.83027,0 -1.30225,-0.537435 -0.46853,-0.54088 -0.46853,-1.488282 0,-0.950847 0.46853,-1.488282 0.47198,-0.537436 1.30225,-0.537436 z"
           style="stroke-width:0.047625;stroke-miterlimit:4;stroke-dasharray:none"
           id="path21868" />
        <path
           d="m 152.11632,18.742866 v 2.328887 h -0.63389 v -2.308216 q 0,-0.54777 -0.2136,-0.819933 -0.2136,-0.272163 -0.64079,-0.272163 -0.51332,0 -0.8096,0.327284 -0.29627,0.327285 -0.29627,0.892281 v 2.180747 h -0.63735 v -3.85851 h 0.63735 v 0.599447 q 0.22737,-0.347955 0.53399,-0.52021 0.31005,-0.172255 0.71313,-0.172255 0.6649,0 1.00597,0.413412 0.34106,0.409967 0.34106,1.209229 z"
           style="stroke-width:0.047625;stroke-miterlimit:4;stroke-dasharray:none"
           id="path21870" />
        <path
           d="m 156.50538,17.213243 v 3.85851 h -0.63735 v -3.365861 h -1.73977 v 3.365861 h -0.63734 v -3.365861 h -0.60634 v -0.492649 h 0.60634 v -0.268718 q 0,-0.630452 0.29628,-0.930176 0.29972,-0.303168 0.91639,-0.303168 h 0.63734 v 0.527099 h -0.60633 q -0.34107,0 -0.47543,0.137804 -0.13091,0.137804 -0.13091,0.496094 v 0.341065 z m -0.63735,-1.495172 h 0.63735 v 0.802707 h -0.63735 z"
           style="stroke-width:0.047625;stroke-miterlimit:4;stroke-dasharray:none"
           id="path21872" />
        <path
           d="m 160.37767,19.097712 q 0,-0.68902 -0.28595,-1.067981 -0.28249,-0.37896 -0.79581,-0.37896 -0.50988,0 -0.79582,0.37896 -0.2825,0.378961 -0.2825,1.067981 0,0.685574 0.2825,1.064535 0.28594,0.378961 0.79582,0.378961 0.51332,0 0.79581,-0.378961 0.28595,-0.378961 0.28595,-1.064535 z m 0.6339,1.495172 q 0,0.985298 -0.43753,1.464166 -0.43753,0.482314 -1.34014,0.482314 -0.33418,0 -0.63046,-0.05168 -0.29628,-0.04823 -0.57533,-0.151585 v -0.616672 q 0.27905,0.151584 0.55122,0.223931 0.27216,0.07235 0.55466,0.07235 0.62356,0 0.93362,-0.327284 0.31006,-0.323839 0.31006,-0.981853 v -0.313504 q -0.19637,0.341065 -0.50299,0.509875 -0.30661,0.16881 -0.7338,0.16881 -0.70969,0 -1.14377,-0.540881 -0.43409,-0.54088 -0.43409,-1.43316 0,-0.895726 0.43409,-1.436606 0.43408,-0.540881 1.14377,-0.540881 0.42719,0 0.7338,0.16881 0.30662,0.16881 0.50299,0.509875 v -0.585667 h 0.6339 z"
           style="stroke-width:0.047625;stroke-miterlimit:4;stroke-dasharray:none"
           id="path21874" />
        <path
           d="m 162.2518,19.549019 v -2.335776 h 0.6339 v 2.311661 q 0,0.54777 0.21359,0.823378 0.2136,0.272163 0.64079,0.272163 0.51332,0 0.8096,-0.327285 0.29972,-0.327284 0.29972,-0.89228 v -2.187637 h 0.6339 v 3.85851 h -0.6339 v -0.592557 q -0.23082,0.3514 -0.53743,0.523655 -0.30317,0.168809 -0.70625,0.168809 -0.6649,0 -1.00941,-0.413411 -0.34451,-0.413412 -0.34451,-1.20923 z m 1.59508,-2.428794 z"
           style="stroke-width:0.047625;stroke-miterlimit:4;stroke-dasharray:none"
           id="path21876" />
        <path
           d="m 169.03175,17.8058 q -0.10679,-0.06201 -0.23426,-0.08957 -0.12403,-0.03101 -0.27561,-0.03101 -0.53744,0 -0.82682,0.3514 -0.28595,0.347955 -0.28595,1.002524 v 2.032608 h -0.63734 v -3.85851 h 0.63734 v 0.599447 q 0.19982,-0.3514 0.52021,-0.52021 0.3204,-0.172255 0.77859,-0.172255 0.0655,0 0.1447,0.01034 0.0792,0.0069 0.1757,0.02411 z"
           style="stroke-width:0.047625;stroke-miterlimit:4;stroke-dasharray:none"
           id="path21878" />
        <path
           d="m 171.4571,19.132163 q -0.76826,0 -1.06453,0.1757 -0.29628,0.1757 -0.29628,0.599447 0,0.337619 0.22048,0.537435 0.22394,0.19637 0.60634,0.19637 0.5271,0 0.84405,-0.37207 0.32039,-0.375516 0.32039,-0.995633 v -0.141249 z m 1.26435,-0.261828 v 2.201418 h -0.6339 v -0.585667 q -0.21704,0.3514 -0.54088,0.52021 -0.32384,0.165364 -0.79237,0.165364 -0.59256,0 -0.94396,-0.330729 -0.34795,-0.334174 -0.34795,-0.89228 0,-0.651124 0.43408,-0.981853 0.43753,-0.33073 1.30225,-0.33073 h 0.88883 v -0.06201 q 0,-0.437528 -0.28938,-0.675239 -0.28595,-0.241157 -0.80616,-0.241157 -0.33073,0 -0.64423,0.07924 -0.3135,0.07924 -0.60289,0.237712 v -0.585667 q 0.34795,-0.134359 0.67524,-0.199816 0.32728,-0.0689 0.63734,-0.0689 0.83716,0 1.25057,0.434083 0.41341,0.434082 0.41341,1.316027 z"
           style="stroke-width:0.047625;stroke-miterlimit:4;stroke-dasharray:none"
           id="path21880" />
        <path
           d="m 174.6576,16.117702 v 1.095541 h 1.30569 v 0.492649 h -1.30569 v 2.094619 q 0,0.471979 0.12746,0.606338 0.13092,0.134359 0.5271,0.134359 h 0.65113 v 0.530545 h -0.65113 q -0.7338,0 -1.01285,-0.272163 -0.27906,-0.275608 -0.27906,-0.999079 v -2.094619 h -0.46509 v -0.492649 h 0.46509 v -1.095541 z"
           style="stroke-width:0.047625;stroke-miterlimit:4;stroke-dasharray:none"
           id="path21882" />
        <path
           d="m 176.80045,17.213243 h 0.6339 v 3.85851 h -0.6339 z m 0,-1.502062 h 0.6339 v 0.802707 h -0.6339 z"
           style="stroke-width:0.047625;stroke-miterlimit:4;stroke-dasharray:none"
           id="path21884" />
        <path
           d="m 180.25244,17.657661 q -0.50988,0 -0.80616,0.399631 -0.29627,0.396186 -0.29627,1.088651 0,0.692465 0.29283,1.092096 0.29628,0.396186 0.8096,0.396186 0.50643,0 0.80271,-0.399631 0.29627,-0.399632 0.29627,-1.088651 0,-0.685575 -0.29627,-1.085206 -0.29628,-0.403076 -0.80271,-0.403076 z m 0,-0.537436 q 0.82682,0 1.2988,0.537436 0.47198,0.537435 0.47198,1.488282 0,0.947402 -0.47198,1.488282 -0.47198,0.537435 -1.2988,0.537435 -0.83027,0 -1.30225,-0.537435 -0.46853,-0.54088 -0.46853,-1.488282 0,-0.950847 0.46853,-1.488282 0.47198,-0.537436 1.30225,-0.537436 z"
           style="stroke-width:0.047625;stroke-miterlimit:4;stroke-dasharray:none"
           id="path21886" />
        <path
           d="m 186.27791,18.742866 v 2.328887 h -0.63389 v -2.308216 q 0,-0.54777 -0.2136,-0.819933 -0.2136,-0.272163 -0.64079,-0.272163 -0.51332,0 -0.8096,0.327284 -0.29627,0.327285 -0.29627,0.892281 v 2.180747 h -0.63735 v -3.85851 h 0.63735 v 0.599447 q 0.22737,-0.347955 0.53399,-0.52021 0.31005,-0.172255 0.71313,-0.172255 0.6649,0 1.00597,0.413412 0.34106,0.409967 0.34106,1.209229 z"
           style="stroke-width:0.047625;stroke-miterlimit:4;stroke-dasharray:none"
           id="path21888" />
        <path
           d="m 190.00895,17.326931 v 0.599447 q -0.26871,-0.137804 -0.5581,-0.206706 -0.28939,-0.0689 -0.59945,-0.0689 -0.47198,0 -0.70969,0.144694 -0.23427,0.144694 -0.23427,0.434082 0,0.220486 0.16881,0.347955 0.16881,0.124023 0.67869,0.237712 l 0.21704,0.04823 q 0.67524,0.144694 0.95774,0.409967 0.28594,0.261827 0.28594,0.733805 0,0.537436 -0.42719,0.850939 -0.42375,0.313504 -1.16789,0.313504 -0.31006,0 -0.64768,-0.06201 -0.33417,-0.05857 -0.70624,-0.179145 v -0.654569 q 0.3514,0.18259 0.69246,0.275608 0.34107,0.08957 0.67524,0.08957 0.44786,0 0.68902,-0.151584 0.24116,-0.155029 0.24116,-0.434082 0,-0.258383 -0.1757,-0.396187 -0.17226,-0.137803 -0.76137,-0.265272 l -0.22049,-0.05168 q -0.58911,-0.124023 -0.85094,-0.37896 -0.26182,-0.258383 -0.26182,-0.706245 0,-0.544326 0.38585,-0.840604 0.38585,-0.296279 1.09554,-0.296279 0.3514,0 0.66146,0.05168 0.31006,0.05168 0.57188,0.15503 z"
           style="stroke-width:0.047625;stroke-miterlimit:4;stroke-dasharray:none"
           id="path21890" />
      </g>
    </g>
    <path
       id="path20779"
       d="m 98.816917,75.223352 -11.57636,11.57635"
       style="fill:none;stroke:#000000;stroke-width:0.259644;stroke-linecap:butt;stroke-linejoin:miter;stroke-miterlimit:4;stroke-dasharray:none;stroke-opacity:1;marker-end:url(#marker20930)" />
    <path
       id="path20781"
       d="m 113.38148,75.386732 12.98984,10.74592"
       style="fill:none;stroke:#000000;stroke-width:0.259644;stroke-linecap:butt;stroke-linejoin:miter;stroke-miterlimit:4;stroke-dasharray:none;stroke-opacity:1;marker-end:url(#marker21382)" />
    <path
       style="fill:none;stroke:#000000;stroke-width:0.259644;stroke-linecap:butt;stroke-linejoin:miter;stroke-miterlimit:4;stroke-dasharray:none;stroke-opacity:1;marker-end:url(#marker20785-3)"
       d="m 108.51789,53.963962 v 8.53025"
       id="path20779-5" />
    <path
       style="fill:none;stroke:#000000;stroke-width:0.259644;stroke-linecap:butt;stroke-linejoin:miter;stroke-miterlimit:4;stroke-dasharray:none;stroke-opacity:1;marker-end:url(#marker21382-9)"
       d="m 139.09292,48.839132 11.70154,12.13609"
       id="path20781-2" />
    <path
       style="fill:none;stroke:#000000;stroke-width:0.259644;stroke-linecap:butt;stroke-linejoin:miter;stroke-miterlimit:4;stroke-dasharray:none;stroke-opacity:1;marker-end:url(#marker20785)"
       d="m 81.004267,50.056702 -11.57636,11.57635"
       id="path20779-2" />
  </g>
</svg>
